<svg xmlns="http://www.w3.org/2000/svg" width="255.477" height="36.985" viewBox="0 0 255.477 36.985">
    <g data-name="Group 304">
        <g data-name="Group 272">
            <g data-name="Group 244">
                <g data-name="Group 242">
                    <path data-name="Path 67" d="M110.75 30.792a1.694 1.694 0 0 0-.508-1.238 1.769 1.769 0 0 0-2.476 0 1.7 1.7 0 0 0-.507 1.238v18.58a5.6 5.6 0 0 1-1.626 3.725 4.638 4.638 0 0 1-3.315 1.335 4.757 4.757 0 0 1-1.9-.382A5 5 0 0 1 98.86 53a5.239 5.239 0 0 1-1.077-1.586 5.434 5.434 0 0 1-.447-2.005v-6.645a1.693 1.693 0 0 0-.508-1.238 1.768 1.768 0 0 0-2.475 0 1.693 1.693 0 0 0-.508 1.238V49.4a4.972 4.972 0 0 1-8.508 3.568 4.967 4.967 0 0 1-1.074-1.6 5.023 5.023 0 0 1-.384-1.968V30.792a1.694 1.694 0 0 0-.508-1.238 1.769 1.769 0 0 0-2.476 0 1.694 1.694 0 0 0-.508 1.238V49.4a8.349 8.349 0 0 0 .665 3.3 8.375 8.375 0 0 0 4.51 4.511 8.344 8.344 0 0 0 3.3.665 8.239 8.239 0 0 0 4.056-1.033 8.478 8.478 0 0 0 2.682-2.315 9.1 9.1 0 0 0 2.683 2.272 8.4 8.4 0 0 0 7.315.368 8.5 8.5 0 0 0 4.487-4.486 8.226 8.226 0 0 0 .665-3.28z" style="fill:#5b3a00" transform="translate(-76.353 -24.947)"/>
                    <path data-name="Path 68" d="M88.862 61.033a11.486 11.486 0 0 1-4.537-.917 11.526 11.526 0 0 1-6.175-6.178 11.485 11.485 0 0 1-.916-4.532V30.792a4.9 4.9 0 1 1 9.8 0v18.614a1.884 1.884 0 0 0 .134.736 1.841 1.841 0 0 0 .4.6 1.781 1.781 0 0 0 1.995.4 1.829 1.829 0 0 0 .994-1 1.911 1.911 0 0 0 .137-.74v-6.638a4.9 4.9 0 1 1 9.8 0v6.642a2.214 2.214 0 0 0 .175.722 2.1 2.1 0 0 0 .427.64 1.853 1.853 0 0 0 .58.387 1.606 1.606 0 0 0 .647.124 1.5 1.5 0 0 0 1.151-.476 2.5 2.5 0 0 0 .636-1.583V30.792a4.9 4.9 0 1 1 9.8 0v18.614a11.341 11.341 0 0 1-.925 4.531 11.576 11.576 0 0 1-16.249 5.613 12.2 12.2 0 0 1-1.1-.7 11.893 11.893 0 0 1-1.186.751 11.363 11.363 0 0 1-5.588 1.432z" style="fill:#5b3a00" transform="translate(-76.353 -24.947)"/>
                </g>
                <g data-name="Group 243">
                    <path data-name="Path 69" d="M88.862 58.76a9.219 9.219 0 0 1-3.645-.735 9.264 9.264 0 0 1-4.975-4.976 9.21 9.21 0 0 1-.735-3.643V30.792a2.582 2.582 0 0 1 .764-1.86 2.635 2.635 0 0 1 3.722 0 2.576 2.576 0 0 1 .766 1.861v18.613a4.1 4.1 0 0 0 1.2 2.945 4.06 4.06 0 0 0 4.485.886 4.1 4.1 0 0 0 2.52-3.831v-6.642a2.572 2.572 0 0 1 .767-1.861 2.633 2.633 0 0 1 3.72 0 2.575 2.575 0 0 1 .765 1.86v6.642a4.493 4.493 0 0 0 .372 1.646 4.354 4.354 0 0 0 .9 1.322 4.1 4.1 0 0 0 1.286.867 3.886 3.886 0 0 0 1.549.311 3.747 3.747 0 0 0 2.71-1.1 4.749 4.749 0 0 0 1.355-3.161l-.006-18.5a2.577 2.577 0 0 1 .766-1.861 2.638 2.638 0 0 1 3.721 0 2.58 2.58 0 0 1 .766 1.861v18.616a9.091 9.091 0 0 1-.738 3.628 9.388 9.388 0 0 1-4.945 4.946 9.1 9.1 0 0 1-3.629.737 8.987 8.987 0 0 1-4.468-1.148 10.02 10.02 0 0 1-2.236-1.7 9.43 9.43 0 0 1-2.27 1.749 9.127 9.127 0 0 1-4.487 1.142zm-6.729-28.828a.873.873 0 0 0-.617.245.822.822 0 0 0-.248.615v18.614a7.458 7.458 0 0 0 .594 2.953 7.5 7.5 0 0 0 4.046 4.041 7.459 7.459 0 0 0 2.954.6 7.369 7.369 0 0 0 3.628-.922A7.612 7.612 0 0 0 94.9 54l.684-.907.707.89a8.246 8.246 0 0 0 2.425 2.054 7.239 7.239 0 0 0 3.605.922 7.32 7.32 0 0 0 2.929-.593 7.612 7.612 0 0 0 4.028-4.028 7.335 7.335 0 0 0 .594-2.929V30.792a.817.817 0 0 0-.25-.615.894.894 0 0 0-1.231 0 .817.817 0 0 0-.249.615v18.579a6.488 6.488 0 0 1-1.9 4.366 5.545 5.545 0 0 1-3.918 1.576 5.638 5.638 0 0 1-2.248-.455 5.852 5.852 0 0 1-1.833-1.239 6.123 6.123 0 0 1-1.26-1.852 6.263 6.263 0 0 1-.522-2.329v-6.674a.818.818 0 0 0-.248-.614.9.9 0 0 0-1.232 0 .819.819 0 0 0-.249.615v6.642a5.87 5.87 0 0 1-3.6 5.454 6.007 6.007 0 0 1-4.557 0 5.943 5.943 0 0 1-1.862-1.261A5.852 5.852 0 0 1 83 49.406V30.792a.817.817 0 0 0-.25-.615.865.865 0 0 0-.617-.245z" style="fill:#5b3a00" transform="translate(-76.353 -24.947)"/>
                    <path data-name="Path 70" d="M88.861 61.914a12.362 12.362 0 0 1-4.882-.988 12.415 12.415 0 0 1-6.639-6.641 12.35 12.35 0 0 1-.987-4.879V30.792a5.781 5.781 0 1 1 11.561 0v18.614a1.05 1.05 0 0 0 .064.394 1 1 0 0 0 .211.322 1.066 1.066 0 0 0 .332.225 1.044 1.044 0 0 0 .7-.017.944.944 0 0 0 .527-.532 1.034 1.034 0 0 0 .065-.392v-6.642a5.78 5.78 0 1 1 11.559 0v6.642a1.4 1.4 0 0 0 .1.361 1.251 1.251 0 0 0 .249.382.964.964 0 0 0 .305.2.756.756 0 0 0 .3.051.631.631 0 0 0 .545-.236 1.747 1.747 0 0 0 .366-1.024l-.005-18.345a5.78 5.78 0 1 1 11.56 0v18.611a12.225 12.225 0 0 1-1 4.876 12.533 12.533 0 0 1-6.587 6.592 12.475 12.475 0 0 1-10.9-.557 13.874 13.874 0 0 1-.663-.4q-.374.241-.764.458a12.237 12.237 0 0 1-6.017 1.539z" style="fill:#5b3a00" transform="translate(-76.353 -24.947)"/>
                </g>
            </g>
            <g data-name="Group 247">
                <g data-name="Group 245">
                    <path data-name="Path 71" d="M126.7 30.284a2.419 2.419 0 0 0-.625-.835 1.53 1.53 0 0 0-2.1.031 2.191 2.191 0 0 0-.575.813L112.957 55.5a1.634 1.634 0 0 0 0 1.333 1.72 1.72 0 0 0 .951.927 1.6 1.6 0 0 0 1.346-.03 1.846 1.846 0 0 0 .912-.921l1.6-3.782H132.2l1.648 3.791a1.834 1.834 0 0 0 .909.912 1.608 1.608 0 0 0 .7.164 1.673 1.673 0 0 0 .646-.134 1.725 1.725 0 0 0 .95-.927 1.645 1.645 0 0 0 0-1.333zm4.083 19.254h-11.549l5.792-14z" style="fill:#5b3a00" transform="translate(-76.353 -24.947)"/>
                    <path data-name="Path 72" d="M135.456 61.051a4.736 4.736 0 0 1-2.064-.475 4.96 4.96 0 0 1-2.417-2.453l-.843-1.939H119.86l-.788 1.859a5.05 5.05 0 0 1-2.459 2.536 4.756 4.756 0 0 1-3.906.1 4.854 4.854 0 0 1-2.644-2.592 4.8 4.8 0 0 1-.015-3.8l10.438-25.2a5.158 5.158 0 0 1 1.337-1.913 4.7 4.7 0 0 1 6.321-.1A5.578 5.578 0 0 1 129.578 29l.035.083 10.359 25.22a4.9 4.9 0 0 1-4.516 6.745zm-1.317-4.345.006.013zm-18.265 0v.007zm8.077-10.318h2.123l-1.058-2.575z" style="fill:#5b3a00" transform="translate(-76.353 -24.947)"/>
                </g>
                <g data-name="Group 246">
                    <path data-name="Path 73" d="M135.456 58.778a2.491 2.491 0 0 1-1.081-.251 2.73 2.73 0 0 1-1.331-1.343l-1.422-3.273h-13.268l-1.375 3.245a2.721 2.721 0 0 1-1.344 1.371 2.469 2.469 0 0 1-2.061.049 2.613 2.613 0 0 1-1.423-1.39 2.516 2.516 0 0 1-.007-2.023l10.441-25.207a3 3 0 0 1 .789-1.12 2.4 2.4 0 0 1 3.276-.05 3.293 3.293 0 0 1 .85 1.14l.011.024 10.358 25.218a2.521 2.521 0 0 1-.01 2.02 2.617 2.617 0 0 1-1.418 1.388 2.572 2.572 0 0 1-.985.202zm-18.268-6.628h15.588l1.878 4.32a.945.945 0 0 0 .48.468.72.72 0 0 0 .631.011.841.841 0 0 0 .479-.464.767.767 0 0 0 0-.644l-10.357-25.209a1.574 1.574 0 0 0-.4-.521.648.648 0 0 0-.913.011 1.319 1.319 0 0 0-.353.479l-10.45 25.239a.755.755 0 0 0-.005.642.851.851 0 0 0 .485.469.729.729 0 0 0 .627-.014.964.964 0 0 0 .489-.491zm14.9-1.731h-14.172l7.113-17.2zm-11.542-1.762h8.914l-4.442-10.814z" style="fill:#5b3a00" transform="translate(-76.353 -24.947)"/>
                    <path data-name="Path 74" d="M114.555 61.931a5.679 5.679 0 0 1-2.189-.441 5.793 5.793 0 0 1-3.109-3.051 5.656 5.656 0 0 1-.022-4.492l10.437-25.2a6.021 6.021 0 0 1 1.556-2.224 5.525 5.525 0 0 1 3.782-1.508l.028-.07.029.07a5.605 5.605 0 0 1 3.659 1.4 6.431 6.431 0 0 1 1.656 2.233l10.4 25.326a5.665 5.665 0 0 1-.036 4.478 5.789 5.789 0 0 1-3.09 3.036 5.632 5.632 0 0 1-4.653-.117 5.833 5.833 0 0 1-2.834-2.879l-.619-1.424h-9.111l-.56 1.321a5.955 5.955 0 0 1-2.891 2.989 5.656 5.656 0 0 1-2.433.553z" style="fill:#5b3a00" transform="translate(-76.353 -24.947)"/>
                </g>
            </g>
            <g data-name="Group 250">
                <g data-name="Group 248">
                    <path data-name="Path 75" d="M157.873 29.046h-15.38a1.733 1.733 0 0 0-1.746 1.746v25.342a1.746 1.746 0 1 0 3.492 0v-9.658h9.221a1.746 1.746 0 1 0 0-3.491h-9.221V32.538h13.634a1.746 1.746 0 1 0 0-3.492z" style="fill:#5b3a00" transform="translate(-76.353 -24.947)"/>
                    <path data-name="Path 76" d="M142.492 61.033a4.886 4.886 0 0 1-4.9-4.9V30.792a4.884 4.884 0 0 1 4.9-4.9h15.381a4.9 4.9 0 1 1 0 9.8h-10.481v4.138h6.068a4.9 4.9 0 1 1 0 9.8h-6.068v6.5a4.887 4.887 0 0 1-4.9 4.9z" style="fill:#5b3a00" transform="translate(-76.353 -24.947)"/>
                </g>
                <g data-name="Group 249">
                    <path data-name="Path 77" d="M142.493 58.76a2.614 2.614 0 0 1-2.626-2.626V30.792a2.612 2.612 0 0 1 2.626-2.626h15.38a2.627 2.627 0 1 1 0 5.253h-12.754V42.1h8.341a2.626 2.626 0 1 1 0 5.252h-8.341v8.778a2.615 2.615 0 0 1-2.626 2.626zm0-28.833a.808.808 0 0 0-.616.25.817.817 0 0 0-.249.615v25.342a.816.816 0 0 0 .248.614.861.861 0 0 0 1.231 0 .815.815 0 0 0 .251-.616V45.6h10.1a.852.852 0 0 0 .865-.864.808.808 0 0 0-.25-.616.817.817 0 0 0-.615-.25h-10.1V31.658h14.515a.8.8 0 0 0 .614-.25.865.865 0 0 0-.614-1.481z" style="fill:#5b3a00" transform="translate(-76.353 -24.947)"/>
                    <path data-name="Path 78" d="M142.493 61.914a5.768 5.768 0 0 1-5.78-5.78V30.792a5.767 5.767 0 0 1 5.78-5.78h15.38a5.781 5.781 0 1 1 0 11.561h-9.6v2.377h5.187a5.78 5.78 0 1 1 0 11.56h-5.187v5.624a5.768 5.768 0 0 1-5.78 5.78z" style="fill:#5b3a00" transform="translate(-76.353 -24.947)"/>
                </g>
            </g>
            <g data-name="Group 253">
                <g data-name="Group 251">
                    <path data-name="Path 79" d="M179.619 29.046h-15.38a1.733 1.733 0 0 0-1.745 1.746v25.342a1.746 1.746 0 1 0 3.491 0v-9.658h9.221a1.746 1.746 0 1 0 0-3.491h-9.221V32.538h13.634a1.746 1.746 0 1 0 0-3.492z" style="fill:#5b3a00" transform="translate(-76.353 -24.947)"/>
                    <path data-name="Path 80" d="M164.239 61.033a4.886 4.886 0 0 1-4.9-4.9V30.792a4.884 4.884 0 0 1 4.9-4.9h15.38a4.9 4.9 0 1 1 0 9.8h-10.48v4.138h6.067a4.9 4.9 0 1 1 0 9.8h-6.067v6.5a4.888 4.888 0 0 1-4.9 4.9z" style="fill:#5b3a00" transform="translate(-76.353 -24.947)"/>
                </g>
                <g data-name="Group 252">
                    <path data-name="Path 81" d="M164.239 58.76a2.614 2.614 0 0 1-2.626-2.626V30.792a2.612 2.612 0 0 1 2.626-2.626h15.38a2.627 2.627 0 1 1 0 5.253h-12.753V42.1h8.34a2.626 2.626 0 1 1 0 5.252h-8.34v8.778a2.615 2.615 0 0 1-2.627 2.626zm0-28.833a.852.852 0 0 0-.865.865v25.342a.814.814 0 0 0 .249.614.865.865 0 0 0 1.229 0 .816.816 0 0 0 .252-.617V45.6h10.1a.813.813 0 0 0 .617-.25.822.822 0 0 0 .249-.614.855.855 0 0 0-.866-.866H165.1V31.658h14.515a.866.866 0 1 0 0-1.731z" style="fill:#5b3a00" transform="translate(-76.353 -24.947)"/>
                    <path data-name="Path 82" d="M164.239 61.914a5.768 5.768 0 0 1-5.78-5.78V30.792a5.767 5.767 0 0 1 5.78-5.78h15.38a5.781 5.781 0 1 1 0 11.561h-9.6v2.377h5.188a5.78 5.78 0 1 1 0 11.56h-5.188v5.624a5.768 5.768 0 0 1-5.78 5.78z" style="fill:#5b3a00" transform="translate(-76.353 -24.947)"/>
                </g>
            </g>
            <g data-name="Group 256">
                <g data-name="Group 254">
                    <path data-name="Path 83" d="M201.453 54.389h-13.721v-23.6a1.694 1.694 0 0 0-.508-1.238 1.77 1.77 0 0 0-2.477 0 1.7 1.7 0 0 0-.507 1.238v25.345a1.735 1.735 0 0 0 1.746 1.746h15.467a1.746 1.746 0 1 0 0-3.491z" style="fill:#5b3a00" transform="translate(-76.353 -24.947)"/>
                    <path data-name="Path 84" d="M201.453 61.033h-15.468a4.886 4.886 0 0 1-4.9-4.9V30.792a4.9 4.9 0 1 1 9.8 0v20.443h10.568a4.9 4.9 0 1 1 0 9.8z" style="fill:#5b3a00" transform="translate(-76.353 -24.947)"/>
                </g>
                <g data-name="Group 255">
                    <path data-name="Path 85" d="M201.453 58.76h-15.468a2.614 2.614 0 0 1-2.625-2.626V30.792a2.58 2.58 0 0 1 .765-1.861 2.638 2.638 0 0 1 3.721 0 2.582 2.582 0 0 1 .767 1.861v22.717h12.84a2.626 2.626 0 1 1 0 5.251zm-15.467-28.828a.864.864 0 0 0-.615.245.814.814 0 0 0-.25.615v25.342a.854.854 0 0 0 .864.865h15.468a.8.8 0 0 0 .615-.249.884.884 0 0 0 0-1.23.808.808 0 0 0-.617-.25h-14.6V30.792a.81.81 0 0 0-.251-.616.865.865 0 0 0-.614-.244z" style="fill:#5b3a00" transform="translate(-76.353 -24.947)"/>
                    <path data-name="Path 86" d="M201.453 61.914h-15.468a5.768 5.768 0 0 1-5.779-5.78V30.792a5.745 5.745 0 0 1 1.687-4.089 5.78 5.78 0 0 1 9.873 4.089v19.563h9.687a5.78 5.78 0 1 1 0 11.559z" style="fill:#5b3a00" transform="translate(-76.353 -24.947)"/>
                </g>
            </g>
            <g data-name="Group 259">
                <g data-name="Group 257">
                    <path data-name="Path 87" d="M223.288 32.538a1.746 1.746 0 1 0 0-3.492H207.82a1.733 1.733 0 0 0-1.745 1.746v25.342a1.733 1.733 0 0 0 1.745 1.746h15.468a1.746 1.746 0 1 0 0-3.491h-13.722v-9.267h9.746a1.746 1.746 0 1 0 0-3.492h-9.746v-9.092z" style="fill:#5b3a00" transform="translate(-76.353 -24.947)"/>
                    <path data-name="Path 88" d="M223.287 61.033H207.82a4.886 4.886 0 0 1-4.9-4.9V30.792a4.884 4.884 0 0 1 4.9-4.9h15.467a4.9 4.9 0 1 1 0 9.8H212.72v2.784h6.591a4.9 4.9 0 1 1 0 9.8h-6.591v2.96h10.567a4.9 4.9 0 1 1 0 9.8z" style="fill:#5b3a00" transform="translate(-76.353 -24.947)"/>
                </g>
                <g data-name="Group 258">
                    <path data-name="Path 89" d="M223.288 58.76H207.82a2.614 2.614 0 0 1-2.626-2.626V30.792a2.612 2.612 0 0 1 2.626-2.626h15.468a2.627 2.627 0 1 1 0 5.253h-12.841v7.33h8.864a2.627 2.627 0 1 1 0 5.254h-8.864v7.506h12.841a2.626 2.626 0 1 1 0 5.251zM207.82 29.927a.852.852 0 0 0-.865.865v25.342a.854.854 0 0 0 .865.865h15.468a.8.8 0 0 0 .614-.249.88.88 0 0 0 0-1.23.8.8 0 0 0-.615-.25h-14.6V44.242h10.626a.821.821 0 0 0 .617-.252.866.866 0 0 0-.617-1.48h-10.628V31.658h14.6a.805.805 0 0 0 .614-.25.865.865 0 0 0-.614-1.481z" style="fill:#5b3a00" transform="translate(-76.353 -24.947)"/>
                    <path data-name="Path 90" d="M223.288 61.914H207.82a5.768 5.768 0 0 1-5.78-5.78V30.792a5.767 5.767 0 0 1 5.78-5.78h15.468a5.781 5.781 0 1 1 0 11.561H213.6V37.6h5.71a5.781 5.781 0 1 1 0 11.561h-5.71v1.2h9.687a5.78 5.78 0 1 1 0 11.559z" style="fill:#5b3a00" transform="translate(-76.353 -24.947)"/>
                </g>
            </g>
            <g data-name="Group 262">
                <g data-name="Group 260">
                    <path data-name="Path 91" d="M258.217 43.729a10.466 10.466 0 0 0 0-8.221 10.661 10.661 0 0 0-5.621-5.621 10.52 10.52 0 0 0-8.221 0 10.833 10.833 0 0 0-3.353 2.267 10.526 10.526 0 0 0-3.064 7.464v16.516a1.746 1.746 0 1 0 3.491 0v-9.126a6.089 6.089 0 0 0 .629.694 8.644 8.644 0 0 0 1.876 1.349 9.075 9.075 0 0 0 2.193.823 10.524 10.524 0 0 0 9.8-2.792 10.822 10.822 0 0 0 2.27-3.353zm-2.65-4.111a6.786 6.786 0 0 1-.558 2.728 7.057 7.057 0 0 1-1.531 2.236 7.513 7.513 0 0 1-2.265 1.516 7 7 0 0 1-5.411.021 7.21 7.21 0 0 1-4.353-6.506 6.8 6.8 0 0 1 .558-2.722 7.484 7.484 0 0 1 1.516-2.264 6.934 6.934 0 0 1 7.69-1.532 7.274 7.274 0 0 1 3.8 3.8 6.784 6.784 0 0 1 .554 2.723z" style="fill:#5b3a00" transform="translate(-76.353 -24.947)"/>
                    <path data-name="Path 92" d="M239.7 61.033a4.886 4.886 0 0 1-4.9-4.9V39.618a13.688 13.688 0 0 1 3.987-9.693A13.95 13.95 0 0 1 243.116 27a13.684 13.684 0 0 1 10.738 0 13.814 13.814 0 0 1 7.254 7.253 13.624 13.624 0 0 1 0 10.738 13.969 13.969 0 0 1-2.929 4.324 13.68 13.68 0 0 1-12.754 3.632c-.277-.065-.552-.14-.823-.223v3.413a4.887 4.887 0 0 1-4.9 4.9zm8.786-25.333a3.713 3.713 0 0 0-1.468.291 3.917 3.917 0 0 0-1.244.848 4.353 4.353 0 0 0-.876 1.315 3.653 3.653 0 0 0-.295 1.463 4.07 4.07 0 0 0 .341 1.516 4.127 4.127 0 0 0 .864 1.262 4.084 4.084 0 0 0 1.245.833 3.86 3.86 0 0 0 2.9-.018 4.346 4.346 0 0 0 1.317-.879 3.9 3.9 0 0 0 .846-1.24 3.8 3.8 0 0 0 0-2.939 4.107 4.107 0 0 0-2.162-2.16 3.7 3.7 0 0 0-1.468-.292z" style="fill:#5b3a00" transform="translate(-76.353 -24.947)"/>
                </g>
                <g data-name="Group 261">
                    <path data-name="Path 93" d="M239.7 58.76a2.615 2.615 0 0 1-2.627-2.626V39.618a11.413 11.413 0 0 1 3.322-8.087 11.7 11.7 0 0 1 3.624-2.451 11.371 11.371 0 0 1 8.924 0 11.537 11.537 0 0 1 6.078 6.076 11.36 11.36 0 0 1 0 8.924 11.721 11.721 0 0 1-2.452 3.624 11.417 11.417 0 0 1-10.628 3.027 9.961 9.961 0 0 1-2.405-.9 9.681 9.681 0 0 1-1.21-.766v7.072a2.615 2.615 0 0 1-2.626 2.623zm8.781-28.833a9.446 9.446 0 0 0-3.758.768 9.949 9.949 0 0 0-3.082 2.081 9.644 9.644 0 0 0-2.806 6.842v16.516a.814.814 0 0 0 .249.614.865.865 0 0 0 1.229 0 .816.816 0 0 0 .252-.617V44.425l1.578 2.044a5.009 5.009 0 0 0 .537.593 7.731 7.731 0 0 0 1.685 1.212 8.2 8.2 0 0 0 1.98.743 9.655 9.655 0 0 0 8.978-2.557 9.961 9.961 0 0 0 2.083-3.082 9.6 9.6 0 0 0 0-7.52 9.773 9.773 0 0 0-5.165-5.163 9.459 9.459 0 0 0-3.756-.768zm-.015 17.6a7.614 7.614 0 0 1-3.019-.6 8.087 8.087 0 0 1-4.882-7.289 7.707 7.707 0 0 1 .63-3.1 8.386 8.386 0 0 1 1.695-2.53 7.937 7.937 0 0 1 2.513-1.722 7.848 7.848 0 0 1 6.158 0 8.143 8.143 0 0 1 4.252 4.251 7.842 7.842 0 0 1 0 6.159 7.942 7.942 0 0 1-1.724 2.514 8.371 8.371 0 0 1-2.528 1.693 7.8 7.8 0 0 1-3.091.628zm.016-14.107a5.986 5.986 0 0 0-2.375.479 6.156 6.156 0 0 0-1.959 1.34 6.614 6.614 0 0 0-1.338 2 5.919 5.919 0 0 0-.484 2.372 6.295 6.295 0 0 0 3.821 5.7 6.09 6.09 0 0 0 4.711-.02 6.582 6.582 0 0 0 2-1.337 6.172 6.172 0 0 0 1.342-1.959 6.074 6.074 0 0 0 0-4.752 6.392 6.392 0 0 0-3.34-3.339 5.994 5.994 0 0 0-2.374-.48z" style="fill:#5b3a00" transform="translate(-76.353 -24.947)"/>
                    <path data-name="Path 94" d="M239.7 61.914a5.77 5.77 0 0 1-5.78-5.78V39.618a14.562 14.562 0 0 1 4.249-10.318 14.825 14.825 0 0 1 4.6-3.114 14.567 14.567 0 0 1 11.44 0 14.692 14.692 0 0 1 7.71 7.708 14.521 14.521 0 0 1 0 11.442 14.864 14.864 0 0 1-3.113 4.6 14.567 14.567 0 0 1-13.321 3.926v2.274a5.767 5.767 0 0 1-5.78 5.78zm8.783-25.337a2.85 2.85 0 0 0-1.118.218 3.02 3.02 0 0 0-.963.655 3.468 3.468 0 0 0-.7 1.05 2.823 2.823 0 0 0-.223 1.12 3.117 3.117 0 0 0 .263 1.145 3.245 3.245 0 0 0 .68 1 3.207 3.207 0 0 0 .973.649 2.977 2.977 0 0 0 2.2-.016 3.419 3.419 0 0 0 1.049-.7 3.047 3.047 0 0 0 .66-.97 2.931 2.931 0 0 0 0-2.233 3.324 3.324 0 0 0-.689-1.017 3.275 3.275 0 0 0-1.02-.688 2.842 2.842 0 0 0-1.109-.213z" style="fill:#5b3a00" transform="translate(-76.353 -24.947)"/>
                </g>
            </g>
            <g data-name="Group 265">
                <g data-name="Group 263">
                    <path data-name="Path 95" d="M271.858 30.284a2.419 2.419 0 0 0-.625-.835 1.53 1.53 0 0 0-2.1.031 2.18 2.18 0 0 0-.575.813L258.119 55.5a1.634 1.634 0 0 0 0 1.333 1.717 1.717 0 0 0 .951.927 1.6 1.6 0 0 0 1.346-.03 1.85 1.85 0 0 0 .912-.921l1.6-3.782h14.428l1.648 3.791a1.834 1.834 0 0 0 .909.912 1.605 1.605 0 0 0 .7.164 1.677 1.677 0 0 0 .646-.134 1.728 1.728 0 0 0 .95-.927 1.642 1.642 0 0 0 0-1.333zm4.083 19.254h-11.546l5.793-14z" style="fill:#5b3a00" transform="translate(-76.353 -24.947)"/>
                    <path data-name="Path 96" d="M280.618 61.051a4.745 4.745 0 0 1-2.061-.473 4.966 4.966 0 0 1-2.42-2.455l-.843-1.939h-10.272l-.788 1.859a5.046 5.046 0 0 1-2.459 2.536 4.756 4.756 0 0 1-3.906.1 4.849 4.849 0 0 1-2.643-2.592 4.8 4.8 0 0 1-.018-3.8l10.44-25.2a5.167 5.167 0 0 1 1.336-1.912 4.7 4.7 0 0 1 6.321-.1A5.578 5.578 0 0 1 274.739 29l.036.083 10.359 25.22a4.9 4.9 0 0 1-4.516 6.745zm-1.318-4.345.006.013zm-18.267 0zm8.079-10.321h2.123l-1.058-2.575z" style="fill:#5b3a00" transform="translate(-76.353 -24.947)"/>
                </g>
                <g data-name="Group 264">
                    <path data-name="Path 97" d="M280.618 58.778a2.491 2.491 0 0 1-1.081-.251 2.724 2.724 0 0 1-1.33-1.343l-1.423-3.273h-13.268l-1.375 3.245a2.721 2.721 0 0 1-1.344 1.371 2.471 2.471 0 0 1-2.062.049 2.615 2.615 0 0 1-1.422-1.39 2.516 2.516 0 0 1-.007-2.023l10.442-25.207a3 3 0 0 1 .788-1.12 2.4 2.4 0 0 1 3.276-.051 3.281 3.281 0 0 1 .85 1.142l.01.023 10.359 25.218a2.525 2.525 0 0 1-.009 2.02 2.622 2.622 0 0 1-1.419 1.388 2.583 2.583 0 0 1-.985.202zM262.35 52.15h15.588l1.878 4.32a.945.945 0 0 0 .48.468.72.72 0 0 0 .631.011.841.841 0 0 0 .479-.464.767.767 0 0 0 0-.644l-10.358-25.209a1.544 1.544 0 0 0-.395-.521.648.648 0 0 0-.913.011 1.331 1.331 0 0 0-.353.479L258.932 55.84a.755.755 0 0 0 0 .642.851.851 0 0 0 .485.469.729.729 0 0 0 .627-.014.96.96 0 0 0 .489-.491zm14.9-1.731h-14.172l7.113-17.2zm-11.542-1.762h8.914l-4.441-10.814z" style="fill:#5b3a00" transform="translate(-76.353 -24.947)"/>
                    <path data-name="Path 98" d="M259.716 61.932a5.69 5.69 0 0 1-2.19-.443 5.794 5.794 0 0 1-3.106-3.047 5.672 5.672 0 0 1-.024-4.5l10.438-25.2a6.036 6.036 0 0 1 1.553-2.222 5.551 5.551 0 0 1 3.783-1.509l.03-.071.03.071a5.606 5.606 0 0 1 3.655 1.391 6.4 6.4 0 0 1 1.66 2.241l10.4 25.321a5.667 5.667 0 0 1-.034 4.475 5.794 5.794 0 0 1-3.092 3.039 5.627 5.627 0 0 1-4.653-.117 5.833 5.833 0 0 1-2.834-2.879l-.619-1.424h-9.111l-.56 1.321a5.955 5.955 0 0 1-2.891 2.989 5.658 5.658 0 0 1-2.435.564z" style="fill:#5b3a00" transform="translate(-76.353 -24.947)"/>
                </g>
            </g>
            <g data-name="Group 268">
                <g data-name="Group 266">
                    <path data-name="Path 99" d="M303.122 54.389H289.4v-23.6a1.691 1.691 0 0 0-.509-1.238 1.769 1.769 0 0 0-2.476 0 1.7 1.7 0 0 0-.507 1.238v25.345a1.735 1.735 0 0 0 1.746 1.746h15.467a1.746 1.746 0 1 0 0-3.491z" style="fill:#5b3a00" transform="translate(-76.353 -24.947)"/>
                    <path data-name="Path 100" d="M303.122 61.033h-15.467a4.888 4.888 0 0 1-4.9-4.9V30.792a4.9 4.9 0 1 1 9.8 0v20.443h10.568a4.9 4.9 0 1 1 0 9.8z" style="fill:#5b3a00" transform="translate(-76.353 -24.947)"/>
                </g>
                <g data-name="Group 267">
                    <path data-name="Path 101" d="M303.122 58.76h-15.468a2.614 2.614 0 0 1-2.625-2.626V30.792a2.58 2.58 0 0 1 .765-1.861 2.638 2.638 0 0 1 3.721 0 2.581 2.581 0 0 1 .766 1.861v22.717h12.841a2.626 2.626 0 1 1 0 5.251zm-15.467-28.828a.868.868 0 0 0-.616.245.817.817 0 0 0-.249.615v25.342a.852.852 0 0 0 .864.865h15.468a.8.8 0 0 0 .615-.249.883.883 0 0 0 0-1.23.806.806 0 0 0-.616-.25h-14.6V30.792a.81.81 0 0 0-.251-.616.867.867 0 0 0-.615-.244z" style="fill:#5b3a00" transform="translate(-76.353 -24.947)"/>
                    <path data-name="Path 102" d="M303.122 61.914h-15.467a5.768 5.768 0 0 1-5.78-5.78V30.792a5.78 5.78 0 1 1 11.56 0v19.563h9.687a5.78 5.78 0 1 1 0 11.559z" style="fill:#5b3a00" transform="translate(-76.353 -24.947)"/>
                </g>
            </g>
            <g data-name="Group 271">
                <g data-name="Group 269">
                    <path data-name="Path 103" d="M327.01 45.667a8.468 8.468 0 0 0-2.153-2.679 12.039 12.039 0 0 0-3.182-1.875 14.427 14.427 0 0 0-3.877-.965 12.659 12.659 0 0 1-2.077-.467 11.569 11.569 0 0 1-2.049-.845 5.656 5.656 0 0 1-1.534-1.163 1.928 1.928 0 0 1-.553-1.332 2.543 2.543 0 0 1 .458-1.443 4.42 4.42 0 0 1 1.286-1.243 6.943 6.943 0 0 1 1.966-.847 9.522 9.522 0 0 1 4.838 0 7.317 7.317 0 0 1 1.971.849 4.749 4.749 0 0 1 1.313 1.188 2.4 2.4 0 0 1 .494 1.3 2.159 2.159 0 0 0 .514 1.35 1.715 1.715 0 0 0 2.469.038 1.691 1.691 0 0 0 .506-1.233 5.688 5.688 0 0 0-.774-2.883 7.672 7.672 0 0 0-2.094-2.3 10.69 10.69 0 0 0-3.061-1.543 12.626 12.626 0 0 0-7.451 0 10.684 10.684 0 0 0-3.062 1.543 7.66 7.66 0 0 0-2.093 2.3 5.678 5.678 0 0 0-.774 2.883 5.227 5.227 0 0 0 .826 2.854 7.9 7.9 0 0 0 2.136 2.207 11.841 11.841 0 0 0 3.05 1.515 14.376 14.376 0 0 0 3.58.714 11.786 11.786 0 0 1 2.516.7 8.49 8.49 0 0 1 2.109 1.21 6.52 6.52 0 0 1 1.484 1.648 4.278 4.278 0 0 1 .642 1.941 3.817 3.817 0 0 1-.434 2.078 5.331 5.331 0 0 1-1.487 1.729 7.869 7.869 0 0 1-2.269 1.186 8.888 8.888 0 0 1-5.493 0 7.3 7.3 0 0 1-2.2-1.181 5.533 5.533 0 0 1-1.45-1.734 4.45 4.45 0 0 1-.522-2.111 1.607 1.607 0 0 0-.486-1.172 1.663 1.663 0 0 0-2.345 0 1.6 1.6 0 0 0-.486 1.172 7.637 7.637 0 0 0 .806 3.452 8.928 8.928 0 0 0 2.215 2.809 10.592 10.592 0 0 0 3.265 1.884 11.545 11.545 0 0 0 3.98.679 11.255 11.255 0 0 0 7.242-2.581 8.667 8.667 0 0 0 2.219-2.815 7.788 7.788 0 0 0 .805-3.471 7.327 7.327 0 0 0-.784-3.346z" style="fill:#5b3a00" transform="translate(-76.353 -24.947)"/>
                    <path data-name="Path 104" d="M317.529 61.033a14.684 14.684 0 0 1-5.064-.871 13.727 13.727 0 0 1-4.233-2.449 12.078 12.078 0 0 1-2.985-3.8 10.793 10.793 0 0 1-1.138-4.862 4.809 4.809 0 0 1 5.727-4.722 13.022 13.022 0 0 1-.6-.4 11.03 11.03 0 0 1-2.979-3.092 8.328 8.328 0 0 1-1.317-4.537 8.8 8.8 0 0 1 1.2-4.462 10.793 10.793 0 0 1 2.945-3.257 13.82 13.82 0 0 1 3.964-2.009 15.8 15.8 0 0 1 9.4 0 13.814 13.814 0 0 1 3.965 2.009 10.793 10.793 0 0 1 2.946 3.256 8.8 8.8 0 0 1 1.2 4.464 4.879 4.879 0 0 1-3.273 4.622 11.558 11.558 0 0 1 2.54 3.32 10.453 10.453 0 0 1 1.126 4.771 10.913 10.913 0 0 1-1.13 4.865 11.8 11.8 0 0 1-3.02 3.836 14.4 14.4 0 0 1-9.27 3.319zm-5.336-15.506c.044.04.086.082.128.124a4.79 4.79 0 0 1 1.413 3.4 1.3 1.3 0 0 0 .154.632 2.4 2.4 0 0 0 .633.75 4.172 4.172 0 0 0 1.254.661 5.778 5.778 0 0 0 3.458 0 4.745 4.745 0 0 0 1.362-.7 2.218 2.218 0 0 0 .62-.706.654.654 0 0 0 .075-.38 1.092 1.092 0 0 0-.173-.5 3.389 3.389 0 0 0-.773-.849 5.287 5.287 0 0 0-1.321-.75 8.554 8.554 0 0 0-1.718-.49 17.45 17.45 0 0 1-4.21-.861q-.461-.153-.902-.331zm3.135-9.385a8.623 8.623 0 0 0 1.32.525 9.628 9.628 0 0 0 1.563.355 17.367 17.367 0 0 1 2.752.525 5.635 5.635 0 0 1-.177-.94 2.26 2.26 0 0 0-.373-.288 4.2 4.2 0 0 0-1.122-.472 6.423 6.423 0 0 0-3.165 0 4.586 4.586 0 0 0-.798.295zm5.435.2z" style="fill:#5b3a00" transform="translate(-76.353 -24.947)"/>
                </g>
                <g data-name="Group 270">
                    <path data-name="Path 105" d="M317.529 58.76a12.385 12.385 0 0 1-4.282-.733 11.438 11.438 0 0 1-3.536-2.041 9.8 9.8 0 0 1-2.43-3.084 8.517 8.517 0 0 1-.9-3.845 2.49 2.49 0 0 1 .744-1.8 2.516 2.516 0 0 1 1.793-.741 2.526 2.526 0 0 1 1.8.74 2.5 2.5 0 0 1 .744 1.8 3.568 3.568 0 0 0 .421 1.7 4.62 4.62 0 0 0 1.221 1.459 6.439 6.439 0 0 0 1.935 1.037 8.006 8.006 0 0 0 4.925 0 7 7 0 0 0 2.016-1.05 4.448 4.448 0 0 0 1.243-1.443 2.923 2.923 0 0 0 .336-1.607 3.384 3.384 0 0 0-.511-1.539 5.616 5.616 0 0 0-1.284-1.424 7.624 7.624 0 0 0-1.89-1.082 10.821 10.821 0 0 0-2.328-.645 14.86 14.86 0 0 1-3.721-.75 12.7 12.7 0 0 1-3.276-1.63 8.764 8.764 0 0 1-2.371-2.454 6.093 6.093 0 0 1-.963-3.326 6.556 6.556 0 0 1 .892-3.324 8.511 8.511 0 0 1 2.331-2.569 11.538 11.538 0 0 1 3.313-1.674 13.424 13.424 0 0 1 7.995 0 11.537 11.537 0 0 1 3.315 1.674 8.523 8.523 0 0 1 2.331 2.569 6.548 6.548 0 0 1 .892 3.324 2.579 2.579 0 0 1-.765 1.861 2.625 2.625 0 0 1-1.932.762 2.5 2.5 0 0 1-1.818-.838 3.013 3.013 0 0 1-.735-1.881 1.539 1.539 0 0 0-.327-.838 3.882 3.882 0 0 0-1.073-.962 6.422 6.422 0 0 0-1.734-.744 8.569 8.569 0 0 0-4.372 0 6.126 6.126 0 0 0-1.718.735 3.557 3.557 0 0 0-1.032.993 1.669 1.669 0 0 0-.311.955 1.038 1.038 0 0 0 .325.74 4.781 4.781 0 0 0 1.3.977 10.671 10.671 0 0 0 1.895.781 11.756 11.756 0 0 0 1.931.436 15.345 15.345 0 0 1 4.1 1.022 12.968 12.968 0 0 1 3.414 2.014 9.354 9.354 0 0 1 2.373 2.958 8.193 8.193 0 0 1 .882 3.744 8.662 8.662 0 0 1-.895 3.86 9.524 9.524 0 0 1-2.444 3.1 12.113 12.113 0 0 1-7.808 2.788zm-8.608-10.479a.766.766 0 0 0-.548.225.723.723 0 0 0-.229.551 6.775 6.775 0 0 0 .713 3.058 8.07 8.07 0 0 0 2 2.532 9.712 9.712 0 0 0 3 1.726 10.969 10.969 0 0 0 7.349-.019 10.354 10.354 0 0 0 3-1.73 7.8 7.8 0 0 0 2-2.529 6.916 6.916 0 0 0 .714-3.082 6.453 6.453 0 0 0-.691-2.947 7.589 7.589 0 0 0-1.931-2.4 11.185 11.185 0 0 0-2.951-1.736 13.56 13.56 0 0 0-3.639-.9 13.652 13.652 0 0 1-2.241-.5 12.571 12.571 0 0 1-2.205-.911 6.529 6.529 0 0 1-1.77-1.346 2.8 2.8 0 0 1-.783-1.925 3.443 3.443 0 0 1 .606-1.932 5.289 5.289 0 0 1 1.539-1.492 7.84 7.84 0 0 1 2.214-.958 10.439 10.439 0 0 1 5.306 0 8.229 8.229 0 0 1 2.206.954 5.6 5.6 0 0 1 1.554 1.415 3.252 3.252 0 0 1 .661 1.769 1.309 1.309 0 0 0 .289.811.772.772 0 0 0 .558.252.751.751 0 0 0 .634-.247.808.808 0 0 0 .25-.616 4.8 4.8 0 0 0-.655-2.441 6.761 6.761 0 0 0-1.856-2.037 9.814 9.814 0 0 0-2.81-1.414 11.779 11.779 0 0 0-6.906 0 9.8 9.8 0 0 0-2.809 1.414 6.774 6.774 0 0 0-1.856 2.037 4.811 4.811 0 0 0-.655 2.441 4.354 4.354 0 0 0 .688 2.38 7 7 0 0 0 1.9 1.961 10.873 10.873 0 0 0 2.824 1.4 13.331 13.331 0 0 0 3.359.67 12.662 12.662 0 0 1 2.784.76 9.358 9.358 0 0 1 2.328 1.338 7.391 7.391 0 0 1 1.683 1.872 5.118 5.118 0 0 1 .772 2.338 4.684 4.684 0 0 1-.535 2.564 6.222 6.222 0 0 1-1.73 2.015 8.737 8.737 0 0 1-2.522 1.321 9.709 9.709 0 0 1-6.062 0A8.184 8.184 0 0 1 312 53.589a6.417 6.417 0 0 1-1.678-2.01 5.337 5.337 0 0 1-.625-2.522.73.73 0 0 0-.229-.552.772.772 0 0 0-.547-.224z" style="fill:#5b3a00" transform="translate(-76.353 -24.947)"/>
                    <path data-name="Path 106" d="M317.529 61.914a15.566 15.566 0 0 1-5.368-.926 14.554 14.554 0 0 1-4.5-2.606 12.939 12.939 0 0 1-3.2-4.069 11.658 11.658 0 0 1-1.231-5.256 5.7 5.7 0 0 1 4.166-5.485 11.548 11.548 0 0 1-1.882-2.26 9.2 9.2 0 0 1-1.454-5.015 9.663 9.663 0 0 1 1.317-4.9 11.633 11.633 0 0 1 3.181-3.522 14.7 14.7 0 0 1 4.215-2.139 16.451 16.451 0 0 1 9.945 0 14.693 14.693 0 0 1 4.22 2.141 11.663 11.663 0 0 1 3.183 3.523 9.666 9.666 0 0 1 1.316 4.9 5.742 5.742 0 0 1-1.69 4.091 5.684 5.684 0 0 1-.974.781 12.345 12.345 0 0 1 1.834 2.672 11.325 11.325 0 0 1 1.224 5.172 11.8 11.8 0 0 1-1.22 5.253 12.649 12.649 0 0 1-3.248 4.124 15.266 15.266 0 0 1-9.833 3.524zm-3.253-14.793a5.686 5.686 0 0 1 .338 1.936.422.422 0 0 0 .05.215 1.516 1.516 0 0 0 .4.477 3.325 3.325 0 0 0 .994.519 4.834 4.834 0 0 0 2.889-.009 3.825 3.825 0 0 0 1.111-.569 1.3 1.3 0 0 0 .369-.409 5.04 5.04 0 0 0-.635-.63 4.493 4.493 0 0 0-1.1-.624 7.766 7.766 0 0 0-1.528-.436 17.788 17.788 0 0 1-2.888-.47z" style="fill:#5b3a00" transform="translate(-76.353 -24.947)"/>
                </g>
            </g>
        </g>
        <g data-name="Group 303">
            <g data-name="Group 275">
                <g data-name="Group 273">
                    <path data-name="Path 107" d="M109.659 29.212a1.69 1.69 0 0 0-.507-1.237 1.769 1.769 0 0 0-2.476 0 1.691 1.691 0 0 0-.508 1.237v18.58a5.6 5.6 0 0 1-1.627 3.726 4.64 4.64 0 0 1-3.314 1.335 4.759 4.759 0 0 1-1.9-.383 4.983 4.983 0 0 1-1.561-1.054 5.245 5.245 0 0 1-1.077-1.586 5.424 5.424 0 0 1-.447-2v-6.646a1.69 1.69 0 0 0-.507-1.237 1.769 1.769 0 0 0-2.476 0 1.691 1.691 0 0 0-.508 1.237v6.642a4.984 4.984 0 0 1-3.06 4.643 4.937 4.937 0 0 1-5.448-1.075 4.971 4.971 0 0 1-1.458-3.568V29.212a1.691 1.691 0 0 0-.508-1.237 1.769 1.769 0 0 0-2.476 0 1.694 1.694 0 0 0-.507 1.237v18.614a8.353 8.353 0 0 0 .665 3.3 8.384 8.384 0 0 0 4.51 4.511 8.352 8.352 0 0 0 3.3.664 8.252 8.252 0 0 0 4.057-1.032 8.489 8.489 0 0 0 2.681-2.32 9.127 9.127 0 0 0 2.683 2.275 8.4 8.4 0 0 0 7.316.368 8.495 8.495 0 0 0 4.486-4.486 8.221 8.221 0 0 0 .665-3.279z" style="fill:#ffd550" transform="translate(-76.353 -24.947)"/>
                </g>
                <g data-name="Group 274">
                    <path data-name="Path 108" d="M87.771 57.181a9.241 9.241 0 0 1-3.645-.735 9.264 9.264 0 0 1-4.975-4.976 9.232 9.232 0 0 1-.735-3.644V29.213a2.576 2.576 0 0 1 .765-1.86 2.635 2.635 0 0 1 3.722 0 2.577 2.577 0 0 1 .766 1.861v18.612a4.105 4.105 0 0 0 1.2 2.946 4.23 4.23 0 0 0 1.31.89 4.109 4.109 0 0 0 5.7-3.836v-6.641a2.572 2.572 0 0 1 .766-1.861 2.633 2.633 0 0 1 3.72 0 2.572 2.572 0 0 1 .766 1.861v6.641a4.493 4.493 0 0 0 .371 1.646 4.371 4.371 0 0 0 .9 1.323 4.147 4.147 0 0 0 1.286.867 3.9 3.9 0 0 0 1.55.31 3.741 3.741 0 0 0 2.709-1.1 4.749 4.749 0 0 0 1.355-3.161v-18.5a2.579 2.579 0 0 1 .765-1.861 2.638 2.638 0 0 1 3.721 0 2.577 2.577 0 0 1 .766 1.862v18.614a9.1 9.1 0 0 1-.737 3.628 9.388 9.388 0 0 1-4.945 4.946 9.1 9.1 0 0 1-3.629.738 8.988 8.988 0 0 1-4.483-1.148 10.1 10.1 0 0 1-2.236-1.7 9.427 9.427 0 0 1-2.27 1.748 9.114 9.114 0 0 1-4.483 1.143zm-6.729-28.829a.869.869 0 0 0-.616.246.816.816 0 0 0-.249.615v18.613a7.475 7.475 0 0 0 .594 2.953 7.491 7.491 0 0 0 4.046 4.046 7.463 7.463 0 0 0 2.954.595 7.379 7.379 0 0 0 3.629-.92 7.6 7.6 0 0 0 2.408-2.081l.685-.907.706.89a8.253 8.253 0 0 0 2.426 2.055 7.246 7.246 0 0 0 3.6.922 7.328 7.328 0 0 0 2.929-.594 7.612 7.612 0 0 0 4.028-4.028 7.334 7.334 0 0 0 .593-2.929V29.213a.818.818 0 0 0-.25-.616.893.893 0 0 0-1.231 0 .816.816 0 0 0-.249.615v18.579a6.5 6.5 0 0 1-1.9 4.366 5.545 5.545 0 0 1-3.918 1.575 5.638 5.638 0 0 1-2.248-.455 5.857 5.857 0 0 1-1.834-1.239 6.118 6.118 0 0 1-1.26-1.851 6.287 6.287 0 0 1-.522-2.329v-6.673a.82.82 0 0 0-.248-.615.9.9 0 0 0-1.232 0 .817.817 0 0 0-.249.615v6.641a5.868 5.868 0 0 1-3.6 5.454 6 6 0 0 1-4.558 0 5.94 5.94 0 0 1-1.858-1.262 5.861 5.861 0 0 1-1.714-4.19V29.213a.819.819 0 0 0-.251-.616.867.867 0 0 0-.611-.245z" style="fill:#ffd550" transform="translate(-76.353 -24.947)"/>
                </g>
            </g>
            <g data-name="Group 278">
                <g data-name="Group 276">
                    <path data-name="Path 109" d="M125.605 28.7a2.429 2.429 0 0 0-.624-.835 1.532 1.532 0 0 0-2.1.031 2.2 2.2 0 0 0-.575.813l-10.442 25.21a1.642 1.642 0 0 0 0 1.333 1.727 1.727 0 0 0 .952.928 1.6 1.6 0 0 0 1.345-.031 1.84 1.84 0 0 0 .913-.921l1.6-3.781h14.427l1.648 3.79a1.827 1.827 0 0 0 .909.912 1.61 1.61 0 0 0 .7.165 1.671 1.671 0 0 0 .646-.135 1.725 1.725 0 0 0 .951-.926 1.646 1.646 0 0 0 0-1.333zm4.084 19.255h-11.546l5.793-14.006z" style="fill:#ffd550" transform="translate(-76.353 -24.947)"/>
                </g>
                <g data-name="Group 277">
                    <path data-name="Path 110" d="M134.365 57.2a2.48 2.48 0 0 1-1.081-.251 2.722 2.722 0 0 1-1.33-1.342l-1.423-3.273h-13.267l-1.375 3.244a2.732 2.732 0 0 1-1.345 1.372 2.472 2.472 0 0 1-2.061.049 2.612 2.612 0 0 1-1.423-1.391 2.514 2.514 0 0 1-.006-2.022l10.446-25.21a3 3 0 0 1 .788-1.12 2.4 2.4 0 0 1 3.276-.05 3.3 3.3 0 0 1 .851 1.14l.01.024 10.358 25.219a2.523 2.523 0 0 1-.009 2.019A2.61 2.61 0 0 1 135.351 57a2.577 2.577 0 0 1-.986.2zM116.1 50.57h15.587l1.879 4.32a.939.939 0 0 0 .48.469.721.721 0 0 0 .63.011.848.848 0 0 0 .48-.465.767.767 0 0 0 0-.644L124.8 29.053a1.574 1.574 0 0 0-.395-.521.648.648 0 0 0-.914.01 1.339 1.339 0 0 0-.353.479L112.68 54.26a.758.758 0 0 0 0 .643.852.852 0 0 0 .485.469.734.734 0 0 0 .628-.014.965.965 0 0 0 .488-.491zm14.9-1.731h-14.175l7.113-17.2zm-11.54-1.761h8.915l-4.442-10.814z" style="fill:#ffd550" transform="translate(-76.353 -24.947)"/>
                </g>
            </g>
            <g data-name="Group 281">
                <g data-name="Group 279">
                    <path data-name="Path 111" d="M156.782 27.467H141.4a1.735 1.735 0 0 0-1.746 1.745v25.342a1.746 1.746 0 1 0 3.492 0V44.9h9.221a1.746 1.746 0 1 0 0-3.492h-9.221v-10.45h13.634a1.746 1.746 0 1 0 0-3.491z" style="fill:#ffd550" transform="translate(-76.353 -24.947)"/>
                </g>
                <g data-name="Group 280">
                    <path data-name="Path 112" d="M141.4 57.181a2.614 2.614 0 0 1-2.626-2.626V29.213a2.614 2.614 0 0 1 2.626-2.627h15.38a2.627 2.627 0 1 1 0 5.253h-12.751v8.685h8.341a2.627 2.627 0 1 1 0 5.253h-8.341v8.778a2.615 2.615 0 0 1-2.627 2.626zm0-28.833a.8.8 0 0 0-.615.249.817.817 0 0 0-.25.616v25.342a.817.817 0 0 0 .249.614.861.861 0 0 0 1.23 0 .815.815 0 0 0 .251-.615V44.016h10.1a.854.854 0 0 0 .864-.865.806.806 0 0 0-.25-.615.814.814 0 0 0-.614-.251h-10.1V30.078h14.515a.806.806 0 0 0 .614-.249.818.818 0 0 0 .251-.616.852.852 0 0 0-.865-.865z" style="fill:#ffd550" transform="translate(-76.353 -24.947)"/>
                </g>
            </g>
            <g data-name="Group 284">
                <g data-name="Group 282">
                    <path data-name="Path 113" d="M178.528 27.467h-15.38a1.733 1.733 0 0 0-1.745 1.745v25.342a1.746 1.746 0 1 0 3.491 0V44.9h9.222a1.746 1.746 0 1 0 0-3.492h-9.222v-10.45h13.634a1.746 1.746 0 1 0 0-3.491z" style="fill:#ffd550" transform="translate(-76.353 -24.947)"/>
                </g>
                <g data-name="Group 283">
                    <path data-name="Path 114" d="M163.149 57.181a2.617 2.617 0 0 1-2.627-2.626V29.213a2.615 2.615 0 0 1 2.627-2.627h15.379a2.627 2.627 0 1 1 0 5.253h-12.753v8.685h8.341a2.627 2.627 0 1 1 0 5.253h-8.341v8.778a2.617 2.617 0 0 1-2.626 2.626zm0-28.833a.852.852 0 0 0-.866.865v25.342a.814.814 0 0 0 .25.614.865.865 0 0 0 1.229 0 .816.816 0 0 0 .252-.616V44.016h10.1a.866.866 0 1 0 0-1.731h-10.1V30.078h14.514a.809.809 0 0 0 .616-.25.885.885 0 0 0 0-1.231.807.807 0 0 0-.616-.249z" style="fill:#ffd550" transform="translate(-76.353 -24.947)"/>
                </g>
            </g>
            <g data-name="Group 287">
                <g data-name="Group 285">
                    <path data-name="Path 115" d="M200.362 52.809h-13.721v-23.6a1.692 1.692 0 0 0-.508-1.237 1.769 1.769 0 0 0-2.476 0 1.691 1.691 0 0 0-.508 1.237v25.345A1.735 1.735 0 0 0 184.9 56.3h15.467a1.746 1.746 0 1 0 0-3.491z" style="fill:#ffd550" transform="translate(-76.353 -24.947)"/>
                </g>
                <g data-name="Group 286">
                    <path data-name="Path 116" d="M200.362 57.181H184.9a2.615 2.615 0 0 1-2.626-2.626V29.213a2.575 2.575 0 0 1 .766-1.861 2.638 2.638 0 0 1 3.721 0 2.588 2.588 0 0 1 .766 1.862v22.715h12.84a2.626 2.626 0 1 1 0 5.252zM184.9 28.352a.866.866 0 0 0-.616.246.817.817 0 0 0-.25.615v25.342a.854.854 0 0 0 .865.865h15.467a.806.806 0 0 0 .615-.25.883.883 0 0 0 0-1.229.809.809 0 0 0-.617-.251h-14.6V29.213a.817.817 0 0 0-.251-.617.873.873 0 0 0-.613-.244z" style="fill:#ffd550" transform="translate(-76.353 -24.947)"/>
                </g>
            </g>
            <g data-name="Group 290">
                <g data-name="Group 288">
                    <path data-name="Path 117" d="M222.2 30.958a1.746 1.746 0 1 0 0-3.491h-15.471a1.733 1.733 0 0 0-1.745 1.745v25.342a1.735 1.735 0 0 0 1.745 1.746H222.2a1.746 1.746 0 1 0 0-3.491h-13.725v-9.267h9.746a1.746 1.746 0 1 0 0-3.491h-9.746v-9.093z" style="fill:#ffd550" transform="translate(-76.353 -24.947)"/>
                </g>
                <g data-name="Group 289">
                    <path data-name="Path 118" d="M222.2 57.181h-15.471a2.617 2.617 0 0 1-2.626-2.626V29.213a2.615 2.615 0 0 1 2.626-2.627H222.2a2.627 2.627 0 1 1 0 5.253h-12.844v7.331h8.864a2.627 2.627 0 1 1 0 5.253h-8.864v7.506H222.2a2.626 2.626 0 1 1 0 5.252zm-15.471-28.833a.852.852 0 0 0-.865.865v25.342a.855.855 0 0 0 .865.865H222.2a.8.8 0 0 0 .614-.25.865.865 0 0 0-.614-1.48h-14.6V42.662h10.62a.824.824 0 0 0 .617-.251.866.866 0 0 0-.617-1.48H207.6V30.078h14.6a.854.854 0 0 0 .865-.865.818.818 0 0 0-.25-.616.806.806 0 0 0-.615-.249z" style="fill:#ffd550" transform="translate(-76.353 -24.947)"/>
                </g>
            </g>
            <g data-name="Group 293">
                <g data-name="Group 291">
                    <path data-name="Path 119" d="M257.126 42.149a10.466 10.466 0 0 0 0-8.221 10.657 10.657 0 0 0-5.62-5.62 10.512 10.512 0 0 0-8.221 0 10.823 10.823 0 0 0-3.354 2.266 10.538 10.538 0 0 0-3.064 7.465v16.515a1.746 1.746 0 1 0 3.492 0v-9.126a6.092 6.092 0 0 0 .628.695 8.718 8.718 0 0 0 1.877 1.349 9.093 9.093 0 0 0 2.192.823 10.531 10.531 0 0 0 9.8-2.792 10.809 10.809 0 0 0 2.27-3.354zm-2.65-4.11a6.781 6.781 0 0 1-.558 2.727A7.03 7.03 0 0 1 252.387 43a7.508 7.508 0 0 1-2.264 1.516 7 7 0 0 1-5.412.021 7.2 7.2 0 0 1-4.352-6.505 6.781 6.781 0 0 1 .557-2.723 7.5 7.5 0 0 1 1.516-2.264 6.94 6.94 0 0 1 7.691-1.531 7.261 7.261 0 0 1 3.795 3.8 6.793 6.793 0 0 1 .558 2.725z" style="fill:#ffd550" transform="translate(-76.353 -24.947)"/>
                </g>
                <g data-name="Group 292">
                    <path data-name="Path 120" d="M238.613 57.181a2.615 2.615 0 0 1-2.626-2.626V38.039a11.4 11.4 0 0 1 3.322-8.087 11.689 11.689 0 0 1 3.624-2.451 11.371 11.371 0 0 1 8.924 0 11.542 11.542 0 0 1 6.077 6.075 11.36 11.36 0 0 1 0 8.924 11.709 11.709 0 0 1-2.452 3.624 11.41 11.41 0 0 1-10.627 3.027 9.927 9.927 0 0 1-2.406-.9 9.566 9.566 0 0 1-1.21-.766v7.073a2.615 2.615 0 0 1-2.626 2.626zm8.781-28.833a9.432 9.432 0 0 0-3.758.768 9.926 9.926 0 0 0-3.082 2.081 9.64 9.64 0 0 0-2.806 6.842v16.516a.817.817 0 0 0 .249.614.865.865 0 0 0 1.229 0 .816.816 0 0 0 .252-.616V42.845l1.578 2.044a5.018 5.018 0 0 0 .537.594 7.751 7.751 0 0 0 1.685 1.211 8.162 8.162 0 0 0 1.98.743 9.651 9.651 0 0 0 8.978-2.556 9.967 9.967 0 0 0 2.083-3.082 9.6 9.6 0 0 0 0-7.52 9.773 9.773 0 0 0-5.165-5.163 9.438 9.438 0 0 0-3.76-.768zm-.014 17.6a7.633 7.633 0 0 1-3.02-.6 8.089 8.089 0 0 1-4.882-7.289 7.7 7.7 0 0 1 .631-3.1 8.363 8.363 0 0 1 1.7-2.529 7.815 7.815 0 0 1 8.671-1.723 8.155 8.155 0 0 1 4.251 4.251 7.83 7.83 0 0 1 0 6.159A7.9 7.9 0 0 1 253 43.632a8.348 8.348 0 0 1-2.527 1.693 7.807 7.807 0 0 1-3.093.626zm.015-14.107a5.989 5.989 0 0 0-2.375.479 6.178 6.178 0 0 0-1.958 1.34 6.588 6.588 0 0 0-1.338 2 5.919 5.919 0 0 0-.485 2.371 6.3 6.3 0 0 0 3.821 5.7 6.09 6.09 0 0 0 4.711-.021 6.6 6.6 0 0 0 2-1.336 6.18 6.18 0 0 0 1.341-1.959 6.062 6.062 0 0 0 0-4.752 6.4 6.4 0 0 0-3.34-3.34 5.99 5.99 0 0 0-2.372-.479z" style="fill:#ffd550" transform="translate(-76.353 -24.947)"/>
                </g>
            </g>
            <g data-name="Group 296">
                <g data-name="Group 294">
                    <path data-name="Path 121" d="M270.767 28.7a2.419 2.419 0 0 0-.625-.835 1.531 1.531 0 0 0-2.1.031 2.191 2.191 0 0 0-.575.813l-10.442 25.21a1.637 1.637 0 0 0 0 1.333 1.727 1.727 0 0 0 .952.928 1.6 1.6 0 0 0 1.345-.031 1.844 1.844 0 0 0 .913-.921l1.6-3.781h14.435l1.648 3.79a1.826 1.826 0 0 0 .909.912 1.61 1.61 0 0 0 .7.165 1.671 1.671 0 0 0 .646-.135 1.72 1.72 0 0 0 .95-.926 1.642 1.642 0 0 0 0-1.333zm4.083 19.255H263.3l5.8-14.002z" style="fill:#ffd550" transform="translate(-76.353 -24.947)"/>
                </g>
                <g data-name="Group 295">
                    <path data-name="Path 122" d="M279.527 57.2a2.48 2.48 0 0 1-1.081-.251 2.722 2.722 0 0 1-1.33-1.342l-1.423-3.273h-13.267l-1.375 3.244a2.732 2.732 0 0 1-1.345 1.372 2.475 2.475 0 0 1-2.062.049 2.613 2.613 0 0 1-1.422-1.391 2.518 2.518 0 0 1-.007-2.022l10.442-25.208a3 3 0 0 1 .788-1.12 2.4 2.4 0 0 1 3.276-.05 3.275 3.275 0 0 1 .851 1.142l.009.022 10.359 25.217a2.523 2.523 0 0 1-.009 2.019 2.66 2.66 0 0 1-2.4 1.59zm-18.267-6.63h15.588l1.878 4.32a.939.939 0 0 0 .48.469.72.72 0 0 0 .631.01.844.844 0 0 0 .479-.464.763.763 0 0 0 0-.644l-10.359-25.209a1.537 1.537 0 0 0-.394-.52.649.649 0 0 0-.914.01 1.339 1.339 0 0 0-.353.479L257.841 54.26a.757.757 0 0 0 0 .643.852.852 0 0 0 .485.469.735.735 0 0 0 .628-.014.965.965 0 0 0 .488-.491zm14.9-1.731h-14.173l7.113-17.2zm-11.543-1.761h8.915L269.1 36.264z" style="fill:#ffd550" transform="translate(-76.353 -24.947)"/>
                </g>
            </g>
            <g data-name="Group 299">
                <g data-name="Group 297">
                    <path data-name="Path 123" d="M302.031 52.809H288.31v-23.6a1.692 1.692 0 0 0-.508-1.237 1.769 1.769 0 0 0-2.476 0 1.691 1.691 0 0 0-.508 1.237v25.345a1.735 1.735 0 0 0 1.746 1.746h15.467a1.746 1.746 0 1 0 0-3.491z" style="fill:#ffd550" transform="translate(-76.353 -24.947)"/>
                </g>
                <g data-name="Group 298">
                    <path data-name="Path 124" d="M302.031 57.181h-15.467a2.615 2.615 0 0 1-2.626-2.626V29.213a2.579 2.579 0 0 1 .765-1.861 2.638 2.638 0 0 1 3.721 0 2.585 2.585 0 0 1 .767 1.862v22.715h12.84a2.626 2.626 0 1 1 0 5.252zm-15.467-28.829a.865.865 0 0 0-.615.246.813.813 0 0 0-.25.615v25.342a.854.854 0 0 0 .865.865h15.467a.806.806 0 0 0 .615-.25.883.883 0 0 0 0-1.229.809.809 0 0 0-.617-.251h-14.6V29.213a.814.814 0 0 0-.252-.617.87.87 0 0 0-.613-.244z" style="fill:#ffd550" transform="translate(-76.353 -24.947)"/>
                </g>
            </g>
            <g data-name="Group 302">
                <g data-name="Group 300">
                    <path data-name="Path 125" d="M325.919 44.088a8.482 8.482 0 0 0-2.152-2.68 12.086 12.086 0 0 0-3.183-1.874 14.39 14.39 0 0 0-3.877-.965 12.752 12.752 0 0 1-2.076-.467 11.658 11.658 0 0 1-2.05-.846 5.615 5.615 0 0 1-1.533-1.163 1.922 1.922 0 0 1-.554-1.331 2.54 2.54 0 0 1 .459-1.444 4.416 4.416 0 0 1 1.285-1.243 6.955 6.955 0 0 1 1.966-.846 9.515 9.515 0 0 1 4.839 0 7.387 7.387 0 0 1 1.97.849 4.737 4.737 0 0 1 1.313 1.189 2.4 2.4 0 0 1 .494 1.3 2.158 2.158 0 0 0 .514 1.35 1.715 1.715 0 0 0 2.469.039 1.693 1.693 0 0 0 .508-1.238 5.678 5.678 0 0 0-.774-2.883 7.645 7.645 0 0 0-2.093-2.3 10.685 10.685 0 0 0-3.062-1.544 12.626 12.626 0 0 0-7.451 0 10.641 10.641 0 0 0-3.061 1.544 7.638 7.638 0 0 0-2.094 2.3 5.687 5.687 0 0 0-.776 2.883 5.225 5.225 0 0 0 .825 2.853 7.886 7.886 0 0 0 2.136 2.207 11.809 11.809 0 0 0 3.05 1.515 14.422 14.422 0 0 0 3.58.715 11.71 11.71 0 0 1 2.516.7 8.49 8.49 0 0 1 2.109 1.21 6.547 6.547 0 0 1 1.485 1.649 4.273 4.273 0 0 1 .641 1.94 3.808 3.808 0 0 1-.436 2.083 5.344 5.344 0 0 1-1.487 1.73 7.879 7.879 0 0 1-2.269 1.185 8.881 8.881 0 0 1-5.493 0 7.33 7.33 0 0 1-2.2-1.181 5.561 5.561 0 0 1-1.45-1.735 4.461 4.461 0 0 1-.522-2.11A1.609 1.609 0 0 0 309 46.3a1.664 1.664 0 0 0-2.345 0 1.606 1.606 0 0 0-.486 1.173 7.654 7.654 0 0 0 .806 3.452 8.951 8.951 0 0 0 2.215 2.809 10.584 10.584 0 0 0 3.266 1.883 11.539 11.539 0 0 0 3.979.679 11.255 11.255 0 0 0 7.242-2.581A8.64 8.64 0 0 0 325.9 50.9a7.782 7.782 0 0 0 .805-3.472 7.323 7.323 0 0 0-.786-3.34z" style="fill:#ffd550" transform="translate(-76.353 -24.947)"/>
                </g>
                <g data-name="Group 301">
                    <path data-name="Path 126" d="M316.438 57.181a12.39 12.39 0 0 1-4.282-.734 11.447 11.447 0 0 1-3.536-2.04 9.823 9.823 0 0 1-2.429-3.084 8.522 8.522 0 0 1-.9-3.846 2.49 2.49 0 0 1 .744-1.8 2.522 2.522 0 0 1 1.793-.741 2.526 2.526 0 0 1 1.794.74 2.5 2.5 0 0 1 .744 1.8 3.574 3.574 0 0 0 .421 1.7 4.642 4.642 0 0 0 1.221 1.459 6.414 6.414 0 0 0 1.935 1.036 8.013 8.013 0 0 0 4.925 0 7.026 7.026 0 0 0 2.016-1.05 4.444 4.444 0 0 0 1.243-1.443 2.938 2.938 0 0 0 .337-1.608 3.4 3.4 0 0 0-.511-1.538 5.639 5.639 0 0 0-1.285-1.424 7.573 7.573 0 0 0-1.889-1.082 10.855 10.855 0 0 0-2.328-.646 14.8 14.8 0 0 1-3.721-.75 12.641 12.641 0 0 1-3.277-1.63 8.75 8.75 0 0 1-2.371-2.454 6.093 6.093 0 0 1-.963-3.326 6.541 6.541 0 0 1 .893-3.323 8.522 8.522 0 0 1 2.33-2.57 11.543 11.543 0 0 1 3.314-1.673 13.424 13.424 0 0 1 7.995 0 11.542 11.542 0 0 1 3.314 1.673 8.53 8.53 0 0 1 2.332 2.57 6.551 6.551 0 0 1 .891 3.323 2.577 2.577 0 0 1-.765 1.861 2.623 2.623 0 0 1-1.932.762 2.5 2.5 0 0 1-1.818-.838 3.01 3.01 0 0 1-.735-1.881 1.518 1.518 0 0 0-.327-.837 3.855 3.855 0 0 0-1.073-.963 6.472 6.472 0 0 0-1.734-.744 8.592 8.592 0 0 0-4.372 0 6.126 6.126 0 0 0-1.718.736 3.557 3.557 0 0 0-1.032.993 1.672 1.672 0 0 0-.31.954 1.04 1.04 0 0 0 .324.74 4.774 4.774 0 0 0 1.3.978 10.735 10.735 0 0 0 1.894.781 11.987 11.987 0 0 0 1.931.436 15.306 15.306 0 0 1 4.095 1.021 13 13 0 0 1 3.414 2.014 9.35 9.35 0 0 1 2.37 2.957 8.2 8.2 0 0 1 .881 3.743 8.669 8.669 0 0 1-.895 3.861 9.545 9.545 0 0 1-2.444 3.1 12.128 12.128 0 0 1-7.808 2.788zM307.83 46.7a.765.765 0 0 0-.548.226.723.723 0 0 0-.229.55 6.769 6.769 0 0 0 .713 3.058 8.063 8.063 0 0 0 2 2.533 9.72 9.72 0 0 0 3 1.726 10.979 10.979 0 0 0 7.348-.019 10.334 10.334 0 0 0 3-1.731 7.792 7.792 0 0 0 2-2.529 6.913 6.913 0 0 0 .714-3.082 6.443 6.443 0 0 0-.691-2.947 7.582 7.582 0 0 0-1.93-2.4 11.192 11.192 0 0 0-2.952-1.736 13.562 13.562 0 0 0-3.639-.9 13.675 13.675 0 0 1-2.241-.5 12.483 12.483 0 0 1-2.2-.91 6.522 6.522 0 0 1-1.771-1.347 2.806 2.806 0 0 1-.783-1.925 3.436 3.436 0 0 1 .607-1.931 5.288 5.288 0 0 1 1.538-1.493 7.834 7.834 0 0 1 2.215-.958 10.428 10.428 0 0 1 5.306 0 8.223 8.223 0 0 1 2.206.953 5.623 5.623 0 0 1 1.553 1.415 3.236 3.236 0 0 1 .661 1.769 1.3 1.3 0 0 0 .29.811.762.762 0 0 0 .557.252.754.754 0 0 0 .635-.247.807.807 0 0 0 .249-.616 4.812 4.812 0 0 0-.654-2.441 6.762 6.762 0 0 0-1.857-2.036 9.762 9.762 0 0 0-2.81-1.414 11.762 11.762 0 0 0-6.906 0 9.782 9.782 0 0 0-2.809 1.414 6.771 6.771 0 0 0-1.856 2.036 4.814 4.814 0 0 0-.655 2.441 4.354 4.354 0 0 0 .688 2.381 7 7 0 0 0 1.9 1.961 10.929 10.929 0 0 0 2.823 1.4 13.392 13.392 0 0 0 3.36.67 12.558 12.558 0 0 1 2.783.76 9.338 9.338 0 0 1 2.328 1.337 7.389 7.389 0 0 1 1.677 1.869 5.131 5.131 0 0 1 .773 2.339 4.684 4.684 0 0 1-.536 2.561 6.21 6.21 0 0 1-1.729 2.016 8.765 8.765 0 0 1-2.523 1.32 9.694 9.694 0 0 1-6.062 0 8.216 8.216 0 0 1-2.462-1.325A6.409 6.409 0 0 1 309.233 50a5.332 5.332 0 0 1-.625-2.522.725.725 0 0 0-.229-.551.767.767 0 0 0-.549-.227z" style="fill:#ffd550" transform="translate(-76.353 -24.947)"/>
                </g>
            </g>
        </g>
    </g>
</svg>
