<svg xmlns="http://www.w3.org/2000/svg" width="126.393" height="126.393" viewBox="0 0 126.393 126.393">
    <g data-name="Group 2825">
        <g data-name="Group 2824">
            <g data-name="Group 2668">
                <g data-name="Group 2515">
                    <g data-name="Group 2514">
                        <path data-name="Path 1003" d="m273.585 4257.052 6.054-6.055-83.278-83.278-6.055 6.054c-21.965 21.966-21.13 58.415 1.867 81.412s59.446 23.832 81.412 1.867" style="fill:#5b3a00" transform="translate(-172.361 -4148.604)"/>
                        <path data-name="Path 1004" d="m282.47 4251-7.47 7.47a55.717 55.717 0 0 1-19.448 12.661 57.986 57.986 0 0 1-22.333 3.853 60.909 60.909 0 0 1-22.495-4.871 63.632 63.632 0 0 1-33.476-33.476 60.915 60.915 0 0 1-4.871-22.5 57.982 57.982 0 0 1 3.853-22.332 55.722 55.722 0 0 1 12.661-19.448l7.47-7.47zm-90.748-75.808a51.766 51.766 0 0 0-11.757 18.059 54.007 54.007 0 0 0-3.585 20.8 56.924 56.924 0 0 0 4.554 21.022 59.636 59.636 0 0 0 31.355 31.355 56.926 56.926 0 0 0 21.022 4.554 54.008 54.008 0 0 0 20.8-3.585 51.766 51.766 0 0 0 18.059-11.757l4.639-4.639-80.447-80.447z" style="fill:#5b3a00" transform="translate(-172.361 -4148.604)"/>
                    </g>
                </g>
                <g data-name="Group 2517">
                    <g data-name="Group 2516" transform="translate(-172.361 -4148.604)">
                        <circle data-name="Ellipse 117" cx="58.887" cy="58.887" r="58.887" transform="translate(178.979 4150.606)" style="fill:#5b3a00"/>
                        <path data-name="Path 1005" d="M280.92 4252.547a60.7 60.7 0 1 1 13.38-20.147 60.493 60.493 0 0 1-13.38 20.147zm-83.278-83.278a56.7 56.7 0 1 0 18.817-12.5 56.528 56.528 0 0 0-18.817 12.5z" style="fill:#5b3a00"/>
                    </g>
                </g>
                <g data-name="Group 2667">
                    <g data-name="Group 2566">
                        <g data-name="Group 2519">
                            <g data-name="Group 2518">
                                <path data-name="Path 1006" d="m257.353 4254.618 2.112 2.112a1.613 1.613 0 0 0 1.859.3 67.162 67.162 0 0 0 11.087-7.47 1.613 1.613 0 0 0 .11-2.383l-3.866-3.866a1.614 1.614 0 0 0-2.282 0l-9.02 9.021a1.614 1.614 0 0 0 0 2.286z" style="fill:#5b3a00" transform="translate(-172.361 -4148.604)"/>
                                <path data-name="Path 1007" d="M273.938 4250.878c-.081.08-.165.157-.253.23a69.209 69.209 0 0 1-11.468 7.718 3.611 3.611 0 0 1-4.168-.681l-2.112-2.112a3.621 3.621 0 0 1 0-5.113l9.021-9.02a3.62 3.62 0 0 1 5.113 0l3.865 3.865a3.615 3.615 0 0 1 0 5.113zm-13.256 4.238a66.693 66.693 0 0 0 10.12-6.823l-3.288-3.287-8.471 8.471z" style="fill:#5b3a00" transform="translate(-172.361 -4148.604)"/>
                            </g>
                        </g>
                        <g data-name="Group 2521">
                            <g data-name="Group 2520">
                                <path data-name="Path 1008" d="m206.69 4243.245-3.4 3.4a1.515 1.515 0 0 0 .108 2.239 78.925 78.925 0 0 0 12.182 8.271 1.437 1.437 0 0 0 1.693-.243l1.545-1.545a1.513 1.513 0 0 0 0-2.14l-9.985-9.984a1.513 1.513 0 0 0-2.143.002z" style="fill:#5b3a00" transform="translate(-172.361 -4148.604)"/>
                                <path data-name="Path 1009" d="m220.23 4256.785-1.544 1.545a3.431 3.431 0 0 1-3.992.624 79.942 79.942 0 0 1-12.571-8.522 3.516 3.516 0 0 1-.251-5.2l3.4-3.4a3.519 3.519 0 0 1 4.972 0l9.984 9.984a3.52 3.52 0 0 1 .002 4.969zm-4.081-1.581.9-.905-9.293-9.293-2.675 2.675a78.241 78.241 0 0 0 11.068 7.519z" style="fill:#5b3a00" transform="translate(-172.361 -4148.604)"/>
                            </g>
                        </g>
                        <g data-name="Group 2523">
                            <g data-name="Group 2522">
                                <path data-name="Path 1010" d="m203.876 4178.536-3.887-3.887a1.515 1.515 0 0 0-2.236.1 66.773 66.773 0 0 0-7.663 11.144 1.514 1.514 0 0 0 .285 1.744l2.2 2.2a1.513 1.513 0 0 0 2.14 0l9.162-9.161a1.514 1.514 0 0 0-.001-2.14z" style="fill:#5b3a00" transform="translate(-172.361 -4148.604)"/>
                                <path data-name="Path 1011" d="m205.292 4182.092-9.162 9.162a3.519 3.519 0 0 1-4.972 0l-2.2-2.2a3.515 3.515 0 0 1-.663-4.05 63.479 63.479 0 0 1 7.916-11.532 3.516 3.516 0 0 1 5.192-.241l3.888 3.887a3.521 3.521 0 0 1 .001 4.974zm-11.648 5.985 8.471-8.471-3.162-3.161a65.535 65.535 0 0 0-6.912 10.029z" style="fill:#5b3a00" transform="translate(-172.361 -4148.604)"/>
                            </g>
                        </g>
                        <g data-name="Group 2525">
                            <g data-name="Group 2524">
                                <path data-name="Path 1012" d="m191.751 4228.306-.8.8a1.517 1.517 0 0 0-.288 1.738 79.983 79.983 0 0 0 7.816 12.657 1.514 1.514 0 0 0 2.24.109l3.17-3.17a1.514 1.514 0 0 0 0-2.141l-9.995-9.995a1.514 1.514 0 0 0-2.143.002z" style="fill:#5b3a00" transform="translate(-172.361 -4148.604)"/>
                                <path data-name="Path 1013" d="m205.3 4241.857-3.17 3.171a3.516 3.516 0 0 1-5.2-.254 81.944 81.944 0 0 1-8.067-13.048 3.516 3.516 0 0 1 .671-4.034l.8-.8a3.521 3.521 0 0 1 4.972 0l9.994 9.995a3.52 3.52 0 0 1 0 4.97zm-5.616-.046 2.44-2.44-9.3-9.3-.209.209a81.514 81.514 0 0 0 7.071 11.531z" style="fill:#5b3a00" transform="translate(-172.361 -4148.604)"/>
                            </g>
                        </g>
                        <g data-name="Group 2527">
                            <g data-name="Group 2526">
                                <path data-name="Path 1014" d="m272.292 4239.679 3.743 3.744a1.614 1.614 0 0 0 2.392-.12 67.821 67.821 0 0 0 7.077-11.48 1.732 1.732 0 0 0-.388-1.908l-1.522-1.538a1.614 1.614 0 0 0-2.282 0l-9.02 9.02a1.612 1.612 0 0 0 0 2.282z" style="fill:#5b3a00" transform="translate(-172.361 -4148.604)"/>
                                <path data-name="Path 1015" d="M279.732 4244.84a3.615 3.615 0 0 1-5.112 0l-3.744-3.744a3.62 3.62 0 0 1 0-5.114l9.02-9.02a3.62 3.62 0 0 1 5.114 0l.007.008 1.519 1.535a3.729 3.729 0 0 1 .768 4.2 69.371 69.371 0 0 1-7.323 11.865 3.217 3.217 0 0 1-.249.27zm-5.75-6.3 3.162 3.162a67.342 67.342 0 0 0 6.432-10.494l-1.125-1.137z" style="fill:#5b3a00" transform="translate(-172.361 -4148.604)"/>
                            </g>
                        </g>
                        <g data-name="Group 2529">
                            <g data-name="Group 2528">
                                <path data-name="Path 1016" d="m218.815 4163.6-2.1-2.1a1.514 1.514 0 0 0-1.732-.291 66.805 66.805 0 0 0-11.223 7.593 1.514 1.514 0 0 0-.113 2.243l3.858 3.858a1.514 1.514 0 0 0 2.141 0l9.166-9.166a1.514 1.514 0 0 0 .003-2.137z" style="fill:#5b3a00" transform="translate(-172.361 -4148.604)"/>
                                <path data-name="Path 1017" d="m220.23 4167.154-9.166 9.166a3.521 3.521 0 0 1-4.972 0l-3.857-3.858a3.515 3.515 0 0 1 .263-5.211 70.914 70.914 0 0 1 11.614-7.843 3.519 3.519 0 0 1 4.022.678l2.1 2.1a3.519 3.519 0 0 1-.004 4.968zm-11.652 5.989 8.475-8.475-1.5-1.5a65.828 65.828 0 0 0-10.1 6.85z" style="fill:#5b3a00" transform="translate(-172.361 -4148.604)"/>
                            </g>
                        </g>
                        <g data-name="Group 2531">
                            <g data-name="Group 2530">
                                <path data-name="Path 1018" d="m284.346 4189.838.834-.834a1.514 1.514 0 0 0 .288-1.739 79.263 79.263 0 0 0-8.088-12.364 1.515 1.515 0 0 0-2.239-.108l-2.92 2.921a1.513 1.513 0 0 0 0 2.14l9.984 9.984a1.514 1.514 0 0 0 2.141 0z" style="fill:#5b3a00" transform="translate(-172.361 -4148.604)"/>
                                <path data-name="Path 1019" d="m286.6 4190.42-.834.834a3.519 3.519 0 0 1-4.972 0l-9.984-9.984a3.52 3.52 0 0 1 0-4.972l2.92-2.92a3.517 3.517 0 0 1 5.2.25 80.9 80.9 0 0 1 8.339 12.754 3.517 3.517 0 0 1-.669 4.038zm-3.32-2.343.241-.24a79.418 79.418 0 0 0-7.342-11.245l-2.192 2.192z" style="fill:#5b3a00" transform="translate(-172.361 -4148.604)"/>
                            </g>
                        </g>
                        <g data-name="Group 2533">
                            <g data-name="Group 2532">
                                <path data-name="Path 1020" d="m203.876 4208.413-9.984-9.984a1.514 1.514 0 0 0-2.141 0l-6.5 6.5a1.511 1.511 0 0 0-.441.989 51.722 51.722 0 0 0-.02 5.456 1.515 1.515 0 0 0 .442 1l7.342 7.341a1.511 1.511 0 0 0 2.14 0l9.162-9.161a1.514 1.514 0 0 0 0-2.141z" style="fill:#5b3a00" transform="translate(-172.361 -4148.604)"/>
                                <path data-name="Path 1021" d="m205.292 4211.969-9.162 9.162a3.519 3.519 0 0 1-4.972 0l-7.342-7.342a3.515 3.515 0 0 1-1.026-2.317 54.089 54.089 0 0 1 .021-5.666 3.511 3.511 0 0 1 1.024-2.292l6.5-6.5a3.521 3.521 0 0 1 4.972 0l9.984 9.984a3.521 3.521 0 0 1 .001 4.971zm-11.648 5.985 8.471-8.471-9.293-9.293-6.024 6.023a49.918 49.918 0 0 0-.017 4.878z" style="fill:#5b3a00" transform="translate(-172.361 -4148.604)"/>
                            </g>
                        </g>
                        <g data-name="Group 2535">
                            <g data-name="Group 2534">
                                <path data-name="Path 1022" d="m269.453 4174.945 3.556-3.556a1.514 1.514 0 0 0-.109-2.24 80.623 80.623 0 0 0-12.692-7.851 1.436 1.436 0 0 0-1.692.243l-1.363 1.363a1.369 1.369 0 0 0 .129 2.012l10.03 10.029a1.512 1.512 0 0 0 2.141 0z" style="fill:#5b3a00" transform="translate(-172.361 -4148.604)"/>
                                <path data-name="Path 1023" d="m274.425 4172.805-3.557 3.556a3.519 3.519 0 0 1-4.972 0l-10.029-10.03a3.352 3.352 0 0 1-.129-4.843l1.362-1.362a3.431 3.431 0 0 1 3.989-.626 82.12 82.12 0 0 1 13.082 8.1 3.516 3.516 0 0 1 .254 5.2zm-6.043.379 2.826-2.825a81.514 81.514 0 0 0-11.57-7.109l-.6.6z" style="fill:#5b3a00" transform="translate(-172.361 -4148.604)"/>
                            </g>
                        </g>
                        <g data-name="Group 2537">
                            <g data-name="Group 2536" transform="translate(-172.361 -4148.604)">
                                <rect data-name="Rectangle 144" width="15.984" height="17.147" rx="1.614" transform="rotate(-45 5226.442 1802.525)" style="fill:#5b3a00"/>
                                <path data-name="Path 1024" d="m279.914 4226.979-9.021 9.02a3.619 3.619 0 0 1-5.113 0l-9.843-9.843a3.62 3.62 0 0 1 0-5.113l9.021-9.02a3.619 3.619 0 0 1 5.113 0l9.843 9.842a3.622 3.622 0 0 1 0 5.114zm-11.577 5.914 8.471-8.471-9.294-9.293-8.471 8.471z" style="fill:#5b3a00"/>
                            </g>
                        </g>
                        <g data-name="Group 2539">
                            <g data-name="Group 2538">
                                <path data-name="Path 1025" d="m272.292 4209.8 9.888 9.888a1.612 1.612 0 0 0 2.282 0l6.1-6.187a1.613 1.613 0 0 0 .471-1.056 52.751 52.751 0 0 0-.066-6 1.617 1.617 0 0 0-.47-1.044l-6.9-6.9a1.614 1.614 0 0 0-2.282 0l-9.02 9.02a1.612 1.612 0 0 0-.003 2.279z" style="fill:#5b3a00" transform="translate(-172.361 -4148.604)"/>
                                <path data-name="Path 1026" d="M285.883 4221.1h-.005a3.62 3.62 0 0 1-5.114 0l-9.888-9.888a3.62 3.62 0 0 1 0-5.114l9.02-9.02a3.619 3.619 0 0 1 5.113 0l6.9 6.9a3.618 3.618 0 0 1 1.053 2.338 54.41 54.41 0 0 1 .066 6.234 3.61 3.61 0 0 1-1.048 2.357zm-11.9-12.44 9.337 9.337 5.719-5.805a50.568 50.568 0 0 0-.064-5.482l-6.521-6.521z" style="fill:#5b3a00" transform="translate(-172.361 -4148.604)"/>
                            </g>
                        </g>
                        <g data-name="Group 2541">
                            <g data-name="Group 2540" transform="translate(-172.361 -4148.604)">
                                <rect data-name="Rectangle 145" width="15.984" height="17.147" rx="1.514" transform="rotate(-45 5211.504 1838.59)" style="fill:#5b3a00"/>
                                <path data-name="Path 1027" d="m250.107 4226.908-9.161 9.162a3.521 3.521 0 0 1-4.972 0l-9.984-9.984a3.52 3.52 0 0 1 0-4.972l9.161-9.162a3.519 3.519 0 0 1 4.972 0l9.984 9.984a3.52 3.52 0 0 1 0 4.972zm-11.647 5.985 8.471-8.471-9.294-9.293-8.471 8.471z" style="fill:#5b3a00"/>
                            </g>
                        </g>
                        <g data-name="Group 2543">
                            <g data-name="Group 2542">
                                <path data-name="Path 1028" d="m236.5 4243.315-9.02 9.021a1.614 1.614 0 0 0 0 2.282l7.279 7.279a1.619 1.619 0 0 0 1.065.471 51.78 51.78 0 0 0 5.3-.016 1.61 1.61 0 0 0 1.056-.47l6.442-6.442a1.614 1.614 0 0 0 0-2.282l-9.843-9.843a1.614 1.614 0 0 0-2.279 0z" style="fill:#5b3a00" transform="translate(-172.361 -4148.604)"/>
                                <path data-name="Path 1029" d="m250.037 4256.856-6.437 6.444a3.613 3.613 0 0 1-2.364 1.055 54.378 54.378 0 0 1-5.507.016 3.614 3.614 0 0 1-2.385-1.056l-7.279-7.279a3.619 3.619 0 0 1 0-5.113l9.021-9.02a3.62 3.62 0 0 1 5.113 0l9.843 9.842a3.622 3.622 0 0 1-.005 5.111zm-9.168 3.5 6.062-6.062-9.294-9.293-8.471 8.471 6.9 6.9c1.592.075 3.206.07 4.803-.011z" style="fill:#5b3a00" transform="translate(-172.361 -4148.604)"/>
                            </g>
                        </g>
                        <g data-name="Group 2545">
                            <g data-name="Group 2544">
                                <path data-name="Path 1030" d="m251.435 4228.377-8.975 8.974a1.671 1.671 0 0 0-.046 2.328l9.889 9.889a1.671 1.671 0 0 0 2.328-.046l8.974-8.975a1.614 1.614 0 0 0 0-2.282l-9.888-9.888a1.614 1.614 0 0 0-2.282 0z" style="fill:#5b3a00" transform="translate(-172.361 -4148.604)"/>
                                <path data-name="Path 1031" d="m265.021 4241.963-8.975 8.975a3.652 3.652 0 0 1-5.159.045L241 4241.1a3.652 3.652 0 0 1 .045-5.159l8.975-8.975a3.619 3.619 0 0 1 5.113 0l9.889 9.889a3.619 3.619 0 0 1-.001 5.108zm-11.577 5.914 8.471-8.471-9.339-9.339-8.471 8.471z" style="fill:#5b3a00" transform="translate(-172.361 -4148.604)"/>
                            </g>
                        </g>
                        <g data-name="Group 2547">
                            <g data-name="Group 2546" transform="translate(-172.361 -4148.604)">
                                <rect data-name="Rectangle 146" width="15.984" height="17.147" rx="1.514" transform="rotate(-45 5222.066 1864.091)" style="fill:#5b3a00"/>
                                <path data-name="Path 1032" d="m235.169 4241.847-9.162 9.161a3.519 3.519 0 0 1-4.972 0l-9.984-9.984a3.52 3.52 0 0 1 0-4.972l9.162-9.162a3.521 3.521 0 0 1 4.972 0l9.984 9.985a3.52 3.52 0 0 1 0 4.972zm-11.648 5.984 8.471-8.471-9.293-9.293-8.471 8.471z" style="fill:#5b3a00"/>
                            </g>
                        </g>
                        <g data-name="Group 2549">
                            <g data-name="Group 2548" transform="translate(-172.361 -4148.604)">
                                <rect data-name="Rectangle 147" width="15.984" height="17.147" rx="1.514" transform="rotate(-45 5196.565 1874.654)" style="fill:#5b3a00"/>
                                <path data-name="Path 1033" d="m220.23 4226.908-9.161 9.162a3.521 3.521 0 0 1-4.972 0l-9.985-9.984a3.521 3.521 0 0 1 0-4.972l9.162-9.162a3.519 3.519 0 0 1 4.972 0l9.984 9.984a3.52 3.52 0 0 1 0 4.972zm-11.647 5.985 8.47-8.471-9.293-9.293-8.471 8.471z" style="fill:#5b3a00"/>
                            </g>
                        </g>
                        <g data-name="Group 2551">
                            <g data-name="Group 2550" transform="translate(-172.361 -4148.604)">
                                <rect data-name="Rectangle 148" width="15.984" height="17.147" rx="1.514" transform="rotate(-45 5186.001 1849.153)" style="fill:#5b3a00"/>
                                <path data-name="Path 1034" d="m235.169 4211.969-9.162 9.162a3.519 3.519 0 0 1-4.972 0l-9.984-9.984a3.52 3.52 0 0 1 0-4.972l9.162-9.162a3.521 3.521 0 0 1 4.972 0l9.984 9.984a3.52 3.52 0 0 1 0 4.972zm-11.648 5.985 8.471-8.471-9.293-9.293-8.471 8.471z" style="fill:#5b3a00"/>
                            </g>
                        </g>
                        <g data-name="Group 2553">
                            <g data-name="Group 2552" transform="translate(-172.361 -4148.604)">
                                <rect data-name="Rectangle 149" width="15.984" height="17.147" rx="1.514" transform="rotate(-45 5149.937 1834.214)" style="fill:#5b3a00"/>
                                <path data-name="Path 1035" d="m235.169 4182.092-9.162 9.162a3.519 3.519 0 0 1-4.972 0l-9.984-9.984a3.52 3.52 0 0 1 0-4.972l9.162-9.162a3.519 3.519 0 0 1 4.972 0l9.984 9.984a3.519 3.519 0 0 1 0 4.972zm-11.648 5.985 8.471-8.471-9.293-9.293-8.471 8.471z" style="fill:#5b3a00"/>
                            </g>
                        </g>
                        <g data-name="Group 2555">
                            <g data-name="Group 2554">
                                <path data-name="Path 1036" d="m233.606 4156.574-6.2 6.2a1.514 1.514 0 0 0 0 2.141l10.028 9.984a1.514 1.514 0 0 0 2.141 0l9.162-9.162a1.514 1.514 0 0 0 0-2.141l-7.052-7.007a1.516 1.516 0 0 0-.98-.441 51.95 51.95 0 0 0-6.11-.016 1.517 1.517 0 0 0-.989.442z" style="fill:#5b3a00" transform="translate(-172.361 -4148.604)"/>
                                <path data-name="Path 1037" d="m250.151 4167.154-9.161 9.161a3.519 3.519 0 0 1-4.972 0l-10.025-9.981a3.52 3.52 0 0 1 0-4.975l6.2-6.2a3.515 3.515 0 0 1 2.292-1.024 54.058 54.058 0 0 1 6.346.017 3.514 3.514 0 0 1 2.272 1.024l7.047 7a3.522 3.522 0 0 1 .001 4.978zm-11.306 6.326zm-.342-.34 8.471-8.471-6.574-6.532a49.977 49.977 0 0 0-5.51-.015l-5.723 5.723zm1.77-15.13z" style="fill:#5b3a00" transform="translate(-172.361 -4148.604)"/>
                            </g>
                        </g>
                        <g data-name="Group 2557">
                            <g data-name="Group 2556" transform="translate(-172.361 -4148.604)">
                                <rect data-name="Rectangle 150" width="15.984" height="17.147" rx="1.514" transform="rotate(-45 5190.376 1787.586)" style="fill:#5b3a00"/>
                                <path data-name="Path 1038" d="m279.984 4197.031-9.161 9.162a3.521 3.521 0 0 1-4.972 0l-9.984-9.985a3.52 3.52 0 0 1 0-4.972l9.161-9.161a3.519 3.519 0 0 1 4.972 0l9.984 9.984a3.519 3.519 0 0 1 0 4.972zm-11.647 5.985 8.471-8.471-9.294-9.293-8.471 8.471z" style="fill:#5b3a00"/>
                            </g>
                        </g>
                        <g data-name="Group 2559">
                            <g data-name="Group 2558" transform="translate(-172.361 -4148.604)">
                                <rect data-name="Rectangle 151" width="15.984" height="17.147" rx="1.514" transform="rotate(-45 5160.5 1859.715)" style="fill:#5b3a00"/>
                                <path data-name="Path 1039" d="m220.23 4197.031-9.161 9.162a3.521 3.521 0 0 1-4.972 0l-9.985-9.985a3.521 3.521 0 0 1 0-4.972l9.162-9.161a3.519 3.519 0 0 1 4.972 0l9.984 9.984a3.519 3.519 0 0 1 0 4.972zm-11.648 5.985 8.471-8.471-9.293-9.293-8.471 8.471z" style="fill:#5b3a00"/>
                            </g>
                        </g>
                        <g data-name="Group 2561">
                            <g data-name="Group 2560" transform="translate(-172.361 -4148.604)">
                                <rect data-name="Rectangle 152" width="15.984" height="17.147" rx="1.514" transform="rotate(-45 5175.438 1823.65)" style="fill:#5b3a00"/>
                                <path data-name="Path 1040" d="m250.107 4197.031-9.161 9.162a3.521 3.521 0 0 1-4.972 0l-9.984-9.985a3.52 3.52 0 0 1 0-4.972l9.161-9.161a3.519 3.519 0 0 1 4.972 0l9.984 9.984a3.519 3.519 0 0 1 0 4.972zm-11.647 5.985 8.471-8.471-9.294-9.294-8.471 8.471z" style="fill:#5b3a00"/>
                            </g>
                        </g>
                        <g data-name="Group 2563">
                            <g data-name="Group 2562" transform="translate(-172.361 -4148.604)">
                                <rect data-name="Rectangle 153" width="15.984" height="17.147" rx="1.514" transform="rotate(-45 5200.94 1813.088)" style="fill:#5b3a00"/>
                                <path data-name="Path 1041" d="m265.046 4211.969-9.162 9.162a3.519 3.519 0 0 1-4.972 0l-9.984-9.984a3.52 3.52 0 0 1 0-4.972l9.162-9.162a3.521 3.521 0 0 1 4.972 0l9.984 9.984a3.52 3.52 0 0 1 0 4.972zm-11.648 5.985 8.471-8.471-9.293-9.293-8.471 8.471z" style="fill:#5b3a00"/>
                            </g>
                        </g>
                        <g data-name="Group 2565">
                            <g data-name="Group 2564" transform="translate(-172.361 -4148.604)">
                                <rect data-name="Rectangle 154" width="15.984" height="17.147" rx="1.514" transform="rotate(-45 5164.875 1798.15)" style="fill:#5b3a00"/>
                                <path data-name="Path 1042" d="m265.046 4182.092-9.162 9.162a3.519 3.519 0 0 1-4.972 0l-9.984-9.984a3.52 3.52 0 0 1 0-4.972l9.162-9.162a3.519 3.519 0 0 1 4.972 0l9.984 9.984a3.519 3.519 0 0 1 0 4.972zm-11.648 5.985 8.471-8.471-9.293-9.293-8.471 8.471z" style="fill:#5b3a00"/>
                            </g>
                        </g>
                    </g>
                    <g data-name="Group 2615">
                        <g data-name="Group 2568">
                            <g data-name="Group 2567">
                                <path data-name="Path 1043" d="m258.232 4255.5 1.243 1.242a1.612 1.612 0 0 0 1.859.3 51.356 51.356 0 0 0 11.151-7.523l-3-3a1.614 1.614 0 0 0-2.282 0z" style="fill:#5b3a00" transform="translate(-172.361 -4148.604)"/>
                                <path data-name="Path 1044" d="m275.406 4249.616-1.594 1.411a53.479 53.479 0 0 1-11.585 7.815 3.611 3.611 0 0 1-4.168-.681l-2.659-2.661 10.389-10.389a3.62 3.62 0 0 1 5.113 0zm-13.142 4.686a49.347 49.347 0 0 0 7.268-4.9l-1.185-1.185z" style="fill:#5b3a00" transform="translate(-172.361 -4148.604)"/>
                            </g>
                        </g>
                        <g data-name="Group 2570">
                            <g data-name="Group 2569">
                                <path data-name="Path 1045" d="m207.522 4246.459-3.192 3.192a51.328 51.328 0 0 0 11.257 7.521 1.515 1.515 0 0 0 1.739-.288l1.381-1.381-9.044-9.044a1.515 1.515 0 0 0-2.141 0z" style="fill:#5b3a00" transform="translate(-172.361 -4148.604)"/>
                                <path data-name="Path 1046" d="m221.538 4255.5-2.8 2.8a3.516 3.516 0 0 1-4.037.669 53.417 53.417 0 0 1-11.695-7.814l-1.6-1.409 4.7-4.7a3.519 3.519 0 0 1 4.972 0zm-14.249-5.979a49.444 49.444 0 0 0 7.7 5.093l-6.4-6.4z" style="fill:#5b3a00" transform="translate(-172.361 -4148.604)"/>
                            </g>
                        </g>
                        <g data-name="Group 2572">
                            <g data-name="Group 2571">
                                <path data-name="Path 1047" d="m203.768 4180.81-2.947-2.947a1.514 1.514 0 0 0-2.235.1 51.317 51.317 0 0 0-6.951 10.939l.949.949a1.513 1.513 0 0 0 2.14 0z" style="fill:#5b3a00" transform="translate(-172.361 -4148.604)"/>
                                <path data-name="Path 1048" d="m206.6 4180.81-10.46 10.46a3.519 3.519 0 0 1-4.972 0l-1.943-1.943.6-1.273a53.39 53.39 0 0 1 7.222-11.366 3.516 3.516 0 0 1 5.192-.241zm-11.623 5.96 5.96-5.96-1.151-1.151a49.438 49.438 0 0 0-4.809 7.111z" style="fill:#5b3a00" transform="translate(-172.361 -4148.604)"/>
                            </g>
                        </g>
                        <g data-name="Group 2574">
                            <g data-name="Group 2573">
                                <path data-name="Path 1049" d="m192.584 4231.52-1.056 1.056a51.305 51.305 0 0 0 6.9 10.978 1.514 1.514 0 0 0 2.24.109l3.1-3.1-9.044-9.044a1.513 1.513 0 0 0-2.14.001z" style="fill:#5b3a00" transform="translate(-172.361 -4148.604)"/>
                                <path data-name="Path 1050" d="m206.6 4240.564-4.514 4.514a3.517 3.517 0 0 1-5.2-.253 53.36 53.36 0 0 1-7.171-11.406l-.589-1.269 2.045-2.046a3.521 3.521 0 0 1 4.972 0zm-6.963 1.3 1.3-1.3-6.362-6.362a49.387 49.387 0 0 0 5.062 7.662z" style="fill:#5b3a00" transform="translate(-172.361 -4148.604)"/>
                            </g>
                        </g>
                        <g data-name="Group 2576">
                            <g data-name="Group 2575">
                                <path data-name="Path 1051" d="m273.171 4240.564 2.874 2.875a1.614 1.614 0 0 0 2.392-.121 51.269 51.269 0 0 0 6.793-10.923l-.8-.8a1.614 1.614 0 0 0-2.282 0z" style="fill:#5b3a00" transform="translate(-172.361 -4148.604)"/>
                                <path data-name="Path 1052" d="M279.742 4244.856a3.614 3.614 0 0 1-5.112 0l-4.291-4.29 10.39-10.389a3.62 3.62 0 0 1 5.113 0l1.789 1.789-.581 1.266a53.332 53.332 0 0 1-7.059 11.35 3.3 3.3 0 0 1-.249.274zm-3.74-4.292 1.153 1.153a49.508 49.508 0 0 0 4.63-6.935z" style="fill:#5b3a00" transform="translate(-172.361 -4148.604)"/>
                            </g>
                        </g>
                        <g data-name="Group 2578">
                            <g data-name="Group 2577">
                                <path data-name="Path 1053" d="m218.707 4165.871-1.156-1.156a1.516 1.516 0 0 0-1.733-.291 51.33 51.33 0 0 0-11.309 7.478l3.013 3.014a1.515 1.515 0 0 0 2.141 0z" style="fill:#5b3a00" transform="translate(-172.361 -4148.604)"/>
                                <path data-name="Path 1054" d="m221.538 4165.871-10.459 10.46a3.52 3.52 0 0 1-4.973 0l-4.53-4.53 1.618-1.409a53.435 53.435 0 0 1 11.751-7.77 3.52 3.52 0 0 1 4.021.677zm-12.946 7.284 5.661-5.661a49.325 49.325 0 0 0-6.778 4.543z" style="fill:#5b3a00" transform="translate(-172.361 -4148.604)"/>
                            </g>
                        </g>
                        <g data-name="Group 2580">
                            <g data-name="Group 2579">
                                <path data-name="Path 1055" d="m284.367 4189.842.758-.757a51.291 51.291 0 0 0-6.912-10.97 1.514 1.514 0 0 0-2.239-.108l-2.8 2.8 9.032 9.032a1.529 1.529 0 0 0 2.161.003z" style="fill:#5b3a00" transform="translate(-172.361 -4148.604)"/>
                                <path data-name="Path 1056" d="m287.531 4189.51-1.748 1.748a3.538 3.538 0 0 1-5 0l-10.448-10.448 4.219-4.218a3.516 3.516 0 0 1 5.2.25 53.409 53.409 0 0 1 7.182 11.4zm-11.531-8.7 5.353 5.353a49.482 49.482 0 0 0-4.348-6.358z" style="fill:#5b3a00" transform="translate(-172.361 -4148.604)"/>
                            </g>
                        </g>
                        <g data-name="Group 2582">
                            <g data-name="Group 2581">
                                <path data-name="Path 1057" d="m203.768 4210.687-9.044-9.044a1.513 1.513 0 0 0-2.14 0l-5.313 5.312a1.519 1.519 0 0 0-.441.989 52.12 52.12 0 0 0 .012 6.046l5.742 5.741a1.513 1.513 0 0 0 2.14 0z" style="fill:#5b3a00" transform="translate(-172.361 -4148.604)"/>
                                <path data-name="Path 1058" d="m206.6 4210.687-10.46 10.46a3.519 3.519 0 0 1-4.972 0l-6.278-6.278-.046-.758a54.126 54.126 0 0 1-.013-6.279 3.512 3.512 0 0 1 1.025-2.292l5.312-5.313a3.521 3.521 0 0 1 4.972 0zm-12.946 7.283 7.283-7.283-7.283-7.283-4.835 4.835a50.232 50.232 0 0 0-.018 4.878z" style="fill:#5b3a00" transform="translate(-172.361 -4148.604)"/>
                            </g>
                        </g>
                        <g data-name="Group 2584">
                            <g data-name="Group 2583">
                                <path data-name="Path 1059" d="m269.417 4174.916 2.891-2.891a51.4 51.4 0 0 0-11.268-7.513 1.513 1.513 0 0 0-1.737.289l-1.071 1.07 9.044 9.045a1.515 1.515 0 0 0 2.141 0z" style="fill:#5b3a00" transform="translate(-172.361 -4148.604)"/>
                                <path data-name="Path 1060" d="m275.235 4171.929-4.4 4.4a3.519 3.519 0 0 1-4.972 0l-10.46-10.46 2.486-2.486a3.516 3.516 0 0 1 4.034-.67 53.456 53.456 0 0 1 11.706 7.8zm-6.888 1.225 1-1a49.448 49.448 0 0 0-6.319-4.318z" style="fill:#5b3a00" transform="translate(-172.361 -4148.604)"/>
                            </g>
                        </g>
                        <g data-name="Group 2586">
                            <g data-name="Group 2585">
                                <path data-name="Path 1061" d="m267.206 4216.652-8.974 8.974 8.974 8.973a1.614 1.614 0 0 0 2.282 0l8.973-8.973-8.973-8.974a1.614 1.614 0 0 0-2.282 0z" style="fill:#5b3a00" transform="translate(-172.361 -4148.604)"/>
                                <path data-name="Path 1062" d="m281.293 4225.626-10.39 10.389a3.62 3.62 0 0 1-5.113 0l-10.39-10.389 10.389-10.389a3.62 3.62 0 0 1 5.113 0zm-12.946 7.283 7.283-7.283-7.283-7.283-7.283 7.283z" style="fill:#5b3a00" transform="translate(-172.361 -4148.604)"/>
                            </g>
                        </g>
                        <g data-name="Group 2588">
                            <g data-name="Group 2587">
                                <path data-name="Path 1063" d="m273.171 4210.687 8.973 8.974a1.614 1.614 0 0 0 2.282 0l4.955-4.955a1.619 1.619 0 0 0 .47-1.055 51.874 51.874 0 0 0-.061-6.574l-5.364-5.363a1.614 1.614 0 0 0-2.282 0z" style="fill:#5b3a00" transform="translate(-172.361 -4148.604)"/>
                                <path data-name="Path 1064" d="m290.8 4216.122-4.954 4.954a3.62 3.62 0 0 1-5.113 0l-10.39-10.389 10.39-10.389a3.62 3.62 0 0 1 5.113 0l5.89 5.89.055.743a54.2 54.2 0 0 1 .064 6.828 3.617 3.617 0 0 1-1.055 2.363zm-7.511 1.848 4.575-4.574a50.032 50.032 0 0 0-.019-5.436l-4.556-4.556-7.289 7.283z" style="fill:#5b3a00" transform="translate(-172.361 -4148.604)"/>
                            </g>
                        </g>
                        <g data-name="Group 2590">
                            <g data-name="Group 2589">
                                <path data-name="Path 1065" d="m239.54 4234.67 9.044-9.044-9.044-9.044a1.513 1.513 0 0 0-2.141 0l-9.044 9.044 9.044 9.044a1.514 1.514 0 0 0 2.141 0z" style="fill:#5b3a00" transform="translate(-172.361 -4148.604)"/>
                                <path data-name="Path 1066" d="m251.415 4225.626-10.459 10.459a3.519 3.519 0 0 1-4.972 0l-10.46-10.459 10.46-10.46a3.519 3.519 0 0 1 4.972 0zm-12.945 7.283 7.283-7.283-7.283-7.283-7.283 7.283z" style="fill:#5b3a00" transform="translate(-172.361 -4148.604)"/>
                            </g>
                        </g>
                        <g data-name="Group 2592">
                            <g data-name="Group 2591">
                                <path data-name="Path 1067" d="m237.329 4246.529-8.974 8.974 6.41 6.409a1.622 1.622 0 0 0 1.065.472 51.78 51.78 0 0 0 5.3-.016 1.613 1.613 0 0 0 1.056-.471l6.4-6.394-8.973-8.974a1.614 1.614 0 0 0-2.284 0z" style="fill:#5b3a00" transform="translate(-172.361 -4148.604)"/>
                                <path data-name="Path 1068" d="m251.415 4255.5-7.81 7.81a3.611 3.611 0 0 1-2.364 1.054 53.816 53.816 0 0 1-5.507.016 3.61 3.61 0 0 1-2.385-1.055l-7.825-7.825 10.389-10.389a3.62 3.62 0 0 1 5.113 0zm-10.536 4.874 4.874-4.874-7.283-7.283-7.283 7.283 4.888 4.888c1.592.075 3.207.07 4.804-.011z" style="fill:#5b3a00" transform="translate(-172.361 -4148.604)"/>
                            </g>
                        </g>
                        <g data-name="Group 2594">
                            <g data-name="Group 2593">
                                <path data-name="Path 1069" d="m252.267 4231.591-8.973 8.973 8.973 8.974a1.614 1.614 0 0 0 2.282 0l8.974-8.974-8.974-8.973a1.614 1.614 0 0 0-2.282 0z" style="fill:#5b3a00" transform="translate(-172.361 -4148.604)"/>
                                <path data-name="Path 1070" d="m266.354 4240.564-10.389 10.389a3.621 3.621 0 0 1-5.114 0l-10.389-10.389 10.389-10.389a3.621 3.621 0 0 1 5.114 0zm-12.946 7.283 7.283-7.283-7.283-7.283-7.283 7.283z" style="fill:#5b3a00" transform="translate(-172.361 -4148.604)"/>
                            </g>
                        </g>
                        <g data-name="Group 2596">
                            <g data-name="Group 2595">
                                <path data-name="Path 1071" d="m224.6 4249.608 9.044-9.044-9.044-9.044a1.513 1.513 0 0 0-2.14 0l-9.044 9.044 9.044 9.044a1.513 1.513 0 0 0 2.14 0z" style="fill:#5b3a00" transform="translate(-172.361 -4148.604)"/>
                                <path data-name="Path 1072" d="m236.477 4240.564-10.46 10.46a3.519 3.519 0 0 1-4.972 0l-10.46-10.46 10.46-10.46a3.521 3.521 0 0 1 4.972 0zm-12.946 7.283 7.283-7.283-7.283-7.283-7.283 7.283z" style="fill:#5b3a00" transform="translate(-172.361 -4148.604)"/>
                            </g>
                        </g>
                        <g data-name="Group 2598">
                            <g data-name="Group 2597">
                                <path data-name="Path 1073" d="m207.522 4216.582-9.044 9.044 9.044 9.044a1.514 1.514 0 0 0 2.141 0l9.044-9.044-9.044-9.044a1.513 1.513 0 0 0-2.141 0z" style="fill:#5b3a00" transform="translate(-172.361 -4148.604)"/>
                                <path data-name="Path 1074" d="m221.538 4225.626-10.46 10.459a3.519 3.519 0 0 1-4.972 0l-10.459-10.459 10.46-10.46a3.518 3.518 0 0 1 4.971 0zm-12.946 7.283 7.283-7.283-7.283-7.283-7.283 7.283z" style="fill:#5b3a00" transform="translate(-172.361 -4148.604)"/>
                            </g>
                        </g>
                        <g data-name="Group 2600">
                            <g data-name="Group 2599">
                                <path data-name="Path 1075" d="m222.461 4201.643-9.044 9.044 9.044 9.044a1.513 1.513 0 0 0 2.14 0l9.044-9.044-9.044-9.044a1.513 1.513 0 0 0-2.14 0z" style="fill:#5b3a00" transform="translate(-172.361 -4148.604)"/>
                                <path data-name="Path 1076" d="m236.477 4210.687-10.46 10.46a3.519 3.519 0 0 1-4.972 0l-10.46-10.46 10.46-10.46a3.521 3.521 0 0 1 4.972 0zm-12.946 7.283 7.283-7.283-7.283-7.283-7.283 7.283z" style="fill:#5b3a00" transform="translate(-172.361 -4148.604)"/>
                            </g>
                        </g>
                        <g data-name="Group 2602">
                            <g data-name="Group 2601">
                                <path data-name="Path 1077" d="m224.6 4189.854 9.044-9.044-9.044-9.044a1.513 1.513 0 0 0-2.14 0l-9.044 9.044 9.044 9.044a1.513 1.513 0 0 0 2.14 0z" style="fill:#5b3a00" transform="translate(-172.361 -4148.604)"/>
                                <path data-name="Path 1078" d="m236.477 4180.81-10.46 10.46a3.519 3.519 0 0 1-4.972 0l-10.46-10.46 10.46-10.46a3.519 3.519 0 0 1 4.972 0zm-12.946 7.283 7.283-7.283-7.283-7.283-7.283 7.283z" style="fill:#5b3a00" transform="translate(-172.361 -4148.604)"/>
                            </g>
                        </g>
                        <g data-name="Group 2604">
                            <g data-name="Group 2603">
                                <path data-name="Path 1079" d="m234.438 4159.788-6.083 6.083 9.044 9.045a1.515 1.515 0 0 0 2.141 0l9.044-9.045-6.067-6.067a1.521 1.521 0 0 0-.98-.441 51.845 51.845 0 0 0-6.11-.016 1.517 1.517 0 0 0-.989.441z" style="fill:#5b3a00" transform="translate(-172.361 -4148.604)"/>
                                <path data-name="Path 1080" d="m251.415 4165.871-10.459 10.46a3.519 3.519 0 0 1-4.972 0l-10.46-10.46 7.5-7.5a3.509 3.509 0 0 1 2.291-1.024 53.845 53.845 0 0 1 6.346.017 3.51 3.51 0 0 1 2.272 1.024zm-12.945 7.284 7.283-7.284-4.521-4.52a50.219 50.219 0 0 0-5.51-.015l-4.535 4.535z" style="fill:#5b3a00" transform="translate(-172.361 -4148.604)"/>
                            </g>
                        </g>
                        <g data-name="Group 2606">
                            <g data-name="Group 2605">
                                <path data-name="Path 1081" d="m269.417 4204.793 9.044-9.044-9.044-9.045a1.514 1.514 0 0 0-2.141 0l-9.044 9.045 9.044 9.044a1.515 1.515 0 0 0 2.141 0z" style="fill:#5b3a00" transform="translate(-172.361 -4148.604)"/>
                                <path data-name="Path 1082" d="m281.292 4195.749-10.459 10.459a3.519 3.519 0 0 1-4.972 0l-10.46-10.459 10.46-10.46a3.519 3.519 0 0 1 4.972 0zm-12.945 7.283 7.283-7.283-7.283-7.284-7.283 7.284z" style="fill:#5b3a00" transform="translate(-172.361 -4148.604)"/>
                            </g>
                        </g>
                        <g data-name="Group 2608">
                            <g data-name="Group 2607">
                                <path data-name="Path 1083" d="m209.663 4204.793 9.044-9.044-9.044-9.045a1.514 1.514 0 0 0-2.141 0l-9.044 9.045 9.044 9.044a1.515 1.515 0 0 0 2.141 0z" style="fill:#5b3a00" transform="translate(-172.361 -4148.604)"/>
                                <path data-name="Path 1084" d="m221.538 4195.749-10.46 10.459a3.518 3.518 0 0 1-4.971 0l-10.46-10.459 10.46-10.46a3.519 3.519 0 0 1 4.972 0zm-12.946 7.283 7.284-7.283-7.284-7.284-7.283 7.284z" style="fill:#5b3a00" transform="translate(-172.361 -4148.604)"/>
                            </g>
                        </g>
                        <g data-name="Group 2610">
                            <g data-name="Group 2609">
                                <path data-name="Path 1085" d="m237.4 4186.7-9.044 9.045 9.044 9.044a1.515 1.515 0 0 0 2.141 0l9.044-9.044-9.044-9.045a1.514 1.514 0 0 0-2.141 0z" style="fill:#5b3a00" transform="translate(-172.361 -4148.604)"/>
                                <path data-name="Path 1086" d="m251.415 4195.748-10.459 10.46a3.519 3.519 0 0 1-4.972 0l-10.46-10.459 10.46-10.46a3.519 3.519 0 0 1 4.972 0zm-12.945 7.284 7.283-7.284-7.283-7.283-7.283 7.284z" style="fill:#5b3a00" transform="translate(-172.361 -4148.604)"/>
                            </g>
                        </g>
                        <g data-name="Group 2612">
                            <g data-name="Group 2611">
                                <path data-name="Path 1087" d="m254.478 4219.731 9.045-9.044-9.045-9.044a1.513 1.513 0 0 0-2.14 0l-9.044 9.044 9.044 9.044a1.513 1.513 0 0 0 2.14 0z" style="fill:#5b3a00" transform="translate(-172.361 -4148.604)"/>
                                <path data-name="Path 1088" d="m266.354 4210.687-10.46 10.46a3.519 3.519 0 0 1-4.972 0l-10.46-10.46 10.46-10.46a3.52 3.52 0 0 1 4.972 0zm-12.946 7.283 7.283-7.283-7.283-7.283-7.283 7.283z" style="fill:#5b3a00" transform="translate(-172.361 -4148.604)"/>
                            </g>
                        </g>
                        <g data-name="Group 2614">
                            <g data-name="Group 2613">
                                <path data-name="Path 1089" d="m252.338 4171.766-9.044 9.044 9.044 9.044a1.513 1.513 0 0 0 2.14 0l9.045-9.044-9.045-9.044a1.513 1.513 0 0 0-2.14 0z" style="fill:#5b3a00" transform="translate(-172.361 -4148.604)"/>
                                <path data-name="Path 1090" d="m266.354 4180.81-10.46 10.46a3.519 3.519 0 0 1-4.972 0l-10.46-10.46 10.46-10.46a3.519 3.519 0 0 1 4.972 0zm-12.946 7.283 7.283-7.283-7.283-7.283-7.283 7.283z" style="fill:#5b3a00" transform="translate(-172.361 -4148.604)"/>
                            </g>
                        </g>
                    </g>
                    <g data-name="Group 2620">
                        <g data-name="Group 2617">
                            <g data-name="Group 2616">
                                <path data-name="Path 1091" d="m218.724 4227.676-8.076 8.076a2.955 2.955 0 0 1-4.173 0l-8.3-8.3a.614.614 0 0 1 .868-.868l8.3 8.3a1.724 1.724 0 0 0 2.437 0l8.076-8.076a.614.614 0 1 1 .868.868z" style="fill:#5b3a00" transform="translate(-172.361 -4148.604)"/>
                                <path data-name="Path 1092" d="m220.14 4229.091-8.077 8.077a4.958 4.958 0 0 1-7 0l-8.3-8.3a2.616 2.616 0 0 1 3.7-3.7l8.1 8.1 7.879-7.879a2.616 2.616 0 0 1 3.7 3.7z" style="fill:#5b3a00" transform="translate(-172.361 -4148.604)"/>
                            </g>
                        </g>
                        <g data-name="Group 2619">
                            <g data-name="Group 2618">
                                <path data-name="Path 1093" d="m233.681 4242.633-8.076 8.076a2.953 2.953 0 0 1-4.173 0l-8.3-8.3a.614.614 0 1 1 .868-.868l8.3 8.3a1.724 1.724 0 0 0 2.437 0l8.076-8.076a.614.614 0 1 1 .868.868z" style="fill:#5b3a00" transform="translate(-172.361 -4148.604)"/>
                                <path data-name="Path 1094" d="m235.1 4244.049-8.077 8.076a4.958 4.958 0 0 1-7 0l-8.3-8.3a2.616 2.616 0 0 1 3.7-3.7l8.1 8.1 7.879-7.879a2.616 2.616 0 1 1 3.7 3.7z" style="fill:#5b3a00" transform="translate(-172.361 -4148.604)"/>
                            </g>
                        </g>
                    </g>
                    <g data-name="Group 2622">
                        <g data-name="Group 2621">
                            <path data-name="Path 1095" d="m233.671 4212.729-8.077 8.076a2.952 2.952 0 0 1-4.172 0l-8.3-8.3a.614.614 0 0 1 .868-.868l8.3 8.3a1.724 1.724 0 0 0 2.436 0l8.077-8.076a.614.614 0 1 1 .868.868z" style="fill:#5b3a00" transform="translate(-172.361 -4148.604)"/>
                            <path data-name="Path 1096" d="m235.086 4214.145-8.076 8.076a4.959 4.959 0 0 1-7 0l-8.3-8.3a2.615 2.615 0 0 1 3.7-3.7l8.1 8.1 7.879-7.879a2.616 2.616 0 0 1 3.7 3.7z" style="fill:#5b3a00" transform="translate(-172.361 -4148.604)"/>
                        </g>
                    </g>
                    <g data-name="Group 2624">
                        <g data-name="Group 2623">
                            <path data-name="Path 1097" d="m248.628 4227.686-8.076 8.076a2.953 2.953 0 0 1-4.173 0l-8.3-8.3a.614.614 0 1 1 .868-.869l8.3 8.3a1.725 1.725 0 0 0 2.437 0l8.076-8.076a.614.614 0 1 1 .868.868z" style="fill:#5b3a00" transform="translate(-172.361 -4148.604)"/>
                            <path data-name="Path 1098" d="m250.044 4229.1-8.077 8.076a4.959 4.959 0 0 1-7 0l-8.3-8.3a2.616 2.616 0 1 1 3.7-3.7l8.1 8.1 7.879-7.879a2.616 2.616 0 0 1 3.7 3.7z" style="fill:#5b3a00" transform="translate(-172.361 -4148.604)"/>
                        </g>
                    </g>
                    <g data-name="Group 2626">
                        <g data-name="Group 2625">
                            <path data-name="Path 1099" d="m248.6 4197.8-8.076 8.076a2.955 2.955 0 0 1-4.173 0l-8.3-8.3a.614.614 0 0 1 .868-.868l8.3 8.3a1.726 1.726 0 0 0 2.437 0l8.076-8.077a.614.614 0 0 1 .868.869z" style="fill:#5b3a00" transform="translate(-172.361 -4148.604)"/>
                            <path data-name="Path 1100" d="m250.015 4199.216-8.076 8.076a4.959 4.959 0 0 1-7 0l-8.3-8.3a2.616 2.616 0 0 1 3.7-3.7l8.1 8.1 7.879-7.879a2.616 2.616 0 0 1 3.7 3.7z" style="fill:#5b3a00" transform="translate(-172.361 -4148.604)"/>
                        </g>
                    </g>
                    <g data-name="Group 2628">
                        <g data-name="Group 2627">
                            <path data-name="Path 1101" d="m218.713 4197.772-8.076 8.076a2.955 2.955 0 0 1-4.173 0l-8.3-8.3a.614.614 0 0 1 .869-.868l8.3 8.3a1.724 1.724 0 0 0 2.436 0l8.076-8.076a.614.614 0 0 1 .868.868z" style="fill:#5b3a00" transform="translate(-172.361 -4148.604)"/>
                            <path data-name="Path 1102" d="m220.129 4199.187-8.076 8.077a4.959 4.959 0 0 1-7 0l-8.3-8.3a2.616 2.616 0 0 1 3.7-3.7l8.1 8.1 7.879-7.879a2.616 2.616 0 1 1 3.7 3.7z" style="fill:#5b3a00" transform="translate(-172.361 -4148.604)"/>
                        </g>
                    </g>
                    <g data-name="Group 2630">
                        <g data-name="Group 2629">
                            <path data-name="Path 1103" d="m203.767 4212.719-8.077 8.076a2.954 2.954 0 0 1-4.172 0l-4.186-4.186a.614.614 0 1 1 .868-.868l4.186 4.186a1.723 1.723 0 0 0 2.436 0l8.077-8.077a.614.614 0 1 1 .868.869z" style="fill:#5b3a00" transform="translate(-172.361 -4148.604)"/>
                            <path data-name="Path 1104" d="m205.182 4214.134-8.076 8.077a4.958 4.958 0 0 1-7 0l-4.186-4.186a2.616 2.616 0 1 1 3.7-3.7l3.989 3.989 7.879-7.879a2.615 2.615 0 0 1 3.7 3.7z" style="fill:#5b3a00" transform="translate(-172.361 -4148.604)"/>
                        </g>
                    </g>
                    <g data-name="Group 2632">
                        <g data-name="Group 2631">
                            <path data-name="Path 1105" d="m233.642 4182.843-8.076 8.077a2.955 2.955 0 0 1-4.173 0l-8.3-8.3a.614.614 0 0 1 .868-.868l8.3 8.3a1.726 1.726 0 0 0 2.437 0l8.076-8.077a.614.614 0 1 1 .868.868z" style="fill:#5b3a00" transform="translate(-172.361 -4148.604)"/>
                            <path data-name="Path 1106" d="m235.058 4184.259-8.077 8.076a4.958 4.958 0 0 1-7 0l-8.3-8.3a2.616 2.616 0 1 1 3.7-3.7l8.1 8.1 7.879-7.878a2.616 2.616 0 0 1 3.7 3.7z" style="fill:#5b3a00" transform="translate(-172.361 -4148.604)"/>
                        </g>
                    </g>
                    <g data-name="Group 2634">
                        <g data-name="Group 2633">
                            <path data-name="Path 1107" d="m203.857 4182.824-8.076 8.076a2.953 2.953 0 0 1-4.173 0l-.074-.074a.614.614 0 0 1 .868-.868l.074.074a1.725 1.725 0 0 0 2.437 0l8.076-8.076a.614.614 0 0 1 .868.868z" style="fill:#5b3a00" transform="translate(-172.361 -4148.604)"/>
                            <path data-name="Path 1108" d="m205.273 4184.24-8.077 8.076a4.958 4.958 0 0 1-7 0l-.074-.074a2.616 2.616 0 0 1 3.572-3.819l7.883-7.883a2.616 2.616 0 1 1 3.7 3.7z" style="fill:#5b3a00" transform="translate(-172.361 -4148.604)"/>
                        </g>
                    </g>
                    <g data-name="Group 2636">
                        <g data-name="Group 2635">
                            <path data-name="Path 1109" d="m218.785 4167.9-8.076 8.076a2.955 2.955 0 0 1-4.173 0l-2.221-2.222a.614.614 0 0 1 .868-.868l2.221 2.222a1.727 1.727 0 0 0 2.437 0l8.076-8.077a.614.614 0 0 1 .868.869z" style="fill:#5b3a00" transform="translate(-172.361 -4148.604)"/>
                            <path data-name="Path 1110" d="m220.2 4169.311-8.076 8.076a4.958 4.958 0 0 1-7 0l-2.222-2.221a2.616 2.616 0 0 1 3.7-3.7l2.024 2.024 7.879-7.879a2.616 2.616 0 0 1 3.7 3.7z" style="fill:#5b3a00" transform="translate(-172.361 -4148.604)"/>
                        </g>
                    </g>
                    <g data-name="Group 2638">
                        <g data-name="Group 2637">
                            <path data-name="Path 1111" d="m248.589 4167.9-8.077 8.076a2.954 2.954 0 0 1-4.172 0l-8.3-8.3a.614.614 0 0 1 .868-.868l8.3 8.3a1.726 1.726 0 0 0 2.436 0l8.077-8.077a.614.614 0 0 1 .868.869z" style="fill:#5b3a00" transform="translate(-172.361 -4148.604)"/>
                            <path data-name="Path 1112" d="m250 4169.312-8.076 8.076a4.958 4.958 0 0 1-7 0l-8.3-8.3a2.616 2.616 0 0 1 3.7-3.7l8.1 8.1 7.879-7.879a2.616 2.616 0 1 1 3.7 3.7z" style="fill:#5b3a00" transform="translate(-172.361 -4148.604)"/>
                        </g>
                    </g>
                    <g data-name="Group 2640">
                        <g data-name="Group 2639">
                            <path data-name="Path 1113" d="m263.556 4212.758-8.076 8.076a2.955 2.955 0 0 1-4.173 0l-8.3-8.3a.614.614 0 1 1 .868-.868l8.3 8.3a1.724 1.724 0 0 0 2.437 0l8.076-8.076a.614.614 0 0 1 .868.868z" style="fill:#5b3a00" transform="translate(-172.361 -4148.604)"/>
                            <path data-name="Path 1114" d="m264.972 4214.173-8.076 8.077a4.958 4.958 0 0 1-7 0l-8.3-8.3a2.616 2.616 0 0 1 3.7-3.7l8.1 8.1 7.879-7.879a2.615 2.615 0 0 1 3.7 3.7z" style="fill:#5b3a00" transform="translate(-172.361 -4148.604)"/>
                        </g>
                    </g>
                    <g data-name="Group 2642">
                        <g data-name="Group 2641">
                            <path data-name="Path 1115" d="m263.632 4242.69-8.076 8.077a2.955 2.955 0 0 1-4.173 0l-8.3-8.3a.614.614 0 0 1 .868-.868l8.3 8.3a1.725 1.725 0 0 0 2.437 0l8.076-8.076a.614.614 0 0 1 .868.868z" style="fill:#5b3a00" transform="translate(-172.361 -4148.604)"/>
                            <path data-name="Path 1116" d="m265.048 4244.106-8.077 8.076a4.959 4.959 0 0 1-7 0l-8.3-8.3a2.616 2.616 0 1 1 3.7-3.7l8.1 8.1 7.879-7.878a2.616 2.616 0 0 1 3.7 3.7z" style="fill:#5b3a00" transform="translate(-172.361 -4148.604)"/>
                        </g>
                    </g>
                    <g data-name="Group 2644">
                        <g data-name="Group 2643">
                            <path data-name="Path 1117" d="m278.56 4227.762-8.076 8.076a2.953 2.953 0 0 1-4.173 0l-8.3-8.3a.614.614 0 0 1 .869-.868l8.3 8.3a1.725 1.725 0 0 0 2.437 0l8.076-8.076a.614.614 0 0 1 .868.868z" style="fill:#5b3a00" transform="translate(-172.361 -4148.604)"/>
                            <path data-name="Path 1118" d="m279.976 4229.178-8.076 8.076a4.958 4.958 0 0 1-7 0l-8.3-8.3a2.616 2.616 0 1 1 3.7-3.7l8.1 8.1 7.879-7.879a2.616 2.616 0 0 1 3.7 3.7z" style="fill:#5b3a00" transform="translate(-172.361 -4148.604)"/>
                        </g>
                    </g>
                    <g data-name="Group 2646">
                        <g data-name="Group 2645">
                            <path data-name="Path 1119" d="m289.715 4216.607-4.33 4.33a2.955 2.955 0 0 1-4.173 0l-8.3-8.3a.614.614 0 1 1 .868-.868l8.3 8.3a1.723 1.723 0 0 0 2.436 0l4.33-4.33a.614.614 0 1 1 .868.868z" style="fill:#5b3a00" transform="translate(-172.361 -4148.604)"/>
                            <path data-name="Path 1120" d="m291.131 4218.023-4.33 4.33a4.958 4.958 0 0 1-7 0l-8.3-8.3a2.616 2.616 0 1 1 3.7-3.7l8.1 8.1 4.132-4.133a2.616 2.616 0 0 1 3.7 3.7z" style="fill:#5b3a00" transform="translate(-172.361 -4148.604)"/>
                        </g>
                    </g>
                    <g data-name="Group 2651">
                        <g data-name="Group 2648">
                            <g data-name="Group 2647">
                                <path data-name="Path 1121" d="m263.5 4182.9-8.076 8.077a2.955 2.955 0 0 1-4.173 0l-8.3-8.3a.614.614 0 0 1 .868-.868l8.3 8.3a1.727 1.727 0 0 0 2.437 0l8.076-8.077a.614.614 0 0 1 .868.868z" style="fill:#5b3a00" transform="translate(-172.361 -4148.604)"/>
                                <path data-name="Path 1122" d="m264.916 4184.315-8.076 8.076a4.96 4.96 0 0 1-7 0l-8.3-8.3a2.615 2.615 0 1 1 3.7-3.7l8.1 8.1 7.878-7.879a2.616 2.616 0 0 1 3.7 3.7z" style="fill:#5b3a00" transform="translate(-172.361 -4148.604)"/>
                            </g>
                        </g>
                        <g data-name="Group 2650">
                            <g data-name="Group 2649">
                                <path data-name="Path 1123" d="m278.457 4197.857-8.076 8.076a2.955 2.955 0 0 1-4.173 0l-8.3-8.3a.614.614 0 1 1 .869-.868l8.3 8.3a1.725 1.725 0 0 0 2.437 0l8.076-8.076a.614.614 0 0 1 .868.868z" style="fill:#5b3a00" transform="translate(-172.361 -4148.604)"/>
                                <path data-name="Path 1124" d="m279.873 4199.272-8.076 8.077a4.959 4.959 0 0 1-7 0l-8.3-8.3a2.616 2.616 0 0 1 3.7-3.7l8.1 8.1 7.879-7.879a2.615 2.615 0 0 1 3.7 3.7z" style="fill:#5b3a00" transform="translate(-172.361 -4148.604)"/>
                            </g>
                        </g>
                    </g>
                    <g data-name="Group 2656">
                        <g data-name="Group 2653">
                            <g data-name="Group 2652">
                                <path data-name="Path 1125" d="m272.472 4173.928-2.045 2.045a2.953 2.953 0 0 1-4.173 0l-8.3-8.3a.614.614 0 1 1 .868-.868l8.3 8.3a1.724 1.724 0 0 0 2.436 0l2.046-2.045a.614.614 0 1 1 .868.868z" style="fill:#5b3a00" transform="translate(-172.361 -4148.604)"/>
                                <path data-name="Path 1126" d="m273.887 4175.344-2.045 2.045a4.959 4.959 0 0 1-7 0l-8.3-8.3a2.616 2.616 0 1 1 3.7-3.7l8.1 8.1 1.848-1.848a2.616 2.616 0 0 1 3.7 3.7z" style="fill:#5b3a00" transform="translate(-172.361 -4148.604)"/>
                            </g>
                        </g>
                        <g data-name="Group 2655">
                            <g data-name="Group 2654">
                                <path data-name="Path 1127" d="m285.384 4190.93-.011.011-.009.009a2.954 2.954 0 0 1-4.153-.02l-8.3-8.3a.614.614 0 1 1 .868-.868l8.3 8.3a1.725 1.725 0 0 0 2.437 0 .614.614 0 0 1 .868.868z" style="fill:#5b3a00" transform="translate(-172.361 -4148.604)"/>
                                <path data-name="Path 1128" d="m286.8 4192.346-.01.011-.03.029a4.968 4.968 0 0 1-6.964-.04l-8.3-8.3a2.616 2.616 0 1 1 3.7-3.7l8.111 8.111a2.616 2.616 0 0 1 3.491 3.886z" style="fill:#5b3a00" transform="translate(-172.361 -4148.604)"/>
                            </g>
                        </g>
                    </g>
                    <g data-name="Group 2658">
                        <g data-name="Group 2657">
                            <path data-name="Path 1129" d="M272.46 4251.388a.648.648 0 0 1-.047.043 58.505 58.505 0 0 1-10.239 6.937 3.2 3.2 0 0 1-3.805-.615l-.244-.245a.614.614 0 1 1 .868-.868l.244.245a1.979 1.979 0 0 0 2.35.406 57.542 57.542 0 0 0 10.051-6.812.614.614 0 0 1 .822.909z" style="fill:#5b3a00" transform="translate(-172.361 -4148.604)"/>
                            <path data-name="Path 1130" d="M273.876 4252.8c-.063.063-.13.123-.2.179a60.365 60.365 0 0 1-10.545 7.143 5.182 5.182 0 0 1-6.179-.957l-.245-.245a2.616 2.616 0 1 1 3.7-3.7l.245.245a.282.282 0 0 0 .036.031 55.685 55.685 0 0 0 9.684-6.573 2.616 2.616 0 0 1 3.5 3.877z" style="fill:#5b3a00" transform="translate(-172.361 -4148.604)"/>
                        </g>
                    </g>
                    <g data-name="Group 2660">
                        <g data-name="Group 2659">
                            <path data-name="Path 1131" d="M279.342 4244.5a2.968 2.968 0 0 1-1.867.854 3.137 3.137 0 0 1-2.47-.909l-1.837-1.836a.614.614 0 0 1 .868-.868l1.837 1.836a1.91 1.91 0 0 0 1.505.553 1.7 1.7 0 0 0 1.267-.7 63.679 63.679 0 0 0 6.059-9.595.614.614 0 1 1 1.089.567 64.65 64.65 0 0 1-6.153 9.747 2.862 2.862 0 0 1-.298.351z" style="fill:#5b3a00" transform="translate(-172.361 -4148.604)"/>
                            <path data-name="Path 1132" d="M280.757 4245.911a4.98 4.98 0 0 1-3.122 1.434 5.138 5.138 0 0 1-4.046-1.489l-1.836-1.837a2.616 2.616 0 0 1 3.7-3.7l1.723 1.723a61.155 61.155 0 0 0 5.753-9.136 2.616 2.616 0 1 1 4.641 2.415 66.151 66.151 0 0 1-6.307 10 4.763 4.763 0 0 1-.506.59z" style="fill:#5b3a00" transform="translate(-172.361 -4148.604)"/>
                        </g>
                    </g>
                    <g data-name="Group 2662">
                        <g data-name="Group 2661">
                            <path data-name="Path 1133" d="m219.4 4256.845-1 1a3.116 3.116 0 0 1-3.62.582 55.239 55.239 0 0 1-11.471-7.767.614.614 0 1 1 .811-.922 54.022 54.022 0 0 0 11.215 7.594 1.891 1.891 0 0 0 2.2-.355l1-1a.614.614 0 0 1 .868.868z" style="fill:#5b3a00" transform="translate(-172.361 -4148.604)"/>
                            <path data-name="Path 1134" d="m220.816 4258.261-1 1a5.114 5.114 0 0 1-5.941.952 57.242 57.242 0 0 1-11.887-8.049 2.616 2.616 0 1 1 3.453-3.93 52.032 52.032 0 0 0 10.727 7.276l.952-.952a2.616 2.616 0 1 1 3.7 3.7z" style="fill:#5b3a00" transform="translate(-172.361 -4148.604)"/>
                        </g>
                    </g>
                    <g data-name="Group 2664">
                        <g data-name="Group 2663">
                            <path data-name="Path 1135" d="m204.316 4242.12-2.524 2.523a3.188 3.188 0 0 1-4.757-.275 55.077 55.077 0 0 1-6.7-10.9.614.614 0 1 1 1.114-.516 53.815 53.815 0 0 0 6.551 10.656 1.958 1.958 0 0 0 2.924.167l2.524-2.523a.614.614 0 0 1 .868.868z" style="fill:#5b3a00" transform="translate(-172.361 -4148.604)"/>
                            <path data-name="Path 1136" d="m205.732 4243.536-2.524 2.523a5.19 5.19 0 0 1-7.745-.452 57.091 57.091 0 0 1-6.942-11.3 2.616 2.616 0 1 1 4.745-2.2 51.908 51.908 0 0 0 6.274 10.219l2.492-2.492a2.616 2.616 0 1 1 3.7 3.7z" style="fill:#5b3a00" transform="translate(-172.361 -4148.604)"/>
                        </g>
                    </g>
                    <g data-name="Group 2666">
                        <g data-name="Group 2665">
                            <path data-name="Path 1137" d="m248.527 4257.684-5.246 5.246a2.955 2.955 0 0 1-1.943.865c-1.871.1-3.767.1-5.634.017a2.958 2.958 0 0 1-1.961-.867l-5.261-5.261a.614.614 0 1 1 .868-.868l5.261 5.261a1.733 1.733 0 0 0 1.147.508c1.829.082 3.685.077 5.518-.016a1.733 1.733 0 0 0 1.137-.507l5.245-5.246a.614.614 0 0 1 .869.868z" style="fill:#5b3a00" transform="translate(-172.361 -4148.604)"/>
                            <path data-name="Path 1138" d="m249.942 4259.1-5.245 5.245a4.956 4.956 0 0 1-3.258 1.45c-1.934.1-3.894.1-5.825.017a4.951 4.951 0 0 1-3.286-1.451l-5.261-5.261a2.616 2.616 0 1 1 3.7-3.7l5.189 5.189c1.7.072 3.415.067 5.114-.015l5.174-5.175a2.616 2.616 0 1 1 3.7 3.7z" style="fill:#5b3a00" transform="translate(-172.361 -4148.604)"/>
                        </g>
                    </g>
                </g>
            </g>
            <g data-name="Group 2823">
                <g data-name="Group 2670">
                    <g data-name="Group 2669">
                        <path data-name="Path 1139" d="m273.629 4257.007 6.054-6.054-83.283-83.278-6.054 6.054c-21.966 21.966-21.13 58.415 1.866 81.412s59.446 23.832 81.412 1.866" style="fill:#bc6161" transform="translate(-172.361 -4148.604)"/>
                    </g>
                </g>
                <g data-name="Group 2672">
                    <g data-name="Group 2671" transform="translate(-172.361 -4148.604)">
                        <circle data-name="Ellipse 118" cx="58.887" cy="58.887" r="58.887" transform="translate(179.023 4150.562)" style="fill:#e87777"/>
                    </g>
                </g>
                <g data-name="Group 2822">
                    <g data-name="Group 2721">
                        <g data-name="Group 2674">
                            <g data-name="Group 2673">
                                <path data-name="Path 1140" d="m257.4 4254.573 2.112 2.112a1.616 1.616 0 0 0 1.86.305 67.221 67.221 0 0 0 11.086-7.471 1.612 1.612 0 0 0 .11-2.383l-3.865-3.865a1.614 1.614 0 0 0-2.282 0l-9.021 9.02a1.614 1.614 0 0 0 0 2.282z" style="fill:#914343" transform="translate(-172.361 -4148.604)"/>
                            </g>
                        </g>
                        <g data-name="Group 2676">
                            <g data-name="Group 2675">
                                <path data-name="Path 1141" d="m206.734 4243.2-3.4 3.4a1.514 1.514 0 0 0 .107 2.239 78.946 78.946 0 0 0 12.182 8.27 1.434 1.434 0 0 0 1.693-.242l1.545-1.545a1.514 1.514 0 0 0 0-2.141l-9.984-9.984a1.514 1.514 0 0 0-2.143.003z" style="fill:#914343" transform="translate(-172.361 -4148.604)"/>
                            </g>
                        </g>
                        <g data-name="Group 2678">
                            <g data-name="Group 2677">
                                <path data-name="Path 1142" d="m203.92 4178.492-3.887-3.888a1.514 1.514 0 0 0-2.235.1 66.77 66.77 0 0 0-7.664 11.143 1.516 1.516 0 0 0 .286 1.745l2.2 2.2a1.515 1.515 0 0 0 2.141 0l9.161-9.162a1.513 1.513 0 0 0-.002-2.138z" style="fill:#914343" transform="translate(-172.361 -4148.604)"/>
                            </g>
                        </g>
                        <g data-name="Group 2680">
                            <g data-name="Group 2679">
                                <path data-name="Path 1143" d="m191.8 4228.262-.8.8a1.513 1.513 0 0 0-.289 1.737 80.046 80.046 0 0 0 7.816 12.658 1.514 1.514 0 0 0 2.24.109l3.17-3.171a1.513 1.513 0 0 0 0-2.14l-9.995-9.995a1.513 1.513 0 0 0-2.142.002z" style="fill:#914343" transform="translate(-172.361 -4148.604)"/>
                            </g>
                        </g>
                        <g data-name="Group 2682">
                            <g data-name="Group 2681">
                                <path data-name="Path 1144" d="m272.336 4239.635 3.744 3.744a1.612 1.612 0 0 0 2.391-.121 67.72 67.72 0 0 0 7.077-11.48 1.732 1.732 0 0 0-.387-1.907l-1.523-1.539a1.614 1.614 0 0 0-2.282 0l-9.02 9.021a1.614 1.614 0 0 0 0 2.282z" style="fill:#914343" transform="translate(-172.361 -4148.604)"/>
                            </g>
                        </g>
                        <g data-name="Group 2684">
                            <g data-name="Group 2683">
                                <path data-name="Path 1145" d="m218.859 4163.553-2.1-2.1a1.516 1.516 0 0 0-1.733-.292 66.784 66.784 0 0 0-11.222 7.593 1.514 1.514 0 0 0-.104 2.246l3.857 3.858a1.514 1.514 0 0 0 2.141 0l9.166-9.166a1.514 1.514 0 0 0-.005-2.139z" style="fill:#914343" transform="translate(-172.361 -4148.604)"/>
                            </g>
                        </g>
                        <g data-name="Group 2686">
                            <g data-name="Group 2685">
                                <path data-name="Path 1146" d="m284.39 4189.794.834-.834a1.515 1.515 0 0 0 .288-1.739 79.311 79.311 0 0 0-8.087-12.365 1.515 1.515 0 0 0-2.239-.107l-2.921 2.92a1.514 1.514 0 0 0 0 2.141l9.984 9.984a1.515 1.515 0 0 0 2.141 0z" style="fill:#914343" transform="translate(-172.361 -4148.604)"/>
                            </g>
                        </g>
                        <g data-name="Group 2688">
                            <g data-name="Group 2687">
                                <path data-name="Path 1147" d="m203.92 4208.369-9.984-9.984a1.513 1.513 0 0 0-2.14 0l-6.5 6.5a1.518 1.518 0 0 0-.441.989 51.985 51.985 0 0 0-.02 5.456 1.522 1.522 0 0 0 .442 1l7.342 7.342a1.514 1.514 0 0 0 2.141 0l9.161-9.162a1.513 1.513 0 0 0-.001-2.141z" style="fill:#914343" transform="translate(-172.361 -4148.604)"/>
                            </g>
                        </g>
                        <g data-name="Group 2690">
                            <g data-name="Group 2689">
                                <path data-name="Path 1148" d="m269.5 4174.9 3.556-3.556a1.513 1.513 0 0 0-.108-2.24 80.605 80.605 0 0 0-12.693-7.851 1.435 1.435 0 0 0-1.692.243l-1.362 1.363a1.368 1.368 0 0 0 .129 2.011l10.029 10.03a1.514 1.514 0 0 0 2.141 0z" style="fill:#914343" transform="translate(-172.361 -4148.604)"/>
                            </g>
                        </g>
                        <g data-name="Group 2692">
                            <g data-name="Group 2691" transform="translate(-172.361 -4148.604)">
                                <rect data-name="Rectangle 155" width="15.984" height="17.147" rx="1.614" transform="rotate(-45 5226.41 1802.45)" style="fill:#914343"/>
                            </g>
                        </g>
                        <g data-name="Group 2694">
                            <g data-name="Group 2693">
                                <path data-name="Path 1149" d="m272.336 4209.758 9.888 9.888a1.614 1.614 0 0 0 2.282 0l6.1-6.188a1.619 1.619 0 0 0 .471-1.055 52.751 52.751 0 0 0-.066-6 1.617 1.617 0 0 0-.471-1.045l-6.9-6.9a1.614 1.614 0 0 0-2.282 0l-9.02 9.021a1.614 1.614 0 0 0-.002 2.279z" style="fill:#914343" transform="translate(-172.361 -4148.604)"/>
                            </g>
                        </g>
                        <g data-name="Group 2696">
                            <g data-name="Group 2695" transform="translate(-172.361 -4148.604)">
                                <rect data-name="Rectangle 156" width="15.984" height="17.147" rx="1.514" transform="rotate(-45 5211.471 1838.514)" style="fill:#914343"/>
                            </g>
                        </g>
                        <g data-name="Group 2698">
                            <g data-name="Group 2697">
                                <path data-name="Path 1150" d="m236.541 4243.271-9.021 9.02a1.614 1.614 0 0 0 0 2.282l7.279 7.279a1.615 1.615 0 0 0 1.066.471 51.9 51.9 0 0 0 5.3-.015 1.613 1.613 0 0 0 1.057-.471l6.441-6.441a1.614 1.614 0 0 0 0-2.282l-9.842-9.843a1.614 1.614 0 0 0-2.28 0z" style="fill:#914343" transform="translate(-172.361 -4148.604)"/>
                            </g>
                        </g>
                        <g data-name="Group 2700">
                            <g data-name="Group 2699" transform="translate(-172.361 -4148.604)">
                                <rect data-name="Rectangle 157" width="15.984" height="17.212" rx="1.614" transform="rotate(-45 5236.974 1827.95)" style="fill:#914343"/>
                            </g>
                        </g>
                        <g data-name="Group 2702">
                            <g data-name="Group 2701" transform="translate(-172.361 -4148.604)">
                                <rect data-name="Rectangle 158" width="15.984" height="17.147" rx="1.514" transform="rotate(-45 5222.035 1864.015)" style="fill:#914343"/>
                            </g>
                        </g>
                        <g data-name="Group 2704">
                            <g data-name="Group 2703" transform="translate(-172.361 -4148.604)">
                                <rect data-name="Rectangle 159" width="15.984" height="17.147" rx="1.514" transform="rotate(-45 5196.533 1874.579)" style="fill:#914343"/>
                            </g>
                        </g>
                        <g data-name="Group 2706">
                            <g data-name="Group 2705" transform="translate(-172.361 -4148.604)">
                                <rect data-name="Rectangle 160" width="15.984" height="17.147" rx="1.514" transform="rotate(-45 5185.97 1849.077)" style="fill:#914343"/>
                            </g>
                        </g>
                        <g data-name="Group 2708">
                            <g data-name="Group 2707" transform="translate(-172.361 -4148.604)">
                                <rect data-name="Rectangle 161" width="15.984" height="17.147" rx="1.514" transform="rotate(-45 5149.905 1834.138)" style="fill:#914343"/>
                            </g>
                        </g>
                        <g data-name="Group 2710">
                            <g data-name="Group 2709">
                                <path data-name="Path 1151" d="m233.65 4156.53-6.2 6.2a1.511 1.511 0 0 0 0 2.14l10.028 9.984a1.512 1.512 0 0 0 2.14 0l9.162-9.161a1.514 1.514 0 0 0 0-2.141l-7.051-7.007a1.52 1.52 0 0 0-.98-.441 51.95 51.95 0 0 0-6.11-.017 1.52 1.52 0 0 0-.989.443z" style="fill:#914343" transform="translate(-172.361 -4148.604)"/>
                            </g>
                        </g>
                        <g data-name="Group 2712">
                            <g data-name="Group 2711" transform="translate(-172.361 -4148.604)">
                                <rect data-name="Rectangle 162" width="15.984" height="17.147" rx="1.514" transform="rotate(-45 5190.345 1787.51)" style="fill:#914343"/>
                            </g>
                        </g>
                        <g data-name="Group 2714">
                            <g data-name="Group 2713" transform="translate(-172.361 -4148.604)">
                                <rect data-name="Rectangle 163" width="15.984" height="17.147" rx="1.514" transform="rotate(-45 5160.468 1859.64)" style="fill:#914343"/>
                            </g>
                        </g>
                        <g data-name="Group 2716">
                            <g data-name="Group 2715" transform="translate(-172.361 -4148.604)">
                                <rect data-name="Rectangle 164" width="15.984" height="17.147" rx="1.514" transform="rotate(-45 5175.407 1823.575)" style="fill:#914343"/>
                            </g>
                        </g>
                        <g data-name="Group 2718">
                            <g data-name="Group 2717" transform="translate(-172.361 -4148.604)">
                                <rect data-name="Rectangle 165" width="15.984" height="17.147" rx="1.514" transform="rotate(-45 5200.91 1813.012)" style="fill:#914343"/>
                            </g>
                        </g>
                        <g data-name="Group 2720">
                            <g data-name="Group 2719" transform="translate(-172.361 -4148.604)">
                                <rect data-name="Rectangle 166" width="15.984" height="17.147" rx="1.514" transform="rotate(-45 5164.843 1798.073)" style="fill:#914343"/>
                            </g>
                        </g>
                    </g>
                    <g data-name="Group 2770">
                        <g data-name="Group 2723">
                            <g data-name="Group 2722">
                                <path data-name="Path 1152" d="m258.277 4255.458 1.242 1.243a1.615 1.615 0 0 0 1.86.3 51.432 51.432 0 0 0 11.151-7.523l-3-3a1.614 1.614 0 0 0-2.282 0z" style="fill:#bc6161" transform="translate(-172.361 -4148.604)"/>
                            </g>
                        </g>
                        <g data-name="Group 2725">
                            <g data-name="Group 2724">
                                <path data-name="Path 1153" d="m207.567 4246.414-3.193 3.193a51.386 51.386 0 0 0 11.257 7.521 1.514 1.514 0 0 0 1.739-.288l1.381-1.382-9.044-9.044a1.513 1.513 0 0 0-2.14 0z" style="fill:#bc6161" transform="translate(-172.361 -4148.604)"/>
                            </g>
                        </g>
                        <g data-name="Group 2727">
                            <g data-name="Group 2726">
                                <path data-name="Path 1154" d="m203.813 4180.766-2.947-2.948a1.515 1.515 0 0 0-2.236.1 51.332 51.332 0 0 0-6.951 10.939l.949.949a1.515 1.515 0 0 0 2.141 0z" style="fill:#bc6161" transform="translate(-172.361 -4148.604)"/>
                            </g>
                        </g>
                        <g data-name="Group 2729">
                            <g data-name="Group 2728">
                                <path data-name="Path 1155" d="m192.628 4231.476-1.056 1.056a51.326 51.326 0 0 0 6.9 10.978 1.515 1.515 0 0 0 2.24.108l3.1-3.1-9.044-9.044a1.514 1.514 0 0 0-2.14.002z" style="fill:#bc6161" transform="translate(-172.361 -4148.604)"/>
                            </g>
                        </g>
                        <g data-name="Group 2731">
                            <g data-name="Group 2730">
                                <path data-name="Path 1156" d="m273.215 4240.52 2.875 2.874a1.612 1.612 0 0 0 2.391-.12 51.246 51.246 0 0 0 6.793-10.924l-.8-.8a1.614 1.614 0 0 0-2.282 0z" style="fill:#bc6161" transform="translate(-172.361 -4148.604)"/>
                            </g>
                        </g>
                        <g data-name="Group 2733">
                            <g data-name="Group 2732">
                                <path data-name="Path 1157" d="m218.751 4165.827-1.156-1.156a1.515 1.515 0 0 0-1.732-.292 51.4 51.4 0 0 0-11.31 7.479l3.014 3.013a1.513 1.513 0 0 0 2.14 0z" style="fill:#bc6161" transform="translate(-172.361 -4148.604)"/>
                            </g>
                        </g>
                        <g data-name="Group 2735">
                            <g data-name="Group 2734">
                                <path data-name="Path 1158" d="m284.412 4189.8.757-.758a51.353 51.353 0 0 0-6.912-10.97 1.514 1.514 0 0 0-2.239-.107l-2.8 2.8 9.033 9.032a1.529 1.529 0 0 0 2.161.003z" style="fill:#bc6161" transform="translate(-172.361 -4148.604)"/>
                            </g>
                        </g>
                        <g data-name="Group 2737">
                            <g data-name="Group 2736">
                                <path data-name="Path 1159" d="m203.813 4210.643-9.044-9.044a1.514 1.514 0 0 0-2.141 0l-5.312 5.312a1.517 1.517 0 0 0-.442.989 51.9 51.9 0 0 0 .013 6.046l5.741 5.741a1.515 1.515 0 0 0 2.141 0z" style="fill:#bc6161" transform="translate(-172.361 -4148.604)"/>
                            </g>
                        </g>
                        <g data-name="Group 2739">
                            <g data-name="Group 2738">
                                <path data-name="Path 1160" d="m269.461 4174.871 2.891-2.89a51.38 51.38 0 0 0-11.267-7.513 1.515 1.515 0 0 0-1.738.289l-1.07 1.07 9.044 9.044a1.513 1.513 0 0 0 2.14 0z" style="fill:#bc6161" transform="translate(-172.361 -4148.604)"/>
                            </g>
                        </g>
                        <g data-name="Group 2741">
                            <g data-name="Group 2740">
                                <path data-name="Path 1161" d="m267.25 4216.608-8.973 8.973 8.973 8.974a1.614 1.614 0 0 0 2.282 0l8.973-8.974-8.973-8.973a1.614 1.614 0 0 0-2.282 0z" style="fill:#bc6161" transform="translate(-172.361 -4148.604)"/>
                            </g>
                        </g>
                        <g data-name="Group 2743">
                            <g data-name="Group 2742">
                                <path data-name="Path 1162" d="m273.215 4210.643 8.974 8.973a1.614 1.614 0 0 0 2.282 0l4.954-4.954a1.62 1.62 0 0 0 .471-1.056 51.857 51.857 0 0 0-.062-6.573l-5.363-5.364a1.614 1.614 0 0 0-2.282 0z" style="fill:#bc6161" transform="translate(-172.361 -4148.604)"/>
                            </g>
                        </g>
                        <g data-name="Group 2745">
                            <g data-name="Group 2744">
                                <path data-name="Path 1163" d="m239.584 4234.625 9.044-9.044-9.044-9.044a1.513 1.513 0 0 0-2.14 0l-9.044 9.044 9.044 9.044a1.513 1.513 0 0 0 2.14 0z" style="fill:#bc6161" transform="translate(-172.361 -4148.604)"/>
                            </g>
                        </g>
                        <g data-name="Group 2747">
                            <g data-name="Group 2746">
                                <path data-name="Path 1164" d="m237.373 4246.485-8.973 8.973 6.409 6.41a1.616 1.616 0 0 0 1.065.471 51.92 51.92 0 0 0 5.3-.015 1.625 1.625 0 0 0 1.057-.471l6.394-6.4-8.973-8.973a1.614 1.614 0 0 0-2.279.005z" style="fill:#bc6161" transform="translate(-172.361 -4148.604)"/>
                            </g>
                        </g>
                        <g data-name="Group 2749">
                            <g data-name="Group 2748">
                                <path data-name="Path 1165" d="m252.312 4231.546-8.974 8.974 8.973 8.973a1.615 1.615 0 0 0 2.283 0l8.973-8.973-8.973-8.974a1.614 1.614 0 0 0-2.282 0z" style="fill:#bc6161" transform="translate(-172.361 -4148.604)"/>
                            </g>
                        </g>
                        <g data-name="Group 2751">
                            <g data-name="Group 2750">
                                <path data-name="Path 1166" d="m224.646 4249.564 9.044-9.044-9.044-9.044a1.514 1.514 0 0 0-2.141 0l-9.044 9.044 9.044 9.044a1.515 1.515 0 0 0 2.141 0z" style="fill:#bc6161" transform="translate(-172.361 -4148.604)"/>
                            </g>
                        </g>
                        <g data-name="Group 2753">
                            <g data-name="Group 2752">
                                <path data-name="Path 1167" d="m207.567 4216.537-9.045 9.044 9.045 9.044a1.513 1.513 0 0 0 2.14 0l9.044-9.044-9.044-9.044a1.513 1.513 0 0 0-2.14 0z" style="fill:#bc6161" transform="translate(-172.361 -4148.604)"/>
                            </g>
                        </g>
                        <g data-name="Group 2755">
                            <g data-name="Group 2754">
                                <path data-name="Path 1168" d="m222.505 4201.6-9.044 9.044 9.044 9.044a1.515 1.515 0 0 0 2.141 0l9.044-9.044-9.044-9.044a1.514 1.514 0 0 0-2.141 0z" style="fill:#bc6161" transform="translate(-172.361 -4148.604)"/>
                            </g>
                        </g>
                        <g data-name="Group 2757">
                            <g data-name="Group 2756">
                                <path data-name="Path 1169" d="m224.646 4189.81 9.044-9.044-9.044-9.044a1.512 1.512 0 0 0-2.141 0l-9.044 9.044 9.044 9.044a1.515 1.515 0 0 0 2.141 0z" style="fill:#bc6161" transform="translate(-172.361 -4148.604)"/>
                            </g>
                        </g>
                        <g data-name="Group 2759">
                            <g data-name="Group 2758">
                                <path data-name="Path 1170" d="m234.483 4159.744-6.083 6.083 9.044 9.044a1.513 1.513 0 0 0 2.14 0l9.044-9.044-6.067-6.067a1.518 1.518 0 0 0-.98-.441 51.95 51.95 0 0 0-6.11-.017 1.52 1.52 0 0 0-.988.442z" style="fill:#bc6161" transform="translate(-172.361 -4148.604)"/>
                            </g>
                        </g>
                        <g data-name="Group 2761">
                            <g data-name="Group 2760">
                                <path data-name="Path 1171" d="m269.461 4204.748 9.044-9.044-9.044-9.044a1.513 1.513 0 0 0-2.14 0l-9.044 9.044 9.044 9.044a1.513 1.513 0 0 0 2.14 0z" style="fill:#bc6161" transform="translate(-172.361 -4148.604)"/>
                            </g>
                        </g>
                        <g data-name="Group 2763">
                            <g data-name="Group 2762">
                                <path data-name="Path 1172" d="m209.707 4204.748 9.044-9.044-9.044-9.044a1.513 1.513 0 0 0-2.14 0l-9.045 9.044 9.045 9.044a1.513 1.513 0 0 0 2.14 0z" style="fill:#bc6161" transform="translate(-172.361 -4148.604)"/>
                            </g>
                        </g>
                        <g data-name="Group 2765">
                            <g data-name="Group 2764">
                                <path data-name="Path 1173" d="m237.444 4186.66-9.044 9.04 9.044 9.044a1.513 1.513 0 0 0 2.14 0l9.044-9.044-9.044-9.044a1.513 1.513 0 0 0-2.14.004z" style="fill:#bc6161" transform="translate(-172.361 -4148.604)"/>
                            </g>
                        </g>
                        <g data-name="Group 2767">
                            <g data-name="Group 2766">
                                <path data-name="Path 1174" d="m254.523 4219.687 9.044-9.044-9.044-9.044a1.512 1.512 0 0 0-2.141 0l-9.044 9.044 9.044 9.044a1.515 1.515 0 0 0 2.141 0z" style="fill:#bc6161" transform="translate(-172.361 -4148.604)"/>
                            </g>
                        </g>
                        <g data-name="Group 2769">
                            <g data-name="Group 2768">
                                <path data-name="Path 1175" d="m252.382 4171.722-9.044 9.044 9.044 9.044a1.515 1.515 0 0 0 2.141 0l9.044-9.044-9.044-9.044a1.512 1.512 0 0 0-2.141 0z" style="fill:#bc6161" transform="translate(-172.361 -4148.604)"/>
                            </g>
                        </g>
                    </g>
                    <g data-name="Group 2775">
                        <g data-name="Group 2772">
                            <g data-name="Group 2771">
                                <path data-name="Path 1176" d="m218.768 4227.631-8.076 8.077a2.955 2.955 0 0 1-4.173 0l-8.3-8.3a.614.614 0 1 1 .868-.868l8.3 8.3a1.726 1.726 0 0 0 2.437 0l8.076-8.077a.614.614 0 1 1 .868.868z" style="fill:#ffb6b6" transform="translate(-172.361 -4148.604)"/>
                            </g>
                        </g>
                        <g data-name="Group 2774">
                            <g data-name="Group 2773">
                                <path data-name="Path 1177" d="m233.725 4242.589-8.076 8.076a2.955 2.955 0 0 1-4.173 0l-8.3-8.3a.614.614 0 1 1 .869-.868l8.3 8.3a1.723 1.723 0 0 0 2.436 0l8.076-8.076a.614.614 0 0 1 .868.868z" style="fill:#ffb6b6" transform="translate(-172.361 -4148.604)"/>
                            </g>
                        </g>
                    </g>
                    <g data-name="Group 2777">
                        <g data-name="Group 2776">
                            <path data-name="Path 1178" d="m233.715 4212.685-8.076 8.076a2.955 2.955 0 0 1-4.173 0l-8.3-8.3a.614.614 0 0 1 .868-.868l8.3 8.3a1.725 1.725 0 0 0 2.437 0l8.076-8.076a.614.614 0 1 1 .868.868z" style="fill:#ffb6b6" transform="translate(-172.361 -4148.604)"/>
                        </g>
                    </g>
                    <g data-name="Group 2779">
                        <g data-name="Group 2778">
                            <path data-name="Path 1179" d="m248.672 4227.642-8.076 8.076a2.953 2.953 0 0 1-4.173 0l-8.3-8.3a.614.614 0 0 1 .868-.868l8.3 8.3a1.725 1.725 0 0 0 2.437 0l8.076-8.076a.614.614 0 0 1 .868.868z" style="fill:#ffb6b6" transform="translate(-172.361 -4148.604)"/>
                        </g>
                    </g>
                    <g data-name="Group 2781">
                        <g data-name="Group 2780">
                            <path data-name="Path 1180" d="m248.643 4197.756-8.076 8.076a2.953 2.953 0 0 1-4.173 0l-8.3-8.3a.614.614 0 0 1 .868-.868l8.3 8.3a1.723 1.723 0 0 0 2.436 0l8.076-8.076a.614.614 0 1 1 .868.868z" style="fill:#ffb6b6" transform="translate(-172.361 -4148.604)"/>
                        </g>
                    </g>
                    <g data-name="Group 2783">
                        <g data-name="Group 2782">
                            <path data-name="Path 1181" d="m218.758 4197.727-8.076 8.077a2.955 2.955 0 0 1-4.173 0l-8.3-8.3a.614.614 0 0 1 .868-.868l8.3 8.3a1.726 1.726 0 0 0 2.436 0l8.077-8.077a.614.614 0 0 1 .868.868z" style="fill:#ffb6b6" transform="translate(-172.361 -4148.604)"/>
                        </g>
                    </g>
                    <g data-name="Group 2785">
                        <g data-name="Group 2784">
                            <path data-name="Path 1182" d="m203.811 4212.674-8.076 8.076a2.953 2.953 0 0 1-4.173 0l-4.186-4.186a.614.614 0 0 1 .868-.868l4.186 4.186a1.724 1.724 0 0 0 2.437 0l8.076-8.076a.614.614 0 0 1 .868.868z" style="fill:#ffb6b6" transform="translate(-172.361 -4148.604)"/>
                        </g>
                    </g>
                    <g data-name="Group 2787">
                        <g data-name="Group 2786">
                            <path data-name="Path 1183" d="m233.686 4182.8-8.076 8.076a2.953 2.953 0 0 1-4.173 0l-8.3-8.3a.614.614 0 1 1 .868-.868l8.3 8.3a1.724 1.724 0 0 0 2.437 0l8.076-8.076a.614.614 0 0 1 .868.868z" style="fill:#ffb6b6" transform="translate(-172.361 -4148.604)"/>
                        </g>
                    </g>
                    <g data-name="Group 2789">
                        <g data-name="Group 2788">
                            <path data-name="Path 1184" d="m203.9 4182.78-8.076 8.076a2.955 2.955 0 0 1-4.173 0l-.074-.074a.614.614 0 0 1 .868-.868l.074.074a1.726 1.726 0 0 0 2.437 0l8.076-8.076a.614.614 0 1 1 .868.868z" style="fill:#ffb6b6" transform="translate(-172.361 -4148.604)"/>
                        </g>
                    </g>
                    <g data-name="Group 2791">
                        <g data-name="Group 2790">
                            <path data-name="Path 1185" d="m218.83 4167.851-8.076 8.076a2.953 2.953 0 0 1-4.173 0l-2.222-2.221a.614.614 0 0 1 .869-.868l2.221 2.221a1.724 1.724 0 0 0 2.436 0l8.077-8.076a.614.614 0 0 1 .868.868z" style="fill:#ffb6b6" transform="translate(-172.361 -4148.604)"/>
                        </g>
                    </g>
                    <g data-name="Group 2793">
                        <g data-name="Group 2792">
                            <path data-name="Path 1186" d="m248.633 4167.852-8.076 8.076a2.953 2.953 0 0 1-4.173 0l-8.3-8.3a.614.614 0 0 1 .868-.868l8.3 8.3a1.725 1.725 0 0 0 2.437 0l8.076-8.076a.614.614 0 0 1 .868.868z" style="fill:#ffb6b6" transform="translate(-172.361 -4148.604)"/>
                        </g>
                    </g>
                    <g data-name="Group 2795">
                        <g data-name="Group 2794">
                            <path data-name="Path 1187" d="m263.6 4212.713-8.077 8.077a2.954 2.954 0 0 1-4.172 0l-8.3-8.3a.614.614 0 0 1 .868-.868l8.3 8.3a1.726 1.726 0 0 0 2.436 0l8.077-8.077a.614.614 0 0 1 .868.868z" style="fill:#ffb6b6" transform="translate(-172.361 -4148.604)"/>
                        </g>
                    </g>
                    <g data-name="Group 2797">
                        <g data-name="Group 2796">
                            <path data-name="Path 1188" d="m263.676 4242.646-8.076 8.076a2.953 2.953 0 0 1-4.173 0l-8.3-8.3a.614.614 0 1 1 .868-.868l8.3 8.3a1.725 1.725 0 0 0 2.437 0l8.076-8.076a.614.614 0 0 1 .868.868z" style="fill:#ffb6b6" transform="translate(-172.361 -4148.604)"/>
                        </g>
                    </g>
                    <g data-name="Group 2799">
                        <g data-name="Group 2798">
                            <path data-name="Path 1189" d="m278.605 4227.717-8.076 8.077a2.955 2.955 0 0 1-4.173 0l-8.3-8.3a.614.614 0 1 1 .868-.868l8.3 8.3a1.725 1.725 0 0 0 2.436 0l8.077-8.077a.614.614 0 0 1 .868.868z" style="fill:#ffb6b6" transform="translate(-172.361 -4148.604)"/>
                        </g>
                    </g>
                    <g data-name="Group 2801">
                        <g data-name="Group 2800">
                            <path data-name="Path 1190" d="m289.759 4216.563-4.329 4.33a2.955 2.955 0 0 1-4.173 0l-8.3-8.3a.614.614 0 1 1 .868-.868l8.3 8.3a1.727 1.727 0 0 0 2.437 0l4.329-4.33a.614.614 0 0 1 .868.868z" style="fill:#ffb6b6" transform="translate(-172.361 -4148.604)"/>
                        </g>
                    </g>
                    <g data-name="Group 2806">
                        <g data-name="Group 2803">
                            <g data-name="Group 2802">
                                <path data-name="Path 1191" d="m263.545 4182.855-8.077 8.076a2.952 2.952 0 0 1-4.172 0l-8.3-8.3a.614.614 0 0 1 .868-.868l8.3 8.3a1.724 1.724 0 0 0 2.436 0l8.076-8.076a.614.614 0 0 1 .869.868z" style="fill:#ffb6b6" transform="translate(-172.361 -4148.604)"/>
                            </g>
                        </g>
                        <g data-name="Group 2805">
                            <g data-name="Group 2804">
                                <path data-name="Path 1192" d="m278.5 4197.812-8.076 8.077a2.955 2.955 0 0 1-4.173 0l-8.3-8.3a.614.614 0 1 1 .868-.868l8.3 8.3a1.724 1.724 0 0 0 2.436 0l8.077-8.076a.614.614 0 1 1 .868.868z" style="fill:#ffb6b6" transform="translate(-172.361 -4148.604)"/>
                            </g>
                        </g>
                    </g>
                    <g data-name="Group 2811">
                        <g data-name="Group 2808">
                            <g data-name="Group 2807">
                                <path data-name="Path 1193" d="m272.516 4173.883-2.045 2.046a2.955 2.955 0 0 1-4.173 0l-8.3-8.3a.614.614 0 1 1 .868-.868l8.3 8.3a1.727 1.727 0 0 0 2.437 0l2.045-2.046a.614.614 0 1 1 .868.868z" style="fill:#ffb6b6" transform="translate(-172.361 -4148.604)"/>
                            </g>
                        </g>
                        <g data-name="Group 2810">
                            <g data-name="Group 2809">
                                <path data-name="Path 1194" d="m285.428 4190.886-.011.011-.009.009a2.955 2.955 0 0 1-4.153-.02l-8.3-8.3a.614.614 0 0 1 .869-.868l8.3 8.3a1.725 1.725 0 0 0 2.437 0 .614.614 0 0 1 .868.868z" style="fill:#ffb6b6" transform="translate(-172.361 -4148.604)"/>
                            </g>
                        </g>
                    </g>
                    <g data-name="Group 2813">
                        <g data-name="Group 2812">
                            <path data-name="Path 1195" d="M272.505 4251.344a.614.614 0 0 1-.047.042 58.637 58.637 0 0 1-10.239 6.938 3.2 3.2 0 0 1-3.8-.615l-.245-.245a.614.614 0 0 1 .868-.868l.245.244a1.978 1.978 0 0 0 2.349.406 57.5 57.5 0 0 0 10.051-6.811.614.614 0 0 1 .823.909z" style="fill:#ffb6b6" transform="translate(-172.361 -4148.604)"/>
                        </g>
                    </g>
                    <g data-name="Group 2815">
                        <g data-name="Group 2814">
                            <path data-name="Path 1196" d="M279.386 4244.451a2.976 2.976 0 0 1-1.866.854 3.139 3.139 0 0 1-2.471-.909l-1.836-1.837a.614.614 0 1 1 .868-.868l1.836 1.836a1.907 1.907 0 0 0 1.505.554 1.7 1.7 0 0 0 1.267-.7 63.648 63.648 0 0 0 6.059-9.595.614.614 0 1 1 1.089.566 64.6 64.6 0 0 1-6.153 9.748 2.884 2.884 0 0 1-.298.351z" style="fill:#ffb6b6" transform="translate(-172.361 -4148.604)"/>
                        </g>
                    </g>
                    <g data-name="Group 2817">
                        <g data-name="Group 2816">
                            <path data-name="Path 1197" d="m219.445 4256.8-1 1a3.12 3.12 0 0 1-3.621.582 55.282 55.282 0 0 1-11.47-7.767.614.614 0 0 1 .81-.923 54 54 0 0 0 11.215 7.6 1.894 1.894 0 0 0 2.2-.355l1-1a.614.614 0 1 1 .868.868z" style="fill:#ffb6b6" transform="translate(-172.361 -4148.604)"/>
                        </g>
                    </g>
                    <g data-name="Group 2819">
                        <g data-name="Group 2818">
                            <path data-name="Path 1198" d="m204.36 4242.076-2.523 2.523a3.189 3.189 0 0 1-4.757-.275 55.185 55.185 0 0 1-6.7-10.9.614.614 0 0 1 1.114-.517 53.869 53.869 0 0 0 6.549 10.657 1.961 1.961 0 0 0 2.925.167l2.523-2.523a.614.614 0 1 1 .868.868z" style="fill:#ffb6b6" transform="translate(-172.361 -4148.604)"/>
                        </g>
                    </g>
                    <g data-name="Group 2821">
                        <g data-name="Group 2820">
                            <path data-name="Path 1199" d="m248.571 4257.64-5.245 5.245a2.961 2.961 0 0 1-1.944.866 59.48 59.48 0 0 1-5.634.016 2.955 2.955 0 0 1-1.96-.866l-5.261-5.261a.614.614 0 0 1 .868-.868l5.261 5.261a1.733 1.733 0 0 0 1.147.508c1.829.082 3.685.076 5.517-.016a1.727 1.727 0 0 0 1.137-.508l5.246-5.245a.614.614 0 0 1 .868.868z" style="fill:#ffb6b6" transform="translate(-172.361 -4148.604)"/>
                        </g>
                    </g>
                </g>
            </g>
        </g>
    </g>
</svg>
