<svg xmlns="http://www.w3.org/2000/svg" width="126.393" height="126.393" viewBox="0 0 126.393 126.393">
    <g data-name="Group 3138">
        <g data-name="Group 3137">
            <g data-name="Group 2981">
                <g data-name="Group 2828">
                    <g data-name="Group 2827">
                        <path data-name="Path 1200" d="m273.584 4508.377 6.054-6.054-83.278-83.278-6.054 6.054c-21.966 21.966-21.13 58.415 1.867 81.412s59.445 23.832 81.411 1.866" style="fill:#5b3a00" transform="translate(-172.361 -4399.93)"/>
                        <path data-name="Path 1201" d="m282.47 4502.323-7.47 7.47a55.724 55.724 0 0 1-19.448 12.661 58 58 0 0 1-22.333 3.853 60.914 60.914 0 0 1-22.495-4.871 63.643 63.643 0 0 1-33.477-33.476 60.921 60.921 0 0 1-4.87-22.5 57.97 57.97 0 0 1 3.852-22.333 55.725 55.725 0 0 1 12.661-19.447l7.47-7.47zm-90.748-75.808a51.755 51.755 0 0 0-11.758 18.059 53.987 53.987 0 0 0-3.584 20.8 56.9 56.9 0 0 0 4.553 21.022 59.636 59.636 0 0 0 31.355 31.355 56.91 56.91 0 0 0 21.023 4.553 53.984 53.984 0 0 0 20.8-3.584 51.756 51.756 0 0 0 18.059-11.757l4.639-4.639-80.447-80.447z" style="fill:#5b3a00" transform="translate(-172.361 -4399.93)"/>
                    </g>
                </g>
                <g data-name="Group 2830">
                    <g data-name="Group 2829" transform="translate(-172.361 -4399.93)">
                        <circle data-name="Ellipse 119" cx="58.887" cy="58.887" r="58.887" transform="translate(178.979 4401.932)" style="fill:#5b3a00"/>
                        <path data-name="Path 1202" d="M280.92 4503.873a60.707 60.707 0 1 1 13.38-20.143 60.5 60.5 0 0 1-13.38 20.143zm-83.278-83.273a56.7 56.7 0 1 0 18.816-12.5 56.513 56.513 0 0 0-18.816 12.5z" style="fill:#5b3a00"/>
                    </g>
                </g>
                <g data-name="Group 2980">
                    <g data-name="Group 2879">
                        <g data-name="Group 2832">
                            <g data-name="Group 2831">
                                <path data-name="Path 1203" d="m257.352 4505.944 2.113 2.112a1.613 1.613 0 0 0 1.859.3 67.151 67.151 0 0 0 11.086-7.47 1.613 1.613 0 0 0 .11-2.383l-3.865-3.866a1.614 1.614 0 0 0-2.282 0l-9.021 9.021a1.614 1.614 0 0 0 0 2.286z" style="fill:#5b3a00" transform="translate(-172.361 -4399.93)"/>
                                <path data-name="Path 1204" d="M273.937 4502.2c-.08.08-.164.157-.252.229a69.208 69.208 0 0 1-11.469 7.719 3.61 3.61 0 0 1-4.167-.681l-2.112-2.112a3.619 3.619 0 0 1 0-5.113l9.02-9.02a3.62 3.62 0 0 1 5.114 0l3.865 3.865a3.617 3.617 0 0 1 0 5.113zm-13.255 4.238a66.594 66.594 0 0 0 10.119-6.823l-3.287-3.287-8.471 8.471z" style="fill:#5b3a00" transform="translate(-172.361 -4399.93)"/>
                            </g>
                        </g>
                        <g data-name="Group 2834">
                            <g data-name="Group 2833">
                                <path data-name="Path 1205" d="m206.689 4494.571-3.4 3.4a1.513 1.513 0 0 0 .108 2.239 78.854 78.854 0 0 0 12.181 8.27 1.434 1.434 0 0 0 1.693-.242l1.545-1.545a1.513 1.513 0 0 0 0-2.14l-9.984-9.984a1.513 1.513 0 0 0-2.143.002z" style="fill:#5b3a00" transform="translate(-172.361 -4399.93)"/>
                                <path data-name="Path 1206" d="m220.23 4508.111-1.545 1.545a3.428 3.428 0 0 1-3.992.623 79.88 79.88 0 0 1-12.571-8.521 3.516 3.516 0 0 1-.251-5.2l3.4-3.4a3.52 3.52 0 0 1 4.972 0l9.984 9.984a3.521 3.521 0 0 1 .003 4.969zm-4.082-1.581.9-.9-9.293-9.293-2.675 2.675a78.153 78.153 0 0 0 11.068 7.518z" style="fill:#5b3a00" transform="translate(-172.361 -4399.93)"/>
                            </g>
                        </g>
                        <g data-name="Group 2836">
                            <g data-name="Group 2835">
                                <path data-name="Path 1207" d="m203.875 4429.862-3.887-3.887a1.513 1.513 0 0 0-2.235.1 66.778 66.778 0 0 0-7.664 11.144 1.514 1.514 0 0 0 .286 1.744l2.2 2.2a1.515 1.515 0 0 0 2.141 0l9.161-9.161a1.513 1.513 0 0 0-.002-2.14z" style="fill:#5b3a00" transform="translate(-172.361 -4399.93)"/>
                                <path data-name="Path 1208" d="m205.291 4433.418-9.162 9.162a3.519 3.519 0 0 1-4.972 0l-2.2-2.2a3.511 3.511 0 0 1-.663-4.049 63.357 63.357 0 0 1 7.916-11.532 3.517 3.517 0 0 1 5.192-.241l3.887 3.887a3.52 3.52 0 0 1 .002 4.973zm-11.648 5.985 8.471-8.471-3.161-3.162a65.524 65.524 0 0 0-6.913 10.03z" style="fill:#5b3a00" transform="translate(-172.361 -4399.93)"/>
                            </g>
                        </g>
                        <g data-name="Group 2838">
                            <g data-name="Group 2837">
                                <path data-name="Path 1209" d="m191.751 4479.632-.8.8a1.513 1.513 0 0 0-.289 1.737 80 80 0 0 0 7.816 12.658 1.514 1.514 0 0 0 2.24.109l3.17-3.17a1.514 1.514 0 0 0 0-2.141l-9.995-10a1.513 1.513 0 0 0-2.142.007z" style="fill:#5b3a00" transform="translate(-172.361 -4399.93)"/>
                                <path data-name="Path 1210" d="m205.3 4493.183-3.17 3.171a3.518 3.518 0 0 1-5.2-.254 81.993 81.993 0 0 1-8.067-13.048 3.517 3.517 0 0 1 .671-4.034l.8-.8a3.522 3.522 0 0 1 4.972 0l9.995 10a3.52 3.52 0 0 1-.001 4.965zm-5.616-.046 2.439-2.44-9.3-9.3-.209.209a81.51 81.51 0 0 0 7.072 11.531z" style="fill:#5b3a00" transform="translate(-172.361 -4399.93)"/>
                            </g>
                        </g>
                        <g data-name="Group 2840">
                            <g data-name="Group 2839">
                                <path data-name="Path 1211" d="m272.291 4491 3.744 3.744a1.612 1.612 0 0 0 2.391-.121 67.671 67.671 0 0 0 7.077-11.479 1.733 1.733 0 0 0-.387-1.908l-1.523-1.538a1.614 1.614 0 0 0-2.282 0l-9.02 9.02a1.614 1.614 0 0 0 0 2.282z" style="fill:#5b3a00" transform="translate(-172.361 -4399.93)"/>
                                <path data-name="Path 1212" d="M279.732 4496.166a3.616 3.616 0 0 1-5.113 0l-3.744-3.744a3.622 3.622 0 0 1 0-5.114l9.021-9.02a3.619 3.619 0 0 1 5.113 0l.008.008 1.519 1.535a3.729 3.729 0 0 1 .767 4.195 69.351 69.351 0 0 1-7.322 11.865 3.685 3.685 0 0 1-.249.275zm-5.751-6.3 3.163 3.162a67.515 67.515 0 0 0 6.432-10.494l-1.125-1.137z" style="fill:#5b3a00" transform="translate(-172.361 -4399.93)"/>
                            </g>
                        </g>
                        <g data-name="Group 2842">
                            <g data-name="Group 2841">
                                <path data-name="Path 1213" d="m218.814 4414.923-2.1-2.1a1.515 1.515 0 0 0-1.733-.291 66.7 66.7 0 0 0-11.222 7.593 1.513 1.513 0 0 0-.113 2.243l3.858 3.858a1.513 1.513 0 0 0 2.14 0l9.166-9.166a1.514 1.514 0 0 0 .004-2.137z" style="fill:#5b3a00" transform="translate(-172.361 -4399.93)"/>
                                <path data-name="Path 1214" d="m220.23 4418.48-9.166 9.166a3.521 3.521 0 0 1-4.972 0l-3.858-3.858a3.517 3.517 0 0 1 .264-5.211 70.91 70.91 0 0 1 11.614-7.843 3.519 3.519 0 0 1 4.021.677l2.1 2.1a3.521 3.521 0 0 1-.003 4.969zm-11.652 5.989 8.475-8.475-1.5-1.5a65.776 65.776 0 0 0-10.1 6.85z" style="fill:#5b3a00" transform="translate(-172.361 -4399.93)"/>
                            </g>
                        </g>
                        <g data-name="Group 2844">
                            <g data-name="Group 2843">
                                <path data-name="Path 1215" d="m284.345 4441.164.834-.834a1.513 1.513 0 0 0 .288-1.739 79.276 79.276 0 0 0-8.087-12.364 1.513 1.513 0 0 0-2.239-.108l-2.921 2.921a1.513 1.513 0 0 0 0 2.14l9.984 9.984a1.515 1.515 0 0 0 2.141 0z" style="fill:#5b3a00" transform="translate(-172.361 -4399.93)"/>
                                <path data-name="Path 1216" d="m286.6 4441.746-.834.834a3.519 3.519 0 0 1-4.972 0l-9.994-9.98a3.52 3.52 0 0 1 0-4.972l2.92-2.92a3.516 3.516 0 0 1 5.2.25 80.807 80.807 0 0 1 8.339 12.754 3.517 3.517 0 0 1-.659 4.034zm-3.32-2.343.24-.24a79.19 79.19 0 0 0-7.342-11.245l-2.192 2.192z" style="fill:#5b3a00" transform="translate(-172.361 -4399.93)"/>
                            </g>
                        </g>
                        <g data-name="Group 2846">
                            <g data-name="Group 2845">
                                <path data-name="Path 1217" d="m203.875 4459.739-9.984-9.984a1.513 1.513 0 0 0-2.14 0l-6.5 6.5a1.519 1.519 0 0 0-.442.989 51.985 51.985 0 0 0-.02 5.456 1.527 1.527 0 0 0 .442 1l7.342 7.341a1.515 1.515 0 0 0 2.141 0l9.161-9.161a1.513 1.513 0 0 0 0-2.141z" style="fill:#5b3a00" transform="translate(-172.361 -4399.93)"/>
                                <path data-name="Path 1218" d="m205.291 4463.295-9.162 9.162a3.518 3.518 0 0 1-4.971 0l-7.342-7.342a3.511 3.511 0 0 1-1.026-2.317 53.818 53.818 0 0 1 .02-5.666 3.524 3.524 0 0 1 1.025-2.293l6.5-6.5a3.519 3.519 0 0 1 4.972 0l9.984 9.984a3.519 3.519 0 0 1 0 4.972zm-11.648 5.985 8.471-8.471-9.293-9.293-6.023 6.023a50.234 50.234 0 0 0-.018 4.878z" style="fill:#5b3a00" transform="translate(-172.361 -4399.93)"/>
                            </g>
                        </g>
                        <g data-name="Group 2848">
                            <g data-name="Group 2847">
                                <path data-name="Path 1219" d="m269.452 4426.271 3.557-3.556a1.514 1.514 0 0 0-.109-2.24 80.676 80.676 0 0 0-12.693-7.851 1.436 1.436 0 0 0-1.692.243l-1.362 1.363a1.369 1.369 0 0 0 .129 2.012l10.03 10.029a1.513 1.513 0 0 0 2.14 0z" style="fill:#5b3a00" transform="translate(-172.361 -4399.93)"/>
                                <path data-name="Path 1220" d="m274.424 4424.131-3.556 3.556a3.519 3.519 0 0 1-4.972 0l-10.03-10.03a3.353 3.353 0 0 1-.129-4.843l1.363-1.362a3.427 3.427 0 0 1 3.988-.626 82.1 82.1 0 0 1 13.083 8.1 3.516 3.516 0 0 1 .253 5.2zm-6.042.379 2.826-2.825a81.526 81.526 0 0 0-11.57-7.109l-.6.595z" style="fill:#5b3a00" transform="translate(-172.361 -4399.93)"/>
                            </g>
                        </g>
                        <g data-name="Group 2850">
                            <g data-name="Group 2849" transform="translate(-172.361 -4399.93)">
                                <rect data-name="Rectangle 167" width="15.984" height="17.147" rx="1.614" transform="rotate(-45 5529.818 1928.188)" style="fill:#5b3a00"/>
                                <path data-name="Path 1221" d="m279.913 4478.305-9.02 9.02a3.62 3.62 0 0 1-5.113 0l-9.843-9.843a3.619 3.619 0 0 1 0-5.113l9.02-9.02a3.619 3.619 0 0 1 5.113 0l9.843 9.842a3.62 3.62 0 0 1 0 5.114zm-11.577 5.914 8.471-8.471-9.293-9.293-8.471 8.47z" style="fill:#5b3a00"/>
                            </g>
                        </g>
                        <g data-name="Group 2852">
                            <g data-name="Group 2851">
                                <path data-name="Path 1222" d="m272.291 4461.128 9.888 9.888a1.612 1.612 0 0 0 2.282 0l6.1-6.188a1.615 1.615 0 0 0 .471-1.055 52.751 52.751 0 0 0-.066-6 1.61 1.61 0 0 0-.471-1.044l-6.9-6.9a1.611 1.611 0 0 0-2.282 0l-9.02 9.02a1.614 1.614 0 0 0-.002 2.279z" style="fill:#5b3a00" transform="translate(-172.361 -4399.93)"/>
                                <path data-name="Path 1223" d="M285.882 4472.427v.005a3.62 3.62 0 0 1-5.113 0l-9.889-9.888a3.622 3.622 0 0 1 0-5.114l9.021-9.02a3.619 3.619 0 0 1 5.113 0l6.9 6.9a3.618 3.618 0 0 1 1.053 2.339 54.392 54.392 0 0 1 .067 6.233 3.612 3.612 0 0 1-1.048 2.357zm-11.9-12.44 9.337 9.337 5.719-5.805a50.557 50.557 0 0 0-.064-5.482l-6.521-6.521z" style="fill:#5b3a00" transform="translate(-172.361 -4399.93)"/>
                            </g>
                        </g>
                        <g data-name="Group 2854">
                            <g data-name="Group 2853" transform="translate(-172.361 -4399.93)">
                                <rect data-name="Rectangle 168" width="15.984" height="17.147" rx="1.514" transform="rotate(-45 5514.88 1964.253)" style="fill:#5b3a00"/>
                                <path data-name="Path 1224" d="m250.107 4478.234-9.162 9.162a3.521 3.521 0 0 1-4.972 0l-9.984-9.984a3.521 3.521 0 0 1 0-4.973l9.162-9.161a3.52 3.52 0 0 1 4.972 0l9.984 9.984a3.519 3.519 0 0 1 0 4.972zm-11.648 5.985 8.471-8.471-9.293-9.294-8.471 8.471z" style="fill:#5b3a00"/>
                            </g>
                        </g>
                        <g data-name="Group 2856">
                            <g data-name="Group 2855">
                                <path data-name="Path 1225" d="m236.5 4494.641-9.021 9.021a1.614 1.614 0 0 0 0 2.282l7.279 7.278a1.617 1.617 0 0 0 1.066.472 51.921 51.921 0 0 0 5.3-.016 1.615 1.615 0 0 0 1.056-.471l6.441-6.441a1.612 1.612 0 0 0 0-2.282l-9.842-9.843a1.614 1.614 0 0 0-2.279 0z" style="fill:#5b3a00" transform="translate(-172.361 -4399.93)"/>
                                <path data-name="Path 1226" d="m250.036 4508.182-6.441 6.441a3.622 3.622 0 0 1-2.365 1.055 54.378 54.378 0 0 1-5.507.016 3.614 3.614 0 0 1-2.384-1.056l-7.279-7.279a3.619 3.619 0 0 1 0-5.113l9.02-9.02a3.619 3.619 0 0 1 5.113 0l9.843 9.842a3.62 3.62 0 0 1 0 5.114zm-9.168 3.5 6.062-6.062-9.293-9.293-8.471 8.471 6.9 6.9c1.591.075 3.206.07 4.802-.011z" style="fill:#5b3a00" transform="translate(-172.361 -4399.93)"/>
                            </g>
                        </g>
                        <g data-name="Group 2858">
                            <g data-name="Group 2857">
                                <path data-name="Path 1227" d="m251.434 4479.7-8.974 8.974a1.67 1.67 0 0 0-.046 2.328l9.888 9.888a1.67 1.67 0 0 0 2.328-.045l8.975-8.975a1.614 1.614 0 0 0 0-2.282l-9.889-9.888a1.614 1.614 0 0 0-2.282 0z" style="fill:#5b3a00" transform="translate(-172.361 -4399.93)"/>
                                <path data-name="Path 1228" d="m265.02 4493.289-8.974 8.974a3.652 3.652 0 0 1-5.159.046l-9.887-9.888a3.653 3.653 0 0 1 .046-5.159l8.975-8.975a3.619 3.619 0 0 1 5.113 0l9.888 9.888a3.62 3.62 0 0 1-.002 5.114zm-11.577 5.914 8.471-8.471-9.339-9.339-8.471 8.471z" style="fill:#5b3a00" transform="translate(-172.361 -4399.93)"/>
                            </g>
                        </g>
                        <g data-name="Group 2860">
                            <g data-name="Group 2859" transform="translate(-172.361 -4399.93)">
                                <rect data-name="Rectangle 169" width="15.984" height="17.147" rx="1.514" transform="rotate(-45 5525.443 1989.754)" style="fill:#5b3a00"/>
                                <path data-name="Path 1229" d="m235.168 4493.172-9.161 9.162a3.519 3.519 0 0 1-4.972 0l-9.984-9.984a3.52 3.52 0 0 1 0-4.972l9.162-9.162a3.522 3.522 0 0 1 4.972 0l9.984 9.984a3.519 3.519 0 0 1-.001 4.972zm-11.647 5.985 8.471-8.471-9.294-9.293-8.471 8.471z" style="fill:#5b3a00"/>
                            </g>
                        </g>
                        <g data-name="Group 2862">
                            <g data-name="Group 2861" transform="translate(-172.361 -4399.93)">
                                <rect data-name="Rectangle 170" width="15.984" height="17.147" rx="1.514" transform="rotate(-45 5499.94 2000.318)" style="fill:#5b3a00"/>
                                <path data-name="Path 1230" d="m220.23 4478.234-9.162 9.162a3.521 3.521 0 0 1-4.972 0l-9.984-9.985a3.518 3.518 0 0 1 0-4.971l9.162-9.162a3.52 3.52 0 0 1 4.972 0l9.984 9.984a3.521 3.521 0 0 1 0 4.972zm-11.648 5.985 8.471-8.471-9.293-9.293-8.471 8.47z" style="fill:#5b3a00"/>
                            </g>
                        </g>
                        <g data-name="Group 2864">
                            <g data-name="Group 2863" transform="translate(-172.361 -4399.93)">
                                <rect data-name="Rectangle 171" width="15.984" height="17.147" rx="1.514" transform="rotate(-45 5489.379 1974.816)" style="fill:#5b3a00"/>
                                <path data-name="Path 1231" d="m235.168 4463.295-9.161 9.162a3.519 3.519 0 0 1-4.972 0l-9.985-9.984a3.52 3.52 0 0 1 0-4.972l9.161-9.162a3.519 3.519 0 0 1 4.972 0l9.984 9.984a3.519 3.519 0 0 1 .001 4.972zm-11.647 5.985 8.471-8.471-9.294-9.293-8.471 8.471z" style="fill:#5b3a00"/>
                            </g>
                        </g>
                        <g data-name="Group 2866">
                            <g data-name="Group 2865" transform="translate(-172.361 -4399.93)">
                                <rect data-name="Rectangle 172" width="15.984" height="17.147" rx="1.514" transform="rotate(-45 5453.314 1959.877)" style="fill:#5b3a00"/>
                                <path data-name="Path 1232" d="m235.168 4433.418-9.161 9.162a3.519 3.519 0 0 1-4.972 0l-9.984-9.984a3.52 3.52 0 0 1 0-4.972l9.162-9.162a3.519 3.519 0 0 1 4.972 0l9.984 9.984a3.52 3.52 0 0 1-.001 4.972zm-11.647 5.985 8.471-8.471-9.294-9.293-8.471 8.471z" style="fill:#5b3a00"/>
                            </g>
                        </g>
                        <g data-name="Group 2868">
                            <g data-name="Group 2867">
                                <path data-name="Path 1233" d="m233.606 4407.9-6.2 6.2a1.514 1.514 0 0 0 0 2.141l10.028 9.984a1.515 1.515 0 0 0 2.141 0l9.161-9.162a1.514 1.514 0 0 0 0-2.141l-7.051-7.007a1.518 1.518 0 0 0-.98-.441 51.74 51.74 0 0 0-6.11-.016 1.51 1.51 0 0 0-.989.442z" style="fill:#5b3a00" transform="translate(-172.361 -4399.93)"/>
                                <path data-name="Path 1234" d="m250.151 4418.48-9.162 9.161a3.519 3.519 0 0 1-4.972 0l-10.025-9.981a3.52 3.52 0 0 1 0-4.975l6.2-6.2a3.512 3.512 0 0 1 2.292-1.024 53.934 53.934 0 0 1 6.345.017 3.52 3.52 0 0 1 2.273 1.023l7.046 7a3.521 3.521 0 0 1 .003 4.979zm-11.307 6.326zm-.342-.341 8.471-8.47-6.573-6.532a49.876 49.876 0 0 0-5.511-.015l-5.723 5.723zm1.771-15.129z" style="fill:#5b3a00" transform="translate(-172.361 -4399.93)"/>
                            </g>
                        </g>
                        <g data-name="Group 2870">
                            <g data-name="Group 2869" transform="translate(-172.361 -4399.93)">
                                <rect data-name="Rectangle 173" width="15.984" height="17.147" rx="1.514" transform="rotate(-45 5493.754 1913.249)" style="fill:#5b3a00"/>
                                <path data-name="Path 1235" d="m279.984 4448.357-9.162 9.161a3.519 3.519 0 0 1-4.972 0l-9.984-9.984a3.52 3.52 0 0 1 0-4.972l9.162-9.161a3.519 3.519 0 0 1 4.972 0l9.984 9.984a3.52 3.52 0 0 1 0 4.972zm-11.648 5.985 8.471-8.471-9.293-9.294-8.471 8.471z" style="fill:#5b3a00"/>
                            </g>
                        </g>
                        <g data-name="Group 2872">
                            <g data-name="Group 2871" transform="translate(-172.361 -4399.93)">
                                <rect data-name="Rectangle 174" width="15.984" height="17.147" rx="1.514" transform="rotate(-45 5463.876 1985.38)" style="fill:#5b3a00"/>
                                <path data-name="Path 1236" d="m220.23 4448.357-9.162 9.161a3.52 3.52 0 0 1-4.972 0l-9.984-9.985a3.52 3.52 0 0 1 0-4.972l9.162-9.161a3.519 3.519 0 0 1 4.972 0l9.984 9.984a3.52 3.52 0 0 1 0 4.973zm-11.648 5.985 8.471-8.471-9.293-9.294-8.471 8.471z" style="fill:#5b3a00"/>
                            </g>
                        </g>
                        <g data-name="Group 2874">
                            <g data-name="Group 2873" transform="translate(-172.361 -4399.93)">
                                <rect data-name="Rectangle 175" width="15.984" height="17.147" rx="1.514" transform="rotate(-45 5478.815 1949.315)" style="fill:#5b3a00"/>
                                <path data-name="Path 1237" d="m250.107 4448.357-9.162 9.161a3.519 3.519 0 0 1-4.972 0l-9.984-9.984a3.52 3.52 0 0 1 0-4.972l9.162-9.161a3.519 3.519 0 0 1 4.972 0l9.984 9.984a3.52 3.52 0 0 1 0 4.972zm-11.648 5.985 8.471-8.471-9.293-9.294-8.471 8.471z" style="fill:#5b3a00"/>
                            </g>
                        </g>
                        <g data-name="Group 2876">
                            <g data-name="Group 2875" transform="translate(-172.361 -4399.93)">
                                <rect data-name="Rectangle 176" width="15.984" height="17.147" rx="1.514" transform="rotate(-45 5504.317 1938.751)" style="fill:#5b3a00"/>
                                <path data-name="Path 1238" d="m265.045 4463.295-9.161 9.162a3.519 3.519 0 0 1-4.972 0l-9.984-9.984a3.52 3.52 0 0 1 0-4.972l9.161-9.162a3.519 3.519 0 0 1 4.972 0l9.984 9.984a3.519 3.519 0 0 1 0 4.972zm-11.645 5.985 8.471-8.471-9.294-9.293-8.471 8.471z" style="fill:#5b3a00"/>
                            </g>
                        </g>
                        <g data-name="Group 2878">
                            <g data-name="Group 2877" transform="translate(-172.361 -4399.93)">
                                <rect data-name="Rectangle 177" width="15.984" height="17.147" rx="1.514" transform="rotate(-45 5468.252 1923.813)" style="fill:#5b3a00"/>
                                <path data-name="Path 1239" d="m265.045 4433.418-9.161 9.162a3.519 3.519 0 0 1-4.972 0l-9.984-9.984a3.52 3.52 0 0 1 0-4.972l9.161-9.162a3.519 3.519 0 0 1 4.972 0l9.984 9.984a3.52 3.52 0 0 1 0 4.972zM253.4 4439.4l8.471-8.471-9.294-9.293-8.471 8.471z" style="fill:#5b3a00"/>
                            </g>
                        </g>
                    </g>
                    <g data-name="Group 2928">
                        <g data-name="Group 2881">
                            <g data-name="Group 2880">
                                <path data-name="Path 1240" d="m258.232 4506.829 1.243 1.242a1.611 1.611 0 0 0 1.859.305 51.4 51.4 0 0 0 11.151-7.523l-3-3a1.614 1.614 0 0 0-2.282 0z" style="fill:#5b3a00" transform="translate(-172.361 -4399.93)"/>
                                <path data-name="Path 1241" d="m275.4 4500.942-1.594 1.41a53.418 53.418 0 0 1-11.585 7.816 3.61 3.61 0 0 1-4.167-.681l-2.659-2.658 10.39-10.389a3.619 3.619 0 0 1 5.113 0zm-13.141 4.686a49.462 49.462 0 0 0 7.268-4.9l-1.186-1.185z" style="fill:#5b3a00" transform="translate(-172.361 -4399.93)"/>
                            </g>
                        </g>
                        <g data-name="Group 2883">
                            <g data-name="Group 2882">
                                <path data-name="Path 1242" d="m207.522 4497.785-3.193 3.192a51.369 51.369 0 0 0 11.257 7.521 1.514 1.514 0 0 0 1.739-.288l1.381-1.381-9.044-9.044a1.511 1.511 0 0 0-2.14 0z" style="fill:#5b3a00" transform="translate(-172.361 -4399.93)"/>
                                <path data-name="Path 1243" d="m221.538 4506.829-2.8 2.8a3.516 3.516 0 0 1-4.038.669 53.422 53.422 0 0 1-11.7-7.814l-1.6-1.41 4.7-4.7a3.519 3.519 0 0 1 4.972 0zm-14.25-5.979a49.408 49.408 0 0 0 7.7 5.093l-6.4-6.4z" style="fill:#5b3a00" transform="translate(-172.361 -4399.93)"/>
                            </g>
                        </g>
                        <g data-name="Group 2885">
                            <g data-name="Group 2884">
                                <path data-name="Path 1244" d="m203.768 4432.136-2.947-2.947a1.514 1.514 0 0 0-2.236.1 51.344 51.344 0 0 0-6.951 10.939l.949.949a1.515 1.515 0 0 0 2.141 0z" style="fill:#5b3a00" transform="translate(-172.361 -4399.93)"/>
                                <path data-name="Path 1245" d="m206.6 4432.136-10.46 10.46a3.521 3.521 0 0 1-4.972 0l-1.943-1.943.6-1.273a53.386 53.386 0 0 1 7.222-11.366 3.516 3.516 0 0 1 5.192-.241zm-11.622 5.959 5.959-5.959-1.15-1.151a49.488 49.488 0 0 0-4.81 7.115z" style="fill:#5b3a00" transform="translate(-172.361 -4399.93)"/>
                            </g>
                        </g>
                        <g data-name="Group 2887">
                            <g data-name="Group 2886">
                                <path data-name="Path 1246" d="m192.583 4482.846-1.056 1.056a51.26 51.26 0 0 0 6.9 10.978 1.512 1.512 0 0 0 2.239.108l3.1-3.1-9.044-9.044a1.514 1.514 0 0 0-2.139.002z" style="fill:#5b3a00" transform="translate(-172.361 -4399.93)"/>
                                <path data-name="Path 1247" d="m206.6 4491.89-4.514 4.514a3.515 3.515 0 0 1-5.2-.253 53.356 53.356 0 0 1-7.172-11.407l-.589-1.269 2.045-2.045a3.521 3.521 0 0 1 4.972 0zm-6.963 1.3 1.3-1.3-6.362-6.362a49.391 49.391 0 0 0 5.061 7.662z" style="fill:#5b3a00" transform="translate(-172.361 -4399.93)"/>
                            </g>
                        </g>
                        <g data-name="Group 2889">
                            <g data-name="Group 2888">
                                <path data-name="Path 1248" d="m273.17 4491.89 2.875 2.875a1.612 1.612 0 0 0 2.391-.121 51.309 51.309 0 0 0 6.794-10.923l-.8-.8a1.614 1.614 0 0 0-2.282 0z" style="fill:#5b3a00" transform="translate(-172.361 -4399.93)"/>
                                <path data-name="Path 1249" d="M279.742 4496.182a3.616 3.616 0 0 1-5.113 0l-4.29-4.29 10.389-10.389a3.619 3.619 0 0 1 5.113 0l1.789 1.789-.581 1.266a53.364 53.364 0 0 1-7.058 11.35 3.6 3.6 0 0 1-.249.274zM276 4491.89l1.153 1.153a49.506 49.506 0 0 0 4.629-6.935z" style="fill:#5b3a00" transform="translate(-172.361 -4399.93)"/>
                            </g>
                        </g>
                        <g data-name="Group 2891">
                            <g data-name="Group 2890">
                                <path data-name="Path 1250" d="m218.706 4417.2-1.156-1.156a1.514 1.514 0 0 0-1.732-.291 51.343 51.343 0 0 0-11.31 7.478l3.014 3.013a1.512 1.512 0 0 0 2.14 0z" style="fill:#5b3a00" transform="translate(-172.361 -4399.93)"/>
                                <path data-name="Path 1251" d="m221.538 4417.2-10.46 10.46a3.52 3.52 0 0 1-4.972 0l-4.531-4.531 1.619-1.408a53.444 53.444 0 0 1 11.75-7.77 3.52 3.52 0 0 1 4.022.677zm-12.946 7.283 5.661-5.66a49.514 49.514 0 0 0-6.779 4.543z" style="fill:#5b3a00" transform="translate(-172.361 -4399.93)"/>
                            </g>
                        </g>
                        <g data-name="Group 2893">
                            <g data-name="Group 2892">
                                <path data-name="Path 1252" d="m284.367 4441.168.757-.757a51.267 51.267 0 0 0-6.912-10.97 1.514 1.514 0 0 0-2.239-.108l-2.8 2.8 9.033 9.032a1.529 1.529 0 0 0 2.161.003z" style="fill:#5b3a00" transform="translate(-172.361 -4399.93)"/>
                                <path data-name="Path 1253" d="m287.53 4440.836-1.747 1.748a3.538 3.538 0 0 1-5 0l-10.448-10.448 4.218-4.218a3.516 3.516 0 0 1 5.2.251 53.378 53.378 0 0 1 7.182 11.4zm-11.528-8.7 5.353 5.353a49.557 49.557 0 0 0-4.349-6.358z" style="fill:#5b3a00" transform="translate(-172.361 -4399.93)"/>
                            </g>
                        </g>
                        <g data-name="Group 2895">
                            <g data-name="Group 2894">
                                <path data-name="Path 1254" d="m203.768 4462.013-9.044-9.044a1.514 1.514 0 0 0-2.141 0l-5.312 5.312a1.52 1.52 0 0 0-.442.989 51.9 51.9 0 0 0 .013 6.046l5.741 5.741a1.515 1.515 0 0 0 2.141 0z" style="fill:#5b3a00" transform="translate(-172.361 -4399.93)"/>
                                <path data-name="Path 1255" d="m206.6 4462.013-10.46 10.46a3.519 3.519 0 0 1-4.972 0l-6.278-6.278-.046-.758a54.344 54.344 0 0 1-.013-6.279 3.517 3.517 0 0 1 1.025-2.292l5.312-5.313a3.519 3.519 0 0 1 4.972 0zm-12.946 7.283 7.284-7.283-7.284-7.283-4.835 4.835a49.916 49.916 0 0 0-.017 4.878z" style="fill:#5b3a00" transform="translate(-172.361 -4399.93)"/>
                            </g>
                        </g>
                        <g data-name="Group 2897">
                            <g data-name="Group 2896">
                                <path data-name="Path 1256" d="m269.417 4426.241 2.89-2.89a51.4 51.4 0 0 0-11.267-7.513 1.515 1.515 0 0 0-1.738.289l-1.07 1.07 9.044 9.044a1.513 1.513 0 0 0 2.141 0z" style="fill:#5b3a00" transform="translate(-172.361 -4399.93)"/>
                                <path data-name="Path 1257" d="m275.235 4423.255-4.4 4.4a3.52 3.52 0 0 1-4.972 0L255.4 4417.2l2.486-2.486a3.519 3.519 0 0 1 4.035-.671 53.5 53.5 0 0 1 11.706 7.805zm-6.889 1.225 1-1a49.517 49.517 0 0 0-6.319-4.318z" style="fill:#5b3a00" transform="translate(-172.361 -4399.93)"/>
                            </g>
                        </g>
                        <g data-name="Group 2899">
                            <g data-name="Group 2898">
                                <path data-name="Path 1258" d="m267.2 4467.978-8.973 8.974 8.973 8.973a1.613 1.613 0 0 0 2.282 0l8.974-8.973-8.974-8.974a1.614 1.614 0 0 0-2.282 0z" style="fill:#5b3a00" transform="translate(-172.361 -4399.93)"/>
                                <path data-name="Path 1259" d="m281.292 4476.952-10.392 10.389a3.62 3.62 0 0 1-5.113 0l-10.39-10.389 10.39-10.39a3.62 3.62 0 0 1 5.113 0zm-12.946 7.283 7.283-7.283-7.283-7.284-7.283 7.284z" style="fill:#5b3a00" transform="translate(-172.361 -4399.93)"/>
                            </g>
                        </g>
                        <g data-name="Group 2901">
                            <g data-name="Group 2900">
                                <path data-name="Path 1260" d="m273.17 4462.013 8.974 8.973a1.611 1.611 0 0 0 2.282 0l4.954-4.954a1.62 1.62 0 0 0 .471-1.056 51.868 51.868 0 0 0-.062-6.573l-5.363-5.363a1.612 1.612 0 0 0-2.282 0z" style="fill:#5b3a00" transform="translate(-172.361 -4399.93)"/>
                                <path data-name="Path 1261" d="m290.8 4467.448-4.955 4.954a3.619 3.619 0 0 1-5.113 0l-10.389-10.389 10.389-10.389a3.619 3.619 0 0 1 5.113 0l5.891 5.89.054.743a54 54 0 0 1 .064 6.827 3.617 3.617 0 0 1-1.054 2.364zm-7.511 1.848 4.574-4.575a50.022 50.022 0 0 0-.018-5.435l-4.556-4.556-7.289 7.283z" style="fill:#5b3a00" transform="translate(-172.361 -4399.93)"/>
                            </g>
                        </g>
                        <g data-name="Group 2903">
                            <g data-name="Group 2902">
                                <path data-name="Path 1262" d="m239.539 4486 9.045-9.044-9.045-9.045a1.513 1.513 0 0 0-2.14 0l-9.044 9.045L237.4 4486a1.513 1.513 0 0 0 2.139 0z" style="fill:#5b3a00" transform="translate(-172.361 -4399.93)"/>
                                <path data-name="Path 1263" d="m251.415 4476.952-10.46 10.459a3.519 3.519 0 0 1-4.972 0l-10.46-10.459 10.46-10.46a3.519 3.519 0 0 1 4.972 0zm-12.946 7.283 7.283-7.283-7.283-7.283-7.283 7.283z" style="fill:#5b3a00" transform="translate(-172.361 -4399.93)"/>
                            </g>
                        </g>
                        <g data-name="Group 2905">
                            <g data-name="Group 2904">
                                <path data-name="Path 1264" d="m237.328 4497.855-8.973 8.974 6.409 6.409a1.62 1.62 0 0 0 1.066.472 52.042 52.042 0 0 0 5.3-.016 1.615 1.615 0 0 0 1.057-.471l6.4-6.394-8.974-8.974a1.614 1.614 0 0 0-2.285 0z" style="fill:#5b3a00" transform="translate(-172.361 -4399.93)"/>
                                <path data-name="Path 1265" d="m251.415 4506.829-7.81 7.81a3.613 3.613 0 0 1-2.365 1.054 54.1 54.1 0 0 1-5.507.016 3.608 3.608 0 0 1-2.384-1.055l-7.826-7.825 10.389-10.389a3.62 3.62 0 0 1 5.114 0zm-10.537 4.874 4.874-4.874-7.283-7.283-7.283 7.283 4.888 4.888c1.593.072 3.208.067 4.804-.017z" style="fill:#5b3a00" transform="translate(-172.361 -4399.93)"/>
                            </g>
                        </g>
                        <g data-name="Group 2907">
                            <g data-name="Group 2906">
                                <path data-name="Path 1266" d="m252.267 4482.917-8.974 8.973 8.974 8.974a1.613 1.613 0 0 0 2.282 0l8.973-8.974-8.973-8.973a1.614 1.614 0 0 0-2.282 0z" style="fill:#5b3a00" transform="translate(-172.361 -4399.93)"/>
                                <path data-name="Path 1267" d="m266.353 4491.89-10.389 10.389a3.619 3.619 0 0 1-5.113 0l-10.389-10.389 10.389-10.389a3.619 3.619 0 0 1 5.113 0zm-12.945 7.283 7.283-7.283-7.283-7.283-7.283 7.283z" style="fill:#5b3a00" transform="translate(-172.361 -4399.93)"/>
                            </g>
                        </g>
                        <g data-name="Group 2909">
                            <g data-name="Group 2908">
                                <path data-name="Path 1268" d="m224.6 4500.934 9.044-9.044-9.044-9.044a1.514 1.514 0 0 0-2.141 0l-9.044 9.044 9.044 9.044a1.515 1.515 0 0 0 2.141 0z" style="fill:#5b3a00" transform="translate(-172.361 -4399.93)"/>
                                <path data-name="Path 1269" d="m236.476 4491.89-10.459 10.46a3.519 3.519 0 0 1-4.972 0l-10.46-10.46 10.46-10.46a3.521 3.521 0 0 1 4.972 0zm-12.945 7.283 7.283-7.283-7.283-7.283-7.283 7.283z" style="fill:#5b3a00" transform="translate(-172.361 -4399.93)"/>
                            </g>
                        </g>
                        <g data-name="Group 2911">
                            <g data-name="Group 2910">
                                <path data-name="Path 1270" d="m207.522 4467.907-9.044 9.045 9.044 9.044a1.513 1.513 0 0 0 2.14 0l9.044-9.044-9.044-9.045a1.513 1.513 0 0 0-2.14 0z" style="fill:#5b3a00" transform="translate(-172.361 -4399.93)"/>
                                <path data-name="Path 1271" d="m221.538 4476.952-10.46 10.459a3.519 3.519 0 0 1-4.972 0l-10.46-10.459 10.46-10.46a3.519 3.519 0 0 1 4.972 0zm-12.946 7.283 7.283-7.283-7.283-7.284-7.283 7.284z" style="fill:#5b3a00" transform="translate(-172.361 -4399.93)"/>
                            </g>
                        </g>
                        <g data-name="Group 2913">
                            <g data-name="Group 2912">
                                <path data-name="Path 1272" d="m222.46 4452.969-9.044 9.044 9.044 9.044a1.515 1.515 0 0 0 2.141 0l9.044-9.044-9.044-9.044a1.514 1.514 0 0 0-2.141 0z" style="fill:#5b3a00" transform="translate(-172.361 -4399.93)"/>
                                <path data-name="Path 1273" d="m236.476 4462.013-10.459 10.46a3.519 3.519 0 0 1-4.972 0l-10.46-10.46 10.46-10.46a3.519 3.519 0 0 1 4.972 0zm-12.945 7.283 7.283-7.283-7.283-7.283-7.284 7.283z" style="fill:#5b3a00" transform="translate(-172.361 -4399.93)"/>
                            </g>
                        </g>
                        <g data-name="Group 2915">
                            <g data-name="Group 2914">
                                <path data-name="Path 1274" d="m224.6 4441.18 9.044-9.044-9.044-9.044a1.515 1.515 0 0 0-2.141 0l-9.044 9.044 9.044 9.044a1.515 1.515 0 0 0 2.141 0z" style="fill:#5b3a00" transform="translate(-172.361 -4399.93)"/>
                                <path data-name="Path 1275" d="m236.476 4432.136-10.459 10.46a3.521 3.521 0 0 1-4.972 0l-10.46-10.46 10.46-10.46a3.52 3.52 0 0 1 4.972 0zm-12.945 7.283 7.283-7.283-7.283-7.283-7.283 7.283z" style="fill:#5b3a00" transform="translate(-172.361 -4399.93)"/>
                            </g>
                        </g>
                        <g data-name="Group 2917">
                            <g data-name="Group 2916">
                                <path data-name="Path 1276" d="m234.438 4411.114-6.083 6.083 9.044 9.044a1.512 1.512 0 0 0 2.14 0l9.045-9.044-6.068-6.067a1.518 1.518 0 0 0-.98-.441 51.74 51.74 0 0 0-6.11-.016 1.514 1.514 0 0 0-.988.441z" style="fill:#5b3a00" transform="translate(-172.361 -4399.93)"/>
                                <path data-name="Path 1277" d="m251.415 4417.2-10.46 10.46a3.52 3.52 0 0 1-4.972 0l-10.46-10.46 7.5-7.5a3.517 3.517 0 0 1 2.292-1.024 54.04 54.04 0 0 1 6.345.017 3.518 3.518 0 0 1 2.273 1.023zm-12.946 7.283 7.283-7.283-4.521-4.521a50.081 50.081 0 0 0-5.509-.014l-4.536 4.535z" style="fill:#5b3a00" transform="translate(-172.361 -4399.93)"/>
                            </g>
                        </g>
                        <g data-name="Group 2919">
                            <g data-name="Group 2918">
                                <path data-name="Path 1278" d="m269.417 4456.119 9.044-9.045-9.044-9.044a1.515 1.515 0 0 0-2.141 0l-9.044 9.044 9.044 9.045a1.515 1.515 0 0 0 2.141 0z" style="fill:#5b3a00" transform="translate(-172.361 -4399.93)"/>
                                <path data-name="Path 1279" d="m281.292 4447.074-10.46 10.46a3.52 3.52 0 0 1-4.972 0l-10.46-10.46 10.46-10.459a3.519 3.519 0 0 1 4.972 0zm-12.946 7.284 7.283-7.284-7.283-7.283-7.283 7.283z" style="fill:#5b3a00" transform="translate(-172.361 -4399.93)"/>
                            </g>
                        </g>
                        <g data-name="Group 2921">
                            <g data-name="Group 2920">
                                <path data-name="Path 1280" d="m209.662 4456.119 9.044-9.045-9.044-9.044a1.513 1.513 0 0 0-2.14 0l-9.044 9.044 9.044 9.045a1.513 1.513 0 0 0 2.14 0z" style="fill:#5b3a00" transform="translate(-172.361 -4399.93)"/>
                                <path data-name="Path 1281" d="m221.538 4447.074-10.46 10.46a3.52 3.52 0 0 1-4.972 0l-10.46-10.46 10.46-10.459a3.519 3.519 0 0 1 4.972 0zm-12.946 7.284 7.283-7.284-7.283-7.283-7.283 7.283z" style="fill:#5b3a00" transform="translate(-172.361 -4399.93)"/>
                            </g>
                        </g>
                        <g data-name="Group 2923">
                            <g data-name="Group 2922">
                                <path data-name="Path 1282" d="m237.4 4438.03-9.044 9.044 9.044 9.045a1.513 1.513 0 0 0 2.14 0l9.045-9.045-9.045-9.044a1.513 1.513 0 0 0-2.14 0z" style="fill:#5b3a00" transform="translate(-172.361 -4399.93)"/>
                                <path data-name="Path 1283" d="m251.415 4447.074-10.46 10.46a3.52 3.52 0 0 1-4.972 0l-10.46-10.46 10.46-10.459a3.519 3.519 0 0 1 4.972 0zm-12.946 7.283 7.283-7.283-7.283-7.283-7.283 7.283z" style="fill:#5b3a00" transform="translate(-172.361 -4399.93)"/>
                            </g>
                        </g>
                        <g data-name="Group 2925">
                            <g data-name="Group 2924">
                                <path data-name="Path 1284" d="m254.478 4471.057 9.044-9.044-9.044-9.044a1.514 1.514 0 0 0-2.141 0l-9.044 9.044 9.044 9.044a1.515 1.515 0 0 0 2.141 0z" style="fill:#5b3a00" transform="translate(-172.361 -4399.93)"/>
                                <path data-name="Path 1285" d="m266.353 4462.013-10.459 10.46a3.519 3.519 0 0 1-4.972 0l-10.46-10.46 10.46-10.46a3.519 3.519 0 0 1 4.972 0zm-12.945 7.283 7.283-7.283-7.283-7.283-7.283 7.283z" style="fill:#5b3a00" transform="translate(-172.361 -4399.93)"/>
                            </g>
                        </g>
                        <g data-name="Group 2927">
                            <g data-name="Group 2926">
                                <path data-name="Path 1286" d="m252.337 4423.092-9.044 9.044 9.044 9.044a1.515 1.515 0 0 0 2.141 0l9.044-9.044-9.044-9.044a1.515 1.515 0 0 0-2.141 0z" style="fill:#5b3a00" transform="translate(-172.361 -4399.93)"/>
                                <path data-name="Path 1287" d="m266.353 4432.136-10.459 10.46a3.522 3.522 0 0 1-4.972 0l-10.46-10.46 10.46-10.46a3.52 3.52 0 0 1 4.972 0zm-12.945 7.283 7.283-7.283-7.283-7.283-7.283 7.283z" style="fill:#5b3a00" transform="translate(-172.361 -4399.93)"/>
                            </g>
                        </g>
                    </g>
                    <g data-name="Group 2933">
                        <g data-name="Group 2930">
                            <g data-name="Group 2929">
                                <path data-name="Path 1288" d="m218.723 4479-8.076 8.076a2.955 2.955 0 0 1-4.173 0l-8.3-8.3a.614.614 0 1 1 .869-.868l8.3 8.3a1.725 1.725 0 0 0 2.437 0l8.076-8.076a.614.614 0 1 1 .868.868z" style="fill:#5b3a00" transform="translate(-172.361 -4399.93)"/>
                                <path data-name="Path 1289" d="m220.139 4480.417-8.076 8.077a4.959 4.959 0 0 1-7 0l-8.3-8.3a2.616 2.616 0 1 1 3.7-3.7l8.1 8.1 7.879-7.879a2.616 2.616 0 1 1 3.7 3.7z" style="fill:#5b3a00" transform="translate(-172.361 -4399.93)"/>
                            </g>
                        </g>
                        <g data-name="Group 2932">
                            <g data-name="Group 2931">
                                <path data-name="Path 1290" d="m233.681 4493.959-8.077 8.076a2.952 2.952 0 0 1-4.172 0l-8.3-8.3a.614.614 0 1 1 .868-.868l8.3 8.3a1.724 1.724 0 0 0 2.436 0l8.077-8.076a.614.614 0 0 1 .868.868z" style="fill:#5b3a00" transform="translate(-172.361 -4399.93)"/>
                                <path data-name="Path 1291" d="m235.1 4495.375-8.076 8.076a4.959 4.959 0 0 1-7 0l-8.3-8.3a2.616 2.616 0 1 1 3.7-3.7l8.1 8.1 7.879-7.879a2.616 2.616 0 1 1 3.7 3.7z" style="fill:#5b3a00" transform="translate(-172.361 -4399.93)"/>
                            </g>
                        </g>
                    </g>
                    <g data-name="Group 2935">
                        <g data-name="Group 2934">
                            <path data-name="Path 1292" d="m233.67 4464.055-8.076 8.076a2.953 2.953 0 0 1-4.173 0l-8.3-8.3a.614.614 0 0 1 .868-.868l8.3 8.3a1.725 1.725 0 0 0 2.437 0l8.076-8.076a.614.614 0 0 1 .868.868z" style="fill:#5b3a00" transform="translate(-172.361 -4399.93)"/>
                            <path data-name="Path 1293" d="m235.086 4465.471-8.076 8.076a4.958 4.958 0 0 1-7 0l-8.3-8.3a2.616 2.616 0 0 1 3.7-3.7l8.1 8.1 7.878-7.879a2.616 2.616 0 1 1 3.7 3.7z" style="fill:#5b3a00" transform="translate(-172.361 -4399.93)"/>
                        </g>
                    </g>
                    <g data-name="Group 2937">
                        <g data-name="Group 2936">
                            <path data-name="Path 1294" d="m248.627 4479.012-8.076 8.076a2.953 2.953 0 0 1-4.173 0l-8.3-8.3a.614.614 0 0 1 .869-.868l8.3 8.3a1.725 1.725 0 0 0 2.437 0l8.076-8.076a.614.614 0 0 1 .868.868z" style="fill:#5b3a00" transform="translate(-172.361 -4399.93)"/>
                            <path data-name="Path 1295" d="m250.043 4480.428-8.076 8.076a4.958 4.958 0 0 1-7 0l-8.3-8.3a2.616 2.616 0 0 1 3.7-3.7l8.1 8.1 7.879-7.879a2.616 2.616 0 1 1 3.7 3.7z" style="fill:#5b3a00" transform="translate(-172.361 -4399.93)"/>
                        </g>
                    </g>
                    <g data-name="Group 2939">
                        <g data-name="Group 2938">
                            <path data-name="Path 1296" d="m248.6 4449.126-8.077 8.077a2.954 2.954 0 0 1-4.172 0l-8.3-8.3a.614.614 0 0 1 .868-.868l8.3 8.3a1.726 1.726 0 0 0 2.436 0l8.077-8.077a.614.614 0 0 1 .868.868z" style="fill:#5b3a00" transform="translate(-172.361 -4399.93)"/>
                            <path data-name="Path 1297" d="m250.014 4450.542-8.076 8.076a4.959 4.959 0 0 1-7 0l-8.3-8.3a2.615 2.615 0 1 1 3.7-3.7l8.1 8.1 7.879-7.879a2.616 2.616 0 1 1 3.7 3.7z" style="fill:#5b3a00" transform="translate(-172.361 -4399.93)"/>
                        </g>
                    </g>
                    <g data-name="Group 2941">
                        <g data-name="Group 2940">
                            <path data-name="Path 1298" d="m218.713 4449.1-8.076 8.076a2.954 2.954 0 0 1-4.173 0l-8.3-8.3a.614.614 0 1 1 .868-.868l8.3 8.3a1.725 1.725 0 0 0 2.437 0l8.076-8.076a.614.614 0 0 1 .868.868z" style="fill:#5b3a00" transform="translate(-172.361 -4399.93)"/>
                            <path data-name="Path 1299" d="m220.129 4450.513-8.077 8.077a4.958 4.958 0 0 1-7 0l-8.3-8.3a2.616 2.616 0 0 1 3.7-3.7l8.1 8.1 7.879-7.879a2.616 2.616 0 0 1 3.7 3.7z" style="fill:#5b3a00" transform="translate(-172.361 -4399.93)"/>
                        </g>
                    </g>
                    <g data-name="Group 2943">
                        <g data-name="Group 2942">
                            <path data-name="Path 1300" d="m203.766 4464.044-8.076 8.077a2.955 2.955 0 0 1-4.173 0l-4.186-4.186a.614.614 0 1 1 .868-.868l4.186 4.186a1.727 1.727 0 0 0 2.437 0l8.076-8.077a.614.614 0 0 1 .868.868z" style="fill:#5b3a00" transform="translate(-172.361 -4399.93)"/>
                            <path data-name="Path 1301" d="m205.182 4465.46-8.076 8.076a4.96 4.96 0 0 1-7.005 0l-4.186-4.186a2.616 2.616 0 1 1 3.7-3.7l3.989 3.989 7.878-7.879a2.616 2.616 0 0 1 3.7 3.7z" style="fill:#5b3a00" transform="translate(-172.361 -4399.93)"/>
                        </g>
                    </g>
                    <g data-name="Group 2945">
                        <g data-name="Group 2944">
                            <path data-name="Path 1302" d="m233.641 4434.169-8.076 8.077a2.955 2.955 0 0 1-4.173 0l-8.3-8.3a.615.615 0 0 1 .869-.869l8.3 8.3a1.725 1.725 0 0 0 2.437 0l8.076-8.076a.614.614 0 0 1 .868.868z" style="fill:#5b3a00" transform="translate(-172.361 -4399.93)"/>
                            <path data-name="Path 1303" d="m235.057 4435.585-8.076 8.076a4.959 4.959 0 0 1-7 0l-8.3-8.3a2.615 2.615 0 0 1 3.7-3.7l8.1 8.1 7.879-7.879a2.616 2.616 0 0 1 3.7 3.7z" style="fill:#5b3a00" transform="translate(-172.361 -4399.93)"/>
                        </g>
                    </g>
                    <g data-name="Group 2947">
                        <g data-name="Group 2946">
                            <path data-name="Path 1304" d="m203.856 4434.15-8.076 8.076a2.953 2.953 0 0 1-4.173 0l-.073-.074a.614.614 0 0 1 .868-.868l.074.074a1.724 1.724 0 0 0 2.436 0l8.076-8.076a.614.614 0 0 1 .868.868z" style="fill:#5b3a00" transform="translate(-172.361 -4399.93)"/>
                            <path data-name="Path 1305" d="m205.272 4435.566-8.076 8.076a4.958 4.958 0 0 1-7 0l-.074-.074a2.616 2.616 0 0 1 3.572-3.819l7.883-7.883a2.616 2.616 0 1 1 3.7 3.7z" style="fill:#5b3a00" transform="translate(-172.361 -4399.93)"/>
                        </g>
                    </g>
                    <g data-name="Group 2949">
                        <g data-name="Group 2948">
                            <path data-name="Path 1306" d="m218.785 4419.221-8.076 8.077a2.954 2.954 0 0 1-4.173 0l-2.221-2.222a.614.614 0 0 1 .868-.868l2.221 2.222a1.727 1.727 0 0 0 2.437 0l8.076-8.077a.614.614 0 0 1 .868.868z" style="fill:#5b3a00" transform="translate(-172.361 -4399.93)"/>
                            <path data-name="Path 1307" d="m220.2 4420.637-8.077 8.076a4.958 4.958 0 0 1-7 0l-2.221-2.221a2.616 2.616 0 0 1 3.7-3.7l2.024 2.023 7.879-7.878a2.616 2.616 0 1 1 3.7 3.7z" style="fill:#5b3a00" transform="translate(-172.361 -4399.93)"/>
                        </g>
                    </g>
                    <g data-name="Group 2951">
                        <g data-name="Group 2950">
                            <path data-name="Path 1308" d="m248.588 4419.222-8.076 8.077a2.954 2.954 0 0 1-4.173 0l-8.3-8.3a.614.614 0 1 1 .868-.868l8.3 8.3a1.727 1.727 0 0 0 2.437 0l8.076-8.077a.614.614 0 0 1 .868.868z" style="fill:#5b3a00" transform="translate(-172.361 -4399.93)"/>
                            <path data-name="Path 1309" d="m250 4420.638-8.076 8.076a4.959 4.959 0 0 1-7 0l-8.3-8.3a2.616 2.616 0 0 1 3.7-3.7l8.1 8.1 7.878-7.879a2.616 2.616 0 0 1 3.7 3.7z" style="fill:#5b3a00" transform="translate(-172.361 -4399.93)"/>
                        </g>
                    </g>
                    <g data-name="Group 2953">
                        <g data-name="Group 2952">
                            <path data-name="Path 1310" d="m263.556 4464.084-8.076 8.076a2.955 2.955 0 0 1-4.173 0l-8.3-8.3a.614.614 0 1 1 .868-.868l8.3 8.3a1.724 1.724 0 0 0 2.436 0l8.077-8.076a.614.614 0 0 1 .868.868z" style="fill:#5b3a00" transform="translate(-172.361 -4399.93)"/>
                            <path data-name="Path 1311" d="m264.972 4465.5-8.077 8.077a4.959 4.959 0 0 1-7 0l-8.3-8.3a2.616 2.616 0 1 1 3.7-3.7l8.1 8.1 7.879-7.879a2.616 2.616 0 1 1 3.7 3.7z" style="fill:#5b3a00" transform="translate(-172.361 -4399.93)"/>
                        </g>
                    </g>
                    <g data-name="Group 2955">
                        <g data-name="Group 2954">
                            <path data-name="Path 1312" d="m263.631 4494.016-8.076 8.076a2.953 2.953 0 0 1-4.173 0l-8.3-8.3a.614.614 0 0 1 .868-.868l8.3 8.3a1.724 1.724 0 0 0 2.436 0l8.076-8.076a.614.614 0 1 1 .868.868z" style="fill:#5b3a00" transform="translate(-172.361 -4399.93)"/>
                            <path data-name="Path 1313" d="m265.047 4495.432-8.076 8.076a4.958 4.958 0 0 1-7 0l-8.3-8.3a2.615 2.615 0 0 1 3.7-3.7l8.1 8.1 7.879-7.879a2.616 2.616 0 0 1 3.7 3.7z" style="fill:#5b3a00" transform="translate(-172.361 -4399.93)"/>
                        </g>
                    </g>
                    <g data-name="Group 2957">
                        <g data-name="Group 2956">
                            <path data-name="Path 1314" d="m278.56 4479.088-8.076 8.076a2.955 2.955 0 0 1-4.173 0l-8.3-8.3a.614.614 0 0 1 .868-.868l8.3 8.3a1.725 1.725 0 0 0 2.437 0l8.076-8.076a.614.614 0 0 1 .868.868z" style="fill:#5b3a00" transform="translate(-172.361 -4399.93)"/>
                            <path data-name="Path 1315" d="m279.976 4480.5-8.077 8.077a4.958 4.958 0 0 1-7 0l-8.3-8.3a2.616 2.616 0 0 1 3.7-3.7l8.1 8.1 7.879-7.879a2.616 2.616 0 0 1 3.7 3.7z" style="fill:#5b3a00" transform="translate(-172.361 -4399.93)"/>
                        </g>
                    </g>
                    <g data-name="Group 2959">
                        <g data-name="Group 2958">
                            <path data-name="Path 1316" d="m289.715 4467.933-4.33 4.33a2.955 2.955 0 0 1-4.173 0l-8.3-8.3a.614.614 0 1 1 .868-.868l8.3 8.3a1.725 1.725 0 0 0 2.437 0l4.329-4.33a.614.614 0 1 1 .869.868z" style="fill:#5b3a00" transform="translate(-172.361 -4399.93)"/>
                            <path data-name="Path 1317" d="m291.13 4469.349-4.33 4.33a4.959 4.959 0 0 1-7 0l-8.3-8.3a2.616 2.616 0 1 1 3.7-3.7l8.1 8.1 4.133-4.133a2.616 2.616 0 0 1 3.7 3.7z" style="fill:#5b3a00" transform="translate(-172.361 -4399.93)"/>
                        </g>
                    </g>
                    <g data-name="Group 2964">
                        <g data-name="Group 2961">
                            <g data-name="Group 2960">
                                <path data-name="Path 1318" d="m263.5 4434.225-8.077 8.077a2.953 2.953 0 0 1-4.172 0l-8.3-8.3a.614.614 0 0 1 .868-.868l8.3 8.3a1.726 1.726 0 0 0 2.436 0l8.077-8.077a.614.614 0 0 1 .868.868z" style="fill:#5b3a00" transform="translate(-172.361 -4399.93)"/>
                                <path data-name="Path 1319" d="m264.915 4435.641-8.076 8.076a4.958 4.958 0 0 1-7 0l-8.3-8.3a2.616 2.616 0 0 1 3.7-3.7l8.1 8.1 7.879-7.878a2.616 2.616 0 0 1 3.7 3.7z" style="fill:#5b3a00" transform="translate(-172.361 -4399.93)"/>
                            </g>
                        </g>
                        <g data-name="Group 2963">
                            <g data-name="Group 2962">
                                <path data-name="Path 1320" d="m278.457 4449.183-8.076 8.076a2.954 2.954 0 0 1-4.173 0l-8.3-8.3a.614.614 0 1 1 .868-.868l8.3 8.3a1.725 1.725 0 0 0 2.437 0l8.076-8.076a.614.614 0 0 1 .868.868z" style="fill:#5b3a00" transform="translate(-172.361 -4399.93)"/>
                                <path data-name="Path 1321" d="m279.873 4450.6-8.077 8.077a4.958 4.958 0 0 1-7 0l-8.3-8.3a2.616 2.616 0 0 1 3.7-3.7l8.1 8.1 7.879-7.879a2.616 2.616 0 0 1 3.7 3.7z" style="fill:#5b3a00" transform="translate(-172.361 -4399.93)"/>
                            </g>
                        </g>
                    </g>
                    <g data-name="Group 2969">
                        <g data-name="Group 2966">
                            <g data-name="Group 2965">
                                <path data-name="Path 1322" d="m272.471 4425.254-2.045 2.045a2.954 2.954 0 0 1-4.173 0l-8.3-8.3a.614.614 0 0 1 .868-.868l8.3 8.3a1.725 1.725 0 0 0 2.437 0l2.045-2.045a.614.614 0 1 1 .868.868z" style="fill:#5b3a00" transform="translate(-172.361 -4399.93)"/>
                                <path data-name="Path 1323" d="m273.887 4426.669-2.045 2.046a4.958 4.958 0 0 1-7 0l-8.3-8.3a2.616 2.616 0 1 1 3.7-3.7l8.1 8.1 1.848-1.848a2.615 2.615 0 0 1 3.7 3.7z" style="fill:#5b3a00" transform="translate(-172.361 -4399.93)"/>
                            </g>
                        </g>
                        <g data-name="Group 2968">
                            <g data-name="Group 2967">
                                <path data-name="Path 1324" d="m285.383 4442.256-.01.011-.01.009a2.952 2.952 0 0 1-4.152-.02l-8.3-8.3a.614.614 0 0 1 .868-.868l8.3 8.3a1.724 1.724 0 0 0 2.436 0 .614.614 0 0 1 .868.868z" style="fill:#5b3a00" transform="translate(-172.361 -4399.93)"/>
                                <path data-name="Path 1325" d="m286.8 4443.672-.011.011-.029.028a4.966 4.966 0 0 1-6.964-.039l-8.3-8.3a2.616 2.616 0 1 1 3.7-3.7l8.111 8.111a2.616 2.616 0 0 1 3.492 3.886z" style="fill:#5b3a00" transform="translate(-172.361 -4399.93)"/>
                            </g>
                        </g>
                    </g>
                    <g data-name="Group 2971">
                        <g data-name="Group 2970">
                            <path data-name="Path 1326" d="M272.46 4502.714a.958.958 0 0 1-.047.043 58.552 58.552 0 0 1-10.239 6.937 3.2 3.2 0 0 1-3.805-.615l-.245-.245a.614.614 0 0 1 .868-.868l.245.245a1.979 1.979 0 0 0 2.349.406 57.547 57.547 0 0 0 10.051-6.812.614.614 0 0 1 .823.909z" style="fill:#5b3a00" transform="translate(-172.361 -4399.93)"/>
                            <path data-name="Path 1327" d="M273.875 4504.13a2.6 2.6 0 0 1-.2.179 60.337 60.337 0 0 1-10.546 7.143 5.185 5.185 0 0 1-6.179-.957l-.245-.245a2.616 2.616 0 0 1 3.7-3.7l.245.245a.212.212 0 0 0 .036.03 55.709 55.709 0 0 0 9.684-6.572 2.616 2.616 0 0 1 3.5 3.877z" style="fill:#5b3a00" transform="translate(-172.361 -4399.93)"/>
                        </g>
                    </g>
                    <g data-name="Group 2973">
                        <g data-name="Group 2972">
                            <path data-name="Path 1328" d="M279.341 4495.821a2.958 2.958 0 0 1-1.866.854 3.137 3.137 0 0 1-2.471-.909l-1.836-1.836a.614.614 0 0 1 .868-.868l1.836 1.836a1.911 1.911 0 0 0 1.505.553 1.7 1.7 0 0 0 1.267-.7 63.57 63.57 0 0 0 6.059-9.595.614.614 0 1 1 1.089.567 64.563 64.563 0 0 1-6.153 9.747 2.772 2.772 0 0 1-.298.351z" style="fill:#5b3a00" transform="translate(-172.361 -4399.93)"/>
                            <path data-name="Path 1329" d="M280.757 4497.237a4.977 4.977 0 0 1-3.123 1.434 5.136 5.136 0 0 1-4.046-1.49l-1.836-1.836a2.616 2.616 0 0 1 3.7-3.7l1.722 1.722a61 61 0 0 0 5.753-9.135 2.616 2.616 0 1 1 4.641 2.415 66.167 66.167 0 0 1-6.306 10 4.911 4.911 0 0 1-.505.59z" style="fill:#5b3a00" transform="translate(-172.361 -4399.93)"/>
                        </g>
                    </g>
                    <g data-name="Group 2975">
                        <g data-name="Group 2974">
                            <path data-name="Path 1330" d="m219.4 4508.171-1 1a3.118 3.118 0 0 1-3.621.582 55.206 55.206 0 0 1-11.47-7.767.614.614 0 0 1 .81-.922 54.032 54.032 0 0 0 11.215 7.594 1.892 1.892 0 0 0 2.2-.355l1-1a.614.614 0 1 1 .868.868z" style="fill:#5b3a00" transform="translate(-172.361 -4399.93)"/>
                            <path data-name="Path 1331" d="m220.816 4509.587-1 1a5.116 5.116 0 0 1-5.942.952 57.216 57.216 0 0 1-11.886-8.049 2.615 2.615 0 1 1 3.452-3.93 52.063 52.063 0 0 0 10.728 7.276l.951-.952a2.616 2.616 0 1 1 3.7 3.7z" style="fill:#5b3a00" transform="translate(-172.361 -4399.93)"/>
                        </g>
                    </g>
                    <g data-name="Group 2977">
                        <g data-name="Group 2976">
                            <path data-name="Path 1332" d="m204.315 4493.446-2.523 2.523a3.188 3.188 0 0 1-4.757-.275 55.111 55.111 0 0 1-6.7-10.9.614.614 0 0 1 1.114-.516 53.88 53.88 0 0 0 6.551 10.656 1.96 1.96 0 0 0 2.925.167l2.523-2.523a.614.614 0 0 1 .868.868z" style="fill:#5b3a00" transform="translate(-172.361 -4399.93)"/>
                            <path data-name="Path 1333" d="m205.731 4494.862-2.523 2.523a5.19 5.19 0 0 1-7.746-.452 57.137 57.137 0 0 1-6.942-11.3 2.616 2.616 0 1 1 4.746-2.2 51.843 51.843 0 0 0 6.274 10.219l2.492-2.492a2.616 2.616 0 0 1 3.7 3.7z" style="fill:#5b3a00" transform="translate(-172.361 -4399.93)"/>
                        </g>
                    </g>
                    <g data-name="Group 2979">
                        <g data-name="Group 2978">
                            <path data-name="Path 1334" d="m248.526 4509.01-5.245 5.246a2.958 2.958 0 0 1-1.944.865c-1.871.095-3.766.1-5.634.016a2.95 2.95 0 0 1-1.96-.866l-5.261-5.261a.614.614 0 1 1 .868-.868l5.261 5.261a1.727 1.727 0 0 0 1.147.508c1.829.082 3.685.076 5.517-.016a1.734 1.734 0 0 0 1.138-.508l5.245-5.245a.614.614 0 1 1 .868.868z" style="fill:#5b3a00" transform="translate(-172.361 -4399.93)"/>
                            <path data-name="Path 1335" d="m249.942 4510.426-5.246 5.245a4.955 4.955 0 0 1-3.258 1.45c-1.934.1-3.894.1-5.824.017a4.956 4.956 0 0 1-3.287-1.451l-5.261-5.261a2.616 2.616 0 1 1 3.7-3.7l5.189 5.19a56.62 56.62 0 0 0 5.113-.015l5.174-5.175a2.616 2.616 0 0 1 3.7 3.7z" style="fill:#5b3a00" transform="translate(-172.361 -4399.93)"/>
                        </g>
                    </g>
                </g>
            </g>
            <g data-name="Group 3136">
                <g data-name="Group 2983">
                    <g data-name="Group 2982">
                        <path data-name="Path 1336" d="m273.628 4508.333 6.055-6.054L196.4 4419l-6.055 6.054c-21.965 21.966-21.13 58.415 1.867 81.411s59.446 23.833 81.411 1.867" style="fill:#00bdff" transform="translate(-172.361 -4399.93)"/>
                    </g>
                </g>
                <g data-name="Group 2985">
                    <g data-name="Group 2984" transform="translate(-172.361 -4399.93)">
                        <circle data-name="Ellipse 120" cx="58.887" cy="58.887" r="58.887" transform="translate(179.023 4401.887)" style="fill:#8ddcff"/>
                    </g>
                </g>
                <g data-name="Group 3135">
                    <g data-name="Group 3034">
                        <g data-name="Group 2987">
                            <g data-name="Group 2986">
                                <path data-name="Path 1337" d="m257.4 4505.9 2.112 2.112a1.613 1.613 0 0 0 1.859.3 67.178 67.178 0 0 0 11.086-7.471 1.614 1.614 0 0 0 .111-2.383l-3.868-3.858a1.613 1.613 0 0 0-2.282 0l-9.02 9.02a1.614 1.614 0 0 0 .002 2.28z" style="fill:#007e9b" transform="translate(-172.361 -4399.93)"/>
                            </g>
                        </g>
                        <g data-name="Group 2989">
                            <g data-name="Group 2988">
                                <path data-name="Path 1338" d="m206.734 4494.526-3.4 3.4a1.514 1.514 0 0 0 .108 2.239 78.856 78.856 0 0 0 12.182 8.271 1.434 1.434 0 0 0 1.693-.242l1.544-1.545a1.513 1.513 0 0 0 0-2.141l-9.984-9.984a1.513 1.513 0 0 0-2.143.002z" style="fill:#007e9b" transform="translate(-172.361 -4399.93)"/>
                            </g>
                        </g>
                        <g data-name="Group 2991">
                            <g data-name="Group 2990">
                                <path data-name="Path 1339" d="m203.92 4429.818-3.887-3.888a1.514 1.514 0 0 0-2.236.1 66.787 66.787 0 0 0-7.664 11.143 1.514 1.514 0 0 0 .286 1.744l2.2 2.2a1.513 1.513 0 0 0 2.14 0l9.162-9.162a1.513 1.513 0 0 0-.001-2.137z" style="fill:#007e9b" transform="translate(-172.361 -4399.93)"/>
                            </g>
                        </g>
                        <g data-name="Group 2993">
                            <g data-name="Group 2992">
                                <path data-name="Path 1340" d="m191.795 4479.588-.8.8a1.516 1.516 0 0 0-.289 1.738 80.052 80.052 0 0 0 7.817 12.658 1.513 1.513 0 0 0 2.239.109l3.171-3.171a1.513 1.513 0 0 0 0-2.14l-9.995-10a1.515 1.515 0 0 0-2.143.006z" style="fill:#007e9b" transform="translate(-172.361 -4399.93)"/>
                            </g>
                        </g>
                        <g data-name="Group 2995">
                            <g data-name="Group 2994">
                                <path data-name="Path 1341" d="m272.335 4490.961 3.744 3.744a1.614 1.614 0 0 0 2.392-.121 67.821 67.821 0 0 0 7.077-11.48 1.733 1.733 0 0 0-.388-1.907l-1.522-1.539a1.613 1.613 0 0 0-2.282 0l-9.021 9.021a1.614 1.614 0 0 0 0 2.282z" style="fill:#007e9b" transform="translate(-172.361 -4399.93)"/>
                            </g>
                        </g>
                        <g data-name="Group 2997">
                            <g data-name="Group 2996">
                                <path data-name="Path 1342" d="m218.858 4414.879-2.1-2.1a1.514 1.514 0 0 0-1.732-.292 66.762 66.762 0 0 0-11.223 7.593 1.514 1.514 0 0 0-.113 2.244l3.858 3.858a1.515 1.515 0 0 0 2.141 0l9.165-9.166a1.513 1.513 0 0 0 .004-2.137z" style="fill:#007e9b" transform="translate(-172.361 -4399.93)"/>
                            </g>
                        </g>
                        <g data-name="Group 2999">
                            <g data-name="Group 2998">
                                <path data-name="Path 1343" d="m284.389 4441.12.835-.834a1.515 1.515 0 0 0 .288-1.739 79.338 79.338 0 0 0-8.088-12.365 1.514 1.514 0 0 0-2.239-.107l-2.92 2.92a1.514 1.514 0 0 0 0 2.141l9.984 9.984a1.513 1.513 0 0 0 2.14 0z" style="fill:#007e9b" transform="translate(-172.361 -4399.93)"/>
                            </g>
                        </g>
                        <g data-name="Group 3001">
                            <g data-name="Group 3000">
                                <path data-name="Path 1344" d="m203.92 4459.695-9.984-9.984a1.513 1.513 0 0 0-2.141 0l-6.5 6.5a1.52 1.52 0 0 0-.442.989 51.712 51.712 0 0 0-.019 5.456 1.511 1.511 0 0 0 .442 1l7.342 7.342a1.513 1.513 0 0 0 2.14 0l9.162-9.162a1.513 1.513 0 0 0 0-2.141z" style="fill:#007e9b" transform="translate(-172.361 -4399.93)"/>
                            </g>
                        </g>
                        <g data-name="Group 3003">
                            <g data-name="Group 3002">
                                <path data-name="Path 1345" d="m269.5 4426.227 3.556-3.556a1.514 1.514 0 0 0-.109-2.24 80.478 80.478 0 0 0-12.692-7.851 1.434 1.434 0 0 0-1.692.243l-1.363 1.363a1.368 1.368 0 0 0 .129 2.011l10.03 10.03a1.515 1.515 0 0 0 2.141 0z" style="fill:#007e9b" transform="translate(-172.361 -4399.93)"/>
                            </g>
                        </g>
                        <g data-name="Group 3005">
                            <g data-name="Group 3004" transform="translate(-172.361 -4399.93)">
                                <rect data-name="Rectangle 178" width="15.984" height="17.147" rx="1.614" transform="rotate(-45 5529.787 1928.112)" style="fill:#007e9b"/>
                            </g>
                        </g>
                        <g data-name="Group 3007">
                            <g data-name="Group 3006">
                                <path data-name="Path 1346" d="m272.335 4461.084 9.889 9.888a1.614 1.614 0 0 0 2.282 0l6.1-6.188a1.615 1.615 0 0 0 .471-1.056 52.736 52.736 0 0 0-.066-6 1.616 1.616 0 0 0-.47-1.045l-6.9-6.9a1.614 1.614 0 0 0-2.282 0l-9.021 9.021a1.614 1.614 0 0 0-.003 2.28z" style="fill:#007e9b" transform="translate(-172.361 -4399.93)"/>
                            </g>
                        </g>
                        <g data-name="Group 3009">
                            <g data-name="Group 3008" transform="translate(-172.361 -4399.93)">
                                <rect data-name="Rectangle 179" width="15.984" height="17.147" rx="1.514" transform="rotate(-45 5514.849 1964.177)" style="fill:#007e9b"/>
                            </g>
                        </g>
                        <g data-name="Group 3011">
                            <g data-name="Group 3010">
                                <path data-name="Path 1347" d="m236.54 4494.6-9.02 9.02a1.614 1.614 0 0 0 0 2.282l7.279 7.279a1.616 1.616 0 0 0 1.065.471 51.78 51.78 0 0 0 5.3-.015 1.62 1.62 0 0 0 1.056-.471l6.442-6.441a1.614 1.614 0 0 0 0-2.282l-9.843-9.843a1.613 1.613 0 0 0-2.279 0z" style="fill:#007e9b" transform="translate(-172.361 -4399.93)"/>
                            </g>
                        </g>
                        <g data-name="Group 3013">
                            <g data-name="Group 3012">
                                <path data-name="Path 1348" d="m251.479 4479.658-8.975 8.975a1.671 1.671 0 0 0-.046 2.328l9.889 9.888a1.669 1.669 0 0 0 2.327-.046l8.975-8.974a1.614 1.614 0 0 0 0-2.282l-9.888-9.889a1.613 1.613 0 0 0-2.282 0z" style="fill:#007e9b" transform="translate(-172.361 -4399.93)"/>
                            </g>
                        </g>
                        <g data-name="Group 3015">
                            <g data-name="Group 3014" transform="translate(-172.361 -4399.93)">
                                <rect data-name="Rectangle 180" width="15.984" height="17.147" rx="1.514" transform="rotate(-45 5525.411 1989.679)" style="fill:#007e9b"/>
                            </g>
                        </g>
                        <g data-name="Group 3017">
                            <g data-name="Group 3016" transform="translate(-172.361 -4399.93)">
                                <rect data-name="Rectangle 181" width="15.984" height="17.147" rx="1.514" transform="rotate(-45 5499.91 2000.242)" style="fill:#007e9b"/>
                            </g>
                        </g>
                        <g data-name="Group 3019">
                            <g data-name="Group 3018" transform="translate(-172.361 -4399.93)">
                                <rect data-name="Rectangle 182" width="15.984" height="17.147" rx="1.514" transform="rotate(-45 5489.346 1974.74)" style="fill:#007e9b"/>
                            </g>
                        </g>
                        <g data-name="Group 3021">
                            <g data-name="Group 3020" transform="translate(-172.361 -4399.93)">
                                <rect data-name="Rectangle 183" width="15.984" height="17.147" rx="1.514" transform="rotate(-45 5453.282 1959.802)" style="fill:#007e9b"/>
                            </g>
                        </g>
                        <g data-name="Group 3023">
                            <g data-name="Group 3022">
                                <path data-name="Path 1349" d="m233.65 4407.856-6.2 6.2a1.513 1.513 0 0 0 0 2.14l10.028 9.984a1.515 1.515 0 0 0 2.141 0l9.162-9.161a1.514 1.514 0 0 0 0-2.141l-7.052-7.007a1.516 1.516 0 0 0-.98-.441 51.845 51.845 0 0 0-6.11-.017 1.517 1.517 0 0 0-.989.443z" style="fill:#007e9b" transform="translate(-172.361 -4399.93)"/>
                            </g>
                        </g>
                        <g data-name="Group 3025">
                            <g data-name="Group 3024" transform="translate(-172.361 -4399.93)">
                                <rect data-name="Rectangle 184" width="15.984" height="17.147" rx="1.514" transform="rotate(-45 5493.722 1913.174)" style="fill:#007e9b"/>
                            </g>
                        </g>
                        <g data-name="Group 3027">
                            <g data-name="Group 3026" transform="translate(-172.361 -4399.93)">
                                <rect data-name="Rectangle 185" width="15.984" height="17.147" rx="1.514" transform="rotate(-45 5463.845 1985.303)" style="fill:#007e9b"/>
                            </g>
                        </g>
                        <g data-name="Group 3029">
                            <g data-name="Group 3028" transform="translate(-172.361 -4399.93)">
                                <rect data-name="Rectangle 186" width="15.984" height="17.147" rx="1.514" transform="rotate(-45 5478.784 1949.238)" style="fill:#007e9b"/>
                            </g>
                        </g>
                        <g data-name="Group 3031">
                            <g data-name="Group 3030" transform="translate(-172.361 -4399.93)">
                                <rect data-name="Rectangle 187" width="15.984" height="17.147" rx="1.514" transform="rotate(-45 5504.285 1938.676)" style="fill:#007e9b"/>
                            </g>
                        </g>
                        <g data-name="Group 3033">
                            <g data-name="Group 3032" transform="translate(-172.361 -4399.93)">
                                <rect data-name="Rectangle 188" width="15.984" height="17.147" rx="1.514" transform="rotate(-45 5468.22 1923.737)" style="fill:#007e9b"/>
                            </g>
                        </g>
                    </g>
                    <g data-name="Group 3083">
                        <g data-name="Group 3036">
                            <g data-name="Group 3035">
                                <path data-name="Path 1350" d="m258.276 4506.784 1.243 1.243a1.612 1.612 0 0 0 1.859.3 51.386 51.386 0 0 0 11.151-7.522l-3-3a1.614 1.614 0 0 0-2.282 0z" style="fill:#00bdff" transform="translate(-172.361 -4399.93)"/>
                            </g>
                        </g>
                        <g data-name="Group 3038">
                            <g data-name="Group 3037">
                                <path data-name="Path 1351" d="m207.566 4497.74-3.192 3.192a51.4 51.4 0 0 0 11.256 7.522 1.514 1.514 0 0 0 1.739-.288l1.382-1.382-9.044-9.044a1.514 1.514 0 0 0-2.141 0z" style="fill:#00bdff" transform="translate(-172.361 -4399.93)"/>
                            </g>
                        </g>
                        <g data-name="Group 3040">
                            <g data-name="Group 3039">
                                <path data-name="Path 1352" d="m203.812 4432.092-2.947-2.948a1.514 1.514 0 0 0-2.235.1 51.24 51.24 0 0 0-6.951 10.939l.949.949a1.513 1.513 0 0 0 2.14 0z" style="fill:#00bdff" transform="translate(-172.361 -4399.93)"/>
                            </g>
                        </g>
                        <g data-name="Group 3042">
                            <g data-name="Group 3041">
                                <path data-name="Path 1353" d="m192.628 4482.8-1.056 1.056a51.287 51.287 0 0 0 6.9 10.977 1.514 1.514 0 0 0 2.24.109l3.1-3.1-9.044-9.044a1.513 1.513 0 0 0-2.14.002z" style="fill:#00bdff" transform="translate(-172.361 -4399.93)"/>
                            </g>
                        </g>
                        <g data-name="Group 3044">
                            <g data-name="Group 3043">
                                <path data-name="Path 1354" d="m273.215 4491.846 2.874 2.874a1.613 1.613 0 0 0 2.392-.12 51.313 51.313 0 0 0 6.793-10.924l-.8-.8a1.614 1.614 0 0 0-2.282 0z" style="fill:#00bdff" transform="translate(-172.361 -4399.93)"/>
                            </g>
                        </g>
                        <g data-name="Group 3046">
                            <g data-name="Group 3045">
                                <path data-name="Path 1355" d="M218.751 4417.153 217.6 4416a1.516 1.516 0 0 0-1.733-.292 51.352 51.352 0 0 0-11.309 7.479l3.013 3.013a1.514 1.514 0 0 0 2.141 0z" style="fill:#00bdff" transform="translate(-172.361 -4399.93)"/>
                            </g>
                        </g>
                        <g data-name="Group 3048">
                            <g data-name="Group 3047">
                                <path data-name="Path 1356" d="m284.411 4441.124.758-.758a51.32 51.32 0 0 0-6.913-10.97 1.514 1.514 0 0 0-2.239-.107l-2.8 2.8 9.032 9.032a1.531 1.531 0 0 0 2.162.003z" style="fill:#00bdff" transform="translate(-172.361 -4399.93)"/>
                            </g>
                        </g>
                        <g data-name="Group 3050">
                            <g data-name="Group 3049">
                                <path data-name="Path 1357" d="m203.812 4461.969-9.044-9.044a1.512 1.512 0 0 0-2.14 0l-5.313 5.312a1.518 1.518 0 0 0-.441.989 51.879 51.879 0 0 0 .012 6.045l5.742 5.742a1.513 1.513 0 0 0 2.14 0z" style="fill:#00bdff" transform="translate(-172.361 -4399.93)"/>
                            </g>
                        </g>
                        <g data-name="Group 3052">
                            <g data-name="Group 3051">
                                <path data-name="Path 1358" d="m269.461 4426.2 2.89-2.891a51.347 51.347 0 0 0-11.267-7.512 1.515 1.515 0 0 0-1.738.289l-1.07 1.07 9.044 9.044a1.514 1.514 0 0 0 2.141 0z" style="fill:#00bdff" transform="translate(-172.361 -4399.93)"/>
                            </g>
                        </g>
                        <g data-name="Group 3054">
                            <g data-name="Group 3053">
                                <path data-name="Path 1359" d="m267.25 4467.934-8.974 8.973 8.974 8.974a1.613 1.613 0 0 0 2.282 0l8.973-8.974-8.973-8.973a1.614 1.614 0 0 0-2.282 0z" style="fill:#00bdff" transform="translate(-172.361 -4399.93)"/>
                            </g>
                        </g>
                        <g data-name="Group 3056">
                            <g data-name="Group 3055">
                                <path data-name="Path 1360" d="m273.215 4461.969 8.973 8.973a1.614 1.614 0 0 0 2.282 0l4.954-4.954a1.613 1.613 0 0 0 .471-1.056 51.859 51.859 0 0 0-.061-6.573L284.47 4453a1.614 1.614 0 0 0-2.282 0z" style="fill:#00bdff" transform="translate(-172.361 -4399.93)"/>
                            </g>
                        </g>
                        <g data-name="Group 3058">
                            <g data-name="Group 3057">
                                <path data-name="Path 1361" d="m239.584 4485.951 9.044-9.044-9.044-9.044a1.515 1.515 0 0 0-2.141 0l-9.044 9.044 9.044 9.044a1.515 1.515 0 0 0 2.141 0z" style="fill:#00bdff" transform="translate(-172.361 -4399.93)"/>
                            </g>
                        </g>
                        <g data-name="Group 3060">
                            <g data-name="Group 3059">
                                <path data-name="Path 1362" d="m237.372 4497.811-8.973 8.973 6.41 6.41a1.614 1.614 0 0 0 1.065.471 52.06 52.06 0 0 0 5.3-.015 1.62 1.62 0 0 0 1.056-.471l6.4-6.4-8.974-8.973a1.614 1.614 0 0 0-2.284.005z" style="fill:#00bdff" transform="translate(-172.361 -4399.93)"/>
                            </g>
                        </g>
                        <g data-name="Group 3062">
                            <g data-name="Group 3061">
                                <path data-name="Path 1363" d="m252.311 4482.872-8.973 8.974 8.973 8.973a1.613 1.613 0 0 0 2.282 0l8.973-8.973-8.973-8.974a1.614 1.614 0 0 0-2.282 0z" style="fill:#00bdff" transform="translate(-172.361 -4399.93)"/>
                            </g>
                        </g>
                        <g data-name="Group 3064">
                            <g data-name="Group 3063">
                                <path data-name="Path 1364" d="m224.645 4500.89 9.044-9.044-9.044-9.044a1.513 1.513 0 0 0-2.14 0l-9.045 9.044 9.045 9.044a1.513 1.513 0 0 0 2.14 0z" style="fill:#00bdff" transform="translate(-172.361 -4399.93)"/>
                            </g>
                        </g>
                        <g data-name="Group 3066">
                            <g data-name="Group 3065">
                                <path data-name="Path 1365" d="m207.566 4467.863-9.044 9.044 9.044 9.044a1.515 1.515 0 0 0 2.141 0l9.044-9.044-9.044-9.044a1.515 1.515 0 0 0-2.141 0z" style="fill:#00bdff" transform="translate(-172.361 -4399.93)"/>
                            </g>
                        </g>
                        <g data-name="Group 3068">
                            <g data-name="Group 3067">
                                <path data-name="Path 1366" d="m222.505 4452.925-9.044 9.044 9.044 9.044a1.513 1.513 0 0 0 2.14 0l9.044-9.044-9.044-9.044a1.512 1.512 0 0 0-2.14 0z" style="fill:#00bdff" transform="translate(-172.361 -4399.93)"/>
                            </g>
                        </g>
                        <g data-name="Group 3070">
                            <g data-name="Group 3069">
                                <path data-name="Path 1367" d="m224.645 4441.136 9.044-9.044-9.044-9.045a1.513 1.513 0 0 0-2.14 0l-9.044 9.045 9.044 9.044a1.513 1.513 0 0 0 2.14 0z" style="fill:#00bdff" transform="translate(-172.361 -4399.93)"/>
                            </g>
                        </g>
                        <g data-name="Group 3072">
                            <g data-name="Group 3071">
                                <path data-name="Path 1368" d="m234.482 4411.07-6.083 6.083 9.044 9.044a1.514 1.514 0 0 0 2.141 0l9.044-9.044-6.067-6.067a1.515 1.515 0 0 0-.98-.441 51.951 51.951 0 0 0-6.11-.017 1.52 1.52 0 0 0-.989.442z" style="fill:#00bdff" transform="translate(-172.361 -4399.93)"/>
                            </g>
                        </g>
                        <g data-name="Group 3074">
                            <g data-name="Group 3073">
                                <path data-name="Path 1369" d="m269.461 4456.074 9.044-9.044-9.044-9.044a1.515 1.515 0 0 0-2.141 0l-9.044 9.044 9.044 9.044a1.515 1.515 0 0 0 2.141 0z" style="fill:#00bdff" transform="translate(-172.361 -4399.93)"/>
                            </g>
                        </g>
                        <g data-name="Group 3076">
                            <g data-name="Group 3075">
                                <path data-name="Path 1370" d="m209.707 4456.074 9.044-9.044-9.044-9.044a1.515 1.515 0 0 0-2.141 0l-9.044 9.044 9.044 9.044a1.515 1.515 0 0 0 2.141 0z" style="fill:#00bdff" transform="translate(-172.361 -4399.93)"/>
                            </g>
                        </g>
                        <g data-name="Group 3078">
                            <g data-name="Group 3077">
                                <path data-name="Path 1371" d="m237.443 4437.986-9.044 9.044 9.044 9.044a1.515 1.515 0 0 0 2.141 0l9.044-9.044-9.044-9.044a1.515 1.515 0 0 0-2.141 0z" style="fill:#00bdff" transform="translate(-172.361 -4399.93)"/>
                            </g>
                        </g>
                        <g data-name="Group 3080">
                            <g data-name="Group 3079">
                                <path data-name="Path 1372" d="m254.522 4471.013 9.044-9.044-9.044-9.044a1.512 1.512 0 0 0-2.14 0l-9.044 9.044 9.044 9.044a1.513 1.513 0 0 0 2.14 0z" style="fill:#00bdff" transform="translate(-172.361 -4399.93)"/>
                            </g>
                        </g>
                        <g data-name="Group 3082">
                            <g data-name="Group 3081">
                                <path data-name="Path 1373" d="m252.382 4423.047-9.044 9.045 9.044 9.044a1.513 1.513 0 0 0 2.14 0l9.044-9.044-9.044-9.045a1.513 1.513 0 0 0-2.14 0z" style="fill:#00bdff" transform="translate(-172.361 -4399.93)"/>
                            </g>
                        </g>
                    </g>
                    <g data-name="Group 3088">
                        <g data-name="Group 3085">
                            <g data-name="Group 3084">
                                <path data-name="Path 1374" d="m218.768 4478.957-8.076 8.077a2.955 2.955 0 0 1-4.173 0l-8.3-8.3a.614.614 0 1 1 .868-.868l8.3 8.3a1.724 1.724 0 0 0 2.436 0l8.077-8.076a.614.614 0 1 1 .868.868z" style="fill:#fff" transform="translate(-172.361 -4399.93)"/>
                            </g>
                        </g>
                        <g data-name="Group 3087">
                            <g data-name="Group 3086">
                                <path data-name="Path 1375" d="m233.725 4493.915-8.076 8.076a2.955 2.955 0 0 1-4.173 0l-8.3-8.3a.614.614 0 0 1 .868-.868l8.3 8.3a1.727 1.727 0 0 0 2.437 0l8.076-8.077a.614.614 0 0 1 .868.869z" style="fill:#fff" transform="translate(-172.361 -4399.93)"/>
                            </g>
                        </g>
                    </g>
                    <g data-name="Group 3090">
                        <g data-name="Group 3089">
                            <path data-name="Path 1376" d="m233.715 4464.011-8.077 8.076a2.954 2.954 0 0 1-4.172 0l-8.3-8.3a.614.614 0 0 1 .868-.868l8.3 8.3a1.726 1.726 0 0 0 2.436 0l8.076-8.077a.615.615 0 1 1 .869.869z" style="fill:#fff" transform="translate(-172.361 -4399.93)"/>
                        </g>
                    </g>
                    <g data-name="Group 3092">
                        <g data-name="Group 3091">
                            <path data-name="Path 1377" d="m248.672 4478.968-8.076 8.076a2.955 2.955 0 0 1-4.173 0l-8.3-8.3a.614.614 0 0 1 .868-.868l8.3 8.3a1.723 1.723 0 0 0 2.436 0l8.077-8.076a.614.614 0 1 1 .868.868z" style="fill:#fff" transform="translate(-172.361 -4399.93)"/>
                        </g>
                    </g>
                    <g data-name="Group 3094">
                        <g data-name="Group 3093">
                            <path data-name="Path 1378" d="m248.643 4449.082-8.076 8.076a2.953 2.953 0 0 1-4.173 0l-8.3-8.3a.614.614 0 1 1 .868-.868l8.3 8.3a1.725 1.725 0 0 0 2.437 0l8.076-8.076a.614.614 0 1 1 .868.868z" style="fill:#fff" transform="translate(-172.361 -4399.93)"/>
                        </g>
                    </g>
                    <g data-name="Group 3096">
                        <g data-name="Group 3095">
                            <path data-name="Path 1379" d="m218.757 4449.053-8.076 8.077a2.955 2.955 0 0 1-4.173 0l-8.3-8.3a.614.614 0 0 1 .868-.868l8.3 8.3a1.725 1.725 0 0 0 2.437 0l8.076-8.076a.614.614 0 0 1 .868.868z" style="fill:#fff" transform="translate(-172.361 -4399.93)"/>
                        </g>
                    </g>
                    <g data-name="Group 3098">
                        <g data-name="Group 3097">
                            <path data-name="Path 1380" d="m203.811 4464-8.077 8.076a2.952 2.952 0 0 1-4.172 0l-4.186-4.186a.614.614 0 0 1 .868-.868l4.186 4.186a1.724 1.724 0 0 0 2.436 0l8.076-8.076a.614.614 0 0 1 .869.868z" style="fill:#fff" transform="translate(-172.361 -4399.93)"/>
                        </g>
                    </g>
                    <g data-name="Group 3100">
                        <g data-name="Group 3099">
                            <path data-name="Path 1381" d="m233.686 4434.125-8.076 8.076a2.953 2.953 0 0 1-4.173 0l-8.3-8.3a.614.614 0 1 1 .868-.868l8.3 8.3a1.724 1.724 0 0 0 2.436 0l8.077-8.076a.614.614 0 0 1 .868.868z" style="fill:#fff" transform="translate(-172.361 -4399.93)"/>
                        </g>
                    </g>
                    <g data-name="Group 3102">
                        <g data-name="Group 3101">
                            <path data-name="Path 1382" d="m203.9 4434.1-8.076 8.077a2.955 2.955 0 0 1-4.173 0l-.074-.074a.614.614 0 0 1 .868-.868l.074.074a1.727 1.727 0 0 0 2.437 0l8.076-8.077a.614.614 0 0 1 .868.868z" style="fill:#fff" transform="translate(-172.361 -4399.93)"/>
                        </g>
                    </g>
                    <g data-name="Group 3104">
                        <g data-name="Group 3103">
                            <path data-name="Path 1383" d="m218.829 4419.177-8.076 8.076a2.953 2.953 0 0 1-4.173 0l-2.221-2.221a.614.614 0 0 1 .868-.868l2.221 2.221a1.724 1.724 0 0 0 2.437 0l8.076-8.076a.614.614 0 1 1 .868.868z" style="fill:#fff" transform="translate(-172.361 -4399.93)"/>
                        </g>
                    </g>
                    <g data-name="Group 3106">
                        <g data-name="Group 3105">
                            <path data-name="Path 1384" d="m248.633 4419.178-8.077 8.076a2.952 2.952 0 0 1-4.172 0l-8.3-8.3a.614.614 0 0 1 .868-.868l8.3 8.3a1.724 1.724 0 0 0 2.436 0l8.076-8.076a.614.614 0 1 1 .869.868z" style="fill:#fff" transform="translate(-172.361 -4399.93)"/>
                        </g>
                    </g>
                    <g data-name="Group 3108">
                        <g data-name="Group 3107">
                            <path data-name="Path 1385" d="m263.6 4464.039-8.076 8.077a2.955 2.955 0 0 1-4.173 0l-8.3-8.3a.614.614 0 0 1 .868-.868l8.3 8.3a1.725 1.725 0 0 0 2.437 0l8.076-8.076a.614.614 0 1 1 .868.868z" style="fill:#fff" transform="translate(-172.361 -4399.93)"/>
                        </g>
                    </g>
                    <g data-name="Group 3110">
                        <g data-name="Group 3109">
                            <path data-name="Path 1386" d="m263.676 4493.972-8.076 8.076a2.953 2.953 0 0 1-4.173 0l-8.3-8.3a.614.614 0 1 1 .868-.868l8.3 8.3a1.725 1.725 0 0 0 2.437 0l8.076-8.076a.614.614 0 0 1 .868.868z" style="fill:#fff" transform="translate(-172.361 -4399.93)"/>
                        </g>
                    </g>
                    <g data-name="Group 3112">
                        <g data-name="Group 3111">
                            <path data-name="Path 1387" d="m278.6 4479.043-8.076 8.077a2.955 2.955 0 0 1-4.173 0l-8.3-8.3a.614.614 0 1 1 .868-.868l8.3 8.3a1.727 1.727 0 0 0 2.437 0l8.076-8.077a.614.614 0 0 1 .868.868z" style="fill:#fff" transform="translate(-172.361 -4399.93)"/>
                        </g>
                    </g>
                    <g data-name="Group 3114">
                        <g data-name="Group 3113">
                            <path data-name="Path 1388" d="m289.759 4467.889-4.33 4.33a2.955 2.955 0 0 1-4.173 0l-8.3-8.3a.614.614 0 0 1 .868-.868l8.3 8.3a1.725 1.725 0 0 0 2.437 0l4.33-4.329a.614.614 0 0 1 .868.868z" style="fill:#fff" transform="translate(-172.361 -4399.93)"/>
                        </g>
                    </g>
                    <g data-name="Group 3119">
                        <g data-name="Group 3116">
                            <g data-name="Group 3115">
                                <path data-name="Path 1389" d="m263.544 4434.181-8.076 8.076a2.953 2.953 0 0 1-4.173 0l-8.3-8.3a.614.614 0 1 1 .868-.868l8.3 8.3a1.725 1.725 0 0 0 2.437 0l8.076-8.076a.614.614 0 1 1 .868.868z" style="fill:#fff" transform="translate(-172.361 -4399.93)"/>
                            </g>
                        </g>
                        <g data-name="Group 3118">
                            <g data-name="Group 3117">
                                <path data-name="Path 1390" d="m278.5 4449.138-8.076 8.076a2.952 2.952 0 0 1-4.173 0l-8.3-8.3a.614.614 0 0 1 .868-.869l8.3 8.3a1.725 1.725 0 0 0 2.437 0l8.076-8.076a.614.614 0 0 1 .868.868z" style="fill:#fff" transform="translate(-172.361 -4399.93)"/>
                            </g>
                        </g>
                    </g>
                    <g data-name="Group 3124">
                        <g data-name="Group 3121">
                            <g data-name="Group 3120">
                                <path data-name="Path 1391" d="m272.516 4425.209-2.046 2.046a2.954 2.954 0 0 1-4.172 0l-8.3-8.3a.614.614 0 0 1 .868-.868l8.3 8.3a1.726 1.726 0 0 0 2.436 0l2.046-2.046a.614.614 0 1 1 .868.868z" style="fill:#fff" transform="translate(-172.361 -4399.93)"/>
                            </g>
                        </g>
                        <g data-name="Group 3123">
                            <g data-name="Group 3122">
                                <path data-name="Path 1392" d="m285.428 4442.212-.011.011-.009.008a2.954 2.954 0 0 1-4.153-.019l-8.3-8.3a.614.614 0 0 1 .868-.868l8.3 8.3a1.725 1.725 0 0 0 2.437 0 .614.614 0 0 1 .868.868z" style="fill:#fff" transform="translate(-172.361 -4399.93)"/>
                            </g>
                        </g>
                    </g>
                    <g data-name="Group 3126">
                        <g data-name="Group 3125">
                            <path data-name="Path 1393" d="M272.5 4502.67a.419.419 0 0 1-.047.042 58.561 58.561 0 0 1-10.239 6.938 3.2 3.2 0 0 1-3.8-.616l-.245-.244a.614.614 0 0 1 .869-.868l.244.244a1.978 1.978 0 0 0 2.349.406 57.434 57.434 0 0 0 10.052-6.812.614.614 0 0 1 .822.91z" style="fill:#fff" transform="translate(-172.361 -4399.93)"/>
                        </g>
                    </g>
                    <g data-name="Group 3128">
                        <g data-name="Group 3127">
                            <path data-name="Path 1394" d="M279.386 4495.777a2.973 2.973 0 0 1-1.867.854 3.136 3.136 0 0 1-2.471-.91l-1.836-1.836a.614.614 0 0 1 .868-.868l1.836 1.836a1.91 1.91 0 0 0 1.505.554 1.7 1.7 0 0 0 1.268-.7 63.73 63.73 0 0 0 6.059-9.6.614.614 0 1 1 1.089.566 64.652 64.652 0 0 1-6.153 9.748 3.031 3.031 0 0 1-.298.356z" style="fill:#fff" transform="translate(-172.361 -4399.93)"/>
                        </g>
                    </g>
                    <g data-name="Group 3130">
                        <g data-name="Group 3129">
                            <path data-name="Path 1395" d="m219.444 4508.127-1 1a3.117 3.117 0 0 1-3.62.582 55.3 55.3 0 0 1-11.471-7.767.614.614 0 0 1 .81-.923 54 54 0 0 0 11.216 7.6 1.893 1.893 0 0 0 2.2-.355l1-1a.614.614 0 1 1 .868.868z" style="fill:#fff" transform="translate(-172.361 -4399.93)"/>
                        </g>
                    </g>
                    <g data-name="Group 3132">
                        <g data-name="Group 3131">
                            <path data-name="Path 1396" d="m204.36 4493.4-2.524 2.523a3.188 3.188 0 0 1-4.757-.275 55.116 55.116 0 0 1-6.7-10.9.614.614 0 0 1 1.113-.517 53.891 53.891 0 0 0 6.55 10.657 1.961 1.961 0 0 0 2.924.167l2.524-2.523a.614.614 0 1 1 .868.868z" style="fill:#fff" transform="translate(-172.361 -4399.93)"/>
                        </g>
                    </g>
                    <g data-name="Group 3134">
                        <g data-name="Group 3133">
                            <path data-name="Path 1397" d="m248.57 4508.966-5.245 5.245a2.957 2.957 0 0 1-1.944.866c-1.87.094-3.766.1-5.634.016a2.956 2.956 0 0 1-1.96-.866l-5.261-5.261a.614.614 0 0 1 .868-.868l5.261 5.261a1.734 1.734 0 0 0 1.147.508c1.829.082 3.685.076 5.518-.016a1.732 1.732 0 0 0 1.137-.508l5.245-5.245a.614.614 0 1 1 .868.868z" style="fill:#fff" transform="translate(-172.361 -4399.93)"/>
                        </g>
                    </g>
                </g>
            </g>
        </g>
    </g>
</svg>
