<svg xmlns="http://www.w3.org/2000/svg" width="126.146" height="126.146" viewBox="0 0 126.146 126.146">
    <g data-name="Group 3451">
        <g data-name="Group 3450">
            <g data-name="Group 3294">
                <g data-name="Group 3141">
                    <g data-name="Group 3140">
                        <path data-name="Path 1398" d="m273.386 4759.614 6.043-6.043-83.115-83.115-6.043 6.043c-21.922 21.922-21.088 58.3 1.863 81.252s59.33 23.785 81.252 1.863" style="fill:#5b3a00" transform="translate(-172.361 -4651.378)"/>
                        <path data-name="Path 1399" d="m282.255 4753.571-7.456 7.456a55.618 55.618 0 0 1-19.41 12.636 57.873 57.873 0 0 1-22.289 3.845 60.8 60.8 0 0 1-22.451-4.861 63.514 63.514 0 0 1-33.411-33.411 60.8 60.8 0 0 1-4.861-22.451 57.878 57.878 0 0 1 3.845-22.289 55.617 55.617 0 0 1 12.636-19.41l7.456-7.456zm-90.571-75.659a51.651 51.651 0 0 0-11.734 18.023 53.9 53.9 0 0 0-3.578 20.758 56.837 56.837 0 0 0 4.545 20.982 59.519 59.519 0 0 0 31.293 31.293 56.816 56.816 0 0 0 20.982 4.544 53.877 53.877 0 0 0 20.758-3.577 51.657 51.657 0 0 0 18.023-11.734l4.63-4.63-80.289-80.289z" style="fill:#5b3a00" transform="translate(-172.361 -4651.378)"/>
                    </g>
                </g>
                <g data-name="Group 3143">
                    <g data-name="Group 3142" transform="translate(-172.361 -4651.378)">
                        <circle data-name="Ellipse 121" cx="58.771" cy="58.771" r="58.771" transform="translate(178.966 4653.376)" style="fill:#5b3a00"/>
                        <path data-name="Path 1400" d="M280.708 4755.118a60.587 60.587 0 1 1 13.349-20.1 60.4 60.4 0 0 1-13.349 20.1zM197.593 4672a56.6 56.6 0 1 0 18.78-12.471 56.416 56.416 0 0 0-18.78 12.471z" style="fill:#5b3a00"/>
                    </g>
                </g>
                <g data-name="Group 3293">
                    <g data-name="Group 3192">
                        <g data-name="Group 3145">
                            <g data-name="Group 3144">
                                <path data-name="Path 1401" d="m257.186 4757.185 2.108 2.108a1.61 1.61 0 0 0 1.856.3 67.087 67.087 0 0 0 11.065-7.455 1.611 1.611 0 0 0 .11-2.379l-3.858-3.858a1.611 1.611 0 0 0-2.278 0l-9 9a1.613 1.613 0 0 0-.003 2.284z" style="fill:#5b3a00" transform="translate(-172.361 -4651.378)"/>
                                <path data-name="Path 1402" d="M273.739 4753.452c-.08.08-.164.157-.252.229a69.107 69.107 0 0 1-11.446 7.7 3.6 3.6 0 0 1-4.159-.68l-2.108-2.108a3.612 3.612 0 0 1 0-5.1l9-9a3.615 3.615 0 0 1 5.1 0l3.857 3.858a3.608 3.608 0 0 1 0 5.1zm-13.23 4.23a66.535 66.535 0 0 0 10.1-6.809l-3.281-3.282-8.454 8.455z" style="fill:#5b3a00" transform="translate(-172.361 -4651.378)"/>
                            </g>
                        </g>
                        <g data-name="Group 3147">
                            <g data-name="Group 3146">
                                <path data-name="Path 1403" d="m206.623 4745.834-3.4 3.4a1.51 1.51 0 0 0 .107 2.234 78.788 78.788 0 0 0 12.158 8.254 1.43 1.43 0 0 0 1.69-.242l1.542-1.541a1.513 1.513 0 0 0 0-2.137l-9.965-9.964a1.51 1.51 0 0 0-2.132-.004z" style="fill:#5b3a00" transform="translate(-172.361 -4651.378)"/>
                                <path data-name="Path 1404" d="m220.136 4759.348-1.541 1.541a3.422 3.422 0 0 1-3.984.623 79.848 79.848 0 0 1-12.547-8.505 3.509 3.509 0 0 1-.25-5.19l3.4-3.4a3.513 3.513 0 0 1 4.962 0l9.964 9.964a3.513 3.513 0 0 1-.004 4.967zm-4.073-1.579.9-.9-9.275-9.276-2.67 2.67a77.831 77.831 0 0 0 11.045 7.506z" style="fill:#5b3a00" transform="translate(-172.361 -4651.378)"/>
                            </g>
                        </g>
                        <g data-name="Group 3149">
                            <g data-name="Group 3148">
                                <path data-name="Path 1405" d="m203.814 4681.252-3.879-3.88a1.511 1.511 0 0 0-2.231.1 66.57 66.57 0 0 0-7.649 11.121 1.51 1.51 0 0 0 .285 1.741l2.194 2.194a1.51 1.51 0 0 0 2.136 0l9.144-9.144a1.51 1.51 0 0 0 0-2.132z" style="fill:#5b3a00" transform="translate(-172.361 -4651.378)"/>
                                <path data-name="Path 1406" d="m205.227 4684.8-9.144 9.144a3.512 3.512 0 0 1-4.962 0l-2.194-2.194a3.507 3.507 0 0 1-.662-4.042 63.221 63.221 0 0 1 7.9-11.509 3.51 3.51 0 0 1 5.183-.241l3.879 3.88a3.513 3.513 0 0 1 0 4.962zm-11.625 5.974 8.455-8.455-3.156-3.155a65.372 65.372 0 0 0-6.9 10.009z" style="fill:#5b3a00" transform="translate(-172.361 -4651.378)"/>
                            </g>
                        </g>
                        <g data-name="Group 3151">
                            <g data-name="Group 3150">
                                <path data-name="Path 1407" d="m191.713 4730.925-.8.8a1.51 1.51 0 0 0-.288 1.734 79.87 79.87 0 0 0 7.8 12.633 1.511 1.511 0 0 0 2.236.108l3.164-3.164a1.51 1.51 0 0 0 0-2.136l-9.975-9.975a1.512 1.512 0 0 0-2.137 0z" style="fill:#5b3a00" transform="translate(-172.361 -4651.378)"/>
                                <path data-name="Path 1408" d="m205.238 4744.449-3.164 3.164a3.509 3.509 0 0 1-5.193-.253 81.824 81.824 0 0 1-8.051-13.022 3.51 3.51 0 0 1 .67-4.026l.8-.8a3.514 3.514 0 0 1 4.963 0l9.975 9.975a3.513 3.513 0 0 1 0 4.962zm-5.605-.046 2.435-2.435-9.286-9.286-.209.209a81.448 81.448 0 0 0 7.06 11.509z" style="fill:#5b3a00" transform="translate(-172.361 -4651.378)"/>
                            </g>
                        </g>
                        <g data-name="Group 3153">
                            <g data-name="Group 3152">
                                <path data-name="Path 1409" d="m272.1 4742.275 3.736 3.737a1.611 1.611 0 0 0 2.387-.12 67.643 67.643 0 0 0 7.063-11.458 1.726 1.726 0 0 0-.387-1.9l-1.523-1.534a1.611 1.611 0 0 0-2.278 0l-9 9a1.61 1.61 0 0 0 .002 2.275z" style="fill:#5b3a00" transform="translate(-172.361 -4651.378)"/>
                                <path data-name="Path 1410" d="M279.522 4747.426a3.606 3.606 0 0 1-5.1 0l-3.736-3.737a3.612 3.612 0 0 1 0-5.1l9-9a3.612 3.612 0 0 1 5.1 0l.007.008 1.517 1.532a3.724 3.724 0 0 1 .766 4.187 69.188 69.188 0 0 1-7.309 11.842 3.545 3.545 0 0 1-.245.268zm-5.739-6.289 3.156 3.156a67.287 67.287 0 0 0 6.419-10.475l-1.122-1.134z" style="fill:#5b3a00" transform="translate(-172.361 -4651.378)"/>
                            </g>
                        </g>
                        <g data-name="Group 3155">
                            <g data-name="Group 3154">
                                <path data-name="Path 1411" d="m218.724 4666.343-2.093-2.092a1.511 1.511 0 0 0-1.729-.291 66.594 66.594 0 0 0-11.2 7.578 1.51 1.51 0 0 0-.113 2.239l3.85 3.85a1.512 1.512 0 0 0 2.137 0l9.148-9.148a1.51 1.51 0 0 0 0-2.136z" style="fill:#5b3a00" transform="translate(-172.361 -4651.378)"/>
                                <path data-name="Path 1412" d="m220.136 4669.892-9.147 9.148a3.514 3.514 0 0 1-4.963 0l-3.85-3.85a3.511 3.511 0 0 1 .263-5.2 70.82 70.82 0 0 1 11.591-7.827 3.511 3.511 0 0 1 4.014.676l2.092 2.092a3.511 3.511 0 0 1 0 4.961zm-11.629 5.977 8.459-8.458-1.5-1.5a65.689 65.689 0 0 0-10.081 6.837z" style="fill:#5b3a00" transform="translate(-172.361 -4651.378)"/>
                            </g>
                        </g>
                        <g data-name="Group 3157">
                            <g data-name="Group 3156">
                                <path data-name="Path 1413" d="m284.126 4692.532.833-.832a1.512 1.512 0 0 0 .287-1.736 79.094 79.094 0 0 0-8.072-12.34 1.51 1.51 0 0 0-2.234-.107l-2.915 2.914a1.511 1.511 0 0 0 0 2.137l9.965 9.964a1.51 1.51 0 0 0 2.136 0z" style="fill:#5b3a00" transform="translate(-172.361 -4651.378)"/>
                                <path data-name="Path 1414" d="m286.372 4693.113-.833.832a3.512 3.512 0 0 1-4.962 0l-9.965-9.964a3.514 3.514 0 0 1 0-4.963l2.915-2.914a3.509 3.509 0 0 1 5.19.25 80.638 80.638 0 0 1 8.323 12.729 3.511 3.511 0 0 1-.668 4.03zm-3.314-2.338.24-.24a79.172 79.172 0 0 0-7.328-11.223l-2.187 2.187z" style="fill:#5b3a00" transform="translate(-172.361 -4651.378)"/>
                            </g>
                        </g>
                        <g data-name="Group 3159">
                            <g data-name="Group 3158">
                                <path data-name="Path 1415" d="m203.814 4711.071-9.964-9.965a1.512 1.512 0 0 0-2.137 0l-6.487 6.487a1.518 1.518 0 0 0-.441.988 51.772 51.772 0 0 0-.02 5.445 1.519 1.519 0 0 0 .442 1l7.327 7.328a1.512 1.512 0 0 0 2.137 0l9.143-9.144a1.51 1.51 0 0 0 0-2.139z" style="fill:#5b3a00" transform="translate(-172.361 -4651.378)"/>
                                <path data-name="Path 1416" d="m205.227 4714.62-9.144 9.144a3.513 3.513 0 0 1-4.962 0l-7.327-7.328a3.5 3.5 0 0 1-1.024-2.313 54.156 54.156 0 0 1 .02-5.655 3.51 3.51 0 0 1 1.023-2.287l6.487-6.488a3.514 3.514 0 0 1 4.963 0l9.964 9.965a3.513 3.513 0 0 1 0 4.962zm-11.625 5.973 8.455-8.454-9.276-9.275-6.011 6.011a49.713 49.713 0 0 0-.017 4.868z" style="fill:#5b3a00" transform="translate(-172.361 -4651.378)"/>
                            </g>
                        </g>
                        <g data-name="Group 3161">
                            <g data-name="Group 3160">
                                <path data-name="Path 1417" d="m269.263 4677.668 3.549-3.549a1.51 1.51 0 0 0-.109-2.235 80.354 80.354 0 0 0-12.667-7.836 1.433 1.433 0 0 0-1.689.243l-1.36 1.36a1.365 1.365 0 0 0 .129 2.007l10.01 10.01a1.512 1.512 0 0 0 2.137 0z" style="fill:#5b3a00" transform="translate(-172.361 -4651.378)"/>
                                <path data-name="Path 1418" d="m274.225 4675.532-3.55 3.549a3.512 3.512 0 0 1-4.962 0l-10.01-10.01a3.346 3.346 0 0 1-.129-4.833l1.36-1.36a3.422 3.422 0 0 1 3.981-.624 81.966 81.966 0 0 1 13.057 8.086 3.509 3.509 0 0 1 .253 5.192zm-6.031.379 2.821-2.82a81.493 81.493 0 0 0-11.548-7.091l-.593.594z" style="fill:#5b3a00" transform="translate(-172.361 -4651.378)"/>
                            </g>
                        </g>
                        <g data-name="Group 3163">
                            <g data-name="Group 3162" transform="translate(-172.361 -4651.378)">
                                <rect data-name="Rectangle 189" width="15.953" height="17.113" rx="1.61" transform="rotate(-45 5833.086 2054.037)" style="fill:#5b3a00"/>
                                <path data-name="Path 1419" d="m279.7 4729.6-9 9a3.613 3.613 0 0 1-5.1 0l-9.823-9.823a3.612 3.612 0 0 1 0-5.1l9-9a3.614 3.614 0 0 1 5.1 0l9.823 9.823a3.614 3.614 0 0 1 0 5.1zm-11.554 5.9 8.454-8.454-9.275-9.275-8.454 8.454z" style="fill:#5b3a00"/>
                            </g>
                        </g>
                        <g data-name="Group 3165">
                            <g data-name="Group 3164">
                                <path data-name="Path 1420" d="m272.1 4712.457 9.869 9.869a1.61 1.61 0 0 0 2.277 0l6.085-6.176a1.614 1.614 0 0 0 .47-1.054 52.531 52.531 0 0 0-.066-5.991 1.617 1.617 0 0 0-.469-1.043l-6.886-6.885a1.611 1.611 0 0 0-2.278 0l-9 9a1.611 1.611 0 0 0-.002 2.28z" style="fill:#5b3a00" transform="translate(-172.361 -4651.378)"/>
                                <path data-name="Path 1421" d="m285.661 4723.733-.006.006a3.612 3.612 0 0 1-5.1 0l-9.869-9.869a3.613 3.613 0 0 1 0-5.1l9-9a3.612 3.612 0 0 1 5.1 0l6.886 6.885a3.609 3.609 0 0 1 1.05 2.334 54.2 54.2 0 0 1 .067 6.221 3.607 3.607 0 0 1-1.046 2.353zm-11.878-12.415 9.319 9.319 5.707-5.794a50.351 50.351 0 0 0-.064-5.471l-6.508-6.508z" style="fill:#5b3a00" transform="translate(-172.361 -4651.378)"/>
                            </g>
                        </g>
                        <g data-name="Group 3167">
                            <g data-name="Group 3166" transform="translate(-172.361 -4651.378)">
                                <rect data-name="Rectangle 190" width="15.953" height="17.113" rx="1.511" transform="rotate(-45 5818.176 2090.031)" style="fill:#5b3a00"/>
                                <path data-name="Path 1422" d="m249.955 4729.529-9.144 9.144a3.512 3.512 0 0 1-4.962 0l-9.964-9.965a3.512 3.512 0 0 1 0-4.962l9.144-9.144a3.512 3.512 0 0 1 4.962 0l9.965 9.965a3.513 3.513 0 0 1-.001 4.962zm-11.625 5.971 8.455-8.454-9.276-9.275-8.454 8.454z" style="fill:#5b3a00"/>
                            </g>
                        </g>
                        <g data-name="Group 3169">
                            <g data-name="Group 3168">
                                <path data-name="Path 1423" d="m236.371 4745.9-9 9a1.611 1.611 0 0 0 0 2.278l7.264 7.264a1.618 1.618 0 0 0 1.064.471 51.845 51.845 0 0 0 5.292-.016 1.611 1.611 0 0 0 1.055-.47l6.429-6.429a1.611 1.611 0 0 0 0-2.277l-9.824-9.824a1.612 1.612 0 0 0-2.28.003z" style="fill:#5b3a00" transform="translate(-172.361 -4651.378)"/>
                                <path data-name="Path 1424" d="m249.884 4759.418-6.428 6.429a3.611 3.611 0 0 1-2.36 1.053 54.18 54.18 0 0 1-5.5.015 3.6 3.6 0 0 1-2.379-1.053l-7.265-7.264a3.613 3.613 0 0 1 0-5.1l9-9a3.612 3.612 0 0 1 5.1 0l9.823 9.823a3.612 3.612 0 0 1 .009 5.097zm-9.15 3.5 6.05-6.05-9.275-9.275-8.454 8.454 6.885 6.885c1.59.068 3.201.068 4.794-.015z" style="fill:#5b3a00" transform="translate(-172.361 -4651.378)"/>
                            </g>
                        </g>
                        <g data-name="Group 3171">
                            <g data-name="Group 3170">
                                <path data-name="Path 1425" d="m251.28 4731-8.957 8.957a1.666 1.666 0 0 0-.046 2.323l9.869 9.869a1.667 1.667 0 0 0 2.323-.045l8.957-8.957a1.611 1.611 0 0 0 0-2.278l-9.869-9.869a1.61 1.61 0 0 0-2.277 0z" style="fill:#5b3a00" transform="translate(-172.361 -4651.378)"/>
                                <path data-name="Path 1426" d="m264.839 4744.555-8.957 8.957a3.646 3.646 0 0 1-5.149.045l-9.869-9.869a3.646 3.646 0 0 1 .046-5.149l8.957-8.957a3.612 3.612 0 0 1 5.1 0l9.869 9.869a3.613 3.613 0 0 1 .003 5.104zm-11.554 5.9 8.454-8.454-9.32-9.321-8.455 8.455z" style="fill:#5b3a00" transform="translate(-172.361 -4651.378)"/>
                            </g>
                        </g>
                        <g data-name="Group 3173">
                            <g data-name="Group 3172" transform="translate(-172.361 -4651.378)">
                                <rect data-name="Rectangle 191" width="15.953" height="17.113" rx="1.511" transform="rotate(-45 5828.719 2115.483)" style="fill:#5b3a00"/>
                                <path data-name="Path 1427" d="m235.046 4744.438-9.144 9.144a3.512 3.512 0 0 1-4.962 0l-9.965-9.964a3.514 3.514 0 0 1 0-4.963l9.144-9.143a3.512 3.512 0 0 1 4.962 0l9.965 9.964a3.513 3.513 0 0 1 0 4.962zm-11.625 5.974 8.454-8.455-9.275-9.275-8.454 8.455z" style="fill:#5b3a00"/>
                            </g>
                        </g>
                        <g data-name="Group 3175">
                            <g data-name="Group 3174" transform="translate(-172.361 -4651.378)">
                                <rect data-name="Rectangle 192" width="15.953" height="17.113" rx="1.511" transform="rotate(-45 5803.267 2126.025)" style="fill:#5b3a00"/>
                                <path data-name="Path 1428" d="m220.136 4729.529-9.143 9.144a3.514 3.514 0 0 1-4.963 0l-9.964-9.965a3.513 3.513 0 0 1 0-4.962l9.144-9.144a3.512 3.512 0 0 1 4.962 0l9.964 9.965a3.511 3.511 0 0 1 0 4.962zm-11.624 5.973 8.454-8.454-9.275-9.275-8.455 8.454z" style="fill:#5b3a00"/>
                            </g>
                        </g>
                        <g data-name="Group 3177">
                            <g data-name="Group 3176" transform="translate(-172.361 -4651.378)">
                                <rect data-name="Rectangle 193" width="15.953" height="17.113" rx="1.511" transform="rotate(-45 5792.724 2100.573)" style="fill:#5b3a00"/>
                                <path data-name="Path 1429" d="m235.046 4714.62-9.144 9.144a3.513 3.513 0 0 1-4.962 0l-9.965-9.965a3.513 3.513 0 0 1 0-4.962l9.144-9.144a3.513 3.513 0 0 1 4.962 0l9.965 9.965a3.513 3.513 0 0 1 0 4.962zm-11.625 5.973 8.454-8.454-9.275-9.275-8.454 8.454z" style="fill:#5b3a00"/>
                            </g>
                        </g>
                        <g data-name="Group 3179">
                            <g data-name="Group 3178" transform="translate(-172.361 -4651.378)">
                                <rect data-name="Rectangle 194" width="15.953" height="17.113" rx="1.511" transform="rotate(-45 5756.73 2085.664)" style="fill:#5b3a00"/>
                                <path data-name="Path 1430" d="m235.046 4684.8-9.144 9.144a3.512 3.512 0 0 1-4.962 0l-9.965-9.964a3.514 3.514 0 0 1 0-4.963l9.144-9.143a3.511 3.511 0 0 1 4.962 0l9.965 9.964a3.513 3.513 0 0 1 0 4.962zm-11.625 5.974 8.454-8.455-9.275-9.275-8.454 8.454z" style="fill:#5b3a00"/>
                            </g>
                        </g>
                        <g data-name="Group 3181">
                            <g data-name="Group 3180">
                                <path data-name="Path 1431" d="m233.486 4659.333-6.189 6.189a1.51 1.51 0 0 0 0 2.136l10.009 9.965a1.51 1.51 0 0 0 2.136 0l9.144-9.144a1.51 1.51 0 0 0 0-2.136l-7.037-6.994a1.519 1.519 0 0 0-.979-.44 51.641 51.641 0 0 0-6.1-.016 1.51 1.51 0 0 0-.984.44z" style="fill:#5b3a00" transform="translate(-172.361 -4651.378)"/>
                                <path data-name="Path 1432" d="m250 4669.892-9.144 9.144a3.513 3.513 0 0 1-4.962 0l-10.005-9.962a3.513 3.513 0 0 1 0-4.965l6.189-6.189a3.5 3.5 0 0 1 2.287-1.022 53.747 53.747 0 0 1 6.334.017 3.508 3.508 0 0 1 2.268 1.021l7.033 6.989a3.515 3.515 0 0 1 0 4.967zm-11.285 6.314zm-.341-.34 8.454-8.454-6.56-6.519a50.037 50.037 0 0 0-5.5-.015l-5.711 5.711zm1.767-15.1z" style="fill:#5b3a00" transform="translate(-172.361 -4651.378)"/>
                            </g>
                        </g>
                        <g data-name="Group 3183">
                            <g data-name="Group 3182" transform="translate(-172.361 -4651.378)">
                                <rect data-name="Rectangle 195" width="15.953" height="17.113" rx="1.511" transform="rotate(-45 5797.091 2039.127)" style="fill:#5b3a00"/>
                                <path data-name="Path 1433" d="m279.774 4699.711-9.144 9.143a3.512 3.512 0 0 1-4.962 0l-9.965-9.964a3.513 3.513 0 0 1 0-4.962l9.144-9.144a3.512 3.512 0 0 1 4.962 0l9.965 9.964a3.514 3.514 0 0 1 0 4.963zm-11.625 5.973 8.454-8.455-9.275-9.275-8.454 8.455z" style="fill:#5b3a00"/>
                            </g>
                        </g>
                        <g data-name="Group 3185">
                            <g data-name="Group 3184" transform="translate(-172.361 -4651.378)">
                                <rect data-name="Rectangle 196" width="15.953" height="17.113" rx="1.511" transform="rotate(-45 5767.272 2111.117)" style="fill:#5b3a00"/>
                                <path data-name="Path 1434" d="m220.136 4699.711-9.143 9.143a3.514 3.514 0 0 1-4.963 0l-9.964-9.964a3.513 3.513 0 0 1 0-4.962l9.144-9.144a3.512 3.512 0 0 1 4.962 0l9.964 9.964a3.512 3.512 0 0 1 0 4.963zm-11.624 5.973 8.454-8.455-9.275-9.275-8.455 8.455z" style="fill:#5b3a00"/>
                            </g>
                        </g>
                        <g data-name="Group 3187">
                            <g data-name="Group 3186" transform="translate(-172.361 -4651.378)">
                                <rect data-name="Rectangle 197" width="15.953" height="17.113" rx="1.511" transform="rotate(-45 5782.182 2075.122)" style="fill:#5b3a00"/>
                                <path data-name="Path 1435" d="m249.955 4699.711-9.144 9.143a3.512 3.512 0 0 1-4.962 0l-9.965-9.964a3.512 3.512 0 0 1 0-4.962l9.143-9.144a3.512 3.512 0 0 1 4.962 0l9.965 9.964a3.514 3.514 0 0 1 .001 4.963zm-11.625 5.973 8.455-8.455-9.276-9.275-8.454 8.455z" style="fill:#5b3a00"/>
                            </g>
                        </g>
                        <g data-name="Group 3189">
                            <g data-name="Group 3188" transform="translate(-172.361 -4651.378)">
                                <rect data-name="Rectangle 198" width="15.953" height="17.113" rx="1.511" transform="rotate(-45 5807.633 2064.578)" style="fill:#5b3a00"/>
                                <path data-name="Path 1436" d="m264.864 4714.62-9.143 9.144a3.514 3.514 0 0 1-4.963 0l-9.964-9.965a3.513 3.513 0 0 1 0-4.962l9.143-9.144a3.514 3.514 0 0 1 4.963 0l9.964 9.965a3.513 3.513 0 0 1 0 4.962zm-11.625 5.973 8.455-8.454-9.275-9.275-8.455 8.454z" style="fill:#5b3a00"/>
                            </g>
                        </g>
                        <g data-name="Group 3191">
                            <g data-name="Group 3190" transform="translate(-172.361 -4651.378)">
                                <rect data-name="Rectangle 199" width="15.953" height="17.113" rx="1.511" transform="rotate(-45 5771.64 2049.67)" style="fill:#5b3a00"/>
                                <path data-name="Path 1437" d="m264.864 4684.8-9.143 9.144a3.514 3.514 0 0 1-4.963 0l-9.964-9.964a3.514 3.514 0 0 1 0-4.963l9.143-9.143a3.512 3.512 0 0 1 4.963 0l9.964 9.964a3.513 3.513 0 0 1 0 4.962zm-11.625 5.974 8.455-8.455-9.275-9.275-8.455 8.454z" style="fill:#5b3a00"/>
                            </g>
                        </g>
                    </g>
                    <g data-name="Group 3241">
                        <g data-name="Group 3194">
                            <g data-name="Group 3193">
                                <path data-name="Path 1438" d="m258.064 4758.068 1.24 1.24a1.612 1.612 0 0 0 1.856.3 51.265 51.265 0 0 0 11.129-7.508l-2.992-2.992a1.61 1.61 0 0 0-2.277 0z" style="fill:#5b3a00" transform="translate(-172.361 -4651.378)"/>
                                <path data-name="Path 1439" d="m275.2 4752.193-1.591 1.407a53.344 53.344 0 0 1-11.562 7.8 3.607 3.607 0 0 1-4.16-.68l-2.653-2.653 10.369-10.369a3.612 3.612 0 0 1 5.1 0zm-13.116 4.677a49.4 49.4 0 0 0 7.254-4.887l-1.183-1.184z" style="fill:#5b3a00" transform="translate(-172.361 -4651.378)"/>
                            </g>
                        </g>
                        <g data-name="Group 3196">
                            <g data-name="Group 3195">
                                <path data-name="Path 1440" d="m207.453 4749.042-3.186 3.186a51.294 51.294 0 0 0 11.235 7.506 1.511 1.511 0 0 0 1.735-.287l1.379-1.379-9.026-9.026a1.512 1.512 0 0 0-2.137 0z" style="fill:#5b3a00" transform="translate(-172.361 -4651.378)"/>
                                <path data-name="Path 1441" d="m221.442 4758.068-2.792 2.791a3.509 3.509 0 0 1-4.029.669 53.3 53.3 0 0 1-11.672-7.8l-1.6-1.407 4.693-4.693a3.515 3.515 0 0 1 4.963 0zm-14.222-5.968a49.351 49.351 0 0 0 7.686 5.084l-6.385-6.385z" style="fill:#5b3a00" transform="translate(-172.361 -4651.378)"/>
                            </g>
                        </g>
                        <g data-name="Group 3198">
                            <g data-name="Group 3197">
                                <path data-name="Path 1442" d="m203.707 4683.522-2.942-2.942a1.511 1.511 0 0 0-2.231.1 51.208 51.208 0 0 0-6.934 10.92l.947.947a1.509 1.509 0 0 0 2.136 0z" style="fill:#5b3a00" transform="translate(-172.361 -4651.378)"/>
                                <path data-name="Path 1443" d="m206.533 4683.521-10.44 10.44a3.512 3.512 0 0 1-4.962 0l-1.939-1.94.6-1.27a53.273 53.273 0 0 1 7.208-11.343 3.509 3.509 0 0 1 5.182-.241zm-11.6 5.949 5.948-5.949-1.148-1.148a49.3 49.3 0 0 0-4.8 7.097z" style="fill:#5b3a00" transform="translate(-172.361 -4651.378)"/>
                            </g>
                        </g>
                        <g data-name="Group 3200">
                            <g data-name="Group 3199">
                                <path data-name="Path 1444" d="m192.544 4734.132-1.054 1.054a51.214 51.214 0 0 0 6.889 10.957 1.512 1.512 0 0 0 2.236.108l3.092-3.092-9.027-9.027a1.51 1.51 0 0 0-2.136 0z" style="fill:#5b3a00" transform="translate(-172.361 -4651.378)"/>
                                <path data-name="Path 1445" d="m206.533 4743.159-4.506 4.5a3.508 3.508 0 0 1-5.192-.253 53.23 53.23 0 0 1-7.157-11.384l-.588-1.266 2.041-2.042a3.512 3.512 0 0 1 4.962 0zm-6.95 1.3 1.3-1.3-6.35-6.35a49.456 49.456 0 0 0 5.05 7.647z" style="fill:#5b3a00" transform="translate(-172.361 -4651.378)"/>
                            </g>
                        </g>
                        <g data-name="Group 3202">
                            <g data-name="Group 3201">
                                <path data-name="Path 1446" d="m272.973 4743.159 2.869 2.869a1.609 1.609 0 0 0 2.387-.121 51.192 51.192 0 0 0 6.78-10.9l-.8-.8a1.611 1.611 0 0 0-2.278 0z" style="fill:#5b3a00" transform="translate(-172.361 -4651.378)"/>
                                <path data-name="Path 1447" d="M279.532 4747.442a3.609 3.609 0 0 1-5.1 0l-4.281-4.282 10.368-10.369a3.613 3.613 0 0 1 5.1 0l1.785 1.785-.58 1.264a53.214 53.214 0 0 1-7.045 11.328 3.551 3.551 0 0 1-.247.274zm-3.733-4.283 1.151 1.15a49.4 49.4 0 0 0 4.62-6.921z" style="fill:#5b3a00" transform="translate(-172.361 -4651.378)"/>
                            </g>
                        </g>
                        <g data-name="Group 3204">
                            <g data-name="Group 3203">
                                <path data-name="Path 1448" d="m218.616 4668.612-1.154-1.154a1.513 1.513 0 0 0-1.729-.291 51.26 51.26 0 0 0-11.287 7.464l3.007 3.008a1.512 1.512 0 0 0 2.137 0z" style="fill:#5b3a00" transform="translate(-172.361 -4651.378)"/>
                                <path data-name="Path 1449" d="M221.442 4668.612 211 4679.051a3.513 3.513 0 0 1-4.963 0l-4.521-4.522 1.615-1.406a53.3 53.3 0 0 1 11.727-7.754 3.51 3.51 0 0 1 4.014.675zm-12.92 7.269 5.649-5.65a49.4 49.4 0 0 0-6.765 4.534z" style="fill:#5b3a00" transform="translate(-172.361 -4651.378)"/>
                            </g>
                        </g>
                        <g data-name="Group 3206">
                            <g data-name="Group 3205">
                                <path data-name="Path 1450" d="m284.148 4692.536.756-.756a51.165 51.165 0 0 0-6.9-10.948 1.51 1.51 0 0 0-2.234-.108l-2.8 2.8 9.015 9.014a1.527 1.527 0 0 0 2.163-.002z" style="fill:#5b3a00" transform="translate(-172.361 -4651.378)"/>
                                <path data-name="Path 1451" d="m287.3 4692.205-1.744 1.744a3.529 3.529 0 0 1-4.986 0l-10.428-10.428 4.211-4.21a3.51 3.51 0 0 1 5.19.251 53.273 53.273 0 0 1 7.168 11.375zm-11.506-8.684 5.343 5.343a49.489 49.489 0 0 0-4.34-6.345z" style="fill:#5b3a00" transform="translate(-172.361 -4651.378)"/>
                            </g>
                        </g>
                        <g data-name="Group 3208">
                            <g data-name="Group 3207">
                                <path data-name="Path 1452" d="m203.707 4713.34-9.027-9.026a1.51 1.51 0 0 0-2.136 0l-5.3 5.3a1.516 1.516 0 0 0-.441.987 51.9 51.9 0 0 0 .013 6.033l5.73 5.73a1.51 1.51 0 0 0 2.136 0z" style="fill:#5b3a00" transform="translate(-172.361 -4651.378)"/>
                                <path data-name="Path 1453" d="m206.533 4713.34-10.44 10.439a3.512 3.512 0 0 1-4.962 0l-6.266-6.265-.046-.757a54.116 54.116 0 0 1-.013-6.266 3.51 3.51 0 0 1 1.023-2.288l5.3-5.3a3.513 3.513 0 0 1 4.962 0zm-12.921 7.269 7.269-7.269-7.269-7.269-4.825 4.826a50.026 50.026 0 0 0-.018 4.868z" style="fill:#5b3a00" transform="translate(-172.361 -4651.378)"/>
                            </g>
                        </g>
                        <g data-name="Group 3210">
                            <g data-name="Group 3209">
                                <path data-name="Path 1454" d="m269.227 4677.639 2.885-2.885a51.254 51.254 0 0 0-11.246-7.5 1.511 1.511 0 0 0-1.734.288l-1.068 1.068 9.026 9.027a1.512 1.512 0 0 0 2.137.002z" style="fill:#5b3a00" transform="translate(-172.361 -4651.378)"/>
                                <path data-name="Path 1455" d="m275.034 4674.658-4.394 4.393a3.512 3.512 0 0 1-4.963 0l-10.439-10.439 2.481-2.481a3.511 3.511 0 0 1 4.027-.67 53.367 53.367 0 0 1 11.683 7.79zm-6.875 1.223 1-1a49.324 49.324 0 0 0-6.307-4.309z" style="fill:#5b3a00" transform="translate(-172.361 -4651.378)"/>
                            </g>
                        </g>
                        <g data-name="Group 3212">
                            <g data-name="Group 3211">
                                <path data-name="Path 1456" d="m267.02 4719.294-8.956 8.955 8.956 8.956a1.61 1.61 0 0 0 2.277 0l8.956-8.956-8.956-8.955a1.61 1.61 0 0 0-2.277 0z" style="fill:#5b3a00" transform="translate(-172.361 -4651.378)"/>
                                <path data-name="Path 1457" d="m281.079 4728.249-10.369 10.369a3.613 3.613 0 0 1-5.1 0l-10.369-10.369 10.369-10.368a3.613 3.613 0 0 1 5.1 0zm-12.92 7.269 7.268-7.269-7.268-7.268-7.269 7.268z" style="fill:#5b3a00" transform="translate(-172.361 -4651.378)"/>
                            </g>
                        </g>
                        <g data-name="Group 3214">
                            <g data-name="Group 3213">
                                <path data-name="Path 1458" d="m272.973 4713.34 8.956 8.956a1.611 1.611 0 0 0 2.278 0l4.944-4.945a1.606 1.606 0 0 0 .47-1.053 51.855 51.855 0 0 0-.061-6.561l-5.353-5.353a1.611 1.611 0 0 0-2.278 0z" style="fill:#5b3a00" transform="translate(-172.361 -4651.378)"/>
                                <path data-name="Path 1459" d="m290.564 4718.764-4.944 4.945a3.613 3.613 0 0 1-5.1 0l-10.369-10.369 10.369-10.369a3.613 3.613 0 0 1 5.1 0l5.878 5.879.054.742a53.767 53.767 0 0 1 .064 6.813 3.6 3.6 0 0 1-1.052 2.359zm-7.5 1.845 4.566-4.566a50.081 50.081 0 0 0-.019-5.425l-4.547-4.547-7.269 7.269z" style="fill:#5b3a00" transform="translate(-172.361 -4651.378)"/>
                            </g>
                        </g>
                        <g data-name="Group 3216">
                            <g data-name="Group 3215">
                                <path data-name="Path 1460" d="m239.408 4737.276 9.027-9.027-9.027-9.026a1.509 1.509 0 0 0-2.136 0l-9.027 9.026 9.027 9.027a1.509 1.509 0 0 0 2.136 0z" style="fill:#5b3a00" transform="translate(-172.361 -4651.378)"/>
                                <path data-name="Path 1461" d="m251.261 4728.249-10.44 10.44a3.512 3.512 0 0 1-4.962 0l-10.439-10.44 10.439-10.439a3.512 3.512 0 0 1 4.962 0zm-12.921 7.269 7.269-7.269-7.269-7.268-7.269 7.268z" style="fill:#5b3a00" transform="translate(-172.361 -4651.378)"/>
                            </g>
                        </g>
                        <g data-name="Group 3218">
                            <g data-name="Group 3217">
                                <path data-name="Path 1462" d="m237.2 4749.112-8.956 8.956 6.4 6.4a1.615 1.615 0 0 0 1.064.47 51.845 51.845 0 0 0 5.292-.015 1.621 1.621 0 0 0 1.055-.47l6.382-6.382-8.956-8.956a1.611 1.611 0 0 0-2.281-.003z" style="fill:#5b3a00" transform="translate(-172.361 -4651.378)"/>
                                <path data-name="Path 1463" d="m251.261 4758.068-7.795 7.795a3.6 3.6 0 0 1-2.36 1.052 53.9 53.9 0 0 1-5.5.016 3.6 3.6 0 0 1-2.379-1.053l-7.81-7.81 10.368-10.369a3.613 3.613 0 0 1 5.1 0zm-10.517 4.864 4.865-4.864-7.269-7.269-7.269 7.269 4.879 4.878c1.59.072 3.201.068 4.794-.014z" style="fill:#5b3a00" transform="translate(-172.361 -4651.378)"/>
                            </g>
                        </g>
                        <g data-name="Group 3220">
                            <g data-name="Group 3219">
                                <path data-name="Path 1464" d="m252.111 4734.2-8.956 8.956 8.956 8.955a1.609 1.609 0 0 0 2.277 0l8.956-8.955-8.956-8.956a1.61 1.61 0 0 0-2.277 0z" style="fill:#5b3a00" transform="translate(-172.361 -4651.378)"/>
                                <path data-name="Path 1465" d="m266.17 4743.159-10.37 10.368a3.612 3.612 0 0 1-5.1 0l-10.369-10.368 10.369-10.369a3.612 3.612 0 0 1 5.1 0zm-12.921 7.268 7.269-7.268-7.269-7.269-7.268 7.269z" style="fill:#5b3a00" transform="translate(-172.361 -4651.378)"/>
                            </g>
                        </g>
                        <g data-name="Group 3222">
                            <g data-name="Group 3221">
                                <path data-name="Path 1466" d="m224.5 4752.185 9.026-9.026-9.026-9.027a1.51 1.51 0 0 0-2.136 0l-9.027 9.027 9.027 9.026a1.51 1.51 0 0 0 2.136 0z" style="fill:#5b3a00" transform="translate(-172.361 -4651.378)"/>
                                <path data-name="Path 1467" d="m236.351 4743.159-10.439 10.441a3.513 3.513 0 0 1-4.962 0l-10.44-10.439 10.44-10.44a3.512 3.512 0 0 1 4.962 0zm-12.92 7.268 7.269-7.268-7.269-7.269-7.269 7.269z" style="fill:#5b3a00" transform="translate(-172.361 -4651.378)"/>
                            </g>
                        </g>
                        <g data-name="Group 3224">
                            <g data-name="Group 3223">
                                <path data-name="Path 1468" d="m207.453 4719.223-9.026 9.026 9.026 9.027a1.511 1.511 0 0 0 2.137 0l9.026-9.027-9.026-9.026a1.511 1.511 0 0 0-2.137 0z" style="fill:#5b3a00" transform="translate(-172.361 -4651.378)"/>
                                <path data-name="Path 1469" d="M221.442 4728.249 211 4738.689a3.514 3.514 0 0 1-4.963 0l-10.439-10.44 10.439-10.439a3.514 3.514 0 0 1 4.963 0zm-12.92 7.269 7.268-7.269-7.268-7.268-7.269 7.268z" style="fill:#5b3a00" transform="translate(-172.361 -4651.378)"/>
                            </g>
                        </g>
                        <g data-name="Group 3226">
                            <g data-name="Group 3225">
                                <path data-name="Path 1470" d="m222.363 4704.314-9.027 9.026 9.027 9.026a1.51 1.51 0 0 0 2.136 0l9.026-9.026-9.026-9.026a1.51 1.51 0 0 0-2.136 0z" style="fill:#5b3a00" transform="translate(-172.361 -4651.378)"/>
                                <path data-name="Path 1471" d="m236.351 4713.34-10.439 10.439a3.512 3.512 0 0 1-4.962 0l-10.44-10.439 10.44-10.439a3.513 3.513 0 0 1 4.962 0zm-12.92 7.269 7.269-7.269-7.269-7.269-7.269 7.269z" style="fill:#5b3a00" transform="translate(-172.361 -4651.378)"/>
                            </g>
                        </g>
                        <g data-name="Group 3228">
                            <g data-name="Group 3227">
                                <path data-name="Path 1472" d="m224.5 4692.548 9.026-9.026-9.026-9.022a1.509 1.509 0 0 0-2.136 0l-9.027 9.027 9.027 9.026a1.509 1.509 0 0 0 2.136-.005z" style="fill:#5b3a00" transform="translate(-172.361 -4651.378)"/>
                                <path data-name="Path 1473" d="m236.351 4683.522-10.439 10.439a3.512 3.512 0 0 1-4.962 0l-10.44-10.439 10.44-10.44a3.512 3.512 0 0 1 4.962 0zm-12.92 7.268 7.269-7.268-7.269-7.269-7.269 7.269z" style="fill:#5b3a00" transform="translate(-172.361 -4651.378)"/>
                            </g>
                        </g>
                        <g data-name="Group 3230">
                            <g data-name="Group 3229">
                                <path data-name="Path 1474" d="m234.317 4662.541-6.072 6.071 9.027 9.027a1.51 1.51 0 0 0 2.136 0l9.027-9.027-6.056-6.055a1.51 1.51 0 0 0-.978-.44 51.641 51.641 0 0 0-6.1-.017 1.514 1.514 0 0 0-.984.441z" style="fill:#5b3a00" transform="translate(-172.361 -4651.378)"/>
                                <path data-name="Path 1475" d="m251.261 4668.612-10.44 10.44a3.512 3.512 0 0 1-4.962 0l-10.439-10.44 7.484-7.484a3.51 3.51 0 0 1 2.287-1.023 54.154 54.154 0 0 1 6.333.017 3.509 3.509 0 0 1 2.268 1.022zm-12.921 7.269 7.269-7.269-4.509-4.512a49.9 49.9 0 0 0-5.5-.015l-4.527 4.527z" style="fill:#5b3a00" transform="translate(-172.361 -4651.378)"/>
                            </g>
                        </g>
                        <g data-name="Group 3232">
                            <g data-name="Group 3231">
                                <path data-name="Path 1476" d="m269.227 4707.457 9.026-9.026-9.026-9.027a1.512 1.512 0 0 0-2.137 0l-9.026 9.027 9.026 9.026a1.512 1.512 0 0 0 2.137 0z" style="fill:#5b3a00" transform="translate(-172.361 -4651.378)"/>
                                <path data-name="Path 1477" d="m281.079 4698.431-10.439 10.439a3.515 3.515 0 0 1-4.963 0l-10.439-10.439 10.439-10.44a3.513 3.513 0 0 1 4.963 0zm-12.92 7.269 7.268-7.269-7.268-7.269-7.269 7.269z" style="fill:#5b3a00" transform="translate(-172.361 -4651.378)"/>
                            </g>
                        </g>
                        <g data-name="Group 3234">
                            <g data-name="Group 3233">
                                <path data-name="Path 1478" d="m209.59 4707.457 9.026-9.026-9.026-9.027a1.512 1.512 0 0 0-2.137 0l-9.026 9.027 9.026 9.026a1.512 1.512 0 0 0 2.137 0z" style="fill:#5b3a00" transform="translate(-172.361 -4651.378)"/>
                                <path data-name="Path 1479" d="M221.442 4698.431 211 4708.87a3.515 3.515 0 0 1-4.963 0l-10.437-10.439 10.439-10.439a3.513 3.513 0 0 1 4.963 0zm-12.92 7.269 7.268-7.269-7.268-7.269-7.269 7.269z" style="fill:#5b3a00" transform="translate(-172.361 -4651.378)"/>
                            </g>
                        </g>
                        <g data-name="Group 3236">
                            <g data-name="Group 3235">
                                <path data-name="Path 1480" d="m237.272 4689.4-9.027 9.027 9.027 9.026a1.51 1.51 0 0 0 2.136 0l9.027-9.026-9.027-9.027a1.51 1.51 0 0 0-2.136 0z" style="fill:#5b3a00" transform="translate(-172.361 -4651.378)"/>
                                <path data-name="Path 1481" d="m251.261 4698.431-10.44 10.439a3.513 3.513 0 0 1-4.962 0l-10.439-10.439 10.439-10.44a3.512 3.512 0 0 1 4.962 0zm-12.921 7.269 7.269-7.269-7.269-7.269-7.269 7.269z" style="fill:#5b3a00" transform="translate(-172.361 -4651.378)"/>
                            </g>
                        </g>
                        <g data-name="Group 3238">
                            <g data-name="Group 3237">
                                <path data-name="Path 1482" d="m254.318 4722.366 9.026-9.026-9.026-9.026a1.512 1.512 0 0 0-2.137 0l-9.026 9.026 9.026 9.026a1.512 1.512 0 0 0 2.137 0z" style="fill:#5b3a00" transform="translate(-172.361 -4651.378)"/>
                                <path data-name="Path 1483" d="m266.17 4713.34-10.44 10.439a3.512 3.512 0 0 1-4.962 0l-10.439-10.439 10.439-10.439a3.513 3.513 0 0 1 4.962 0zm-12.921 7.269 7.269-7.269-7.269-7.269-7.268 7.269z" style="fill:#5b3a00" transform="translate(-172.361 -4651.378)"/>
                            </g>
                        </g>
                        <g data-name="Group 3240">
                            <g data-name="Group 3239">
                                <path data-name="Path 1484" d="m252.181 4674.5-9.026 9.027 9.026 9.026a1.511 1.511 0 0 0 2.137 0l9.026-9.026-9.026-9.027a1.511 1.511 0 0 0-2.137 0z" style="fill:#5b3a00" transform="translate(-172.361 -4651.378)"/>
                                <path data-name="Path 1485" d="m266.17 4683.522-10.44 10.439a3.512 3.512 0 0 1-4.962 0l-10.439-10.439 10.439-10.44a3.512 3.512 0 0 1 4.962 0zm-12.921 7.268 7.269-7.268-7.269-7.269-7.268 7.269z" style="fill:#5b3a00" transform="translate(-172.361 -4651.378)"/>
                            </g>
                        </g>
                    </g>
                    <g data-name="Group 3246">
                        <g data-name="Group 3243">
                            <g data-name="Group 3242">
                                <path data-name="Path 1486" d="m218.633 4730.295-8.06 8.061a2.949 2.949 0 0 1-4.165 0l-8.282-8.282a.613.613 0 0 1 .867-.866l8.281 8.282a1.723 1.723 0 0 0 2.432 0l8.061-8.061a.612.612 0 0 1 .866.866z" style="fill:#5b3a00" transform="translate(-172.361 -4651.378)"/>
                                <path data-name="Path 1487" d="m220.046 4731.708-8.061 8.061a4.949 4.949 0 0 1-6.99 0l-8.282-8.282a2.611 2.611 0 0 1 3.693-3.692l8.084 8.085 7.864-7.864a2.611 2.611 0 1 1 3.692 3.692z" style="fill:#5b3a00" transform="translate(-172.361 -4651.378)"/>
                            </g>
                        </g>
                        <g data-name="Group 3245">
                            <g data-name="Group 3244">
                                <path data-name="Path 1488" d="m233.561 4745.223-8.06 8.061a2.949 2.949 0 0 1-4.165 0l-8.282-8.284a.613.613 0 0 1 .867-.866l8.281 8.281a1.721 1.721 0 0 0 2.432 0l8.061-8.06a.612.612 0 1 1 .866.866z" style="fill:#5b3a00" transform="translate(-172.361 -4651.378)"/>
                                <path data-name="Path 1489" d="m234.974 4746.636-8.061 8.061a4.948 4.948 0 0 1-6.99 0l-8.282-8.282a2.611 2.611 0 0 1 3.693-3.692l8.084 8.085 7.864-7.864a2.611 2.611 0 0 1 3.692 3.692z" style="fill:#5b3a00" transform="translate(-172.361 -4651.378)"/>
                            </g>
                        </g>
                    </g>
                    <g data-name="Group 3248">
                        <g data-name="Group 3247">
                            <path data-name="Path 1490" d="m233.551 4715.378-8.061 8.06a2.946 2.946 0 0 1-4.164 0l-8.282-8.281a.613.613 0 0 1 .866-.867l8.282 8.282a1.722 1.722 0 0 0 2.432 0l8.06-8.06a.613.613 0 0 1 .867.866z" style="fill:#5b3a00" transform="translate(-172.361 -4651.378)"/>
                            <path data-name="Path 1491" d="m234.963 4716.791-8.06 8.06a4.947 4.947 0 0 1-6.99 0l-8.282-8.281a2.611 2.611 0 1 1 3.692-3.693l8.085 8.085 7.863-7.863a2.611 2.611 0 1 1 3.692 3.692z" style="fill:#5b3a00" transform="translate(-172.361 -4651.378)"/>
                        </g>
                    </g>
                    <g data-name="Group 3250">
                        <g data-name="Group 3249">
                            <path data-name="Path 1492" d="m248.478 4730.306-8.06 8.06a2.947 2.947 0 0 1-4.165 0l-8.281-8.281a.613.613 0 0 1 .866-.867l8.282 8.282a1.723 1.723 0 0 0 2.432 0l8.06-8.06a.612.612 0 1 1 .866.866z" style="fill:#5b3a00" transform="translate(-172.361 -4651.378)"/>
                            <path data-name="Path 1493" d="m249.891 4731.719-8.06 8.06a4.948 4.948 0 0 1-6.99 0l-8.282-8.281a2.611 2.611 0 0 1 3.692-3.693l8.085 8.085 7.863-7.863a2.611 2.611 0 0 1 3.692 3.692z" style="fill:#5b3a00" transform="translate(-172.361 -4651.378)"/>
                        </g>
                    </g>
                    <g data-name="Group 3252">
                        <g data-name="Group 3251">
                            <path data-name="Path 1494" d="m248.45 4700.479-8.061 8.06a2.948 2.948 0 0 1-4.164 0l-8.282-8.281a.613.613 0 1 1 .866-.867l8.282 8.282a1.723 1.723 0 0 0 2.432 0l8.06-8.061a.613.613 0 1 1 .867.867z" style="fill:#5b3a00" transform="translate(-172.361 -4651.378)"/>
                            <path data-name="Path 1495" d="m249.863 4701.892-8.061 8.06a4.949 4.949 0 0 1-6.99 0l-8.282-8.282a2.611 2.611 0 1 1 3.692-3.692l8.085 8.085 7.863-7.864a2.611 2.611 0 0 1 3.693 3.693z" style="fill:#5b3a00" transform="translate(-172.361 -4651.378)"/>
                        </g>
                    </g>
                    <g data-name="Group 3254">
                        <g data-name="Group 3253">
                            <path data-name="Path 1496" d="m218.623 4700.45-8.061 8.06a2.945 2.945 0 0 1-4.164 0l-8.282-8.281a.613.613 0 1 1 .866-.867l8.282 8.282a1.721 1.721 0 0 0 2.432 0l8.06-8.06a.613.613 0 0 1 .867.866z" style="fill:#5b3a00" transform="translate(-172.361 -4651.378)"/>
                            <path data-name="Path 1497" d="m220.036 4701.863-8.061 8.06a4.946 4.946 0 0 1-6.99 0l-8.282-8.281a2.611 2.611 0 0 1 3.692-3.692l8.085 8.084 7.863-7.863a2.611 2.611 0 0 1 3.693 3.692z" style="fill:#5b3a00" transform="translate(-172.361 -4651.378)"/>
                        </g>
                    </g>
                    <g data-name="Group 3256">
                        <g data-name="Group 3255">
                            <path data-name="Path 1498" d="m203.705 4715.368-8.06 8.06a2.949 2.949 0 0 1-4.165 0l-4.178-4.178a.613.613 0 0 1 .867-.866l4.178 4.178a1.721 1.721 0 0 0 2.431 0l8.061-8.061a.613.613 0 0 1 .866.867z" style="fill:#5b3a00" transform="translate(-172.361 -4651.378)"/>
                            <path data-name="Path 1499" d="m205.118 4716.78-8.06 8.061a4.949 4.949 0 0 1-6.991 0l-4.178-4.178a2.611 2.611 0 0 1 3.693-3.692l3.98 3.981 7.864-7.864a2.611 2.611 0 0 1 3.692 3.692z" style="fill:#5b3a00" transform="translate(-172.361 -4651.378)"/>
                        </g>
                    </g>
                    <g data-name="Group 3258">
                        <g data-name="Group 3257">
                            <path data-name="Path 1500" d="m233.522 4685.551-8.061 8.06a2.948 2.948 0 0 1-4.164 0l-8.282-8.281a.613.613 0 0 1 .867-.867l8.281 8.282a1.723 1.723 0 0 0 2.432 0l8.06-8.06a.613.613 0 0 1 .867.866z" style="fill:#5b3a00" transform="translate(-172.361 -4651.378)"/>
                            <path data-name="Path 1501" d="m234.935 4686.964-8.061 8.06a4.948 4.948 0 0 1-6.99 0l-8.282-8.281a2.611 2.611 0 1 1 3.692-3.693l8.085 8.085 7.864-7.863a2.611 2.611 0 0 1 3.692 3.692z" style="fill:#5b3a00" transform="translate(-172.361 -4651.378)"/>
                        </g>
                    </g>
                    <g data-name="Group 3260">
                        <g data-name="Group 3259">
                            <path data-name="Path 1502" d="m203.795 4685.532-8.06 8.06a2.948 2.948 0 0 1-4.165 0l-.074-.074a.613.613 0 1 1 .867-.866l.074.074a1.721 1.721 0 0 0 2.431 0l8.061-8.061a.613.613 0 0 1 .866.867z" style="fill:#5b3a00" transform="translate(-172.361 -4651.378)"/>
                            <path data-name="Path 1503" d="m205.208 4686.944-8.06 8.061a4.949 4.949 0 0 1-6.991 0l-.073-.074a2.61 2.61 0 0 1 3.564-3.811l7.868-7.868a2.611 2.611 0 0 1 3.692 3.692z" style="fill:#5b3a00" transform="translate(-172.361 -4651.378)"/>
                        </g>
                    </g>
                    <g data-name="Group 3262">
                        <g data-name="Group 3261">
                            <path data-name="Path 1504" d="m218.694 4670.632-8.06 8.061a2.949 2.949 0 0 1-4.165 0l-2.217-2.217a.613.613 0 0 1 .867-.867l2.217 2.217a1.721 1.721 0 0 0 2.432 0l8.06-8.06a.612.612 0 1 1 .866.866z" style="fill:#5b3a00" transform="translate(-172.361 -4651.378)"/>
                            <path data-name="Path 1505" d="m220.107 4672.045-8.06 8.061a4.948 4.948 0 0 1-6.99 0l-2.217-2.217a2.611 2.611 0 0 1 3.692-3.692l2.02 2.019 7.863-7.863a2.611 2.611 0 1 1 3.692 3.692z" style="fill:#5b3a00" transform="translate(-172.361 -4651.378)"/>
                        </g>
                    </g>
                    <g data-name="Group 3264">
                        <g data-name="Group 3263">
                            <path data-name="Path 1506" d="m248.439 4670.633-8.06 8.061a2.949 2.949 0 0 1-4.165 0l-8.281-8.282a.612.612 0 1 1 .866-.866l8.282 8.281a1.721 1.721 0 0 0 2.432 0l8.06-8.06a.612.612 0 1 1 .866.866z" style="fill:#5b3a00" transform="translate(-172.361 -4651.378)"/>
                            <path data-name="Path 1507" d="m249.852 4672.046-8.06 8.061a4.949 4.949 0 0 1-6.991 0l-8.281-8.282a2.611 2.611 0 0 1 3.692-3.692l8.085 8.085 7.863-7.864a2.611 2.611 0 0 1 3.692 3.692z" style="fill:#5b3a00" transform="translate(-172.361 -4651.378)"/>
                        </g>
                    </g>
                    <g data-name="Group 3266">
                        <g data-name="Group 3265">
                            <path data-name="Path 1508" d="m263.378 4715.407-8.061 8.06a2.947 2.947 0 0 1-4.164 0l-8.282-8.282a.612.612 0 1 1 .866-.866l8.282 8.282a1.723 1.723 0 0 0 2.432 0l8.06-8.061a.613.613 0 1 1 .867.867z" style="fill:#5b3a00" transform="translate(-172.361 -4651.378)"/>
                            <path data-name="Path 1509" d="m264.791 4716.82-8.061 8.06a4.948 4.948 0 0 1-6.99 0l-8.282-8.282a2.611 2.611 0 0 1 3.692-3.692l8.085 8.085 7.863-7.864a2.611 2.611 0 1 1 3.693 3.693z" style="fill:#5b3a00" transform="translate(-172.361 -4651.378)"/>
                        </g>
                    </g>
                    <g data-name="Group 3268">
                        <g data-name="Group 3267">
                            <path data-name="Path 1510" d="m263.453 4745.281-8.06 8.06a2.949 2.949 0 0 1-4.165 0l-8.282-8.282a.613.613 0 1 1 .867-.866l8.282 8.282a1.721 1.721 0 0 0 2.431 0l8.061-8.061a.613.613 0 1 1 .866.867z" style="fill:#5b3a00" transform="translate(-172.361 -4651.378)"/>
                            <path data-name="Path 1511" d="m264.866 4746.694-8.06 8.06a4.949 4.949 0 0 1-6.991 0l-8.281-8.282a2.611 2.611 0 0 1 3.692-3.692l8.084 8.085 7.864-7.864a2.611 2.611 0 0 1 3.692 3.693z" style="fill:#5b3a00" transform="translate(-172.361 -4651.378)"/>
                        </g>
                    </g>
                    <g data-name="Group 3270">
                        <g data-name="Group 3269">
                            <path data-name="Path 1512" d="m278.352 4730.381-8.06 8.061a2.949 2.949 0 0 1-4.165 0l-8.281-8.282a.612.612 0 0 1 .866-.866l8.282 8.281a1.721 1.721 0 0 0 2.432 0l8.06-8.06a.612.612 0 0 1 .866.866z" style="fill:#5b3a00" transform="translate(-172.361 -4651.378)"/>
                            <path data-name="Path 1513" d="m279.765 4731.794-8.06 8.061a4.949 4.949 0 0 1-6.991 0l-8.281-8.282a2.611 2.611 0 0 1 3.692-3.692l8.085 8.085 7.863-7.864a2.611 2.611 0 0 1 3.692 3.692z" style="fill:#5b3a00" transform="translate(-172.361 -4651.378)"/>
                        </g>
                    </g>
                    <g data-name="Group 3272">
                        <g data-name="Group 3271">
                            <path data-name="Path 1514" d="m289.485 4719.249-4.321 4.321a2.949 2.949 0 0 1-4.165 0l-8.281-8.282a.612.612 0 1 1 .866-.866l8.282 8.282a1.721 1.721 0 0 0 2.431 0l4.322-4.322a.613.613 0 0 1 .866.867z" style="fill:#5b3a00" transform="translate(-172.361 -4651.378)"/>
                            <path data-name="Path 1515" d="m290.9 4720.662-4.321 4.321a4.949 4.949 0 0 1-6.991 0l-8.288-8.283a2.611 2.611 0 0 1 3.692-3.692l8.085 8.085 4.124-4.125a2.611 2.611 0 0 1 3.692 3.693z" style="fill:#5b3a00" transform="translate(-172.361 -4651.378)"/>
                        </g>
                    </g>
                    <g data-name="Group 3277">
                        <g data-name="Group 3274">
                            <g data-name="Group 3273">
                                <path data-name="Path 1516" d="m263.322 4685.607-8.061 8.06a2.948 2.948 0 0 1-4.164 0l-8.282-8.281a.613.613 0 0 1 .866-.867l8.282 8.282a1.722 1.722 0 0 0 2.432 0l8.06-8.061a.613.613 0 0 1 .867.867z" style="fill:#5b3a00" transform="translate(-172.361 -4651.378)"/>
                                <path data-name="Path 1517" d="m264.735 4687.02-8.061 8.06a4.949 4.949 0 0 1-6.99 0l-8.284-8.28a2.611 2.611 0 1 1 3.692-3.693l8.085 8.085 7.863-7.863a2.611 2.611 0 0 1 3.693 3.692z" style="fill:#5b3a00" transform="translate(-172.361 -4651.378)"/>
                            </g>
                        </g>
                        <g data-name="Group 3276">
                            <g data-name="Group 3275">
                                <path data-name="Path 1518" d="m278.25 4700.535-8.061 8.06a2.948 2.948 0 0 1-4.164 0l-8.282-8.281a.613.613 0 0 1 .866-.867l8.282 8.282a1.723 1.723 0 0 0 2.432 0l8.06-8.061a.613.613 0 0 1 .867.867z" style="fill:#5b3a00" transform="translate(-172.361 -4651.378)"/>
                                <path data-name="Path 1519" d="m279.662 4701.948-8.06 8.06a4.948 4.948 0 0 1-6.99 0l-8.282-8.282a2.611 2.611 0 0 1 3.692-3.692l8.085 8.085 7.863-7.863a2.611 2.611 0 1 1 3.692 3.692z" style="fill:#5b3a00" transform="translate(-172.361 -4651.378)"/>
                            </g>
                        </g>
                    </g>
                    <g data-name="Group 3282">
                        <g data-name="Group 3279">
                            <g data-name="Group 3278">
                                <path data-name="Path 1520" d="m272.276 4676.653-2.042 2.041a2.948 2.948 0 0 1-4.164 0l-8.282-8.282a.613.613 0 0 1 .867-.866l8.281 8.282a1.723 1.723 0 0 0 2.432 0l2.041-2.042a.613.613 0 1 1 .867.867z" style="fill:#5b3a00" transform="translate(-172.361 -4651.378)"/>
                                <path data-name="Path 1521" d="m273.689 4678.066-2.042 2.041a4.948 4.948 0 0 1-6.99 0l-8.282-8.282a2.611 2.611 0 0 1 3.692-3.692l8.085 8.085 1.844-1.845a2.611 2.611 0 1 1 3.693 3.693z" style="fill:#5b3a00" transform="translate(-172.361 -4651.378)"/>
                            </g>
                        </g>
                        <g data-name="Group 3281">
                            <g data-name="Group 3280">
                                <path data-name="Path 1522" d="m285.162 4693.622-.01.011-.009.009a2.949 2.949 0 0 1-4.145-.02l-8.282-8.282a.612.612 0 1 1 .866-.866l8.282 8.282a1.723 1.723 0 0 0 2.432 0 .612.612 0 0 1 .866.866z" style="fill:#5b3a00" transform="translate(-172.361 -4651.378)"/>
                                <path data-name="Path 1523" d="m286.575 4695.035-.01.011-.027.026a4.958 4.958 0 0 1-6.953-.037l-8.282-8.282a2.611 2.611 0 0 1 3.692-3.692l8.1 8.095a2.611 2.611 0 0 1 3.484 3.879z" style="fill:#5b3a00" transform="translate(-172.361 -4651.378)"/>
                            </g>
                        </g>
                    </g>
                    <g data-name="Group 3284">
                        <g data-name="Group 3283">
                            <path data-name="Path 1524" d="M272.264 4753.962a.994.994 0 0 1-.047.042 58.408 58.408 0 0 1-10.217 6.924 3.189 3.189 0 0 1-3.8-.614l-.244-.245a.612.612 0 0 1 .866-.866l.244.244a1.973 1.973 0 0 0 2.345.405 57.376 57.376 0 0 0 10.031-6.8.613.613 0 0 1 .821.908z" style="fill:#5b3a00" transform="translate(-172.361 -4651.378)"/>
                            <path data-name="Path 1525" d="M273.677 4755.375c-.06.06-.125.118-.191.173a60.239 60.239 0 0 1-10.531 7.134 5.174 5.174 0 0 1-6.167-.955l-.244-.245a2.611 2.611 0 0 1 3.692-3.692l.244.244a.284.284 0 0 0 .036.031 55.624 55.624 0 0 0 9.665-6.56 2.611 2.611 0 0 1 3.5 3.87z" style="fill:#5b3a00" transform="translate(-172.361 -4651.378)"/>
                        </g>
                    </g>
                    <g data-name="Group 3286">
                        <g data-name="Group 3285">
                            <path data-name="Path 1526" d="M279.132 4747.082a2.964 2.964 0 0 1-1.863.852 3.132 3.132 0 0 1-2.466-.907l-1.832-1.833a.612.612 0 0 1 .866-.866l1.833 1.832a1.908 1.908 0 0 0 1.5.553 1.7 1.7 0 0 0 1.265-.7 63.562 63.562 0 0 0 6.047-9.576.613.613 0 0 1 1.087.565 64.484 64.484 0 0 1-6.141 9.729 2.928 2.928 0 0 1-.296.351z" style="fill:#5b3a00" transform="translate(-172.361 -4651.378)"/>
                            <path data-name="Path 1527" d="M280.545 4748.5a4.963 4.963 0 0 1-3.116 1.431 5.125 5.125 0 0 1-4.038-1.486l-1.833-1.833a2.611 2.611 0 0 1 3.692-3.692l1.719 1.719a60.843 60.843 0 0 0 5.742-9.118 2.611 2.611 0 1 1 4.632 2.411 66.1 66.1 0 0 1-6.294 9.977 4.932 4.932 0 0 1-.504.591z" style="fill:#5b3a00" transform="translate(-172.361 -4651.378)"/>
                        </g>
                    </g>
                    <g data-name="Group 3288">
                        <g data-name="Group 3287">
                            <path data-name="Path 1528" d="m219.308 4759.408-1 1a3.112 3.112 0 0 1-3.613.581 55.174 55.174 0 0 1-11.448-7.752.613.613 0 0 1 .808-.921 53.9 53.9 0 0 0 11.194 7.58 1.888 1.888 0 0 0 2.193-.355l1-1a.613.613 0 0 1 .866.867z" style="fill:#5b3a00" transform="translate(-172.361 -4651.378)"/>
                            <path data-name="Path 1529" d="m220.721 4760.821-1 1a5.1 5.1 0 0 1-5.929.95 57.124 57.124 0 0 1-11.864-8.033 2.611 2.611 0 0 1 3.446-3.923 51.921 51.921 0 0 0 10.706 7.262l.95-.95a2.611 2.611 0 0 1 3.692 3.693z" style="fill:#5b3a00" transform="translate(-172.361 -4651.378)"/>
                        </g>
                    </g>
                    <g data-name="Group 3290">
                        <g data-name="Group 3289">
                            <path data-name="Path 1530" d="m204.253 4744.711-2.518 2.519a3.182 3.182 0 0 1-4.748-.275 55.033 55.033 0 0 1-6.685-10.878.613.613 0 1 1 1.111-.516 53.793 53.793 0 0 0 6.536 10.636 1.956 1.956 0 0 0 2.919.167l2.519-2.519a.612.612 0 1 1 .866.866z" style="fill:#5b3a00" transform="translate(-172.361 -4651.378)"/>
                            <path data-name="Path 1531" d="m205.666 4746.124-2.518 2.519a5.18 5.18 0 0 1-7.73-.451 57.069 57.069 0 0 1-6.929-11.274 2.611 2.611 0 0 1 4.737-2.2 51.717 51.717 0 0 0 6.261 10.2l2.487-2.487a2.611 2.611 0 1 1 3.692 3.692z" style="fill:#5b3a00" transform="translate(-172.361 -4651.378)"/>
                        </g>
                    </g>
                    <g data-name="Group 3292">
                        <g data-name="Group 3291">
                            <path data-name="Path 1532" d="m248.377 4760.245-5.235 5.235a2.952 2.952 0 0 1-1.94.864c-1.867.094-3.759.1-5.623.016a2.949 2.949 0 0 1-1.956-.864l-5.251-5.251a.613.613 0 0 1 .867-.866l5.25 5.251a1.729 1.729 0 0 0 1.145.506c1.825.082 3.678.077 5.507-.016a1.723 1.723 0 0 0 1.135-.506l5.235-5.235a.612.612 0 0 1 .866.866z" style="fill:#5b3a00" transform="translate(-172.361 -4651.378)"/>
                            <path data-name="Path 1533" d="m249.79 4761.658-5.235 5.235a4.945 4.945 0 0 1-3.252 1.447c-1.931.1-3.886.1-5.813.017a4.946 4.946 0 0 1-3.28-1.448l-5.251-5.251a2.611 2.611 0 0 1 3.693-3.692l5.179 5.179a56.33 56.33 0 0 0 5.1-.015l5.164-5.164a2.611 2.611 0 1 1 3.692 3.692z" style="fill:#5b3a00" transform="translate(-172.361 -4651.378)"/>
                        </g>
                    </g>
                </g>
            </g>
            <g data-name="Group 3449">
                <g data-name="Group 3296">
                    <g data-name="Group 3295">
                        <path data-name="Path 1534" d="m273.431 4759.569 6.042-6.042-83.115-83.115-6.042 6.042c-21.923 21.923-21.089 58.3 1.862 81.252s59.33 23.786 81.253 1.863" style="fill:#8ea52b" transform="translate(-172.361 -4651.378)"/>
                    </g>
                </g>
                <g data-name="Group 3298">
                    <g data-name="Group 3297" transform="translate(-172.361 -4651.378)">
                        <circle data-name="Ellipse 122" cx="58.771" cy="58.771" r="58.771" transform="translate(179.01 4653.332)" style="fill:#bad654"/>
                    </g>
                </g>
                <g data-name="Group 3448">
                    <g data-name="Group 3347">
                        <g data-name="Group 3300">
                            <g data-name="Group 3299">
                                <path data-name="Path 1535" d="m257.231 4757.14 2.108 2.108a1.61 1.61 0 0 0 1.855.3 67.019 67.019 0 0 0 11.065-7.456 1.61 1.61 0 0 0 .11-2.378l-3.858-3.858a1.611 1.611 0 0 0-2.278 0l-9 9a1.61 1.61 0 0 0-.002 2.284z" style="fill:#647211" transform="translate(-172.361 -4651.378)"/>
                            </g>
                        </g>
                        <g data-name="Group 3302">
                            <g data-name="Group 3301">
                                <path data-name="Path 1536" d="m206.667 4745.79-3.4 3.4a1.511 1.511 0 0 0 .108 2.235 78.733 78.733 0 0 0 12.157 8.254 1.431 1.431 0 0 0 1.69-.242l1.542-1.541a1.512 1.512 0 0 0 0-2.137l-9.965-9.964a1.51 1.51 0 0 0-2.132-.005z" style="fill:#647211" transform="translate(-172.361 -4651.378)"/>
                            </g>
                        </g>
                        <g data-name="Group 3304">
                            <g data-name="Group 3303">
                                <path data-name="Path 1537" d="m203.859 4681.208-3.88-3.88a1.511 1.511 0 0 0-2.231.1 66.616 66.616 0 0 0-7.649 11.122 1.512 1.512 0 0 0 .285 1.741l2.194 2.194a1.511 1.511 0 0 0 2.137 0l9.144-9.144a1.51 1.51 0 0 0 0-2.133z" style="fill:#647211" transform="translate(-172.361 -4651.378)"/>
                            </g>
                        </g>
                        <g data-name="Group 3306">
                            <g data-name="Group 3305">
                                <path data-name="Path 1538" d="m191.758 4730.88-.8.8a1.511 1.511 0 0 0-.288 1.734 79.942 79.942 0 0 0 7.8 12.633 1.51 1.51 0 0 0 2.235.108l3.164-3.164a1.51 1.51 0 0 0 0-2.136l-9.975-9.976a1.51 1.51 0 0 0-2.136.001z" style="fill:#647211" transform="translate(-172.361 -4651.378)"/>
                            </g>
                        </g>
                        <g data-name="Group 3308">
                            <g data-name="Group 3307">
                                <path data-name="Path 1539" d="m272.14 4742.231 3.737 3.737a1.608 1.608 0 0 0 2.386-.121 67.616 67.616 0 0 0 7.063-11.457 1.729 1.729 0 0 0-.386-1.9l-1.52-1.535a1.609 1.609 0 0 0-2.277 0l-9 9a1.611 1.611 0 0 0-.003 2.276z" style="fill:#647211" transform="translate(-172.361 -4651.378)"/>
                            </g>
                        </g>
                        <g data-name="Group 3310">
                            <g data-name="Group 3309">
                                <path data-name="Path 1540" d="m218.768 4666.3-2.092-2.092a1.513 1.513 0 0 0-1.729-.291 66.566 66.566 0 0 0-11.2 7.579 1.511 1.511 0 0 0-.113 2.239l3.85 3.85a1.512 1.512 0 0 0 2.137 0l9.148-9.148a1.512 1.512 0 0 0-.001-2.137z" style="fill:#647211" transform="translate(-172.361 -4651.378)"/>
                            </g>
                        </g>
                        <g data-name="Group 3312">
                            <g data-name="Group 3311">
                                <path data-name="Path 1541" d="m284.17 4692.488.833-.833a1.512 1.512 0 0 0 .288-1.735 79.166 79.166 0 0 0-8.072-12.34 1.511 1.511 0 0 0-2.235-.108l-2.914 2.915a1.51 1.51 0 0 0 0 2.136l9.964 9.965a1.51 1.51 0 0 0 2.136 0z" style="fill:#647211" transform="translate(-172.361 -4651.378)"/>
                            </g>
                        </g>
                        <g data-name="Group 3314">
                            <g data-name="Group 3313">
                                <path data-name="Path 1542" d="m203.859 4711.026-9.965-9.964a1.51 1.51 0 0 0-2.136 0l-6.488 6.487a1.521 1.521 0 0 0-.441.987 52.047 52.047 0 0 0-.019 5.445 1.514 1.514 0 0 0 .441 1l7.327 7.327a1.512 1.512 0 0 0 2.137 0l9.144-9.143a1.512 1.512 0 0 0 0-2.139z" style="fill:#647211" transform="translate(-172.361 -4651.378)"/>
                            </g>
                        </g>
                        <g data-name="Group 3316">
                            <g data-name="Group 3315">
                                <path data-name="Path 1543" d="m269.307 4677.624 3.549-3.549a1.512 1.512 0 0 0-.108-2.236A80.472 80.472 0 0 0 260.08 4664a1.432 1.432 0 0 0-1.689.242l-1.36 1.36a1.366 1.366 0 0 0 .129 2.008l10.01 10.01a1.512 1.512 0 0 0 2.137.004z" style="fill:#647211" transform="translate(-172.361 -4651.378)"/>
                            </g>
                        </g>
                        <g data-name="Group 3318">
                            <g data-name="Group 3317" transform="translate(-172.361 -4651.378)">
                                <rect data-name="Rectangle 200" width="15.953" height="17.113" rx="1.61" transform="rotate(-45 5833.054 2053.961)" style="fill:#647211"/>
                            </g>
                        </g>
                        <g data-name="Group 3320">
                            <g data-name="Group 3319">
                                <path data-name="Path 1544" d="m272.14 4712.412 9.869 9.869a1.61 1.61 0 0 0 2.278 0l6.084-6.175a1.612 1.612 0 0 0 .47-1.054 52.539 52.539 0 0 0-.066-5.992 1.613 1.613 0 0 0-.469-1.042l-6.886-6.886a1.61 1.61 0 0 0-2.277 0l-9 9a1.61 1.61 0 0 0-.003 2.28z" style="fill:#647211" transform="translate(-172.361 -4651.378)"/>
                            </g>
                        </g>
                        <g data-name="Group 3322">
                            <g data-name="Group 3321" transform="translate(-172.361 -4651.378)">
                                <rect data-name="Rectangle 201" width="15.953" height="17.113" rx="1.511" transform="rotate(-45 5818.144 2089.956)" style="fill:#647211"/>
                            </g>
                        </g>
                        <g data-name="Group 3324">
                            <g data-name="Group 3323">
                                <path data-name="Path 1545" d="m236.415 4745.86-9 9a1.61 1.61 0 0 0 0 2.277l7.265 7.265a1.613 1.613 0 0 0 1.063.47 51.865 51.865 0 0 0 5.293-.015 1.618 1.618 0 0 0 1.054-.47l6.429-6.429a1.61 1.61 0 0 0 0-2.277l-9.824-9.824a1.61 1.61 0 0 0-2.28.003z" style="fill:#647211" transform="translate(-172.361 -4651.378)"/>
                            </g>
                        </g>
                        <g data-name="Group 3326">
                            <g data-name="Group 3325" transform="translate(-172.361 -4651.378)">
                                <rect data-name="Rectangle 202" width="15.953" height="17.178" rx="1.61" transform="rotate(-45 5843.596 2079.412)" style="fill:#647211"/>
                            </g>
                        </g>
                        <g data-name="Group 3328">
                            <g data-name="Group 3327" transform="translate(-172.361 -4651.378)">
                                <rect data-name="Rectangle 203" width="15.953" height="17.113" rx="1.511" transform="rotate(-45 5828.686 2115.407)" style="fill:#647211"/>
                            </g>
                        </g>
                        <g data-name="Group 3330">
                            <g data-name="Group 3329" transform="translate(-172.361 -4651.378)">
                                <rect data-name="Rectangle 204" width="15.953" height="17.113" rx="1.511" transform="rotate(-45 5803.235 2125.95)" style="fill:#647211"/>
                            </g>
                        </g>
                        <g data-name="Group 3332">
                            <g data-name="Group 3331" transform="translate(-172.361 -4651.378)">
                                <rect data-name="Rectangle 205" width="15.953" height="17.113" rx="1.511" transform="rotate(-45 5792.693 2100.498)" style="fill:#647211"/>
                            </g>
                        </g>
                        <g data-name="Group 3334">
                            <g data-name="Group 3333" transform="translate(-172.361 -4651.378)">
                                <rect data-name="Rectangle 206" width="15.953" height="17.113" rx="1.511" transform="rotate(-45 5756.698 2085.589)" style="fill:#647211"/>
                            </g>
                        </g>
                        <g data-name="Group 3336">
                            <g data-name="Group 3335">
                                <path data-name="Path 1546" d="m233.53 4659.289-6.188 6.189a1.51 1.51 0 0 0 0 2.136l10.008 9.965a1.512 1.512 0 0 0 2.137 0l9.143-9.144a1.512 1.512 0 0 0 0-2.137l-7.037-6.993a1.51 1.51 0 0 0-.978-.44 51.537 51.537 0 0 0-6.1-.017 1.519 1.519 0 0 0-.985.441z" style="fill:#647211" transform="translate(-172.361 -4651.378)"/>
                            </g>
                        </g>
                        <g data-name="Group 3338">
                            <g data-name="Group 3337" transform="translate(-172.361 -4651.378)">
                                <rect data-name="Rectangle 207" width="15.953" height="17.113" rx="1.511" transform="rotate(-45 5797.059 2039.052)" style="fill:#647211"/>
                            </g>
                        </g>
                        <g data-name="Group 3340">
                            <g data-name="Group 3339" transform="translate(-172.361 -4651.378)">
                                <rect data-name="Rectangle 208" width="15.953" height="17.113" rx="1.511" transform="rotate(-45 5767.242 2111.04)" style="fill:#647211"/>
                            </g>
                        </g>
                        <g data-name="Group 3342">
                            <g data-name="Group 3341" transform="translate(-172.361 -4651.378)">
                                <rect data-name="Rectangle 209" width="15.953" height="17.113" rx="1.511" transform="rotate(-45 5782.151 2075.046)" style="fill:#647211"/>
                            </g>
                        </g>
                        <g data-name="Group 3344">
                            <g data-name="Group 3343" transform="translate(-172.361 -4651.378)">
                                <rect data-name="Rectangle 210" width="15.953" height="17.113" rx="1.511" transform="rotate(-45 5807.602 2064.503)" style="fill:#647211"/>
                            </g>
                        </g>
                        <g data-name="Group 3346">
                            <g data-name="Group 3345" transform="translate(-172.361 -4651.378)">
                                <rect data-name="Rectangle 211" width="15.953" height="17.113" rx="1.511" transform="rotate(-45 5771.608 2049.594)" style="fill:#647211"/>
                            </g>
                        </g>
                    </g>
                    <g data-name="Group 3396">
                        <g data-name="Group 3349">
                            <g data-name="Group 3348">
                                <path data-name="Path 1547" d="m258.108 4758.024 1.241 1.24a1.61 1.61 0 0 0 1.855.3 51.33 51.33 0 0 0 11.13-7.508l-2.992-2.992a1.611 1.611 0 0 0-2.278 0z" style="fill:#8ea52b" transform="translate(-172.361 -4651.378)"/>
                            </g>
                        </g>
                        <g data-name="Group 3351">
                            <g data-name="Group 3350">
                                <path data-name="Path 1548" d="m207.5 4749-3.186 3.186a51.293 51.293 0 0 0 11.234 7.507 1.512 1.512 0 0 0 1.736-.288l1.378-1.378-9.028-9.027a1.51 1.51 0 0 0-2.134 0z" style="fill:#8ea52b" transform="translate(-172.361 -4651.378)"/>
                            </g>
                        </g>
                        <g data-name="Group 3353">
                            <g data-name="Group 3352">
                                <path data-name="Path 1549" d="m203.751 4683.477-2.941-2.941a1.511 1.511 0 0 0-2.231.1 51.227 51.227 0 0 0-6.938 10.918l.947.947a1.511 1.511 0 0 0 2.137 0z" style="fill:#8ea52b" transform="translate(-172.361 -4651.378)"/>
                            </g>
                        </g>
                        <g data-name="Group 3355">
                            <g data-name="Group 3354">
                                <path data-name="Path 1550" d="m192.588 4734.088-1.054 1.054a51.223 51.223 0 0 0 6.889 10.956 1.511 1.511 0 0 0 2.236.109l3.092-3.093-9.026-9.026a1.512 1.512 0 0 0-2.137 0z" style="fill:#8ea52b" transform="translate(-172.361 -4651.378)"/>
                            </g>
                        </g>
                        <g data-name="Group 3357">
                            <g data-name="Group 3356">
                                <path data-name="Path 1551" d="m273.018 4743.114 2.869 2.869a1.608 1.608 0 0 0 2.386-.12 51.15 51.15 0 0 0 6.78-10.9l-.8-.8a1.61 1.61 0 0 0-2.278 0z" style="fill:#8ea52b" transform="translate(-172.361 -4651.378)"/>
                            </g>
                        </g>
                        <g data-name="Group 3359">
                            <g data-name="Group 3358">
                                <path data-name="Path 1552" d="m218.66 4668.568-1.154-1.154a1.509 1.509 0 0 0-1.728-.291 51.273 51.273 0 0 0-11.288 7.464l3.008 3.007a1.51 1.51 0 0 0 2.136 0z" style="fill:#8ea52b" transform="translate(-172.361 -4651.378)"/>
                            </g>
                        </g>
                        <g data-name="Group 3361">
                            <g data-name="Group 3360">
                                <path data-name="Path 1553" d="m284.192 4692.492.756-.756a51.2 51.2 0 0 0-6.9-10.949 1.51 1.51 0 0 0-2.234-.107l-2.8 2.8 9.014 9.015a1.529 1.529 0 0 0 2.164-.003z" style="fill:#8ea52b" transform="translate(-172.361 -4651.378)"/>
                            </g>
                        </g>
                        <g data-name="Group 3363">
                            <g data-name="Group 3362">
                                <path data-name="Path 1554" d="m203.751 4713.3-9.026-9.027a1.512 1.512 0 0 0-2.137 0l-5.3 5.3a1.52 1.52 0 0 0-.44.987 51.9 51.9 0 0 0 .012 6.034l5.73 5.73a1.511 1.511 0 0 0 2.137 0z" style="fill:#8ea52b" transform="translate(-172.361 -4651.378)"/>
                            </g>
                        </g>
                        <g data-name="Group 3365">
                            <g data-name="Group 3364">
                                <path data-name="Path 1555" d="m269.271 4677.594 2.885-2.885a51.318 51.318 0 0 0-11.245-7.5 1.512 1.512 0 0 0-1.734.289l-1.069 1.068 9.027 9.026a1.51 1.51 0 0 0 2.136.002z" style="fill:#8ea52b" transform="translate(-172.361 -4651.378)"/>
                            </g>
                        </g>
                        <g data-name="Group 3367">
                            <g data-name="Group 3366">
                                <path data-name="Path 1556" d="m267.064 4719.249-8.956 8.956 8.956 8.956a1.611 1.611 0 0 0 2.278 0l8.956-8.956-8.956-8.956a1.611 1.611 0 0 0-2.278 0z" style="fill:#8ea52b" transform="translate(-172.361 -4651.378)"/>
                            </g>
                        </g>
                        <g data-name="Group 3369">
                            <g data-name="Group 3368">
                                <path data-name="Path 1557" d="m273.018 4713.3 8.955 8.956a1.611 1.611 0 0 0 2.278 0l4.945-4.945a1.616 1.616 0 0 0 .47-1.054 51.84 51.84 0 0 0-.062-6.56l-5.353-5.353a1.611 1.611 0 0 0-2.278 0z" style="fill:#8ea52b" transform="translate(-172.361 -4651.378)"/>
                            </g>
                        </g>
                        <g data-name="Group 3371">
                            <g data-name="Group 3370">
                                <path data-name="Path 1558" d="m239.453 4737.231 9.026-9.026-9.026-9.026a1.511 1.511 0 0 0-2.137 0l-9.026 9.026 9.026 9.026a1.512 1.512 0 0 0 2.137 0z" style="fill:#8ea52b" transform="translate(-172.361 -4651.378)"/>
                            </g>
                        </g>
                        <g data-name="Group 3373">
                            <g data-name="Group 3372">
                                <path data-name="Path 1559" d="m237.246 4749.068-8.956 8.956 6.4 6.4a1.611 1.611 0 0 0 1.063.47 51.865 51.865 0 0 0 5.293-.015 1.616 1.616 0 0 0 1.054-.47l6.382-6.382-8.956-8.956a1.61 1.61 0 0 0-2.28-.003z" style="fill:#8ea52b" transform="translate(-172.361 -4651.378)"/>
                            </g>
                        </g>
                        <g data-name="Group 3375">
                            <g data-name="Group 3374">
                                <path data-name="Path 1560" d="m252.155 4734.159-8.956 8.955 8.956 8.956a1.609 1.609 0 0 0 2.277 0l8.956-8.956-8.956-8.955a1.609 1.609 0 0 0-2.277 0z" style="fill:#8ea52b" transform="translate(-172.361 -4651.378)"/>
                            </g>
                        </g>
                        <g data-name="Group 3377">
                            <g data-name="Group 3376">
                                <path data-name="Path 1561" d="m224.543 4752.141 9.027-9.027-9.027-9.026a1.51 1.51 0 0 0-2.136 0l-9.027 9.026 9.027 9.027a1.51 1.51 0 0 0 2.136 0z" style="fill:#8ea52b" transform="translate(-172.361 -4651.378)"/>
                            </g>
                        </g>
                        <g data-name="Group 3379">
                            <g data-name="Group 3378">
                                <path data-name="Path 1562" d="m207.5 4719.179-9.027 9.026 9.027 9.026a1.51 1.51 0 0 0 2.136 0l9.026-9.026-9.026-9.026a1.509 1.509 0 0 0-2.136 0z" style="fill:#8ea52b" transform="translate(-172.361 -4651.378)"/>
                            </g>
                        </g>
                        <g data-name="Group 3381">
                            <g data-name="Group 3380">
                                <path data-name="Path 1563" d="m222.407 4704.269-9.027 9.027 9.027 9.026a1.509 1.509 0 0 0 2.136 0l9.027-9.026-9.027-9.027a1.51 1.51 0 0 0-2.136 0z" style="fill:#8ea52b" transform="translate(-172.361 -4651.378)"/>
                            </g>
                        </g>
                        <g data-name="Group 3383">
                            <g data-name="Group 3382">
                                <path data-name="Path 1564" d="m224.543 4692.5 9.027-9.027-9.027-9.026a1.509 1.509 0 0 0-2.136 0l-9.027 9.026 9.027 9.027a1.509 1.509 0 0 0 2.136 0z" style="fill:#8ea52b" transform="translate(-172.361 -4651.378)"/>
                            </g>
                        </g>
                        <g data-name="Group 3385">
                            <g data-name="Group 3384">
                                <path data-name="Path 1565" d="m234.361 4662.5-6.071 6.071 9.026 9.026a1.512 1.512 0 0 0 2.137 0l9.026-9.026-6.055-6.055a1.518 1.518 0 0 0-.979-.441 51.851 51.851 0 0 0-6.1-.016 1.511 1.511 0 0 0-.984.441z" style="fill:#8ea52b" transform="translate(-172.361 -4651.378)"/>
                            </g>
                        </g>
                        <g data-name="Group 3387">
                            <g data-name="Group 3386">
                                <path data-name="Path 1566" d="m269.271 4707.413 9.027-9.026-9.027-9.027a1.51 1.51 0 0 0-2.136 0l-9.027 9.027 9.027 9.026a1.51 1.51 0 0 0 2.136 0z" style="fill:#8ea52b" transform="translate(-172.361 -4651.378)"/>
                            </g>
                        </g>
                        <g data-name="Group 3389">
                            <g data-name="Group 3388">
                                <path data-name="Path 1567" d="m209.634 4707.413 9.026-9.026-9.026-9.027a1.51 1.51 0 0 0-2.136 0l-9.027 9.027 9.027 9.026a1.51 1.51 0 0 0 2.136 0z" style="fill:#8ea52b" transform="translate(-172.361 -4651.378)"/>
                            </g>
                        </g>
                        <g data-name="Group 3391">
                            <g data-name="Group 3390">
                                <path data-name="Path 1568" d="m237.316 4689.36-9.026 9.027 9.026 9.026a1.512 1.512 0 0 0 2.137 0l9.026-9.027-9.026-9.026a1.512 1.512 0 0 0-2.137 0z" style="fill:#8ea52b" transform="translate(-172.361 -4651.378)"/>
                            </g>
                        </g>
                        <g data-name="Group 3393">
                            <g data-name="Group 3392">
                                <path data-name="Path 1569" d="m254.362 4722.322 9.026-9.026-9.026-9.027a1.512 1.512 0 0 0-2.137 0l-9.025 9.031 9.026 9.026a1.511 1.511 0 0 0 2.136-.004z" style="fill:#8ea52b" transform="translate(-172.361 -4651.378)"/>
                            </g>
                        </g>
                        <g data-name="Group 3395">
                            <g data-name="Group 3394">
                                <path data-name="Path 1570" d="m252.225 4674.451-9.026 9.026 9.026 9.027a1.511 1.511 0 0 0 2.137 0l9.026-9.027-9.026-9.026a1.511 1.511 0 0 0-2.137 0z" style="fill:#8ea52b" transform="translate(-172.361 -4651.378)"/>
                            </g>
                        </g>
                    </g>
                    <g data-name="Group 3401">
                        <g data-name="Group 3398">
                            <g data-name="Group 3397">
                                <path data-name="Path 1571" d="m218.677 4730.251-8.06 8.061a2.949 2.949 0 0 1-4.165 0l-8.281-8.282a.612.612 0 0 1 .866-.866l8.282 8.281a1.72 1.72 0 0 0 2.432 0l8.06-8.06a.612.612 0 0 1 .866.866z" style="fill:#f3ffa9" transform="translate(-172.361 -4651.378)"/>
                            </g>
                        </g>
                        <g data-name="Group 3400">
                            <g data-name="Group 3399">
                                <path data-name="Path 1572" d="m233.6 4745.179-8.06 8.061a2.949 2.949 0 0 1-4.165 0l-8.281-8.282a.613.613 0 0 1 .866-.867l8.282 8.282a1.72 1.72 0 0 0 2.431 0l8.061-8.06a.612.612 0 0 1 .866.866z" style="fill:#f3ffa9" transform="translate(-172.361 -4651.378)"/>
                            </g>
                        </g>
                    </g>
                    <g data-name="Group 3403">
                        <g data-name="Group 3402">
                            <path data-name="Path 1573" d="m233.6 4715.334-8.061 8.06a2.948 2.948 0 0 1-4.164 0l-8.282-8.282a.613.613 0 0 1 .867-.866l8.281 8.282a1.722 1.722 0 0 0 2.432 0l8.06-8.061a.613.613 0 1 1 .867.867z" style="fill:#f3ffa9" transform="translate(-172.361 -4651.378)"/>
                        </g>
                    </g>
                    <g data-name="Group 3405">
                        <g data-name="Group 3404">
                            <path data-name="Path 1574" d="m248.523 4730.262-8.061 8.06a2.947 2.947 0 0 1-4.164 0l-8.282-8.282a.612.612 0 1 1 .866-.866l8.282 8.282a1.723 1.723 0 0 0 2.432 0l8.06-8.061a.613.613 0 1 1 .867.867z" style="fill:#f3ffa9" transform="translate(-172.361 -4651.378)"/>
                        </g>
                    </g>
                    <g data-name="Group 3407">
                        <g data-name="Group 3406">
                            <path data-name="Path 1575" d="m248.494 4700.435-8.06 8.06a2.949 2.949 0 0 1-4.165 0l-8.282-8.282a.613.613 0 0 1 .867-.866l8.281 8.282a1.723 1.723 0 0 0 2.432 0l8.061-8.061a.613.613 0 1 1 .866.867z" style="fill:#f3ffa9" transform="translate(-172.361 -4651.378)"/>
                        </g>
                    </g>
                    <g data-name="Group 3409">
                        <g data-name="Group 3408">
                            <path data-name="Path 1576" d="m218.667 4700.406-8.06 8.06a2.949 2.949 0 0 1-4.165 0l-8.282-8.281a.613.613 0 0 1 .867-.867l8.281 8.282a1.723 1.723 0 0 0 2.432 0l8.061-8.061a.613.613 0 0 1 .866.867z" style="fill:#f3ffa9" transform="translate(-172.361 -4651.378)"/>
                        </g>
                    </g>
                    <g data-name="Group 3411">
                        <g data-name="Group 3410">
                            <path data-name="Path 1577" d="m203.749 4715.323-8.06 8.061a2.948 2.948 0 0 1-4.165 0l-4.177-4.178a.612.612 0 0 1 .866-.866l4.178 4.177a1.721 1.721 0 0 0 2.432 0l8.06-8.06a.612.612 0 1 1 .866.866z" style="fill:#f3ffa9" transform="translate(-172.361 -4651.378)"/>
                        </g>
                    </g>
                    <g data-name="Group 3413">
                        <g data-name="Group 3412">
                            <path data-name="Path 1578" d="m233.566 4685.507-8.06 8.06a2.949 2.949 0 0 1-4.165 0l-8.282-8.282a.613.613 0 1 1 .867-.866l8.281 8.282a1.723 1.723 0 0 0 2.432 0l8.061-8.061a.613.613 0 1 1 .866.867z" style="fill:#f3ffa9" transform="translate(-172.361 -4651.378)"/>
                        </g>
                    </g>
                    <g data-name="Group 3415">
                        <g data-name="Group 3414">
                            <path data-name="Path 1579" d="m203.84 4685.487-8.061 8.061a2.948 2.948 0 0 1-4.164 0l-.074-.074a.613.613 0 0 1 .866-.867l.074.074a1.721 1.721 0 0 0 2.432 0l8.06-8.06a.613.613 0 1 1 .867.866z" style="fill:#f3ffa9" transform="translate(-172.361 -4651.378)"/>
                        </g>
                    </g>
                    <g data-name="Group 3417">
                        <g data-name="Group 3416">
                            <path data-name="Path 1580" d="m218.739 4670.588-8.061 8.06a2.946 2.946 0 0 1-4.164 0l-2.217-2.217a.612.612 0 0 1 .866-.866l2.217 2.217a1.721 1.721 0 0 0 2.432 0l8.06-8.06a.613.613 0 1 1 .867.866z" style="fill:#f3ffa9" transform="translate(-172.361 -4651.378)"/>
                        </g>
                    </g>
                    <g data-name="Group 3419">
                        <g data-name="Group 3418">
                            <path data-name="Path 1581" d="m248.484 4670.589-8.061 8.061a2.948 2.948 0 0 1-4.164 0l-8.282-8.282a.613.613 0 0 1 .866-.867l8.282 8.282a1.721 1.721 0 0 0 2.432 0l8.06-8.06a.613.613 0 0 1 .867.866z" style="fill:#f3ffa9" transform="translate(-172.361 -4651.378)"/>
                        </g>
                    </g>
                    <g data-name="Group 3421">
                        <g data-name="Group 3420">
                            <path data-name="Path 1582" d="m263.422 4715.362-8.06 8.061a2.949 2.949 0 0 1-4.165 0l-8.282-8.282a.613.613 0 1 1 .867-.866l8.281 8.281a1.721 1.721 0 0 0 2.432 0l8.061-8.06a.612.612 0 1 1 .866.866z" style="fill:#f3ffa9" transform="translate(-172.361 -4651.378)"/>
                        </g>
                    </g>
                    <g data-name="Group 3423">
                        <g data-name="Group 3422">
                            <path data-name="Path 1583" d="m263.5 4745.236-8.06 8.061a2.949 2.949 0 0 1-4.165 0l-8.281-8.282a.612.612 0 1 1 .866-.866l8.282 8.281a1.721 1.721 0 0 0 2.432 0l8.06-8.06a.612.612 0 0 1 .866.866z" style="fill:#f3ffa9" transform="translate(-172.361 -4651.378)"/>
                        </g>
                    </g>
                    <g data-name="Group 3425">
                        <g data-name="Group 3424">
                            <path data-name="Path 1584" d="m278.4 4730.337-8.061 8.061a2.948 2.948 0 0 1-4.164 0l-8.282-8.282a.613.613 0 0 1 .866-.867l8.282 8.282a1.72 1.72 0 0 0 2.432 0l8.06-8.06a.613.613 0 1 1 .867.866z" style="fill:#f3ffa9" transform="translate(-172.361 -4651.378)"/>
                        </g>
                    </g>
                    <g data-name="Group 3427">
                        <g data-name="Group 3426">
                            <path data-name="Path 1585" d="m289.529 4719.2-4.321 4.322a2.948 2.948 0 0 1-4.164 0l-8.282-8.282a.612.612 0 0 1 .866-.866l8.282 8.281a1.721 1.721 0 0 0 2.432 0l4.321-4.321a.612.612 0 0 1 .866.866z" style="fill:#f3ffa9" transform="translate(-172.361 -4651.378)"/>
                        </g>
                    </g>
                    <g data-name="Group 3432">
                        <g data-name="Group 3429">
                            <g data-name="Group 3428">
                                <path data-name="Path 1586" d="m263.366 4685.563-8.06 8.06a2.949 2.949 0 0 1-4.165 0l-8.282-8.282a.613.613 0 0 1 .867-.866l8.281 8.282a1.723 1.723 0 0 0 2.432 0l8.061-8.061a.613.613 0 0 1 .866.867z" style="fill:#f3ffa9" transform="translate(-172.361 -4651.378)"/>
                            </g>
                        </g>
                        <g data-name="Group 3431">
                            <g data-name="Group 3430">
                                <path data-name="Path 1587" d="m278.294 4700.491-8.061 8.06a2.947 2.947 0 0 1-4.164 0l-8.282-8.282a.613.613 0 1 1 .867-.866l8.281 8.282a1.723 1.723 0 0 0 2.432 0l8.06-8.061a.613.613 0 1 1 .867.867z" style="fill:#f3ffa9" transform="translate(-172.361 -4651.378)"/>
                            </g>
                        </g>
                    </g>
                    <g data-name="Group 3437">
                        <g data-name="Group 3434">
                            <g data-name="Group 3433">
                                <path data-name="Path 1588" d="m272.32 4676.609-2.041 2.041a2.949 2.949 0 0 1-4.165 0l-8.282-8.282a.613.613 0 0 1 .867-.866l8.282 8.281a1.72 1.72 0 0 0 2.431 0l2.042-2.041a.613.613 0 0 1 .866.867z" style="fill:#f3ffa9" transform="translate(-172.361 -4651.378)"/>
                            </g>
                        </g>
                        <g data-name="Group 3436">
                            <g data-name="Group 3435">
                                <path data-name="Path 1589" d="m285.207 4693.578-.011.01-.009.009a2.949 2.949 0 0 1-4.145-.019l-8.282-8.282a.613.613 0 0 1 .867-.866l8.281 8.281a1.721 1.721 0 0 0 2.432 0 .613.613 0 0 1 .867.867z" style="fill:#f3ffa9" transform="translate(-172.361 -4651.378)"/>
                            </g>
                        </g>
                    </g>
                    <g data-name="Group 3439">
                        <g data-name="Group 3438">
                            <path data-name="Path 1590" d="M272.308 4753.917a.63.63 0 0 1-.046.043 58.47 58.47 0 0 1-10.219 6.924 3.189 3.189 0 0 1-3.8-.615l-.244-.244a.612.612 0 0 1 .866-.866l.245.244a1.973 1.973 0 0 0 2.344.405 57.452 57.452 0 0 0 10.032-6.8.612.612 0 0 1 .82.907z" style="fill:#f3ffa9" transform="translate(-172.361 -4651.378)"/>
                        </g>
                    </g>
                    <g data-name="Group 3441">
                        <g data-name="Group 3440">
                            <path data-name="Path 1591" d="M279.176 4747.038a2.963 2.963 0 0 1-1.862.852 3.133 3.133 0 0 1-2.466-.908l-1.833-1.832a.613.613 0 0 1 .867-.866l1.832 1.832a1.9 1.9 0 0 0 1.5.552 1.7 1.7 0 0 0 1.265-.7 63.568 63.568 0 0 0 6.047-9.577.613.613 0 0 1 1.087.566 64.53 64.53 0 0 1-6.141 9.729 2.838 2.838 0 0 1-.296.352z" style="fill:#f3ffa9" transform="translate(-172.361 -4651.378)"/>
                        </g>
                    </g>
                    <g data-name="Group 3443">
                        <g data-name="Group 3442">
                            <path data-name="Path 1592" d="m219.353 4759.363-1 1a3.111 3.111 0 0 1-3.614.581 55.077 55.077 0 0 1-11.448-7.752.613.613 0 0 1 .809-.92 53.846 53.846 0 0 0 11.193 7.579 1.888 1.888 0 0 0 2.193-.354l1-1a.613.613 0 0 1 .867.866z" style="fill:#f3ffa9" transform="translate(-172.361 -4651.378)"/>
                        </g>
                    </g>
                    <g data-name="Group 3445">
                        <g data-name="Group 3444">
                            <path data-name="Path 1593" d="m204.3 4744.667-2.519 2.519a3.183 3.183 0 0 1-4.748-.275 55.012 55.012 0 0 1-6.685-10.879.612.612 0 0 1 1.111-.515 53.8 53.8 0 0 0 6.537 10.636 1.955 1.955 0 0 0 2.919.166l2.518-2.518a.613.613 0 1 1 .867.866z" style="fill:#f3ffa9" transform="translate(-172.361 -4651.378)"/>
                        </g>
                    </g>
                    <g data-name="Group 3447">
                        <g data-name="Group 3446">
                            <path data-name="Path 1594" d="m248.422 4760.2-5.235 5.235a2.953 2.953 0 0 1-1.94.864c-1.868.094-3.759.1-5.623.016a2.951 2.951 0 0 1-1.957-.864l-5.25-5.251a.612.612 0 1 1 .866-.866l5.251 5.25a1.718 1.718 0 0 0 1.145.507c1.825.082 3.677.076 5.506-.016a1.723 1.723 0 0 0 1.135-.506l5.235-5.235a.613.613 0 0 1 .867.866z" style="fill:#f3ffa9" transform="translate(-172.361 -4651.378)"/>
                        </g>
                    </g>
                </g>
            </g>
        </g>
    </g>
</svg>
