<svg xmlns="http://www.w3.org/2000/svg" xmlns:xlink="http://www.w3.org/1999/xlink" viewBox="0 0 319.49 318.69"><defs><style>.cls-1{fill:none;}.cls-2{fill:#5b3a00;}.cls-3{clip-path:url(#clip-path);}.cls-4{fill:#cfffcc;}.cls-5{opacity:0.25;}.cls-6{clip-path:url(#clip-path-2);}.cls-7{fill:#cecece;}.cls-8{fill:#fff;}.cls-9{clip-path:url(#clip-path-3);}.cls-10{clip-path:url(#clip-path-4);}.cls-11{fill:#e79300;}.cls-12{fill:#ffda00;}.cls-13{clip-path:url(#clip-path-5);}.cls-14{fill:#b15400;}.cls-15{clip-path:url(#clip-path-6);}.cls-16{clip-path:url(#clip-path-7);}.cls-17{clip-path:url(#clip-path-8);}.cls-18{opacity:0.65;}.cls-19{fill:#6034e8;}.cls-20{opacity:0.4;}.cls-21{fill:#ad97ff;}.cls-22{opacity:0.85;}.cls-23{fill:#ffb6fc;}.cls-24{fill:#25d600;}.cls-25{fill:#1d9600;}.cls-26{fill:red;}.cls-27{fill:#bc0000;}.cls-28{opacity:0.75;}.cls-29{fill:#ffd2d2;}</style><clipPath id="clip-path"><rect class="cls-1" width="297.28" height="297.28" rx="54.22" transform="translate(297.28 297.28) rotate(180)"/></clipPath><clipPath id="clip-path-2"><path class="cls-1" d="M232.43,179.19h4.25a1,1,0,0,1-1-1V170.4a1,1,0,0,1,1-1h25.24a1,1,0,0,1,1,1v7.81a1,1,0,0,1-1,1h-.7a5.68,5.68,0,0,1,5.67,5.67v19.86a5.68,5.68,0,0,1-5.67,5.67H232.43a5.68,5.68,0,0,1-5.67-5.67V184.86A5.68,5.68,0,0,1,232.43,179.19Z"/></clipPath><clipPath id="clip-path-3"><path class="cls-1" d="M31.12,82.81V93.72a5.77,5.77,0,0,0,4.64,5.66,1.09,1.09,0,0,0-.66,1v7.8a1.09,1.09,0,0,0,1.09,1.09H61.43a1.09,1.09,0,0,0,1.09-1.09v-7.8a1.09,1.09,0,0,0-.47-.89h3.63a5.78,5.78,0,0,0,5.77-5.77V80.46a2.16,2.16,0,0,0-2.16-2.16H65.74l.65-6.56,3.43-19.69a2.48,2.48,0,0,0-.42-1.89,2.55,2.55,0,0,0-1.63-1l-3.62-.63a2.53,2.53,0,0,0-2.92,2.06l-3.8,19.16V52.13a2.53,2.53,0,0,0-2.52-2.53H51.24a2.53,2.53,0,0,0-2.53,2.53V69.36a2.14,2.14,0,0,0-2-1.26H42.34a2.16,2.16,0,0,0-2.08,1.57,2.15,2.15,0,0,0-2.07-1.57H33.78a2.16,2.16,0,0,0-2.16,2.16v12a2.19,2.19,0,0,0,.3,1.1Z"/></clipPath><clipPath id="clip-path-4"><path class="cls-1" d="M205.4,263.85H182.23a1.38,1.38,0,0,1-1.11-.62l-5.26-7.11c-1-1.34-2.68-.39-2.68,1.51v4.09c0,1.18-.71,2.13-1.58,2.13h-8c-.87,0-1.58-1-1.58-2.13V238.18c0-1.18.71-2.13,1.58-2.13h25.15a1.41,1.41,0,0,1,1.14.65l16.64,23.55C207.49,261.61,206.78,263.85,205.4,263.85Z"/></clipPath><clipPath id="clip-path-5"><path class="cls-1" d="M91.88,263.85h23.17a1.38,1.38,0,0,0,1.11-.62l5.25-7.11c1-1.34,2.69-.39,2.69,1.51v4.09c0,1.18.71,2.13,1.58,2.13h8c.87,0,1.57-1,1.57-2.13V238.18c0-1.18-.7-2.13-1.57-2.13H108.53a1.4,1.4,0,0,0-1.14.65L90.74,260.25C89.79,261.61,90.5,263.85,91.88,263.85Z"/></clipPath><clipPath id="clip-path-6"><path class="cls-1" d="M152.41,87.79c2.24-3,4.42-5.92,6.69-8.79,11.81-14.89,30.44-18.54,44.63-8.2,13.45,9.8,19,24.55,18.6,42.25-.33,13.4-5.78,24.76-12.32,35.5-9.56,15.71-21.86,28.34-35.17,39.77-6.23,5.35-12.79,10.19-19.23,15.22a4.48,4.48,0,0,1-5.78.16c-18.75-13.35-36.14-28.54-50.12-48.24-6.65-9.37-12.51-19.24-15.4-31-4.94-20.17,1.65-42.3,16-53.08,12.76-9.56,32.51-9.1,45.53,7.3C148.15,81.5,150.16,84.62,152.41,87.79Z"/></clipPath><clipPath id="clip-path-7"><path class="cls-1" d="M153.39,96.69c2-2.46,3.87-4.92,5.86-7.3C169.6,77,188.11,67.87,200.54,76.45,212.31,84.6,215,103,214.61,117.67c-.29,11.13-5.06,20.56-10.78,29.49-8.37,13-19.15,23.53-30.8,33-5.45,4.44-11.19,8.46-16.83,12.63a4.09,4.09,0,0,1-5.06.14c-16.43-11.09-31.65-23.7-43.89-40.07-5.82-7.78-11-16-13.49-25.77-4.32-16.75-.54-40.74,12.06-49.7,11.17-7.94,30.46-1.94,41.86,11.68C149.66,91.47,151.42,94.06,153.39,96.69Z"/></clipPath><clipPath id="clip-path-8"><path class="cls-1" d="M225.7,107.66c-.44-16.72-7.15-31.85-20.9-41.47a31.23,31.23,0,0,0-23.16-5.36h-3.77c-9.81.21-19.61,5-26.88,13.81-.82,1-1.62,2-2.42,3-.95-1.29-1.9-2.55-2.9-3.76C136.46,62.76,124,59.11,112.81,61v-.39a34.63,34.63,0,0,0-21.88,6.51C76.22,77.73,71.7,98.92,71.7,119.23c0,0-11,37.33,7.6,37.33s11.24-17.08,12-35.09,19.82-16.66,18-.87,5.42,28.14,17.08,17.41-3.21-15.19,3-25.45,28.55-10.77,22.79,14.27S155.81,154,162.21,154s12.5-10.38,11.09-27.18,21.45-30.35,21.45-12.72-10.95,20,1.35,32.34,20.15-5.69,19.76-13.21-.19-11.77,4.84-13.13,5.23,1.55,6.25-3.29C227.65,113.51,225.78,110.73,225.7,107.66Z"/></clipPath></defs><g id="Layer_2" data-name="Layer 2"><g id="Layer_1-2" data-name="Layer 1"><rect class="cls-2" x="22.21" y="21.41" width="297.28" height="297.28" rx="54.22" transform="translate(341.69 340.09) rotate(180)"/><g class="cls-3"><rect class="cls-4" width="297.28" height="297.28" transform="translate(297.28 297.28) rotate(180)"/><g class="cls-5"><ellipse class="cls-2" cx="148.64" cy="268.93" rx="86.21" ry="11.93"/></g><path class="cls-2" d="M81.13,149.53a33.48,33.48,0,0,1-21.83-7.95A37.64,37.64,0,0,1,49,126.37c-2.77-7.19-4.17-16-4.17-26.2a4,4,0,1,1,7.92,0c0,9.21,1.23,17.07,3.65,23.34a29.77,29.77,0,0,0,8.11,12.07,24.7,24.7,0,0,0,12.7,5.72,23.18,23.18,0,0,0,6.06.19,4,4,0,0,1,1.16,7.85A24.94,24.94,0,0,1,81.13,149.53Z"/><path class="cls-2" d="M249,191.64a4,4,0,0,1-4-4c0-9.22-1.22-17.07-3.64-23.35a30,30,0,0,0-8.12-12.07,24.62,24.62,0,0,0-12.69-5.71,22.74,22.74,0,0,0-6.07-.19,4,4,0,1,1-1.15-7.85,33.61,33.61,0,0,1,25.09,7.75,37.64,37.64,0,0,1,10.33,15.22c2.78,7.19,4.18,16,4.18,26.2A4,4,0,0,1,249,191.64Z"/><g class="cls-6"><path class="cls-7" d="M231,179.06h4.26a1,1,0,0,1-1-1v-7.8a1,1,0,0,1,1-1h25.24a1,1,0,0,1,1,1v7.8a1,1,0,0,1-1,1h-.7a5.68,5.68,0,0,1,5.67,5.67v19.85a5.68,5.68,0,0,1-5.67,5.67H231a5.68,5.68,0,0,1-5.66-5.67V184.73A5.68,5.68,0,0,1,231,179.06Z"/><path class="cls-8" d="M240.39,179.1h4.25a1,1,0,0,1-1-1v-7.8a1,1,0,0,1,1-1h25.24a1,1,0,0,1,1,1v7.8a1,1,0,0,1-1,1h-.7a5.68,5.68,0,0,1,5.67,5.67v19.86a5.68,5.68,0,0,1-5.67,5.67H240.39a5.68,5.68,0,0,1-5.67-5.67V184.77A5.68,5.68,0,0,1,240.39,179.1Z"/></g><path class="cls-2" d="M261.92,180.09H236.68a1.88,1.88,0,0,1-1.88-1.88V170.4a1.88,1.88,0,0,1,1.88-1.88h25.24a1.88,1.88,0,0,1,1.88,1.88v7.81A1.88,1.88,0,0,1,261.92,180.09Zm-25.24-9.78a.1.1,0,0,0-.1.09v7.81a.1.1,0,0,0,.1.09h25.24a.1.1,0,0,0,.1-.09V170.4a.1.1,0,0,0-.1-.09Z"/><path class="cls-2" d="M261.22,211.28H232.43a6.56,6.56,0,0,1-6.56-6.56V184.86a6.56,6.56,0,0,1,6.56-6.56h28.79a6.56,6.56,0,0,1,6.56,6.56v19.86A6.56,6.56,0,0,1,261.22,211.28Zm-28.79-31.19a4.78,4.78,0,0,0-4.78,4.77v19.86a4.78,4.78,0,0,0,4.78,4.77h28.79a4.78,4.78,0,0,0,4.78-4.77V184.86a4.78,4.78,0,0,0-4.78-4.77Z"/><path class="cls-2" d="M233.74,200.87a.89.89,0,0,1-.89-.89v-3.17h-5.66a.89.89,0,0,1,0-1.78h6.55a.89.89,0,0,1,.89.89V200A.89.89,0,0,1,233.74,200.87Z"/><path class="cls-2" d="M233.74,196.81a.89.89,0,0,1-.89-.89V189.6a.89.89,0,1,1,1.78,0v6.32A.89.89,0,0,1,233.74,196.81Z"/><path class="cls-2" d="M243.14,211.28a.89.89,0,0,1-.89-.89v-2.84a.89.89,0,0,1,1.78,0v2.84A.89.89,0,0,1,243.14,211.28Z"/><path class="cls-2" d="M251.67,211.28a.89.89,0,0,1-.9-.89v-2.84a.9.9,0,0,1,1.79,0v2.84A.89.89,0,0,1,251.67,211.28Z"/><path class="cls-2" d="M260.19,211.28a.89.89,0,0,1-.89-.89v-2.84a.89.89,0,0,1,1.78,0v2.84A.89.89,0,0,1,260.19,211.28Z"/><g class="cls-9"><path class="cls-7" d="M31.12,82.81V93.72a5.77,5.77,0,0,0,4.64,5.66,1.09,1.09,0,0,0-.66,1v7.8a1.09,1.09,0,0,0,1.09,1.09H61.43a1.09,1.09,0,0,0,1.09-1.09v-7.8a1.09,1.09,0,0,0-.47-.89h3.63a5.78,5.78,0,0,0,5.77-5.77V80.46a2.16,2.16,0,0,0-2.16-2.16H65.74l.65-6.56,3.43-19.69a2.48,2.48,0,0,0-.42-1.89,2.55,2.55,0,0,0-1.63-1l-3.62-.63a2.53,2.53,0,0,0-2.92,2.06l-3.8,19.16V52.13a2.53,2.53,0,0,0-2.52-2.53H51.24a2.53,2.53,0,0,0-2.53,2.53V69.36a2.14,2.14,0,0,0-2-1.26H42.34a2.16,2.16,0,0,0-2.08,1.57,2.15,2.15,0,0,0-2.07-1.57H33.78a2.16,2.16,0,0,0-2.16,2.16v12a2.19,2.19,0,0,0,.3,1.1Z"/><path class="cls-8" d="M35.36,84.23h-.52l0,9.21a5.77,5.77,0,0,0,4.64,5.65,1.1,1.1,0,0,0-.66,1v7.81A1.08,1.08,0,0,0,40,109H65.2a1.08,1.08,0,0,0,1.09-1.08v-7.81a1.08,1.08,0,0,0-.47-.88h3.63a5.78,5.78,0,0,0,5.77-5.77V80.18A2.16,2.16,0,0,0,73.06,78H69.51l.65-6.57,1.29-16.23c.11-.67,1.34-3.2,1-3.75S71.65,49.91,71,49.8l-5-1c-1.37-.24-4.82,22-5.06,23.34l-3.57-.73L61.2,51.85a2.52,2.52,0,0,0-2.52-2.53H55a2.53,2.53,0,0,0-2.53,2.53V78l-3.67,2V68.43l-2.7-.62c-1,0-1.82-.52-2.08.39-.25-.91-1.09-.39-2.07-.39H37.55A2.16,2.16,0,0,0,35.39,70V82Z"/><rect class="cls-7" x="39.23" y="76.29" width="3.83" height="18.23" transform="translate(126.55 44.25) rotate(90)"/><rect class="cls-7" x="54.76" y="79.02" width="3.83" height="12.82" transform="translate(142.11 28.76) rotate(90)"/></g><path class="cls-2" d="M61.43,110H36.19a1.88,1.88,0,0,1-1.88-1.88v-7.8a1.88,1.88,0,0,1,1.88-1.88H61.43a1.88,1.88,0,0,1,1.88,1.88v7.8A1.88,1.88,0,0,1,61.43,110Zm-25.24-9.78a.11.11,0,0,0-.1.1v7.8a.1.1,0,0,0,.1.1H61.43a.1.1,0,0,0,.1-.1v-7.8a.11.11,0,0,0-.1-.1Z"/><path class="cls-2" d="M65.68,100.18H36.88a6.56,6.56,0,0,1-6.55-6.55V82.57a.89.89,0,0,1,1.78,0V93.63a4.78,4.78,0,0,0,4.77,4.77h28.8a4.78,4.78,0,0,0,4.78-4.77V80.14a.89.89,0,1,1,1.78,0V93.63A6.56,6.56,0,0,1,65.68,100.18Z"/><path class="cls-2" d="M38.19,85.12H33.78a3,3,0,0,1-3-3v-12a3,3,0,0,1,3-3h4.41a3,3,0,0,1,3,3v12A3,3,0,0,1,38.19,85.12ZM33.78,69a1.17,1.17,0,0,0-1.17,1.17v12a1.18,1.18,0,0,0,1.17,1.17h4.41a1.18,1.18,0,0,0,1.17-1.17v-12A1.17,1.17,0,0,0,38.19,69Z"/><path class="cls-2" d="M46.75,85.12H42.34a3,3,0,0,1-3-3v-12a3,3,0,0,1,3-3h4.41a3,3,0,0,1,3,3v12A3,3,0,0,1,46.75,85.12ZM42.34,69a1.17,1.17,0,0,0-1.17,1.17v12a1.18,1.18,0,0,0,1.17,1.17h4.41a1.18,1.18,0,0,0,1.17-1.17v-12A1.17,1.17,0,0,0,46.75,69Z"/><path class="cls-2" d="M48.81,72.92a.89.89,0,0,1-.89-.89V52a3.32,3.32,0,0,1,3.32-3.32h3.67A3.32,3.32,0,0,1,58.23,52v18a.9.9,0,0,1-1.79,0V52a1.54,1.54,0,0,0-1.53-1.54H51.24A1.54,1.54,0,0,0,49.7,52V72A.89.89,0,0,1,48.81,72.92Z"/><path class="cls-2" d="M65.64,79.2h-.09a.89.89,0,0,1-.8-1l.65-6.68a.13.13,0,0,1,0-.06l3.44-19.7A1.54,1.54,0,0,0,67.6,50L64,49.37a1.52,1.52,0,0,0-1.77,1.25v0l-4,20.16a.89.89,0,0,1-1.75-.35l4-20.15a3.31,3.31,0,0,1,3.84-2.69l3.62.63a3.33,3.33,0,0,1,2.7,3.84L67.17,71.75l-.65,6.64A.89.89,0,0,1,65.64,79.2Z"/><path class="cls-2" d="M62.42,87.72H52.32a3,3,0,0,1-3-3V80.36a3,3,0,0,1,3-3h17a3,3,0,0,1,2.95,3v4.41a.89.89,0,1,1-1.78,0V80.36a1.17,1.17,0,0,0-1.17-1.16h-17a1.16,1.16,0,0,0-1.16,1.16v4.41a1.16,1.16,0,0,0,1.16,1.17h10.1a.89.89,0,0,1,0,1.78Z"/><path class="cls-2" d="M173.94,240.13a4,4,0,0,1-4-4v-54.6a4,4,0,1,1,7.92,0v54.6A4,4,0,0,1,173.94,240.13Z"/><path class="cls-2" d="M122.12,246.22a4,4,0,0,1-4-4V181.56a4,4,0,1,1,7.93,0v60.69A4,4,0,0,1,122.12,246.22Z"/><g class="cls-10"><path class="cls-11" d="M205.4,263.85H182.23a1.38,1.38,0,0,1-1.11-.62l-5.26-7.11c-1-1.34-2.68-.39-2.68,1.51v4.09c0,1.18-.71,2.13-1.58,2.13h-8c-.87,0-1.58-1-1.58-2.13V238.18c0-1.18.71-2.13,1.58-2.13h25.15a1.41,1.41,0,0,1,1.14.65l16.64,23.55C207.49,261.61,206.78,263.85,205.4,263.85Z"/><path class="cls-12" d="M200.07,263.85H181.86a1.41,1.41,0,0,1-1.12-.62l-4.26-7.11c-1-1.34-7.64-3.36-7.64-1.46v7.06c0,1.18-.7,2.13-1.57,2.13h-9c-.87,0-1.57-1-1.57-2.13V238.18c0-1.18.7-2.13,1.57-2.13h25.16a1.38,1.38,0,0,1,1.13.65l16.65,23.55C202.16,261.61,201.46,263.85,200.07,263.85Z"/><polygon class="cls-8" points="176.46 233.34 201.82 267.72 193.66 268.93 166.51 232.11 174.62 230.71 176.46 233.34"/></g><path class="cls-2" d="M205.4,264.75H182.23a2.28,2.28,0,0,1-1.83-1l-5.25-7.11c-.25-.32-.43-.27-.49-.25a1.25,1.25,0,0,0-.59,1.23v4.09c0,1.7-1.08,3-2.47,3h-8a2.77,2.77,0,0,1-2.47-3V238.18a2.76,2.76,0,0,1,2.47-3h25.15a2.3,2.3,0,0,1,1.87,1l16.64,23.55a3.57,3.57,0,0,1,.21,3.63A2.36,2.36,0,0,1,205.4,264.75ZM174.76,254.6a2.27,2.27,0,0,1,1.82,1l5.25,7.11a.55.55,0,0,0,.4.26H205.4c.25,0,.43-.29.49-.41a1.8,1.8,0,0,0-.08-1.78l-16.65-23.55a.54.54,0,0,0-.41-.28H163.6c-.28,0-.68.48-.68,1.24v23.54c0,.76.4,1.24.68,1.24h8c.28,0,.69-.48.69-1.24v-4.09a3,3,0,0,1,1.82-2.92A2.06,2.06,0,0,1,174.76,254.6Z"/><polygon class="cls-2" points="199.66 250.86 184.71 250.86 179.82 244.25 194.85 244.25 199.66 250.86"/><path class="cls-2" d="M199.66,251.75H184.71a.9.9,0,0,1-.72-.36l-4.89-6.61a.89.89,0,0,1-.08-.93.9.9,0,0,1,.8-.49h15a.9.9,0,0,1,.72.36l4.81,6.62a.88.88,0,0,1-.72,1.41ZM185.16,250h12.75l-3.52-4.83h-12.8Z"/><g class="cls-13"><path class="cls-11" d="M91.88,263.85h23.17a1.38,1.38,0,0,0,1.11-.62l5.25-7.11c1-1.34,2.69-.39,2.69,1.51v4.09c0,1.18.71,2.13,1.58,2.13h8c.87,0,1.57-1,1.57-2.13V238.18c0-1.18-.7-2.13-1.57-2.13H108.53a1.4,1.4,0,0,0-1.14.65L90.74,260.25C89.79,261.61,90.5,263.85,91.88,263.85Z"/><path class="cls-12" d="M97.21,263.85h18.21a1.38,1.38,0,0,0,1.11-.62l4.27-7.11c1-1.34,7.64-3.36,7.64-1.46v7.06c0,1.18.7,2.13,1.57,2.13h9c.87,0,1.57-1,1.57-2.13V238.18c0-1.18-.7-2.13-1.57-2.13H113.85a1.41,1.41,0,0,0-1.14.65L96.07,260.25C95.11,261.61,95.82,263.85,97.21,263.85Z"/><polygon class="cls-8" points="121.37 232.77 96 267.15 104.16 268.36 131.32 231.54 123.21 230.14 121.37 232.77"/></g><path class="cls-2" d="M133.68,264.75h-8c-1.39,0-2.47-1.33-2.47-3v-4.09c0-.76-.36-1.15-.6-1.23-.06,0-.24-.07-.48.25l-5.25,7.11a2.28,2.28,0,0,1-1.83,1H91.88a2.39,2.39,0,0,1-2.08-1.38,3.57,3.57,0,0,1,.22-3.63l16.64-23.55a2.28,2.28,0,0,1,1.87-1h25.15a2.76,2.76,0,0,1,2.47,3v23.54A2.77,2.77,0,0,1,133.68,264.75ZM122.52,254.6a2.06,2.06,0,0,1,.65.11,3,3,0,0,1,1.82,2.92v4.09c0,.76.41,1.24.69,1.24h8c.28,0,.68-.48.68-1.24V238.18c0-.76-.4-1.24-.68-1.24H108.53a.54.54,0,0,0-.41.28L91.47,260.77a1.8,1.8,0,0,0-.08,1.78c.06.12.24.41.49.41h23.17a.52.52,0,0,0,.39-.26l5.26-7.11A2.27,2.27,0,0,1,122.52,254.6Z"/><polygon class="cls-2" points="97.62 250.86 112.57 250.86 117.46 244.25 102.43 244.25 97.62 250.86"/><path class="cls-2" d="M112.57,251.75H97.62a.88.88,0,0,1-.72-1.41l4.81-6.62a.9.9,0,0,1,.72-.36h15a.9.9,0,0,1,.8.49.89.89,0,0,1-.08.93l-4.89,6.61A.9.9,0,0,1,112.57,251.75ZM99.37,250h12.75l3.57-4.83h-12.8Z"/><path class="cls-2" d="M203.73,70.68a29.58,29.58,0,0,0-22.65-5.45h-3.69c-9.6.22-19.19,5.11-26.3,14.07q-1.2,1.51-2.37,3.06c-.92-1.32-1.85-2.6-2.84-3.84-9-11.34-21.23-15.06-32.13-13.11V65a32.83,32.83,0,0,0-21.41,6.63c-14.39,10.78-21,32.91-16,53.08,2.89,11.79,8.75,21.66,15.4,31,14,19.7,31.37,34.69,50.12,48a4.91,4.91,0,0,0,2.69,1h.79l8-.3h.12a5.17,5.17,0,0,0,2.19-1.06c6.44-5,13-9.87,19.23-15.21,13.31-11.43,25.61-24.07,35.17-39.77,6.54-10.75,12-22.1,12.32-35.5C222.76,95.24,217.18,80.49,203.73,70.68Z"/><path class="cls-2" d="M145.34,207.12h-.89a7.14,7.14,0,0,1-4-1.41,261.88,261.88,0,0,1-27.09-21.83,174.58,174.58,0,0,1-23.57-26.76c-6-8.48-12.6-18.9-15.77-31.83A60,60,0,0,1,74.84,94a52.35,52.35,0,0,1,6.28-13.62,42,42,0,0,1,9.82-10.6,35.11,35.11,0,0,1,23-7.09l1.63.11a34,34,0,0,1,15.82,2,38.11,38.11,0,0,1,16.36,12.26l1.07,1.4.49-.61a40.91,40.91,0,0,1,12.95-10.93,33.68,33.68,0,0,1,14.38-4l.05,0h4.23a31.52,31.52,0,0,1,12.36.41A32.6,32.6,0,0,1,205.1,68.8h0a45.38,45.38,0,0,1,15.28,19.14c3.07,7.24,4.51,15.67,4.28,25.06-.36,14.56-6.61,26.7-12.66,36.65a143.28,143.28,0,0,1-16.45,21.84A210.69,210.69,0,0,1,176.36,190c-4.63,4-9.49,7.72-14.2,11.33-1.68,1.3-3.42,2.63-5.11,4a7.59,7.59,0,0,1-3.17,1.51l-.16,0-.34,0Zm-.79-4.66h.71l7.84-.29a3.28,3.28,0,0,0,1.08-.58c1.71-1.34,3.46-2.68,5.15-4,4.65-3.58,9.46-7.28,14-11.17a205.62,205.62,0,0,0,18.78-18.08A138.6,138.6,0,0,0,208,147.23a99.78,99.78,0,0,0,8.3-16.37,53.83,53.83,0,0,0,3.68-18c.44-17.89-5.5-31.46-17.64-40.31h0a28.21,28.21,0,0,0-10.18-4.73,27.22,27.22,0,0,0-10.72-.32l-.19,0h-3.83a29.12,29.12,0,0,0-13,3.48,36.38,36.38,0,0,0-11.48,9.71c-.71.88-1.45,1.84-2.35,3l-1.92,2.53-1.83-2.6c-1.08-1.53-1.93-2.68-2.76-3.73A33.45,33.45,0,0,0,129.7,69.17a29.32,29.32,0,0,0-15.54-1.45l-2.74.48v-.9a28.86,28.86,0,0,0-8.29,1.39,31.92,31.92,0,0,0-9.39,4.83A37.09,37.09,0,0,0,85,82.94,47.9,47.9,0,0,0,79.3,95.35a55.72,55.72,0,0,0-.74,28.83c3,12.18,9.28,22.12,15,30.24a170.09,170.09,0,0,0,23,26.05,257.37,257.37,0,0,0,26.61,21.45A2.68,2.68,0,0,0,144.55,202.46Z"/><path class="cls-11" d="M195.72,70.51a30.9,30.9,0,0,0-8-4.23l.41-1.65H177.39c-9.6.22-19.19,5.11-26.3,14.08-2.27,2.86-4.44,5.83-6.69,8.78-2.25-3.17-4.26-6.28-6.52-9.14A35.86,35.86,0,0,0,122.2,66.7V64.83h-8.8a31.7,31.7,0,0,0-21.06,6.23C78,81.85,71.36,104,76.3,124.14c2.89,11.79,8.75,21.66,15.4,31,14,19.7,31.37,34.89,50.12,48.24a4.82,4.82,0,0,0,2.69,1h0l8.79.2,1.7-7.05c4-3.08,8-6.2,11.83-9.5C180.14,176.61,192.44,164,202,148.27c6.54-10.75,12-22.1,12.32-35.5C214.76,95.07,209.17,80.32,195.72,70.51Z"/><path class="cls-12" d="M152.41,87.67c2.24-3,4.42-5.92,6.69-8.78,11.81-14.89,30.44-18.55,44.63-8.2,13.45,9.8,19,24.55,18.6,42.25-.33,13.4-5.78,24.75-12.32,35.5-9.56,15.7-21.86,28.34-35.17,39.77-6.23,5.34-12.79,10.19-19.23,15.21a4.47,4.47,0,0,1-5.78.17c-18.75-13.35-36.14-28.54-50.12-48.24-6.65-9.37-12.51-19.25-15.4-31-4.94-20.17,1.65-42.3,16-53.08,12.76-9.57,32.51-9.1,45.53,7.29C148.15,81.39,150.16,84.51,152.41,87.67Z"/><path class="cls-8" d="M111.32,145.35h-10.8a.75.75,0,0,1-.62-.32,70.8,70.8,0,0,1-5.57-10.74.67.67,0,0,1-.06-.28v-4.54a.75.75,0,0,1,1.49,0v4.39a71.19,71.19,0,0,0,5.15,10h10.41a.74.74,0,0,1,.74.74A.75.75,0,0,1,111.32,145.35Z"/><path class="cls-8" d="M111.78,161a.75.75,0,0,1-.59-.29l-5.43-6.91a.73.73,0,0,1,.12-1,.75.75,0,0,1,1.05.12l5.43,6.91a.75.75,0,0,1-.12,1A.8.8,0,0,1,111.78,161Z"/><path class="cls-8" d="M136.12,184a.75.75,0,0,1-.47-.17l-7-5.77a.73.73,0,0,1-.1-1,.75.75,0,0,1,1.05-.11l7,5.77a.75.75,0,0,1,.1,1.05A.72.72,0,0,1,136.12,184Z"/><path class="cls-8" d="M156.24,194.62h-5.55a.71.71,0,0,1-.43-.14L143.88,190a.72.72,0,0,1-.31-.6V177.91a.74.74,0,1,1,1.48,0V189l5.87,4.16H156l4.93-3.64a.74.74,0,0,1,.88,1.2l-5.12,3.78A.71.71,0,0,1,156.24,194.62Z"/><path class="cls-8" d="M168.86,185.47a.87.87,0,0,1-.31-.07.76.76,0,0,1-.43-.67v-7.24a.74.74,0,0,1,.74-.74.75.75,0,0,1,.75.74v5.67l7.26-5.93a.75.75,0,0,1,1,.11.73.73,0,0,1-.11,1l-8.48,6.92A.73.73,0,0,1,168.86,185.47Z"/><path class="cls-8" d="M193.23,162.74a.73.73,0,0,1-.41-.12.77.77,0,0,1-.34-.63v-8.61a.75.75,0,0,1,.75-.74.74.74,0,0,1,.74.74v7a64.19,64.19,0,0,0,6.19-7.48.74.74,0,0,1,1-.15.75.75,0,0,1,.16,1c-5.69,7.65-7.52,8.71-7.84,8.84A.59.59,0,0,1,193.23,162.74Z"/><path class="cls-8" d="M149,96.31h-2a3.42,3.42,0,0,1-3.42-3.42V89.54a.74.74,0,0,1,1.48,0v3.35A1.94,1.94,0,0,0,147,94.83h2a.74.74,0,1,1,0,1.48Z"/><path class="cls-8" d="M161.06,96.28h-5.68a.75.75,0,0,1-.74-.75.74.74,0,0,1,.74-.74h5.68a.75.75,0,0,1,.75.74A.76.76,0,0,1,161.06,96.28Z"/><path class="cls-14" d="M145.17,86.34s2.39,2.14,6.72,8.31h-1.5s-3.75-5-5.22-6.79Z"/><g class="cls-15"><polygon class="cls-8" points="75.44 87.99 187.12 199.67 206.13 180.66 95.34 69.88 75.44 87.99"/><polygon class="cls-8" points="106.25 58.92 217.93 170.61 229.59 158.94 118.81 48.16 106.25 58.92"/></g><g class="cls-16"><rect class="cls-14" x="96.03" y="74.7" width="18.59" height="19.94" rx="1.76"/><rect class="cls-14" x="120.6" y="74.7" width="18.59" height="19.94" rx="1.76"/><rect class="cls-14" x="145.17" y="74.7" width="18.59" height="19.94" rx="1.76"/><rect class="cls-14" x="169.75" y="74.7" width="18.59" height="19.94" rx="1.76"/><path class="cls-11" d="M110.9,78H96V92.91a1.76,1.76,0,0,0,1.76,1.76h14.88V79.79A1.76,1.76,0,0,0,110.9,78Z"/><path class="cls-11" d="M128.93,78H120.6V92.91a1.76,1.76,0,0,0,1.76,1.76h14.87V83.26C137.23,82.29,129.9,78,128.93,78Z"/><path class="cls-11" d="M160.05,78H145.17V92.91a1.76,1.76,0,0,0,1.76,1.76h14.88V79.79A1.76,1.76,0,0,0,160.05,78Z"/><path class="cls-11" d="M184.62,78H169.74V92.91a1.76,1.76,0,0,0,1.76,1.76h14.88V79.79A1.76,1.76,0,0,0,184.62,78Z"/><path class="cls-8" d="M111,96.37H97.7a3.44,3.44,0,0,1-3.43-3.43V79.29a.72.72,0,1,1,1.43,0V92.94a2,2,0,0,0,2,2H111a.72.72,0,0,1,0,1.43Z"/><path class="cls-8" d="M135.57,96.37H122.29a3.44,3.44,0,0,1-3.43-3.43V79.29a.72.72,0,1,1,1.43,0V92.94a2,2,0,0,0,2,2h13.28a.72.72,0,1,1,0,1.43Z"/><path class="cls-8" d="M184.64,96.37H171.36a3.44,3.44,0,0,1-3.44-3.43V83.25a.72.72,0,0,1,1.43,0v9.69a2,2,0,0,0,2,2h13.28a.72.72,0,1,1,0,1.43Z"/><rect class="cls-14" x="194.15" y="74.7" width="18.59" height="19.94" rx="1.76"/><path class="cls-11" d="M198.12,78c-1.3-.71-4,0-4,0V92.91a1.76,1.76,0,0,0,1.76,1.76H209.2C208.17,89.05,202.46,80.4,198.12,78Z"/><path class="cls-8" d="M209.05,96.37H195.76a3.44,3.44,0,0,1-3.43-3.43V79.29a.72.72,0,1,1,1.43,0V92.94a2,2,0,0,0,2,2h13.29a.72.72,0,0,1,0,1.43Z"/><rect class="cls-14" x="120.6" y="123.69" width="18.59" height="19.94" rx="1.76"/><rect class="cls-14" x="96.03" y="123.69" width="18.59" height="19.94" rx="1.76"/><rect class="cls-14" x="96.03" y="99.12" width="18.59" height="19.94" rx="1.76"/><rect class="cls-14" x="120.6" y="99.12" width="18.59" height="19.94" rx="1.76"/><rect class="cls-14" x="169.75" y="123.69" width="18.59" height="19.94" rx="1.76"/><rect class="cls-14" x="145.17" y="99.12" width="18.59" height="19.94" rx="1.76"/><rect class="cls-14" x="145.17" y="123.69" width="18.59" height="19.94" rx="1.76"/><rect class="cls-14" x="169.75" y="99.12" width="18.59" height="19.94" rx="1.76"/><path class="cls-11" d="M122.36,143.66h14.87V128.78a1.76,1.76,0,0,0-1.76-1.76H120.6V141.9A1.76,1.76,0,0,0,122.36,143.66Z"/><path class="cls-11" d="M97.78,143.66h14.88V128.78A1.76,1.76,0,0,0,110.9,127H96V141.9A1.76,1.76,0,0,0,97.78,143.66Z"/><path class="cls-11" d="M110.9,102.45H96v14.87a1.76,1.76,0,0,0,1.76,1.76h14.88V104.21A1.76,1.76,0,0,0,110.9,102.45Z"/><path class="cls-11" d="M135.47,102.45H120.6v14.87a1.75,1.75,0,0,0,1.76,1.76h14.87V104.21A1.76,1.76,0,0,0,135.47,102.45Z"/><path class="cls-11" d="M171.5,143.66h14.88V128.78a1.76,1.76,0,0,0-1.76-1.76H169.74V141.9A1.76,1.76,0,0,0,171.5,143.66Z"/><path class="cls-11" d="M160.05,102.45H145.17v14.87a1.76,1.76,0,0,0,1.76,1.76h14.88V104.21A1.76,1.76,0,0,0,160.05,102.45Z"/><path class="cls-11" d="M146.93,143.66h14.88V128.78a1.76,1.76,0,0,0-1.76-1.76H145.17V141.9A1.76,1.76,0,0,0,146.93,143.66Z"/><path class="cls-11" d="M184.62,102.45H169.74v14.87a1.76,1.76,0,0,0,1.76,1.76h14.88V104.21A1.76,1.76,0,0,0,184.62,102.45Z"/><path class="cls-8" d="M111,120.78H97.7a3.43,3.43,0,0,1-3.43-3.43V103.7a.72.72,0,0,1,1.43,0v13.65a2,2,0,0,0,2,2H111a.71.71,0,0,1,0,1.42Z"/><path class="cls-8" d="M135.57,120.78H122.29a3.43,3.43,0,0,1-3.43-3.43V103.7a.72.72,0,0,1,1.43,0v13.65a2,2,0,0,0,2,2h13.28a.71.71,0,1,1,0,1.42Z"/><path class="cls-8" d="M135.57,145.39H122.29a3.44,3.44,0,0,1-3.43-3.43V128.31a.72.72,0,1,1,1.43,0V142a2,2,0,0,0,2,2h13.28a.72.72,0,1,1,0,1.43Z"/><path class="cls-8" d="M160.13,120.78H146.85a3.43,3.43,0,0,1-3.44-3.43V103.7a.72.72,0,0,1,1.43,0v13.65a2,2,0,0,0,2,2h13.28a.71.71,0,1,1,0,1.42Z"/><path class="cls-8" d="M160.13,145.39H146.85a3.44,3.44,0,0,1-3.44-3.43V128.31a.72.72,0,1,1,1.43,0V142a2,2,0,0,0,2,2h13.28a.72.72,0,0,1,0,1.43Z"/><path class="cls-8" d="M184.64,120.78H171.36a3.43,3.43,0,0,1-3.44-3.43V103.7a.72.72,0,0,1,1.43,0v13.65a2,2,0,0,0,2,2h13.28a.71.71,0,1,1,0,1.42Z"/><path class="cls-8" d="M184.64,145.39H171.36a3.44,3.44,0,0,1-3.44-3.43V128.31a.72.72,0,1,1,1.43,0V142a2,2,0,0,0,2,2h13.28a.72.72,0,1,1,0,1.43Z"/><rect class="cls-14" x="194.15" y="123.69" width="18.59" height="19.94" rx="1.76"/><rect class="cls-14" x="194.15" y="99.12" width="18.59" height="19.94" rx="1.76"/><path class="cls-11" d="M195.91,143.66h8.73c2.89-3.88,6.14-11.74,6.14-11.74v-3.14A1.76,1.76,0,0,0,209,127H194.15V141.9A1.76,1.76,0,0,0,195.91,143.66Z"/><path class="cls-11" d="M209,102.45H194.15v14.87a1.76,1.76,0,0,0,1.76,1.76h14.87V104.21A1.76,1.76,0,0,0,209,102.45Z"/><path class="cls-8" d="M209.05,120.78H195.76a3.43,3.43,0,0,1-3.43-3.43V103.7a.72.72,0,0,1,1.43,0v13.65a2,2,0,0,0,2,2h13.29a.71.71,0,0,1,0,1.42Z"/><path class="cls-8" d="M203.1,145.39h-7.34a3.44,3.44,0,0,1-3.43-3.43V128.31a.72.72,0,1,1,1.43,0V142a2,2,0,0,0,2,2h7.34a.72.72,0,1,1,0,1.43Z"/><rect class="cls-14" x="120.6" y="172.97" width="18.59" height="19.94" rx="1.76"/><rect class="cls-14" x="96.03" y="172.97" width="18.59" height="19.94" rx="1.76"/><rect class="cls-14" x="96.03" y="148.4" width="18.59" height="19.94" rx="1.76"/><rect class="cls-14" x="120.6" y="148.4" width="18.59" height="19.94" rx="1.76"/><rect class="cls-14" x="169.75" y="172.97" width="18.59" height="19.94" rx="1.76"/><rect class="cls-14" x="145.17" y="148.4" width="18.59" height="19.94" rx="1.76"/><rect class="cls-14" x="145.17" y="172.97" width="18.59" height="19.94" rx="1.76"/><rect class="cls-14" x="169.75" y="148.4" width="18.59" height="19.94" rx="1.76"/><path class="cls-11" d="M122.36,192.94h14.87V178.06a1.76,1.76,0,0,0-1.76-1.76H120.6v14.88A1.76,1.76,0,0,0,122.36,192.94Z"/><path class="cls-11" d="M97.78,192.94h14.88V178.06a1.76,1.76,0,0,0-1.76-1.76H96v14.88A1.76,1.76,0,0,0,97.78,192.94Z"/><path class="cls-11" d="M110.9,151.73H96v14.88a1.76,1.76,0,0,0,1.76,1.76h14.88V153.49A1.76,1.76,0,0,0,110.9,151.73Z"/><path class="cls-11" d="M135.47,151.73H120.6v14.88a1.76,1.76,0,0,0,1.76,1.76h14.87V153.49A1.76,1.76,0,0,0,135.47,151.73Z"/><path class="cls-11" d="M171.5,192.94h14.88V178.06a1.76,1.76,0,0,0-1.76-1.76H169.74v14.88A1.76,1.76,0,0,0,171.5,192.94Z"/><path class="cls-11" d="M160.05,151.73H145.17v14.88a1.76,1.76,0,0,0,1.76,1.76h14.88V153.49A1.76,1.76,0,0,0,160.05,151.73Z"/><path class="cls-11" d="M146.93,192.94h14.88V178.06a1.76,1.76,0,0,0-1.76-1.76H145.17v14.88A1.76,1.76,0,0,0,146.93,192.94Z"/><path class="cls-11" d="M184.62,151.73H169.74v14.88a1.76,1.76,0,0,0,1.76,1.76h14.88V153.49A1.76,1.76,0,0,0,184.62,151.73Z"/><path class="cls-8" d="M111,170.07H97.7a3.44,3.44,0,0,1-3.43-3.44V153a.72.72,0,0,1,1.43,0v13.65a2,2,0,0,0,2,2H111a.72.72,0,0,1,0,1.43Z"/><path class="cls-8" d="M111,194.67H97.7a3.44,3.44,0,0,1-3.43-3.43V177.59a.72.72,0,1,1,1.43,0v13.65a2,2,0,0,0,2,2H111a.72.72,0,0,1,0,1.43Z"/><path class="cls-8" d="M135.57,170.07H122.29a3.44,3.44,0,0,1-3.43-3.44V153a.72.72,0,0,1,1.43,0v13.65a2,2,0,0,0,2,2h13.28a.72.72,0,1,1,0,1.43Z"/><path class="cls-8" d="M135.57,194.67H122.29a3.44,3.44,0,0,1-3.43-3.43V177.59a.72.72,0,1,1,1.43,0v13.65a2,2,0,0,0,2,2h13.28a.72.72,0,1,1,0,1.43Z"/><path class="cls-8" d="M160.13,170.07H146.85a3.44,3.44,0,0,1-3.44-3.44V153a.72.72,0,0,1,1.43,0v13.65a2,2,0,0,0,2,2h13.28a.72.72,0,0,1,0,1.43Z"/><path class="cls-8" d="M182.66,170.07h-11.3a3.44,3.44,0,0,1-3.44-3.44V153a.72.72,0,0,1,1.43,0v13.65a2,2,0,0,0,2,2h11.3a.72.72,0,0,1,0,1.43Z"/><rect class="cls-14" x="194.15" y="172.97" width="18.59" height="19.94" rx="1.76"/><rect class="cls-14" x="194.15" y="148.4" width="18.59" height="19.94" rx="1.76"/><path class="cls-11" d="M195.91,192.94h14.87V178.06A1.76,1.76,0,0,0,209,176.3H194.15v14.88A1.76,1.76,0,0,0,195.91,192.94Z"/><path class="cls-11" d="M209,151.73H194.15v14.88a1.76,1.76,0,0,0,1.76,1.76h14.87V153.49A1.76,1.76,0,0,0,209,151.73Z"/><path class="cls-8" d="M209.05,194.67H195.76a3.44,3.44,0,0,1-3.43-3.43V177.59a.72.72,0,1,1,1.43,0v13.65a2,2,0,0,0,2,2h13.29a.72.72,0,0,1,0,1.43Z"/></g><g class="cls-17"><g class="cls-18"><rect class="cls-19" x="52.44" y="38.5" width="202.61" height="144.5"/></g><g class="cls-20"><path class="cls-2" d="M66.31,46V164.79H243.82V46Zm159.08,65.24c-1,4.66-1.17,1.87-6,3.17s-5,5.4-4.65,12.62-7.16,24.53-19,12.7-1.3-14.15-1.3-31.09-22-3.91-20.6,12.23S169.33,147,163.19,147s-15.26-2-9.72-26.13-16-23.59-21.89-13.72,8.35,14.15-2.85,24.47-18.2-1.57-16.41-16.74-16.49-16.49-17.24.83,6.33,33.74-11.53,33.74-7.3-35.89-7.3-35.89c0-19.52,4.34-39.9,18.47-50.08a33.25,33.25,0,0,1,21-6.25v.37c10.71-1.84,22.72,1.67,31.56,12.37,1,1.17,1.88,2.38,2.79,3.62.77-1,1.54-1.93,2.32-2.88,7-8.46,16.4-13.08,25.82-13.28h3.63a30,30,0,0,1,22.24,5.15c13.21,9.25,19.66,23.79,20.08,39.86C224.26,105.37,226.06,108,225.39,111.22Z"/></g></g><path class="cls-2" d="M79.3,157.45a10,10,0,0,1-8.46-4c-3-4.08-4-11.15-2.73-21a96.84,96.84,0,0,1,2.7-13.34c0-11.36,1.4-21.4,4.14-29.85,3.29-10.14,8.49-17.83,15.46-22.84a35.27,35.27,0,0,1,22.43-6.68,52.18,52.18,0,0,1,21,4,30.19,30.19,0,0,1,12.58,9.63c.47.65,1,1.27,1.48,1.93q.36.44.72.9c.62-.78,1.18-1.47,1.71-2.12a40.36,40.36,0,0,1,12.77-10.35A34,34,0,0,1,177.58,60l0,0h4a32.27,32.27,0,0,1,12.16.36,32.6,32.6,0,0,1,11.58,5.15A47.83,47.83,0,0,1,221,83.87a57.29,57.29,0,0,1,5.55,23.76,14.48,14.48,0,0,0,.67,3.46,12.08,12.08,0,0,1,.57,5.91,6.78,6.78,0,0,1-1.12,3.07,2.44,2.44,0,0,1-2.18.57,9.75,9.75,0,0,0-3.6.33c-4.29,1.16-4.57,4.62-4.18,12.23a22.53,22.53,0,0,1-2.19,9.68c-1.77,3.89-4.26,6.71-7,7.93a8.17,8.17,0,0,1-5.68.39,15.13,15.13,0,0,1-6.41-4.12c-3.74-3.74-5.6-6.78-6-9.87-.39-2.87.53-5.51,1.6-8.56a40.81,40.81,0,0,0,2.8-14.54c0-3.52-1-5.89-2.76-6.87s-4.79-.47-7.75,1.46c-4.87,3.19-9.82,10.2-9.16,18.06.9,10.79-1.23,20.14-5.71,25a8.58,8.58,0,0,1-6.27,3.13c-2.9,0-7.08-.4-9.86-3.91-1.64-2.05-2.6-5-2.86-8.62a55.09,55.09,0,0,1,1.73-15.74c1.23-5.35,1.23-9.79,0-13.18a9.63,9.63,0,0,0-5.46-5.85c-5.33-2.15-12.66.38-15.69,5.42-2.52,4.19-1.23,7.27.14,10.53.89,2.12,1.8,4.32,1.62,6.8-.21,2.76-1.8,5.48-4.88,8.32-5.57,5.13-9.65,4.71-12.1,3.47-5.09-2.61-7.69-11.3-6.47-21.65.53-4.48-.69-8.13-3.36-10a6.73,6.73,0,0,0-6.94-.49c-1.65.81-5.53,3.55-5.87,11.52a112.09,112.09,0,0,0,.41,12.93c.58,8.25,1.08,15.38-2.76,19.5C87.64,156.3,84.19,157.45,79.3,157.45Zm31.58-96a32.08,32.08,0,0,0-9.38,1.45,34.88,34.88,0,0,0-10,5c-6.65,4.79-11.63,12.18-14.8,22C74,98.12,72.59,108,72.59,119.23v.13l0,.12c-.07.24-7,24-.28,32.92a8.17,8.17,0,0,0,7,3.27c4.37,0,7.39-1,9.24-3,3.31-3.55,2.84-10.32,2.29-18.16a112.8,112.8,0,0,1-.41-13.12c.38-8.93,4.93-12.1,6.86-13.05A8.49,8.49,0,0,1,106,109c3.22,2.28,4.71,6.54,4.1,11.68-1.12,9.46,1.15,17.62,5.51,19.85,2.78,1.42,6.27.31,10.08-3.2,6-5.52,4.53-9,2.82-13.11-1.4-3.36-3-7.18,0-12.14a15,15,0,0,1,7.92-6.18,14.18,14.18,0,0,1,9.95,0,11.31,11.31,0,0,1,6.47,6.89c1.36,3.72,1.39,8.5.08,14.19-2.59,11.26-2.33,18.94.78,22.85,2.28,2.87,5.72,3.24,8.47,3.24a6.87,6.87,0,0,0,4.95-2.55,20.66,20.66,0,0,0,4.34-9,45.67,45.67,0,0,0,.91-14.68,20.54,20.54,0,0,1,2.65-11.67,23,23,0,0,1,7.31-8c3.57-2.34,7.07-2.9,9.58-1.54,1.68.91,3.69,3.11,3.69,8.44a42.27,42.27,0,0,1-2.9,15.13c-1,2.95-1.84,5.28-1.51,7.74.36,2.67,2.05,5.39,5.5,8.84,3.61,3.61,7,4.74,10.1,3.36,2.34-1,4.51-3.54,6.11-7a21,21,0,0,0,2-8.85c-.21-4.15-.21-7,.42-9.17a6.62,6.62,0,0,1,5.08-4.87,11.56,11.56,0,0,1,4.19-.39,2.93,2.93,0,0,0,.74,0c.11-.09.33-.55.68-2.23a10.49,10.49,0,0,0-.54-5.07,16.45,16.45,0,0,1-.73-3.88,55.47,55.47,0,0,0-5.37-23,46,46,0,0,0-15.15-17.73,30.63,30.63,0,0,0-11-4.88,30.29,30.29,0,0,0-11.55-.33h-3.89a32.37,32.37,0,0,0-14,3.59,38.48,38.48,0,0,0-12.2,9.9c-.73.88-1.49,1.83-2.41,3l-.73.91-.69-.94c-.44-.6-.92-1.2-1.37-1.77s-1-1.32-1.54-2a28.37,28.37,0,0,0-11.85-9,50.35,50.35,0,0,0-20.28-3.86h0C112.13,61.48,111.5,61.46,110.88,61.46Z"/><path class="cls-21" d="M170.27,136.84a1.43,1.43,0,0,1-1.43-1.3,71,71,0,0,1,1.09-18.76,1.43,1.43,0,1,1,2.81.58,70,70,0,0,0-1,17.91,1.44,1.44,0,0,1-1.29,1.57Z"/><circle class="cls-21" cx="168.21" cy="140.07" r="1.88"/><circle class="cls-21" cx="126.8" cy="128.82" r="1.88"/><circle class="cls-21" cx="88.01" cy="145.56" r="1.88"/><circle class="cls-21" cx="210.58" cy="134.61" r="1.88"/><circle class="cls-21" cx="222.35" cy="110.36" r="1.88"/><path class="cls-21" d="M212.46,130.91a1.44,1.44,0,0,1-1.41-1.14,36.38,36.38,0,0,1-.36-11.72,1.44,1.44,0,0,1,2.84.44,34.29,34.29,0,0,0,.33,10.68,1.42,1.42,0,0,1-1.1,1.7A1,1,0,0,1,212.46,130.91Z"/><path class="cls-21" d="M222.35,106.5h-.12a1.43,1.43,0,0,1-1.31-1.55,36.13,36.13,0,0,0-.83-9.25,44.82,44.82,0,0,0-9.41-19.54,36.76,36.76,0,0,0-12.42-8.79,38.33,38.33,0,0,0-12.07-2.91,39.39,39.39,0,0,0-12.68,1,1.44,1.44,0,0,1-.79-2.77,42.41,42.41,0,0,1,13.69-1,41.09,41.09,0,0,1,13,3.13,39.3,39.3,0,0,1,13.43,9.51l.06.06a47.9,47.9,0,0,1,10.06,20.93,37.63,37.63,0,0,1,.85,10A1.44,1.44,0,0,1,222.35,106.5Z"/><path class="cls-21" d="M125.64,126.25a1.43,1.43,0,0,1-1.37-1,23.8,23.8,0,0,1-.92-6c-.1-4.56,1.21-8.35,3.81-11a1.44,1.44,0,1,1,2,2c-5,5-2.21,14-2.18,14.1a1.43,1.43,0,0,1-.94,1.8A1.59,1.59,0,0,1,125.64,126.25Z"/><path class="cls-21" d="M88.53,142.78a1.42,1.42,0,0,1-1.43-1.33c0-.07-.52-7.28-.52-18.58,0-12.05,6.85-16.4,7.14-16.58l1.5,2.45h0a11.26,11.26,0,0,0-2.88,3.13,19.84,19.84,0,0,0-2.9,11c0,11.18.51,18.3.51,18.37a1.43,1.43,0,0,1-1.32,1.54Z"/><path class="cls-21" d="M142.11,76.48A13.2,13.2,0,0,0,139,72.73c-2.14-1.91-6.06-4.53-12.55-6.18a1.43,1.43,0,0,1,.71-2.78C141,67.29,144.58,75,144.72,75.29l-2.62,1.18Z"/><circle class="cls-8" cx="125.57" cy="136.08" r="16.46"/><path class="cls-2" d="M125.57,153.43a17.35,17.35,0,1,1,17.35-17.35A17.37,17.37,0,0,1,125.57,153.43Zm0-32.92a15.57,15.57,0,1,0,15.56,15.57A15.59,15.59,0,0,0,125.57,120.51Z"/><circle class="cls-2" cx="125.57" cy="136.08" r="11.42"/><circle class="cls-8" cx="122.79" cy="141.35" r="2.48"/><path class="cls-8" d="M118.86,137.72a1.54,1.54,0,0,1-1.54-1.54,8.26,8.26,0,0,1,8.25-8.25,1.54,1.54,0,0,1,0,3.08,5.18,5.18,0,0,0-5.18,5.17A1.53,1.53,0,0,1,118.86,137.72Z"/><circle class="cls-8" cx="184.32" cy="136.08" r="16.46"/><path class="cls-2" d="M184.32,153.43a17.35,17.35,0,1,1,17.35-17.35A17.37,17.37,0,0,1,184.32,153.43Zm0-32.92a15.57,15.57,0,1,0,15.57,15.57A15.59,15.59,0,0,0,184.32,120.51Z"/><circle class="cls-2" cx="184.32" cy="136.08" r="11.42"/><circle class="cls-8" cx="181.55" cy="141.35" r="2.48"/><path class="cls-8" d="M177.61,137.72a1.54,1.54,0,0,1-1.53-1.54,8.26,8.26,0,0,1,8.24-8.25,1.54,1.54,0,1,1,0,3.08,5.18,5.18,0,0,0-5.17,5.17A1.54,1.54,0,0,1,177.61,137.72Z"/><g class="cls-22"><path class="cls-23" d="M185.66,141.35a27.23,27.23,0,0,0-26.31,20.22,14.88,14.88,0,0,1-6.83,7,14.88,14.88,0,0,1,6.83,7,27.22,27.22,0,1,0,26.31-34.2Z"/></g><path class="cls-2" d="M185.66,196.66a28.11,28.11,0,0,1-27.15-20.82,14.13,14.13,0,0,0-6.37-6.47.89.89,0,0,1,0-1.62,14.17,14.17,0,0,0,6.36-6.48,28.11,28.11,0,1,1,27.15,35.39Zm-31.33-28.1a15.3,15.3,0,0,1,5.85,6.64s0,.08,0,.12a26.32,26.32,0,1,0,0-13.52s0,.08,0,.11A15.27,15.27,0,0,1,154.33,168.56Zm5-7h0Z"/><path class="cls-2" d="M143.51,178.43a.89.89,0,0,1,0-1.78,8.09,8.09,0,0,0,0-16.18.9.9,0,0,1,0-1.79,9.88,9.88,0,0,1,0,19.75Z"/><circle class="cls-8" cx="187.57" cy="152.54" r="6.6"/><circle class="cls-8" cx="200.17" cy="157.44" r="4.2"/><path class="cls-24" d="M86.72,73.7c-3.28-2.35-6.09-6.8-8.21-13.63s-6.27-6.22-6.27-6.22,11.3-6.22,19.63,4.69-.2,16.11-.2,16.11Z"/><path class="cls-25" d="M72.24,53.85S85,51.4,89.21,66.46l2.46,8.19-5-1s-3.84-2-7.13-10.5S76.53,55,72.24,53.85Z"/><path class="cls-24" d="M83.49,94.78c-3.65,1.69-8.92,1.94-15.9.42s-8.5,2.38-8.5,2.38.16-12.89,13.76-14.76S86.77,91,86.77,91Z"/><path class="cls-25" d="M59.09,97.58S63.24,85.29,78.42,89L86.77,91l-3.28,3.83s-3.62,2.37-12.64,1S62.16,94.4,59.09,97.58Z"/><path class="cls-2" d="M91.63,75.57h-.17l-4.95-1a.85.85,0,0,1-.24-.09c-.14-.07-3.5-1.86-6.64-8.78l-.06-.14c0-.12-.1-.23-.16-.35v0l-.06-.15c-.06-.13-.11-.27-.17-.4l-.07-.18,0,0-.12-.3L78.88,64l-.16-.42-.28-.74a41.26,41.26,0,0,0-2.64-6.13,6.06,6.06,0,0,0-1.08-1.07,10.79,10.79,0,0,0-2.42-.79L72,54.74a.89.89,0,0,1-.66-.75.88.88,0,0,1,.45-.89,17.66,17.66,0,0,1,7.08-1.86c3.74-.18,9.15.84,13.69,6.78,3.08,4,4.31,7.81,3.67,11.23a9.75,9.75,0,0,1-4.11,6.19A.9.9,0,0,1,91.63,75.57ZM87,72.88l4.43.85a8,8,0,0,0,3-4.84c.54-2.89-.59-6.19-3.34-9.78C87.87,54.85,83.8,52.81,79,53a16.55,16.55,0,0,0-4.06.72,6,6,0,0,1,.72.35l.08,0a7.72,7.72,0,0,1,1.49,1.48l0,.06a40,40,0,0,1,2.82,6.49l.28.74c.06.13.11.27.16.4l.08.19c0,.09.07.19.11.28l0,0,.06.17c.06.13.11.26.17.38l.07.16.15.34.06.13a23.91,23.91,0,0,0,4,6.36A9.17,9.17,0,0,0,87,72.88Z"/><path class="cls-2" d="M59.05,98.5a.8.8,0,0,1-.34-.07.87.87,0,0,1-.55-.83A17.68,17.68,0,0,1,60,90.53C61.72,87.18,65.28,83,72.69,82h0c5-.68,8.91.1,11.57,2.35a9.78,9.78,0,0,1,3.36,6.63.9.9,0,0,1-.22.61l-3.27,3.84a1.54,1.54,0,0,1-.19.17C83.8,95.64,80.59,97.68,73,97h-.15l-.38,0-.19,0-.43,0-.22,0-.32,0-.21,0-.44-.07-.79-.12a41.55,41.55,0,0,0-6.62-.73,5.94,5.94,0,0,0-1.48.41A11.36,11.36,0,0,0,59.92,98l-.23.24A.87.87,0,0,1,59.05,98.5Zm4.59-4.43a51.2,51.2,0,0,1,6.52.76l.78.12.42.06.2,0,.31,0,.21,0,.42.05.17,0,.37,0,.14,0a23.84,23.84,0,0,0,7.51-.35,9.16,9.16,0,0,0,2.18-.76l2.93-3.43a8.06,8.06,0,0,0-2.71-5c-2.26-1.89-5.67-2.53-10.16-1.92h0c-5.3.73-9.1,3.27-11.27,7.54a16,16,0,0,0-1.38,3.89,5.41,5.41,0,0,1,.65-.45l.09,0a7.9,7.9,0,0,1,2-.57h.6Z"/><path class="cls-26" d="M99,73.23h0l.2-.12c.12-.07.23-.14.34-.19l1-.55c.78-.42,1.59-.86,2.4-1.25,2.79-1.34,5.78-1.43,9.44-.31a4.72,4.72,0,0,1,2.2,1.29,24.88,24.88,0,0,1,4.77,8.56,14.84,14.84,0,0,1,.67,6.39c0,.55-.1,1.11-.19,1.69A7.1,7.1,0,0,1,118.57,92l-.19.27a7.23,7.23,0,0,1-.55.72c-.44.5-.9,1-1.34,1.47-.91,1-1.85,2-2.7,3.08a3.12,3.12,0,0,1-2.05,1.22l-.18,0a4.41,4.41,0,0,1-.66.08c-.92,0-1.88.09-2.85.1a28.61,28.61,0,0,1-6.58-.48,3.34,3.34,0,0,1-2-1.07L99.24,97l-.38,1L97.62,97l.33-.73,1.57.06-.18.47.32-.17.4-.23a4.42,4.42,0,0,1,1-.45,9,9,0,0,1,1.84-.34,19.5,19.5,0,0,0,3.76-.72c2.95-.88,5.31-2.8,7.42-6a4.22,4.22,0,0,0,.37-.74,2.71,2.71,0,0,0-.29-2.92h0a9,9,0,0,1-.91-1.26c-.48-.85-1-1.72-1.42-2.56l-.66-1.21a7.11,7.11,0,0,1-.89-3.32c0-.27-.1-.32-.24-.36-.65-.2-1.22-.36-1.75-.49l-1.51-.34c-.76-.17-1.54-.35-2.31-.55a20.82,20.82,0,0,0-4.29-.76,5.13,5.13,0,0,1-.67-.09l-.34-.06-1.38-.22Z"/><path class="cls-26" d="M98.44,98.75a.38.38,0,0,1-.13-.09L97.08,97.6a.83.83,0,0,1-.22-1l.32-.73a.85.85,0,0,1,.8-.49l1.57.06a.73.73,0,0,1,.3.07,4.43,4.43,0,0,1,.93-.42,9.85,9.85,0,0,1,2-.37,18,18,0,0,0,3.6-.69c2.74-.81,5-2.62,7-5.69a3.44,3.44,0,0,0,.29-.58,1.86,1.86,0,0,0-.16-2.09h0a11,11,0,0,1-1-1.37c-.49-.86-1-1.74-1.43-2.58l-.65-1.21a7.86,7.86,0,0,1-1-3.38c-.49-.15-.94-.27-1.35-.37l-1.5-.34c-.77-.17-1.56-.35-2.34-.55a19.06,19.06,0,0,0-4.11-.74,4.56,4.56,0,0,1-.79-.11L99,75l-1.38-.22a.84.84,0,0,1-.7-.67.86.86,0,0,1,.4-.88l1.22-.71.19-.11.38-.22,1-.53c.79-.43,1.61-.87,2.44-1.28,3-1.43,6.18-1.54,10-.35a5.46,5.46,0,0,1,2.57,1.52,25.7,25.7,0,0,1,4.94,8.85,15.53,15.53,0,0,1,.71,6.74c0,.56-.09,1.14-.19,1.75a7.86,7.86,0,0,1-1.37,3.57l-.18.26a9.7,9.7,0,0,1-.62.8c-.44.5-.89,1-1.33,1.47h0c-.9,1-1.83,2-2.67,3a4,4,0,0,1-2.57,1.52l-.16,0h0a5.29,5.29,0,0,1-.76.09c-.93,0-1.89.08-2.88.1a29.32,29.32,0,0,1-6.77-.5,4.49,4.49,0,0,1-1.75-.74.83.83,0,0,1-1.1.23Zm2-1.64a2.71,2.71,0,0,0,1.19.51,27.86,27.86,0,0,0,6.39.46c1,0,1.91,0,2.82-.09a3.6,3.6,0,0,0,.56-.08h0l.17,0a2.26,2.26,0,0,0,1.53-.92c.87-1.08,1.82-2.11,2.74-3.11h0l1.32-1.45a6.5,6.5,0,0,0,.49-.65l.21-.29A6.21,6.21,0,0,0,119,88.61c.09-.55.13-1.1.18-1.63a14,14,0,0,0-.62-6,24,24,0,0,0-4.6-8.28,3.78,3.78,0,0,0-1.83-1c-3.44-1.07-6.24-1-8.82.26-.8.38-1.6.81-2.37,1.23l-.66.35a21.31,21.31,0,0,1,4.39.79c.76.2,1.53.37,2.28.54.5.11,1,.22,1.53.35s1.13.29,1.8.49a1.14,1.14,0,0,1,.83,1.15,6.18,6.18,0,0,0,.79,2.93l.66,1.22c.46.84.93,1.7,1.41,2.55a8.29,8.29,0,0,0,.83,1.14v0a3.48,3.48,0,0,1,.42,3.75,4.88,4.88,0,0,1-.45.89c-2.22,3.42-4.73,5.45-7.88,6.38a19.62,19.62,0,0,1-3.93.75,8.86,8.86,0,0,0-1.67.31,4.27,4.27,0,0,0-.78.38ZM99,73.23Z"/><path class="cls-26" d="M121.75,88.69a5,5,0,0,1-.73.46l-.34.19-.83.49.07-1c0-.07,0-.13,0-.19a2.64,2.64,0,0,1,0-.29A18.61,18.61,0,0,0,120,83,23,23,0,0,0,116,73.64a11,11,0,0,0-4.31-3.79,10.47,10.47,0,0,1-2-1.27,3.63,3.63,0,0,1-1.44-2.72,5.72,5.72,0,0,1,1.79-4.5.58.58,0,0,1,.34-.16l.4-.1.17.39c0,.07.07.15.1.23h0c.07.18.14.34.22.51A6.9,6.9,0,0,0,114.92,66a17.63,17.63,0,0,0,1.86.62h0l.45.13c.39.12.79.23,1.19.33a22.6,22.6,0,0,1,2.18.66,5.1,5.1,0,0,1,3.54,4.61l0,.32a7.91,7.91,0,0,1,.06.86,14.61,14.61,0,0,0,1.15,5.83,9.93,9.93,0,0,1,.79,3.78,2.92,2.92,0,0,1,0,.51,4.63,4.63,0,0,1-1.59,2.67c-.83.76-1.72,1.48-2.58,2.17Z"/><path class="cls-26" d="M119.43,90.56h0a.86.86,0,0,1-.4-.78l.08-1c0-.06,0-.12,0-.17s0-.22,0-.34a18,18,0,0,0,.05-5.14,22.18,22.18,0,0,0-3.91-9,10,10,0,0,0-4-3.51,11.7,11.7,0,0,1-2.16-1.37,4.47,4.47,0,0,1-1.76-3.32,6.53,6.53,0,0,1,2-5.15,1.38,1.38,0,0,1,.78-.39l.37-.09a.82.82,0,0,1,1,.48l.28.63.21.49a6.13,6.13,0,0,0,3.25,3.36,15.94,15.94,0,0,0,1.77.58h0l.44.13,1.16.32c.74.2,1.5.4,2.26.68A6,6,0,0,1,125,72.3l0,.3a9.14,9.14,0,0,1,.06,1,13.66,13.66,0,0,0,1.09,5.49,10,10,0,0,1,.59,1.87,9.59,9.59,0,0,1,.26,2.25,4.21,4.21,0,0,1,0,.62A5.39,5.39,0,0,1,125.11,87c-.85.78-1.75,1.5-2.61,2.2l-.23.18a5.37,5.37,0,0,1-.84.54l-.32.18-.83.49A.84.84,0,0,1,119.43,90.56Zm-6.59-21a12,12,0,0,1,3.81,3.64,23.91,23.91,0,0,1,4.19,9.71,19.27,19.27,0,0,1,0,5.42,4.64,4.64,0,0,0,.4-.26h0l.22-.19c.85-.68,1.73-1.39,2.54-2.13a3.78,3.78,0,0,0,1.33-2.18c0-.13,0-.26,0-.39a8.58,8.58,0,0,0-.23-1.89,8.44,8.44,0,0,0-.5-1.56,15.52,15.52,0,0,1-1.22-6.15,7,7,0,0,0-.05-.78l0-.33a4.29,4.29,0,0,0-3-3.9c-.69-.25-1.41-.44-2.11-.63-.4-.11-.81-.21-1.21-.33l-.43-.13h0a17.76,17.76,0,0,1-2-.64,7.73,7.73,0,0,1-4.13-4.22l-.15-.34a4.84,4.84,0,0,0-1.27,3.57,2.75,2.75,0,0,0,1.11,2.1A9.9,9.9,0,0,0,112,69.09C112.29,69.23,112.57,69.37,112.84,69.53Z"/><path class="cls-26" d="M96.79,67.37c.22-.17.43-.35.65-.54h0L98,66.4l.39-.31a12.27,12.27,0,0,1,1.2-.92,5.44,5.44,0,0,1,5.24-.48,12,12,0,0,1,2.72,1.64,4.07,4.07,0,0,1,1.15,1.28,5,5,0,0,0,.58.79l.32.39.44.56-.66.21a.53.53,0,0,1-.25,0h0l-.47,0a11.29,11.29,0,0,0-4.42.41,24,24,0,0,0-7,3.44A22.92,22.92,0,0,0,91.72,79a11.18,11.18,0,0,0-2.11,7.24c0,.56.06,1.13.08,1.67v0c0,.25,0,.5,0,.75l.06,1.38-.93-1-.52-.58c-.39-.44-.76-.85-1.15-1.25A11.79,11.79,0,0,1,85.1,84,2.68,2.68,0,0,1,85,81.71l0-.07h0a1,1,0,0,1,.3-.48,3.3,3.3,0,0,0,1-1.66c.29-1,.54-1.92.75-2.85s.36-1.8.52-2.68l.09-.47c0-.26.09-.53.13-.8s.11-.75.19-1.13a3.36,3.36,0,0,1,2.46-2.64l.13,0a4.89,4.89,0,0,1,.61-.17l.63-.12c1.11-.21,2.26-.42,3.39-.61A3.42,3.42,0,0,0,96.79,67.37Z"/><path class="cls-27" d="M89.37,90.8a.74.74,0,0,1-.2-.16l-.93-1c-.17-.2-.35-.4-.53-.59-.38-.43-.74-.83-1.12-1.22a12.37,12.37,0,0,1-2.24-3.44,3.51,3.51,0,0,1-.11-3v0h0a1.88,1.88,0,0,1,.55-.85,2.38,2.38,0,0,0,.71-1.25c.28-.94.52-1.88.73-2.79s.36-1.78.52-2.65l.08-.47c0-.25.09-.52.13-.77s.11-.78.2-1.19a4.17,4.17,0,0,1,3-3.26l.13,0a5,5,0,0,1,.7-.19l.63-.12c1.12-.21,2.27-.43,3.41-.62a2.62,2.62,0,0,0,1.21-.45c.2-.15.41-.33.61-.5l.54-.45.37-.31a12.06,12.06,0,0,1,1.29-1,6.25,6.25,0,0,1,6-.56A12.91,12.91,0,0,1,108,65.66a4.75,4.75,0,0,1,1.37,1.55,4.81,4.81,0,0,0,.49.65l.34.41.44.57a.8.8,0,0,1,.14.76.83.83,0,0,1-.54.55l-.63.2a1.45,1.45,0,0,1-.58.1h0l-.5,0a10.63,10.63,0,0,0-4.1.38,23.35,23.35,0,0,0-6.75,3.32,22.4,22.4,0,0,0-5.25,5.38,10.4,10.4,0,0,0-2,6.71c0,.57.06,1.14.08,1.68v0c0,.24,0,.49,0,.74L90.63,90a.83.83,0,0,1-.51.81A.86.86,0,0,1,89.37,90.8Zm-3.49-9s0,.09,0,.13a.84.84,0,0,0,0,.12,1.82,1.82,0,0,0,.07,1.62,10.88,10.88,0,0,0,1.93,3c.36.37.7.75,1.06,1.14,0-.49,0-1-.08-1.5A12.05,12.05,0,0,1,91,78.53a24,24,0,0,1,5.64-5.78,25,25,0,0,1,7.23-3.56,12.2,12.2,0,0,1,4.51-.47,3.94,3.94,0,0,1-.5-.71,3,3,0,0,0-.92-1,11,11,0,0,0-2.52-1.53,4.6,4.6,0,0,0-4.48.41,13.19,13.19,0,0,0-1.12.85l-.39.33-.5.41c-.22.19-.44.38-.68.56h0a4.13,4.13,0,0,1-2,.78c-1.13.18-2.27.4-3.38.61l-.63.12a3.94,3.94,0,0,0-.51.14l-.13,0a2.49,2.49,0,0,0-1.89,2c-.07.36-.13.73-.18,1.09s-.09.55-.14.82l-.08.47c-.17.89-.33,1.81-.54,2.71s-.46,1.93-.75,2.91A4,4,0,0,1,85.88,81.78Zm0,0Zm10.9-14.41Z"/><path class="cls-26" d="M84.51,87.88a9.15,9.15,0,0,0,.24-1.36c0-.22.06-.46.1-.7L85,84.56l.79,1.18h0l.11.17.55.8c.39.57.79,1.16,1.22,1.7a41.54,41.54,0,0,0,8.11,7.47l.66.48c.67.49,1.37,1,2,1.55a5.37,5.37,0,0,0,3.85,1.42l.75,0a15.45,15.45,0,0,1,2,0,23,23,0,0,0,6.33-.37l.29,0h.12l.62-.08-.06.63v.1a.75.75,0,0,1,0,.16,1.18,1.18,0,0,1-.11.19,6,6,0,0,1-3.76,2.75c-.53.11-1,.19-1.41.24l-.38,0a14.73,14.73,0,0,0-3.3.65,1.27,1.27,0,0,1-.55.06l-.82,0c-1.32-.09-2.7-.17-4-.28a2.05,2.05,0,0,1-1-.36c-.62-.49-1.19-1-1.7-1.51A6.41,6.41,0,0,0,93,100c-1.11-.39-2.37-.84-3.58-1.31A15,15,0,0,1,85,96.29a4.56,4.56,0,0,1-1.51-5.38c.11-.35.24-.7.36-1C84.09,89.22,84.33,88.54,84.51,87.88Z"/><path class="cls-27" d="M86.17,98.12a11.78,11.78,0,0,1-1.69-1.19,5.39,5.39,0,0,1-1.77-6.28c.12-.36.24-.72.36-1.06.23-.64.46-1.3.64-1.94h0a9.5,9.5,0,0,0,.21-1.23c0-.23.06-.47.1-.73l.19-1.26a.84.84,0,0,1,.65-.69.86.86,0,0,1,.88.35l.79,1.18h0l.1.15c.19.27.38.54.55.81.38.56.77,1.13,1.18,1.64a40.89,40.89,0,0,0,8,7.33l.65.47A25.14,25.14,0,0,1,99,97.29a4.54,4.54,0,0,0,3.28,1.2l.73,0a17,17,0,0,1,2.14,0,22,22,0,0,0,6.1-.35,3.19,3.19,0,0,1,.37,0l.1,0,.62-.07a.86.86,0,0,1,.69.23.89.89,0,0,1,.25.69l-.07.62a1,1,0,0,1,0,.15,1.6,1.6,0,0,1-.11.39,2.48,2.48,0,0,1-.18.31,6.78,6.78,0,0,1-4.28,3.1c-.55.11-1,.19-1.48.24l-.38,0a13.61,13.61,0,0,0-3.11.6,2.17,2.17,0,0,1-.9.11l-.81,0-4.06-.28a2.73,2.73,0,0,1-1.51-.55c-.64-.51-1.23-1.06-1.76-1.55a5.65,5.65,0,0,0-1.94-1.25c-1.12-.39-2.38-.84-3.61-1.32A21.89,21.89,0,0,1,86.17,98.12Zm-.61-11.29a9.17,9.17,0,0,1-.24,1.27h0c-.19.7-.43,1.38-.66,2l-.36,1a3.77,3.77,0,0,0,1.26,4.48,14.19,14.19,0,0,0,4.15,2.27c1.21.47,2.46.91,3.56,1.3a7.19,7.19,0,0,1,2.53,1.61c.5.46,1.06,1,1.65,1.46a1.18,1.18,0,0,0,.6.18c1.34.11,2.71.2,4,.28l.82,0a.74.74,0,0,0,.21,0,14.22,14.22,0,0,1,3.49-.7l.38,0c.4,0,.84-.12,1.33-.23a4.85,4.85,0,0,0,3-2,23.16,23.16,0,0,1-6.22.31,17.57,17.57,0,0,0-1.92,0l-.77,0a6.19,6.19,0,0,1-4.43-1.63A23.19,23.19,0,0,0,96,97l-.67-.48a42.3,42.3,0,0,1-8.27-7.63c-.45-.56-.86-1.17-1.25-1.75Z"/><path class="cls-26" d="M105.51,76.92s0-.07,0-.11l-.31-.75.81.06h0a.64.64,0,0,1,.25,0l.68.24h0c.62.21,1.26.44,1.88.69a2.64,2.64,0,0,1,1.42,1.35c.64,1.35,1.34,2.8,2.16,4.43a14.34,14.34,0,0,1,1.34,3.53,3,3,0,0,1,0,1.1,2.74,2.74,0,0,1-.63,1.36A27.33,27.33,0,0,1,108,93.79a4.92,4.92,0,0,1-1.1.55c-.17.06-.35.13-.52.21l-.74.33,0-.81a3.06,3.06,0,0,0,0-.42.83.83,0,0,0-.22,0A20.81,20.81,0,0,0,103,93.4h-.18a12.84,12.84,0,0,1-3.4-.37,3.74,3.74,0,0,1-3-3.31,13.36,13.36,0,0,1,0-3.16,5.78,5.78,0,0,1,1-2.88c.39-.53.77-1.08,1.13-1.62l.67-1a1.27,1.27,0,0,1,.49-.45,3.43,3.43,0,0,1,1.88-.38,13.58,13.58,0,0,1,4.4,1.27l.16.07-.27-.25-.12-.1a1,1,0,0,1-.45-.59,1.57,1.57,0,0,1,0-.73c0-.07,0-.14,0-.19l.05-.32.82-.22L107,81l-.67.6a2.65,2.65,0,0,1,1.24,1.75,9.65,9.65,0,0,1,.19,1.28c0,.14,0,.29,0,.43a1.84,1.84,0,0,1,0,.34v.08l-.07,1.62-.85-1.38a3.37,3.37,0,0,0-1.87-1.5,8.5,8.5,0,0,0-1.53-.34A2.25,2.25,0,0,0,101,85.14a8.42,8.42,0,0,0-.78,1.92,1.62,1.62,0,0,0,1.2,2.24,8.55,8.55,0,0,0,3.71.44,2.8,2.8,0,0,0,2.58-2.13,8,8,0,0,0,.1-3.84,29.57,29.57,0,0,0-2.17-6.63,2.14,2.14,0,0,1-.1-.22l.13,0h0Z"/><path class="cls-27" d="M97.84,93.24a4.38,4.38,0,0,1-2.2-3.42,14,14,0,0,1,0-3.36,6.51,6.51,0,0,1,1.21-3.28c.37-.52.75-1.07,1.11-1.6h0l.67-1a2.2,2.2,0,0,1,.81-.73,4.3,4.3,0,0,1,2.33-.46,13,13,0,0,1,2.81.61c0-.11,0-.21.06-.29a1.11,1.11,0,0,0,0-.13l.05-.32a.83.83,0,0,1,.61-.68h0l-.48-1.09c0-.1-.08-.19-.12-.27h0l0-.09-.31-.75a.84.84,0,0,1,.85-1.16l.8.07a1.33,1.33,0,0,1,.51.09l.68.24h0c.63.23,1.27.45,1.91.71A3.43,3.43,0,0,1,111,78.1c.64,1.35,1.35,2.79,2.16,4.41a15.42,15.42,0,0,1,1.41,3.74,3.64,3.64,0,0,1-.76,3.17,28.71,28.71,0,0,1-5.35,5.06,6.18,6.18,0,0,1-1.29.64l-.47.19-.74.33a.85.85,0,0,1-.82-.07.81.81,0,0,1-.36-.73l0-.46c-.59-.07-1.2-.13-1.79-.14h-.18a13.83,13.83,0,0,1-3.61-.4A6.06,6.06,0,0,1,97.84,93.24Zm8-10.89,0,0-.11,0a13,13,0,0,0-4.14-1.2,2.66,2.66,0,0,0-1.43.3.59.59,0,0,0-.16.18c-.22.32-.45.64-.66,1h0c-.36.54-.74,1.09-1.14,1.64a5,5,0,0,0-.9,2.47,12.74,12.74,0,0,0,0,3,2.91,2.91,0,0,0,2.39,2.61,12.25,12.25,0,0,0,3.18.34h.19a22,22,0,0,1,2.47.22,1.43,1.43,0,0,1,.43.1.85.85,0,0,1,.5.56s0,.09,0,.15l.08,0a4.15,4.15,0,0,0,.92-.44,26.29,26.29,0,0,0,5-4.76,1.93,1.93,0,0,0,.45-1,2.19,2.19,0,0,0,0-.8,14.34,14.34,0,0,0-1.27-3.33c-.82-1.63-1.53-3.08-2.17-4.44a1.76,1.76,0,0,0-1-.93c-.61-.25-1.24-.47-1.85-.68h0l-.13,0a29.73,29.73,0,0,1,2.07,6.45,8.65,8.65,0,0,1-.12,4.25,3.62,3.62,0,0,1-3.29,2.73,9.26,9.26,0,0,1-4.07-.49,2.43,2.43,0,0,1-1.74-3.24,9.42,9.42,0,0,1,.85-2.11,3.09,3.09,0,0,1,3.32-1.65,9,9,0,0,1,1.69.38,4,4,0,0,1,1.61,1,7.73,7.73,0,0,0-.13-.86,1.86,1.86,0,0,0-.85-1.22Zm-.62,2.93a2.52,2.52,0,0,0-.5-.22,7.78,7.78,0,0,0-1.37-.31,1.42,1.42,0,0,0-1.63.78,8,8,0,0,0-.71,1.75c-.19.72-.06,1,.67,1.23a7.62,7.62,0,0,0,3.34.4,2,2,0,0,0,1.85-1.51l-.74-1.2A2.59,2.59,0,0,0,105.21,85.28Z"/><path class="cls-27" d="M96.63,95.91a2.72,2.72,0,0,1-1-.39A45.38,45.38,0,0,1,90.21,91a1.22,1.22,0,0,1-.37-.78,3.92,3.92,0,0,1,0-.6,3.19,3.19,0,0,0,0-.42c0-.22,0-.43,0-.66a6.83,6.83,0,0,1,0-1.2c.09-1.09.24-2.22.45-3.46a4.27,4.27,0,0,1,1.17-2.37,6.73,6.73,0,0,0,1.5-2.33,11.06,11.06,0,0,1,1.77-2.87,3.22,3.22,0,0,1,2.1-1.23l.73-.11h0c.53-.08,1.07-.16,1.61-.22a9.49,9.49,0,0,1,3.35.2A4,4,0,0,1,105,77a3.62,3.62,0,0,1,.24,3l-.14.38-.4-.06-.47-.08h0c-.33-.06-.67-.11-1-.15a6,6,0,0,0-6.5,3.69,10,10,0,0,0-.81,4.09,9.7,9.7,0,0,0,.41,3.2,3.16,3.16,0,0,0,2.16,2.21,10.41,10.41,0,0,0,2.06.31c.61,0,1.22,0,1.86,0h0c.29,0,.58,0,.88,0h1.49l-1.2.88A8.12,8.12,0,0,1,96.63,95.91Z"/><path class="cls-27" d="M95.3,96.33l-.21-.13a46.24,46.24,0,0,1-5.47-4.63A2.09,2.09,0,0,1,89,90.23a5.32,5.32,0,0,1,0-.72c0-.12,0-.24,0-.32s0-.39,0-.6a7.42,7.42,0,0,1,0-1.35c.09-1.11.25-2.27.46-3.53a5.09,5.09,0,0,1,1.41-2.83,6,6,0,0,0,1.31-2,11.75,11.75,0,0,1,1.9-3.09,4,4,0,0,1,2.63-1.53l.71-.11h0c.54-.09,1.09-.17,1.66-.23a10,10,0,0,1,3.65.22,4.81,4.81,0,0,1,3,2.46,4.55,4.55,0,0,1,.28,3.63l-.14.38a.84.84,0,0,1-.92.54l-.4-.06-.47-.08h0c-.32-.06-.65-.11-1-.15A5.18,5.18,0,0,0,97.44,84a10.47,10.47,0,0,0-.37,6.69,2.32,2.32,0,0,0,1.59,1.66,8.92,8.92,0,0,0,1.89.28c.57,0,1.17,0,1.8,0h2.38a.84.84,0,0,1,.79.58.82.82,0,0,1-.29.93l-1.2.89a8.91,8.91,0,0,1-7.58,1.63A3.59,3.59,0,0,1,95.3,96.33ZM103,76a2.47,2.47,0,0,0-.69-.29,8.36,8.36,0,0,0-3.06-.17c-.52,0-1,.13-1.56.21h0l-.72.11a2.39,2.39,0,0,0-1.58.93,10.55,10.55,0,0,0-1.63,2.66A7.7,7.7,0,0,1,92,82.07,3.53,3.53,0,0,0,91.08,84c-.2,1.22-.35,2.33-.44,3.39a5.33,5.33,0,0,0,0,1.05c0,.25,0,.48,0,.72s0,.35,0,.52a4.12,4.12,0,0,0,0,.48.55.55,0,0,0,.13.23,43.94,43.94,0,0,0,5.28,4.46,1.84,1.84,0,0,0,.72.25h0a7.29,7.29,0,0,0,5.29-.72c-.57,0-1.11,0-1.65,0A11,11,0,0,1,98.2,94a4,4,0,0,1-2.72-2.75A10.53,10.53,0,0,1,95,87.76a10.8,10.8,0,0,1,.89-4.42,6.83,6.83,0,0,1,7.36-4.18l1,.15h0l.17,0a2.91,2.91,0,0,0-.29-2A3.19,3.19,0,0,0,103,76Z"/><path class="cls-27" d="M104.62,106l.11-.09-.11.08c-.17-.21-.34-.42-.51-.65a.87.87,0,0,1-.22-.84.85.85,0,0,1,.73-.45,22.28,22.28,0,0,0,4.48-1.35,6.85,6.85,0,0,0,3.51-3.14,18.87,18.87,0,0,1,2-2.92c1.2-1.4,2.51-2.74,3.77-4l.16-.17a7.86,7.86,0,0,0,1.64-2.22,2,2,0,0,1,1.39-1.18c.74-.16,1.52-.3,2.34-.41a2.47,2.47,0,0,1,.72,0l.3,0,1.13.12-.85.75-.13.12-.18.16a2.48,2.48,0,0,0-.92,2.4c.06.41.15.84.23,1.24l.09.44a2.51,2.51,0,0,1-.38,1.93,4.89,4.89,0,0,1-2,1.79c-.33.16-.67.3-1,.45l-.53.23a4.2,4.2,0,0,0-2.33,2.5,13.69,13.69,0,0,1-2.73,4.67,7,7,0,0,1-4.51,2.43,13.88,13.88,0,0,1-2.14,0l-.62,0a4.3,4.3,0,0,1-3.26-1.71Z"/><path class="cls-27" d="M105.63,108.06a5.51,5.51,0,0,1-1.53-1.34l-.13-.17h0c-.18-.22-.36-.44-.53-.67a1.56,1.56,0,0,1,1-2.63,21.38,21.38,0,0,0,4.31-1.3,6,6,0,0,0,3.09-2.77A19.09,19.09,0,0,1,114,96.13c1.21-1.43,2.52-2.77,3.79-4.08l.17-.17a6.91,6.91,0,0,0,1.47-2,2.85,2.85,0,0,1,2-1.65c.76-.16,1.56-.31,2.4-.43a3.36,3.36,0,0,1,1,0l.26,0,1.13.11a.84.84,0,0,1,.71.58.85.85,0,0,1-.24.89l-.85.75-.13.12-.2.18a1.62,1.62,0,0,0-.63,1.63c.06.39.14.8.23,1.2l.09.44a3.38,3.38,0,0,1-.51,2.54,5.74,5.74,0,0,1-2.36,2.1l-1,.46-.52.23a3.33,3.33,0,0,0-1.88,2,14.6,14.6,0,0,1-2.91,4.95,7.73,7.73,0,0,1-5,2.7,13.27,13.27,0,0,1-2.28,0l-.62,0A5.27,5.27,0,0,1,105.63,108.06Zm-.06-2.2a3.44,3.44,0,0,0,2.49,1.2l.64,0a12.18,12.18,0,0,0,2,0,6.19,6.19,0,0,0,4-2.17,13,13,0,0,0,2.57-4.39,5,5,0,0,1,2.77-3l.54-.23,1-.44a4,4,0,0,0,1.66-1.49,1.66,1.66,0,0,0,.27-1.3l-.09-.44c-.08-.42-.17-.85-.24-1.29a3.25,3.25,0,0,1,.94-2.92H124c-.79.11-1.56.24-2.27.4a1.13,1.13,0,0,0-.81.7,8.51,8.51,0,0,1-1.8,2.46l-.16.17c-1.25,1.29-2.55,2.62-3.73,4a17.87,17.87,0,0,0-1.89,2.79,7.72,7.72,0,0,1-3.93,3.5,23,23,0,0,1-4.61,1.39l.19.24a.8.8,0,0,1,.4.28A.81.81,0,0,1,105.57,105.86Z"/><path class="cls-27" d="M97.31,108.89a14.33,14.33,0,0,1-2.88-1.74l-.56-.39c-.11-.09-.23-.17-.35-.25-.78-.55-1.58-1.12-2.41-1.6a6.61,6.61,0,0,0-1.73-.6,2.51,2.51,0,0,0-1.93.43L87,105l-.26-.43A12.29,12.29,0,0,1,85,97.8v-.72l.67.27,1.39.58c1,.45,2,.87,3,1.23A11,11,0,0,1,94.65,102a4.89,4.89,0,0,0,3.72,1.47c1,0,2.07.1,3.08.17h0l1,.07a5.77,5.77,0,0,1,.6.09l.24,0,.56.09-.16.54a11,11,0,0,1-2.13,3.51A3.6,3.6,0,0,1,97.31,108.89Z"/><path class="cls-27" d="M86.6,105.73a.81.81,0,0,1-.29-.29l-.26-.43a13.15,13.15,0,0,1-1.94-7.23v-.72a.86.86,0,0,1,.38-.69.83.83,0,0,1,.78-.07l.67.28,1.39.58c1,.44,2,.86,3,1.21a11.55,11.55,0,0,1,4.91,3.08,4,4,0,0,0,3.13,1.2c1,0,2.11.1,3.12.17h0l1,.08a5.93,5.93,0,0,1,.68.09l.23,0,.56.09a.83.83,0,0,1,.58.38.84.84,0,0,1,.1.69l-.17.55a11.78,11.78,0,0,1-2.33,3.84A4.38,4.38,0,0,1,97,109.66h0a14.42,14.42,0,0,1-3.06-1.83l-.55-.39L93,107.2c-.77-.54-1.56-1.1-2.35-1.56a5.37,5.37,0,0,0-1.49-.51,1.67,1.67,0,0,0-1.31.32l-.43.27a.86.86,0,0,1-.63.1A.92.92,0,0,1,86.6,105.73Zm-.82-7.41a11.53,11.53,0,0,0,1.53,5.53,3.3,3.3,0,0,1,2.26-.36,7.09,7.09,0,0,1,2,.7c.87.49,1.69,1.07,2.49,1.63l.35.25.56.4a13.31,13.31,0,0,0,2.71,1.64h0a2.78,2.78,0,0,0,3.38-.7,10.59,10.59,0,0,0,1.79-2.79l-.35-.05-1-.07h0c-1-.08-2-.15-3-.17A5.74,5.74,0,0,1,94,102.59,10.08,10.08,0,0,0,89.8,100c-1.06-.37-2-.79-3.11-1.24Z"/><path class="cls-26" d="M106.31,61.31h0a3.69,3.69,0,0,1,1.48,3.28l0,.68-.64-.22-.61-.21-1.22-.41a7.9,7.9,0,0,0-3.27-.58,7.58,7.58,0,0,0-3.66,1.6l-.32.23c-.53.38-1.07.78-1.65,1.12a3.52,3.52,0,0,1-1.4.47,1.17,1.17,0,0,1-1.41-.83l-.27-.75h0c-.18-.51-.37-1-.56-1.54a2.9,2.9,0,0,1,.09-2.23,8.5,8.5,0,0,1,.59-1.14c.24-.41.5-.81.75-1.2l.32-.49,1-1.56.43.3a9.74,9.74,0,0,0,3.64,1.41l1.52.33c.83.17,1.68.36,2.51.55A7.34,7.34,0,0,1,106.31,61.31Z"/><path class="cls-26" d="M93.69,67.86a2.09,2.09,0,0,1-.89-1.14L92.53,66v0c-.18-.5-.36-1-.55-1.52a3.77,3.77,0,0,1,.09-2.85,8.4,8.4,0,0,1,.65-1.25c.25-.42.51-.83.77-1.22.1-.17.21-.33.31-.49l1-1.56a.85.85,0,0,1,.55-.37.8.8,0,0,1,.65.14l.42.3a9,9,0,0,0,3.34,1.27l1.52.33c.83.18,1.68.36,2.53.56a8,8,0,0,1,3,1.34h0a4.53,4.53,0,0,1,1.82,4l0,.68a.82.82,0,0,1-.36.67.86.86,0,0,1-.75.11l-.64-.22-.6-.21L105,65.23a7.24,7.24,0,0,0-2.92-.54,6.86,6.86,0,0,0-3.25,1.44l-.3.21,0,0c-.54.39-1.1.8-1.71,1.16a4.51,4.51,0,0,1-1.73.59A2.3,2.3,0,0,1,93.69,67.86Zm2-9.15-.52.82-.32.5c-.25.38-.5.78-.74,1.17a6.56,6.56,0,0,0-.53,1,2.07,2.07,0,0,0-.09,1.61c.2.52.39,1,.57,1.56h0c.08.25.17.5.26.74s.12.33.53.29A2.67,2.67,0,0,0,96,66.08c.54-.32,1.07-.71,1.58-1.08h0l.3-.22A8.39,8.39,0,0,1,101.94,63a8.51,8.51,0,0,1,3.62.61l1.24.42.14,0A2.73,2.73,0,0,0,105.8,62h0a6.34,6.34,0,0,0-2.39-1c-.83-.2-1.67-.38-2.49-.55l-1.54-.33A11.27,11.27,0,0,1,95.74,58.71Z"/><path class="cls-26" d="M87,70.07h0a8.92,8.92,0,0,1,.51,1.85,9.27,9.27,0,0,1,0,2.73,13.49,13.49,0,0,1-1,3.34c-.14.32-.3.62-.46.92a9.65,9.65,0,0,0-.57,1.24,33.35,33.35,0,0,0-1.07,4c-.18,1-.28,2-.39,3.12,0,.47-.09.95-.15,1.42l-.17,1.56-.76-1.37,0-.1c-.05-.08-.1-.18-.15-.28A19.9,19.9,0,0,1,81,82.59a19.74,19.74,0,0,0-1.28-5.1,1,1,0,0,1,.1-.84l0-.09c.52-.76,1.06-1.56,1.62-2.32.8-1.09,1.71-2.33,2.65-3.5a5.88,5.88,0,0,1,1.35-1.14,1,1,0,0,1,.89-.19A1,1,0,0,1,87,70.07Z"/><path class="cls-27" d="M83.18,91a.82.82,0,0,1-.32-.32l-.75-1.37,0-.08c0-.1-.12-.21-.18-.34a21,21,0,0,1-1.76-6.18,19.27,19.27,0,0,0-1.22-4.88,1.84,1.84,0,0,1,.17-1.64l.06-.08c.52-.78,1.06-1.58,1.63-2.36.81-1.1,1.72-2.34,2.68-3.52A6.62,6.62,0,0,1,85,68.91a1.8,1.8,0,0,1,1.62-.3,1.82,1.82,0,0,1,1.15,1.17h0a9.42,9.42,0,0,1,.56,2,10.28,10.28,0,0,1,0,3,14.13,14.13,0,0,1-1.07,3.54c-.15.35-.32.67-.48,1a6.8,6.8,0,0,0-.52,1.11,31.23,31.23,0,0,0-1,3.91c-.18,1-.28,2-.38,3.06l-.15,1.43-.18,1.55a.83.83,0,0,1-1.25.63ZM80.45,77.18a20.89,20.89,0,0,1,1.33,5.3,19.67,19.67,0,0,0,1.29,4.93v-.19c.11-1.11.21-2.15.41-3.2a33.59,33.59,0,0,1,1.09-4.12,9.1,9.1,0,0,1,.63-1.38c.15-.28.31-.58.43-.87a12.67,12.67,0,0,0,1-3.13,8.34,8.34,0,0,0,0-2.49,7.79,7.79,0,0,0-.47-1.66c0-.12-.08-.16-.09-.16a.56.56,0,0,0-.16.08,5.63,5.63,0,0,0-1.17,1c-.93,1.15-1.83,2.38-2.63,3.47-.55.75-1.08,1.53-1.59,2.29l-.06.09S80.45,77.16,80.45,77.18Zm0,0Z"/><path class="cls-27" d="M105.81,88.92a2.69,2.69,0,0,1-.78.21c-.42,0-.83,0-1.13,0h-.34a5.69,5.69,0,0,1-2.61-1,.9.9,0,0,1-.36-.82l0-.12a6.33,6.33,0,0,1,.93-2.32,1.86,1.86,0,0,1,1.51-.79,5.27,5.27,0,0,1,2.33.58,1.8,1.8,0,0,1,1.06,1.36c.08.42.14.88.2,1.4a2.29,2.29,0,0,1,0,.58C106.59,88.5,106.28,88.71,105.81,88.92Z"/><path class="cls-27" d="M101,89.19a4.41,4.41,0,0,1-.53-.35,1.66,1.66,0,0,1-.65-1.68l0-.12a6.93,6.93,0,0,1,1.06-2.62A2.71,2.71,0,0,1,103,83.29a6.11,6.11,0,0,1,2.7.66,2.63,2.63,0,0,1,1.54,2c.07.44.14.92.2,1.45a3.17,3.17,0,0,1,0,.81,2,2,0,0,1-1.35,1.51h0a3.19,3.19,0,0,1-1,.27c-.44,0-.87,0-1.18.05h-.5A7.21,7.21,0,0,1,101,89.19Zm2.65,0Zm-2.18-1.69,0,0a4.76,4.76,0,0,0,2.2.81h.22c.29,0,.69,0,1.09,0a1.6,1.6,0,0,0,.5-.14h0c.29-.13.34-.19.34-.2h0a.08.08,0,0,1,0,0,1.52,1.52,0,0,0,0-.36c-.06-.5-.12-.94-.2-1.34a1,1,0,0,0-.58-.75,4.63,4.63,0,0,0-2-.5,1,1,0,0,0-.85.45,5.43,5.43,0,0,0-.78,2Z"/><g class="cls-28"><path class="cls-29" d="M121.49,76.43h-.2a1.44,1.44,0,0,1-1.23-1.62,4.28,4.28,0,0,0-.2-2.43,2.05,2.05,0,0,0-1.66-1,26.1,26.1,0,0,1-6.58-2.59,1.44,1.44,0,1,1,1.42-2.5,23.56,23.56,0,0,0,5.69,2.27,4.88,4.88,0,0,1,3.7,2.57,7,7,0,0,1,.48,4.11A1.44,1.44,0,0,1,121.49,76.43Z"/></g><g class="cls-28"><path class="cls-29" d="M117.24,85.79h-.12a1.44,1.44,0,0,1-1.32-1.55c0-.66-.46-2.47-1.73-5a18.8,18.8,0,0,0-2.62-4.18,29.66,29.66,0,0,0-4.18-1,1.44,1.44,0,0,1,.5-2.83,23.34,23.34,0,0,1,5.15,1.33c1.3.76,3.09,4.13,3.61,5.15.86,1.69,2.29,4.82,2.14,6.73A1.44,1.44,0,0,1,117.24,85.79Zm-5.75-10.71Z"/></g><g class="cls-28"><path class="cls-29" d="M99.26,70.67a1.42,1.42,0,0,1-.83-.27,1.43,1.43,0,0,1-.33-2,6.07,6.07,0,0,1,7.55-2.24l-1.24,2.6h0a3.58,3.58,0,0,0-1.44-.24,3.28,3.28,0,0,0-2.56,1.56A1.44,1.44,0,0,1,99.26,70.67Z"/></g><g class="cls-28"><circle class="cls-29" cx="96.51" cy="62.05" r="1.72"/></g><path class="cls-2" d="M98.92,110.94a6.21,6.21,0,0,1-2.31-.48,15.11,15.11,0,0,1-3.25-1.94l-.54-.38-.35-.25c-.75-.53-1.52-1.07-2.28-1.51A5.34,5.34,0,0,0,89,106a1,1,0,0,0-.65.22l-.42.26a1.74,1.74,0,0,1-1.32.21,1.54,1.54,0,0,1-.46-.19,1.72,1.72,0,0,1-.61-.59l-.26-.43a14,14,0,0,1-2.07-7.71V97a6.19,6.19,0,0,1-1.44-6.4l-.47-.85,0-.06a3.79,3.79,0,0,1-.23-.42,21.59,21.59,0,0,1-1.83-6.43A18.39,18.39,0,0,0,78,78.13a2.7,2.7,0,0,1,.25-2.48l.06-.09c.53-.78,1.07-1.59,1.65-2.38.82-1.11,1.74-2.36,2.71-3.56a7.5,7.5,0,0,1,1.71-1.48,2.7,2.7,0,0,1,2.39-.41,2.47,2.47,0,0,1,1,.63,5.35,5.35,0,0,1,2.06-1.13l.12,0a6,6,0,0,1,.8-.21l.63-.12.39-.07-.18-.52,0,0-.54-1.49a4.61,4.61,0,0,1,.1-3.51,9.49,9.49,0,0,1,.71-1.37c.26-.43.52-.84.78-1.24l.31-.49,1-1.56a1.76,1.76,0,0,1,1.13-.77,1.74,1.74,0,0,1,1.34.29l.42.3a8.54,8.54,0,0,0,3,1.13l1.51.32c.83.18,1.69.36,2.54.57a8.8,8.8,0,0,1,3.35,1.49,5.74,5.74,0,0,1,.88.82q.26-.3.54-.6a2.32,2.32,0,0,1,1.23-.64l.34-.08a1.72,1.72,0,0,1,2,1l.28.63q.11.26.21.48a5.24,5.24,0,0,0,2.77,2.9,17.42,17.42,0,0,0,1.68.55l.05,0,.42.12,1.13.31c.76.21,1.55.42,2.34.71a6.83,6.83,0,0,1,4.67,6.09l0,.28h0a8,8,0,0,1,.06,1,13,13,0,0,0,1,5.14,11,11,0,0,1,.65,2,11.23,11.23,0,0,1,.28,2.45q0,.38-.06.75a5.94,5.94,0,0,1-1.65,3.19h0a1.73,1.73,0,0,1,1,3l-.84.75-.13.12-.23.2a.74.74,0,0,0-.31.82c0,.36.13.76.21,1.14v0c0,.15.06.29.08.43h0a4.18,4.18,0,0,1-.63,3.21,6.57,6.57,0,0,1-2.72,2.41c-.36.17-.72.32-1.06.47l-.52.23a2.46,2.46,0,0,0-1.4,1.52,15.69,15.69,0,0,1-3.09,5.25,8.65,8.65,0,0,1-5.6,3,14,14,0,0,1-2.43,0l-.6,0a5.82,5.82,0,0,1-4-1.77,10.58,10.58,0,0,1-1.08,1.36A5.35,5.35,0,0,1,98.92,110.94Zm-10-6.77a2.42,2.42,0,0,1,.47,0,6.84,6.84,0,0,1,1.74.61c.83.48,1.63,1,2.42,1.6l.35.25.55.39a14,14,0,0,0,2.87,1.73,3.51,3.51,0,0,0,4.25-.87,10.48,10.48,0,0,0,1.45-2.05.89.89,0,0,1,.71-.45.91.91,0,0,1,.77.33l.15.2h0l.13.17a4.63,4.63,0,0,0,1.28,1.12,4.1,4.1,0,0,0,1.94.56l.63,0a12.61,12.61,0,0,0,2.13,0,6.94,6.94,0,0,0,4.47-2.42,13.85,13.85,0,0,0,2.73-4.65,4.2,4.2,0,0,1,2.35-2.53l.53-.24,1-.44a4.77,4.77,0,0,0,2-1.77,2.42,2.42,0,0,0,.38-1.89h0c0-.14,0-.28-.08-.42v0c-.08-.41-.17-.83-.23-1.24a2.53,2.53,0,0,1,.93-2.45,1.22,1.22,0,0,0,.18-.16l.14-.12.76-.67-1-.11-.31,0a3.59,3.59,0,0,0-.46,0,.89.89,0,0,1-.56-1.57c.34-.3.65-.56.93-.82A4.51,4.51,0,0,0,126,83.62a2.74,2.74,0,0,0,0-.5,8.67,8.67,0,0,0-.24-2.05,9.79,9.79,0,0,0-.54-1.71,14.5,14.5,0,0,1-1.16-5.84,7.91,7.91,0,0,0-.06-.86h0l0-.31a5.06,5.06,0,0,0-3.51-4.57c-.71-.26-1.46-.46-2.17-.65-.38-.1-.8-.21-1.19-.33l-.41-.12-.05,0a16.85,16.85,0,0,1-1.86-.61,6.94,6.94,0,0,1-3.72-3.82l-.22-.5-.25-.59-.33.08h-.06a.56.56,0,0,0-.29.14,6.83,6.83,0,0,0-1.06,1.39.9.9,0,0,1-1.59-.07,3.45,3.45,0,0,0-1.11-1.36,7.16,7.16,0,0,0-2.69-1.19c-.83-.2-1.68-.38-2.5-.55l-1.53-.33a9.85,9.85,0,0,1-3.66-1.42l-.38-.27-1,1.51-.32.5c-.25.39-.51.79-.75,1.19a8.5,8.5,0,0,0-.59,1.14,2.89,2.89,0,0,0-.09,2.19c.2.51.38,1,.56,1.53l0,0,.25.72a1.42,1.42,0,0,0,.27.47.89.89,0,0,1-.51,1.46l-1.57.29-.63.12a5.25,5.25,0,0,0-.6.16l-.13,0a3.45,3.45,0,0,0-2,1.4.87.87,0,0,1-.84.41.88.88,0,0,1-.74-.58l0-.1a.93.93,0,0,0-.59-.63.91.91,0,0,0-.84.18,6,6,0,0,0-1.34,1.13c-.94,1.17-1.84,2.4-2.65,3.49-.56.77-1.09,1.56-1.61,2.33l-.06.09a.92.92,0,0,0-.08.79A20.13,20.13,0,0,1,81,82.55a20.07,20.07,0,0,0,1.68,5.91l.15.28,0,.1L83.49,90a.88.88,0,0,1,.06.71l0,.15A4.5,4.5,0,0,0,84.76,96a.9.9,0,0,1,.2,1l0,.71a12.29,12.29,0,0,0,1.81,6.74l.24.39.38-.24A2.83,2.83,0,0,1,88.87,104.17Z"/></g></g></g></svg>