<svg xmlns="http://www.w3.org/2000/svg" xmlns:xlink="http://www.w3.org/1999/xlink" viewBox="0 0 319.49 318.69"><defs><style>.cls-1{fill:none;}.cls-2{fill:#5b3a00;}.cls-3{clip-path:url(#clip-path);}.cls-4{fill:#ccd8ff;}.cls-5{opacity:0.25;}.cls-6{clip-path:url(#clip-path-2);}.cls-7{fill:#8e5809;}.cls-8{fill:#c98312;}.cls-9{clip-path:url(#clip-path-3);}.cls-10{fill:#fff;}.cls-11{fill:#adadad;}.cls-12{fill:#6d6d6d;}.cls-13{fill:#444;}.cls-14{fill:#686868;}.cls-15{fill:#161616;}.cls-16{fill:#a8a8a8;}.cls-17{clip-path:url(#clip-path-4);}.cls-18{fill:#d6cebf;}.cls-19{fill:#3d3d3d;}.cls-20{fill:#db2134;}.cls-21{clip-path:url(#clip-path-5);}.cls-22{opacity:0.5;}.cls-23{fill:#ef7700;}.cls-24{fill:#13eaea;}.cls-25{fill:#c4ac35;}.cls-26{fill:#e517e5;}.cls-27{clip-path:url(#clip-path-6);}.cls-28{fill:#e79300;}.cls-29{fill:#ffda00;}.cls-30{fill:#66b500;}.cls-31{fill:#427a00;}.cls-32{clip-path:url(#clip-path-7);}.cls-33{fill:#37389a;}.cls-34{fill:#1b1f68;}.cls-35{fill:#7878c1;}.cls-36{fill:#bbf;}</style><clipPath id="clip-path"><rect class="cls-1" width="297.28" height="297.28" rx="54.22" transform="translate(297.28 297.28) rotate(180)"/></clipPath><clipPath id="clip-path-2"><path class="cls-1" d="M208.74,159.13c.78,2.91-1,2.46,0,5.93s-.9-1.12,1.23,4.93,1,1,1.68,7.83-.34,7.16,1.12,10.74.78,4.82,2.79,6.61,3.7,4,6.05,2.91,5.7-2.58,7.16-3.7,1.57-2.79,3-5.59,1.23-4.59,5-6.38,4.25-2.57,5.59-5.48a14.26,14.26,0,0,0,1.57-4.26,8.57,8.57,0,0,1,2.24-4.36,11.69,11.69,0,0,0,1.9-3s3.13,18.46,5.26,21.37-.11,3,2.8,6.16,5.26,3.8,5.26,6.71,1.9,4.7,2.35,1.79,2-3.24,0-6.38-4-10-3.36-13.43-1.57-13.09,1.23-17.12,1.68-5,1.23-7.94a49.37,49.37,0,0,1-.33-7.17s1.45,4.37,3.13,2.69-1.23-3.13-1.45-6.83-2-11.86-1.68-13.31.44-2.13-.79-3.92-1.34-2.35-2.35-2.8-6.49,1-6.94,3-2.46,5.6-3.91,6.72-3.25,2.46-3.25,2.46a31.52,31.52,0,0,0,.56-6.72,19.47,19.47,0,0,0-1.68-6c-.67-1.68-.11-2.46-2.91-5.48s-.56-3.47-4.81-3.58-3.8-.12-6.6.44-5.37.12-7.28,2.13a16.94,16.94,0,0,1-5.81,4.36c-2.91,1.46-3.14.79-4,4.15s1,3.58-1.68,6.6-2.76,4.36-2.67,6.38-.69,6.15-1.25,9.73S208.74,159.13,208.74,159.13Z"/></clipPath><clipPath id="clip-path-3"><path class="cls-1" d="M88.53,159.13c-.79,2.91,1,2.46,0,5.93s.89-1.12-1.23,4.93-1,1-1.68,7.83S86,185,84.5,188.56s-.79,4.82-2.8,6.61-3.69,4-6,2.91-5.71-2.58-7.17-3.7-1.56-2.79-3-5.59-1.23-4.59-5-6.38-4.26-2.57-5.6-5.48a14.55,14.55,0,0,1-1.57-4.26A8.56,8.56,0,0,0,51,168.31a11.58,11.58,0,0,1-1.91-3S46,183.75,43.87,186.66s.12,3-2.79,6.16-5.26,3.8-5.26,6.71-1.91,4.7-2.35,1.79-2-3.24,0-6.38,4-10,3.35-13.43,1.57-13.09-1.23-17.12-1.68-5-1.23-7.94a50,50,0,0,0,.34-7.17s-1.46,4.37-3.14,2.69,1.23-3.13,1.46-6.83,2-11.86,1.68-13.31-.45-2.13.78-3.92,1.34-2.35,2.35-2.8,6.49,1,6.94,3,2.46,5.6,3.92,6.72,3.24,2.46,3.24,2.46a32.24,32.24,0,0,1-.56-6.72,19.75,19.75,0,0,1,1.68-6c.67-1.68.11-2.46,2.91-5.48s.56-3.47,4.81-3.58,3.81-.12,6.61.44,5.37.12,7.27,2.13a16.89,16.89,0,0,0,5.82,4.36c2.91,1.46,3.13.79,4,4.15s-1,3.58,1.68,6.6,2.76,4.36,2.66,6.38.69,6.15,1.25,9.73S88.53,159.13,88.53,159.13Z"/></clipPath><clipPath id="clip-path-4"><path class="cls-1" d="M72.3,107.47v25.26c0,6,3.67,11.53,16,11.53s13.62-7,13.62-9.83-7.31-25.06,10.88-25.06,15.18,19.57,15.18,26.2,3.21,16.73,11.54,16.73,14.31-5.66,14.31-22.64,26.06-13.64,26.06,0,24,12.34,24,2.12,11.36-12.87,21.86-17.21c7.82-3.23,0-11.59,0-17.51h-.1V69.48c0-1.54-5.17-5.29-9.06-5.29H81.26c-5.45,0-9.06,5.4-9.06,6.94Z"/></clipPath><clipPath id="clip-path-5"><path class="cls-1" d="M159.61,116.68c-37.48,0-59.19,4.38-59.19,4.38V148.5a11.75,11.75,0,0,0,11.75,11.75h28.71a11.75,11.75,0,0,0,11.61-9.92c.32-1.44,2.43-9.92,7.12-9.92s6.8,8.53,7.12,9.93a11.75,11.75,0,0,0,11.6,9.91H207a11.75,11.75,0,0,0,11.75-11.75V121.06S197.08,116.68,159.61,116.68Z"/></clipPath><clipPath id="clip-path-6"><rect class="cls-1" x="124.36" y="160.52" width="65.78" height="21.35" rx="10.68"/></clipPath><clipPath id="clip-path-7"><path class="cls-1" d="M123.27,68.14s6.34,3.84,0,8.5c.34,6.74-4.6,6-4.6,6s-1.51,3.87-4.64,3.87c-2.62,4.72-5.16,3-5.16,3s-1.83,4.21-6,3.45c-3.54,5-7.38,2.21-7.38,2.21s-2.66,2.44-5,.93a2.71,2.71,0,0,1-.9-4s-3.78-.42-1.49-6c-2.77-3.13.7-6.35.7-6.35s-2.16-3.26,1.93-6.07a6.63,6.63,0,0,1,3.09-7s-.57-6.56,5.45-6.83c3.24-6.85,8-2.25,8-2.25s3.31.25,3.29,2.24c3.73-.87,3.72,2.3,3.72,2.3s3-1.48,2.69,1.92c3.31-1.57,2.73,1.84,2.73,1.84S123.86,63.83,123.27,68.14Z"/></clipPath></defs><g id="Layer_2" data-name="Layer 2"><g id="Layer_1-2" data-name="Layer 1"><rect class="cls-2" x="22.21" y="21.41" width="297.28" height="297.28" rx="54.22" transform="translate(341.69 340.09) rotate(180)"/><g class="cls-3"><rect class="cls-4" width="297.26" height="297.26" transform="translate(297.26 297.26) rotate(180)"/><g class="cls-5"><ellipse class="cls-2" cx="148.63" cy="268.91" rx="86.2" ry="11.93"/></g><g class="cls-6"><path class="cls-7" d="M208.74,159.13c.78,2.91-1,2.46,0,5.93s-.9-1.12,1.23,4.93,1,1,1.68,7.83-.34,7.16,1.12,10.74.78,4.82,2.79,6.61,3.7,4,6.05,2.91,5.7-2.58,7.16-3.7,1.57-2.79,3-5.59,1.23-4.59,5-6.38,4.25-2.57,5.59-5.48a14.26,14.26,0,0,0,1.57-4.26,8.57,8.57,0,0,1,2.24-4.36,11.69,11.69,0,0,0,1.9-3s3.13,18.46,5.26,21.37-.11,3,2.8,6.16,5.26,3.8,5.26,6.71,1.9,4.7,2.35,1.79,2-3.24,0-6.38-4-10-3.36-13.43-1.57-13.09,1.23-17.12,1.68-5,1.23-7.94a49.37,49.37,0,0,1-.33-7.17s1.45,4.37,3.13,2.69-1.23-3.13-1.45-6.83-2-11.86-1.68-13.31.44-2.13-.79-3.92-1.34-2.35-2.35-2.8-6.49,1-6.94,3-2.46,5.6-3.91,6.72-3.25,2.46-3.25,2.46a31.52,31.52,0,0,0,.56-6.72,19.47,19.47,0,0,0-1.68-6c-.67-1.68-.11-2.46-2.91-5.48s-.56-3.47-4.81-3.58-3.8-.12-6.6.44-5.37.12-7.28,2.13a16.94,16.94,0,0,1-5.81,4.36c-2.91,1.46-3.14.79-4,4.15s1,3.58-1.68,6.6-2.76,4.36-2.67,6.38-.69,6.15-1.25,9.73S208.74,159.13,208.74,159.13Z"/><path class="cls-8" d="M205.6,151.41c.79,2.91-1,1.79,0,5.26s-5,.34-2.91,6.38,4.26,2.35,4.93,9.18,2.24,5.1,3.69,8.68.78,4.82,2.8,6.61,3.69,4,6,2.91,5.71-2.58,7.16-3.7,1.57-2.79,3-5.59,1.23-4.59,5-6.38,4.25-2.58,5.6-5.48a14.47,14.47,0,0,0,1.56-4.26,8.61,8.61,0,0,1,2.24-4.36,11.58,11.58,0,0,0,1.91-3S247.91,183,250,185.88s-.11,3,2.8,6.15,5.26,3.81,5.26,6.72,4.24,2.56,4.69-.35.12-1.78-1.89-4.91-3.7-13.88-3-17.35-3.47-6.82-.68-10.85,3.47-13.21,3-16.12a5.35,5.35,0,0,1,.92-4.38s4.22,9.87,6,6.51c1.12-2.1-1.67-9.85-1.9-13.54a79.47,79.47,0,0,1,.23-12.09c.33-1.45-3.92-3.62-5.15-5.41s-1.34-2.35-2.35-2.8-6.49,1-6.94,3-4.23,15.74-5.71,16.83c-11.06,8.2-18.91,20.81-18.91,20.81s14.75-22.45,14.44-26.52c-.68-8.73,2.57-13,1.9-14.7s-.11-2.46-2.91-5.48-.56-3.47-4.81-3.58-3.81-.12-6.61.44-5.37.12-7.27,2.13a16.89,16.89,0,0,1-5.82,4.36c-2.91,1.46-3.13.79-4,4.15s1,3.58-1.68,6.6-2.76,4.36-2.66,6.38-.69,6.15-1.25,9.73A57.23,57.23,0,0,0,205.6,151.41Z"/></g><path class="cls-2" d="M262.91,203.7h-.11c-1.26-.09-2.24-1.92-2.24-4.16,0-1.51-.74-2.21-2.41-3.65a30.76,30.76,0,0,1-2.62-2.46c-1.66-1.78-1.85-2.74-1.94-3.89a3.82,3.82,0,0,0-.92-2.34c-1.78-2.44-4-14-5-19.3a10.55,10.55,0,0,1-.78,1,7.82,7.82,0,0,0-2.05,4l-.23.91a12.24,12.24,0,0,1-1.17,3l-.22.47c-1.41,3-2,4-6,5.92a6.18,6.18,0,0,0-3.76,4.06c-.24.57-.5,1.22-.87,1.92-.5,1-.84,1.81-1.14,2.55a7.09,7.09,0,0,1-2.13,3.34,38.1,38.1,0,0,1-5.86,3.11l-1.46.68a3.69,3.69,0,0,1-1.63.39c-1.75,0-3.17-1.35-4.46-2.57l-.93-.87A6.22,6.22,0,0,1,212.9,192a19.27,19.27,0,0,0-1-3.09,11.4,11.4,0,0,1-.92-5.31,51.32,51.32,0,0,0-.26-5.68c-.23-2.32-.25-3.28-.27-3.79a1.08,1.08,0,0,0-.13-.64c-.19-.43-.55-1.25-1.23-3.2-.48-1.35-.78-2.24-.94-2.78a1.85,1.85,0,0,1-.08-1.32,8.46,8.46,0,0,0-.23-.87,5.51,5.51,0,0,1,0-3.81,2.92,2.92,0,0,0,0-2.11c-.17-.53-2.16-6.58-1.59-10.24.11-.72.24-1.48.35-2.21a48,48,0,0,0,.89-7.35c-.1-2.23,0-3.81,2.89-7,1.39-1.56,1.34-2.11,1.25-3.09a8.18,8.18,0,0,1,.23-3.15c.76-2.84,1.19-3.25,3.06-4,.4-.18.86-.38,1.44-.66a16,16,0,0,0,5.57-4.18c1.59-1.69,3.6-1.9,5.54-2.09.72-.08,1.46-.15,2.2-.3l.65-.13c2.16-.44,2.23-.44,5.93-.34h.22c2.8.08,3.35.32,4,1.71a7.13,7.13,0,0,0,1.46,2.16c2.21,2.39,2.49,3.56,2.76,4.68a8.16,8.16,0,0,0,.32,1.08l.14.36a19.15,19.15,0,0,1,1.6,5.94,23.65,23.65,0,0,1-.23,4.75l1.48-1.13a14.67,14.67,0,0,0,3.59-6.2,4.19,4.19,0,0,1,2.48-2.51c1.62-.81,4.56-1.64,5.7-1.13a4.27,4.27,0,0,1,2,2c.2.32.43.68.74,1.12,1.42,2.07,1.29,3,.92,4.63a40.1,40.1,0,0,0,.77,6.32c.41,2.48.82,5,.93,6.74a8,8,0,0,0,1.17,3.5c.66,1.23,1.41,2.62,0,4a1.94,1.94,0,0,1-1.83.6,2.39,2.39,0,0,1-1-.58,33.6,33.6,0,0,0,.3,3.69c.09.53.19,1,.29,1.45.51,2.21.69,3.74-1.67,7.14-1.64,2.36-1.34,7.24-1.09,11.15a26.82,26.82,0,0,1,0,5.63c-.61,3.16,1.29,9.77,3.23,12.78,1.52,2.37,1.27,3.49.68,5a8.83,8.83,0,0,0-.55,2C264.38,203.43,263.41,203.7,262.91,203.7ZM248.47,162l.54,3.18c1.24,7.34,3.63,19,5.1,21a5.51,5.51,0,0,1,1.26,3.25c.06.75.1,1.35,1.47,2.82a29.19,29.19,0,0,0,2.47,2.32c1.69,1.46,3,2.61,3,5a4.24,4.24,0,0,0,.48,2.12,4.28,4.28,0,0,0,.1-.46,10.54,10.54,0,0,1,.64-2.31c.44-1.15.63-1.67-.51-3.45a25.54,25.54,0,0,1-2.8-6.85c-.45-1.7-1.14-4.89-.69-7.24a25.51,25.51,0,0,0,0-5.18c-.28-4.41-.59-9.41,1.41-12.28s1.81-3.92,1.39-5.73c-.1-.45-.22-1-.31-1.57a49.75,49.75,0,0,1-.34-7.32l.13-5.07,1.6,4.81a4.86,4.86,0,0,0,1.5,2.46.45.45,0,0,0,.16-.12c.38-.38.39-.56-.33-1.91a9.77,9.77,0,0,1-1.38-4.23c-.1-1.61-.51-4.13-.91-6.56-.6-3.75-1-6.09-.75-7,.3-1.3.39-1.69-.65-3.21-.32-.46-.57-.85-.77-1.17-.57-.89-.72-1.09-1.19-1.31a10,10,0,0,0-4.68,1.37c-.88.53-1,.92-1,1-.47,2.1-2.57,5.93-4.25,7.22-1.44,1.11-3.23,2.46-3.25,2.47L244,139.4l.43-2.26a32,32,0,0,0,.54-6.47,17.38,17.38,0,0,0-1.47-5.43l-.14-.36a7.89,7.89,0,0,1-.4-1.32c-.24-1-.44-1.84-2.34-3.89a8.66,8.66,0,0,1-1.77-2.63c-.19-.42-.21-.42-.28-.45a8.24,8.24,0,0,0-2.13-.21h-.23c-3.56-.09-3.56-.09-5.52.31l-.66.13c-.82.16-1.61.24-2.37.32-1.84.19-3.29.33-4.43,1.54a17.59,17.59,0,0,1-6.07,4.55c-.62.31-1.12.53-1.52.7-1.39.6-1.44.63-2,2.88a6.36,6.36,0,0,0-.19,2.53c.13,1.43.08,2.44-1.69,4.43-2.57,2.9-2.52,4-2.44,5.75a46.86,46.86,0,0,1-.91,7.72c-.11.73-.24,1.48-.35,2.19-.52,3.32,1.51,9.36,1.53,9.43l0,.05a4.75,4.75,0,0,1-.06,3.16,3.75,3.75,0,0,0,.05,2.75c.33,1.13.45,1.66.28,2.06.11.39.37,1.2.94,2.82.66,1.89,1,2.67,1.18,3.08a2.56,2.56,0,0,1,.29,1.3c0,.49,0,1.41.25,3.66a50.48,50.48,0,0,1,.27,5.86,9.86,9.86,0,0,0,.79,4.64,20.47,20.47,0,0,1,1,3.35,4.53,4.53,0,0,0,1.53,2.92l1,.9c1.71,1.63,2.74,2.52,4.09,1.87l1.48-.69a37.82,37.82,0,0,0,5.53-2.9,5.8,5.8,0,0,0,1.56-2.6,26.69,26.69,0,0,1,1.21-2.7c.33-.64.57-1.22.8-1.78a7.87,7.87,0,0,1,4.65-5c3.62-1.7,3.91-2.34,5.16-5l.22-.47a11.08,11.08,0,0,0,1.06-2.7c.06-.24.13-.53.24-.93a9.37,9.37,0,0,1,2.42-4.72A10.8,10.8,0,0,0,247.3,165Zm10.63-36Z"/><path class="cls-2" d="M226.42,159a1,1,0,0,1-.43-.11.89.89,0,0,1-.35-1.21,63.69,63.69,0,0,1,12.21-15.35,64.34,64.34,0,0,1,7-5.78.89.89,0,0,1,1,1.47h0a65.87,65.87,0,0,0-6.8,5.63,62.13,62.13,0,0,0-11.84,14.88A.89.89,0,0,1,226.42,159Z"/><path class="cls-2" d="M248.13,166.18a.88.88,0,0,1-.88-.76c-.05-.3-1.08-7.32-.73-9.77a.89.89,0,0,1,1.77.25c-.26,1.82.43,7.3.72,9.26a.89.89,0,0,1-.75,1Z"/><path class="cls-7" d="M219.37,174.91s6,.17,7-2.68.17-4.37,3.52-5.71,4.7-1.23,4.7-1.23-4.7,8.78-6.88,10.46S220,178.6,220,178.6s-4.53-1-4.36-3S219.37,174.91,219.37,174.91Z"/><g class="cls-9"><path class="cls-7" d="M88.53,159.13c-.79,2.91,1,2.46,0,5.93s.89-1.12-1.23,4.93-1,1-1.68,7.83S86,185,84.5,188.56s-.79,4.82-2.8,6.61-3.69,4-6,2.91-5.71-2.58-7.17-3.7-1.56-2.79-3-5.59-1.23-4.59-5-6.38-4.26-2.57-5.6-5.48a14.55,14.55,0,0,1-1.57-4.26A8.56,8.56,0,0,0,51,168.31a11.58,11.58,0,0,1-1.91-3S46,183.75,43.87,186.66s.12,3-2.79,6.16-5.26,3.8-5.26,6.71-1.91,4.7-2.35,1.79-2-3.24,0-6.38,4-10,3.35-13.43,1.57-13.09-1.23-17.12-1.68-5-1.23-7.94a50,50,0,0,0,.34-7.17s-1.46,4.37-3.14,2.69,1.23-3.13,1.46-6.83,2-11.86,1.68-13.31-.45-2.13.78-3.92,1.34-2.35,2.35-2.8,6.49,1,6.94,3,2.46,5.6,3.92,6.72,3.24,2.46,3.24,2.46a32.24,32.24,0,0,1-.56-6.72,19.75,19.75,0,0,1,1.68-6c.67-1.68.11-2.46,2.91-5.48s.56-3.47,4.81-3.58,3.81-.12,6.61.44,5.37.12,7.27,2.13a16.89,16.89,0,0,0,5.82,4.36c2.91,1.46,3.13.79,4,4.15s-1,3.58,1.68,6.6,2.76,4.36,2.66,6.38.69,6.15,1.25,9.73S88.53,159.13,88.53,159.13Z"/><path class="cls-8" d="M91.66,151.41c-.78,2.91,1,1.79,0,5.26s5,.34,2.91,6.38-4.25,2.35-4.92,9.18-2.24,5.1-3.7,8.68-.78,4.82-2.8,6.61-3.69,4-6,2.91-5.71-2.58-7.16-3.7-1.57-2.79-3-5.59-1.23-4.59-5-6.38-4.25-2.58-5.59-5.48A14.26,14.26,0,0,1,54.73,165a8.61,8.61,0,0,0-2.24-4.36,11.69,11.69,0,0,1-1.9-3S49.36,183,47.23,185.88s.11,3-2.8,6.15-5.26,3.81-5.26,6.72-4.23,2.56-4.68-.35-.13-1.78,1.89-4.91,3.69-13.88,3-17.35,3.47-6.82.67-10.85-3.47-13.21-3-16.12a5.33,5.33,0,0,0-.93-4.38s-4.22,9.87-6,6.51c-1.12-2.1,1.68-9.85,1.9-13.54a79.71,79.71,0,0,0-.22-12.09c-.34-1.45,3.91-3.62,5.15-5.41s1.34-2.35,2.35-2.8,6.49,1,6.93,3,4.24,15.74,5.71,16.83c11.06,8.2,18.91,20.81,18.91,20.81S56.1,135.67,56.41,131.6c.67-8.73-2.58-13-1.9-14.7s.11-2.46,2.91-5.48.55-3.47,4.81-3.58,3.8-.12,6.6.44,5.37.12,7.27,2.13a17,17,0,0,0,5.82,4.36c2.91,1.46,3.14.79,4,4.15s-1,3.58,1.68,6.6,2.76,4.36,2.67,6.38.69,6.15,1.25,9.73A56.83,56.83,0,0,1,91.66,151.41Z"/></g><path class="cls-2" d="M34.35,203.7c-.5,0-1.46-.27-1.77-2.24a8.83,8.83,0,0,0-.55-2c-.59-1.56-.83-2.68.69-5,1.93-3,3.84-9.62,3.23-12.78a25.51,25.51,0,0,1,0-5.63c.24-3.91.54-8.79-1.1-11.15-2.36-3.4-2.17-4.93-1.67-7.14.1-.45.21-.92.29-1.45a33.6,33.6,0,0,0,.3-3.69,2.28,2.28,0,0,1-1,.58,1.94,1.94,0,0,1-1.83-.6c-1.38-1.39-.64-2.78,0-4a8.13,8.13,0,0,0,1.18-3.5c.1-1.7.52-4.26.92-6.74a41.77,41.77,0,0,0,.78-6.32c-.37-1.62-.5-2.56.92-4.63.3-.44.53-.8.74-1.12a4.18,4.18,0,0,1,2-2c1.13-.51,4.08.32,5.69,1.13a4.17,4.17,0,0,1,2.48,2.51,14.77,14.77,0,0,0,3.59,6.2l1.48,1.13a25.21,25.21,0,0,1-.23-4.75,19.15,19.15,0,0,1,1.6-5.94l.14-.36a6,6,0,0,0,.32-1.08c.27-1.12.55-2.29,2.77-4.68a7.34,7.34,0,0,0,1.46-2.16c.63-1.39,1.19-1.63,4-1.71H61c3.69-.1,3.76-.1,5.92.34l.65.13c.74.15,1.49.22,2.2.3,1.94.19,4,.4,5.55,2.09a15.88,15.88,0,0,0,5.57,4.18c.57.28,1,.48,1.43.66,1.87.8,2.3,1.21,3.06,4a8.23,8.23,0,0,1,.24,3.15c-.09,1-.14,1.53,1.24,3.09,2.85,3.2,3,4.78,2.89,7a48,48,0,0,0,.89,7.35c.12.73.24,1.49.35,2.21.58,3.66-1.41,9.71-1.59,10.24a3,3,0,0,0,0,2.11,5.45,5.45,0,0,1,0,3.81c-.12.43-.19.7-.23.87a1.75,1.75,0,0,1-.08,1.32c-.16.54-.46,1.43-.93,2.78-.69,1.95-1,2.77-1.23,3.2a1.16,1.16,0,0,0-.14.64c0,.51,0,1.47-.27,3.79a54,54,0,0,0-.26,5.68,11.4,11.4,0,0,1-.92,5.31,21.57,21.57,0,0,0-1,3.09,6.22,6.22,0,0,1-2.07,3.84l-.93.87c-1.67,1.58-3.56,3.38-6.09,2.18l-1.45-.68A37.79,37.79,0,0,1,68,195.09a7.08,7.08,0,0,1-2.12-3.34,26.77,26.77,0,0,0-1.15-2.55c-.36-.7-.63-1.35-.86-1.92a6.2,6.2,0,0,0-3.76-4.06c-4-1.9-4.62-2.87-6-5.92l-.22-.47a12.68,12.68,0,0,1-1.17-3c0-.23-.13-.52-.23-.91a7.74,7.74,0,0,0-2-4c-.29-.34-.55-.68-.78-1-.95,5.28-3.21,16.86-5,19.3a3.89,3.89,0,0,0-.92,2.34c-.09,1.15-.28,2.11-1.94,3.89a32.38,32.38,0,0,1-2.61,2.46c-1.67,1.44-2.41,2.14-2.41,3.65,0,2.24-1,4.07-2.25,4.16Zm1.11-59.48.13,5a50.33,50.33,0,0,1-.35,7.32c-.09.6-.21,1.12-.31,1.57-.41,1.81-.64,2.81,1.4,5.73s1.68,7.87,1.41,12.28a26.42,26.42,0,0,0,0,5.18c.45,2.35-.24,5.54-.69,7.24a25.88,25.88,0,0,1-2.79,6.85c-1.15,1.78-.95,2.3-.52,3.45a11.06,11.06,0,0,1,.65,2.31,2.72,2.72,0,0,0,.1.46,4.38,4.38,0,0,0,.47-2.12c0-2.39,1.34-3.54,3-5a29.19,29.19,0,0,0,2.47-2.32c1.37-1.47,1.42-2.07,1.48-2.82a5.48,5.48,0,0,1,1.25-3.25c1.47-2,3.86-13.66,5.1-21l.55-3.21L50,165a10.8,10.8,0,0,0,1.74,2.76,9.46,9.46,0,0,1,2.43,4.72c.1.4.18.69.24.93a10.48,10.48,0,0,0,1,2.7l.22.47c1.25,2.71,1.55,3.35,5.17,5a7.85,7.85,0,0,1,4.64,5c.24.56.48,1.14.8,1.78a27,27,0,0,1,1.22,2.7,5.63,5.63,0,0,0,1.56,2.6,37.3,37.3,0,0,0,5.53,2.9l1.47.69c1.35.65,2.39-.24,4.09-1.87.32-.29.64-.6,1-.9a4.52,4.52,0,0,0,1.52-2.92,21.51,21.51,0,0,1,1-3.35,9.62,9.62,0,0,0,.79-4.64,52.9,52.9,0,0,1,.27-5.86c.22-2.25.24-3.17.26-3.66a2.55,2.55,0,0,1,.28-1.3c.18-.41.52-1.19,1.18-3.08.58-1.62.84-2.43,1-2.82-.18-.4-.06-.93.27-2.06a3.82,3.82,0,0,0,.06-2.75,4.63,4.63,0,0,1-.06-3.16v-.05c0-.07,2-6.11,1.53-9.43-.11-.71-.23-1.46-.35-2.19a46.86,46.86,0,0,1-.91-7.72c.08-1.72.13-2.85-2.44-5.75-1.77-2-1.82-3-1.69-4.43a6.51,6.51,0,0,0-.18-2.53c-.6-2.25-.66-2.28-2-2.88-.41-.17-.91-.39-1.53-.7A17.78,17.78,0,0,1,74,118.67c-1.14-1.21-2.59-1.35-4.43-1.54-.76-.08-1.54-.16-2.37-.32l-.65-.13c-2-.4-2-.4-5.52-.31H60.8a8.18,8.18,0,0,0-2.13.21c-.08,0-.09,0-.28.45a9,9,0,0,1-1.78,2.63c-1.89,2-2.1,2.9-2.33,3.89a9,9,0,0,1-.4,1.32l-.15.36a17.94,17.94,0,0,0-1.47,5.43,31,31,0,0,0,.55,6.47l.42,2.26L51.4,138s-1.81-1.36-3.26-2.47c-1.68-1.29-3.77-5.12-4.24-7.22,0-.11-.17-.5-1-1a10,10,0,0,0-4.68-1.37c-.47.22-.61.42-1.18,1.31-.2.32-.45.71-.77,1.17-1,1.52-.95,1.91-.65,3.21.21.93-.15,3.27-.76,7-.39,2.43-.8,5-.9,6.56a9.9,9.9,0,0,1-1.38,4.23c-.73,1.35-.72,1.53-.34,1.91.1.09.15.12.17.12A4.8,4.8,0,0,0,33.85,149Zm2.7-18.28Z"/><path class="cls-2" d="M70.85,159a.89.89,0,0,1-.79-.47,61.89,61.89,0,0,0-11.84-14.88A65.23,65.23,0,0,0,51.43,138a.87.87,0,0,1-.23-1.23.9.9,0,0,1,1.24-.24,66.68,66.68,0,0,1,7,5.78A63.94,63.94,0,0,1,71.63,157.7a.9.9,0,0,1-.78,1.32Z"/><path class="cls-2" d="M49.14,166.18H49a.9.9,0,0,1-.75-1c.29-2,1-7.44.73-9.26a.89.89,0,1,1,1.76-.25c.35,2.45-.68,9.47-.72,9.77A.9.9,0,0,1,49.14,166.18Z"/><path class="cls-7" d="M77.9,174.91s-6.05.17-7.06-2.68-.16-4.37-3.52-5.71-4.7-1.23-4.7-1.23,4.7,8.78,6.88,10.46,7.72,2.85,7.72,2.85,4.54-1,4.37-3S77.9,174.91,77.9,174.91Z"/><path class="cls-2" d="M174.77,246.05a4,4,0,0,1-4-4V181.4a4,4,0,0,1,7.93,0v60.69A4,4,0,0,1,174.77,246.05Z"/><path class="cls-10" d="M159.83,230.13a4.78,4.78,0,0,1,2.21-7.57,1.73,1.73,0,0,1,1-.31h23.82a1.6,1.6,0,0,1,.84.23,4.78,4.78,0,0,1,2.5,7.65,4.76,4.76,0,0,1,0,6,4.76,4.76,0,0,1,0,6,4.76,4.76,0,0,1,.93,1.85h2.65a9.69,9.69,0,0,1,5.82-2c5.62,0,10.17,4.87,10.17,10.88a11.38,11.38,0,0,1-1.38,5.47v4.17a2,2,0,0,1-2.05,2.05H180.55a3.64,3.64,0,0,0-7.26,0H163.5a2.05,2.05,0,0,1-2.05-2.05v-4.15a3.85,3.85,0,0,1-.13-1v-2a4.78,4.78,0,0,1-2.57-4.24,4.7,4.7,0,0,1,1.08-3,4.78,4.78,0,0,1,0-6,4.76,4.76,0,0,1,0-6,4.76,4.76,0,0,1,0-6Z"/><path class="cls-11" d="M191.28,244.73s-11,2.43-18,10.66l-3.86-7.14s4.94-5.78,20.8-6A15.35,15.35,0,0,1,191.28,244.73Z"/><path class="cls-12" d="M193.76,244.06s5.55-4.22,11.41-.17,4.74,10.21,3.85,13.18-7.22,4.16-22.05,4.6c-11.77.09-6.95-.77-6.95-.77S194.66,257.19,193.76,244.06Z"/><rect class="cls-12" x="158.45" y="223.02" width="33.12" height="7.29" rx="3.65" transform="translate(350.02 453.32) rotate(180)"/><polygon class="cls-12" points="208.78 257.61 208.37 262.62 206.91 264.67 195.16 264.67 180.55 264.67 178.65 261.3 196.8 259.94 207.69 256.95 208.78 257.61"/><rect class="cls-10" x="175.04" y="243.15" width="7.22" height="7.22" rx="3.61" transform="translate(446.31 392.25) rotate(154.43)"/><path class="cls-2" d="M177.77,251.89a2.64,2.64,0,0,1-2.37-1.49L173.78,247a2.64,2.64,0,0,1,1.23-3.5l3.39-1.62a2.63,2.63,0,0,1,3.5,1.23l1.62,3.39a2.62,2.62,0,0,1-1.23,3.5l-3.39,1.62A2.49,2.49,0,0,1,177.77,251.89Zm1.77-8.47a.8.8,0,0,0-.37.08l-3.39,1.62a.84.84,0,0,0-.39,1.12l1.62,3.39a.88.88,0,0,0,.48.43.84.84,0,0,0,.64,0l3.39-1.62a.83.83,0,0,0,.43-.47.91.91,0,0,0,0-.65l-1.63-3.39a.83.83,0,0,0-.47-.43A1,1,0,0,0,179.54,243.42Z"/><rect class="cls-2" x="177.46" y="245.57" width="2.38" height="2.38" rx="0.57" transform="translate(-89.01 101.28) rotate(-25.57)"/><path class="cls-12" d="M174.89,261.67l-1.6,3H163.05l-1.7-1.5.1-4.7a16.12,16.12,0,0,0,6.67,2.34C172,261.26,174.89,261.67,174.89,261.67Z"/><path class="cls-11" d="M185,262.22q-3.78,0-8.12-.11c-.3,0-3.65,0-7.23-.3-5.34-.48-8.21-1.44-9-3l1.58-.82c.36.69,2.55,1.6,7.6,2.06,3.59.32,7,.28,7.07.28h0c11.34.3,19.89,0,25.41-.87,4.46-.7,5.24-1.53,5.27-1.57a.46.46,0,0,0-.09.16l1.67.64c-.25.63-1.33,1.53-5.12,2.28C199.85,261.8,193.46,262.22,185,262.22Z"/><path class="cls-11" d="M189.85,261.72l-.64-.88c4.06-3,6-6.65,5.72-10.9a13.18,13.18,0,0,0-1.64-5.59l-.6-1,1.14.15a7.76,7.76,0,0,1,5.44,3.89c1.68,3.25,1,7.89-2.1,13.81l-1-.5a24.26,24.26,0,0,0,2.78-8.08,8.2,8.2,0,0,0-.68-4.72,6.37,6.37,0,0,0-3.51-3,14.7,14.7,0,0,1,1.22,4.91C196.23,253,195.33,257.7,189.85,261.72Z"/><path class="cls-2" d="M178.23,262.34l-.45-1.73a25.18,25.18,0,0,0,9.65-4.53,14.59,14.59,0,0,0,4.27-5.53,13.13,13.13,0,0,0,1-6.75l1.75-.33a14.43,14.43,0,0,1-1.08,7.69,16.18,16.18,0,0,1-4.76,6.25A26.76,26.76,0,0,1,178.23,262.34Z"/><path class="cls-11" d="M202.49,260.65l-1-.48c0-.06,3.28-6.93,1-12.08a9.18,9.18,0,0,0-6.17-5l.31-1c3.37,1,5.68,2.89,6.86,5.57C206,253.27,202.64,260.35,202.49,260.65Z"/><path class="cls-11" d="M206.13,259.91l-1-.45c0-.06,2.88-6.53.63-11.6a9.79,9.79,0,0,0-6.35-5.24l.34-1a10.85,10.85,0,0,1,7,5.84C209.2,252.94,206.25,259.63,206.13,259.91Z"/><g class="cls-5"><path d="M167.5,222.65a4.78,4.78,0,0,0-2.21,7.57,4.76,4.76,0,0,0,0,6,4.76,4.76,0,0,0,0,6,4.78,4.78,0,0,0,0,6,4.7,4.7,0,0,0-1.08,3,4.78,4.78,0,0,0,2.57,4.24v2a3.85,3.85,0,0,0,.13,1v4.15a2.05,2.05,0,0,0,2.05,2.05s-5.54.75-6.72-.91-.47-8.24-.47-8.24-4.92-3.2-1.5-7.26c-2.45-2.55,0-6,0-6s-2.3-3.15,0-6a5,5,0,0,1,0-6s-3.57-4.86,2.75-7.88Z"/></g><path class="cls-2" d="M206.32,265.56H179.77l-.1-.77a2.75,2.75,0,0,0-5.49,0l-.1.77H163.5a2.94,2.94,0,0,1-2.94-2.94v-4a4.32,4.32,0,0,1-.13-1.08V256a5.68,5.68,0,0,1-1.7-7.77,5.65,5.65,0,0,1-.87-3,5.71,5.71,0,0,1,.87-3,5.68,5.68,0,0,1,0-6,5.68,5.68,0,0,1,0-6,5.68,5.68,0,0,1,2.92-8.38,2.63,2.63,0,0,1,1.37-.39h23.82a2.62,2.62,0,0,1,1.17.28,5.68,5.68,0,0,1,3.27,8.49,5.68,5.68,0,0,1,0,6,5.68,5.68,0,0,1,0,6,6.14,6.14,0,0,1,.48,1h1.71a10.53,10.53,0,0,1,6.11-2c6.1,0,11.06,5.28,11.06,11.77a12.29,12.29,0,0,1-1.38,5.69v3.95A2.94,2.94,0,0,1,206.32,265.56Zm-25-1.78h25a1.16,1.16,0,0,0,1.16-1.16v-4.4l.11-.2a10.56,10.56,0,0,0,1.27-5c0-5.51-4.16-10-9.28-10a8.77,8.77,0,0,0-5.29,1.79l-.24.18h-3.63l-.17-.68a3.75,3.75,0,0,0-.76-1.5l-.46-.57.46-.56a3.86,3.86,0,0,0,0-4.91l-.46-.57.46-.56a3.88,3.88,0,0,0,0-4.92l-.46-.56.46-.57a3.8,3.8,0,0,0,.88-2.45,3.89,3.89,0,0,0-2.91-3.77l-.12,0-.1-.06a.8.8,0,0,0-.4-.11H163a.81.81,0,0,0-.46.15l-.11.08-.13,0a3.88,3.88,0,0,0-2.68,3.7,3.8,3.8,0,0,0,.88,2.45l.46.57-.46.56a3.88,3.88,0,0,0,0,4.92l.46.56-.46.57a3.86,3.86,0,0,0,0,4.91l.46.56-.46.57a3.86,3.86,0,0,0,0,4.91l.46.57-.46.56a3.8,3.8,0,0,0-.88,2.46,3.88,3.88,0,0,0,2.09,3.45l.48.25v2.52a3.07,3.07,0,0,0,.1.74l0,.12v4.26a1.16,1.16,0,0,0,1.16,1.16h9.08a4.49,4.49,0,0,1,8.69,0Z"/><path class="cls-2" d="M122.91,246.2a4,4,0,0,1-4-4V181.55a4,4,0,1,1,7.93,0v60.69A4,4,0,0,1,122.91,246.2Z"/><path class="cls-10" d="M137.85,230.28a4.78,4.78,0,0,0-2.21-7.57,1.73,1.73,0,0,0-1-.31H110.84a1.7,1.7,0,0,0-.84.22,4.8,4.8,0,0,0-3.58,4.64,4.74,4.74,0,0,0,1.08,3,4.76,4.76,0,0,0,0,6,4.76,4.76,0,0,0,0,6,4.69,4.69,0,0,0-.93,1.85h-2.65a9.69,9.69,0,0,0-5.82-2c-5.62,0-10.17,4.87-10.17,10.88a11.32,11.32,0,0,0,1.38,5.46v4.18a2,2,0,0,0,2,2.05h25.77a3.64,3.64,0,0,1,7.26,0h9.79a2.05,2.05,0,0,0,2-2.05v-4.15a3.85,3.85,0,0,0,.13-1v-2a4.78,4.78,0,0,0,2.57-4.24,4.7,4.7,0,0,0-1.08-3,4.78,4.78,0,0,0,0-6,4.76,4.76,0,0,0,0-6,4.76,4.76,0,0,0,0-6Z"/><path class="cls-11" d="M106.4,244.88s11,2.43,18,10.66l3.86-7.14s-4.94-5.78-20.8-6A15.35,15.35,0,0,0,106.4,244.88Z"/><path class="cls-12" d="M103.92,244.21S98.37,240,92.51,244s-4.74,10.21-3.85,13.17,7.22,4.17,22,4.6c11.77.1,7-.77,7-.77S103,257.34,103.92,244.21Z"/><rect class="cls-12" x="106.11" y="223.16" width="33.12" height="7.29" rx="3.65"/><polygon class="cls-12" points="88.9 257.76 89.31 262.77 90.77 264.82 102.52 264.82 117.13 264.82 119.03 261.45 100.88 260.09 89.98 257.1 88.9 257.76"/><rect class="cls-10" x="115.42" y="243.3" width="7.22" height="7.22" rx="3.61" transform="translate(118.23 -27.19) rotate(25.57)"/><path class="cls-2" d="M119.91,252a2.63,2.63,0,0,1-1.13-.26l-3.39-1.62a2.62,2.62,0,0,1-1.23-3.5l1.62-3.39a2.62,2.62,0,0,1,3.5-1.23l3.39,1.62a2.62,2.62,0,0,1,1.23,3.5l-1.62,3.39a2.64,2.64,0,0,1-2.37,1.49Zm-1.76-8.47a.83.83,0,0,0-.76.47l-1.62,3.39a.84.84,0,0,0,0,.64.88.88,0,0,0,.43.48l3.39,1.62a.84.84,0,0,0,.64,0,.88.88,0,0,0,.48-.43l1.62-3.39a.84.84,0,0,0,0-.64.88.88,0,0,0-.43-.48l-3.39-1.62A.78.78,0,0,0,118.15,243.57Z"/><rect class="cls-2" x="117.84" y="245.72" width="2.38" height="2.38" rx="0.57" transform="translate(-155.07 247.71) rotate(-64.43)"/><path class="cls-12" d="M122.79,261.82l1.6,3h10.24l1.7-1.5-.1-4.7a16.12,16.12,0,0,1-6.67,2.34C125.65,261.41,122.79,261.82,122.79,261.82Z"/><path class="cls-11" d="M112.64,262.37c-8.42,0-14.81-.42-19-1.26-3.79-.75-4.87-1.66-5.12-2.28l1.67-.64a.46.46,0,0,0-.09-.16s.81.87,5.27,1.57c5.52.88,14.07,1.17,25.41.87h0s3.48,0,7.07-.28c5-.46,7.24-1.37,7.6-2.07L137,259c-.81,1.57-3.69,2.53-9,3-3.58.33-6.93.3-7.23.3Q116.43,262.37,112.64,262.37Z"/><path class="cls-11" d="M107.83,261.87c-5.48-4-6.38-8.69-6.17-11.9a14.7,14.7,0,0,1,1.22-4.9,6.33,6.33,0,0,0-3.51,3,8.18,8.18,0,0,0-.68,4.72,24.26,24.26,0,0,0,2.78,8.08l-1,.5c-3.07-5.92-3.78-10.57-2.1-13.81a7.73,7.73,0,0,1,5.44-3.89l1.15-.16-.61,1a13.18,13.18,0,0,0-1.64,5.59c-.27,4.25,1.66,7.92,5.72,10.9Z"/><path class="cls-2" d="M119.45,262.49a26.76,26.76,0,0,1-10.38-4.93,16.18,16.18,0,0,1-4.76-6.25,14.43,14.43,0,0,1-1.08-7.69L105,244a13.08,13.08,0,0,0,1,6.75,14.56,14.56,0,0,0,4.26,5.53,25.18,25.18,0,0,0,9.65,4.53Z"/><path class="cls-11" d="M95.19,260.8c-.15-.3-3.5-7.39-1-13,1.18-2.68,3.49-4.55,6.86-5.57l.31,1.05c-3,.92-5.13,2.59-6.17,5-2.27,5.16,1,12,1,12.08Z"/><path class="cls-11" d="M91.56,260.06c-.13-.28-3.08-7-.63-12.49a10.83,10.83,0,0,1,7-5.84l.34,1A9.81,9.81,0,0,0,91.92,248c-2.25,5.08.6,11.55.63,11.61Z"/><g class="cls-5"><path d="M130.18,222.8a4.78,4.78,0,0,1,2.21,7.57,4.76,4.76,0,0,1,0,6,4.76,4.76,0,0,1,0,6,4.78,4.78,0,0,1,0,6.05,4.7,4.7,0,0,1,1.08,3,4.78,4.78,0,0,1-2.57,4.24v2a3.85,3.85,0,0,1-.13,1v4.15a2.05,2.05,0,0,1-2.05,2.05s5.54.75,6.72-.91.47-8.24.47-8.24,4.92-3.2,1.5-7.26c2.45-2.55,0-6.05,0-6.05s2.3-3.15,0-6a5,5,0,0,0,0-6s3.57-4.87-2.75-7.88Z"/></g><path class="cls-2" d="M134.18,265.71H123.6l-.1-.78a2.75,2.75,0,0,0-5.49,0l-.1.78H91.36a2.94,2.94,0,0,1-2.94-2.94v-3.95A12.29,12.29,0,0,1,87,253.13c0-6.49,5-11.77,11.06-11.77a10.53,10.53,0,0,1,6.11,2h1.71a6.14,6.14,0,0,1,.48-1,5.68,5.68,0,0,1,0-6,5.68,5.68,0,0,1,0-6,5.68,5.68,0,0,1,3.27-8.49,2.62,2.62,0,0,1,1.17-.28h23.82a2.54,2.54,0,0,1,1.37.39,5.68,5.68,0,0,1,2.92,8.38,5.68,5.68,0,0,1,0,6,5.68,5.68,0,0,1,0,6,5.69,5.69,0,0,1,0,6,5.68,5.68,0,0,1-1.7,7.77v1.47a4.37,4.37,0,0,1-.13,1.08v4A2.94,2.94,0,0,1,134.18,265.71Zm-9.08-1.78h9.08a1.16,1.16,0,0,0,1.16-1.16V258.5l0-.11a3.07,3.07,0,0,0,.1-.74v-2.52l.48-.25a3.89,3.89,0,0,0,2.09-3.45,3.8,3.8,0,0,0-.88-2.46l-.46-.56.46-.57a3.86,3.86,0,0,0,0-4.91l-.46-.57.46-.56a3.8,3.8,0,0,0,.88-2.46,3.84,3.84,0,0,0-.88-2.46l-.46-.56.46-.56a3.84,3.84,0,0,0,.88-2.46,3.8,3.8,0,0,0-.88-2.46l-.46-.56.46-.57a3.8,3.8,0,0,0,.88-2.45,3.88,3.88,0,0,0-2.68-3.7l-.13,0-.11-.08a.75.75,0,0,0-.46-.15H110.84a.8.8,0,0,0-.4.11l-.1.06-.12,0a3.89,3.89,0,0,0-2.91,3.77,3.8,3.8,0,0,0,.88,2.45l.46.57-.46.56a3.8,3.8,0,0,0-.88,2.46,3.84,3.84,0,0,0,.88,2.46l.46.56-.46.56a3.84,3.84,0,0,0-.88,2.46,3.8,3.8,0,0,0,.88,2.46l.46.56-.46.57a3.75,3.75,0,0,0-.76,1.5l-.17.67h-3.63l-.24-.17a8.77,8.77,0,0,0-5.29-1.79c-5.12,0-9.28,4.48-9.28,10a10.59,10.59,0,0,0,1.27,5l.11.2v4.4a1.16,1.16,0,0,0,1.16,1.16h25a4.49,4.49,0,0,1,8.69,0Z"/><path class="cls-2" d="M214.94,67.28H82.32A6.76,6.76,0,0,0,75.58,74V198.2a6.76,6.76,0,0,0,6.74,6.74H214.94a6.76,6.76,0,0,0,6.75-6.74V74A6.77,6.77,0,0,0,214.94,67.28Z"/><rect class="cls-1" x="77.9" y="69.61" width="141.46" height="133.01" rx="4.42"/><path class="cls-2" d="M214.94,65H82.32A9.08,9.08,0,0,0,73.25,74V198.2a9.08,9.08,0,0,0,9.07,9.07H214.94A9.08,9.08,0,0,0,224,198.2V74A9.09,9.09,0,0,0,214.94,65Zm4.42,133.25a4.43,4.43,0,0,1-4.42,4.42H82.32a4.43,4.43,0,0,1-4.42-4.42V74a4.43,4.43,0,0,1,4.42-4.42H214.94A4.42,4.42,0,0,1,219.36,74Z"/><rect class="cls-13" x="75.58" y="67.28" width="137.66" height="137.66" rx="6.75"/><rect class="cls-14" x="84.02" y="67.28" width="137.66" height="137.66" rx="6.75"/><rect class="cls-15" x="94.59" y="77.22" width="18.59" height="19.94" rx="1.76"/><rect class="cls-15" x="119.16" y="77.22" width="18.59" height="19.94" rx="1.76"/><rect class="cls-15" x="143.73" y="77.22" width="18.59" height="19.94" rx="1.76"/><rect class="cls-15" x="168.3" y="77.22" width="18.59" height="19.94" rx="1.76"/><path class="cls-13" d="M109.46,80.55H94.58V95.43a1.76,1.76,0,0,0,1.76,1.76h14.88V82.31A1.76,1.76,0,0,0,109.46,80.55Z"/><path class="cls-13" d="M134,80.55H119.15V95.43a1.76,1.76,0,0,0,1.76,1.76h14.88V82.31A1.76,1.76,0,0,0,134,80.55Z"/><path class="cls-13" d="M158.6,80.55H143.72V95.43a1.76,1.76,0,0,0,1.77,1.76h14.87V82.31A1.76,1.76,0,0,0,158.6,80.55Z"/><path class="cls-13" d="M183.17,80.55H168.3V95.43a1.76,1.76,0,0,0,1.76,1.76h14.87V82.31A1.76,1.76,0,0,0,183.17,80.55Z"/><path class="cls-16" d="M109.55,98.89H96.26a3.44,3.44,0,0,1-3.43-3.44V81.81a.72.72,0,1,1,1.43,0V95.45a2,2,0,0,0,2,2h13.29a.72.72,0,0,1,0,1.43Z"/><path class="cls-16" d="M134.13,98.89H120.85a3.43,3.43,0,0,1-3.43-3.44V81.81a.71.71,0,1,1,1.42,0V95.45a2,2,0,0,0,2,2h13.28a.72.72,0,0,1,0,1.43Z"/><path class="cls-16" d="M158.69,98.89H145.4A3.44,3.44,0,0,1,142,95.45V81.81a.72.72,0,1,1,1.43,0V95.45a2,2,0,0,0,2,2h13.29a.72.72,0,0,1,0,1.43Z"/><path class="cls-16" d="M183.2,98.89H169.91a3.44,3.44,0,0,1-3.43-3.44V81.81a.72.72,0,1,1,1.43,0V95.45a2,2,0,0,0,2,2H183.2a.72.72,0,0,1,0,1.43Z"/><rect class="cls-15" x="192.71" y="77.22" width="18.59" height="19.94" rx="1.76"/><path class="cls-13" d="M207.58,80.55H192.7V95.43a1.76,1.76,0,0,0,1.76,1.76h14.88V82.31A1.76,1.76,0,0,0,207.58,80.55Z"/><path class="cls-16" d="M207.6,98.89H194.32a3.43,3.43,0,0,1-3.43-3.44V81.81a.71.71,0,1,1,1.42,0V95.45a2,2,0,0,0,2,2H207.6a.72.72,0,1,1,0,1.43Z"/><rect class="cls-15" x="119.16" y="126.21" width="18.59" height="19.94" rx="1.76"/><rect class="cls-15" x="94.59" y="126.21" width="18.59" height="19.94" rx="1.76"/><rect class="cls-15" x="94.59" y="101.64" width="18.59" height="19.94" rx="1.76"/><rect class="cls-15" x="119.16" y="101.64" width="18.59" height="19.94" rx="1.76"/><rect class="cls-15" x="168.3" y="126.21" width="18.59" height="19.94" rx="1.76"/><rect class="cls-15" x="143.73" y="101.64" width="18.59" height="19.94" rx="1.76"/><rect class="cls-15" x="143.73" y="126.21" width="18.59" height="19.94" rx="1.76"/><rect class="cls-15" x="168.3" y="101.64" width="18.59" height="19.94" rx="1.76"/><path class="cls-13" d="M120.91,146.17h14.88V131.3a1.76,1.76,0,0,0-1.76-1.76H119.15v14.87A1.76,1.76,0,0,0,120.91,146.17Z"/><path class="cls-13" d="M96.34,146.17h14.88V131.3a1.76,1.76,0,0,0-1.76-1.76H94.58v14.87A1.76,1.76,0,0,0,96.34,146.17Z"/><path class="cls-13" d="M109.46,105H94.58v14.88a1.76,1.76,0,0,0,1.76,1.76h14.88V106.72A1.76,1.76,0,0,0,109.46,105Z"/><path class="cls-13" d="M134,105H119.15v14.88a1.76,1.76,0,0,0,1.76,1.76h14.88V106.72A1.76,1.76,0,0,0,134,105Z"/><path class="cls-13" d="M170.06,146.17h14.87V131.3a1.76,1.76,0,0,0-1.76-1.76H168.3v14.87A1.76,1.76,0,0,0,170.06,146.17Z"/><path class="cls-13" d="M158.6,105H143.72v14.88a1.76,1.76,0,0,0,1.77,1.76h14.87V106.72A1.76,1.76,0,0,0,158.6,105Z"/><path class="cls-13" d="M145.49,146.17h14.87V131.3a1.76,1.76,0,0,0-1.76-1.76H143.72v14.87A1.76,1.76,0,0,0,145.49,146.17Z"/><path class="cls-13" d="M183.17,105H168.3v14.88a1.76,1.76,0,0,0,1.76,1.76h14.87V106.72A1.76,1.76,0,0,0,183.17,105Z"/><path class="cls-16" d="M109.55,123.3H96.26a3.44,3.44,0,0,1-3.43-3.43V106.22a.72.72,0,0,1,1.43,0v13.65a2,2,0,0,0,2,2h13.29a.72.72,0,0,1,0,1.43Z"/><path class="cls-16" d="M109.55,147.9H96.26a3.44,3.44,0,0,1-3.43-3.43V130.82a.72.72,0,0,1,1.43,0v13.65a2,2,0,0,0,2,2h13.29a.71.71,0,0,1,0,1.42Z"/><path class="cls-16" d="M134.13,123.3H120.85a3.43,3.43,0,0,1-3.43-3.43V106.22a.71.71,0,1,1,1.42,0v13.65a2,2,0,0,0,2,2h13.28a.72.72,0,0,1,0,1.43Z"/><path class="cls-16" d="M134.13,147.9H120.85a3.43,3.43,0,0,1-3.43-3.43V130.82a.71.71,0,0,1,1.42,0v13.65a2,2,0,0,0,2,2h13.28a.71.71,0,0,1,0,1.42Z"/><path class="cls-16" d="M158.69,123.3H145.4a3.44,3.44,0,0,1-3.43-3.43V106.22a.72.72,0,0,1,1.43,0v13.65a2,2,0,0,0,2,2h13.29a.72.72,0,0,1,0,1.43Z"/><path class="cls-16" d="M158.69,147.9H145.4a3.44,3.44,0,0,1-3.43-3.43V130.82a.72.72,0,0,1,1.43,0v13.65a2,2,0,0,0,2,2h13.29a.71.71,0,0,1,0,1.42Z"/><path class="cls-16" d="M183.2,123.3H169.91a3.44,3.44,0,0,1-3.43-3.43V106.22a.72.72,0,0,1,1.43,0v13.65a2,2,0,0,0,2,2H183.2a.72.72,0,0,1,0,1.43Z"/><path class="cls-16" d="M183.2,147.9H169.91a3.44,3.44,0,0,1-3.43-3.43V130.82a.72.72,0,0,1,1.43,0v13.65a2,2,0,0,0,2,2H183.2a.71.71,0,0,1,0,1.42Z"/><rect class="cls-15" x="192.71" y="126.21" width="18.59" height="19.94" rx="1.76"/><rect class="cls-15" x="192.71" y="101.64" width="18.59" height="19.94" rx="1.76"/><path class="cls-13" d="M194.46,146.17h14.88V131.3a1.76,1.76,0,0,0-1.76-1.76H192.7v14.87A1.76,1.76,0,0,0,194.46,146.17Z"/><path class="cls-13" d="M207.58,105H192.7v14.88a1.76,1.76,0,0,0,1.76,1.76h14.88V106.72A1.76,1.76,0,0,0,207.58,105Z"/><path class="cls-16" d="M207.6,123.3H194.32a3.43,3.43,0,0,1-3.43-3.43V106.22a.71.71,0,0,1,1.42,0v13.65a2,2,0,0,0,2,2H207.6a.72.72,0,1,1,0,1.43Z"/><path class="cls-16" d="M207.6,147.9H194.32a3.43,3.43,0,0,1-3.43-3.43V130.82a.71.71,0,1,1,1.42,0v13.65a2,2,0,0,0,2,2H207.6a.71.71,0,1,1,0,1.42Z"/><rect class="cls-15" x="119.16" y="175.49" width="18.59" height="19.94" rx="1.76"/><rect class="cls-15" x="94.59" y="175.49" width="18.59" height="19.94" rx="1.76"/><rect class="cls-15" x="94.59" y="150.92" width="18.59" height="19.94" rx="1.76"/><rect class="cls-15" x="119.16" y="150.92" width="18.59" height="19.94" rx="1.76"/><rect class="cls-15" x="168.3" y="175.49" width="18.59" height="19.94" rx="1.76"/><rect class="cls-15" x="143.73" y="150.92" width="18.59" height="19.94" rx="1.76"/><rect class="cls-15" x="143.73" y="175.49" width="18.59" height="19.94" rx="1.76"/><rect class="cls-15" x="168.3" y="150.92" width="18.59" height="19.94" rx="1.76"/><path class="cls-13" d="M120.91,195.45h14.88V180.57a1.76,1.76,0,0,0-1.76-1.76H119.15v14.88A1.76,1.76,0,0,0,120.91,195.45Z"/><path class="cls-13" d="M96.34,195.45h14.88V180.57a1.76,1.76,0,0,0-1.76-1.76H94.58v14.88A1.76,1.76,0,0,0,96.34,195.45Z"/><path class="cls-13" d="M109.46,154.24H94.58v14.88a1.76,1.76,0,0,0,1.76,1.76h14.88V156A1.76,1.76,0,0,0,109.46,154.24Z"/><path class="cls-13" d="M134,154.24H119.15v14.88a1.76,1.76,0,0,0,1.76,1.76h14.88V156A1.76,1.76,0,0,0,134,154.24Z"/><path class="cls-13" d="M170.06,195.45h14.87V180.57a1.76,1.76,0,0,0-1.76-1.76H168.3v14.88A1.76,1.76,0,0,0,170.06,195.45Z"/><path class="cls-13" d="M158.6,154.24H143.72v14.88a1.76,1.76,0,0,0,1.77,1.76h14.87V156A1.76,1.76,0,0,0,158.6,154.24Z"/><path class="cls-13" d="M145.49,195.45h14.87V180.57a1.76,1.76,0,0,0-1.76-1.76H143.72v14.88A1.76,1.76,0,0,0,145.49,195.45Z"/><path class="cls-13" d="M183.17,154.24H168.3v14.88a1.76,1.76,0,0,0,1.76,1.76h14.87V156A1.76,1.76,0,0,0,183.17,154.24Z"/><path class="cls-16" d="M109.55,172.58H96.26a3.44,3.44,0,0,1-3.43-3.43V155.5a.72.72,0,0,1,1.43,0v13.65a2,2,0,0,0,2,2h13.29a.72.72,0,0,1,0,1.43Z"/><path class="cls-16" d="M109.55,197.18H96.26a3.44,3.44,0,0,1-3.43-3.43V180.1a.72.72,0,0,1,1.43,0v13.65a2,2,0,0,0,2,2h13.29a.72.72,0,0,1,0,1.43Z"/><path class="cls-16" d="M134.13,172.58H120.85a3.43,3.43,0,0,1-3.43-3.43V155.5a.71.71,0,1,1,1.42,0v13.65a2,2,0,0,0,2,2h13.28a.72.72,0,0,1,0,1.43Z"/><path class="cls-16" d="M134.13,197.18H120.85a3.43,3.43,0,0,1-3.43-3.43V180.1a.71.71,0,1,1,1.42,0v13.65a2,2,0,0,0,2,2h13.28a.72.72,0,0,1,0,1.43Z"/><path class="cls-16" d="M158.69,172.58H145.4a3.44,3.44,0,0,1-3.43-3.43V155.5a.72.72,0,0,1,1.43,0v13.65a2,2,0,0,0,2,2h13.29a.72.72,0,0,1,0,1.43Z"/><path class="cls-16" d="M158.69,197.18H145.4a3.44,3.44,0,0,1-3.43-3.43V180.1a.72.72,0,0,1,1.43,0v13.65a2,2,0,0,0,2,2h13.29a.72.72,0,0,1,0,1.43Z"/><path class="cls-16" d="M183.2,172.58H169.91a3.44,3.44,0,0,1-3.43-3.43V155.5a.72.72,0,0,1,1.43,0v13.65a2,2,0,0,0,2,2H183.2a.72.72,0,0,1,0,1.43Z"/><path class="cls-16" d="M183.2,197.18H169.91a3.44,3.44,0,0,1-3.43-3.43V180.1a.72.72,0,0,1,1.43,0v13.65a2,2,0,0,0,2,2H183.2a.72.72,0,0,1,0,1.43Z"/><rect class="cls-15" x="192.71" y="175.49" width="18.59" height="19.94" rx="1.76"/><rect class="cls-15" x="192.71" y="150.92" width="18.59" height="19.94" rx="1.76"/><path class="cls-13" d="M194.46,195.45h14.88V180.57a1.76,1.76,0,0,0-1.76-1.76H192.7v14.88A1.76,1.76,0,0,0,194.46,195.45Z"/><path class="cls-13" d="M207.58,154.24H192.7v14.88a1.76,1.76,0,0,0,1.76,1.76h14.88V156A1.76,1.76,0,0,0,207.58,154.24Z"/><path class="cls-16" d="M207.6,172.58H194.32a3.43,3.43,0,0,1-3.43-3.43V155.5a.71.71,0,1,1,1.42,0v13.65a2,2,0,0,0,2,2H207.6a.72.72,0,1,1,0,1.43Z"/><path class="cls-16" d="M207.6,197.18H194.32a3.43,3.43,0,0,1-3.43-3.43V180.1a.71.71,0,0,1,1.42,0v13.65a2,2,0,0,0,2,2H207.6a.72.72,0,1,1,0,1.43Z"/><g class="cls-17"><path class="cls-10" d="M72.3,107.47v25.26c0,6,3.67,11.53,16,11.53s13.62-7,13.62-9.83-7.31-25.06,10.88-25.06,15.18,19.57,15.18,26.2,3.21,16.73,11.54,16.73,14.31-5.66,14.31-22.64,26.06-13.64,26.06,0,24,12.34,24,2.12,11.36-12.87,21.86-17.21c7.82-3.23,0-11.59,0-17.51h-.1V69.48c0-1.54-5.17-5.29-9.06-5.29H81.26c-5.45,0-9.06,5.4-9.06,6.94Z"/><path class="cls-18" d="M66.54,46.58V162.89H244.6V46.58Zm158.1,64.48c-10,4.34-20.93,7-20.93,17.21s-23,11.53-23-2.12-25-17-25,0-5.73,22.64-13.7,22.64S131,138.69,131,132.06s2.89-26.2-14.54-26.2-10.41,22.26-10.41,25.06-1.28,9.83-13,9.83-15.28-5.53-15.28-11.53V104l-.1-36.34c0-1.54,3.46-6.94,8.68-6.94H215.87c3.73,0,8.68,3.75,8.68,5.29V93.55h.09C224.64,99.47,232.13,107.83,224.64,111.06Z"/></g><path class="cls-2" d="M139.48,153.2c-4,0-7.4-2.2-9.67-6.35a24.4,24.4,0,0,1-2.76-11.28c0-.74,0-1.6.08-2.61.21-5.28.57-14.13-4.11-19-2.35-2.45-5.81-3.69-10.26-3.69-4,0-7,1.15-8.86,3.41-4,4.86-2.33,13.91-1.51,18.26a17.48,17.48,0,0,1,.39,2.5c0,2.52-1,10.72-14.52,10.72-5.89,0-10.33-1.26-13.17-3.73a11,11,0,0,1-3.68-8.69V107.47l-.1-36.34c0-1.16,1.16-3.13,2.75-4.68a10.42,10.42,0,0,1,7.2-3.15H216.54A13.25,13.25,0,0,1,223,65.51c.82.52,3.49,2.34,3.49,4V96.17h.09v.89c0,1.81.86,4,1.69,6.16s1.79,4.61,1.78,6.71c0,2.52-1.36,4.37-4,5.47-1.53.63-3.08,1.23-4.58,1.81-4.48,1.72-8.71,3.35-11.82,5.61-3.35,2.44-4.91,5.29-4.91,9a7.71,7.71,0,0,1-4.06,6.59,16.52,16.52,0,0,1-8.52,2.19,15.63,15.63,0,0,1-9-2.56,9.79,9.79,0,0,1-4.24-8.34,9.52,9.52,0,0,0-4.12-7.74,15.53,15.53,0,0,0-9.08-2.88,11.9,11.9,0,0,0-7.71,2.54c-2.24,1.88-3.37,4.6-3.37,8.08,0,8.2-1.41,14.33-4.2,18.21C148,151.4,144.25,153.2,139.48,153.2Zm-26.72-44.72c5,0,8.84,1.42,11.54,4.23,5.22,5.43,4.84,14.75,4.61,20.32,0,1-.07,1.84-.07,2.54,0,6.13,2.88,15.84,10.64,15.84,4.22,0,7.34-1.5,9.55-4.58,2.57-3.57,3.87-9.35,3.87-17.17a11.89,11.89,0,0,1,4-9.45,13.68,13.68,0,0,1,8.86-3,17.38,17.38,0,0,1,10.15,3.24,11.33,11.33,0,0,1,4.83,9.17,8,8,0,0,0,3.49,6.88,13.75,13.75,0,0,0,7.92,2.24c5.23,0,10.79-2.45,10.79-7,0-4.24,1.85-7.64,5.66-10.4,3.29-2.4,7.63-4.07,12.22-5.84,1.49-.57,3-1.17,4.54-1.79,4.18-1.73,3.2-4.88,1.26-9.89a24.72,24.72,0,0,1-1.77-5.92h-.14V69.5c-.05-.33-.92-1.41-2.78-2.56a11.1,11.1,0,0,0-5.39-1.85H81.26a8.62,8.62,0,0,0-6,2.63,7.28,7.28,0,0,0-2.22,3.41l.11,36.34v25.26a9.27,9.27,0,0,0,3.06,7.34c2.51,2.19,6.55,3.29,12,3.29,5,0,8.65-1.19,10.75-3.55a8.14,8.14,0,0,0,2-5.38,18.82,18.82,0,0,0-.35-2.17c-.87-4.62-2.69-14.22,1.88-19.73C104.75,109.84,108.19,108.48,112.76,108.48Z"/><path class="cls-19" d="M78.25,120c-19.9,0-17.13,13.48-17.13,13.48a6.88,6.88,0,1,0,13.76,0c0-5.76,3.37-5.54,3.37-5.54H101V120Z"/><path class="cls-2" d="M68,141.26a7.77,7.77,0,0,1-7.77-7.68,11.65,11.65,0,0,1,2.37-9c2.95-3.62,8.22-5.45,15.65-5.45H101.9v9.73H78.2a1.93,1.93,0,0,0-1.25.57c-.77.75-1.17,2.16-1.17,4.08A7.78,7.78,0,0,1,68,141.26ZM78.25,120.9c-6.85,0-11.65,1.61-14.25,4.78a10,10,0,0,0-2,7.63l0,.09v.09a6,6,0,1,0,12,0c0-2.49.6-4.31,1.77-5.41a3.61,3.61,0,0,1,2.51-1h21.84V120.9Z"/><path class="cls-20" d="M159.61,116.68c-37.48,0-59.19,4.38-59.19,4.38V148.5a11.75,11.75,0,0,0,11.75,11.75h28.71a11.75,11.75,0,0,0,11.61-9.92c.32-1.44,2.43-9.92,7.12-9.92s6.8,8.53,7.12,9.93a11.75,11.75,0,0,0,11.6,9.91H207a11.75,11.75,0,0,0,11.75-11.75V121.06S197.08,116.68,159.61,116.68Z"/><g class="cls-21"><g class="cls-22"><rect class="cls-23" x="116.78" y="94.81" width="11.91" height="82.44" transform="translate(-60.24 126.63) rotate(-45)"/></g><g class="cls-22"><rect class="cls-24" x="129.24" y="85.44" width="7.33" height="82.44" transform="translate(-50.63 131.08) rotate(-45)"/></g><g class="cls-22"><rect class="cls-25" x="175.52" y="94.81" width="11.91" height="82.44" transform="translate(-43.04 168.17) rotate(-45)"/></g><g class="cls-22"><rect class="cls-26" x="187.98" y="85.44" width="7.33" height="82.44" transform="translate(-33.43 172.61) rotate(-45)"/></g></g><path class="cls-13" d="M167.65,122.29H151.77a1.29,1.29,0,1,1,0-2.57h15.88a1.29,1.29,0,1,1,0,2.57Z"/><path class="cls-2" d="M207,161.14H178.33a12.66,12.66,0,0,1-12.48-10.63c-.79-3.43-3-9.21-6.24-9.21-2,0-3.5,2.14-4.4,3.93a25.13,25.13,0,0,0-1.85,5.27,12.63,12.63,0,0,1-12.48,10.64H112.17A12.65,12.65,0,0,1,99.53,148.5V120.33l.71-.14c.06,0,5.59-1.12,15.62-2.21a412.29,412.29,0,0,1,43.75-2.19A412.23,412.23,0,0,1,203.35,118c10,1.09,15.56,2.2,15.62,2.21l.71.14V148.5A12.65,12.65,0,0,1,207,161.14Zm-47.43-21.62c2.33,0,4.34,1.66,6,4.93a27.68,27.68,0,0,1,2,5.69v.06a10.84,10.84,0,0,0,10.72,9.15H207A10.87,10.87,0,0,0,217.9,148.5V121.8c-4.05-.73-25.07-4.23-58.29-4.23s-54.25,3.5-58.3,4.23v26.7a10.87,10.87,0,0,0,10.86,10.85h28.71a10.84,10.84,0,0,0,10.72-9.16l0-.06a26.47,26.47,0,0,1,2-5.7C155.25,141.17,157.26,139.52,159.61,139.52Z"/><g class="cls-27"><rect class="cls-28" x="124.46" y="160.52" width="65.78" height="21.35" rx="10.68"/><rect class="cls-29" x="119.98" y="165" width="65.78" height="21.35" rx="10.68"/><polygon class="cls-10" points="149.88 155.87 175.24 190.25 167.09 191.46 139.93 154.65 148.04 153.24 149.88 155.87"/><polygon class="cls-10" points="158.69 155.42 184.05 189.8 180.85 191.01 153.69 154.2 156.85 152.8 158.69 155.42"/></g><path class="cls-2" d="M182.22,182.76H132.29a8.83,8.83,0,0,1-8.82-8.82v-5.49a8.83,8.83,0,0,1,8.82-8.82h49.93a8.83,8.83,0,0,1,8.82,8.82v5.49A8.83,8.83,0,0,1,182.22,182.76Zm-49.93-21.35a7.05,7.05,0,0,0-7,7v5.49a7.05,7.05,0,0,0,7,7h49.93a7,7,0,0,0,7-7v-5.49a7,7,0,0,0-7-7Z"/><path class="cls-2" d="M143.48,172.09H124.36a.9.9,0,0,1,0-1.79h19.12a.9.9,0,0,1,0,1.79Z"/><path class="cls-2" d="M182.22,182.76H132.29a8.83,8.83,0,0,1-8.82-8.82v-5.49a8.83,8.83,0,0,1,8.82-8.82h49.93a8.83,8.83,0,0,1,8.82,8.82v5.49A8.83,8.83,0,0,1,182.22,182.76Zm-49.93-21.35a7.05,7.05,0,0,0-7,7v5.49a7.05,7.05,0,0,0,7,7h49.93a7,7,0,0,0,7-7v-5.49a7,7,0,0,0-7-7Z"/><path class="cls-2" d="M143.48,172.09H124.36a.9.9,0,0,1,0-1.79h19.12a.9.9,0,0,1,0,1.79Z"/><path class="cls-30" d="M129.54,66.14,116.2,67.38S114.38,55.35,129.54,66.14Z"/><path class="cls-31" d="M128.22,59.26,114,64.58S119,55,128.22,59.26Z"/><path class="cls-31" d="M106.48,54.1l5.93,9S117.89,56.25,106.48,54.1Z"/><path class="cls-30" d="M110.08,50.36l3.71,12S117.57,54.25,110.08,50.36Z"/><path class="cls-30" d="M122.78,46.46l-2.2-2.6s-2.55,16.56-9.65,18.8,3.53,3.52,3.53,3.52S119.61,62,122.78,46.46Z"/><g class="cls-32"><path class="cls-33" d="M123.27,68.14s6.34,3.84,0,8.5c.34,6.74-4.6,6-4.6,6s-1.51,3.87-4.64,3.87c-2.62,4.72-5.16,3-5.16,3s-1.83,4.21-6,3.45c-3.54,5-7.38,2.21-7.38,2.21s-2.66,2.44-5,.93a2.71,2.71,0,0,1-.9-4s-3.78-.42-1.49-6c-2.77-3.13.7-6.35.7-6.35s-2.16-3.26,1.93-6.07a6.63,6.63,0,0,1,3.09-7s-.57-6.56,5.45-6.83c3.24-6.85,8-2.25,8-2.25s3.31.25,3.29,2.24c3.73-.87,3.72,2.3,3.72,2.3s3-1.48,2.69,1.92c3.31-1.57,2.73,1.84,2.73,1.84S123.86,63.83,123.27,68.14Z"/><path class="cls-34" d="M119.66,65.79s2.11,4.5-3.48,6.39c1.24,4.44-3.41,5.72-3.41,5.72s1.07,5-4.08,5.52c-1.34,6.47-7.16,3.89-7.16,3.89S99,93.25,95.85,90.52C94.73,97.71,89,95,89,95l4.39,9.77,18.53-3.82,18.43-13.18,4.84-10.82-2.72-5.26-9.31-8.37Z"/></g><ellipse class="cls-35" cx="111.31" cy="64.53" rx="1.44" ry="1.13" transform="translate(-7.4 114.14) rotate(-52.78)"/><ellipse class="cls-36" cx="107.76" cy="62.37" rx="1.44" ry="1.13" transform="translate(-7.09 110.46) rotate(-52.78)"/><ellipse class="cls-35" cx="108.86" cy="71.89" rx="1.44" ry="1.13" transform="matrix(0.6, -0.8, 0.8, 0.6, -14.23, 115.09)"/><ellipse class="cls-35" cx="113.19" cy="74.55" rx="1.44" ry="1.13" transform="translate(-14.64 119.59) rotate(-52.78)"/><ellipse class="cls-35" cx="116.63" cy="68.77" rx="1.44" ry="1.13" transform="translate(-8.68 120.05) rotate(-52.78)"/><ellipse class="cls-36" cx="104.2" cy="68.62" rx="1.44" ry="1.13" transform="translate(-13.47 110.09) rotate(-52.78)"/><ellipse class="cls-36" cx="100.06" cy="66.12" rx="1.44" ry="1.13" transform="translate(-13.12 105.81) rotate(-52.78)"/><ellipse class="cls-35" cx="97.37" cy="64.53" rx="1.43" ry="0.74" transform="translate(-6.42 118.13) rotate(-60.85)"/><ellipse class="cls-35" cx="96.58" cy="61.98" rx="1.44" ry="0.73" transform="translate(-14.72 89.94) rotate(-46.79)"/><ellipse class="cls-35" cx="101.51" cy="58.12" rx="1.44" ry="0.73" transform="matrix(0.65, -0.76, 0.76, 0.65, -8.59, 97.62)"/><ellipse class="cls-35" cx="92.59" cy="69.84" rx="1.43" ry="0.8" transform="translate(-14.02 115.48) rotate(-60.2)"/><ellipse class="cls-35" cx="89.41" cy="76.17" rx="1.43" ry="0.51" transform="translate(-19.67 119.71) rotate(-62.19)"/><ellipse class="cls-35" cx="88.58" cy="82.44" rx="1.43" ry="0.76" transform="translate(-26.72 119.17) rotate(-60.61)"/><ellipse class="cls-36" cx="96.47" cy="72" rx="1.44" ry="1.13" transform="translate(-19.22 105.27) rotate(-52.78)"/><ellipse class="cls-36" cx="100.23" cy="74.71" rx="1.44" ry="1.13" transform="matrix(0.6, -0.8, 0.8, 0.6, -19.89, 109.34)"/><ellipse class="cls-35" cx="104.84" cy="77.3" rx="1.44" ry="1.13" transform="translate(-20.13 114.03) rotate(-52.78)"/><ellipse class="cls-35" cx="110.2" cy="80.44" rx="1.44" ry="0.72" transform="translate(-22.54 111.99) rotate(-49.5)"/><ellipse class="cls-33" cx="117.37" cy="77.3" rx="1.44" ry="0.72" transform="translate(-17.64 116.34) rotate(-49.5)"/><ellipse class="cls-33" cx="120.38" cy="71.55" rx="1.44" ry="0.72" transform="translate(-12.21 116.62) rotate(-49.5)"/><ellipse class="cls-33" cx="115.2" cy="82.86" rx="1.44" ry="0.72" transform="translate(-22.62 116.64) rotate(-49.5)"/><ellipse class="cls-33" cx="110.9" cy="86.54" rx="1.44" ry="0.72" transform="translate(-26.93 114.66) rotate(-49.5)"/><ellipse class="cls-35" cx="105.65" cy="84.53" rx="1.44" ry="0.72" transform="translate(-27.24 109.96) rotate(-49.5)"/><ellipse class="cls-33" cx="104.33" cy="89.97" rx="1.39" ry="0.75" transform="translate(-32.78 76.58) rotate(-35.2)"/><ellipse class="cls-33" cx="99.18" cy="92.96" rx="1.39" ry="0.75" transform="translate(-35.45 74.16) rotate(-35.2)"/><ellipse class="cls-35" cx="98.18" cy="87.92" rx="1.44" ry="0.72" transform="translate(-32.44 105.47) rotate(-49.5)"/><ellipse class="cls-33" cx="120.17" cy="79.62" rx="1.44" ry="0.72" transform="translate(-18.42 119.28) rotate(-49.5)"/><ellipse class="cls-33" cx="123.17" cy="73.11" rx="1.44" ry="0.72" transform="translate(-12.42 119.28) rotate(-49.5)"/><ellipse class="cls-35" cx="99.97" cy="82.39" rx="1.44" ry="1.13" transform="translate(-26.11 112.16) rotate(-52.78)"/><ellipse class="cls-35" cx="91.91" cy="92.86" rx="1.44" ry="1.13" transform="translate(-37.63 109.88) rotate(-52.78)"/><ellipse class="cls-35" cx="89.44" cy="87.74" rx="1.44" ry="1.13" transform="translate(-34.53 105.89) rotate(-52.78)"/><ellipse class="cls-35" cx="92.87" cy="84.77" rx="1.44" ry="1.13" transform="translate(-30.81 107.45) rotate(-52.78)"/><ellipse class="cls-35" cx="95.45" cy="79.69" rx="1.44" ry="1.13" transform="matrix(0.6, -0.8, 0.8, 0.6, -25.75, 107.5)"/><ellipse class="cls-35" cx="91.9" cy="77.84" rx="1.44" ry="1.13" transform="translate(-25.67 103.94) rotate(-52.78)"/><ellipse class="cls-36" cx="104.37" cy="59.58" rx="1.44" ry="1.13" transform="translate(-6.21 106.65) rotate(-52.78)"/><path class="cls-2" d="M92.1,97.41A3.84,3.84,0,0,1,90,96.77a3.79,3.79,0,0,1-1.82-2.5,3.53,3.53,0,0,1,.17-1.79A3.45,3.45,0,0,1,87,91.21c-.73-1.24-.7-2.95.08-5.08a4.64,4.64,0,0,1-.48-4.86,7.4,7.4,0,0,1,1.13-1.79,5.14,5.14,0,0,1-.39-1.81,5.46,5.46,0,0,1,2.42-4.51,7.1,7.1,0,0,1,1.45-5.41,8.4,8.4,0,0,1,1.7-1.65,8.21,8.21,0,0,1,1.75-5.23,6,6,0,0,1,4-2c1.13-2.17,2.56-3.42,4.25-3.73a5.52,5.52,0,0,1,3.73.79l-.9-1.35a.89.89,0,0,1,.91-1.37,18.81,18.81,0,0,1,3.72,1.06l-1.13-3.66a.88.88,0,0,1,.28-1,.9.9,0,0,1,1-.11,8.8,8.8,0,0,1,5.1,7.21c2.9-5.4,4.09-13,4.11-13.06a.9.9,0,0,1,.63-.72.93.93,0,0,1,.93.28l2.2,2.6a.91.91,0,0,1,.2.76,67.75,67.75,0,0,1-3.2,11.13,10.83,10.83,0,0,1,8.13.68.89.89,0,0,1-.06,1.65L124,61.8a35.94,35.94,0,0,1,6.1,3.61.89.89,0,0,1-.43,1.62l-5.41.5a1.09,1.09,0,0,1,0,.18c.88.65,2.66,2.25,2.75,4.45.08,1.73-.87,3.38-2.83,4.91,0,2.38-.57,4.15-1.8,5.26a4.87,4.87,0,0,1-3.15,1.2c-.58,1.13-2.09,3.52-4.67,3.81a6.31,6.31,0,0,1-3.69,3.22,3.41,3.41,0,0,1-1.6,0A8.09,8.09,0,0,1,108,92.08a5.92,5.92,0,0,1-4.81,1.75,6.91,6.91,0,0,1-4.31,2.86,5.68,5.68,0,0,1-3.39-.53A6,6,0,0,1,92.1,97.41Zm-2.44-6.32a.88.88,0,0,1,.72.52.91.91,0,0,1-.11.9A2.14,2.14,0,0,0,89.9,94a2.08,2.08,0,0,0,1,1.3c1.72,1.12,3.87-.82,3.89-.84A.88.88,0,0,1,96,94.37a3.92,3.92,0,0,0,2.68.56,5.54,5.54,0,0,0,3.44-2.57A.9.9,0,0,1,103,92c3.43.62,5-2.78,5-2.93a.89.89,0,0,1,.58-.51.82.82,0,0,1,.74.14,1.57,1.57,0,0,0,1.14.11c.64-.16,1.64-.78,2.74-2.76a.91.91,0,0,1,.78-.46c2.47,0,3.8-3.27,3.81-3.31a.89.89,0,0,1,1-.55,3.26,3.26,0,0,0,2.39-.73c.89-.82,1.29-2.27,1.18-4.31a.89.89,0,0,1,.37-.77c1.7-1.24,2.53-2.48,2.48-3.68-.08-1.9-2.34-3.32-2.37-3.33a.9.9,0,0,1-.42-.88,4,4,0,0,0,0-1.14.88.88,0,0,1,.16-.7.93.93,0,0,1,.63-.36l3.79-.35a20,20,0,0,0-5.86-2.77.88.88,0,0,1-.69-.81A.9.9,0,0,1,121,61l4.6-1.72a8.33,8.33,0,0,0-6.4,1,.89.89,0,0,1-1.06-.09.9.9,0,0,1-.22-1,59.85,59.85,0,0,0,3.9-12.47l-.71-.84c-.69,3.4-2.48,10.57-5.9,14.72a.9.9,0,0,1-1.57-.75,7.53,7.53,0,0,0-2-7.28l1,3.3a.9.9,0,0,1-.34,1,.89.89,0,0,1-1,0,9.78,9.78,0,0,0-2.86-1.34l1.26,1.91a.89.89,0,0,1-1.07,1.32,6.17,6.17,0,0,0-1.5-.35.9.9,0,0,1-.55-.25,4.5,4.5,0,0,0-3.39-1.21c-1.22.22-2.29,1.3-3.19,3.2a.89.89,0,0,1-.76.51A4.5,4.5,0,0,0,96,62a6.81,6.81,0,0,0-1.29,4.46.89.89,0,0,1-.45.85,5.72,5.72,0,0,0-2.65,6,.9.9,0,0,1-.37.91,4.06,4.06,0,0,0-2.12,3.26,3.18,3.18,0,0,0,.43,1.59.89.89,0,0,1-.14,1.14A5.82,5.82,0,0,0,88.17,82a2.94,2.94,0,0,0,.56,3.35.91.91,0,0,1,.16.93c-.73,1.78-.87,3.15-.4,4A1.74,1.74,0,0,0,89.66,91.09Z"/></g></g></g></svg>