<svg id="Layer_1" data-name="Layer 1" xmlns="http://www.w3.org/2000/svg" xmlns:xlink="http://www.w3.org/1999/xlink" viewBox="0 0 1238.98 416.36"><defs><style>.cls-1{fill:none;}.cls-2{clip-path:url(#clip-path);}.cls-3{fill:#5b3a00;}.cls-4{fill:#995b30;}.cls-5{fill:#bc7840;}.cls-6{clip-path:url(#clip-path-2);}.cls-7{fill:#6d3e1d;}.cls-8{fill:#f2a266;}.cls-9{fill:#e89c5d;}.cls-10{clip-path:url(#clip-path-3);}.cls-11{fill:#ffbdbd;}.cls-12{fill:#ce8e8e;}.cls-13{fill:#cecece;}.cls-14{fill:#fff;}.cls-15{clip-path:url(#clip-path-4);}.cls-16{fill:#d6cebf;}.cls-17{clip-path:url(#clip-path-5);}.cls-18{fill:#086d00;}.cls-19{fill:#09a800;}.cls-20{clip-path:url(#clip-path-6);}.cls-21{fill:#992e2e;}.cls-22{fill:#ff2727;}.cls-23{fill:#ffea55;}.cls-24{fill:#f99;}.cls-25{fill:#bc6161;}.cls-26{fill:#e87777;}.cls-27{fill:#914343;}.cls-28{fill:#ffb6b6;}.cls-29{clip-path:url(#clip-path-7);}.cls-30{opacity:0.65;}.cls-31{fill:#6034e8;}.cls-32{opacity:0.4;}.cls-33{fill:#ad97ff;}.cls-34{clip-path:url(#clip-path-8);}.cls-35{clip-path:url(#clip-path-9);}.cls-36{clip-path:url(#clip-path-10);}.cls-37{fill:#3924b5;}.cls-38{fill:#9c85ff;}.cls-39{clip-path:url(#clip-path-11);}.cls-40{fill:#e8a600;}.cls-41{fill:#ffd550;}.cls-42{fill:#ba8000;}.cls-43{fill:#ffe5b8;}.cls-44{clip-path:url(#clip-path-12);}.cls-45{fill:#ce800f;}.cls-46{fill:#ccc200;}.cls-47{fill:#fffb71;}.cls-48{clip-path:url(#clip-path-13);}.cls-49{clip-path:url(#clip-path-14);}</style><clipPath id="clip-path"><rect class="cls-1" x="1.14" y="3.11" width="1236.7" height="413.25"/></clipPath><clipPath id="clip-path-2"><path class="cls-1" d="M977.52,171.28c5-6.28,9.91-12.58,15-18.67C1019,121,1066.39,97.52,1098.18,119.5c30.14,20.84,37,67.86,36,105.49-.74,28.48-13,52.61-27.61,75.46-21.42,33.38-49,60.24-78.81,84.53-13.95,11.37-28.66,21.66-43.09,32.34-4.14,3.07-8.62,3.28-13,.36-42-28.38-81-60.67-112.32-102.55-14.9-19.92-28-40.9-34.51-66-11.08-42.86-1.41-104.26,30.84-127.19,28.59-20.32,78-5,107.14,29.87C968,157.92,972.48,164.55,977.52,171.28Z"/></clipPath><clipPath id="clip-path-3"><path class="cls-1" d="M920.46,381.68c0-27.34,28.47-49.5,63.6-49.5s63.61,22.16,63.61,49.5Z"/></clipPath><clipPath id="clip-path-4"><path class="cls-1" d="M1162.58,199.35c-1.13-42.79-18.3-81.51-53.49-106.13a80,80,0,0,0-59.27-13.71h-9.62l0,0c-25.11.54-50.19,12.83-68.8,35.35q-3.14,3.8-6.2,7.67c-2.41-3.3-4.85-6.53-7.42-9.63C934.19,84.45,902.2,75.11,873.67,80V79c-19.93-1.29-40.41,5.43-56,16.65C780,122.75,768.44,177,768.44,229c0,0-28.13,95.53,19.46,95.53s28.75-43.71,30.73-89.81,50.72-42.62,45.93-2.23,13.89,72,43.72,44.57-8.22-38.87,7.58-65.14,73.08-27.57,58.32,36.53,9.54,69.55,25.9,69.55,32-26.57,28.39-69.55,54.89-77.68,54.89-32.57-28,51.31,3.47,82.79,51.56-14.57,50.57-33.81-.5-30.14,12.39-33.61,13.38,4,16-8.43C1167.58,214.33,1162.79,207.22,1162.58,199.35Z"/></clipPath><clipPath id="clip-path-5"><path class="cls-1" d="M883.41,51.92l7.88-21.2,5.55,15.49L916.37,38l-8,15.52,27.45-1.56L921,67l19.13,12-26.5,3.18A99.32,99.32,0,0,0,883.41,51.92Z"/></clipPath><clipPath id="clip-path-6"><path class="cls-1" d="M864.27,44.8c22.44.14,69.52,46.85,51.62,66.65s-87.28,30-104.25,12S831,44.59,864.27,44.8Z"/></clipPath><clipPath id="clip-path-7"><path class="cls-1" d="M390.76,198.6v64.65c0,15.36,9.38,29.51,40.84,29.51s34.89-17.95,34.89-25.14-18.74-64.17,27.85-64.17,38.87,50.11,38.87,67.08,8.2,42.84,29.53,42.84,36.64-14.49,36.64-58,66.71-34.92,66.71,0S727.5,287,727.5,260.83s29.11-33,56-44.06c20-8.27,0-29.69,0-44.85h-.24V101.34c0-4-13.23-13.55-23.21-13.55H413.7c-14,0-23.21,13.82-23.21,17.76Z"/></clipPath><clipPath id="clip-path-8"><path class="cls-1" d="M501.52,108.31s29.88-51.84,77.15-8.44C526.89,141.65,501.52,108.31,501.52,108.31Z"/></clipPath><clipPath id="clip-path-9"><path class="cls-1" d="M543,40.83s15.52,57.79-48.58,60.52C501.45,35.2,543,40.83,543,40.83Z"/></clipPath><clipPath id="clip-path-10"><circle class="cls-1" cx="498.91" cy="122.78" r="45.9"/></clipPath><clipPath id="clip-path-11"><path class="cls-1" d="M533.57,345.84c0,25.81,35.35,46.73,79,46.73s79-20.92,79-46.73Z"/></clipPath><clipPath id="clip-path-12"><path class="cls-1" d="M60.85,265.07c0,52.28,51,25.65,75,5.85s7.63-66,42.49-62-7.63,99.47,21.79,119.85,70.82,6.21,66.46-25.39-38.13-76.74-8.72-88.49,70.82-5.69,70.82,21.79S284,347.62,318.84,366.92s68.64-17.1,59.92-38.12S346.07,220.61,370,225s15.26,26.52,33.78,46,39.88,26.84,38.33,3.06S427,92.84,246.53,92.84,60.85,257.36,60.85,265.07Z"/></clipPath><clipPath id="clip-path-13"><ellipse class="cls-1" cx="265.99" cy="364.48" rx="22.96" ry="38.33"/></clipPath><clipPath id="clip-path-14"><path class="cls-1" d="M212,401.05c0-62.41,28.24-113,63.08-113s63.08,50.59,63.08,113Z"/></clipPath></defs><g class="cls-2"><path class="cls-3" d="M1106.35,104.73c-17.73-12.92-38.18-17.3-58-14H1039l0,0c-24.56.56-49.09,13.07-67.3,36-2,2.58-4.06,5.2-6.06,7.83-2.37-3.37-4.75-6.66-7.26-9.82-23-29-54.35-38.54-82.26-33.55v-1c-19.49-1.31-39.52,5.54-54.78,17-36.83,27.61-53.7,84.24-41,135.85,7.4,30.17,22.4,55.43,39.42,79.42,35.79,50.43,80.27,88.8,128.27,123a12.32,12.32,0,0,0,6.87,2.49h2l20.46-.76.33,0a13.69,13.69,0,0,0,5.61-2.72c16.47-12.86,33.27-25.26,49.2-38.94,34.06-29.25,65.55-61.59,90-101.78,16.74-27.5,30.68-56.56,31.53-90.85C1155.07,167.57,1140.78,129.82,1106.35,104.73Z"/><path class="cls-3" d="M956.92,453.91h-2.29a18.2,18.2,0,0,1-10.17-3.59c-26.85-19.11-49.53-37.39-69.33-55.89a446.21,446.21,0,0,1-60.35-68.48c-15.4-21.7-32.23-48.35-40.35-81.45a153.59,153.59,0,0,1,2.05-80.06,133.7,133.7,0,0,1,16.08-34.86,106.91,106.91,0,0,1,25.14-27.12C834.89,89.56,856.31,83,876.45,84.3l4.17.28a87.1,87.1,0,0,1,40.5,5.14c16.07,6.09,30.15,16.66,41.86,31.39.9,1.14,1.8,2.31,2.75,3.57l1.23-1.57a105.15,105.15,0,0,1,33.15-28,86.59,86.59,0,0,1,36.8-10.24l.13-.09h10.84a81,81,0,0,1,31.61,1,83.64,83.64,0,0,1,30.37,14.07h0a115.89,115.89,0,0,1,39.1,49c7.86,18.51,11.54,40.09,11,64.13-.92,37.26-16.9,68.32-32.4,93.8a366,366,0,0,1-42.08,55.89A542.63,542.63,0,0,1,1036.29,410c-11.83,10.17-24.28,19.74-36.32,29-4.3,3.31-8.75,6.73-13.1,10.12a19.2,19.2,0,0,1-8.1,3.86l-.4.08-.87.05Zm-2-11.93h1.83l20.06-.75a8.05,8.05,0,0,0,2.77-1.49c4.38-3.41,8.85-6.85,13.17-10.17,11.91-9.16,24.22-18.64,35.81-28.59a531.24,531.24,0,0,0,48.08-46.27,355.36,355.36,0,0,0,40.73-54.09c9.69-15.93,16.44-29.24,21.24-41.89a137.82,137.82,0,0,0,9.42-46c1.13-45.81-14.06-80.53-45.15-103.19h0a72.07,72.07,0,0,0-26.06-12.1,69.28,69.28,0,0,0-27.42-.8l-.49.08h-8.76l-1,0a74.57,74.57,0,0,0-33.38,8.93,93.18,93.18,0,0,0-29.38,24.84c-1.79,2.26-3.7,4.72-6,7.73l-4.94,6.48-4.68-6.67c-2.75-3.92-4.93-6.86-7.05-9.53-10.35-13-22.71-22.35-36.75-27.67a75,75,0,0,0-39.79-3.73l-7,1.25V96.06a73.59,73.59,0,0,0-21.21,3.58,81.73,81.73,0,0,0-24,12.35,95.31,95.31,0,0,0-22.33,24.12,121.45,121.45,0,0,0-14.62,31.75A142.29,142.29,0,0,0,786,241.65c7.64,31.16,23.74,56.6,38.49,77.39a434.83,434.83,0,0,0,58.76,66.67c19.42,18.14,41.7,36.09,68.11,54.88A6.63,6.63,0,0,0,954.88,442Z"/><path class="cls-4" d="M1085.86,104.29a79.43,79.43,0,0,0-20.51-10.83l1.05-4.21H1039l0,0c-24.56.56-49.09,13.08-67.3,36-5.81,7.33-11.37,14.92-17.12,22.48-5.76-8.11-10.9-16.09-16.7-23.39-11.75-14.79-25.64-24.52-40.13-29.84V89.75h-22.5a81,81,0,0,0-53.91,16c-36.83,27.61-53.7,84.24-41,135.85,7.4,30.17,22.4,55.44,39.42,79.42,35.79,50.43,80.27,89.3,128.27,123.47a12.4,12.4,0,0,0,6.87,2.49h0l22.49.5,4.37-18c10.24-7.9,20.42-15.87,30.27-24.33,34.06-29.25,65.55-61.59,90-101.78,16.74-27.5,30.69-56.56,31.53-90.85C1134.57,167.13,1120.28,129.38,1085.86,104.29Z"/><path class="cls-5" d="M975,148.21c5.75-7.56,11.31-15.15,17.13-22.47,30.24-38.12,77.91-47.47,114.22-21,34.43,25.1,48.72,62.84,47.6,108.15-.85,34.3-14.79,63.35-31.53,90.85-24.46,40.19-56,72.53-90,101.78-15.93,13.69-32.73,26.09-49.2,38.94-4.73,3.7-9.85,3.95-14.8.43-48-34.16-92.49-73-128.27-123.47-17-24-32-49.25-39.42-79.41-12.65-51.62,4.22-108.25,41-135.86C874.41,81.67,925,82.85,958.31,124.82,964.11,132.13,969.25,140.11,975,148.21Z"/><g class="cls-6"><rect class="cls-7" x="830.71" y="115.02" width="47.58" height="51.04" rx="4.51"/><rect class="cls-7" x="893.6" y="115.02" width="47.58" height="51.04" rx="4.51"/><rect class="cls-7" x="956.49" y="115.02" width="47.58" height="51.04" rx="4.51"/><rect class="cls-7" x="1019.38" y="115.02" width="47.58" height="51.04" rx="4.51"/><path class="cls-4" d="M868.77,123.54H830.7v38.07a4.5,4.5,0,0,0,4.5,4.51h38.08V128A4.5,4.5,0,0,0,868.77,123.54Z"/><path class="cls-4" d="M914.92,123.54H893.58v38.07a4.51,4.51,0,0,0,4.51,4.51h38.08v-29.2C936.17,134.43,917.41,123.54,914.92,123.54Z"/><path class="cls-4" d="M994.55,123.54H956.47v38.07a4.51,4.51,0,0,0,4.51,4.51h38.07V128A4.49,4.49,0,0,0,994.55,123.54Z"/><path class="cls-4" d="M1057.44,123.54h-38.08v38.07a4.51,4.51,0,0,0,4.51,4.51h38.07V128A4.49,4.49,0,0,0,1057.44,123.54Z"/><path class="cls-8" d="M869,170.47H835a8.8,8.8,0,0,1-8.79-8.79V126.75a1.83,1.83,0,0,1,3.66,0v34.93a5.13,5.13,0,0,0,5.13,5.13h34a1.83,1.83,0,0,1,0,3.66Z"/><path class="cls-8" d="M931.92,170.47h-34a8.79,8.79,0,0,1-8.78-8.79V126.75a1.83,1.83,0,1,1,3.65,0v34.93a5.13,5.13,0,0,0,5.13,5.13h34a1.83,1.83,0,1,1,0,3.66Z"/><path class="cls-8" d="M1057.5,170.47h-34a8.79,8.79,0,0,1-8.78-8.79V136.9a1.83,1.83,0,1,1,3.65,0v24.78a5.13,5.13,0,0,0,5.13,5.13h34a1.83,1.83,0,0,1,0,3.66Z"/><rect class="cls-7" x="1081.84" y="115.02" width="47.58" height="51.04" rx="4.51"/><path class="cls-4" d="M1092,123.54c-3.34-1.83-10.17,0-10.17,0v38.07a4.5,4.5,0,0,0,4.5,4.51h34C1117.71,151.72,1103.1,129.6,1092,123.54Z"/><path class="cls-8" d="M1120,170.47h-34a8.79,8.79,0,0,1-8.78-8.79V126.75a1.83,1.83,0,1,1,3.65,0v34.93a5.13,5.13,0,0,0,5.13,5.13h34a1.83,1.83,0,0,1,0,3.66Z"/><rect class="cls-7" x="893.6" y="240.39" width="47.58" height="51.04" rx="4.51"/><rect class="cls-7" x="830.71" y="240.39" width="47.58" height="51.04" rx="4.51"/><rect class="cls-7" x="830.71" y="177.51" width="47.58" height="51.04" rx="4.51"/><rect class="cls-7" x="893.6" y="177.51" width="47.58" height="51.04" rx="4.51"/><rect class="cls-7" x="1019.38" y="240.39" width="47.58" height="51.04" rx="4.51"/><rect class="cls-7" x="956.49" y="177.51" width="47.58" height="51.04" rx="4.51"/><rect class="cls-7" x="956.49" y="240.39" width="47.58" height="51.04" rx="4.51"/><rect class="cls-7" x="1019.38" y="177.51" width="47.58" height="51.04" rx="4.51"/><path class="cls-4" d="M898.09,291.49h38.08V253.42a4.51,4.51,0,0,0-4.51-4.51H893.58V287A4.5,4.5,0,0,0,898.09,291.49Z"/><path class="cls-4" d="M835.2,291.49h38.08V253.42a4.51,4.51,0,0,0-4.51-4.51H830.7V287A4.49,4.49,0,0,0,835.2,291.49Z"/><path class="cls-4" d="M868.77,186H830.7V224.1a4.49,4.49,0,0,0,4.5,4.5h38.08V190.53A4.51,4.51,0,0,0,868.77,186Z"/><path class="cls-4" d="M931.66,186H893.58V224.1a4.5,4.5,0,0,0,4.51,4.5h38.08V190.53A4.51,4.51,0,0,0,931.66,186Z"/><path class="cls-4" d="M1023.87,291.49h38.07V253.42a4.5,4.5,0,0,0-4.5-4.51h-38.08V287A4.5,4.5,0,0,0,1023.87,291.49Z"/><path class="cls-4" d="M994.55,186H956.47V224.1a4.5,4.5,0,0,0,4.51,4.5h38.07V190.53A4.5,4.5,0,0,0,994.55,186Z"/><path class="cls-4" d="M961,291.49h38.07V253.42a4.5,4.5,0,0,0-4.5-4.51H956.47V287A4.5,4.5,0,0,0,961,291.49Z"/><path class="cls-4" d="M1057.44,186h-38.08V224.1a4.5,4.5,0,0,0,4.51,4.5h38.07V190.53A4.5,4.5,0,0,0,1057.44,186Z"/><path class="cls-8" d="M869,233H835a8.79,8.79,0,0,1-8.79-8.78V189.24a1.83,1.83,0,0,1,3.66,0v34.93A5.13,5.13,0,0,0,835,229.3h34a1.83,1.83,0,0,1,0,3.65Z"/><path class="cls-8" d="M931.92,233h-34a8.79,8.79,0,0,1-8.78-8.78V189.24a1.83,1.83,0,1,1,3.65,0v34.93a5.13,5.13,0,0,0,5.13,5.13h34a1.83,1.83,0,1,1,0,3.65Z"/><path class="cls-8" d="M931.92,295.92h-34a8.79,8.79,0,0,1-8.78-8.78V252.21a1.83,1.83,0,1,1,3.65,0v34.93a5.13,5.13,0,0,0,5.13,5.13h34a1.83,1.83,0,1,1,0,3.65Z"/><path class="cls-8" d="M994.77,233h-34a8.79,8.79,0,0,1-8.79-8.78V189.24a1.83,1.83,0,0,1,3.66,0v34.93a5.13,5.13,0,0,0,5.13,5.13h34a1.83,1.83,0,0,1,0,3.65Z"/><path class="cls-8" d="M994.77,295.92h-34a8.79,8.79,0,0,1-8.79-8.78V252.21a1.83,1.83,0,0,1,3.66,0v34.93a5.13,5.13,0,0,0,5.13,5.13h34a1.83,1.83,0,0,1,0,3.65Z"/><path class="cls-8" d="M1057.5,233h-34a8.79,8.79,0,0,1-8.78-8.78V189.24a1.83,1.83,0,1,1,3.65,0v34.93a5.13,5.13,0,0,0,5.13,5.13h34a1.83,1.83,0,1,1,0,3.65Z"/><path class="cls-8" d="M1057.5,295.92h-34a8.79,8.79,0,0,1-8.78-8.78V252.21a1.83,1.83,0,1,1,3.65,0v34.93a5.13,5.13,0,0,0,5.13,5.13h34a1.83,1.83,0,1,1,0,3.65Z"/><rect class="cls-7" x="1081.84" y="240.39" width="47.58" height="51.04" rx="4.51"/><rect class="cls-7" x="1081.84" y="177.51" width="47.58" height="51.04" rx="4.51"/><path class="cls-4" d="M1086.33,291.49h22.35c7.4-9.93,15.73-30,15.73-30v-8a4.51,4.51,0,0,0-4.51-4.51h-38.07V287A4.49,4.49,0,0,0,1086.33,291.49Z"/><path class="cls-4" d="M1119.9,186h-38.07V224.1a4.49,4.49,0,0,0,4.5,4.5h38.08V190.53A4.51,4.51,0,0,0,1119.9,186Z"/><path class="cls-8" d="M1120,233h-34a8.79,8.79,0,0,1-8.78-8.78V189.24a1.83,1.83,0,1,1,3.65,0v34.93a5.13,5.13,0,0,0,5.13,5.13h34a1.83,1.83,0,1,1,0,3.65Z"/><path class="cls-8" d="M1104.75,295.92H1086a8.79,8.79,0,0,1-8.78-8.78V252.21a1.83,1.83,0,1,1,3.65,0v34.93a5.13,5.13,0,0,0,5.13,5.13h18.79a1.83,1.83,0,0,1,0,3.65Z"/><rect class="cls-7" x="893.6" y="366.52" width="47.58" height="51.04" rx="4.51"/><rect class="cls-7" x="830.71" y="366.52" width="47.58" height="51.04" rx="4.51"/><rect class="cls-7" x="830.71" y="303.63" width="47.58" height="51.04" rx="4.51"/><rect class="cls-7" x="893.6" y="303.63" width="47.58" height="51.04" rx="4.51"/><rect class="cls-7" x="1019.38" y="366.52" width="47.58" height="51.04" rx="4.51"/><rect class="cls-7" x="956.49" y="303.63" width="47.58" height="51.04" rx="4.51"/><rect class="cls-7" x="956.49" y="366.52" width="47.58" height="51.04" rx="4.51"/><rect class="cls-7" x="1019.38" y="303.63" width="47.58" height="51.04" rx="4.51"/><path class="cls-4" d="M898.09,417.62h38.08V379.54a4.51,4.51,0,0,0-4.51-4.5H893.58v38.07A4.51,4.51,0,0,0,898.09,417.62Z"/><path class="cls-4" d="M835.2,417.62h38.08V379.54a4.51,4.51,0,0,0-4.51-4.5H830.7v38.07A4.5,4.5,0,0,0,835.2,417.62Z"/><path class="cls-4" d="M868.77,312.15H830.7v38.07a4.5,4.5,0,0,0,4.5,4.51h38.08V316.66A4.51,4.51,0,0,0,868.77,312.15Z"/><path class="cls-4" d="M931.66,312.15H893.58v38.07a4.51,4.51,0,0,0,4.51,4.51h38.08V316.66A4.51,4.51,0,0,0,931.66,312.15Z"/><path class="cls-4" d="M1023.87,417.62h38.07V379.54a4.5,4.5,0,0,0-4.5-4.5h-38.08v38.07A4.51,4.51,0,0,0,1023.87,417.62Z"/><path class="cls-4" d="M994.55,312.15H956.47v38.07a4.51,4.51,0,0,0,4.51,4.51h38.07V316.66A4.5,4.5,0,0,0,994.55,312.15Z"/><path class="cls-4" d="M961,417.62h38.07V379.54a4.5,4.5,0,0,0-4.5-4.5H956.47v38.07A4.51,4.51,0,0,0,961,417.62Z"/><path class="cls-4" d="M1057.44,312.15h-38.08v38.07a4.51,4.51,0,0,0,4.51,4.51h38.07V316.66A4.5,4.5,0,0,0,1057.44,312.15Z"/><path class="cls-8" d="M869,359.08H835a8.79,8.79,0,0,1-8.79-8.78V315.36a1.83,1.83,0,0,1,3.66,0V350.3a5.13,5.13,0,0,0,5.13,5.13h34a1.83,1.83,0,0,1,0,3.65Z"/><path class="cls-8" d="M869,422.05H835a8.79,8.79,0,0,1-8.79-8.78V378.33a1.83,1.83,0,0,1,3.66,0v34.94a5.13,5.13,0,0,0,5.13,5.12h34a1.83,1.83,0,0,1,0,3.66Z"/><path class="cls-8" d="M931.92,359.08h-34a8.79,8.79,0,0,1-8.78-8.78V315.36a1.83,1.83,0,0,1,3.65,0V350.3a5.13,5.13,0,0,0,5.13,5.13h34a1.83,1.83,0,1,1,0,3.65Z"/><path class="cls-8" d="M931.92,422.05h-34a8.79,8.79,0,0,1-8.78-8.78V378.33a1.83,1.83,0,1,1,3.65,0v34.94a5.13,5.13,0,0,0,5.13,5.12h34a1.83,1.83,0,0,1,0,3.66Z"/><path class="cls-8" d="M994.77,359.08h-34A8.79,8.79,0,0,1,952,350.3V315.36a1.83,1.83,0,0,1,3.66,0V350.3a5.13,5.13,0,0,0,5.13,5.13h34a1.83,1.83,0,0,1,0,3.65Z"/><path class="cls-8" d="M1052.43,359.08H1023.5a8.79,8.79,0,0,1-8.78-8.78V315.36a1.83,1.83,0,0,1,3.65,0V350.3a5.13,5.13,0,0,0,5.13,5.13h28.93a1.83,1.83,0,0,1,0,3.65Z"/><rect class="cls-7" x="1081.84" y="366.52" width="47.58" height="51.04" rx="4.51"/><rect class="cls-7" x="1081.84" y="303.63" width="47.58" height="51.04" rx="4.51"/><path class="cls-4" d="M1086.33,417.62h38.08V379.54a4.51,4.51,0,0,0-4.51-4.5h-38.07v38.07A4.5,4.5,0,0,0,1086.33,417.62Z"/><path class="cls-4" d="M1119.9,312.15h-38.07v38.07a4.5,4.5,0,0,0,4.5,4.51h38.08V316.66A4.51,4.51,0,0,0,1119.9,312.15Z"/><path class="cls-8" d="M1120,422.05h-34a8.79,8.79,0,0,1-8.78-8.78V378.33a1.83,1.83,0,1,1,3.65,0v34.94a5.13,5.13,0,0,0,5.13,5.12h34a1.83,1.83,0,0,1,0,3.66Z"/></g><path class="cls-9" d="M869.85,295.82H842.2a1.89,1.89,0,0,1-1.57-.83c-7.18-10.42-14-26.77-14.27-27.46a1.83,1.83,0,0,1-.14-.73V255.18a1.9,1.9,0,1,1,3.8,0v11.24c1,2.36,7,16.29,13.18,25.59h26.65a1.91,1.91,0,0,1,0,3.81Z"/><path class="cls-9" d="M871,335.74a1.91,1.91,0,0,1-1.5-.73l-13.91-17.69a1.9,1.9,0,1,1,3-2.35l13.91,17.69a1.9,1.9,0,0,1-.31,2.67A1.88,1.88,0,0,1,871,335.74Z"/><path class="cls-9" d="M933.32,394.61a1.89,1.89,0,0,1-1.21-.43l-18-14.76a1.9,1.9,0,1,1,2.42-2.94l17.95,14.76a1.9,1.9,0,0,1-1.2,3.37Z"/><path class="cls-9" d="M984.81,421.92H970.6a1.87,1.87,0,0,1-1.1-.35L953.18,410a1.87,1.87,0,0,1-.8-1.55v-29.3a1.9,1.9,0,0,1,3.8,0v28.32l15,10.65h13l12.61-9.32a1.9,1.9,0,1,1,2.26,3.05l-13.11,9.7A1.93,1.93,0,0,1,984.81,421.92Z"/><path class="cls-9" d="M1017.12,398.5a2,2,0,0,1-.82-.18,1.92,1.92,0,0,1-1.08-1.72V378.09a1.9,1.9,0,0,1,3.8,0v14.5l18.6-15.17a1.9,1.9,0,1,1,2.4,2.95l-21.7,17.7A1.9,1.9,0,0,1,1017.12,398.5Z"/><path class="cls-9" d="M1079.47,340.32a1.9,1.9,0,0,1-1.9-1.9v-22a1.9,1.9,0,1,1,3.8,0v18c2.69-2.61,7.61-8,15.86-19.15a1.9,1.9,0,0,1,3,2.27c-14.55,19.58-19.25,22.3-20,22.64A1.82,1.82,0,0,1,1079.47,340.32Z"/><path class="cls-9" d="M966.18,170.32h-5a8.76,8.76,0,0,1-8.75-8.75V153a1.9,1.9,0,0,1,3.8,0v8.58a5,5,0,0,0,5,5h5a1.9,1.9,0,1,1,0,3.8Z"/><path class="cls-9" d="M997.16,170.23H982.62a1.91,1.91,0,1,1,0-3.81h14.54a1.91,1.91,0,0,1,0,3.81Z"/><path class="cls-7" d="M956.47,144.81s6.13,5.46,17.21,21.25h-3.84s-9.6-12.85-13.37-17.37Z"/><g class="cls-10"><path class="cls-11" d="M920.46,381.68c0-27.34,28.47-49.5,63.6-49.5s63.61,22.16,63.61,49.5Z"/><path class="cls-12" d="M1059.06,382.66s-42.68-12.52-71.77-12.68c-17.94-.11-71.76,0-71.76,0V350.15h143.53Z"/><rect class="cls-13" x="918.5" y="326.08" width="126.83" height="37.46"/><path class="cls-14" d="M899.38,363.69c0-16.68,28.47-30.2,63.6-30.2s63.61,13.52,63.61,30.2Z"/></g><path class="cls-3" d="M1040.46,365.82H927a2.29,2.29,0,0,1,0-4.57h113.44a2.29,2.29,0,1,1,0,4.57Z"/><path class="cls-3" d="M953.11,365.82a2.28,2.28,0,0,1-2.28-2.29v-25.1a2.28,2.28,0,1,1,4.56,0v25.1A2.28,2.28,0,0,1,953.11,365.82Z"/><path class="cls-3" d="M1047.67,384H920.46a2.29,2.29,0,0,1-2.28-2.29c0-13.94,6.92-27,19.51-36.8,12.41-9.66,28.88-15,46.37-15s34,5.32,46.38,15c12.58,9.79,19.51,22.86,19.51,36.8A2.29,2.29,0,0,1,1047.67,384ZM922.81,379.4h122.5c-1.55-25-28.43-44.94-61.25-44.94S924.36,354.42,922.81,379.4Z"/><path class="cls-3" d="M1015.32,365.72a2.28,2.28,0,0,1-2.28-2.28V340.19a2.28,2.28,0,1,1,4.56,0v23.25A2.28,2.28,0,0,1,1015.32,365.72Z"/><path class="cls-3" d="M984.06,365.82a2.28,2.28,0,0,1-2.28-2.29v-30a2.28,2.28,0,0,1,4.56,0v30A2.28,2.28,0,0,1,984.06,365.82Z"/><g class="cls-15"><rect class="cls-14" x="719.16" y="22.35" width="518.55" height="369.82"/><path class="cls-16" d="M754.65,41.52V345.58H1209V41.52Zm407.13,167c-2.52,11.92-3,4.77-15.37,8.1s-12.86,13.83-11.91,32.32-18.33,62.76-48.57,32.5-3.34-36.22-3.34-79.59-56.19-10-52.72,31.31S1018.31,300,1002.59,300s-39.05-5.25-24.87-66.87-40.85-60.38-56-35.12,21.37,36.22-7.28,62.62-46.59-4-42-42.84-42.22-42.18-44.12,2.14,16.19,86.34-29.53,86.34-18.69-91.84-18.69-91.84c0-50,11.12-102.12,47.29-128.17,15-10.78,34.65-17.24,53.79-16v1c27.41-4.7,58.14,4.27,80.77,31.66,2.47,3,4.81,6.08,7.13,9.26,2-2.48,4-5,6-7.38,17.87-21.65,42-33.46,66.08-34l0,0h9.23a76.74,76.74,0,0,1,56.94,13.18c33.8,23.67,50.29,60.89,51.39,102C1158.9,193.5,1163.5,200.34,1161.78,208.48Z"/></g><path class="cls-3" d="M787.9,326.79c-9.31,0-16.6-3.43-21.66-10.2-7.81-10.45-10.16-28.54-7-53.78a248.85,248.85,0,0,1,6.9-34.15c0-29,3.59-54.75,10.6-76.38,8.42-26,21.73-45.64,39.57-58.47,16.83-12.11,37.75-18.33,57.41-17.09,20.08,0,38.14,3.46,53.66,10.25,13.86,6.06,25,14.58,32.21,24.63,1.19,1.67,2.45,3.25,3.79,4.94l1.82,2.3c1.6-2,3-3.75,4.39-5.41a102.65,102.65,0,0,1,32.69-26.49,87.34,87.34,0,0,1,37.13-9.67l.06,0h10.15a82.34,82.34,0,0,1,31.11.92,83.49,83.49,0,0,1,29.65,13.2,122.35,122.35,0,0,1,40.26,47.12c8.83,18.12,13.61,38.58,14.21,60.82a37,37,0,0,0,1.7,8.85c1.29,4.71,2.63,9.57,1.45,15.13-.84,4-1.54,6.43-2.84,7.84-1.6,1.74-3.63,1.6-5.59,1.47a25.2,25.2,0,0,0-9.21.85c-11,3-11.71,11.81-10.7,31.3.35,6.93-1.79,16.42-5.6,24.77-4.55,10-10.92,17.18-17.93,20.3a21,21,0,0,1-14.54,1c-5.39-1.5-10.9-5.05-16.39-10.54-9.58-9.58-14.33-17.37-15.39-25.26-1-7.37,1.36-14.11,4.09-21.92,3.19-9.15,7.16-20.53,7.16-37.22,0-9-2.44-15.07-7-17.56-4.85-2.62-12.27-1.23-19.85,3.73-12.47,8.17-25.13,26.11-23.44,46.21,2.32,27.61-3.15,51.55-14.62,64-4.82,5.23-10.37,8-16,8-7.42,0-18.1-1-25.24-10-4.18-5.26-6.64-12.69-7.31-22.08-.77-10.64.73-24.18,4.43-40.27,3.15-13.7,3.14-25,0-33.73-2.62-7.16-7.45-12.34-14-15-13.62-5.5-32.38,1-40.13,13.86-6.45,10.73-3.15,18.62.34,27,2.27,5.43,4.62,11,4.15,17.39-.53,7.08-4.61,14-12.48,21.29-14.26,13.13-24.72,12.07-31,8.88-13-6.66-19.7-28.92-16.56-55.39,1.36-11.46-1.78-20.81-8.6-25.64a17.23,17.23,0,0,0-17.78-1.26c-4.22,2.07-14.13,9.09-15,29.49-.49,11.34.28,22.39,1,33.08,1.49,21.12,2.77,39.36-7.06,49.9C809.24,323.85,800.41,326.79,787.9,326.79ZM868.71,81.13a81.94,81.94,0,0,0-24,3.7A88.87,88.87,0,0,0,819,97.51c-17,12.26-29.78,31.16-37.89,56.18-6.89,21.25-10.38,46.58-10.38,75.29v.33l-.1.32c-.18.61-17.8,61.41-.73,84.23,4.21,5.63,10.1,8.37,18,8.37,11.17,0,18.91-2.47,23.65-7.56,8.48-9.1,7.26-26.42,5.85-46.47-.76-10.82-1.54-22-1-33.6,1-22.85,12.61-31,17.57-33.39a21.71,21.71,0,0,1,22.42,1.63c8.23,5.83,12,16.73,10.49,29.9-2.86,24.2,2.94,45.09,14.1,50.79,7.13,3.64,16.05.81,25.81-8.17,15.34-14.13,11.57-23.13,7.21-33.55-3.6-8.62-7.69-18.38,0-31.09,4.24-7.06,11.63-12.83,20.27-15.81,8.8-3,17.85-3,25.48.07s13.48,9.23,16.56,17.64c3.48,9.53,3.54,21.75.19,36.32-6.63,28.8-6,48.48,2,58.48,5.84,7.34,14.65,8.28,21.67,8.28,4.37,0,8.76-2.25,12.68-6.52,4.85-5.27,8.69-13.22,11.09-23,2.73-11,3.51-23.68,2.35-37.57a52.67,52.67,0,0,1,6.77-29.87,58.87,58.87,0,0,1,18.72-20.54c9.14-6,18.08-7.41,24.52-3.93,4.3,2.33,9.43,8,9.43,21.58,0,17.46-4.11,29.25-7.41,38.73-2.64,7.55-4.72,13.52-3.88,19.8.92,6.84,5.27,13.82,14.1,22.65,9.22,9.22,17.92,12.11,25.84,8.59,6-2.67,11.55-9.07,15.64-18,3.47-7.6,5.51-16.49,5.19-22.64-.55-10.62-.55-17.86,1.08-23.47,1.92-6.63,6-10.59,13-12.46a29.51,29.51,0,0,1,10.71-1,8,8,0,0,0,1.9,0c.29-.23.84-1.41,1.75-5.71.94-4.48-.19-8.61-1.39-13a41.05,41.05,0,0,1-1.87-9.94c-.57-21.58-5.2-41.41-13.75-58.94a117.71,117.71,0,0,0-38.77-45.38,78.68,78.68,0,0,0-28-12.48,77.73,77.73,0,0,0-29.57-.84l-.18,0h-9.78A82.68,82.68,0,0,0,1004.37,91a98.12,98.12,0,0,0-31.24,25.33c-1.85,2.24-3.81,4.67-6.17,7.64l-1.86,2.35-1.77-2.42c-1.13-1.54-2.34-3.06-3.51-4.54-1.31-1.65-2.66-3.35-3.92-5.11-6.74-9.38-17.22-17.37-30.33-23.11-15-6.54-32.42-9.86-51.9-9.86h-.15C871.92,81.18,870.32,81.13,868.71,81.13Z"/><path class="cls-14" d="M864.19,272.1a42.12,42.12,0,1,1,84.24,0Z"/><path class="cls-3" d="M950.71,274.38H861.9V272.1a44.41,44.41,0,1,1,88.81,0Zm-84.18-4.57h79.55a39.84,39.84,0,0,0-79.55,0Z"/><path class="cls-14" d="M1015.52,272.1a42.13,42.13,0,1,1,84.25,0Z"/><path class="cls-3" d="M1102.05,274.38h-88.81V272.1a44.41,44.41,0,1,1,88.81,0Zm-84.18-4.57h79.55a39.84,39.84,0,0,0-79.55,0Z"/><circle class="cls-3" cx="906.19" cy="252.07" r="20.41"/><circle class="cls-3" cx="1057.08" cy="252.07" r="20.41"/><circle class="cls-14" cx="901.86" cy="243.61" r="5.44"/><circle class="cls-14" cx="1051.64" cy="243.61" r="5.44"/><g class="cls-17"><path class="cls-18" d="M883.41,51.92l7.89-21.2,5.54,15.49L916.37,38l-8,15.52L935.81,52,921,67l19.14,12-26.51,3.18A99.21,99.21,0,0,0,883.41,51.92Z"/><path class="cls-19" d="M878.11,45.47,886,24.27l7.75,26.36,17.33-19.1-9.29,24.94,29.58-8.76L913.46,66l21.41,6.63-26.51,3.18A99.21,99.21,0,0,0,878.11,45.47Z"/></g><g class="cls-20"><path class="cls-21" d="M864.27,44.8c22.44.14,69.52,46.85,51.62,66.65s-87.28,30-104.25,12S831,44.59,864.27,44.8Z"/><path class="cls-22" d="M869.91,34.92c22.44.14,69.52,46.85,51.63,66.65s-87.28,30-104.26,12S836.59,34.71,869.91,34.92Z"/></g><path class="cls-3" d="M874.06,45.31a.38.38,0,0,0,0-.76.38.38,0,0,0,0,.76Z"/><path class="cls-3" d="M846,135.08c-10.38,0-27.8-1.41-36-10.12-6.71-7.14-6.6-20.3.3-36.1,9.83-22.5,32-46.34,53.81-46.34h.19c8,0,19.07,5.4,30.28,14.69s20,20.25,24.46,30.35c4.62,10.48,4.12,19.28-1.43,25.42s-16.18,11.8-29.9,15.9a151.49,151.49,0,0,1-40.64,6.19Zm18.14-88c-19.15,0-40.25,22.13-49.62,43.6-6.05,13.85-6.48,25.49-1.17,31.16s17.61,8.82,33.71,8.67a148.72,148.72,0,0,0,39.38-6c12.93-3.86,22.81-9,27.81-14.58,3-3.28,5.49-9.51.64-20.52-4.11-9.33-12.78-20.05-23.19-28.68s-20.5-13.59-27.4-13.63Z"/><path class="cls-3" d="M912.43,84.68l-.75-1.31a97.75,97.75,0,0,0-29.5-29.53l-1.55-1,10.71-28.8,6.83,19.12,23.12-9.74L912.22,51l29.34-1.67L924.65,66.61l22.19,13.94ZM886.19,51a102.55,102.55,0,0,1,28.65,28.78l18.65-2.24L917.42,67.46l12.64-12.9L904.5,56l7-13.48-16,6.72-4.25-11.87Z"/><ellipse class="cls-23" cx="846.77" cy="85.29" rx="4.07" ry="2.52" transform="translate(14.15 261.45) rotate(-17.7)"/><ellipse class="cls-23" cx="887.31" cy="67.06" rx="4.07" ry="2.52" transform="translate(21.61 272.91) rotate(-17.7)"/><ellipse class="cls-23" cx="853.15" cy="75.03" rx="4.07" ry="2.52" transform="translate(17.57 262.9) rotate(-17.7)"/><ellipse class="cls-23" cx="868.69" cy="70.67" rx="4.07" ry="2.52" transform="matrix(0.95, -0.3, 0.3, 0.95, 19.63, 267.42)"/><ellipse class="cls-23" cx="897.79" cy="79.27" rx="4.07" ry="2.52" transform="translate(18.39 276.68) rotate(-17.7)"/><ellipse class="cls-23" cx="883.49" cy="82.23" rx="4.07" ry="2.52" transform="translate(16.82 272.47) rotate(-17.7)"/><ellipse class="cls-23" cx="846.77" cy="64.64" rx="4.07" ry="2.52" transform="translate(20.43 260.48) rotate(-17.7)"/><ellipse class="cls-23" cx="840.46" cy="96.54" rx="4.07" ry="2.52" transform="translate(10.43 260.07) rotate(-17.7)"/><ellipse class="cls-23" cx="859.31" cy="98.22" rx="4.07" ry="2.52" transform="translate(10.81 265.87) rotate(-17.7)"/><ellipse class="cls-23" cx="850.73" cy="109.1" rx="4.07" ry="2.52" transform="translate(7.09 263.78) rotate(-17.7)"/><ellipse class="cls-23" cx="867.39" cy="110.83" rx="4.07" ry="2.52" transform="translate(7.36 268.93) rotate(-17.7)"/><ellipse class="cls-23" cx="835.24" cy="122.4" rx="4.07" ry="2.52" transform="translate(2.32 259.7) rotate(-17.7)"/><ellipse class="cls-23" cx="851.91" cy="124.12" rx="4.07" ry="2.52" transform="translate(2.59 264.85) rotate(-17.7)"/><ellipse class="cls-23" cx="898.24" cy="96.54" rx="4.07" ry="2.52" transform="translate(13.16 277.63) rotate(-17.7)"/><ellipse class="cls-23" cx="874.14" cy="120.47" rx="4.07" ry="2.52" transform="translate(4.75 271.44) rotate(-17.7)"/><ellipse class="cls-23" cx="874.14" cy="92.43" rx="4.07" ry="2.52" transform="translate(13.27 270.11) rotate(-17.7)"/><ellipse class="cls-23" cx="867.39" cy="82.27" rx="4.07" ry="2.52" transform="translate(16.04 267.58) rotate(-17.7)"/><ellipse class="cls-23" cx="881" cy="103.84" rx="4.07" ry="2.52" transform="translate(10.13 272.74) rotate(-17.7)"/><ellipse class="cls-23" cx="891.88" cy="111.27" rx="4.07" ry="2.52" transform="translate(8.38 276.4) rotate(-17.7)"/><ellipse class="cls-23" cx="905.49" cy="104.28" rx="4.07" ry="2.52" transform="translate(11.15 280.2) rotate(-17.7)"/><ellipse class="cls-23" cx="828.31" cy="85.89" rx="4.07" ry="2.52" transform="translate(13.09 255.87) rotate(-17.7)"/><ellipse class="cls-23" cx="835.58" cy="75.03" rx="4.07" ry="2.52" transform="translate(16.74 257.56) rotate(-17.7)"/><ellipse class="cls-23" cx="825.07" cy="98.22" rx="4.07" ry="2.52" transform="translate(9.19 255.47) rotate(-17.7)"/><ellipse class="cls-23" cx="835.58" cy="110.27" rx="4.07" ry="2.52" transform="translate(6.02 259.23) rotate(-17.7)"/><ellipse class="cls-23" cx="819.24" cy="112.57" rx="4.07" ry="2.52" transform="translate(4.55 254.37) rotate(-17.7)"/><ellipse class="cls-24" cx="866.67" cy="58.39" rx="7.71" ry="13.42" transform="translate(569.94 874.77) rotate(-73.88)"/><ellipse class="cls-23" cx="859.31" cy="56.26" rx="4.07" ry="2.52" transform="translate(23.57 263.89) rotate(-17.7)"/><ellipse class="cls-23" cx="874.67" cy="58.39" rx="4.07" ry="2.52" transform="translate(23.65 268.66) rotate(-17.7)"/><path class="cls-3" d="M755.93,95.69H416.41A17.32,17.32,0,0,0,399.14,113v317.9a17.32,17.32,0,0,0,17.27,17.27H755.93a17.32,17.32,0,0,0,17.28-17.27V113A17.32,17.32,0,0,0,755.93,95.69Z"/><path class="cls-3" d="M755.93,454.09H416.41a23.26,23.26,0,0,1-23.23-23.23V113a23.26,23.26,0,0,1,23.23-23.23H755.93A23.26,23.26,0,0,1,779.17,113v317.9A23.26,23.26,0,0,1,755.93,454.09ZM416.41,101.65A11.32,11.32,0,0,0,405.1,113v317.9a11.32,11.32,0,0,0,11.31,11.31H755.93a11.33,11.33,0,0,0,11.32-11.31V113a11.33,11.33,0,0,0-11.32-11.31Z"/><rect class="cls-25" x="399.14" y="95.69" width="352.44" height="352.44" rx="17.27"/><rect class="cls-26" x="420.77" y="95.69" width="352.44" height="352.44" rx="17.27"/><rect class="cls-27" x="447.81" y="121.14" width="47.59" height="51.06" rx="4.51"/><rect class="cls-27" x="510.71" y="121.14" width="47.59" height="51.06" rx="4.51"/><rect class="cls-27" x="573.62" y="121.14" width="47.59" height="51.06" rx="4.51"/><rect class="cls-27" x="636.53" y="121.14" width="47.59" height="51.06" rx="4.51"/><path class="cls-25" d="M485.88,129.66H447.79v38.09a4.51,4.51,0,0,0,4.51,4.51h38.09V134.17A4.51,4.51,0,0,0,485.88,129.66Z"/><path class="cls-25" d="M548.79,129.66H510.7v38.09a4.51,4.51,0,0,0,4.51,4.51h38.08V134.17A4.5,4.5,0,0,0,548.79,129.66Z"/><path class="cls-25" d="M611.69,129.66H573.61v38.09a4.51,4.51,0,0,0,4.51,4.51H616.2V134.17A4.51,4.51,0,0,0,611.69,129.66Z"/><path class="cls-25" d="M674.6,129.66H636.52v38.09a4.5,4.5,0,0,0,4.5,4.51h38.09V134.17A4.51,4.51,0,0,0,674.6,129.66Z"/><path class="cls-28" d="M486.11,176.61h-34a8.8,8.8,0,0,1-8.79-8.79V132.88a1.83,1.83,0,0,1,3.66,0v34.94A5.13,5.13,0,0,0,452.1,173h34a1.83,1.83,0,0,1,0,3.66Z"/><path class="cls-28" d="M549.05,176.61H515a8.8,8.8,0,0,1-8.79-8.79V132.88a1.83,1.83,0,0,1,3.66,0v34.94A5.13,5.13,0,0,0,515,173h34a1.83,1.83,0,1,1,0,3.66Z"/><path class="cls-28" d="M611.91,176.61h-34a8.79,8.79,0,0,1-8.78-8.79V132.88a1.83,1.83,0,1,1,3.65,0v34.94A5.13,5.13,0,0,0,577.9,173h34a1.83,1.83,0,1,1,0,3.66Z"/><path class="cls-28" d="M674.66,176.61h-34a8.79,8.79,0,0,1-8.78-8.79V132.88a1.83,1.83,0,1,1,3.65,0v34.94a5.13,5.13,0,0,0,5.13,5.13h34a1.83,1.83,0,1,1,0,3.66Z"/><rect class="cls-27" x="699.01" y="121.14" width="47.59" height="51.06" rx="4.51"/><path class="cls-25" d="M737.08,129.66H699v38.09a4.5,4.5,0,0,0,4.5,4.51h38.09V134.17A4.51,4.51,0,0,0,737.08,129.66Z"/><path class="cls-28" d="M737.14,176.61h-34a8.79,8.79,0,0,1-8.78-8.79V132.88a1.83,1.83,0,1,1,3.65,0v34.94a5.13,5.13,0,0,0,5.13,5.13h34a1.83,1.83,0,1,1,0,3.66Z"/><rect class="cls-27" x="510.71" y="246.56" width="47.59" height="51.06" rx="4.51"/><rect class="cls-27" x="447.81" y="246.56" width="47.59" height="51.06" rx="4.51"/><rect class="cls-27" x="447.81" y="183.65" width="47.59" height="51.06" rx="4.51"/><rect class="cls-27" x="510.71" y="183.65" width="47.59" height="51.06" rx="4.51"/><rect class="cls-27" x="636.53" y="246.56" width="47.59" height="51.06" rx="4.51"/><rect class="cls-27" x="573.62" y="183.65" width="47.59" height="51.06" rx="4.51"/><rect class="cls-27" x="573.62" y="246.56" width="47.59" height="51.06" rx="4.51"/><rect class="cls-27" x="636.53" y="183.65" width="47.59" height="51.06" rx="4.51"/><path class="cls-25" d="M515.21,297.67h38.08V259.58a4.49,4.49,0,0,0-4.5-4.5H510.7v38.08A4.51,4.51,0,0,0,515.21,297.67Z"/><path class="cls-25" d="M452.3,297.67h38.09V259.58a4.5,4.5,0,0,0-4.51-4.5H447.79v38.08A4.51,4.51,0,0,0,452.3,297.67Z"/><path class="cls-25" d="M485.88,192.17H447.79v38.08a4.51,4.51,0,0,0,4.51,4.51h38.09V196.68A4.51,4.51,0,0,0,485.88,192.17Z"/><path class="cls-25" d="M548.79,192.17H510.7v38.08a4.51,4.51,0,0,0,4.51,4.51h38.08V196.68A4.5,4.5,0,0,0,548.79,192.17Z"/><path class="cls-25" d="M641,297.67h38.09V259.58a4.5,4.5,0,0,0-4.51-4.5H636.52v38.08A4.5,4.5,0,0,0,641,297.67Z"/><path class="cls-25" d="M611.69,192.17H573.61v38.08a4.51,4.51,0,0,0,4.51,4.51H616.2V196.68A4.51,4.51,0,0,0,611.69,192.17Z"/><path class="cls-25" d="M578.12,297.67H616.2V259.58a4.5,4.5,0,0,0-4.51-4.5H573.61v38.08A4.51,4.51,0,0,0,578.12,297.67Z"/><path class="cls-25" d="M674.6,192.17H636.52v38.08a4.5,4.5,0,0,0,4.5,4.51h38.09V196.68A4.51,4.51,0,0,0,674.6,192.17Z"/><path class="cls-28" d="M486.11,239.11h-34a8.79,8.79,0,0,1-8.79-8.78v-35a1.83,1.83,0,0,1,3.66,0v35a5.13,5.13,0,0,0,5.13,5.13h34a1.83,1.83,0,0,1,0,3.65Z"/><path class="cls-28" d="M486.11,302.1h-34a8.8,8.8,0,0,1-8.79-8.79V258.37a1.83,1.83,0,0,1,3.66,0v34.94a5.13,5.13,0,0,0,5.13,5.13h34a1.83,1.83,0,0,1,0,3.66Z"/><path class="cls-28" d="M549.05,239.11H515a8.79,8.79,0,0,1-8.79-8.78v-35a1.83,1.83,0,0,1,3.66,0v35a5.13,5.13,0,0,0,5.13,5.13h34a1.83,1.83,0,1,1,0,3.65Z"/><path class="cls-28" d="M549.05,302.1H515a8.8,8.8,0,0,1-8.79-8.79V258.37a1.83,1.83,0,0,1,3.66,0v34.94a5.13,5.13,0,0,0,5.13,5.13h34a1.83,1.83,0,1,1,0,3.66Z"/><path class="cls-28" d="M611.91,239.11h-34a8.79,8.79,0,0,1-8.78-8.78v-35a1.83,1.83,0,0,1,3.65,0v35a5.13,5.13,0,0,0,5.13,5.13h34a1.83,1.83,0,1,1,0,3.65Z"/><path class="cls-28" d="M611.91,302.1h-34a8.79,8.79,0,0,1-8.78-8.79V258.37a1.83,1.83,0,1,1,3.65,0v34.94a5.13,5.13,0,0,0,5.13,5.13h34a1.83,1.83,0,1,1,0,3.66Z"/><path class="cls-28" d="M674.66,239.11h-34a8.79,8.79,0,0,1-8.78-8.78v-35a1.83,1.83,0,0,1,3.65,0v35a5.13,5.13,0,0,0,5.13,5.13h34a1.83,1.83,0,1,1,0,3.65Z"/><path class="cls-28" d="M674.66,302.1h-34a8.79,8.79,0,0,1-8.78-8.79V258.37a1.83,1.83,0,1,1,3.65,0v34.94a5.13,5.13,0,0,0,5.13,5.13h34a1.83,1.83,0,1,1,0,3.66Z"/><rect class="cls-27" x="699.01" y="246.56" width="47.59" height="51.06" rx="4.51"/><rect class="cls-27" x="699.01" y="183.65" width="47.59" height="51.06" rx="4.51"/><path class="cls-25" d="M703.5,297.67h38.09V259.58a4.5,4.5,0,0,0-4.51-4.5H699v38.08A4.5,4.5,0,0,0,703.5,297.67Z"/><path class="cls-25" d="M737.08,192.17H699v38.08a4.5,4.5,0,0,0,4.5,4.51h38.09V196.68A4.51,4.51,0,0,0,737.08,192.17Z"/><path class="cls-28" d="M737.14,239.11h-34a8.79,8.79,0,0,1-8.78-8.78v-35a1.83,1.83,0,0,1,3.65,0v35a5.13,5.13,0,0,0,5.13,5.13h34a1.83,1.83,0,1,1,0,3.65Z"/><path class="cls-28" d="M737.14,302.1h-34a8.79,8.79,0,0,1-8.78-8.79V258.37a1.83,1.83,0,1,1,3.65,0v34.94a5.13,5.13,0,0,0,5.13,5.13h34a1.83,1.83,0,1,1,0,3.66Z"/><rect class="cls-27" x="510.71" y="372.72" width="47.59" height="51.06" rx="4.51"/><rect class="cls-27" x="447.81" y="372.72" width="47.59" height="51.06" rx="4.51"/><rect class="cls-27" x="447.81" y="309.81" width="47.59" height="51.06" rx="4.51"/><rect class="cls-27" x="510.71" y="309.81" width="47.59" height="51.06" rx="4.51"/><rect class="cls-27" x="636.53" y="372.72" width="47.59" height="51.06" rx="4.51"/><rect class="cls-27" x="573.62" y="309.81" width="47.59" height="51.06" rx="4.51"/><rect class="cls-27" x="573.62" y="372.72" width="47.59" height="51.06" rx="4.51"/><rect class="cls-27" x="636.53" y="309.81" width="47.59" height="51.06" rx="4.51"/><path class="cls-25" d="M515.21,423.83h38.08V385.74a4.49,4.49,0,0,0-4.5-4.5H510.7v38.08A4.51,4.51,0,0,0,515.21,423.83Z"/><path class="cls-25" d="M452.3,423.83h38.09V385.74a4.5,4.5,0,0,0-4.51-4.5H447.79v38.08A4.51,4.51,0,0,0,452.3,423.83Z"/><path class="cls-25" d="M485.88,318.33H447.79v38.09a4.51,4.51,0,0,0,4.51,4.5h38.09V322.84A4.51,4.51,0,0,0,485.88,318.33Z"/><path class="cls-25" d="M548.79,318.33H510.7v38.09a4.51,4.51,0,0,0,4.51,4.5h38.08V322.84A4.5,4.5,0,0,0,548.79,318.33Z"/><path class="cls-25" d="M641,423.83h38.09V385.74a4.5,4.5,0,0,0-4.51-4.5H636.52v38.08A4.5,4.5,0,0,0,641,423.83Z"/><path class="cls-25" d="M611.69,318.33H573.61v38.09a4.51,4.51,0,0,0,4.51,4.5H616.2V322.84A4.51,4.51,0,0,0,611.69,318.33Z"/><path class="cls-25" d="M578.12,423.83H616.2V385.74a4.5,4.5,0,0,0-4.51-4.5H573.61v38.08A4.51,4.51,0,0,0,578.12,423.83Z"/><path class="cls-25" d="M674.6,318.33H636.52v38.09a4.5,4.5,0,0,0,4.5,4.5h38.09V322.84A4.51,4.51,0,0,0,674.6,318.33Z"/><path class="cls-28" d="M486.11,365.27h-34a8.79,8.79,0,0,1-8.79-8.78V321.55a1.83,1.83,0,0,1,3.66,0v34.94a5.13,5.13,0,0,0,5.13,5.13h34a1.83,1.83,0,0,1,0,3.65Z"/><path class="cls-28" d="M486.11,428.26h-34a8.8,8.8,0,0,1-8.79-8.79V384.53a1.83,1.83,0,0,1,3.66,0v34.94a5.13,5.13,0,0,0,5.13,5.13h34a1.83,1.83,0,0,1,0,3.66Z"/><path class="cls-28" d="M549.05,365.27H515a8.79,8.79,0,0,1-8.79-8.78V321.55a1.83,1.83,0,0,1,3.66,0v34.94a5.13,5.13,0,0,0,5.13,5.13h34a1.83,1.83,0,1,1,0,3.65Z"/><path class="cls-28" d="M549.05,428.26H515a8.8,8.8,0,0,1-8.79-8.79V384.53a1.83,1.83,0,0,1,3.66,0v34.94A5.13,5.13,0,0,0,515,424.6h34a1.83,1.83,0,1,1,0,3.66Z"/><path class="cls-28" d="M611.91,365.27h-34a8.79,8.79,0,0,1-8.78-8.78V321.55a1.83,1.83,0,1,1,3.65,0v34.94a5.13,5.13,0,0,0,5.13,5.13h34a1.83,1.83,0,1,1,0,3.65Z"/><path class="cls-28" d="M611.91,428.26h-34a8.79,8.79,0,0,1-8.78-8.79V384.53a1.83,1.83,0,1,1,3.65,0v34.94a5.13,5.13,0,0,0,5.13,5.13h34a1.83,1.83,0,1,1,0,3.66Z"/><path class="cls-28" d="M674.66,365.27h-34a8.79,8.79,0,0,1-8.78-8.78V321.55a1.83,1.83,0,1,1,3.65,0v34.94a5.13,5.13,0,0,0,5.13,5.13h34a1.83,1.83,0,1,1,0,3.65Z"/><path class="cls-28" d="M674.66,428.26h-34a8.79,8.79,0,0,1-8.78-8.79V384.53a1.83,1.83,0,1,1,3.65,0v34.94a5.13,5.13,0,0,0,5.13,5.13h34a1.83,1.83,0,1,1,0,3.66Z"/><rect class="cls-27" x="699.01" y="372.72" width="47.59" height="51.06" rx="4.51"/><rect class="cls-27" x="699.01" y="309.81" width="47.59" height="51.06" rx="4.51"/><path class="cls-25" d="M703.5,423.83h38.09V385.74a4.5,4.5,0,0,0-4.51-4.5H699v38.08A4.5,4.5,0,0,0,703.5,423.83Z"/><path class="cls-25" d="M737.08,318.33H699v38.09a4.5,4.5,0,0,0,4.5,4.5h38.09V322.84A4.51,4.51,0,0,0,737.08,318.33Z"/><path class="cls-28" d="M737.14,365.27h-34a8.79,8.79,0,0,1-8.78-8.78V321.55a1.83,1.83,0,1,1,3.65,0v34.94a5.13,5.13,0,0,0,5.13,5.13h34a1.83,1.83,0,1,1,0,3.65Z"/><path class="cls-28" d="M737.14,428.26h-34a8.79,8.79,0,0,1-8.78-8.79V384.53a1.83,1.83,0,1,1,3.65,0v34.94a5.13,5.13,0,0,0,5.13,5.13h34a1.83,1.83,0,1,1,0,3.66Z"/><g class="cls-29"><g class="cls-30"><path class="cls-31" d="M390.76,198.6v64.65c0,15.36,9.38,29.51,40.84,29.51s34.89-17.95,34.89-25.14-18.74-64.17,27.85-64.17,38.87,50.11,38.87,67.08,8.2,42.84,29.53,42.84,36.64-14.49,36.64-58,66.71-34.92,66.71,0S727.5,287,727.5,260.83s29.11-33,56-44.06c20-8.27,0-29.69,0-44.85h-.24V101.34c0-4-13.23-13.55-23.21-13.55H413.7c-14,0-23.21,13.82-23.21,17.76Z"/></g><g class="cls-32"><path class="cls-3" d="M376,42.71V340.48H831.87V42.71ZM780.78,207.78c-25.73,11.1-53.6,17.91-53.6,44.06s-58.81,29.5-58.81-5.42-63.89-43.47-63.89,0-14.66,58-35.08,58-28.28-25.86-28.28-42.84,7.38-67.08-37.23-67.08-26.66,57-26.66,64.17-3.28,25.14-33.41,25.14-39.11-14.14-39.11-29.5V189.61l-.26-93c0-3.95,8.85-17.77,22.23-17.77H758.32c9.55,0,22.23,9.6,22.23,13.55v70.59h.23C780.78,178.09,799.94,199.51,780.78,207.78Z"/></g></g><path class="cls-3" d="M562.74,315.65c-10.37,0-18.93-5.62-24.77-16.24a62.74,62.74,0,0,1-7.05-28.88c0-1.89.09-4.11.2-6.69.55-13.52,1.47-36.17-10.53-48.67-6-6.26-14.85-9.44-26.25-9.44-10.27,0-17.91,2.93-22.7,8.72-10.33,12.46-5.95,35.62-3.84,46.75a43.22,43.22,0,0,1,1,6.42c0,6.43-2.68,27.42-37.17,27.42-15.08,0-26.42-3.21-33.72-9.55-6.24-5.43-9.4-12.91-9.4-22.24V198.6l-.27-93c0-3,3-8,7.05-12,5.34-5.19,11.88-8,18.44-8H760c6.93,0,13.9,3.95,16.57,5.65,2.1,1.33,8.93,6,8.93,10.18v68.32h.24v2.26c0,4.65,2.2,10.31,4.32,15.78,2.25,5.8,4.58,11.8,4.57,17.17,0,6.48-3.48,11.19-10.3,14-3.91,1.61-7.89,3.15-11.73,4.63-11.46,4.42-22.29,8.59-30.25,14.37-8.59,6.24-12.59,13.53-12.59,22.95,0,6.75-3.69,12.74-10.38,16.86-5.89,3.63-13.64,5.62-21.82,5.62-8.78,0-16.92-2.33-22.91-6.57a25.07,25.07,0,0,1-10.86-21.34c0-9.9-5.73-16.24-10.54-19.81A39.63,39.63,0,0,0,630,228.2c-7.77,0-14.78,2.31-19.75,6.5-5.72,4.81-8.62,11.78-8.62,20.7,0,21-3.62,36.67-10.75,46.62C584.42,311.06,574.94,315.65,562.74,315.65Zm-68.4-114.49c12.69,0,22.63,3.65,29.54,10.85,13.35,13.9,12.38,37.76,11.8,52-.1,2.52-.19,4.7-.19,6.5,0,15.68,7.4,40.55,27.25,40.55,10.8,0,18.8-3.83,24.46-11.72,6.56-9.16,9.89-23.95,9.89-44,0-10.18,3.54-18.55,10.24-24.2,5.8-4.88,13.86-7.57,22.7-7.57a44.33,44.33,0,0,1,26,8.3c8,5.93,12.38,14.27,12.38,23.47,0,7.5,3,13.42,8.92,17.61,5.23,3.7,12.43,5.73,20.28,5.73,13.4,0,27.64-6.27,27.64-17.91,0-10.85,4.73-19.57,14.47-26.64,8.44-6.13,19.54-10.41,31.28-14.94,3.83-1.48,7.78-3,11.63-4.59,10.71-4.42,8.2-12.5,3.22-25.31-2-5.07-4-10.28-4.51-15.16H781V101.36c-.14-.83-2.36-3.59-7.12-6.55s-9.94-4.74-13.81-4.74H413.7c-6.87,0-12.08,3.68-15.25,6.76-4.05,3.93-5.68,7.78-5.68,8.72L393,198.6v64.65c0,7.95,2.64,14.27,7.84,18.79,6.44,5.6,16.77,8.44,30.72,8.44,12.9,0,22.16-3.07,27.54-9.11a20.77,20.77,0,0,0,5.07-13.75,50,50,0,0,0-.9-5.58c-2.23-11.81-6.88-36.39,4.81-50.51C473.83,204.65,482.64,201.16,494.34,201.16Z"/><path class="cls-33" d="M775.8,188.85a3.69,3.69,0,0,1-3.53-2.64l-2.07-7a3.37,3.37,0,0,1-.16-1V108.55c0-2.51-.11-4.14-1.68-5.57-1.86-1.68-6.45-3.69-17.78-3.69H572.72a3.68,3.68,0,0,1,0-7.36H750.58c11.14,0,18.57,1.84,22.72,5.61s4.1,8.28,4.1,11v69.09l1.92,6.48a3.67,3.67,0,0,1-2.47,4.57A3.53,3.53,0,0,1,775.8,188.85Z"/><path class="cls-33" d="M587.8,285.37l-5.27-5.13-.09.09s1.33-1.6,2.64-6.05c1.22-4.13,2.67-11.6,2.67-23.8,0-15.93,13-25.95,13.53-26.37a3.68,3.68,0,1,1,4.44,5.86c-.09.07-10.61,8.29-10.61,20.51,0,11.12-1.12,20.2-3.32,27C590.1,282.74,588.3,284.85,587.8,285.37Z"/><path class="cls-33" d="M455.06,269a3.67,3.67,0,0,1-3-5.82c.16-.35,1.29-3.17-.59-10.77-1.61-6.53-1.81-18.77.92-29.51,3.72-14.63,11.81-23.93,23.4-26.88a3.68,3.68,0,0,1,1.82,7.13,21.29,21.29,0,0,0-11.8,7.86,37,37,0,0,0-6.29,13.71c-2.7,10.61-2,21.54-.9,25.93,2.87,11.67.12,16-.79,17.08A3.67,3.67,0,0,1,455.06,269Zm-2.78-6.07h0Zm0,0Z"/><path class="cls-33" d="M715.58,247.3c-.21-1-1.73-10,9.5-21.82a3.68,3.68,0,1,1,5.33,5.07c-8.51,8.94-7.65,15-7.61,15.31a.66.66,0,0,0,0-.09Z"/><circle class="cls-33" cx="452.61" cy="276.45" r="4.8"/><circle class="cls-33" cx="580.36" cy="294.73" r="4.8"/><circle class="cls-33" cx="717.01" cy="258.62" r="4.8"/><circle class="cls-33" cx="781.56" cy="198.36" r="4.8"/><g class="cls-34"><path class="cls-18" d="M501.52,108.31s29.88-51.84,77.15-8.44C526.89,141.65,501.52,108.31,501.52,108.31Z"/><path class="cls-19" d="M492.13,101.66S522,49.82,569.28,93.22C517.51,135,492.13,101.66,492.13,101.66Z"/></g><path class="cls-3" d="M530.6,123.2a46.25,46.25,0,0,1-5.53-.33c-16.71-2-25-12.72-25.37-13.17l-.92-1.21.76-1.32A63.2,63.2,0,0,1,509,95.3c8.07-8.09,17.31-13.13,26.74-14.58,14.49-2.22,29.46,3.65,44.5,17.47l1.95,1.79-2.06,1.66C562.35,116,545.73,123.2,530.6,123.2Zm-26.24-15.12a35.73,35.73,0,0,0,21.38,10.27,49,49,0,0,0,21.76-2.79c8.76-3,18-8.35,27.62-15.8-13.27-11.54-26.27-16.42-38.68-14.53C519,87.89,507.51,103.36,504.36,108.08Z"/><g class="cls-35"><path class="cls-18" d="M543,40.83s15.52,57.79-48.58,60.52C501.45,35.2,543,40.83,543,40.83Z"/><path class="cls-19" d="M540,31.72s15.53,57.79-48.58,60.52C498.44,26.09,540,31.72,540,31.72Z"/></g><path class="cls-3" d="M491.84,103.75l.28-2.64c2.72-25.48,10.76-43.62,23.9-53.92s26.69-8.7,27.25-8.62l1.51.2.39,1.47A63.19,63.19,0,0,1,546.9,55.3c0,11.42-3,21.53-8.6,29.22-8.67,11.81-23.41,18.25-43.81,19.12ZM540.66,43a35.87,35.87,0,0,0-21.92,7.86,49,49,0,0,0-13.41,17.36c-4.05,8.34-6.86,18.66-8.36,30.7,17.54-1.22,30.19-7,37.63-17.07C545,67.64,542.24,48.57,541.12,43Z"/><g class="cls-36"><circle class="cls-37" cx="498.91" cy="125.16" r="45.9"/><circle class="cls-31" cx="501.39" cy="110.26" r="45.9"/><path class="cls-37" d="M491.55,121.48l1.53,3.11a5,5,0,0,0,3.74,2.71l3.42.5a5,5,0,0,1,2.76,8.47l-2.48,2.41a5,5,0,0,0-1.43,4.4l.58,3.41a5,5,0,0,1-7.2,5.23l-3.06-1.61a5,5,0,0,0-4.62,0l-3.07,1.61a5,5,0,0,1-7.2-5.23l.59-3.41a5,5,0,0,0-1.43-4.4l-2.48-2.41A5,5,0,0,1,474,127.8l3.43-.5a5,5,0,0,0,3.73-2.71l1.54-3.11A5,5,0,0,1,491.55,121.48Z"/><circle class="cls-31" cx="487.1" cy="136.9" r="8.64"/></g><path class="cls-3" d="M498.91,171a48.19,48.19,0,1,1,48.19-48.18A48.23,48.23,0,0,1,498.91,171Zm0-91.8a43.62,43.62,0,1,0,43.62,43.62A43.66,43.66,0,0,0,498.91,79.16Z"/><ellipse class="cls-38" cx="512.1" cy="95.48" rx="13.18" ry="10.46"/><g class="cls-39"><path class="cls-13" d="M535.23,346.74c0,23.71,42.72,47.38,83,47.38s72.91-23.67,72.91-47.38Z"/><path class="cls-14" d="M528.43,353.21c0,23.71,32.64,42.93,72.91,42.93s72.92-19.22,72.92-42.93Z"/></g><path class="cls-3" d="M612.86,395c-21.14,0-41.05-5-56.06-14C541.42,371.73,533,359.32,533,346v-2.28H692.78V346c0,13.3-8.47,25.71-23.85,35C653.92,390,634,395,612.86,395ZM537.62,348.3c.93,10.79,8.5,20.93,21.53,28.76,14.31,8.6,33.39,13.34,53.71,13.34s39.41-4.74,53.72-13.34c13-7.83,20.59-18,21.53-28.76Z"/><path class="cls-3" d="M575.25,376.09h0a2.25,2.25,0,0,1-1.65-.74L563,363.9,550,371.75a2.28,2.28,0,1,1-2.37-3.9L562.2,359a2.28,2.28,0,0,1,2.86.4l10.22,11.05L586,359.4a2.28,2.28,0,0,1,3.21-.08l7.43,7a2.28,2.28,0,1,1-3.13,3.32l-5.79-5.44-10.77,11.2A2.32,2.32,0,0,1,575.25,376.09Z"/><path class="cls-14" d="M492.89,271.81a42.13,42.13,0,0,0,84.26,0Z"/><path class="cls-3" d="M535,316.22a44.47,44.47,0,0,1-44.42-44.41v-2.28h88.83v2.28A44.46,44.46,0,0,1,535,316.22Zm-39.79-42.13a39.85,39.85,0,0,0,79.57,0Z"/><path class="cls-14" d="M644.27,271.81a42.13,42.13,0,1,0,84.26,0Z"/><path class="cls-3" d="M686.4,316.22A44.47,44.47,0,0,1,642,271.81v-2.28h88.83v2.28A44.46,44.46,0,0,1,686.4,316.22Zm-39.79-42.13a39.85,39.85,0,0,0,79.57,0Z"/><path class="cls-3" d="M506.88,271.81a20.41,20.41,0,1,0,40.82,0Z"/><path class="cls-3" d="M657.81,271.81a20.41,20.41,0,1,0,40.82,0Z"/><circle class="cls-14" cx="523.14" cy="277.23" r="5.44"/><circle class="cls-14" cx="672.96" cy="277.23" r="5.44"/><path class="cls-3" d="M236.5,449.59h25.61V97.4H236.5c-92.89,0-168.2,78.84-168.2,176.09s75.31,176.1,168.2,176.1"/><path class="cls-3" d="M268.09,455.58H236.5a166.64,166.64,0,0,1-67.89-14.35,173.44,173.44,0,0,1-55.37-39.08A182,182,0,0,1,76,344.28a190.23,190.23,0,0,1,0-141.57,181.85,181.85,0,0,1,37.27-57.87,173.44,173.44,0,0,1,55.37-39.08A166.64,166.64,0,0,1,236.5,91.41h31.59ZM236.5,103.39a154.82,154.82,0,0,0-63.05,13.32,161.54,161.54,0,0,0-51.55,36.4,170.17,170.17,0,0,0-34.83,54.08,178.39,178.39,0,0,0,0,132.61,170.17,170.17,0,0,0,34.83,54.08,161.54,161.54,0,0,0,51.55,36.4A154.82,154.82,0,0,0,236.5,443.6h19.62V103.39Z"/><circle class="cls-3" cx="261.54" cy="273.49" r="176.09"/><path class="cls-3" d="M261.54,455.58a181.65,181.65,0,1,1,70.87-14.32A180.89,180.89,0,0,1,261.54,455.58Zm0-352.19a169.5,169.5,0,1,0,66.21,13.36A169,169,0,0,0,261.54,103.39Z"/><path class="cls-3" d="M207.33,410.12v8.93a4.82,4.82,0,0,0,3.28,4.58c10.92,3.66,27.4,6.51,39.24,7.64a4.82,4.82,0,0,0,5.27-4.8V410.12a4.82,4.82,0,0,0-4.82-4.82H212.15A4.82,4.82,0,0,0,207.33,410.12Z"/><path class="cls-3" d="M250.3,437.28a8.71,8.71,0,0,1-1,0c-11.77-1.12-28.88-4-40.57-7.93a10.78,10.78,0,0,1-7.37-10.25v-8.93a10.82,10.82,0,0,1,10.81-10.81H250.3a10.82,10.82,0,0,1,10.81,10.81v16.35a10.81,10.81,0,0,1-10.81,10.81Zm-37-19.07c10.31,3.33,25.38,5.89,35.83,7V411.28H213.31Z"/><path class="cls-3" d="M124.25,278.94H109.86a4.53,4.53,0,0,0-4.51,5c1.17,12.05,4.49,32.18,8.27,43.25a4.29,4.29,0,0,0,4.09,3.07h6.54a4.52,4.52,0,0,0,4.52-4.53V283.47A4.52,4.52,0,0,0,124.25,278.94Z"/><path class="cls-3" d="M124.25,336.21h-6.54a10.26,10.26,0,0,1-9.76-7.13c-3.84-11.26-7.28-31.38-8.56-44.6A10.5,10.5,0,0,1,109.86,273h14.39a10.52,10.52,0,0,1,10.51,10.51v42.22A10.53,10.53,0,0,1,124.25,336.21Zm-5.29-12h3.83v-39.3H111.47C112.77,297.18,115.8,314.41,119,324.23Z"/><path class="cls-3" d="M255.12,136.16V119.72a4.52,4.52,0,0,0-4.94-4.5c-12,1.12-28.7,3.63-39.77,7.35a4.53,4.53,0,0,0-3.08,4.3v9.29a4.52,4.52,0,0,0,4.52,4.53H250.6A4.52,4.52,0,0,0,255.12,136.16Z"/><path class="cls-3" d="M250.6,146.68H211.85a10.53,10.53,0,0,1-10.51-10.52v-9.29a10.51,10.51,0,0,1,7.16-10c3.67-1.24,17.48-5.44,41.12-7.65a10.51,10.51,0,0,1,11.49,10.47v16.44A10.52,10.52,0,0,1,250.6,146.68Zm-37.29-12h35.83V121.33c-11.13,1.12-25.75,3.37-35.83,6.59Z"/><path class="cls-3" d="M124.25,215.77h-3.4a4.53,4.53,0,0,0-4.28,3.06c-3.79,11.07-9.06,31.25-10.24,43.29a4.53,4.53,0,0,0,4.51,5h13.41a4.52,4.52,0,0,0,4.52-4.53V220.29A4.52,4.52,0,0,0,124.25,215.77Z"/><path class="cls-3" d="M124.25,273.08H110.84a10.53,10.53,0,0,1-10.47-11.54c1.18-12,6.39-32.53,10.54-44.65a10.51,10.51,0,0,1,9.94-7.11h3.4a10.53,10.53,0,0,1,10.51,10.51v42.27A10.53,10.53,0,0,1,124.25,273.08Zm-11.78-12h10.32V221.75h-.89C118.21,232.82,113.78,250.38,112.47,261.1Z"/><path class="cls-3" d="M270.5,410.12V426a4.83,4.83,0,0,0,5.31,4.81c11.86-1.24,28.34-5.55,39.24-9.31a5.19,5.19,0,0,0,3.22-4.86l0-6.47a4.82,4.82,0,0,0-4.82-4.82H275.33A4.82,4.82,0,0,0,270.5,410.12Z"/><path class="cls-3" d="M275.32,436.77A10.81,10.81,0,0,1,264.52,426V410.12a10.82,10.82,0,0,1,10.81-10.81h38.15a10.82,10.82,0,0,1,10.81,10.81v0l0,6.46A11.13,11.13,0,0,1,317,427.1c-11.12,3.84-28,8.3-40.58,9.61A10.32,10.32,0,0,1,275.32,436.77Zm1.17-25.49v13.38c11.16-1.34,26-5.28,35.79-8.59l0-4.79Z"/><path class="cls-3" d="M318.3,136.16V127.3a4.52,4.52,0,0,0-3.05-4.28c-11.06-3.84-27.74-6.45-39.78-7.68a4.54,4.54,0,0,0-5,4.51v16.31a4.53,4.53,0,0,0,4.53,4.53h38.76A4.53,4.53,0,0,0,318.3,136.16Z"/><path class="cls-3" d="M313.77,146.68H275a10.52,10.52,0,0,1-10.51-10.52V119.85a10.52,10.52,0,0,1,11.57-10.46c6,.61,26.8,3,41.15,8a10.53,10.53,0,0,1,7.07,9.94v8.86A10.53,10.53,0,0,1,313.77,146.68Zm-37.3-12h35.84v-6.35c-9.95-3.29-24.63-5.66-35.84-6.88Z"/><path class="cls-3" d="M401.38,330.22h3.53a4.53,4.53,0,0,0,4.29-3.07c3.77-11.07,7.87-31.2,9-43.25a4.53,4.53,0,0,0-4.51-5H401.38a4.52,4.52,0,0,0-4.52,4.53v42.22A4.52,4.52,0,0,0,401.38,330.22Z"/><path class="cls-3" d="M404.91,336.21h-3.53a10.52,10.52,0,0,1-10.51-10.52V283.47A10.52,10.52,0,0,1,401.38,273h12.35a10.5,10.5,0,0,1,10.47,11.52c-1.27,13.06-5.54,33.48-9.34,44.6A10.52,10.52,0,0,1,404.91,336.21Zm-2.07-12h1c3.26-10,6.94-27.54,8.25-39.3h-9.27Z"/><path class="cls-3" d="M192,199.34V157.12a4.53,4.53,0,0,0-4.53-4.53H159.93a4.51,4.51,0,0,0-3,1.16,153.1,153.1,0,0,0-11.58,11.49,4.54,4.54,0,0,0-1.18,3v31.05a4.53,4.53,0,0,0,4.53,4.53h38.74A4.53,4.53,0,0,0,192,199.34Z"/><path class="cls-3" d="M187.42,209.85H148.68a10.52,10.52,0,0,1-10.52-10.51V168.29a10.5,10.5,0,0,1,2.73-7.07,165.28,165.28,0,0,1,12-11.94,10.49,10.49,0,0,1,7-2.68h27.49a10.53,10.53,0,0,1,10.52,10.52v42.22A10.52,10.52,0,0,1,187.42,209.85Zm-37.28-12H186v-39.3H160.49c-3.61,3.24-7.09,6.7-10.35,10.27Z"/><path class="cls-3" d="M401.38,267.24h15a4.53,4.53,0,0,0,4.51-5c-1.18-12-6.45-32.37-10.24-43.44a4.3,4.3,0,0,0-4.09-3.06h-5.76c-2.5,0-4,2-4,4.52v42.42A4.52,4.52,0,0,0,401.38,267.24Z"/><path class="cls-3" d="M416.42,273.22h-15a10.52,10.52,0,0,1-10.51-10.51V220.29c0-6,4.28-10.51,10-10.51h5.76a10.23,10.23,0,0,1,9.75,7.11c4.14,12.09,9.35,32.66,10.54,44.8a10.52,10.52,0,0,1-10.47,11.53Zm-13.58-12h12c-1.32-10.83-5.74-28.45-9.43-39.5h-2.52Z"/><rect class="cls-3" x="270.5" y="342.12" width="47.8" height="51.28" rx="4.83"/><path class="cls-3" d="M313.48,399.38H275.33a10.82,10.82,0,0,1-10.81-10.81V346.94a10.82,10.82,0,0,1,10.81-10.81h38.15a10.82,10.82,0,0,1,10.81,10.81v41.63A10.82,10.82,0,0,1,313.48,399.38Zm-37-12h35.82v-39.3H276.49Z"/><path class="cls-3" d="M333.68,346.94v41.82a4.82,4.82,0,0,0,4.82,4.83l26-.19a4.88,4.88,0,0,0,3.23-1.24,158.44,158.44,0,0,0,12.55-12.84,4.83,4.83,0,0,0,1.22-3.2V346.94a4.82,4.82,0,0,0-4.83-4.82H338.5A4.82,4.82,0,0,0,333.68,346.94Z"/><path class="cls-3" d="M338.53,399.58h0a10.83,10.83,0,0,1-10.81-10.82V346.94a10.82,10.82,0,0,1,10.81-10.81h38.15a10.82,10.82,0,0,1,10.81,10.81v29.18a10.82,10.82,0,0,1-2.71,7.17,162.27,162.27,0,0,1-13,13.32,10.79,10.79,0,0,1-7.2,2.77Zm1.14-51.47v39.48l24.36-.18a151,151,0,0,0,11.46-11.73V348.11Z"/><rect class="cls-3" x="207.33" y="278.94" width="47.8" height="51.28" rx="4.53"/><path class="cls-3" d="M250.6,336.21H211.85a10.53,10.53,0,0,1-10.51-10.52V283.47A10.52,10.52,0,0,1,211.85,273H250.6a10.52,10.52,0,0,1,10.51,10.51v42.22A10.52,10.52,0,0,1,250.6,336.21Zm-37.29-12h35.83v-39.3H213.31Z"/><path class="cls-3" d="M187.12,342.12H149a4.82,4.82,0,0,0-4.83,4.82v30.79a4.83,4.83,0,0,0,1.26,3.25,158.08,158.08,0,0,0,11.24,11.18,4.88,4.88,0,0,0,3.23,1.24h27.24a4.83,4.83,0,0,0,4.83-4.83V346.94A4.82,4.82,0,0,0,187.12,342.12Z"/><path class="cls-3" d="M187.12,399.38H159.88a10.79,10.79,0,0,1-7.23-2.77A162,162,0,0,1,141,385a10.82,10.82,0,0,1-2.81-7.27V346.94A10.83,10.83,0,0,1,149,336.13h38.14a10.83,10.83,0,0,1,10.82,10.81v41.63A10.83,10.83,0,0,1,187.12,399.38Zm-26.79-12H186v-39.3H150.14v29.17C153.35,380.8,156.78,384.2,160.33,387.41Z"/><path class="cls-3" d="M250.3,342.12h-38a5,5,0,0,0-5,4.82v41.82a5,5,0,0,0,5,4.83h38a4.82,4.82,0,0,0,4.82-4.83V346.94A4.82,4.82,0,0,0,250.3,342.12Z"/><path class="cls-3" d="M250.3,399.58h-38a10.93,10.93,0,0,1-11-10.82V346.94a10.92,10.92,0,0,1,11-10.81h38a10.82,10.82,0,0,1,10.81,10.81v41.82A10.83,10.83,0,0,1,250.3,399.58Zm-37-12h35.83V348.11H213.31Z"/><rect class="cls-3" x="144.15" y="278.94" width="47.8" height="51.28" rx="4.53"/><path class="cls-3" d="M187.42,336.21H148.68a10.53,10.53,0,0,1-10.52-10.52V283.47A10.52,10.52,0,0,1,148.68,273h38.74a10.52,10.52,0,0,1,10.52,10.51v42.22A10.53,10.53,0,0,1,187.42,336.21Zm-37.28-12H186v-39.3H150.14Z"/><rect class="cls-3" x="144.15" y="215.77" width="47.8" height="51.28" rx="4.53"/><path class="cls-3" d="M187.42,273H148.68a10.53,10.53,0,0,1-10.52-10.51V220.29a10.53,10.53,0,0,1,10.52-10.51h38.74a10.53,10.53,0,0,1,10.52,10.51v42.23A10.53,10.53,0,0,1,187.42,273Zm-37.28-12H186V221.75H150.14Z"/><rect class="cls-3" x="207.33" y="215.77" width="47.8" height="51.28" rx="4.53"/><path class="cls-3" d="M250.6,273H211.85a10.53,10.53,0,0,1-10.51-10.51V220.29a10.53,10.53,0,0,1,10.51-10.51H250.6a10.52,10.52,0,0,1,10.51,10.51v42.23A10.52,10.52,0,0,1,250.6,273Zm-37.29-12h35.83V221.75H213.31Z"/><rect class="cls-3" x="270.5" y="152.59" width="47.8" height="51.28" rx="4.53"/><path class="cls-3" d="M313.77,209.85H275a10.52,10.52,0,0,1-10.51-10.51V157.12A10.52,10.52,0,0,1,275,146.6h38.74a10.53,10.53,0,0,1,10.52,10.52v42.22A10.52,10.52,0,0,1,313.77,209.85Zm-37.28-12h35.82v-39.3H276.49Z"/><path class="cls-3" d="M364.43,152.59H338.21a4.53,4.53,0,0,0-4.53,4.53l.09,42.31A4.53,4.53,0,0,0,338.3,204H377a4.53,4.53,0,0,0,4.53-4.53l-.09-29.72a4.56,4.56,0,0,0-1.14-3,154.43,154.43,0,0,0-12.89-12.95A4.49,4.49,0,0,0,364.43,152.59Z"/><path class="cls-3" d="M377,210H338.3a10.52,10.52,0,0,1-10.51-10.52l-.1-42.3a10.54,10.54,0,0,1,10.52-10.53h26.22a10.49,10.49,0,0,1,7,2.68,160.32,160.32,0,0,1,13.38,13.46,10.46,10.46,0,0,1,2.64,7l.1,29.7A10.54,10.54,0,0,1,377,210Zm-37.28-10.54h0Zm0-1.44h35.82l-.09-27.71a148.9,148.9,0,0,0-11.62-11.68h-24.2Zm35.73-28.25h0Z"/><rect class="cls-3" x="333.68" y="278.94" width="47.8" height="51.28" rx="4.53"/><path class="cls-3" d="M377,336.21H338.21a10.53,10.53,0,0,1-10.52-10.52V283.47A10.52,10.52,0,0,1,338.21,273H377a10.52,10.52,0,0,1,10.51,10.51v42.22A10.52,10.52,0,0,1,377,336.21Zm-37.28-12h35.82v-39.3H339.67Z"/><rect class="cls-3" x="207.33" y="152.59" width="47.8" height="51.28" rx="4.53"/><path class="cls-3" d="M250.6,209.85H211.85a10.52,10.52,0,0,1-10.51-10.51V157.12a10.53,10.53,0,0,1,10.51-10.52H250.6a10.52,10.52,0,0,1,10.51,10.52v42.22A10.52,10.52,0,0,1,250.6,209.85Zm-37.29-12h35.83v-39.3H213.31Z"/><rect class="cls-3" x="270.5" y="215.77" width="47.8" height="51.28" rx="4.53"/><path class="cls-3" d="M313.77,273H275a10.52,10.52,0,0,1-10.51-10.51V220.29A10.52,10.52,0,0,1,275,209.78h38.74a10.53,10.53,0,0,1,10.52,10.51v42.23A10.53,10.53,0,0,1,313.77,273Zm-37.28-12h35.82V221.75H276.49Z"/><rect class="cls-3" x="270.5" y="278.94" width="47.8" height="51.28" rx="4.53"/><path class="cls-3" d="M313.77,336.21H275a10.52,10.52,0,0,1-10.51-10.52V283.47A10.52,10.52,0,0,1,275,273h38.74a10.52,10.52,0,0,1,10.52,10.51v42.22A10.53,10.53,0,0,1,313.77,336.21Zm-37.28-12h35.82v-39.3H276.49Z"/><rect class="cls-3" x="333.68" y="215.77" width="47.8" height="51.28" rx="4.53"/><path class="cls-3" d="M377,273H338.21a10.53,10.53,0,0,1-10.52-10.51V220.29a10.53,10.53,0,0,1,10.52-10.51H377a10.52,10.52,0,0,1,10.51,10.51v42.23A10.52,10.52,0,0,1,377,273Zm-37.28-12h35.82V221.75H339.67Z"/><path class="cls-3" d="M207.31,413.85v5.26a4.83,4.83,0,0,0,3.29,4.57,153.5,153.5,0,0,0,39.49,7.67V418.68a4.83,4.83,0,0,0-4.83-4.83Z"/><path class="cls-3" d="M256.08,437.72l-6.36-.39a160.18,160.18,0,0,1-41-8,10.8,10.8,0,0,1-7.37-10.25V407.86h43.93a10.83,10.83,0,0,1,10.82,10.82Zm-37.7-17.88a148.4,148.4,0,0,0,25.72,5v-5Z"/><path class="cls-3" d="M119.21,287.5h-13.5a153.6,153.6,0,0,0,7.9,39.71,4.52,4.52,0,0,0,4.28,3.06h5.85V292A4.53,4.53,0,0,0,119.21,287.5Z"/><path class="cls-3" d="M129.72,336.26H117.89a10.51,10.51,0,0,1-10-7.12,160.28,160.28,0,0,1-8.21-41.25l-.41-6.38h19.89A10.52,10.52,0,0,1,129.72,292Zm-17.49-42.77a148,148,0,0,0,5.52,27.05V293.49Z"/><path class="cls-3" d="M250.09,140.74V128.28a4.53,4.53,0,0,0-5-4.51,153.26,153.26,0,0,0-37.83,8.44v4a4.52,4.52,0,0,0,4.53,4.52Z"/><path class="cls-3" d="M256.08,146.73H211.84a10.52,10.52,0,0,1-10.51-10.51V128l3.95-1.43a159.54,159.54,0,0,1,39.31-8.76,10.53,10.53,0,0,1,11.49,10.47Zm-37.18-12h25.2v-4.87A147.43,147.43,0,0,0,218.9,134.76Z"/><path class="cls-3" d="M119.21,224.32h-4.47a153.66,153.66,0,0,0-8.61,37.81,4.53,4.53,0,0,0,4.5,5h13.11V228.85A4.53,4.53,0,0,0,119.21,224.32Z"/><path class="cls-3" d="M129.72,273.08H110.63a10.5,10.5,0,0,1-10.46-11.53,160,160,0,0,1,9-39.29l1.44-3.92h8.65a10.52,10.52,0,0,1,10.51,10.51Zm-17.47-12h5.5V234.2A148.2,148.2,0,0,0,112.25,261.11Z"/><path class="cls-3" d="M270.49,413.85V426a4.82,4.82,0,0,0,5.31,4.8,154,154,0,0,0,37.47-8.73v-3.4a4.83,4.83,0,0,0-4.83-4.83Z"/><path class="cls-3" d="M275.31,436.82A10.82,10.82,0,0,1,264.5,426V407.86h43.94a10.83,10.83,0,0,1,10.81,10.82v7.56l-3.9,1.45a159.31,159.31,0,0,1-38.93,9.07A10.32,10.32,0,0,1,275.31,436.82Zm1.17-17v4.87a147,147,0,0,0,24.45-4.87Z"/><path class="cls-3" d="M313.27,140.74v-4.89a4.52,4.52,0,0,0-3-4.27,153.37,153.37,0,0,0-39.73-8.11v12.75a4.52,4.52,0,0,0,4.53,4.52Z"/><path class="cls-3" d="M319.25,146.73H275a10.52,10.52,0,0,1-10.52-10.51V117.06l6.4.44a159.71,159.71,0,0,1,41.28,8.42,10.52,10.52,0,0,1,7.07,9.93Zm-42.77-12h23.94A148.23,148.23,0,0,0,276.48,130Z"/><path class="cls-3" d="M401.42,330.27h3.2a152.72,152.72,0,0,0,8.58-37.81,4.52,4.52,0,0,0-4.5-5H396.84v38.2A4.58,4.58,0,0,0,401.42,330.27Z"/><path class="cls-3" d="M408.81,336.26h-7.39a10.57,10.57,0,0,1-10.56-10.56V281.51H408.7A10.52,10.52,0,0,1,419.16,293a159.64,159.64,0,0,1-8.91,39.29Zm-6-42.77v22.63a148.21,148.21,0,0,0,4.25-22.63Z"/><path class="cls-3" d="M186.91,203.92V165.67a4.52,4.52,0,0,0-4.52-4.52H159.92a4.57,4.57,0,0,0-3,1.15,157.26,157.26,0,0,0-12.75,12.81v24.28a4.52,4.52,0,0,0,4.52,4.53Z"/><path class="cls-3" d="M192.9,209.91H148.66a10.53,10.53,0,0,1-10.51-10.52V172.84l1.51-1.7a161.44,161.44,0,0,1,13.25-13.3,10.49,10.49,0,0,1,7-2.68h22.47a10.53,10.53,0,0,1,10.51,10.51Zm-42.78-12h30.81v-30.8H160.48c-3.61,3.25-7.08,6.7-10.36,10.28Z"/><path class="cls-3" d="M401.37,267.1h12.22a153.06,153.06,0,0,0-7.94-39.71,4.51,4.51,0,0,0-4.28-3.07h-4.53v38.25A4.53,4.53,0,0,0,401.37,267.1Z"/><path class="cls-3" d="M420,273.08H401.37a10.52,10.52,0,0,1-10.51-10.51V218.34h10.51a10.52,10.52,0,0,1,9.95,7.11,159.75,159.75,0,0,1,8.25,41.25Zm-17.16-12h4.23a147.38,147.38,0,0,0-4.23-22.49Z"/><path class="cls-3" d="M308.44,350.68H270.49v37.94a4.83,4.83,0,0,0,4.83,4.83h37.95V355.5A4.83,4.83,0,0,0,308.44,350.68Z"/><path class="cls-3" d="M319.25,399.44H275.32a10.83,10.83,0,0,1-10.82-10.82V344.69h43.94a10.82,10.82,0,0,1,10.81,10.81Zm-42.77-12h30.8v-30.8h-30.8Z"/><path class="cls-3" d="M333.67,350.68v37.94a4.82,4.82,0,0,0,4.82,4.83h20.95a4.79,4.79,0,0,0,3.23-1.24,154.55,154.55,0,0,0,13.77-14V355.5a4.82,4.82,0,0,0-4.82-4.82Z"/><path class="cls-3" d="M359.44,399.44H338.49a10.83,10.83,0,0,1-10.81-10.82V344.69h43.94a10.82,10.82,0,0,1,10.81,10.81v24.91L381,382.1a161.16,161.16,0,0,1-14.3,14.57A10.82,10.82,0,0,1,359.44,399.44Zm-19.79-12H359a148.29,148.29,0,0,0,11.45-11.53V356.66h-30.8Z"/><path class="cls-3" d="M211.84,330.27h38.25V292a4.53,4.53,0,0,0-4.53-4.53H207.31v38.25A4.52,4.52,0,0,0,211.84,330.27Z"/><path class="cls-3" d="M256.08,336.26H211.84a10.52,10.52,0,0,1-10.51-10.51V281.51h44.23A10.53,10.53,0,0,1,256.08,292Zm-42.78-12h30.8v-30.8H213.3Z"/><path class="cls-3" d="M182.09,350.68h-38v27.1a4.87,4.87,0,0,0,1.25,3.25,154.1,154.1,0,0,0,11.25,11.18,4.83,4.83,0,0,0,3.23,1.24h27V355.5A4.82,4.82,0,0,0,182.09,350.68Z"/><path class="cls-3" d="M192.9,399.44h-33a10.84,10.84,0,0,1-7.23-2.77A162,162,0,0,1,141,385.06a10.82,10.82,0,0,1-2.81-7.28V344.69h43.94A10.82,10.82,0,0,1,192.9,355.5Zm-32.59-12h20.62v-30.8H150.12v20.67C153.34,380.86,156.77,384.26,160.31,387.46Z"/><path class="cls-3" d="M245.26,350.68H207.31v37.94a4.83,4.83,0,0,0,4.83,4.83h38V355.5A4.82,4.82,0,0,0,245.26,350.68Z"/><path class="cls-3" d="M256.08,399.44H212.14a10.83,10.83,0,0,1-10.81-10.82V344.69h43.93a10.83,10.83,0,0,1,10.82,10.81Zm-42.78-12h30.8v-30.8H213.3Z"/><path class="cls-3" d="M148.66,330.27h38.25V292a4.52,4.52,0,0,0-4.52-4.53H144.14v38.25A4.52,4.52,0,0,0,148.66,330.27Z"/><path class="cls-3" d="M192.9,336.26H148.66a10.53,10.53,0,0,1-10.51-10.51V281.51h44.24A10.53,10.53,0,0,1,192.9,292Zm-42.78-12h30.81v-30.8H150.12Z"/><path class="cls-3" d="M182.39,224.32H144.14v38.25a4.52,4.52,0,0,0,4.52,4.53h38.25V228.85A4.52,4.52,0,0,0,182.39,224.32Z"/><path class="cls-3" d="M192.9,273.08H148.66a10.52,10.52,0,0,1-10.51-10.51V218.34h44.24a10.52,10.52,0,0,1,10.51,10.51Zm-42.78-12h30.81v-30.8H150.12Z"/><path class="cls-3" d="M245.56,224.32H207.31v38.25a4.53,4.53,0,0,0,4.53,4.53h38.25V228.85A4.53,4.53,0,0,0,245.56,224.32Z"/><path class="cls-3" d="M256.08,273.08H211.84a10.52,10.52,0,0,1-10.51-10.51V218.34h44.23a10.52,10.52,0,0,1,10.52,10.51Zm-42.78-12h30.8v-30.8H213.3Z"/><path class="cls-3" d="M275,203.92h38.25V165.67a4.52,4.52,0,0,0-4.53-4.52H270.49v38.24A4.53,4.53,0,0,0,275,203.92Z"/><path class="cls-3" d="M319.25,209.91H275a10.53,10.53,0,0,1-10.52-10.52V155.16h44.24a10.52,10.52,0,0,1,10.51,10.51Zm-42.77-12h30.8v-30.8h-30.8Z"/><path class="cls-3" d="M359.39,161.15H333.67v38.24a4.52,4.52,0,0,0,4.52,4.53h38.25V178.26a4.54,4.54,0,0,0-1.14-3,154.43,154.43,0,0,0-12.88-13A4.57,4.57,0,0,0,359.39,161.15Z"/><path class="cls-3" d="M382.43,209.91H338.19a10.53,10.53,0,0,1-10.51-10.52V155.16h31.71a10.53,10.53,0,0,1,7,2.68,163.28,163.28,0,0,1,13.38,13.45,10.53,10.53,0,0,1,2.64,7Zm-42.78-12h30.8V178.81a152.31,152.31,0,0,0-11.61-11.68H339.65Z"/><path class="cls-3" d="M338.19,330.27h38.25V292a4.53,4.53,0,0,0-4.53-4.53H333.67v38.25A4.52,4.52,0,0,0,338.19,330.27Z"/><path class="cls-3" d="M382.43,336.26H338.19a10.53,10.53,0,0,1-10.51-10.51V281.51h44.23A10.53,10.53,0,0,1,382.43,292Zm-42.78-12h30.8v-30.8h-30.8Z"/><path class="cls-3" d="M211.84,203.92h38.25V165.67a4.52,4.52,0,0,0-4.53-4.52H207.31v38.24A4.53,4.53,0,0,0,211.84,203.92Z"/><path class="cls-3" d="M256.08,209.91H211.84a10.52,10.52,0,0,1-10.51-10.52V155.16h44.23a10.53,10.53,0,0,1,10.52,10.51Zm-42.78-12h30.8v-30.8H213.3Z"/><path class="cls-3" d="M308.74,224.32H270.49v38.25A4.53,4.53,0,0,0,275,267.1h38.25V228.85A4.53,4.53,0,0,0,308.74,224.32Z"/><path class="cls-3" d="M319.25,273.08H275a10.52,10.52,0,0,1-10.52-10.51V218.34h44.24a10.52,10.52,0,0,1,10.51,10.51Zm-42.77-12h30.8v-30.8h-30.8Z"/><path class="cls-3" d="M275,330.27h38.25V292a4.53,4.53,0,0,0-4.53-4.53H270.49v38.25A4.52,4.52,0,0,0,275,330.27Z"/><path class="cls-3" d="M319.25,336.26H275a10.53,10.53,0,0,1-10.52-10.51V281.51h44.24A10.52,10.52,0,0,1,319.25,292Zm-42.77-12h30.8v-30.8h-30.8Z"/><path class="cls-3" d="M371.91,224.32H333.67v38.25a4.52,4.52,0,0,0,4.52,4.53h38.25V228.85A4.53,4.53,0,0,0,371.91,224.32Z"/><path class="cls-3" d="M382.43,273.08H338.19a10.52,10.52,0,0,1-10.51-10.51V218.34h44.23a10.52,10.52,0,0,1,10.52,10.51Zm-42.78-12h30.8v-30.8h-30.8Z"/><path class="cls-3" d="M182.61,271.47H148.46a8.84,8.84,0,0,1-8.83-8.83V227.55a1.84,1.84,0,0,1,3.68,0v35.09a5.16,5.16,0,0,0,5.15,5.16h34.15a1.84,1.84,0,1,1,0,3.67Z"/><path class="cls-3" d="M182.61,277.46H148.46a14.83,14.83,0,0,1-14.81-14.82V227.55a7.82,7.82,0,1,1,15.64,0v34.26h33.32a7.83,7.83,0,1,1,0,15.65Z"/><path class="cls-3" d="M182.61,334.72H148.46a8.83,8.83,0,0,1-8.83-8.82V290.81a1.84,1.84,0,0,1,3.68,0V325.9a5.16,5.16,0,0,0,5.15,5.15h34.15a1.84,1.84,0,1,1,0,3.67Z"/><path class="cls-3" d="M182.61,340.71H148.46a14.82,14.82,0,0,1-14.81-14.81V290.81a7.82,7.82,0,1,1,15.64,0v34.26h33.32a7.82,7.82,0,1,1,0,15.64Z"/><path class="cls-3" d="M245.82,271.47H211.67a8.83,8.83,0,0,1-8.82-8.83V227.55a1.84,1.84,0,0,1,3.67,0v35.09a5.16,5.16,0,0,0,5.15,5.16h34.15a1.84,1.84,0,1,1,0,3.67Z"/><path class="cls-3" d="M245.82,277.46H211.67a14.83,14.83,0,0,1-14.81-14.82V227.55a7.82,7.82,0,1,1,15.64,0v34.26h33.32a7.83,7.83,0,1,1,0,15.65Z"/><path class="cls-3" d="M245.82,334.72H211.67a8.82,8.82,0,0,1-8.82-8.82V290.81a1.84,1.84,0,1,1,3.67,0V325.9a5.16,5.16,0,0,0,5.15,5.15h34.15a1.84,1.84,0,1,1,0,3.67Z"/><path class="cls-3" d="M245.82,340.71H211.67a14.82,14.82,0,0,1-14.81-14.81V290.81a7.82,7.82,0,1,1,15.64,0v34.26h33.32a7.82,7.82,0,1,1,0,15.64Z"/><path class="cls-3" d="M309,271.47H274.8a8.84,8.84,0,0,1-8.82-8.83V227.55a1.84,1.84,0,0,1,3.67,0v35.09a5.16,5.16,0,0,0,5.15,5.16H309a1.84,1.84,0,0,1,0,3.67Z"/><path class="cls-3" d="M309,277.46H274.8A14.84,14.84,0,0,1,260,262.64V227.55a7.83,7.83,0,0,1,15.65,0v34.26H309a7.83,7.83,0,0,1,0,15.65Z"/><path class="cls-3" d="M245.82,208.21H211.67a8.83,8.83,0,0,1-8.82-8.82V164.3a1.84,1.84,0,1,1,3.67,0v35.09a5.16,5.16,0,0,0,5.15,5.15h34.15a1.84,1.84,0,1,1,0,3.67Z"/><path class="cls-3" d="M245.82,214.2H211.67a14.82,14.82,0,0,1-14.81-14.81V164.3a7.82,7.82,0,1,1,15.64,0v34.25h33.32a7.83,7.83,0,1,1,0,15.65Z"/><path class="cls-3" d="M182.61,208.21H148.46a8.84,8.84,0,0,1-8.83-8.82v-17.7a1.84,1.84,0,1,1,3.68,0v17.7a5.16,5.16,0,0,0,5.15,5.15h34.15a1.84,1.84,0,1,1,0,3.67Z"/><path class="cls-3" d="M182.61,214.2H148.46a14.82,14.82,0,0,1-14.81-14.81v-17.7a7.82,7.82,0,1,1,15.64,0v16.86h33.32a7.83,7.83,0,1,1,0,15.65Z"/><path class="cls-3" d="M309,208.21H274.8a8.83,8.83,0,0,1-8.82-8.82V164.3a1.84,1.84,0,1,1,3.67,0v35.09a5.16,5.16,0,0,0,5.15,5.15H309a1.84,1.84,0,0,1,0,3.67Z"/><path class="cls-3" d="M309,214.2H274.8A14.83,14.83,0,0,1,260,199.39V164.3a7.83,7.83,0,1,1,15.65,0v34.25H309a7.83,7.83,0,0,1,0,15.65Z"/><path class="cls-3" d="M246,145.19H211.86a8.83,8.83,0,0,1-8.82-8.82v-.32a1.84,1.84,0,0,1,3.67,0v.32a5.16,5.16,0,0,0,5.15,5.15H246a1.84,1.84,0,0,1,0,3.67Z"/><path class="cls-3" d="M246,151.18H211.86a14.83,14.83,0,0,1-14.81-14.81v-.32a7.82,7.82,0,0,1,15.63-.52H246a7.83,7.83,0,0,1,0,15.65Z"/><path class="cls-3" d="M309.15,145.19H275a8.84,8.84,0,0,1-8.83-8.82V127a1.84,1.84,0,0,1,3.67,0v9.4a5.16,5.16,0,0,0,5.16,5.15h34.15a1.84,1.84,0,1,1,0,3.67Z"/><path class="cls-3" d="M309.15,151.18H275a14.83,14.83,0,0,1-14.81-14.81V127a7.82,7.82,0,1,1,15.64,0v8.56h33.32a7.83,7.83,0,0,1,0,15.65Z"/><path class="cls-3" d="M372.17,208.21H338a8.83,8.83,0,0,1-8.82-8.82V164.3a1.84,1.84,0,1,1,3.67,0v35.09a5.16,5.16,0,0,0,5.15,5.15h34.16a1.84,1.84,0,0,1,0,3.67Z"/><path class="cls-3" d="M372.17,214.2H338a14.83,14.83,0,0,1-14.81-14.81V164.3a7.83,7.83,0,1,1,15.65,0v34.25h33.32a7.83,7.83,0,0,1,0,15.65Z"/><path class="cls-3" d="M309,334.72H274.8A8.83,8.83,0,0,1,266,325.9V290.81a1.84,1.84,0,1,1,3.67,0V325.9a5.16,5.16,0,0,0,5.15,5.15H309a1.84,1.84,0,0,1,0,3.67Z"/><path class="cls-3" d="M309,340.71H274.8A14.83,14.83,0,0,1,260,325.9V290.81a7.83,7.83,0,1,1,15.65,0v34.26H309a7.82,7.82,0,1,1,0,15.64Z"/><path class="cls-3" d="M245.82,398.18H211.67a8.83,8.83,0,0,1-8.82-8.83V354.26a1.84,1.84,0,0,1,3.67,0v35.09a5.16,5.16,0,0,0,5.15,5.16h34.15a1.84,1.84,0,1,1,0,3.67Z"/><path class="cls-3" d="M245.82,404.16H211.67a14.82,14.82,0,0,1-14.81-14.81V354.26a7.82,7.82,0,0,1,15.64,0v34.26h33.32a7.82,7.82,0,1,1,0,15.64Z"/><path class="cls-3" d="M309,398.18H274.8a8.84,8.84,0,0,1-8.82-8.83V354.26a1.84,1.84,0,0,1,3.67,0v35.09a5.16,5.16,0,0,0,5.15,5.16H309a1.84,1.84,0,0,1,0,3.67Z"/><path class="cls-3" d="M309,404.16H274.8A14.83,14.83,0,0,1,260,389.35V354.26a7.83,7.83,0,0,1,15.65,0v34.26H309a7.82,7.82,0,1,1,0,15.64Z"/><path class="cls-3" d="M356.13,398.18H337.82a8.84,8.84,0,0,1-8.82-8.83V354.26a1.84,1.84,0,0,1,3.67,0v35.09a5.16,5.16,0,0,0,5.15,5.16h18.31a1.84,1.84,0,1,1,0,3.67Z"/><path class="cls-3" d="M356.13,404.16H337.82A14.82,14.82,0,0,1,323,389.35V354.26a7.83,7.83,0,0,1,15.65,0v34.26h17.47a7.82,7.82,0,0,1,0,15.64Z"/><path class="cls-3" d="M372,271.47H337.82a8.84,8.84,0,0,1-8.82-8.83V227.55a1.84,1.84,0,0,1,3.67,0v35.09a5.16,5.16,0,0,0,5.15,5.16H372a1.84,1.84,0,0,1,0,3.67Z"/><path class="cls-3" d="M372,277.46H337.82A14.83,14.83,0,0,1,323,262.64V227.55a7.83,7.83,0,0,1,15.65,0v34.26H372a7.83,7.83,0,0,1,0,15.65Z"/><path class="cls-3" d="M372,334.72H337.82A8.83,8.83,0,0,1,329,325.9V290.81a1.84,1.84,0,1,1,3.67,0V325.9a5.16,5.16,0,0,0,5.15,5.15H372a1.84,1.84,0,0,1,0,3.67Z"/><path class="cls-3" d="M372,340.71H337.82A14.82,14.82,0,0,1,323,325.9V290.81a7.83,7.83,0,1,1,15.65,0v34.26H372a7.82,7.82,0,0,1,0,15.64Z"/><path class="cls-3" d="M409.92,271.47h-8.65a8.84,8.84,0,0,1-8.83-8.83V227.55a1.84,1.84,0,0,1,3.68,0v35.09a5.16,5.16,0,0,0,5.15,5.16h8.65a1.84,1.84,0,0,1,0,3.67Z"/><path class="cls-3" d="M409.92,277.46h-8.65a14.83,14.83,0,0,1-14.81-14.82V227.55a7.82,7.82,0,0,1,15.64,0v34.26h7.82a7.83,7.83,0,0,1,0,15.65Z"/><path class="cls-3" d="M401.27,334.72h-.09a8.83,8.83,0,0,1-8.74-8.82V290.81a1.84,1.84,0,0,1,3.68,0V325.9a5.16,5.16,0,0,0,5.15,5.15,1.84,1.84,0,0,1,0,3.67Z"/><path class="cls-3" d="M401.27,340.71h-.17a14.85,14.85,0,0,1-14.64-14.81V290.81a7.82,7.82,0,1,1,15.64,0v34.3a7.82,7.82,0,0,1-.83,15.6Z"/><path class="cls-3" d="M246.1,435.24h-.19a175.49,175.49,0,0,1-36.32-7,9.57,9.57,0,0,1-6.74-9.35v-1a1.84,1.84,0,0,1,3.67,0v1a5.91,5.91,0,0,0,4.11,5.82,171.7,171.7,0,0,0,35.65,6.85,1.84,1.84,0,0,1-.18,3.67Z"/><path class="cls-3" d="M246.1,441.22a7.26,7.26,0,0,1-.8,0A180.33,180.33,0,0,1,207.9,434a15.5,15.5,0,0,1-11-15.09v-1a7.82,7.82,0,0,1,15.64,0v1a.52.52,0,0,0,0,.14,166.72,166.72,0,0,0,34.37,6.58,7.82,7.82,0,0,1-.79,15.6Z"/><path class="cls-3" d="M275.23,435.21a8.92,8.92,0,0,1-5.76-2.14,9.4,9.4,0,0,1-3.3-7.15v-7.76a1.84,1.84,0,1,1,3.67,0v7.76a5.73,5.73,0,0,0,2,4.36,5.08,5.08,0,0,0,4.15,1.2c14.2-2.28,20.31-3.44,33.11-7.48a1.83,1.83,0,0,1,1.1,3.5c-13,4.11-19.23,5.29-33.62,7.6A8,8,0,0,1,275.23,435.21Z"/><path class="cls-3" d="M275.23,441.2a14.9,14.9,0,0,1-9.64-3.57,15.39,15.39,0,0,1-5.4-11.71v-7.76a7.82,7.82,0,1,1,15.64,0v7.28c13.33-2.15,19.3-3.31,31.48-7.15A7.82,7.82,0,1,1,312,433.21c-13.41,4.23-19.76,5.44-34.47,7.8A14,14,0,0,1,275.23,441.2Z"/><path class="cls-3" d="M122.36,334.58h-4.24a9.31,9.31,0,0,1-8.88-6.43,165.12,165.12,0,0,1-7.84-40.68,1.84,1.84,0,0,1,3.67-.23A161.26,161.26,0,0,0,112.73,327a5.66,5.66,0,0,0,5.39,3.9h4.24a1.84,1.84,0,1,1,0,3.67Z"/><path class="cls-3" d="M122.36,340.57h-4.24A15.29,15.29,0,0,1,103.55,330a170.89,170.89,0,0,1-8.12-42.16,7.82,7.82,0,0,1,15.61-1,155.6,155.6,0,0,0,7.3,38.07h4a7.83,7.83,0,1,1,0,15.65Z"/><path class="cls-3" d="M121.6,271.54H110.93a9.51,9.51,0,0,1-9.47-10.64,164.23,164.23,0,0,1,8.88-37.21,1.84,1.84,0,0,1,3.45,1.26,161.54,161.54,0,0,0-8.69,36.39,5.86,5.86,0,0,0,5.83,6.53H121.6a1.84,1.84,0,1,1,0,3.67Z"/><path class="cls-3" d="M121.6,277.53H110.93A15.53,15.53,0,0,1,95.51,260.2a170.5,170.5,0,0,1,9.21-38.57A7.82,7.82,0,0,1,119.41,227a155.48,155.48,0,0,0-8.35,34.88H121.6a7.82,7.82,0,1,1,0,15.64Z"/><path class="cls-3" d="M182.18,397.94H160a8.82,8.82,0,0,1-5.94-2.28c-4.16-3.75-8.18-7.75-11.95-11.88a8.83,8.83,0,0,1-2.32-6V355.56a1.84,1.84,0,1,1,3.67,0v22.25a5.16,5.16,0,0,0,1.36,3.5c3.69,4,7.63,7.95,11.7,11.63a5.16,5.16,0,0,0,3.48,1.33h22.18a1.84,1.84,0,0,1,0,3.67Z"/><path class="cls-3" d="M182.18,403.93H160a14.82,14.82,0,0,1-10-3.83c-4.29-3.88-8.45-8-12.35-12.28a14.81,14.81,0,0,1-3.88-10V355.56a7.82,7.82,0,1,1,15.64,0V377.5c3.43,3.74,7.08,7.37,10.85,10.78h21.88a7.83,7.83,0,0,1,0,15.65Z"/><path class="cls-40" d="M236.69,449.59h25.6V97.4h-25.6c-92.89,0-168.2,78.84-168.2,176.09s75.31,176.1,168.2,176.1"/><circle class="cls-41" cx="261.73" cy="273.49" r="176.09"/><path class="cls-42" d="M207.51,410.12v8.93a4.83,4.83,0,0,0,3.29,4.58c10.91,3.66,27.39,6.51,39.24,7.64a4.82,4.82,0,0,0,5.27-4.8V410.12a4.82,4.82,0,0,0-4.82-4.82H212.34A4.82,4.82,0,0,0,207.51,410.12Z"/><path class="cls-42" d="M124.43,278.94H110a4.53,4.53,0,0,0-4.5,5c1.17,12.05,4.49,32.18,8.27,43.25a4.27,4.27,0,0,0,4.09,3.07h6.53a4.53,4.53,0,0,0,4.53-4.53V283.47A4.53,4.53,0,0,0,124.43,278.94Z"/><path class="cls-42" d="M255.31,136.16V119.72a4.52,4.52,0,0,0-4.94-4.5c-12,1.12-28.7,3.63-39.77,7.35a4.54,4.54,0,0,0-3.09,4.3v9.29a4.53,4.53,0,0,0,4.53,4.53h38.75A4.52,4.52,0,0,0,255.31,136.16Z"/><path class="cls-42" d="M124.43,215.77H121a4.52,4.52,0,0,0-4.28,3.06c-3.79,11.07-9.06,31.25-10.24,43.29a4.53,4.53,0,0,0,4.51,5h13.4a4.53,4.53,0,0,0,4.53-4.53V220.29A4.52,4.52,0,0,0,124.43,215.77Z"/><path class="cls-42" d="M270.69,410.12V426a4.83,4.83,0,0,0,5.31,4.81c11.86-1.24,28.34-5.55,39.24-9.31a5.18,5.18,0,0,0,3.21-4.86l0-6.47a4.82,4.82,0,0,0-4.83-4.82H275.52A4.82,4.82,0,0,0,270.69,410.12Z"/><path class="cls-42" d="M318.49,136.16V127.3a4.52,4.52,0,0,0-3.05-4.28c-11.06-3.84-27.74-6.45-39.78-7.68a4.54,4.54,0,0,0-5,4.51v16.31a4.53,4.53,0,0,0,4.53,4.53H314A4.53,4.53,0,0,0,318.49,136.16Z"/><path class="cls-42" d="M401.57,330.22h3.53a4.52,4.52,0,0,0,4.28-3.07c3.78-11.07,7.88-31.2,9.05-43.25a4.54,4.54,0,0,0-4.51-5H401.57a4.53,4.53,0,0,0-4.53,4.53v42.22A4.53,4.53,0,0,0,401.57,330.22Z"/><path class="cls-42" d="M192.14,199.34V157.12a4.53,4.53,0,0,0-4.53-4.53H160.12a4.53,4.53,0,0,0-3,1.16,154.84,154.84,0,0,0-11.57,11.49,4.54,4.54,0,0,0-1.18,3v31.05a4.52,4.52,0,0,0,4.52,4.53h38.75A4.53,4.53,0,0,0,192.14,199.34Z"/><path class="cls-42" d="M401.57,267.24h15a4.54,4.54,0,0,0,4.51-5c-1.18-12-6.45-32.37-10.24-43.44a4.3,4.3,0,0,0-4.09-3.06H401c-2.5,0-4,2-4,4.52v42.42A4.53,4.53,0,0,0,401.57,267.24Z"/><rect class="cls-42" x="270.69" y="342.12" width="47.8" height="51.28" rx="4.83"/><path class="cls-42" d="M333.87,346.94v41.82a4.82,4.82,0,0,0,4.82,4.83l26-.19a4.88,4.88,0,0,0,3.23-1.24,158.44,158.44,0,0,0,12.55-12.84,4.83,4.83,0,0,0,1.21-3.2V346.94a4.82,4.82,0,0,0-4.82-4.82H338.69A4.82,4.82,0,0,0,333.87,346.94Z"/><rect class="cls-42" x="207.51" y="278.94" width="47.8" height="51.28" rx="4.53"/><path class="cls-42" d="M187.31,342.12H149.16a4.82,4.82,0,0,0-4.82,4.82v30.79a4.87,4.87,0,0,0,1.25,3.25,158.22,158.22,0,0,0,11.25,11.18,4.88,4.88,0,0,0,3.23,1.24h27.24a4.83,4.83,0,0,0,4.83-4.83V346.94A4.82,4.82,0,0,0,187.31,342.12Z"/><path class="cls-42" d="M250.49,342.12h-38a5,5,0,0,0-5,4.82v41.82a5,5,0,0,0,5,4.83h38a4.82,4.82,0,0,0,4.82-4.83V346.94A4.82,4.82,0,0,0,250.49,342.12Z"/><rect class="cls-42" x="144.34" y="278.94" width="47.8" height="51.28" rx="4.53"/><rect class="cls-42" x="144.34" y="215.77" width="47.8" height="51.28" rx="4.53"/><rect class="cls-42" x="207.51" y="215.77" width="47.8" height="51.28" rx="4.53"/><rect class="cls-42" x="270.69" y="152.59" width="47.8" height="51.28" rx="4.53"/><path class="cls-42" d="M364.62,152.59H338.39a4.52,4.52,0,0,0-4.52,4.53l.09,42.31a4.53,4.53,0,0,0,4.53,4.53h38.74a4.53,4.53,0,0,0,4.53-4.53l-.1-29.72a4.55,4.55,0,0,0-1.13-3,154.43,154.43,0,0,0-12.89-12.95A4.51,4.51,0,0,0,364.62,152.59Z"/><rect class="cls-42" x="333.87" y="278.94" width="47.8" height="51.28" rx="4.53"/><rect class="cls-42" x="207.51" y="152.59" width="47.8" height="51.28" rx="4.53"/><rect class="cls-42" x="270.69" y="215.77" width="47.8" height="51.28" rx="4.53"/><rect class="cls-42" x="270.69" y="278.94" width="47.8" height="51.28" rx="4.53"/><rect class="cls-42" x="333.87" y="215.77" width="47.8" height="51.28" rx="4.53"/><path class="cls-40" d="M207.5,413.85v5.26a4.82,4.82,0,0,0,3.29,4.57,153.5,153.5,0,0,0,39.49,7.67V418.68a4.83,4.83,0,0,0-4.83-4.83Z"/><path class="cls-40" d="M119.4,287.5H105.9a153.18,153.18,0,0,0,7.9,39.71,4.51,4.51,0,0,0,4.28,3.06h5.84V292A4.52,4.52,0,0,0,119.4,287.5Z"/><path class="cls-40" d="M250.28,140.74V128.28a4.54,4.54,0,0,0-4.95-4.51,153.26,153.26,0,0,0-37.83,8.44v4a4.52,4.52,0,0,0,4.53,4.52Z"/><path class="cls-40" d="M119.4,224.32h-4.47a153.67,153.67,0,0,0-8.62,37.81,4.54,4.54,0,0,0,4.51,5h13.1V228.85A4.52,4.52,0,0,0,119.4,224.32Z"/><path class="cls-40" d="M270.68,413.85V426a4.82,4.82,0,0,0,5.31,4.8,153.91,153.91,0,0,0,37.46-8.73v-3.4a4.82,4.82,0,0,0-4.82-4.83Z"/><path class="cls-40" d="M313.45,140.74v-4.89a4.51,4.51,0,0,0-3-4.27,153.45,153.45,0,0,0-39.73-8.11v12.75a4.52,4.52,0,0,0,4.52,4.52Z"/><path class="cls-40" d="M401.61,330.27h3.2a153.62,153.62,0,0,0,8.58-37.81,4.52,4.52,0,0,0-4.51-5H397v38.2A4.58,4.58,0,0,0,401.61,330.27Z"/><path class="cls-40" d="M187.1,203.92V165.67a4.52,4.52,0,0,0-4.53-4.52H160.11a4.57,4.57,0,0,0-3,1.15,155.67,155.67,0,0,0-12.75,12.81v24.28a4.52,4.52,0,0,0,4.52,4.53Z"/><path class="cls-40" d="M401.56,267.1h12.22a153.47,153.47,0,0,0-7.94-39.71,4.52,4.52,0,0,0-4.28-3.07H397v38.25A4.53,4.53,0,0,0,401.56,267.1Z"/><path class="cls-40" d="M308.63,350.68H270.68v37.94a4.82,4.82,0,0,0,4.82,4.83h37.95V355.5A4.82,4.82,0,0,0,308.63,350.68Z"/><path class="cls-40" d="M333.85,350.68v37.94a4.83,4.83,0,0,0,4.83,4.83h20.95a4.83,4.83,0,0,0,3.23-1.24,154.55,154.55,0,0,0,13.77-14V355.5a4.82,4.82,0,0,0-4.83-4.82Z"/><path class="cls-40" d="M212,330.27h38.25V292a4.53,4.53,0,0,0-4.53-4.53H207.5v38.25A4.52,4.52,0,0,0,212,330.27Z"/><path class="cls-40" d="M182.27,350.68H144.33v27.1a4.82,4.82,0,0,0,1.25,3.25,154.1,154.1,0,0,0,11.25,11.18,4.79,4.79,0,0,0,3.23,1.24h27V355.5A4.82,4.82,0,0,0,182.27,350.68Z"/><path class="cls-40" d="M245.45,350.68H207.5v37.94a4.83,4.83,0,0,0,4.83,4.83h37.95V355.5A4.82,4.82,0,0,0,245.45,350.68Z"/><path class="cls-40" d="M148.85,330.27H187.1V292a4.53,4.53,0,0,0-4.53-4.53H144.33v38.25A4.52,4.52,0,0,0,148.85,330.27Z"/><path class="cls-40" d="M182.57,224.32H144.33v38.25a4.52,4.52,0,0,0,4.52,4.53H187.1V228.85A4.53,4.53,0,0,0,182.57,224.32Z"/><path class="cls-40" d="M245.75,224.32H207.5v38.25A4.53,4.53,0,0,0,212,267.1h38.25V228.85A4.53,4.53,0,0,0,245.75,224.32Z"/><path class="cls-40" d="M275.2,203.92h38.25V165.67a4.52,4.52,0,0,0-4.52-4.52H270.68v38.24A4.52,4.52,0,0,0,275.2,203.92Z"/><path class="cls-40" d="M359.58,161.15H333.85v38.24a4.53,4.53,0,0,0,4.53,4.53h38.25V178.26a4.54,4.54,0,0,0-1.14-3,154.55,154.55,0,0,0-12.89-13A4.53,4.53,0,0,0,359.58,161.15Z"/><path class="cls-40" d="M338.38,330.27h38.25V292a4.53,4.53,0,0,0-4.53-4.53H333.85v38.25A4.52,4.52,0,0,0,338.38,330.27Z"/><path class="cls-40" d="M212,203.92h38.25V165.67a4.52,4.52,0,0,0-4.53-4.52H207.5v38.24A4.53,4.53,0,0,0,212,203.92Z"/><path class="cls-40" d="M308.93,224.32H270.68v38.25a4.52,4.52,0,0,0,4.52,4.53h38.25V228.85A4.52,4.52,0,0,0,308.93,224.32Z"/><path class="cls-40" d="M275.2,330.27h38.25V292a4.52,4.52,0,0,0-4.52-4.53H270.68v38.25A4.52,4.52,0,0,0,275.2,330.27Z"/><path class="cls-40" d="M372.1,224.32H333.85v38.25a4.53,4.53,0,0,0,4.53,4.53h38.25V228.85A4.53,4.53,0,0,0,372.1,224.32Z"/><path class="cls-43" d="M182.8,271.47H148.65a8.84,8.84,0,0,1-8.83-8.83V227.55a1.84,1.84,0,0,1,3.67,0v35.09a5.16,5.16,0,0,0,5.16,5.16H182.8a1.84,1.84,0,1,1,0,3.67Z"/><path class="cls-43" d="M182.8,334.72H148.65a8.83,8.83,0,0,1-8.83-8.82V290.81a1.84,1.84,0,1,1,3.67,0V325.9a5.16,5.16,0,0,0,5.16,5.15H182.8a1.84,1.84,0,1,1,0,3.67Z"/><path class="cls-43" d="M246,271.47H211.86a8.84,8.84,0,0,1-8.83-8.83V227.55a1.84,1.84,0,0,1,3.67,0v35.09a5.17,5.17,0,0,0,5.16,5.16H246a1.84,1.84,0,1,1,0,3.67Z"/><path class="cls-43" d="M246,334.72H211.86A8.83,8.83,0,0,1,203,325.9V290.81a1.84,1.84,0,1,1,3.67,0V325.9a5.16,5.16,0,0,0,5.16,5.15H246a1.84,1.84,0,1,1,0,3.67Z"/><path class="cls-43" d="M309.15,271.47H275a8.84,8.84,0,0,1-8.82-8.83V227.55a1.84,1.84,0,0,1,3.67,0v35.09A5.16,5.16,0,0,0,275,267.8h34.16a1.84,1.84,0,0,1,0,3.67Z"/><path class="cls-43" d="M246,208.21H211.86a8.84,8.84,0,0,1-8.83-8.82V164.3a1.84,1.84,0,1,1,3.67,0v35.09a5.16,5.16,0,0,0,5.16,5.15H246a1.84,1.84,0,1,1,0,3.67Z"/><path class="cls-43" d="M182.8,208.21H148.65a8.84,8.84,0,0,1-8.83-8.82v-17.7a1.84,1.84,0,1,1,3.67,0v17.7a5.16,5.16,0,0,0,5.16,5.15H182.8a1.84,1.84,0,1,1,0,3.67Z"/><path class="cls-43" d="M309.15,208.21H275a8.83,8.83,0,0,1-8.82-8.82V164.3a1.84,1.84,0,1,1,3.67,0v35.09a5.16,5.16,0,0,0,5.15,5.15h34.16a1.84,1.84,0,0,1,0,3.67Z"/><path class="cls-43" d="M246.21,145.19H212.05a8.83,8.83,0,0,1-8.82-8.82v-.32a1.84,1.84,0,0,1,3.67,0v.32a5.16,5.16,0,0,0,5.15,5.15h34.16a1.84,1.84,0,0,1,0,3.67Z"/><path class="cls-43" d="M309.34,145.19H275.18a8.83,8.83,0,0,1-8.82-8.82V127a1.84,1.84,0,0,1,3.67,0v9.4a5.16,5.16,0,0,0,5.15,5.15h34.16a1.84,1.84,0,0,1,0,3.67Z"/><path class="cls-43" d="M372.36,208.21H338.2a8.83,8.83,0,0,1-8.82-8.82V164.3a1.84,1.84,0,1,1,3.67,0v35.09a5.16,5.16,0,0,0,5.15,5.15h34.16a1.84,1.84,0,0,1,0,3.67Z"/><path class="cls-43" d="M309.15,334.72H275a8.83,8.83,0,0,1-8.82-8.82V290.81a1.84,1.84,0,1,1,3.67,0V325.9a5.16,5.16,0,0,0,5.15,5.15h34.16a1.84,1.84,0,0,1,0,3.67Z"/><path class="cls-43" d="M246,398.18H211.86a8.84,8.84,0,0,1-8.83-8.83V354.26a1.84,1.84,0,0,1,3.67,0v35.09a5.17,5.17,0,0,0,5.16,5.16H246a1.84,1.84,0,1,1,0,3.67Z"/><path class="cls-43" d="M309.15,398.18H275a8.84,8.84,0,0,1-8.82-8.83V354.26a1.84,1.84,0,0,1,3.67,0v35.09a5.16,5.16,0,0,0,5.15,5.16h34.16a1.84,1.84,0,0,1,0,3.67Z"/><path class="cls-43" d="M356.32,398.18H338a8.84,8.84,0,0,1-8.83-8.83V354.26a1.84,1.84,0,0,1,3.68,0v35.09a5.16,5.16,0,0,0,5.15,5.16h18.31a1.84,1.84,0,0,1,0,3.67Z"/><path class="cls-43" d="M372.16,271.47H338a8.84,8.84,0,0,1-8.83-8.83V227.55a1.84,1.84,0,0,1,3.68,0v35.09A5.16,5.16,0,0,0,338,267.8h34.15a1.84,1.84,0,1,1,0,3.67Z"/><path class="cls-43" d="M372.16,334.72H338a8.83,8.83,0,0,1-8.83-8.82V290.81a1.84,1.84,0,0,1,3.68,0V325.9a5.16,5.16,0,0,0,5.15,5.15h34.15a1.84,1.84,0,1,1,0,3.67Z"/><path class="cls-43" d="M410.11,271.47h-8.65a8.84,8.84,0,0,1-8.83-8.83V227.55a1.84,1.84,0,0,1,3.67,0v35.09a5.16,5.16,0,0,0,5.16,5.16h8.65a1.84,1.84,0,0,1,0,3.67Z"/><path class="cls-43" d="M401.46,334.72h-.09a8.83,8.83,0,0,1-8.74-8.82V290.81a1.84,1.84,0,1,1,3.67,0V325.9a5.16,5.16,0,0,0,5.16,5.15,1.84,1.84,0,0,1,0,3.67Z"/><path class="cls-43" d="M246.29,435.24h-.19a175.49,175.49,0,0,1-36.32-7A9.56,9.56,0,0,1,203,418.9v-1a1.84,1.84,0,0,1,3.67,0v1a5.92,5.92,0,0,0,4.11,5.82,171.91,171.91,0,0,0,35.66,6.85,1.84,1.84,0,0,1-.18,3.67Z"/><path class="cls-43" d="M275.41,435.21a8.91,8.91,0,0,1-5.75-2.14,9.37,9.37,0,0,1-3.3-7.15v-7.76a1.84,1.84,0,1,1,3.67,0v7.76a5.72,5.72,0,0,0,2,4.36,5.11,5.11,0,0,0,4.16,1.2c14.2-2.28,20.31-3.44,33.1-7.48a1.84,1.84,0,1,1,1.11,3.5c-13,4.11-19.23,5.29-33.63,7.6A7.83,7.83,0,0,1,275.41,435.21Z"/><path class="cls-43" d="M122.55,334.58h-4.24a9.32,9.32,0,0,1-8.89-6.43,165.57,165.57,0,0,1-7.83-40.68,1.84,1.84,0,0,1,3.67-.23A161.24,161.24,0,0,0,112.91,327a5.67,5.67,0,0,0,5.4,3.9h4.24a1.84,1.84,0,1,1,0,3.67Z"/><path class="cls-43" d="M121.79,271.54H111.12a9.53,9.53,0,0,1-9.48-10.64,164.78,164.78,0,0,1,8.89-37.21A1.83,1.83,0,0,1,114,225a161.52,161.52,0,0,0-8.68,36.39,5.85,5.85,0,0,0,1.43,4.56,5.91,5.91,0,0,0,4.4,2h10.67a1.84,1.84,0,1,1,0,3.67Z"/><path class="cls-43" d="M182.37,397.94H160.18a8.85,8.85,0,0,1-5.94-2.28c-4.15-3.75-8.17-7.75-12-11.88a8.82,8.82,0,0,1-2.31-6V355.56a1.84,1.84,0,1,1,3.67,0v22.25a5.2,5.2,0,0,0,1.35,3.5c3.7,4,7.63,7.95,11.7,11.63a5.18,5.18,0,0,0,3.48,1.33h22.19a1.84,1.84,0,0,1,0,3.67Z"/><g class="cls-44"><g class="cls-30"><path class="cls-45" d="M464.27,261.63c0-107.53-87-194.75-194.46-195.09H241.44c-102.92,0-186.35,87.35-186.35,195.09s83.43,195.1,186.35,195.1h28.37C377.27,456.38,464.27,369.17,464.27,261.63Z"/></g><g class="cls-32"><path class="cls-3" d="M22.82,55.31v335.1H495.91V55.31Zm383,204.2c-17.82-18.59-18.44-39.79-41.49-44s-2.25,79.21,6.13,99.33-12.84,54.93-46.37,36.47,9.43-98.28,9.43-124.57-52.87-32.08-81.15-20.85,5.54,54.44,9.73,84.66-23.92,43.78-52.21,24.29,12.58-110.8-21-114.66-17.81,40.34-40.86,59.29S76,303.92,76,253.91c0-7.38,5-164.77,178.55-164.77s186.63,150.55,188.12,173.3S423.61,278.09,405.8,259.51Z"/></g></g><path class="cls-3" d="M339.2,374.67a44.24,44.24,0,0,1-21.47-5.75c-25.56-14.14-11.74-58.53-.64-94.19,4.76-15.29,9.26-29.74,9.26-38,0-7.48-3.32-13.52-9.87-18s-15.89-6.93-26.58-7.21a80.56,80.56,0,0,0-31.23,5.5c-8.07,3.22-11.25,9.14-10.31,19.17.88,9.46,5.28,20.85,9.94,32.91,4.45,11.53,9.06,23.45,10.51,34,1.79,12.93-3.62,24.29-14.81,31.17-7.33,4.5-16.69,6.73-26.35,6.27a55.31,55.31,0,0,1-28.87-9.86C183.39,320,186.1,292,188.72,264.87c1.35-14,2.63-27.16,1.39-37.21-1.31-10.55-5-15.61-12.08-16.43-10.82-1.25-15.11,2.93-17.4,6.18-3.47,4.94-5.1,12.39-6.84,20.28-2.68,12.22-5.72,26.07-16.53,35a138.39,138.39,0,0,1-31.71,19.71c-13.88,6-25,7.06-33.17,3.23-9.17-4.32-13.82-14.6-13.82-30.56,0-.45.29-45.73,25.46-90.13,14-24.63,32.87-44.22,56.18-58.23,28.88-17.36,64.65-26.16,106.33-26.16,41.84,0,78,8.5,107.6,25.26a164.53,164.53,0,0,1,59.25,57.48,209.86,209.86,0,0,1,25.16,61.83,232.27,232.27,0,0,1,5.9,38.71c.39,6-.45,13.69-6.69,16.43-4.17,1.83-9.93.9-16.64-2.69-6.1-3.25-12.65-8.46-18.95-15.07C394,264,391,255.07,388.27,247.22c-3.52-10.28-6.07-17.71-18.64-20a4.37,4.37,0,0,0-4.67,1.53c-4.32,5.36-3.9,22.56,1.14,47.22,4.12,20.14,10.75,42.23,14.78,51.94,2.2,5.31,2.09,11.59-.34,18.14A43.59,43.59,0,0,1,368.67,363a45.42,45.42,0,0,1-22.77,11.12A41.86,41.86,0,0,1,339.2,374.67ZM287.85,206.93c12.08,0,23.35,2.71,31.2,8s11.89,12.79,11.89,21.75-4.39,23.07-9.47,39.38c-10.61,34.08-23.81,76.48-1.52,88.82a38.15,38.15,0,0,0,25.2,4.68,40.82,40.82,0,0,0,20.47-10c10.06-9,14.59-21.29,11-29.91-4.11-9.91-10.85-32.36-15-52.78-5.56-27.14-5.63-44.3-.22-51a9,9,0,0,1,9.06-3.17c7,1.27,11.88,4,15.46,8.62,3.15,4,4.87,9.08,6.7,14.4,2.54,7.41,5.42,15.8,12.87,23.61,5.88,6.16,12.2,11.2,17.79,14.19,5.35,2.86,9.84,3.76,12.64,2.53,3.8-1.67,4.25-7.41,3.95-11.93a227.31,227.31,0,0,0-5.78-37.95c-5.33-22.34-13.6-42.69-24.6-60.48a160,160,0,0,0-57.61-55.9C323,103.43,287.56,95.14,246.53,95.14c-40.83,0-75.81,8.58-104,25.5-22.64,13.6-41,32.63-54.56,56.56-24.58,43.37-24.87,87.43-24.87,87.87,0,14,3.77,22.91,11.19,26.41,6.8,3.2,17,2.06,29.4-3.3a133,133,0,0,0,30.61-19c9.59-7.92,12.33-20.39,15-32.44,1.84-8.35,3.57-16.24,7.57-21.93,4.64-6.61,11.73-9.25,21.67-8.1a15.72,15.72,0,0,1,11.55,6.69c2.34,3.33,3.83,7.82,4.56,13.73,1.3,10.55,0,24-1.38,38.22-1.25,13-2.55,26.37-1.76,37.59.86,12.14,4.08,20,9.87,24a50.66,50.66,0,0,0,26.47,9c8.75.42,17.18-1.57,23.73-5.6,9.72-6,14.22-15.43,12.68-26.63-1.38-10-5.89-21.66-10.25-33-4.77-12.36-9.29-24-10.23-34.13-.53-5.69.14-10.32,2-14.17,2.14-4.33,5.89-7.59,11.14-9.69A84.65,84.65,0,0,1,287.85,206.93Z"/><path class="cls-43" d="M430.05,255.57a3.7,3.7,0,0,1-3.65-3.15A169.17,169.17,0,0,0,233.78,110.19a3.7,3.7,0,1,1-1.1-7.31,176.56,176.56,0,0,1,201,148.44,3.71,3.71,0,0,1-3.1,4.21A5.46,5.46,0,0,1,430.05,255.57Z"/><path class="cls-43" d="M250,291.19a3.68,3.68,0,0,1-3.35-2.14c-.67-1.44-16.34-35.64-17.24-66.18a3.69,3.69,0,0,1,7.38-.22c.86,29,16.41,63,16.57,63.3a3.7,3.7,0,0,1-3.36,5.24Z"/><path class="cls-43" d="M119.93,271.59a5.29,5.29,0,0,1-1-.09,3.69,3.69,0,0,1,1.08-7.3c.36,0,3.42-.47,7.85-6.85,4.53-6.53,11.19-20.48,17.21-49.88,1.15-5.61,5.43-9.42,12.05-10.73a29.57,29.57,0,0,1,8.79-.33,3.69,3.69,0,0,1-1,7.32,22.7,22.7,0,0,0-6.55.29c-2.28.47-5.39,1.49-6.1,4.93-5.44,26.59-12.2,45.06-20.09,54.92C126.73,270.67,122.05,271.59,119.93,271.59Zm.31-7.35h0Zm0,0Z"/><circle class="cls-43" cx="255.31" cy="299.76" r="4.82"/><path class="cls-43" d="M364.08,324.05a3.71,3.71,0,0,1-3.46-2.38A324.54,324.54,0,0,1,350.9,290c-7.86-30.82-8.89-52.43-8.37-65.13a3.69,3.69,0,1,1,7.38.3c-1.73,42.44,17.43,93.4,17.62,93.91a3.7,3.7,0,0,1-2.14,4.77A3.79,3.79,0,0,1,364.08,324.05Z"/><circle class="cls-43" cx="430.77" cy="266.64" r="4.82"/><circle class="cls-14" cx="184.87" cy="266.52" r="42.31"/><path class="cls-3" d="M184.87,311.13a44.61,44.61,0,1,1,44.61-44.61A44.66,44.66,0,0,1,184.87,311.13Zm0-84.63a40,40,0,1,0,40,40A40.07,40.07,0,0,0,184.87,226.5Z"/><circle class="cls-14" cx="336.9" cy="266.52" r="42.31"/><path class="cls-3" d="M336.9,311.13a44.61,44.61,0,1,1,44.61-44.61A44.66,44.66,0,0,1,336.9,311.13Zm0-84.63a40,40,0,1,0,40,40A40.07,40.07,0,0,0,336.9,226.5Z"/><circle class="cls-3" cx="177.11" cy="265" r="20.5"/><circle class="cls-3" cx="328.69" cy="265" r="20.5"/><circle class="cls-14" cx="172.77" cy="256.51" r="5.46"/><circle class="cls-14" cx="323.23" cy="256.51" r="5.46"/><path class="cls-46" d="M158.42,151.9l-24.92-22c-7.26-6.4-6.15-29.39,4.27-36.92L175,78.78c10.41-7.53,24.87-8.46,32.13-2.06l28.47,10.57c7.26,6.4,1.12,29.18-9.29,36.71l-35.73,25.84C180.14,157.37,165.68,158.29,158.42,151.9Z"/><path class="cls-47" d="M160.58,136.66l-24.92-22c-7.26-6.4-4.68-17.79,5.73-25.32l35.74-25.84C187.54,56,202,55.09,209.26,61.48l24.91,22c7.26,6.4,4.68,17.79-5.73,25.32L192.71,134.6C182.3,142.13,167.84,143.06,160.58,136.66Z"/><path class="cls-3" d="M173.21,159.69c-5.85,0-11-1.69-14.52-4.83l-24.92-22c-3.13-2.76-5-7.87-5.37-14.39-.47-9.15,2.33-18.44,7.15-23.72a30.15,30.15,0,0,1,6.29-6l35.73-25.84A35.84,35.84,0,0,1,196,56.24c6.7-.43,12.58,1.26,16.55,4.76l24.91,22a14,14,0,0,1,4.89,10.38c1,4.91.26,11.47-2.17,18.06-2.53,6.85-6.46,12.57-10.78,15.7l-35.74,25.84a35.84,35.84,0,0,1-18.44,6.68C174.55,159.66,173.87,159.69,173.21,159.69Zm24.84-98.91a31.22,31.22,0,0,0-17.8,5.86L144.52,92.48a25.61,25.61,0,0,0-5.39,5.18l-.14.16c-4.06,4.4-6.43,12.43-6,20.46.26,5.12,1.69,9.3,3.82,11.18l24.92,22c6.41,5.65,19.81,4.64,29.27-2.2l35.73-25.84c3.6-2.6,6.94-7.55,9.16-13.57,2.14-5.79,2.87-11.66,2-15.7l-.05-.23v-.25a9.57,9.57,0,0,0-3.34-7.23l-24.92-22C206.73,62,202.6,60.78,198.05,60.78Z"/><path class="cls-14" d="M162,90.57a2.3,2.3,0,0,1-1.4-4.11c.85-.66,20.92-16.11,27.66-20,7.51-4.36,16.37-1.4,16.74-1.27a2.29,2.29,0,0,1-1.48,4.34c-.1,0-7.3-2.39-13,.89-6.48,3.77-27,19.53-27.16,19.69A2.28,2.28,0,0,1,162,90.57Z"/><circle class="cls-14" cx="156.56" cy="91.97" r="2.37"/><g class="cls-48"><g class="cls-49"><path class="cls-11" d="M212,401.05c0-62.41,28.24-113,63.08-113s63.08,50.59,63.08,113Z"/><path class="cls-12" d="M349.43,403.28s-42.32-28.57-71.17-28.95c-17.79-.23-71.17,0-71.17,0V329.07H349.43Z"/><rect class="cls-13" x="210.04" y="274.13" width="125.78" height="85.5"/><path class="cls-14" d="M169,358.4c0-20.44,24.55-37,54.83-37s54.83,16.56,54.83,37Z"/></g></g><path class="cls-3" d="M266,405.11c-7,0-13.43-4.38-18.2-12.34-4.55-7.59-7-17.64-7-28.29s2.5-20.69,7-28.28c4.77-8,11.23-12.34,18.2-12.34s13.43,4.38,18.2,12.34c4.55,7.59,7.05,17.64,7.05,28.28s-2.5,20.7-7.05,28.29C279.42,400.73,273,405.11,266,405.11Zm0-76.67c-5.29,0-10.36,3.59-14.27,10.12-4.12,6.88-6.39,16.09-6.39,25.92s2.27,19,6.39,25.93c3.91,6.52,9,10.12,14.27,10.12s10.36-3.6,14.27-10.12c4.12-6.89,6.4-16.1,6.4-25.93s-2.28-19-6.4-25.92C276.35,332,271.28,328.44,266,328.44Z"/><path class="cls-3" d="M288.36,360.85H244.31a2.3,2.3,0,1,1,0-4.59h44.05a2.3,2.3,0,1,1,0,4.59Z"/><path class="cls-3" d="M266.31,360.85a2.3,2.3,0,0,1-2.3-2.29V328.38a2.3,2.3,0,1,1,4.59,0v30.18A2.3,2.3,0,0,1,266.31,360.85Z"/></g></svg>