<svg xmlns="http://www.w3.org/2000/svg" xmlns:xlink="http://www.w3.org/1999/xlink" viewBox="0 0 319.49 318.69"><defs><style>.cls-1{fill:none;}.cls-2{fill:#5b3a00;}.cls-3{clip-path:url(#clip-path);}.cls-4{fill:#e2cfff;}.cls-5{opacity:0.25;}.cls-6{fill:#e0e0e0;}.cls-7{fill:#fff;}.cls-8{fill:#ce9a64;}.cls-9{fill:#a56b37;}.cls-10{clip-path:url(#clip-path-2);}.cls-11{fill:#00990b;}.cls-12{fill:#a33131;}.cls-13{fill:#cecece;}.cls-14{fill:#00d319;}.cls-15{clip-path:url(#clip-path-3);}.cls-16{fill:#8ea52b;}.cls-17{fill:#bad654;}.cls-18{fill:#647211;}.cls-19{fill:#f3ffa9;}.cls-20{clip-path:url(#clip-path-4);}.cls-21{opacity:0.65;}.cls-22{fill:#ce800f;}.cls-23{opacity:0.4;}.cls-24{fill:#ffe5b8;}.cls-25{clip-path:url(#clip-path-5);}.cls-26{fill:#89cd00;}.cls-27{fill:#d3ff66;}.cls-28{clip-path:url(#clip-path-6);}.cls-29{fill:#415900;}.cls-30{fill:#547a00;}.cls-31{clip-path:url(#clip-path-7);}.cls-32{fill:#e1ff8f;}.cls-33{fill:#97b600;}.cls-34{fill:#d6ea47;}.cls-35{fill:#faffe6;}.cls-36{fill:#f2ffc2;}</style><clipPath id="clip-path" transform="translate(0)"><rect class="cls-1" width="297.28" height="297.28" rx="54.22" transform="translate(297.28 297.28) rotate(180)"/></clipPath><clipPath id="clip-path-2" transform="translate(0)"><path class="cls-1" d="M136.37,242.6v-7.8a1,1,0,0,0-1-1H110.14a1,1,0,0,0-1,1v7.8a1,1,0,0,0,1,1H109v1.1a1.1,1.1,0,0,0-1.1-1.1h-6.26a12.33,12.33,0,0,0-12.29,12.29h0A1.09,1.09,0,0,0,90.41,257h0a1.15,1.15,0,0,0-1.14,1.15v5.31a1.15,1.15,0,0,0,1.14,1.15h44.76a1.15,1.15,0,0,0,1.15-1.15v-5.31a1.15,1.15,0,0,0-1.15-1.15h1.15V243.59h-1A1,1,0,0,0,136.37,242.6Z"/></clipPath><clipPath id="clip-path-3" transform="translate(0)"><path class="cls-1" d="M161.9,243.59h-1V257h1.14a1.15,1.15,0,0,0-1.14,1.15v5.31a1.15,1.15,0,0,0,1.14,1.15h44.77a1.15,1.15,0,0,0,1.14-1.15v-5.31a1.15,1.15,0,0,0-1.14-1.15h0a1.09,1.09,0,0,0,1.1-1.09h0a12.33,12.33,0,0,0-12.29-12.29h-6.26a1.1,1.1,0,0,0-1.1,1.1v-1.1h-1.17a1,1,0,0,0,1-1v-7.8a1,1,0,0,0-1-1H161.9a1,1,0,0,0-1,1v7.8A1,1,0,0,0,161.9,243.59Z"/></clipPath><clipPath id="clip-path-4" transform="translate(0)"><path class="cls-1" d="M77.33,135.51c0,20.34,19.83,10,29.15,2.28s3-25.67,16.53-24.1-3,38.68,8.47,46.61,27.55,2.42,25.85-9.87S142.5,120.58,153.94,116s27.55-2.22,27.55,8.47-17.38,43.14-3.82,50.65,26.7-6.65,23.31-14.83-12.71-42.08-3.39-40.38,5.93,10.31,13.14,17.87,15.51,10.44,14.91,1.19-5.91-70.45-76.09-70.45S77.33,132.51,77.33,135.51Z"/></clipPath><clipPath id="clip-path-5" transform="translate(0)"><path class="cls-1" d="M128.09,165c0,10.08,13.81,18.25,30.85,18.25s30.85-8.17,30.85-18.25Z"/></clipPath><clipPath id="clip-path-6" transform="translate(0)"><path class="cls-1" d="M145,43.76c6.29,1.15,22.13,21.35,13.46,27.91S106.7,90.32,96.33,92.35s-22.75,3-23.68.06S79.83,83,84.26,78.83s26.69-19.16,35-22.45S135.66,42.06,145,43.76Z"/></clipPath><clipPath id="clip-path-7" transform="translate(0)"><path class="cls-2" d="M79.51,95.15c-3.31,0-7-.39-7.71-2.47-.88-2.77,3.36-6.85,9.43-12.31.87-.78,1.7-1.52,2.42-2.19C88.1,74,110.44,58.91,118.91,55.55c2.93-1.16,5.84-3.32,8.91-5.61,5.42-4,11-8.21,17.3-7.06,2.4.44,5.86,3.14,9.26,7.21,3.56,4.27,6.14,9,7.07,12.89,1,4.17.13,7.42-2.49,9.4s-10.19,5.79-30.68,12.18c-13.21,4.12-26.53,7.64-31.77,8.67A101.58,101.58,0,0,1,81,95.13ZM143,44.48c-4.87,0-9.57,3.5-14.13,6.89-3,2.26-6.17,4.59-9.32,5.84C116,58.64,109.11,62.59,100.79,68,93.58,72.76,87,77.47,84.86,79.49c-.73.68-1.56,1.42-2.43,2.21-2.19,2-4.67,4.19-6.47,6.19-2.54,2.82-2.56,3.91-2.46,4.25,0,.06.53,1.4,7.43,1.2a97.5,97.5,0,0,0,15.23-1.86c5.2-1,18.44-4.52,31.59-8.62,15.8-4.93,26.5-9.15,30.13-11.9,2-1.54,2.66-4.09,1.83-7.57-.87-3.66-3.31-8.09-6.7-12.15-3-3.66-6.27-6.25-8.21-6.6A9.82,9.82,0,0,0,143,44.48Z"/></clipPath></defs><g id="Layer_2" data-name="Layer 2"><g id="Layer_1-2" data-name="Layer 1"><rect class="cls-2" x="22.21" y="21.41" width="297.28" height="297.28" rx="54.22" transform="translate(341.69 340.09) rotate(180)"/><g class="cls-3"><rect class="cls-4" width="297.28" height="297.28" transform="translate(297.28 297.28) rotate(180)"/><g class="cls-5"><ellipse class="cls-2" cx="148.64" cy="268.93" rx="86.21" ry="11.93"/></g><path class="cls-2" d="M75.71,145.72a35.31,35.31,0,0,1-20.06-6,38.21,38.21,0,0,1-12-13.9c-3.56-6.72-6-15.12-7.09-25a4,4,0,1,1,7.87-.91c1,8.83,3.11,16.26,6.19,22.1A30.61,30.61,0,0,0,60,133.1a26.81,26.81,0,0,0,14.34,4.66,27.2,27.2,0,0,0,7.09-.55h0l2,7.67A33.17,33.17,0,0,1,75.71,145.72Z" transform="translate(0)"/><path class="cls-6" d="M16.66,82.48S19.75,97,2.45,104.74l13.12,25.87s7.79-2.87,9.78-16.78L23.09,97.64l-2.76-10Z" transform="translate(0)"/><path class="cls-7" d="M16.66,82.48l8.69,31.35c1.2,4.32,11.29,5.3,22.55,2.18s19.4-9.16,18.2-13.48L57.41,71.18Z" transform="translate(0)"/><ellipse class="cls-7" cx="37.04" cy="76.83" rx="21.15" ry="8.13" transform="translate(-19.18 12.69) rotate(-15.5)"/><ellipse class="cls-8" cx="36.79" cy="75.93" rx="8.79" ry="3.38" transform="translate(-18.95 12.59) rotate(-15.5)"/><rect class="cls-2" x="31.82" y="86" width="1.78" height="1.49" transform="translate(-21.99 11.89) rotate(-15.5)"/><path class="cls-2" d="M39.07,113l-.88-3.16,1.72-.48.88,3.17Zm-1.76-6.33-.87-3.16,1.71-.48.88,3.17Zm-1.75-6.32-.88-3.17,1.72-.48.88,3.17ZM33.8,94l-.87-3.17,1.72-.47.87,3.16Z" transform="translate(0)"/><rect class="cls-2" x="40.11" y="115.91" width="1.78" height="1.49" transform="translate(-29.68 15.2) rotate(-15.5)"/><path class="cls-6" d="M49.7,80.47,58.42,112s9-4.71,7.68-9.42L57.41,71.18S59.1,74.85,49.7,80.47Z" transform="translate(0)"/><path class="cls-2" d="M15.13,131.72,1.23,104.31l.85-.38a26.35,26.35,0,0,0,9.18-6.46,18.81,18.81,0,0,0,3.9-6.93,17.45,17.45,0,0,0,.62-7.87l1.75-.37A19,19,0,0,1,16.89,91a20.55,20.55,0,0,1-4.25,7.62,27.6,27.6,0,0,1-9,6.56L16,129.41a12.61,12.61,0,0,0,3.17-2.67c1.89-2.14,4.35-6.15,5.33-13l1.77.25c-1.06,7.41-3.77,11.75-5.85,14.08a12.51,12.51,0,0,1-4.51,3.41Z" transform="translate(0)"/><path class="cls-2" d="M35.59,118.73c-1,0-1.93,0-2.83-.13-4.65-.45-7.59-2.06-8.27-4.53L15.8,82.72l1.72-.47,8.69,31.34c.46,1.69,2.92,2.87,6.73,3.23a42.07,42.07,0,0,0,14.72-1.67A42.27,42.27,0,0,0,61.14,109c3.08-2.28,4.57-4.56,4.11-6.24L56.56,71.42,58.27,71,67,102.29c.69,2.47-1,5.37-4.76,8.15a44.09,44.09,0,0,1-14.06,6.43A48.19,48.19,0,0,1,35.59,118.73Z" transform="translate(0)"/><path class="cls-2" d="M26.9,87.38c-1,0-1.93,0-2.83-.13-4.65-.45-7.59-2.06-8.27-4.53s1-5.36,4.76-8.15a44,44,0,0,1,14.07-6.43A44,44,0,0,1,50,66.41c4.65.45,7.59,2.06,8.27,4.54s-1,5.36-4.76,8.14a44.09,44.09,0,0,1-14.06,6.44A48.15,48.15,0,0,1,26.9,87.38ZM47.16,68.07A46.14,46.14,0,0,0,35.1,69.86,42.06,42.06,0,0,0,21.62,76c-3.08,2.28-4.57,4.55-4.1,6.24s2.92,2.86,6.73,3.23A42.31,42.31,0,0,0,39,83.81a42.28,42.28,0,0,0,13.48-6.15c3.08-2.28,4.57-4.55,4.11-6.24s-2.93-2.86-6.74-3.23C49,68.11,48.08,68.07,47.16,68.07Z" transform="translate(0)"/><ellipse class="cls-9" cx="37.27" cy="77.19" rx="7.79" ry="2.04" transform="matrix(0.96, -0.27, 0.27, 0.96, -19.27, 12.76)"/><path class="cls-2" d="M32.57,80.84a12,12,0,0,1-1.22-.06c-2.17-.2-3.55-1-3.9-2.26s.43-2.65,2.18-3.94a18.47,18.47,0,0,1,6-2.76,18.75,18.75,0,0,1,6.57-.74c2.17.21,3.55,1,3.9,2.27h0c.34,1.25-.43,2.65-2.17,3.94a19.1,19.1,0,0,1-6,2.76A20.52,20.52,0,0,1,32.57,80.84Zm8.42-8a18.57,18.57,0,0,0-4.87.73A16.9,16.9,0,0,0,30.69,76c-1.19.88-1.62,1.66-1.52,2s.87.83,2.35,1a17.05,17.05,0,0,0,5.93-.68,17.12,17.12,0,0,0,5.43-2.47c1.2-.88,1.62-1.66,1.52-2h0c-.11-.37-.87-.82-2.35-1C41.72,72.83,41.36,72.81,41,72.81Z" transform="translate(0)"/><path class="cls-2" d="M221.24,146.22a33.17,33.17,0,0,1-7.74-.83l2-7.67h0a28.17,28.17,0,0,0,7.1.54,26.8,26.8,0,0,0,14.33-4.66,30.33,30.33,0,0,0,9.47-11.08c3.08-5.83,5.16-13.27,6.19-22.1a4,4,0,0,1,7.87.91c-1.14,9.86-3.52,18.26-7.09,25a38.17,38.17,0,0,1-12,13.89A35.27,35.27,0,0,1,221.24,146.22Z" transform="translate(0)"/><path class="cls-6" d="M280.3,83s-3.09,14.54,14.21,22.26l-13.12,25.86s-7.79-2.87-9.78-16.78l2.25-16.19,2.76-10Z" transform="translate(0)"/><path class="cls-7" d="M280.3,83l-8.69,31.34c-1.2,4.33-11.3,5.31-22.55,2.19s-19.41-9.16-18.21-13.49l8.69-31.34Z" transform="translate(0)"/><ellipse class="cls-7" cx="259.92" cy="77.34" rx="8.13" ry="21.15" transform="translate(115.95 307.15) rotate(-74.5)"/><ellipse class="cls-8" cx="260.17" cy="76.44" rx="3.38" ry="8.79" transform="translate(117 306.73) rotate(-74.5)"/><rect class="cls-2" x="263.5" y="86.36" width="1.49" height="1.78" transform="translate(109.57 318.58) rotate(-74.51)"/><path class="cls-2" d="M257.89,113.52l-1.72-.48.87-3.16,1.72.47Zm1.75-6.33-1.72-.48.88-3.16,1.72.47Zm1.75-6.33-1.71-.48.87-3.16,1.72.48Zm1.76-6.33-1.72-.48.88-3.16,1.72.48Z" transform="translate(0)"/><rect class="cls-2" x="255.21" y="116.27" width="1.49" height="1.78" transform="translate(74.67 332.51) rotate(-74.51)"/><path class="cls-6" d="M247.26,81l-8.73,31.47s-9-4.71-7.68-9.42l8.69-31.34S237.85,75.35,247.26,81Z" transform="translate(0)"/><path class="cls-2" d="M281.82,132.22l-.74-.27a12.49,12.49,0,0,1-4.5-3.42c-2.09-2.33-4.8-6.66-5.86-14.07l1.77-.25c1,6.89,3.44,10.89,5.33,13a13,13,0,0,0,3.17,2.67l12.3-24.25a27.33,27.33,0,0,1-9-6.57,20.42,20.42,0,0,1-4.26-7.62,19,19,0,0,1-.64-8.68l1.75.37L280.3,83l.87.18a17.5,17.5,0,0,0,.62,7.88A18.88,18.88,0,0,0,285.7,98a26.18,26.18,0,0,0,9.17,6.46l.85.39Z" transform="translate(0)"/><path class="cls-2" d="M261.36,119.24a48.05,48.05,0,0,1-12.54-1.86,44.15,44.15,0,0,1-14.07-6.44c-3.76-2.78-5.45-5.67-4.76-8.14l8.69-31.35,1.72.48-8.69,31.34c-.47,1.69,1,4,4.1,6.24A47.22,47.22,0,0,0,264,117.33c3.81-.37,6.26-1.55,6.73-3.23l8.69-31.35,1.72.48-8.69,31.34c-.69,2.47-3.63,4.08-8.28,4.53C263.29,119.19,262.34,119.24,261.36,119.24Z" transform="translate(0)"/><path class="cls-2" d="M270.05,87.89A48.05,48.05,0,0,1,257.51,86a44.15,44.15,0,0,1-14.07-6.43c-3.76-2.78-5.45-5.68-4.76-8.15h0c.68-2.47,3.62-4.08,8.28-4.53a49,49,0,0,1,29.43,8.16c3.76,2.78,5.45,5.67,4.77,8.15s-3.63,4.08-8.28,4.53C272,87.85,271,87.89,270.05,87.89ZM249.8,68.57q-1.4,0-2.67.12c-3.81.37-6.27,1.55-6.73,3.24h0c-.47,1.68,1,4,4.1,6.24A42.38,42.38,0,0,0,258,84.31,42.1,42.1,0,0,0,272.71,86c3.81-.36,6.26-1.54,6.73-3.23s-1-4-4.11-6.24a42.27,42.27,0,0,0-13.48-6.14A46.16,46.16,0,0,0,249.8,68.57Z" transform="translate(0)"/><ellipse class="cls-9" cx="259.69" cy="77.69" rx="2.04" ry="7.79" transform="translate(115.44 307.18) rotate(-74.5)"/><path class="cls-2" d="M264.38,81.35a20.48,20.48,0,0,1-5.35-.8,18.67,18.67,0,0,1-6-2.75c-1.75-1.3-2.52-2.7-2.17-4s1.72-2,3.89-2.26a20.82,20.82,0,0,1,12.6,3.49c1.74,1.29,2.51,2.7,2.17,4s-1.73,2-3.89,2.26A12.07,12.07,0,0,1,264.38,81.35Zm-8.42-8c-.37,0-.72,0-1.06,0-1.48.15-2.24.59-2.35,1h0c-.1.38.33,1.15,1.52,2a19,19,0,0,0,11.36,3.15c1.48-.14,2.24-.58,2.35-1s-.32-1.15-1.52-2A17.12,17.12,0,0,0,260.83,74,18.57,18.57,0,0,0,256,73.31Z" transform="translate(0)"/><path class="cls-2" d="M174.58,240.1a4,4,0,0,1-4-4V181.53a4,4,0,0,1,7.93,0v54.61A4,4,0,0,1,174.58,240.1Z" transform="translate(0)"/><path class="cls-2" d="M122.76,241.16a4,4,0,0,1-4-4V181.53a4,4,0,0,1,7.93,0V237.2A4,4,0,0,1,122.76,241.16Z" transform="translate(0)"/><g class="cls-10"><rect class="cls-11" x="109.15" y="234.52" width="27.22" height="9.78"/><path class="cls-12" d="M109,244.3h26.3a1.1,1.1,0,0,1,1.1,1.1V264a1.1,1.1,0,0,1-1.1,1.1H90.41a1.1,1.1,0,0,1-1.1-1.1v0A19.65,19.65,0,0,1,109,244.3Z"/><rect class="cls-13" x="89.32" y="257.69" width="47.05" height="7.6"/><path class="cls-13" d="M101.61,244.3h6.27a1.1,1.1,0,0,1,1.1,1.1v11.19a1.1,1.1,0,0,1-1.1,1.1H90.41a1.1,1.1,0,0,1-1.1-1.1v0a12.29,12.29,0,0,1,12.29-12.29Z"/><rect class="cls-14" x="115.24" y="234.28" width="27.22" height="9.78"/><path class="cls-14" d="M141.36,264.81H96.5a1.1,1.1,0,0,1-1.1-1.1h0c0-10.8-.27-19.65,19.65-19.65h26.31a1.11,1.11,0,0,1,1.1,1.1v18.55A1.1,1.1,0,0,1,141.36,264.81Z" transform="translate(0)"/><rect class="cls-7" x="95.4" y="257.45" width="47.05" height="7.6"/><path class="cls-7" d="M107.69,244.06h.23a1.1,1.1,0,0,1,1.1,1.1v11.19a1.1,1.1,0,0,1-1.1,1.1H96.5a1.1,1.1,0,0,1-1.1-1.1v0a12.29,12.29,0,0,1,12.29-12.29Z"/></g><path class="cls-2" d="M135.38,244.48H110.14a1.88,1.88,0,0,1-1.88-1.88v-7.8a1.88,1.88,0,0,1,1.88-1.88h25.24a1.88,1.88,0,0,1,1.88,1.88v7.8A1.88,1.88,0,0,1,135.38,244.48Zm-25.24-9.78a.1.1,0,0,0-.1.1v7.8a.11.11,0,0,0,.1.1h25.24a.11.11,0,0,0,.1-.1v-7.8a.1.1,0,0,0-.1-.1Z" transform="translate(0)"/><path class="cls-2" d="M135.22,265.47H90.46a2,2,0,0,1-2-2v-5.31a2,2,0,0,1,2-2h44.76a2,2,0,0,1,2,2v5.31A2,2,0,0,1,135.22,265.47Zm-44.76-7.6a.25.25,0,0,0-.25.25v5.31a.25.25,0,0,0,.25.25h44.76a.26.26,0,0,0,.26-.25v-5.31a.26.26,0,0,0-.26-.25Z" transform="translate(0)"/><path class="cls-2" d="M107.87,257.87H90.41a2,2,0,0,1-2-2,13.2,13.2,0,0,1,13.19-13.18h6.26a2,2,0,0,1,2,2v11.19A2,2,0,0,1,107.87,257.87Zm-6.26-13.39a11.41,11.41,0,0,0-11.4,11.4.2.2,0,0,0,.2.2h17.46a.21.21,0,0,0,.21-.2V244.69a.21.21,0,0,0-.21-.21Z" transform="translate(0)"/><path class="cls-2" d="M137.26,257.87H108.08V242.7h29.18Zm-27.4-1.79h25.62v-11.6H109.86Z" transform="translate(0)"/><g class="cls-15"><rect class="cls-11" x="160.91" y="234.52" width="27.22" height="9.78" transform="translate(349.03 478.83) rotate(180)"/><path class="cls-11" d="M162,244.3h44.86a1.1,1.1,0,0,1,1.1,1.1V264a1.1,1.1,0,0,1-1.1,1.1h-26.3a19.65,19.65,0,0,1-19.65-19.65v0a1.1,1.1,0,0,1,1.1-1.1Z" transform="translate(368.87 509.36) rotate(180)"/><rect class="cls-13" x="160.91" y="257.69" width="47.05" height="7.6" transform="translate(368.87 522.98) rotate(180)"/><path class="cls-13" d="M189.41,244.3h17.46a1.1,1.1,0,0,1,1.1,1.1v11.19a1.1,1.1,0,0,1-1.1,1.1H200.6a12.29,12.29,0,0,1-12.29-12.29v0a1.1,1.1,0,0,1,1.1-1.1Z" transform="translate(396.27 501.99) rotate(-180)"/><rect class="cls-14" x="167.45" y="234.28" width="27.22" height="9.78" transform="translate(362.12 478.34) rotate(-180)"/><path class="cls-14" d="M168.55,264.81h44.86a1.1,1.1,0,0,0,1.1-1.1h0c0-10.8.26-19.65-19.66-19.65h-26.3a1.11,1.11,0,0,0-1.1,1.1v18.55A1.1,1.1,0,0,0,168.55,264.81Z" transform="translate(0)"/><rect class="cls-7" x="167.45" y="257.45" width="47.05" height="7.6" transform="translate(381.96 522.5) rotate(180)"/><path class="cls-7" d="M189.18,244.06H207a1.1,1.1,0,0,1,1.1,1.1v11.19a1.1,1.1,0,0,1-1.1,1.1h-6.63a12.29,12.29,0,0,1-12.29-12.29v0A1.1,1.1,0,0,1,189.18,244.06Z" transform="translate(396.18 501.51) rotate(-180)"/></g><path class="cls-2" d="M187.14,244.48H161.9A1.88,1.88,0,0,1,160,242.6v-7.8a1.88,1.88,0,0,1,1.88-1.88h25.24A1.88,1.88,0,0,1,189,234.8v7.8A1.88,1.88,0,0,1,187.14,244.48ZM161.9,234.7a.09.09,0,0,0-.1.1v7.8a.1.1,0,0,0,.1.1h25.24a.1.1,0,0,0,.09-.1v-7.8a.09.09,0,0,0-.09-.1Z" transform="translate(0)"/><path class="cls-2" d="M206.82,265.47H162.05a2,2,0,0,1-2-2v-5.31a2,2,0,0,1,2-2h44.77a2,2,0,0,1,2,2v5.31A2,2,0,0,1,206.82,265.47Zm-44.77-7.6a.25.25,0,0,0-.25.25v5.31a.25.25,0,0,0,.25.25h44.77a.25.25,0,0,0,.25-.25v-5.31a.25.25,0,0,0-.25-.25Z" transform="translate(0)"/><path class="cls-2" d="M206.86,257.87H189.41a2,2,0,0,1-2-2V244.69a2,2,0,0,1,2-2h6.26a13.19,13.19,0,0,1,13.18,13.18A2,2,0,0,1,206.86,257.87Zm-17.45-13.39a.21.21,0,0,0-.21.21v11.19a.21.21,0,0,0,.21.2h17.45a.2.2,0,0,0,.21-.2,11.41,11.41,0,0,0-11.4-11.4Z" transform="translate(0)"/><path class="cls-2" d="M189.2,257.87H160V242.7H189.2Zm-27.4-1.79h25.62v-11.6H161.8Z" transform="translate(0)"/><rect class="cls-7" x="116.81" y="216.83" width="12.2" height="16.97"/><path class="cls-2" d="M127.83,234.7H118a2.08,2.08,0,0,1-2.08-2.08V218a2.08,2.08,0,0,1,2.08-2.08h9.83a2.09,2.09,0,0,1,2.08,2.08v14.6A2.08,2.08,0,0,1,127.83,234.7Zm-9.83-17a.3.3,0,0,0-.3.29v14.6a.31.31,0,0,0,.3.3h9.83a.3.3,0,0,0,.29-.3V218a.29.29,0,0,0-.29-.29Z" transform="translate(0)"/><rect class="cls-7" x="168.51" y="216.83" width="12.2" height="16.97"/><path class="cls-2" d="M179.52,234.7H169.7a2.08,2.08,0,0,1-2.08-2.08V218a2.08,2.08,0,0,1,2.08-2.08h9.82A2.08,2.08,0,0,1,181.6,218v14.6A2.08,2.08,0,0,1,179.52,234.7Zm-9.82-17a.29.29,0,0,0-.3.29v14.6a.3.3,0,0,0,.3.3h9.82a.31.31,0,0,0,.3-.3V218a.3.3,0,0,0-.3-.29Z" transform="translate(0)"/><line class="cls-7" x1="120.79" y1="216.87" x2="120.79" y2="223.83"/><path class="cls-2" d="M120.79,224.72a.89.89,0,0,1-.89-.89v-7a.89.89,0,1,1,1.78,0v7A.89.89,0,0,1,120.79,224.72Z" transform="translate(0)"/><line class="cls-7" x1="124.92" y1="216.87" x2="124.92" y2="223.83"/><path class="cls-2" d="M124.92,224.72a.89.89,0,0,1-.89-.89v-7a.89.89,0,1,1,1.78,0v7A.89.89,0,0,1,124.92,224.72Z" transform="translate(0)"/><line class="cls-7" x1="172.45" y1="216.87" x2="172.45" y2="223.83"/><path class="cls-2" d="M172.45,224.72a.89.89,0,0,1-.89-.89v-7a.89.89,0,0,1,1.78,0v7A.89.89,0,0,1,172.45,224.72Z" transform="translate(0)"/><line class="cls-7" x1="176.58" y1="216.87" x2="176.58" y2="223.83"/><path class="cls-2" d="M176.58,224.72a.89.89,0,0,1-.89-.89v-7a.89.89,0,0,1,1.78,0v7A.89.89,0,0,1,176.58,224.72Z" transform="translate(0)"/><path class="cls-2" d="M145.65,207.28h10V70.3h-10c-36.13,0-65.42,30.66-65.42,68.49s29.29,68.49,65.42,68.49" transform="translate(0)"/><path class="cls-2" d="M145.65,209.61h0A64.87,64.87,0,0,1,119.24,204a67.44,67.44,0,0,1-21.54-15.2,70.75,70.75,0,0,1-14.49-22.51,74,74,0,0,1,0-55.06A70.75,70.75,0,0,1,97.7,88.75a67.44,67.44,0,0,1,21.54-15.2A64.87,64.87,0,0,1,145.65,68h12.29V209.61Zm0-137a60.12,60.12,0,0,0-24.52,5.18A62.66,62.66,0,0,0,101.07,92a66.12,66.12,0,0,0-13.54,21,69.27,69.27,0,0,0,0,51.58,66.12,66.12,0,0,0,13.54,21,62.66,62.66,0,0,0,20.06,14.16A60.12,60.12,0,0,0,145.65,205h7.63V72.63Z" transform="translate(0)"/><circle class="cls-2" cx="155.39" cy="138.79" r="68.49"/><path class="cls-2" d="M155.39,209.61A70.55,70.55,0,1,1,183,204.05,70.44,70.44,0,0,1,155.39,209.61Zm0-137a65.89,65.89,0,1,0,25.75,5.19A65.75,65.75,0,0,0,155.39,72.63Z" transform="translate(0)"/><path class="cls-2" d="M134.3,191.93v3.48a1.88,1.88,0,0,0,1.28,1.78,78.2,78.2,0,0,0,15.26,3,1.88,1.88,0,0,0,2-1.87v-6.36a1.88,1.88,0,0,0-1.88-1.88H136.18A1.88,1.88,0,0,0,134.3,191.93Z" transform="translate(0)"/><path class="cls-2" d="M151,202.5l-.4,0a80.19,80.19,0,0,1-15.78-3.09,4.18,4.18,0,0,1-2.87-4v-3.48a4.21,4.21,0,0,1,4.21-4.2H151a4.21,4.21,0,0,1,4.21,4.2v6.36a4.22,4.22,0,0,1-4.2,4.21Zm-14.39-7.42a77.9,77.9,0,0,0,13.93,2.71v-5.41H136.63Z" transform="translate(0)"/><path class="cls-2" d="M102,140.91H96.39a1.75,1.75,0,0,0-1.75,1.93,91.43,91.43,0,0,0,3.21,16.82,1.68,1.68,0,0,0,1.59,1.19H102a1.76,1.76,0,0,0,1.77-1.76V142.67A1.76,1.76,0,0,0,102,140.91Z" transform="translate(0)"/><path class="cls-2" d="M102,163.18H99.44a4,4,0,0,1-3.79-2.77,92.61,92.61,0,0,1-3.33-17.35,4.08,4.08,0,0,1,4.07-4.48H102a4.09,4.09,0,0,1,4.09,4.09v16.42A4.09,4.09,0,0,1,102,163.18Zm-2-4.66h1.49V143.24H97A90.35,90.35,0,0,0,99.93,158.52Z" transform="translate(0)"/><path class="cls-2" d="M152.89,85.37V79A1.75,1.75,0,0,0,151,77.23a77.28,77.28,0,0,0-15.47,2.86,1.75,1.75,0,0,0-1.2,1.67v3.61a1.76,1.76,0,0,0,1.76,1.76h15.07A1.76,1.76,0,0,0,152.89,85.37Z" transform="translate(0)"/><path class="cls-2" d="M151.13,89.46H136.06A4.09,4.09,0,0,1,132,85.37V81.76a4.09,4.09,0,0,1,2.79-3.88,73.94,73.94,0,0,1,16-3A4.1,4.1,0,0,1,155.22,79v6.39A4.09,4.09,0,0,1,151.13,89.46Zm-14.5-4.65h13.93v-5.2a76.24,76.24,0,0,0-13.93,2.56Z" transform="translate(0)"/><path class="cls-2" d="M102,116.34h-1.31A1.76,1.76,0,0,0,99,117.53a93.25,93.25,0,0,0-4,16.84,1.76,1.76,0,0,0,1.75,1.93H102a1.76,1.76,0,0,0,1.77-1.76V118.1A1.76,1.76,0,0,0,102,116.34Z" transform="translate(0)"/><path class="cls-2" d="M102,138.63H96.77a4.1,4.1,0,0,1-4.07-4.49,95.21,95.21,0,0,1,4.1-17.37,4.08,4.08,0,0,1,3.87-2.76H102a4.09,4.09,0,0,1,4.09,4.09v16.44A4.09,4.09,0,0,1,102,138.63ZM97.4,134h4V118.66h-.35A96,96,0,0,0,97.4,134Z" transform="translate(0)"/><path class="cls-2" d="M158.87,191.93v6.16a1.88,1.88,0,0,0,2.07,1.87,79.11,79.11,0,0,0,15.26-3.62,2,2,0,0,0,1.25-1.89v-2.52a1.88,1.88,0,0,0-1.87-1.88H160.75A1.88,1.88,0,0,0,158.87,191.93Z" transform="translate(0)"/><path class="cls-2" d="M160.75,202.3a4.2,4.2,0,0,1-4.21-4.21v-6.16a4.21,4.21,0,0,1,4.21-4.2h14.84a4.2,4.2,0,0,1,4.2,4.2h0v2.52a4.33,4.33,0,0,1-2.82,4.08,80.8,80.8,0,0,1-15.78,3.73Zm.45-9.92v5.2a78.23,78.23,0,0,0,13.92-3.34v-1.86Z" transform="translate(0)"/><path class="cls-2" d="M177.46,85.37V81.93a1.77,1.77,0,0,0-1.18-1.67,77.23,77.23,0,0,0-15.48-3A1.75,1.75,0,0,0,158.87,79v6.34a1.75,1.75,0,0,0,1.76,1.76H175.7A1.75,1.75,0,0,0,177.46,85.37Z" transform="translate(0)"/><path class="cls-2" d="M175.7,89.46H160.63a4.09,4.09,0,0,1-4.09-4.09V79A4.09,4.09,0,0,1,161,75c2.34.24,10.42,1.17,16,3.1a4.09,4.09,0,0,1,2.75,3.87v3.44A4.09,4.09,0,0,1,175.7,89.46Zm-14.51-4.65h13.95V82.33a76.74,76.74,0,0,0-13.95-2.67Z" transform="translate(0)"/><path class="cls-2" d="M209.78,160.85h1.37a1.78,1.78,0,0,0,1.67-1.19,92.68,92.68,0,0,0,3.52-16.82,1.76,1.76,0,0,0-1.76-1.93h-4.8a1.76,1.76,0,0,0-1.76,1.76v16.42A1.76,1.76,0,0,0,209.78,160.85Z" transform="translate(0)"/><path class="cls-2" d="M211.15,163.18h-1.37a4.09,4.09,0,0,1-4.09-4.09V142.67a4.09,4.09,0,0,1,4.09-4.09h4.8a4.08,4.08,0,0,1,4.07,4.48A93.29,93.29,0,0,1,215,160.41,4.08,4.08,0,0,1,211.15,163.18Zm-.8-4.66h.39A91.86,91.86,0,0,0,214,143.24h-3.6Z" transform="translate(0)"/><path class="cls-2" d="M128.32,110V93.52a1.76,1.76,0,0,0-1.76-1.76H115.87a1.75,1.75,0,0,0-1.18.45,61.23,61.23,0,0,0-4.5,4.47,1.76,1.76,0,0,0-.46,1.19V110a1.76,1.76,0,0,0,1.76,1.76h15.07A1.76,1.76,0,0,0,128.32,110Z" transform="translate(0)"/><path class="cls-2" d="M126.56,114H111.49A4.09,4.09,0,0,1,107.4,110V97.87a4.11,4.11,0,0,1,1.06-2.75,62.09,62.09,0,0,1,4.68-4.64,4.1,4.1,0,0,1,2.73-1h10.69a4.1,4.1,0,0,1,4.09,4.09V110A4.1,4.1,0,0,1,126.56,114Zm-14.5-4.66H126V94.09h-9.91c-1.4,1.27-2.75,2.61-4,4Z" transform="translate(0)"/><path class="cls-2" d="M209.78,136.36h5.85a1.76,1.76,0,0,0,1.75-1.94,94,94,0,0,0-4-16.89,1.67,1.67,0,0,0-1.59-1.19h-2.24A1.58,1.58,0,0,0,208,118.1v16.5A1.76,1.76,0,0,0,209.78,136.36Z" transform="translate(0)"/><path class="cls-2" d="M215.63,138.68h-5.85a4.09,4.09,0,0,1-4.09-4.08V118.1a3.9,3.9,0,0,1,3.88-4.09h2.24a4,4,0,0,1,3.79,2.76,95.47,95.47,0,0,1,4.1,17.43,4.08,4.08,0,0,1-4.07,4.48ZM210.35,134H215a95.09,95.09,0,0,0-3.66-15.37h-1Z" transform="translate(0)"/><rect class="cls-2" x="158.87" y="165.48" width="18.59" height="19.94" rx="1.88"/><path class="cls-2" d="M175.59,187.75H160.75a4.21,4.21,0,0,1-4.21-4.2V167.36a4.22,4.22,0,0,1,4.21-4.21h14.84a4.21,4.21,0,0,1,4.2,4.21v16.19A4.2,4.2,0,0,1,175.59,187.75ZM161.2,183.1h13.94V167.81H161.2Z" transform="translate(0)"/><path class="cls-2" d="M183.45,167.36v16.26a1.88,1.88,0,0,0,1.87,1.88l10.11-.07a1.91,1.91,0,0,0,1.25-.48,62.23,62.23,0,0,0,4.88-5,1.84,1.84,0,0,0,.48-1.24V167.36a1.88,1.88,0,0,0-1.88-1.88H185.32A1.88,1.88,0,0,0,183.45,167.36Z" transform="translate(0)"/><path class="cls-2" d="M185.33,187.83h0a4.21,4.21,0,0,1-4.2-4.21V167.36a4.21,4.21,0,0,1,4.2-4.21h14.84a4.22,4.22,0,0,1,4.21,4.21v11.35a4.22,4.22,0,0,1-1.06,2.79,64.85,64.85,0,0,1-5.07,5.18,4.2,4.2,0,0,1-2.8,1.07Zm.44-20v15.36l9.48-.07a59.46,59.46,0,0,0,4.46-4.56V167.81Z" transform="translate(0)"/><rect class="cls-2" x="134.3" y="140.91" width="18.59" height="19.94" rx="1.76"/><path class="cls-2" d="M151.13,163.18H136.06a4.09,4.09,0,0,1-4.09-4.09V142.67a4.09,4.09,0,0,1,4.09-4.09h15.07a4.09,4.09,0,0,1,4.09,4.09v16.42A4.09,4.09,0,0,1,151.13,163.18Zm-14.5-4.66h13.93V143.24H136.63Z" transform="translate(0)"/><path class="cls-2" d="M126.44,165.48H111.6a1.88,1.88,0,0,0-1.87,1.88v12a1.87,1.87,0,0,0,.49,1.27,59.65,59.65,0,0,0,4.37,4.34,1.88,1.88,0,0,0,1.26.49h10.59a1.88,1.88,0,0,0,1.88-1.88V167.36A1.88,1.88,0,0,0,126.44,165.48Z" transform="translate(0)"/><path class="cls-2" d="M126.44,187.75H115.85a4.25,4.25,0,0,1-2.82-1.07c-1.58-1.43-3.11-3-4.54-4.52a4.23,4.23,0,0,1-1.09-2.83v-12a4.21,4.21,0,0,1,4.2-4.21h14.84a4.22,4.22,0,0,1,4.21,4.21v16.19A4.21,4.21,0,0,1,126.44,187.75ZM116,183.1h10V167.81H112.06v11.35C113.31,180.53,114.64,181.85,116,183.1Z" transform="translate(0)"/><rect class="cls-2" x="134.3" y="165.48" width="18.59" height="20.02" rx="1.88"/><path class="cls-2" d="M151,187.83H136.25a4.25,4.25,0,0,1-4.28-4.21V167.36a4.25,4.25,0,0,1,4.28-4.21H151a4.22,4.22,0,0,1,4.21,4.21v16.26A4.22,4.22,0,0,1,151,187.83Zm-14.38-4.66h13.93V167.81H136.63Z" transform="translate(0)"/><rect class="cls-2" x="109.73" y="140.91" width="18.59" height="19.94" rx="1.76"/><path class="cls-2" d="M126.56,163.18H111.49a4.09,4.09,0,0,1-4.09-4.09V142.67a4.09,4.09,0,0,1,4.09-4.09h15.07a4.09,4.09,0,0,1,4.09,4.09v16.42A4.09,4.09,0,0,1,126.56,163.18Zm-14.5-4.66H126V143.24H112.06Z" transform="translate(0)"/><rect class="cls-2" x="109.73" y="116.34" width="18.59" height="19.94" rx="1.76"/><path class="cls-2" d="M126.56,138.61H111.49a4.09,4.09,0,0,1-4.09-4.09V118.1a4.09,4.09,0,0,1,4.09-4.09h15.07a4.09,4.09,0,0,1,4.09,4.09v16.42A4.1,4.1,0,0,1,126.56,138.61ZM112.06,134H126V118.66H112.06Z" transform="translate(0)"/><rect class="cls-2" x="134.3" y="116.34" width="18.59" height="19.94" rx="1.76"/><path class="cls-2" d="M151.13,138.61H136.06a4.1,4.1,0,0,1-4.09-4.09V118.1a4.09,4.09,0,0,1,4.09-4.09h15.07a4.09,4.09,0,0,1,4.09,4.09v16.42A4.09,4.09,0,0,1,151.13,138.61ZM136.63,134h13.93V118.66H136.63Z" transform="translate(0)"/><rect class="cls-2" x="158.87" y="91.76" width="18.59" height="19.94" rx="1.76"/><path class="cls-2" d="M175.7,114H160.63a4.1,4.1,0,0,1-4.09-4.09V93.52a4.1,4.1,0,0,1,4.09-4.09H175.7a4.09,4.09,0,0,1,4.09,4.09V110A4.09,4.09,0,0,1,175.7,114Zm-14.5-4.66h13.94V94.09H161.2Z" transform="translate(0)"/><path class="cls-2" d="M195.41,91.76h-10.2a1.76,1.76,0,0,0-1.76,1.76l0,16.46a1.76,1.76,0,0,0,1.76,1.76h15.07a1.76,1.76,0,0,0,1.76-1.76l0-11.56a1.75,1.75,0,0,0-.45-1.17,61.09,61.09,0,0,0-5-5A1.75,1.75,0,0,0,195.41,91.76Z" transform="translate(0)"/><path class="cls-2" d="M200.31,114.07H185.24a4.09,4.09,0,0,1-4.09-4.09l0-16.45a4.1,4.1,0,0,1,4.09-4.1h10.2a4,4,0,0,1,2.72,1,61.22,61.22,0,0,1,5.21,5.23,4.1,4.1,0,0,1,1,2.71l0,11.56A4.09,4.09,0,0,1,200.31,114.07ZM185.81,110Zm0-.56h13.93l0-10.78a60.64,60.64,0,0,0-4.52-4.55h-9.41Zm13.9-11Z" transform="translate(0)"/><rect class="cls-2" x="183.45" y="140.91" width="18.59" height="19.94" rx="1.76"/><path class="cls-2" d="M200.28,163.18H185.21a4.09,4.09,0,0,1-4.09-4.09V142.67a4.09,4.09,0,0,1,4.09-4.09h15.07a4.09,4.09,0,0,1,4.09,4.09v16.42A4.09,4.09,0,0,1,200.28,163.18Zm-14.51-4.66h13.94V143.24H185.77Z" transform="translate(0)"/><rect class="cls-2" x="134.3" y="91.76" width="18.59" height="19.94" rx="1.76"/><path class="cls-2" d="M151.13,114H136.06A4.1,4.1,0,0,1,132,110V93.52a4.1,4.1,0,0,1,4.09-4.09h15.07a4.09,4.09,0,0,1,4.09,4.09V110A4.09,4.09,0,0,1,151.13,114Zm-14.5-4.66h13.93V94.09H136.63Z" transform="translate(0)"/><rect class="cls-2" x="158.87" y="116.34" width="18.59" height="19.94" rx="1.76"/><path class="cls-2" d="M175.7,138.61H160.63a4.1,4.1,0,0,1-4.09-4.09V118.1a4.09,4.09,0,0,1,4.09-4.09H175.7a4.09,4.09,0,0,1,4.09,4.09v16.42A4.09,4.09,0,0,1,175.7,138.61ZM161.2,134h13.94V118.66H161.2Z" transform="translate(0)"/><rect class="cls-2" x="158.87" y="140.91" width="18.59" height="19.94" rx="1.76"/><path class="cls-2" d="M175.7,163.18H160.63a4.09,4.09,0,0,1-4.09-4.09V142.67a4.09,4.09,0,0,1,4.09-4.09H175.7a4.09,4.09,0,0,1,4.09,4.09v16.42A4.09,4.09,0,0,1,175.7,163.18Zm-14.5-4.66h13.94V143.24H161.2Z" transform="translate(0)"/><rect class="cls-2" x="183.45" y="116.34" width="18.59" height="19.94" rx="1.76"/><path class="cls-2" d="M200.28,138.61H185.21a4.09,4.09,0,0,1-4.09-4.09V118.1a4.09,4.09,0,0,1,4.09-4.09h15.07a4.09,4.09,0,0,1,4.09,4.09v16.42A4.1,4.1,0,0,1,200.28,138.61ZM185.77,134h13.94V118.66H185.77Z" transform="translate(0)"/><path class="cls-2" d="M134.29,193.38v2.05a1.89,1.89,0,0,0,1.28,1.78,60,60,0,0,0,15.36,3v-4.93a1.88,1.88,0,0,0-1.87-1.88Z" transform="translate(0)"/><path class="cls-2" d="M153.26,202.67l-2.47-.16a61.9,61.9,0,0,1-16-3.1,4.19,4.19,0,0,1-2.86-4v-4.38h17.09a4.21,4.21,0,0,1,4.2,4.21Zm-14.66-7a57.4,57.4,0,0,0,10,1.95v-1.95Z" transform="translate(0)"/><path class="cls-2" d="M100,144.24H94.78a59.34,59.34,0,0,0,3.07,15.44,1.75,1.75,0,0,0,1.66,1.19h2.28V146A1.76,1.76,0,0,0,100,144.24Z" transform="translate(0)"/><path class="cls-2" d="M104.12,163.2H99.51a4.09,4.09,0,0,1-3.87-2.77,62.46,62.46,0,0,1-3.19-16l-.16-2.48H100a4.09,4.09,0,0,1,4.09,4.09Zm-6.81-16.63a57.93,57.93,0,0,0,2.15,10.52V146.57Z" transform="translate(0)"/><path class="cls-2" d="M150.93,87.16V82.31A1.77,1.77,0,0,0,149,80.55a60,60,0,0,0-14.72,3.28V85.4a1.76,1.76,0,0,0,1.77,1.76Z" transform="translate(0)"/><path class="cls-2" d="M153.26,89.48h-17.2A4.09,4.09,0,0,1,132,85.4V82.2l1.53-.56a62,62,0,0,1,15.29-3.4,4.07,4.07,0,0,1,4.47,4.07ZM138.8,84.83h9.8v-1.9A58.12,58.12,0,0,0,138.8,84.83Z" transform="translate(0)"/><path class="cls-2" d="M100,119.66H98.29a59.42,59.42,0,0,0-3.35,14.71,1.76,1.76,0,0,0,1.75,1.93h5.1V121.42A1.76,1.76,0,0,0,100,119.66Z" transform="translate(0)"/><path class="cls-2" d="M104.12,138.63H96.69a4.09,4.09,0,0,1-4.07-4.49,62.06,62.06,0,0,1,3.48-15.28l.56-1.52H100a4.09,4.09,0,0,1,4.09,4.08ZM97.32,134h2.14V123.51A57.1,57.1,0,0,0,97.32,134Z" transform="translate(0)"/><path class="cls-2" d="M158.87,193.38v4.73a1.88,1.88,0,0,0,2.06,1.87,59.83,59.83,0,0,0,14.58-3.4v-1.32a1.88,1.88,0,0,0-1.88-1.88Z" transform="translate(0)"/><path class="cls-2" d="M160.74,202.32a4.2,4.2,0,0,1-4.2-4.21v-7.06h17.09a4.21,4.21,0,0,1,4.2,4.21v2.94l-1.52.57a61.75,61.75,0,0,1-15.14,3.52A3,3,0,0,1,160.74,202.32Zm.46-6.61v1.9a58,58,0,0,0,9.51-1.9Z" transform="translate(0)"/><path class="cls-2" d="M175.51,87.16V85.25a1.76,1.76,0,0,0-1.19-1.66,59.49,59.49,0,0,0-15.45-3.15v5a1.76,1.76,0,0,0,1.76,1.76Z" transform="translate(0)"/><path class="cls-2" d="M177.83,89.48h-17.2a4.09,4.09,0,0,1-4.09-4.08V77.94l2.49.18a62.14,62.14,0,0,1,16.05,3.27,4.08,4.08,0,0,1,2.75,3.86ZM161.2,84.83h9.31A57.65,57.65,0,0,0,161.2,83Z" transform="translate(0)"/><path class="cls-2" d="M209.79,160.87H211a59.88,59.88,0,0,0,3.34-14.7,1.76,1.76,0,0,0-1.76-1.93H208v14.85A1.78,1.78,0,0,0,209.79,160.87Z" transform="translate(0)"/><path class="cls-2" d="M212.67,163.2h-2.88a4.12,4.12,0,0,1-4.11-4.11V141.91h6.94a4.1,4.1,0,0,1,3,1.34,4,4,0,0,1,1,3.14,61.82,61.82,0,0,1-3.46,15.28Zm-2.33-16.63v8.8a57.1,57.1,0,0,0,1.65-8.8Z" transform="translate(0)"/><path class="cls-2" d="M126.36,111.73V96.85a1.76,1.76,0,0,0-1.76-1.76h-8.74a1.79,1.79,0,0,0-1.18.45,61.34,61.34,0,0,0-5,5V110a1.76,1.76,0,0,0,1.76,1.76Z" transform="translate(0)"/><path class="cls-2" d="M128.69,114.06H111.48a4.1,4.1,0,0,1-4.09-4.09V99.64L108,99a62.81,62.81,0,0,1,5.15-5.17,4.05,4.05,0,0,1,2.73-1h8.74a4.1,4.1,0,0,1,4.09,4.09Zm-16.64-4.66h12v-12h-8a54.32,54.32,0,0,0-4,4Z" transform="translate(0)"/><path class="cls-2" d="M209.77,136.3h4.76a59.36,59.36,0,0,0-3.09-15.44,1.75,1.75,0,0,0-1.67-1.2H208v14.88A1.76,1.76,0,0,0,209.77,136.3Z" transform="translate(0)"/><path class="cls-2" d="M217,138.63h-7.25a4.09,4.09,0,0,1-4.09-4.09v-17.2h4.09a4.08,4.08,0,0,1,3.87,2.76,62.14,62.14,0,0,1,3.21,16.05ZM210.34,134H212a58.94,58.94,0,0,0-1.65-8.75Z" transform="translate(0)"/><path class="cls-2" d="M173.63,168.81H158.87v14.76a1.88,1.88,0,0,0,1.87,1.88h14.77V170.69A1.88,1.88,0,0,0,173.63,168.81Z" transform="translate(0)"/><path class="cls-2" d="M177.83,187.78H160.74a4.21,4.21,0,0,1-4.2-4.21V166.48h17.09a4.21,4.21,0,0,1,4.2,4.21Zm-16.63-4.66h12v-12h-12Z" transform="translate(0)"/><path class="cls-2" d="M183.44,168.81v14.76a1.88,1.88,0,0,0,1.88,1.88h8.15a1.86,1.86,0,0,0,1.25-.48,61.38,61.38,0,0,0,5.36-5.46v-8.82a1.88,1.88,0,0,0-1.88-1.88Z" transform="translate(0)"/><path class="cls-2" d="M193.47,187.78h-8.15a4.22,4.22,0,0,1-4.21-4.21V166.48H198.2a4.22,4.22,0,0,1,4.21,4.21v9.69l-.57.65a63.3,63.3,0,0,1-5.56,5.67A4.24,4.24,0,0,1,193.47,187.78Zm-7.7-4.66h7.52a57.25,57.25,0,0,0,4.46-4.49v-7.49h-12Z" transform="translate(0)"/><path class="cls-2" d="M136.06,160.87h14.87V146a1.76,1.76,0,0,0-1.76-1.76H134.29v14.87A1.76,1.76,0,0,0,136.06,160.87Z" transform="translate(0)"/><path class="cls-2" d="M153.26,163.2h-17.2a4.09,4.09,0,0,1-4.09-4.09v-17.2h17.2a4.09,4.09,0,0,1,4.09,4.09Zm-16.64-4.65h12v-12h-12Z" transform="translate(0)"/><path class="cls-2" d="M124.48,168.81H109.72v10.54a1.92,1.92,0,0,0,.49,1.27q2.07,2.28,4.37,4.35a1.9,1.9,0,0,0,1.26.48h10.52V170.69A1.88,1.88,0,0,0,124.48,168.81Z" transform="translate(0)"/><path class="cls-2" d="M128.69,187.78H115.84A4.22,4.22,0,0,1,113,186.7a60.51,60.51,0,0,1-4.54-4.52,4.17,4.17,0,0,1-1.1-2.83V166.48h17.09a4.22,4.22,0,0,1,4.21,4.21ZM116,183.12h8v-12h-12v8C113.3,180.55,114.63,181.87,116,183.12Z" transform="translate(0)"/><path class="cls-2" d="M149.06,168.81H134.29v14.76a1.88,1.88,0,0,0,1.88,1.88h14.76V170.69A1.88,1.88,0,0,0,149.06,168.81Z" transform="translate(0)"/><path class="cls-2" d="M153.26,187.78H136.17a4.21,4.21,0,0,1-4.2-4.21V166.48h17.09a4.21,4.21,0,0,1,4.2,4.21Zm-16.64-4.66h12v-12h-12Z" transform="translate(0)"/><path class="cls-2" d="M111.48,160.87h14.88V146a1.76,1.76,0,0,0-1.76-1.76H109.72v14.87A1.76,1.76,0,0,0,111.48,160.87Z" transform="translate(0)"/><path class="cls-2" d="M128.69,163.2H111.48a4.09,4.09,0,0,1-4.09-4.09v-17.2H124.6a4.09,4.09,0,0,1,4.09,4.09Zm-16.64-4.65h12v-12h-12Z" transform="translate(0)"/><path class="cls-2" d="M124.6,119.66H109.72v14.88a1.76,1.76,0,0,0,1.76,1.76h14.88V121.42A1.76,1.76,0,0,0,124.6,119.66Z" transform="translate(0)"/><path class="cls-2" d="M128.69,138.63H111.48a4.09,4.09,0,0,1-4.09-4.09v-17.2H124.6a4.09,4.09,0,0,1,4.09,4.08ZM112.05,134h12V122h-12Z" transform="translate(0)"/><path class="cls-2" d="M149.17,119.66H134.29v14.88a1.76,1.76,0,0,0,1.77,1.76h14.87V121.42A1.76,1.76,0,0,0,149.17,119.66Z" transform="translate(0)"/><path class="cls-2" d="M153.26,138.63h-17.2a4.09,4.09,0,0,1-4.09-4.09v-17.2h17.2a4.09,4.09,0,0,1,4.09,4.08ZM136.62,134h12V122h-12Z" transform="translate(0)"/><path class="cls-2" d="M160.63,111.73h14.88V96.85a1.76,1.76,0,0,0-1.77-1.76H158.87V110A1.76,1.76,0,0,0,160.63,111.73Z" transform="translate(0)"/><path class="cls-2" d="M177.83,114.06h-17.2a4.09,4.09,0,0,1-4.09-4.09V92.76h17.2a4.09,4.09,0,0,1,4.09,4.09ZM161.2,109.4h12v-12h-12Z" transform="translate(0)"/><path class="cls-2" d="M193.45,95.09h-10V110a1.76,1.76,0,0,0,1.76,1.76h14.88v-10a1.75,1.75,0,0,0-.45-1.17,59.57,59.57,0,0,0-5-5A1.75,1.75,0,0,0,193.45,95.09Z" transform="translate(0)"/><path class="cls-2" d="M202.41,114.06H185.2a4.1,4.1,0,0,1-4.09-4.09V92.76h12.34a4.09,4.09,0,0,1,2.72,1A61.33,61.33,0,0,1,201.38,99a4.1,4.1,0,0,1,1,2.71Zm-16.64-4.66h12V102a60.5,60.5,0,0,0-4.52-4.54h-7.46Z" transform="translate(0)"/><path class="cls-2" d="M185.2,160.87h14.88V146a1.76,1.76,0,0,0-1.76-1.76H183.44v14.87A1.76,1.76,0,0,0,185.2,160.87Z" transform="translate(0)"/><path class="cls-2" d="M202.41,163.2H185.2a4.09,4.09,0,0,1-4.09-4.09v-17.2h17.21a4.09,4.09,0,0,1,4.09,4.09Zm-16.64-4.65h12v-12h-12Z" transform="translate(0)"/><path class="cls-2" d="M136.06,111.73h14.87V96.85a1.76,1.76,0,0,0-1.76-1.76H134.29V110A1.76,1.76,0,0,0,136.06,111.73Z" transform="translate(0)"/><path class="cls-2" d="M153.26,114.06h-17.2A4.09,4.09,0,0,1,132,110V92.76h17.2a4.09,4.09,0,0,1,4.09,4.09Zm-16.64-4.66h12v-12h-12Z" transform="translate(0)"/><path class="cls-2" d="M173.74,119.66H158.87v14.88a1.76,1.76,0,0,0,1.76,1.76h14.88V121.42A1.76,1.76,0,0,0,173.74,119.66Z" transform="translate(0)"/><path class="cls-2" d="M177.83,138.63h-17.2a4.09,4.09,0,0,1-4.09-4.09v-17.2h17.2a4.09,4.09,0,0,1,4.09,4.08ZM161.2,134h12V122h-12Z" transform="translate(0)"/><path class="cls-2" d="M160.63,160.87h14.88V146a1.76,1.76,0,0,0-1.77-1.76H158.87v14.87A1.76,1.76,0,0,0,160.63,160.87Z" transform="translate(0)"/><path class="cls-2" d="M177.83,163.2h-17.2a4.09,4.09,0,0,1-4.09-4.09v-17.2h17.2a4.09,4.09,0,0,1,4.09,4.09Zm-16.63-4.65h12v-12h-12Z" transform="translate(0)"/><path class="cls-2" d="M198.32,119.66H183.44v14.88a1.76,1.76,0,0,0,1.76,1.76h14.88V121.42A1.76,1.76,0,0,0,198.32,119.66Z" transform="translate(0)"/><path class="cls-2" d="M202.41,138.63H185.2a4.09,4.09,0,0,1-4.09-4.09v-17.2h17.21a4.09,4.09,0,0,1,4.09,4.08ZM185.77,134h12V122h-12Z" transform="translate(0)"/><path class="cls-2" d="M124.69,138H111.4a3.44,3.44,0,0,1-3.43-3.43V120.92a.72.72,0,0,1,1.43,0v13.65a2,2,0,0,0,2,2h13.29a.72.72,0,0,1,0,1.43Z" transform="translate(0)"/><path class="cls-2" d="M124.69,140.33H111.4a5.77,5.77,0,0,1-5.76-5.76V120.92a3,3,0,0,1,6.09,0v13.33h13a3,3,0,1,1,0,6.08Z" transform="translate(0)"/><path class="cls-2" d="M124.69,162.61H111.4a3.44,3.44,0,0,1-3.43-3.44V145.52a.72.72,0,0,1,1.43,0v13.65a2,2,0,0,0,2,2h13.29a.72.72,0,0,1,0,1.43Z" transform="translate(0)"/><path class="cls-2" d="M124.69,164.93H111.4a5.77,5.77,0,0,1-5.76-5.76V145.52a3,3,0,0,1,6.09,0v13.33h13a3,3,0,1,1,0,6.08Z" transform="translate(0)"/><path class="cls-2" d="M149.27,138H136a3.44,3.44,0,0,1-3.43-3.43V120.92a.71.71,0,1,1,1.42,0v13.65a2,2,0,0,0,2,2h13.28a.72.72,0,1,1,0,1.43Z" transform="translate(0)"/><path class="cls-2" d="M149.27,140.33H136a5.76,5.76,0,0,1-5.76-5.76V120.92a3,3,0,1,1,6.08,0v13.33h13a3,3,0,1,1,0,6.08Z" transform="translate(0)"/><path class="cls-2" d="M149.27,162.61H136a3.44,3.44,0,0,1-3.43-3.44V145.52a.71.71,0,0,1,1.42,0v13.65a2,2,0,0,0,2,2h13.28a.72.72,0,1,1,0,1.43Z" transform="translate(0)"/><path class="cls-2" d="M149.27,164.93H136a5.76,5.76,0,0,1-5.76-5.76V145.52a3,3,0,1,1,6.08,0v13.33h13a3,3,0,1,1,0,6.08Z" transform="translate(0)"/><path class="cls-2" d="M173.83,138H160.54a3.44,3.44,0,0,1-3.43-3.43V120.92a.72.72,0,0,1,1.43,0v13.65a2,2,0,0,0,2,2h13.29a.72.72,0,0,1,0,1.43Z" transform="translate(0)"/><path class="cls-2" d="M173.83,140.33H160.54a5.77,5.77,0,0,1-5.76-5.76V120.92a3,3,0,0,1,6.09,0v13.33h13a3,3,0,0,1,0,6.08Z" transform="translate(0)"/><path class="cls-2" d="M149.27,113.4H136a3.44,3.44,0,0,1-3.43-3.43V96.32a.71.71,0,1,1,1.42,0V110a2,2,0,0,0,2,2h13.28a.72.72,0,1,1,0,1.43Z" transform="translate(0)"/><path class="cls-2" d="M149.27,115.73H136a5.77,5.77,0,0,1-5.76-5.76V96.32a3,3,0,1,1,6.08,0v13.32h13a3,3,0,1,1,0,6.09Z" transform="translate(0)"/><path class="cls-2" d="M124.69,113.4H111.4A3.44,3.44,0,0,1,108,110v-6.89a.72.72,0,0,1,1.43,0V110a2,2,0,0,0,2,2h13.29a.72.72,0,0,1,0,1.43Z" transform="translate(0)"/><path class="cls-2" d="M124.69,115.73H111.4a5.77,5.77,0,0,1-5.76-5.76v-6.89a3,3,0,0,1,6.09,0v6.56h13a3,3,0,0,1,0,6.09Z" transform="translate(0)"/><path class="cls-2" d="M173.83,113.4H160.54a3.44,3.44,0,0,1-3.43-3.43V96.32a.72.72,0,1,1,1.43,0V110a2,2,0,0,0,2,2h13.29a.72.72,0,0,1,0,1.43Z" transform="translate(0)"/><path class="cls-2" d="M173.83,115.73H160.54a5.77,5.77,0,0,1-5.76-5.76V96.32a3,3,0,1,1,6.09,0v13.32h13a3,3,0,0,1,0,6.09Z" transform="translate(0)"/><path class="cls-2" d="M149.35,88.89H136.06a3.44,3.44,0,0,1-3.43-3.44v-.12a.72.72,0,0,1,1.43,0v.12a2,2,0,0,0,2,2h13.29a.72.72,0,0,1,0,1.43Z" transform="translate(0)"/><path class="cls-2" d="M149.35,91.21H136.06a5.77,5.77,0,0,1-5.76-5.76v-.12a3,3,0,0,1,6.08-.2h13a3,3,0,0,1,0,6.08Z" transform="translate(0)"/><path class="cls-2" d="M173.9,88.89H160.62a3.44,3.44,0,0,1-3.43-3.44V81.8a.72.72,0,0,1,1.43,0v3.65a2,2,0,0,0,2,2H173.9a.72.72,0,1,1,0,1.43Z" transform="translate(0)"/><path class="cls-2" d="M173.9,91.21H160.62a5.76,5.76,0,0,1-5.76-5.76V81.8a3,3,0,0,1,6.08,0v3.33h13a3,3,0,1,1,0,6.08Z" transform="translate(0)"/><path class="cls-2" d="M198.42,113.4H185.13A3.44,3.44,0,0,1,181.7,110V96.32a.72.72,0,1,1,1.43,0V110a2,2,0,0,0,2,2h13.29a.72.72,0,0,1,0,1.43Z" transform="translate(0)"/><path class="cls-2" d="M198.42,115.73H185.13a5.77,5.77,0,0,1-5.76-5.76V96.32a3,3,0,1,1,6.09,0v13.32h13a3,3,0,0,1,0,6.09Z" transform="translate(0)"/><path class="cls-2" d="M173.83,162.61H160.54a3.44,3.44,0,0,1-3.43-3.44V145.52a.72.72,0,0,1,1.43,0v13.65a2,2,0,0,0,2,2h13.29a.72.72,0,0,1,0,1.43Z" transform="translate(0)"/><path class="cls-2" d="M173.83,164.93H160.54a5.77,5.77,0,0,1-5.76-5.76V145.52a3,3,0,0,1,6.09,0v13.33h13a3,3,0,0,1,0,6.08Z" transform="translate(0)"/><path class="cls-2" d="M149.27,187.29H136a3.44,3.44,0,0,1-3.43-3.44V170.2a.71.71,0,0,1,1.42,0v13.65a2,2,0,0,0,2,2h13.28a.72.72,0,1,1,0,1.43Z" transform="translate(0)"/><path class="cls-2" d="M149.27,189.61H136a5.76,5.76,0,0,1-5.76-5.76V170.2a3,3,0,1,1,6.08,0v13.33h13a3,3,0,1,1,0,6.08Z" transform="translate(0)"/><path class="cls-2" d="M173.83,187.29H160.54a3.44,3.44,0,0,1-3.43-3.44V170.2a.72.72,0,0,1,1.43,0v13.65a2,2,0,0,0,2,2h13.29a.72.72,0,0,1,0,1.43Z" transform="translate(0)"/><path class="cls-2" d="M173.83,189.61H160.54a5.77,5.77,0,0,1-5.76-5.76V170.2a3,3,0,0,1,6.09,0v13.33h13a3,3,0,0,1,0,6.08Z" transform="translate(0)"/><path class="cls-2" d="M192.18,187.29h-7.12a3.44,3.44,0,0,1-3.44-3.44V170.2a.72.72,0,0,1,1.43,0v13.65a2,2,0,0,0,2,2h7.12a.72.72,0,0,1,0,1.43Z" transform="translate(0)"/><path class="cls-2" d="M192.18,189.61h-7.12a5.76,5.76,0,0,1-5.76-5.76V170.2a3,3,0,0,1,6.08,0v13.33h6.8a3,3,0,0,1,0,6.08Z" transform="translate(0)"/><path class="cls-2" d="M198.34,138H185.06a3.44,3.44,0,0,1-3.44-3.43V120.92a.72.72,0,0,1,1.43,0v13.65a2,2,0,0,0,2,2h13.28a.72.72,0,0,1,0,1.43Z" transform="translate(0)"/><path class="cls-2" d="M198.34,140.33H185.06a5.76,5.76,0,0,1-5.76-5.76V120.92a3,3,0,1,1,6.08,0v13.33h13a3,3,0,0,1,0,6.08Z" transform="translate(0)"/><path class="cls-2" d="M198.34,162.61H185.06a3.44,3.44,0,0,1-3.44-3.44V145.52a.72.72,0,0,1,1.43,0v13.65a2,2,0,0,0,2,2h13.28a.72.72,0,0,1,0,1.43Z" transform="translate(0)"/><path class="cls-2" d="M198.34,164.93H185.06a5.76,5.76,0,0,1-5.76-5.76V145.52a3,3,0,1,1,6.08,0v13.33h13a3,3,0,0,1,0,6.08Z" transform="translate(0)"/><path class="cls-2" d="M213.1,138h-3.37a3.44,3.44,0,0,1-3.43-3.43V120.92a.72.72,0,0,1,1.43,0v13.65a2,2,0,0,0,2,2h3.37a.72.72,0,0,1,0,1.43Z" transform="translate(0)"/><path class="cls-2" d="M213.1,140.33h-3.37a5.77,5.77,0,0,1-5.76-5.76V120.92a3,3,0,0,1,6.09,0v13.33h3a3,3,0,1,1,0,6.08Z" transform="translate(0)"/><path class="cls-2" d="M209.73,162.61h0a3.44,3.44,0,0,1-3.4-3.44V145.52a.72.72,0,0,1,1.43,0v13.65a2,2,0,0,0,2,2,.72.72,0,1,1,0,1.43Z" transform="translate(0)"/><path class="cls-2" d="M209.73,164.93h0a5.78,5.78,0,0,1-5.71-5.76V145.52a3,3,0,0,1,6.09,0v13.35a3,3,0,0,1-.33,6.06Z" transform="translate(0)"/><path class="cls-2" d="M149.38,201.7h-.07A67.93,67.93,0,0,1,135.18,199a3.71,3.71,0,0,1-2.62-3.63v-.41a.71.71,0,0,1,1.42,0v.41a2.3,2.3,0,0,0,1.6,2.26,66.74,66.74,0,0,0,13.87,2.67.71.71,0,0,1-.07,1.42Z" transform="translate(0)"/><path class="cls-2" d="M149.38,204l-.31,0a70.44,70.44,0,0,1-14.55-2.79,6,6,0,0,1-4.29-5.87v-.41a3,3,0,1,1,6.08,0v.41a.43.43,0,0,0,0,.05A64.27,64.27,0,0,0,149.69,198a3,3,0,0,1,2.05,1.1,3.08,3.08,0,0,1,.67,2.24A3,3,0,0,1,149.38,204Z" transform="translate(0)"/><path class="cls-2" d="M160.71,201.69a3.47,3.47,0,0,1-2.24-.83,3.67,3.67,0,0,1-1.28-2.78v-3a.72.72,0,1,1,1.43,0v3a2.2,2.2,0,0,0,.78,1.69,2,2,0,0,0,1.62.47,74.29,74.29,0,0,0,12.87-2.91.71.71,0,1,1,.43,1.36,75.08,75.08,0,0,1-13.08,3A3.08,3.08,0,0,1,160.71,201.69Z" transform="translate(0)"/><path class="cls-2" d="M160.71,204a5.76,5.76,0,0,1-3.75-1.39,6,6,0,0,1-2.1-4.55v-3a3,3,0,0,1,6.08,0v2.83a71.82,71.82,0,0,0,12.25-2.78,3,3,0,0,1,3.61,4.31,3,3,0,0,1-1.78,1.49,76.55,76.55,0,0,1-13.41,3A5.46,5.46,0,0,1,160.71,204Z" transform="translate(0)"/><path class="cls-2" d="M101.25,162.55H99.6a3.63,3.63,0,0,1-3.45-2.5,64.39,64.39,0,0,1-3.05-15.82.72.72,0,1,1,1.43-.09,63,63,0,0,0,3,15.47,2.21,2.21,0,0,0,2.1,1.51h1.65a.72.72,0,1,1,0,1.43Z" transform="translate(0)"/><path class="cls-2" d="M101.25,164.88H99.6a6,6,0,0,1-5.67-4.11,66.58,66.58,0,0,1-3.15-16.39,3,3,0,0,1,6.07-.4,60.45,60.45,0,0,0,2.84,14.81h1.56a3,3,0,1,1,0,6.09Z" transform="translate(0)"/><path class="cls-2" d="M101,138H96.81a3.71,3.71,0,0,1-3.69-4.14,64.13,64.13,0,0,1,3.46-14.47.71.71,0,0,1,.91-.43.73.73,0,0,1,.43.92,62.5,62.5,0,0,0-3.38,14.15,2.27,2.27,0,0,0,2.27,2.54H101a.72.72,0,0,1,0,1.43Z" transform="translate(0)"/><path class="cls-2" d="M101,140.36H96.81a6,6,0,0,1-6-6.74,66.4,66.4,0,0,1,3.58-15,3,3,0,1,1,5.71,2.09,60.1,60.1,0,0,0-3.24,13.56H101a3,3,0,0,1,0,6.09Z" transform="translate(0)"/><path class="cls-2" d="M124.52,187.19h-8.63a3.43,3.43,0,0,1-2.31-.88c-1.62-1.46-3.18-3-4.65-4.62a3.45,3.45,0,0,1-.9-2.33v-8.65a.72.72,0,1,1,1.43,0v8.65a2,2,0,0,0,.53,1.36,62.73,62.73,0,0,0,4.55,4.53,2,2,0,0,0,1.35.52h8.63a.71.71,0,0,1,0,1.42Z" transform="translate(0)"/><path class="cls-2" d="M124.52,189.52h-8.63A5.75,5.75,0,0,1,112,188c-1.67-1.51-3.29-3.11-4.81-4.77a5.79,5.79,0,0,1-1.51-3.9v-8.65a3,3,0,0,1,6.09,0v8.53c1.33,1.46,2.75,2.87,4.22,4.2h8.51a3,3,0,1,1,0,6.08Z" transform="translate(0)"/><path class="cls-16" d="M145.72,207.28h10V70.3h-10C109.59,70.3,80.3,101,80.3,138.79s29.29,68.49,65.42,68.49" transform="translate(0)"/><circle class="cls-17" cx="155.46" cy="138.79" r="68.49"/><path class="cls-18" d="M134.37,191.93v3.48a1.89,1.89,0,0,0,1.28,1.78,78.49,78.49,0,0,0,15.26,3,1.88,1.88,0,0,0,2.05-1.87v-6.36a1.88,1.88,0,0,0-1.87-1.88H136.25A1.88,1.88,0,0,0,134.37,191.93Z" transform="translate(0)"/><path class="cls-18" d="M102.06,140.91h-5.6a1.76,1.76,0,0,0-1.75,1.93,91.44,91.44,0,0,0,3.22,16.82,1.66,1.66,0,0,0,1.59,1.19h2.54a1.76,1.76,0,0,0,1.76-1.76V142.67A1.76,1.76,0,0,0,102.06,140.91Z" transform="translate(0)"/><path class="cls-18" d="M153,85.37V79A1.75,1.75,0,0,0,151,77.23a77.28,77.28,0,0,0-15.47,2.86,1.77,1.77,0,0,0-1.2,1.67v3.61a1.76,1.76,0,0,0,1.76,1.76H151.2A1.75,1.75,0,0,0,153,85.37Z" transform="translate(0)"/><path class="cls-18" d="M102.06,116.34h-1.32a1.78,1.78,0,0,0-1.67,1.19,93.25,93.25,0,0,0-4,16.84,1.76,1.76,0,0,0,1.75,1.93h5.22a1.76,1.76,0,0,0,1.76-1.76V118.1A1.76,1.76,0,0,0,102.06,116.34Z" transform="translate(0)"/><path class="cls-18" d="M159,191.93v6.16A1.88,1.88,0,0,0,161,200a79.11,79.11,0,0,0,15.26-3.62,2,2,0,0,0,1.25-1.89l0-2.52a1.88,1.88,0,0,0-1.88-1.88H160.82A1.88,1.88,0,0,0,159,191.93Z" transform="translate(0)"/><path class="cls-18" d="M177.54,85.37V81.93a1.78,1.78,0,0,0-1.19-1.67,77.27,77.27,0,0,0-15.47-3A1.76,1.76,0,0,0,158.94,79v6.34a1.76,1.76,0,0,0,1.76,1.76h15.08A1.76,1.76,0,0,0,177.54,85.37Z" transform="translate(0)"/><path class="cls-18" d="M209.85,160.85h1.37a1.76,1.76,0,0,0,1.67-1.19,92.68,92.68,0,0,0,3.52-16.82,1.76,1.76,0,0,0-1.75-1.93h-4.81a1.76,1.76,0,0,0-1.76,1.76v16.42A1.76,1.76,0,0,0,209.85,160.85Z" transform="translate(0)"/><path class="cls-18" d="M128.39,110V93.52a1.76,1.76,0,0,0-1.76-1.76H115.94a1.77,1.77,0,0,0-1.18.45,61.23,61.23,0,0,0-4.5,4.47,1.76,1.76,0,0,0-.46,1.19V110a1.76,1.76,0,0,0,1.76,1.76h15.07A1.76,1.76,0,0,0,128.39,110Z" transform="translate(0)"/><path class="cls-18" d="M209.85,136.36h5.85a1.76,1.76,0,0,0,1.75-1.94,92.31,92.31,0,0,0-4-16.89,1.67,1.67,0,0,0-1.59-1.19h-2.24a1.59,1.59,0,0,0-1.55,1.76v16.5A1.76,1.76,0,0,0,209.85,136.36Z" transform="translate(0)"/><rect class="cls-18" x="158.95" y="165.48" width="18.59" height="19.94" rx="1.88"/><path class="cls-18" d="M183.52,167.36v16.26a1.88,1.88,0,0,0,1.87,1.88l10.11-.07a1.91,1.91,0,0,0,1.25-.48,62.35,62.35,0,0,0,4.89-5,1.87,1.87,0,0,0,.47-1.24V167.36a1.88,1.88,0,0,0-1.88-1.88H185.39A1.88,1.88,0,0,0,183.52,167.36Z" transform="translate(0)"/><rect class="cls-18" x="134.37" y="140.91" width="18.59" height="19.94" rx="1.76"/><path class="cls-18" d="M126.51,165.48H111.68a1.88,1.88,0,0,0-1.88,1.88v12a1.87,1.87,0,0,0,.49,1.27,59.65,59.65,0,0,0,4.37,4.34,1.9,1.9,0,0,0,1.26.49h10.59a1.88,1.88,0,0,0,1.88-1.88V167.36A1.88,1.88,0,0,0,126.51,165.48Z" transform="translate(0)"/><path class="cls-18" d="M151.09,165.48H136.32a2,2,0,0,0-1.95,1.88v16.26a2,2,0,0,0,1.95,1.88h14.77a1.88,1.88,0,0,0,1.87-1.88V167.36A1.88,1.88,0,0,0,151.09,165.48Z" transform="translate(0)"/><rect class="cls-18" x="109.8" y="140.91" width="18.59" height="19.94" rx="1.76"/><rect class="cls-18" x="109.8" y="116.34" width="18.59" height="19.94" rx="1.76"/><rect class="cls-18" x="134.37" y="116.34" width="18.59" height="19.94" rx="1.76"/><rect class="cls-18" x="158.95" y="91.76" width="18.59" height="19.94" rx="1.76"/><path class="cls-18" d="M195.48,91.76h-10.2a1.76,1.76,0,0,0-1.76,1.76l0,16.46a1.76,1.76,0,0,0,1.76,1.76h15.08a1.76,1.76,0,0,0,1.76-1.76l0-11.56a1.79,1.79,0,0,0-.44-1.17,61.21,61.21,0,0,0-5-5A1.75,1.75,0,0,0,195.48,91.76Z" transform="translate(0)"/><rect class="cls-18" x="183.52" y="140.91" width="18.59" height="19.94" rx="1.76"/><rect class="cls-18" x="134.37" y="91.76" width="18.59" height="19.94" rx="1.76"/><rect class="cls-18" x="158.95" y="116.34" width="18.59" height="19.94" rx="1.76"/><rect class="cls-18" x="158.95" y="140.91" width="18.59" height="19.94" rx="1.76"/><rect class="cls-18" x="183.52" y="116.34" width="18.59" height="19.94" rx="1.76"/><path class="cls-16" d="M134.37,193.38v2.05a1.88,1.88,0,0,0,1.28,1.78,60,60,0,0,0,15.36,3v-4.93a1.88,1.88,0,0,0-1.88-1.88Z" transform="translate(0)"/><path class="cls-16" d="M100.1,144.24H94.85a59.76,59.76,0,0,0,3.07,15.44,1.76,1.76,0,0,0,1.67,1.19h2.27V146A1.76,1.76,0,0,0,100.1,144.24Z" transform="translate(0)"/><path class="cls-16" d="M151,87.16V82.31a1.77,1.77,0,0,0-1.93-1.76,59.79,59.79,0,0,0-14.71,3.28V85.4a1.76,1.76,0,0,0,1.76,1.76Z" transform="translate(0)"/><path class="cls-16" d="M100.1,119.66H98.36A59.87,59.87,0,0,0,95,134.37a1.76,1.76,0,0,0,1.75,1.93h5.1V121.42A1.76,1.76,0,0,0,100.1,119.66Z" transform="translate(0)"/><path class="cls-16" d="M158.94,193.38v4.73A1.88,1.88,0,0,0,161,200a59.86,59.86,0,0,0,14.57-3.4v-1.32a1.88,1.88,0,0,0-1.88-1.88Z" transform="translate(0)"/><path class="cls-16" d="M175.58,87.16V85.25a1.76,1.76,0,0,0-1.19-1.66,59.41,59.41,0,0,0-15.45-3.15v5a1.76,1.76,0,0,0,1.76,1.76Z" transform="translate(0)"/><path class="cls-16" d="M209.87,160.87h1.24a59.88,59.88,0,0,0,3.34-14.7,1.76,1.76,0,0,0-1.75-1.93h-4.61v14.85A1.77,1.77,0,0,0,209.87,160.87Z" transform="translate(0)"/><path class="cls-16" d="M126.43,111.73V96.85a1.76,1.76,0,0,0-1.76-1.76h-8.74a1.75,1.75,0,0,0-1.17.45,59.76,59.76,0,0,0-5,5V110a1.76,1.76,0,0,0,1.76,1.76Z" transform="translate(0)"/><path class="cls-16" d="M209.85,136.3h4.75a59.36,59.36,0,0,0-3.09-15.44,1.75,1.75,0,0,0-1.66-1.2h-1.76v14.88A1.76,1.76,0,0,0,209.85,136.3Z" transform="translate(0)"/><path class="cls-16" d="M173.7,168.81H158.94v14.76a1.88,1.88,0,0,0,1.88,1.88h14.76V170.69A1.88,1.88,0,0,0,173.7,168.81Z" transform="translate(0)"/><path class="cls-16" d="M183.51,168.81v14.76a1.88,1.88,0,0,0,1.88,1.88h8.15a1.9,1.9,0,0,0,1.26-.48,62.67,62.67,0,0,0,5.35-5.46v-8.82a1.88,1.88,0,0,0-1.88-1.88Z" transform="translate(0)"/><path class="cls-16" d="M136.13,160.87H151V146a1.76,1.76,0,0,0-1.77-1.76H134.37v14.87A1.76,1.76,0,0,0,136.13,160.87Z" transform="translate(0)"/><path class="cls-16" d="M124.56,168.81H109.8v10.54a1.91,1.91,0,0,0,.48,1.27q2.09,2.28,4.38,4.35a1.86,1.86,0,0,0,1.25.48h10.52V170.69A1.88,1.88,0,0,0,124.56,168.81Z" transform="translate(0)"/><path class="cls-16" d="M149.13,168.81H134.37v14.76a1.88,1.88,0,0,0,1.87,1.88H151V170.69A1.88,1.88,0,0,0,149.13,168.81Z" transform="translate(0)"/><path class="cls-16" d="M111.56,160.87h14.87V146a1.76,1.76,0,0,0-1.76-1.76H109.8v14.87A1.75,1.75,0,0,0,111.56,160.87Z" transform="translate(0)"/><path class="cls-16" d="M124.67,119.66H109.8v14.88a1.76,1.76,0,0,0,1.76,1.76h14.87V121.42A1.76,1.76,0,0,0,124.67,119.66Z" transform="translate(0)"/><path class="cls-16" d="M149.24,119.66H134.37v14.88a1.76,1.76,0,0,0,1.76,1.76H151V121.42A1.76,1.76,0,0,0,149.24,119.66Z" transform="translate(0)"/><path class="cls-16" d="M160.7,111.73h14.88V96.85a1.76,1.76,0,0,0-1.76-1.76H158.94V110A1.76,1.76,0,0,0,160.7,111.73Z" transform="translate(0)"/><path class="cls-16" d="M193.52,95.09h-10V110a1.76,1.76,0,0,0,1.76,1.76h14.88v-10a1.79,1.79,0,0,0-.44-1.17,61.1,61.1,0,0,0-5-5A1.79,1.79,0,0,0,193.52,95.09Z" transform="translate(0)"/><path class="cls-16" d="M185.27,160.87h14.88V146a1.76,1.76,0,0,0-1.76-1.76H183.51v14.87A1.76,1.76,0,0,0,185.27,160.87Z" transform="translate(0)"/><path class="cls-16" d="M136.13,111.73H151V96.85a1.76,1.76,0,0,0-1.77-1.76H134.37V110A1.76,1.76,0,0,0,136.13,111.73Z" transform="translate(0)"/><path class="cls-16" d="M173.82,119.66H158.94v14.88a1.76,1.76,0,0,0,1.76,1.76h14.88V121.42A1.76,1.76,0,0,0,173.82,119.66Z" transform="translate(0)"/><path class="cls-16" d="M160.7,160.87h14.88V146a1.76,1.76,0,0,0-1.76-1.76H158.94v14.87A1.76,1.76,0,0,0,160.7,160.87Z" transform="translate(0)"/><path class="cls-16" d="M198.39,119.66H183.51v14.88a1.76,1.76,0,0,0,1.76,1.76h14.88V121.42A1.76,1.76,0,0,0,198.39,119.66Z" transform="translate(0)"/><path class="cls-19" d="M124.76,138H111.48a3.44,3.44,0,0,1-3.44-3.43V120.92a.72.72,0,0,1,1.43,0v13.65a2,2,0,0,0,2,2h13.28a.72.72,0,0,1,0,1.43Z" transform="translate(0)"/><path class="cls-19" d="M124.76,162.61H111.48a3.44,3.44,0,0,1-3.44-3.44V145.52a.72.72,0,0,1,1.43,0v13.65a2,2,0,0,0,2,2h13.28a.72.72,0,0,1,0,1.43Z" transform="translate(0)"/><path class="cls-19" d="M149.35,138H136.06a3.44,3.44,0,0,1-3.43-3.43V120.92a.72.72,0,0,1,1.43,0v13.65a2,2,0,0,0,2,2h13.29a.72.72,0,0,1,0,1.43Z" transform="translate(0)"/><path class="cls-19" d="M149.35,162.61H136.06a3.44,3.44,0,0,1-3.43-3.44V145.52a.72.72,0,0,1,1.43,0v13.65a2,2,0,0,0,2,2h13.29a.72.72,0,0,1,0,1.43Z" transform="translate(0)"/><path class="cls-19" d="M173.9,138H160.62a3.44,3.44,0,0,1-3.43-3.43V120.92a.71.71,0,1,1,1.42,0v13.65a2,2,0,0,0,2,2H173.9a.72.72,0,1,1,0,1.43Z" transform="translate(0)"/><path class="cls-19" d="M149.35,113.4H136.06a3.44,3.44,0,0,1-3.43-3.43V96.32a.72.72,0,1,1,1.43,0V110a2,2,0,0,0,2,2h13.29a.72.72,0,0,1,0,1.43Z" transform="translate(0)"/><path class="cls-19" d="M124.76,113.4H111.48A3.44,3.44,0,0,1,108,110v-6.89a.72.72,0,0,1,1.43,0V110a2,2,0,0,0,2,2h13.28a.72.72,0,0,1,0,1.43Z" transform="translate(0)"/><path class="cls-19" d="M173.9,113.4H160.62a3.44,3.44,0,0,1-3.43-3.43V96.32a.71.71,0,1,1,1.42,0V110a2,2,0,0,0,2,2H173.9a.72.72,0,1,1,0,1.43Z" transform="translate(0)"/><path class="cls-19" d="M149.42,88.89H136.14a3.43,3.43,0,0,1-3.43-3.44v-.12a.71.71,0,1,1,1.42,0v.12a2,2,0,0,0,2,2h13.28a.72.72,0,1,1,0,1.43Z" transform="translate(0)"/><path class="cls-19" d="M174,88.89H160.69a3.44,3.44,0,0,1-3.43-3.44V81.8a.72.72,0,0,1,1.43,0v3.65a2,2,0,0,0,2,2H174a.72.72,0,0,1,0,1.43Z" transform="translate(0)"/><path class="cls-19" d="M198.49,113.4H185.2a3.44,3.44,0,0,1-3.43-3.43V96.32a.72.72,0,1,1,1.43,0V110a2,2,0,0,0,2,2h13.29a.72.72,0,0,1,0,1.43Z" transform="translate(0)"/><path class="cls-19" d="M173.9,162.61H160.62a3.44,3.44,0,0,1-3.43-3.44V145.52a.71.71,0,0,1,1.42,0v13.65a2,2,0,0,0,2,2H173.9a.72.72,0,1,1,0,1.43Z" transform="translate(0)"/><path class="cls-19" d="M149.35,187.29H136.06a3.44,3.44,0,0,1-3.43-3.44V170.2a.72.72,0,0,1,1.43,0v13.65a2,2,0,0,0,2,2h13.29a.72.72,0,0,1,0,1.43Z" transform="translate(0)"/><path class="cls-19" d="M173.9,187.29H160.62a3.44,3.44,0,0,1-3.43-3.44V170.2a.71.71,0,1,1,1.42,0v13.65a2,2,0,0,0,2,2H173.9a.72.72,0,1,1,0,1.43Z" transform="translate(0)"/><path class="cls-19" d="M192.25,187.29h-7.12a3.44,3.44,0,0,1-3.43-3.44V170.2a.72.72,0,0,1,1.43,0v13.65a2,2,0,0,0,2,2h7.12a.72.72,0,1,1,0,1.43Z" transform="translate(0)"/><path class="cls-19" d="M198.41,138H185.13a3.44,3.44,0,0,1-3.43-3.43V120.92a.72.72,0,0,1,1.43,0v13.65a2,2,0,0,0,2,2h13.28a.72.72,0,1,1,0,1.43Z" transform="translate(0)"/><path class="cls-19" d="M198.41,162.61H185.13a3.44,3.44,0,0,1-3.43-3.44V145.52a.72.72,0,0,1,1.43,0v13.65a2,2,0,0,0,2,2h13.28a.72.72,0,1,1,0,1.43Z" transform="translate(0)"/><path class="cls-19" d="M213.17,138h-3.36a3.43,3.43,0,0,1-3.43-3.43V120.92a.71.71,0,1,1,1.42,0v13.65a2,2,0,0,0,2,2h3.36a.72.72,0,1,1,0,1.43Z" transform="translate(0)"/><path class="cls-19" d="M209.81,162.61h0a3.44,3.44,0,0,1-3.39-3.44V145.52a.71.71,0,0,1,1.42,0v13.65a2,2,0,0,0,2,2,.72.72,0,0,1,0,1.43Z" transform="translate(0)"/><path class="cls-19" d="M149.45,201.7h-.07A68.18,68.18,0,0,1,135.25,199a3.71,3.71,0,0,1-2.62-3.63v-.41a.72.72,0,0,1,1.43,0v.41a2.29,2.29,0,0,0,1.6,2.26,66.49,66.49,0,0,0,13.87,2.67.71.71,0,0,1,.63.78A.7.7,0,0,1,149.45,201.7Z" transform="translate(0)"/><path class="cls-19" d="M160.78,201.69a3.42,3.42,0,0,1-2.23-.83,3.65,3.65,0,0,1-1.29-2.78v-3a.72.72,0,1,1,1.43,0v3a2.2,2.2,0,0,0,.78,1.69,2,2,0,0,0,1.62.47A74.08,74.08,0,0,0,174,197.33a.71.71,0,1,1,.43,1.36,75,75,0,0,1-13.07,3A3.27,3.27,0,0,1,160.78,201.69Z" transform="translate(0)"/><path class="cls-19" d="M101.33,162.55H99.68a3.64,3.64,0,0,1-3.46-2.5,64.39,64.39,0,0,1-3-15.82.72.72,0,1,1,1.43-.09,62.57,62.57,0,0,0,3,15.47,2.2,2.2,0,0,0,2.1,1.51h1.65a.72.72,0,0,1,0,1.43Z" transform="translate(0)"/><path class="cls-19" d="M101,138H96.88a3.71,3.71,0,0,1-3.69-4.14,64.13,64.13,0,0,1,3.46-14.47.71.71,0,1,1,1.34.49,62.5,62.5,0,0,0-3.38,14.15,2.27,2.27,0,0,0,2.27,2.54H101a.72.72,0,0,1,0,1.43Z" transform="translate(0)"/><path class="cls-19" d="M124.59,187.19H116a3.47,3.47,0,0,1-2.31-.88c-1.61-1.46-3.18-3-4.64-4.62a3.4,3.4,0,0,1-.9-2.33v-8.65a.71.71,0,1,1,1.42,0v8.65a2,2,0,0,0,.53,1.36c1.44,1.58,3,3.1,4.55,4.53a2,2,0,0,0,1.35.52h8.63a.71.71,0,1,1,0,1.42Z" transform="translate(0)"/><g class="cls-20"><g class="cls-21"><path class="cls-22" d="M234.24,134.18A75.88,75.88,0,0,0,158.6,58.3h-11c-40,0-72.48,34-72.48,75.89s32.45,75.88,72.48,75.88h11A75.88,75.88,0,0,0,234.24,134.18Z" transform="translate(0)"/></g><g class="cls-23"><path class="cls-2" d="M62.53,53.93V184.27h184V53.93Zm149,79.42c-6.93-7.23-7.17-15.48-16.14-17.1s-.88,30.81,2.38,38.64-5,21.36-18,14.18,3.67-38.22,3.67-48.45-20.57-12.48-31.57-8.11,2.16,21.17,3.79,32.93-9.31,17-20.31,9.45,4.89-43.1-8.15-44.6-6.93,15.69-15.89,23.06-28,17.28-28-2.18c0-2.87,2-64.08,69.45-64.08s72.59,58.55,73.17,67.4S218.42,140.58,211.5,133.35Z" transform="translate(0)"/></g></g><path class="cls-2" d="M185.59,178.14a17.19,17.19,0,0,1-8.35-2.23c-9.94-5.5-4.57-22.77-.25-36.64,1.86-6,3.6-11.57,3.6-14.79a8.08,8.08,0,0,0-3.83-7,19.61,19.61,0,0,0-10.34-2.8,31.15,31.15,0,0,0-12.15,2.14c-3.14,1.25-4.37,3.55-4,7.45.34,3.68,2.05,8.11,3.87,12.8,1.73,4.49,3.52,9.12,4.08,13.22a11.81,11.81,0,0,1-5.76,12.12,18.1,18.1,0,0,1-10.25,2.44A21.54,21.54,0,0,1,131,161c-6-4.14-4.93-15.05-3.91-25.59.53-5.44,1-10.57.54-14.48-.5-4.1-1.95-6.07-4.7-6.39-4.2-.49-5.87,1.14-6.76,2.41-1.35,1.92-2,4.82-2.66,7.89-1,4.75-2.23,10.13-6.43,13.61a53.69,53.69,0,0,1-12.34,7.66c-5.4,2.33-9.74,2.75-12.9,1.26-3.57-1.68-5.37-5.68-5.37-11.89a79.55,79.55,0,0,1,9.9-35.06,61.24,61.24,0,0,1,21.85-22.64c11.23-6.75,25.15-10.18,41.36-10.18s30.35,3.31,41.85,9.83a64,64,0,0,1,23,22.36,81.59,81.59,0,0,1,9.78,24,91.39,91.39,0,0,1,2.3,15.06c.15,2.33-.18,5.33-2.6,6.39-1.63.71-3.87.35-6.48-1a30.64,30.64,0,0,1-7.37-5.87c-3.16-3.32-4.35-6.78-5.4-9.83-1.37-4-2.36-6.89-7.25-7.78a1.72,1.72,0,0,0-1.82.6c-1.68,2.08-1.52,8.78.45,18.36A134.93,134.93,0,0,0,201.8,160a9.54,9.54,0,0,1-.13,7.06,16.85,16.85,0,0,1-4.61,6.58,17.67,17.67,0,0,1-8.86,4.33A16.4,16.4,0,0,1,185.59,178.14Zm-20-65.24c4.7,0,9.08,1,12.14,3.12a9.91,9.91,0,0,1,4.62,8.46c0,3.49-1.71,9-3.68,15.32-4.13,13.25-9.26,29.75-.6,34.55a14.86,14.86,0,0,0,9.81,1.82,15.91,15.91,0,0,0,8-3.9c3.91-3.49,5.68-8.28,4.29-11.63a135.47,135.47,0,0,1-5.85-20.53c-2.16-10.55-2.19-17.23-.09-19.84a3.5,3.5,0,0,1,3.53-1.23,9.18,9.18,0,0,1,6,3.35,18.87,18.87,0,0,1,2.61,5.6c1,2.88,2.11,6.14,5,9.18a29.21,29.21,0,0,0,6.92,5.52c2.08,1.11,3.83,1.46,4.92,1,1.48-.65,1.65-2.88,1.54-4.64a89.7,89.7,0,0,0-2.25-14.76,80,80,0,0,0-9.57-23.53A62.28,62.28,0,0,0,190.52,79c-11.23-6.37-25-9.59-41-9.59s-29.49,3.33-40.44,9.91a59.63,59.63,0,0,0-21.22,22,77.54,77.54,0,0,0-9.67,34.18c0,5.46,1.46,8.92,4.35,10.28,2.64,1.24,6.6.8,11.44-1.29a52,52,0,0,0,11.9-7.4c3.73-3.08,4.8-7.93,5.83-12.62.71-3.25,1.38-6.32,2.94-8.53,1.8-2.57,4.56-3.6,8.43-3.15a6.1,6.1,0,0,1,4.49,2.61,11.53,11.53,0,0,1,1.77,5.33c.51,4.11,0,9.33-.53,14.87a94.34,94.34,0,0,0-.69,14.62c.33,4.72,1.59,7.78,3.84,9.34a19.75,19.75,0,0,0,10.3,3.52,16.37,16.37,0,0,0,9.23-2.18,10,10,0,0,0,4.93-10.36c-.54-3.89-2.29-8.43-4-12.81-1.86-4.81-3.61-9.36-4-13.28a10.13,10.13,0,0,1,.8-5.51,7.83,7.83,0,0,1,4.33-3.77A32.82,32.82,0,0,1,165.62,112.9Z" transform="translate(0)"/><path class="cls-24" d="M220.93,131.82a1.44,1.44,0,0,1-1.42-1.23,65.79,65.79,0,0,0-74.92-55.32,1.44,1.44,0,1,1-.43-2.84,68.66,68.66,0,0,1,78.19,57.74,1.43,1.43,0,0,1-1.2,1.63Z" transform="translate(0)"/><path class="cls-24" d="M150.89,145.67a1.42,1.42,0,0,1-1.3-.83c-.26-.56-6.36-13.86-6.71-25.74a1.44,1.44,0,0,1,2.87-.09c.34,11.29,6.38,24.49,6.45,24.62a1.45,1.45,0,0,1-.71,1.91A1.41,1.41,0,0,1,150.89,145.67Z" transform="translate(0)"/><path class="cls-24" d="M100.31,138.05a2.87,2.87,0,0,1-.41,0,1.45,1.45,0,0,1-1.15-1.68,1.43,1.43,0,0,1,1.57-1.16c.14,0,1.33-.19,3.05-2.67s4.36-8,6.7-19.4c.45-2.18,2.11-3.67,4.68-4.17a11.53,11.53,0,0,1,3.43-.13,1.44,1.44,0,0,1-.38,2.85,8.27,8.27,0,0,0-2.54.11,2.66,2.66,0,0,0-2.38,1.92c-2.12,10.34-4.74,17.52-7.81,21.35C103,137.69,101.13,138.05,100.31,138.05Zm.12-2.86Zm0,0Z" transform="translate(0)"/><circle class="cls-24" cx="152.96" cy="149" r="1.88"/><path class="cls-24" d="M195.27,158.45a1.42,1.42,0,0,1-1.34-.92,126.44,126.44,0,0,1-3.79-12.33c-3-12-3.45-20.4-3.25-25.34a1.44,1.44,0,1,1,2.87.12c-.67,16.51,6.78,36.33,6.85,36.53a1.43,1.43,0,0,1-.83,1.85A1.52,1.52,0,0,1,195.27,158.45Z" transform="translate(0)"/><circle class="cls-24" cx="221.21" cy="136.13" r="1.88"/><path class="cls-7" d="M125.57,119.62A16.46,16.46,0,1,0,142,136.08Z" transform="translate(0)"/><path class="cls-2" d="M125.57,153.43a17.35,17.35,0,1,1,0-34.7h.37l17,17v.37A17.37,17.37,0,0,1,125.57,153.43Zm-.37-32.91a15.56,15.56,0,1,0,15.93,15.92Z" transform="translate(0)"/><path class="cls-7" d="M184.7,119.62a16.46,16.46,0,1,1-16.46,16.46Z" transform="translate(0)"/><path class="cls-2" d="M184.7,153.43a17.37,17.37,0,0,1-17.35-17.35v-.37l17-17h.37a17.35,17.35,0,1,1,0,34.7Zm-15.56-17a15.57,15.57,0,1,0,15.92-15.92Z" transform="translate(0)"/><circle class="cls-2" cx="122.55" cy="135.49" r="7.97"/><circle class="cls-2" cx="181.5" cy="135.49" r="7.97"/><circle class="cls-7" cx="120.86" cy="132.18" r="2.13"/><circle class="cls-7" cx="179.38" cy="132.18" r="2.13"/><line class="cls-7" x1="184.7" y1="119.62" x2="192.55" y2="111.77"/><path class="cls-2" d="M184.7,120.51a.85.85,0,0,1-.63-.26.89.89,0,0,1,0-1.26l7.84-7.85a.9.9,0,1,1,1.27,1.27l-7.85,7.84A.85.85,0,0,1,184.7,120.51Z" transform="translate(0)"/><line class="cls-7" x1="125.76" y1="119.62" x2="117.92" y2="111.77"/><path class="cls-2" d="M125.76,120.51a.87.87,0,0,1-.63-.26l-7.84-7.84a.89.89,0,0,1,1.26-1.27l7.84,7.85a.89.89,0,0,1,0,1.26A.85.85,0,0,1,125.76,120.51Z" transform="translate(0)"/><g class="cls-25"><path class="cls-13" d="M128.74,165.35c0,9.26,16.69,18.51,32.42,18.51s28.48-9.25,28.48-18.51Z" transform="translate(0)"/><path class="cls-7" d="M126.08,167.87c0,9.27,12.75,16.77,28.48,16.77s28.49-7.5,28.49-16.77Z" transform="translate(0)"/></g><path class="cls-2" d="M159.07,184.19c-8.26,0-16-1.94-21.91-5.47s-9.31-8.46-9.31-13.65v-.89h62.43v.89c0,5.19-3.31,10-9.31,13.65S167.32,184.19,159.07,184.19ZM129.67,166c.37,4.21,3.32,8.17,8.41,11.23,5.59,3.36,13,5.21,21,5.21s15.39-1.85,21-5.21c5.09-3.06,8-7,8.41-11.23Z" transform="translate(0)"/><path class="cls-2" d="M144.37,176.81h0a.88.88,0,0,1-.64-.28l-4.14-4.48-5.06,3.07a.89.89,0,0,1-.92-1.53l5.67-3.44a.89.89,0,0,1,1.12.15l4,4.32,4.16-4.33a.91.91,0,0,1,1.26,0l2.9,2.73a.89.89,0,0,1-1.22,1.3l-2.26-2.13L145,176.54A.91.91,0,0,1,144.37,176.81Z" transform="translate(0)"/><path class="cls-26" d="M151.94,57.73a1.72,1.72,0,0,1-1.19-2.95,63.37,63.37,0,0,1,7.38-6c5.82-4,10.28-5.14,13.24-3.31,3.19,2,4.08,5,2.44,8.42a1.72,1.72,0,1,1-3.09-1.49c.88-1.81.55-3-1.15-4s-5.07.16-9.46,3.19a61.41,61.41,0,0,0-7,5.7A1.74,1.74,0,0,1,151.94,57.73Z" transform="translate(0)"/><circle class="cls-27" cx="169" cy="46.59" r="1.74"/><path class="cls-2" d="M151.94,58.62a2.55,2.55,0,0,1-1.86-.79,2.6,2.6,0,0,1,0-3.68,64.13,64.13,0,0,1,7.5-6.14c6.14-4.24,10.93-5.37,14.22-3.34,3.57,2.2,4.61,5.78,2.77,9.57a2.6,2.6,0,0,1-3.47,1.22A2.63,2.63,0,0,1,169.81,54a2.59,2.59,0,0,1,.11-2c.68-1.4.49-2.07-.82-2.87-.94-.59-3.74-.11-8.49,3.17a60.34,60.34,0,0,0-6.85,5.6A2.57,2.57,0,0,1,151.94,58.62Zm16.23-13.15a8.83,8.83,0,0,0-2.13.29,24,24,0,0,0-7.41,3.72,62.3,62.3,0,0,0-7.26,5.94.84.84,0,0,0,0,1.17.82.82,0,0,0,.59.24.83.83,0,0,0,.58-.23,61.33,61.33,0,0,1,7.08-5.79C163,48.48,167.52,46,170,47.59c2.09,1.29,2.57,2.93,1.49,5.16a.82.82,0,0,0,1,1.13.83.83,0,0,0,.47-.41c1.43-3,.69-5.56-2.11-7.28A5.08,5.08,0,0,0,168.17,45.47Z" transform="translate(0)"/><g class="cls-28"><path class="cls-29" d="M145,43.76c6.29,1.15,22.13,21.35,13.46,27.91S106.7,90.32,96.33,92.35s-22.75,3-23.68.06S79.83,83,84.26,78.83s26.69-19.16,35-22.45S135.66,42.06,145,43.76Z" transform="translate(0)"/><path class="cls-30" d="M143.46,38.87c6.29,1.15,22.13,21.35,13.46,27.91S105.19,85.43,94.83,87.46s-22.75,3-23.68.06,7.18-9.46,11.6-13.58,26.69-19.16,35-22.45S134.15,37.17,143.46,38.87Z" transform="translate(0)"/></g><path class="cls-2" d="M79.51,95.15c-3.31,0-7-.39-7.71-2.47-.88-2.77,3.36-6.85,9.43-12.31.87-.78,1.7-1.52,2.42-2.19C88.1,74,110.44,58.91,118.91,55.55c2.93-1.16,5.84-3.32,8.91-5.61,5.42-4,11-8.21,17.3-7.06,2.4.44,5.86,3.14,9.26,7.21,3.56,4.27,6.14,9,7.07,12.89,1,4.17.13,7.42-2.49,9.4s-10.19,5.79-30.68,12.18c-13.21,4.12-26.53,7.64-31.77,8.67A101.58,101.58,0,0,1,81,95.13ZM143,44.48c-4.87,0-9.57,3.5-14.13,6.89-3,2.26-6.17,4.59-9.32,5.84C116,58.64,109.11,62.59,100.79,68,93.58,72.76,87,77.47,84.86,79.49c-.73.68-1.56,1.42-2.43,2.21-2.19,2-4.67,4.19-6.47,6.19-2.54,2.82-2.56,3.91-2.46,4.25,0,.06.53,1.4,7.43,1.2a97.5,97.5,0,0,0,15.23-1.86c5.2-1,18.44-4.52,31.59-8.62,15.8-4.93,26.5-9.15,30.13-11.9,2-1.54,2.66-4.09,1.83-7.57-.87-3.66-3.31-8.09-6.7-12.15-3-3.66-6.27-6.25-8.21-6.6A9.82,9.82,0,0,0,143,44.48Z" transform="translate(0)"/><g class="cls-31"><path class="cls-2" d="M79.51,95.15c-3.31,0-7-.39-7.71-2.47-.88-2.77,3.36-6.85,9.43-12.31.87-.78,1.7-1.52,2.42-2.19C88.1,74,110.44,58.91,118.91,55.55c2.93-1.16,5.84-3.32,8.91-5.61,5.42-4,11-8.21,17.3-7.06,2.4.44,5.86,3.14,9.26,7.21,3.56,4.27,6.14,9,7.07,12.89,1,4.17.13,7.42-2.49,9.4s-10.19,5.79-30.68,12.18c-13.21,4.12-26.53,7.64-31.77,8.67A101.58,101.58,0,0,1,81,95.13ZM143,44.48c-4.87,0-9.57,3.5-14.13,6.89-3,2.26-6.17,4.59-9.32,5.84C116,58.64,109.11,62.59,100.79,68,93.58,72.76,87,77.47,84.86,79.49c-.73.68-1.56,1.42-2.43,2.21-2.19,2-4.67,4.19-6.47,6.19-2.54,2.82-2.56,3.91-2.46,4.25,0,.06.53,1.4,7.43,1.2a97.5,97.5,0,0,0,15.23-1.86c5.2-1,18.44-4.52,31.59-8.62,15.8-4.93,26.5-9.15,30.13-11.9,2-1.54,2.66-4.09,1.83-7.57-.87-3.66-3.31-8.09-6.7-12.15-3-3.66-6.27-6.25-8.21-6.6A9.82,9.82,0,0,0,143,44.48Z" transform="translate(0)"/></g><path class="cls-32" d="M115.65,65a1.44,1.44,0,0,1-.7-2.7,57.9,57.9,0,0,1,9.22-4.13c2-.61,5.12-3.37,7.38-5.39a18.48,18.48,0,0,1,3.74-3,1.44,1.44,0,0,1,1.15,2.64,24.59,24.59,0,0,0-3,2.45c-2.59,2.32-5.81,5.21-8.47,6a56.88,56.88,0,0,0-8.64,3.89A1.37,1.37,0,0,1,115.65,65Z" transform="translate(0)"/><circle class="cls-32" cx="141.46" cy="48.88" r="2.27"/><path class="cls-29" d="M140,96.28a11.83,11.83,0,0,1-8.38-5.19,14.08,14.08,0,0,1-2-9.75c.45-3.24,1.07-6.33,3.61-8.48,3.13-2.65,6.85-2.55,10.09-2.1,5.18.72,8.7,2.8,10.44,6.18a13.3,13.3,0,0,1,1.35,7.94,10.88,10.88,0,0,1-5.21,8.36,22.42,22.42,0,0,1-4.48,2.28A11.34,11.34,0,0,1,140,96.28Zm2.85-22.44c-3.1-.43-5.58-.36-7.64,1.39-1.71,1.45-2.17,3.82-2.54,6.54a11,11,0,0,0,1.54,7.6,8.69,8.69,0,0,0,6.22,3.82c2,.28,4.87-.68,7.71-2.55A7.72,7.72,0,0,0,152,84.45a10.18,10.18,0,0,0-1-6.09C149.74,75.93,147,74.41,142.89,73.84Z" transform="translate(0)"/><path class="cls-29" d="M155.3,82.44a9.22,9.22,0,0,1-4.52,7.27c-2.31,1.53-5.83,3.21-8.79,2.8-6.45-.89-10-6.72-9.08-13.17.41-3,.93-5.71,3.07-7.52,2.47-2.09,5.4-2.22,8.86-1.74,4,.55,7.57,2,9.27,5.35A11.66,11.66,0,0,1,155.3,82.44Z" transform="translate(0)"/><path class="cls-30" d="M141.78,94.05a11.79,11.79,0,0,1-8.38-5.18,14.08,14.08,0,0,1-2-9.75c.45-3.24,1.07-6.33,3.61-8.49,3.13-2.65,6.85-2.54,10.09-2.1,5.18.72,8.7,2.8,10.44,6.18a13.33,13.33,0,0,1,1.35,8A10.84,10.84,0,0,1,151.64,91a22.38,22.38,0,0,1-4.48,2.29A11.32,11.32,0,0,1,141.78,94.05Zm2.85-22.43c-3.1-.43-5.58-.36-7.64,1.39-1.71,1.45-2.16,3.82-2.54,6.54a11,11,0,0,0,1.54,7.6A8.69,8.69,0,0,0,142.21,91c2,.27,4.87-.68,7.71-2.56a7.71,7.71,0,0,0,3.84-6.18,10.18,10.18,0,0,0-1-6.09C151.48,73.71,148.75,72.19,144.63,71.62Z" transform="translate(0)"/><path class="cls-33" d="M142.12,92a9.9,9.9,0,0,1-7-4.32,11.9,11.9,0,0,1-1.7-8.22c.38-2.74.89-5.36,3-7.13,2.57-2.18,5.58-2.12,8.45-1.72,4.38.61,7.34,2.34,8.78,5.15a11.15,11.15,0,0,1,1.14,6.67,8.9,8.9,0,0,1-4.35,7C149,90.33,145.38,92.45,142.12,92Zm2.52-19.85c-3.43-.47-5.52-.08-7.23,1.37s-2.1,3.63-2.45,6.16c-.77,5.54,2.33,10.08,7.38,10.78,2.81.39,6.25-1.71,7.23-2.36a7.39,7.39,0,0,0,3.66-5.89,9.57,9.57,0,0,0-1-5.74C151.06,74.14,148.5,72.69,144.64,72.15Z" transform="translate(0)"/><path class="cls-34" d="M138.67,85.28a5.16,5.16,0,0,1-1.09-4.68c.31-1.52,1-3.58,2.38-4.59,2.91-2.21,6.62-1.3,8.83,1.62,1,1.35,1.89,2.64,1.76,4.2-.15,1.81-1.26,3-2.83,4.21-1.78,1.35-3.81,2.19-5.79,1.55A6.55,6.55,0,0,1,138.67,85.28Z" transform="translate(0)"/><ellipse class="cls-34" cx="135.24" cy="85.99" rx="1.26" ry="2.12" transform="translate(-24.96 90.58) rotate(-34.09)"/><path class="cls-34" d="M134.06,84.24s3.21.32,3.47-1.23,1.14,2.27,1.14,2.27a3.19,3.19,0,0,0-2.24,2.47A15.44,15.44,0,0,1,134.06,84.24Z" transform="translate(0)"/><ellipse class="cls-34" cx="150.2" cy="88.4" rx="2.12" ry="1.26" transform="translate(-23.74 99.37) rotate(-34.09)"/><path class="cls-34" d="M148.44,89.59s.33-3.22-1.22-3.48,2-2,2-2S150,86.9,152,87.21A15.57,15.57,0,0,1,148.44,89.59Z" transform="translate(0)"/><ellipse class="cls-34" cx="145.57" cy="71.69" rx="1.26" ry="2.12" transform="translate(47.62 201.05) rotate(-79.09)"/><path class="cls-34" d="M147.65,72.09s-2.5,2-1.59,3.33-2.84,0-2.84,0,1.44-2.54.26-4.16A15.41,15.41,0,0,1,147.65,72.09Z" transform="translate(0)"/><ellipse class="cls-35" cx="140.46" cy="74" rx="0.93" ry="1.34" transform="translate(-18.3 73.54) rotate(-27.62)"/><ellipse class="cls-35" cx="136.26" cy="80.3" rx="1.34" ry="0.93" transform="translate(-3.4 6.08) rotate(-2.52)"/><ellipse class="cls-35" cx="151.95" cy="81.57" rx="0.93" ry="1.34" transform="translate(61.58 228.45) rotate(-86.63)"/><ellipse class="cls-35" cx="148.36" cy="75.19" rx="1.34" ry="0.93" transform="translate(11.54 169.77) rotate(-61.53)"/><ellipse class="cls-35" cx="150.82" cy="77.96" rx="1.34" ry="0.93" transform="translate(-18.37 92.05) rotate(-32.09)"/><ellipse class="cls-35" cx="139.22" cy="87.59" rx="1.34" ry="0.93" transform="translate(-15.16 144.33) rotate(-52.35)"/><ellipse class="cls-35" cx="142.45" cy="89.01" rx="1.34" ry="0.93" transform="translate(48.09 227.98) rotate(-87.82)"/><circle class="cls-36" cx="143.85" cy="81.23" r="4.73"/><ellipse class="cls-34" cx="140.34" cy="82.7" rx="0.56" ry="0.81" transform="translate(-20.8 58.89) rotate(-22.1)"/><ellipse class="cls-34" cx="146.56" cy="83.93" rx="0.77" ry="0.53" transform="translate(-19.87 112.67) rotate(-39.6)"/><ellipse class="cls-34" cx="144.35" cy="77.57" rx="0.58" ry="0.83" transform="translate(47.69 209.9) rotate(-82.1)"/><path class="cls-2" d="M141.19,97.25a8.73,8.73,0,0,1-1.27-.09,12.72,12.72,0,0,1-9-5.57,15,15,0,0,1-2.17-10.37c.45-3.27,1.07-6.4,3.58-8.74A9.08,9.08,0,0,1,134.4,70c3.39-2.87,7.35-2.77,10.78-2.3,5.49.76,9.23,3,11.11,6.66a14.09,14.09,0,0,1,1.44,8.47h0A11.67,11.67,0,0,1,154.39,90a12.18,12.18,0,0,1-4,4,23.1,23.1,0,0,1-4.66,2.38A13.6,13.6,0,0,1,141.19,97.25Zm.79-28a9.09,9.09,0,0,0-6.43,2.11,7.49,7.49,0,0,0-1.74,2.16,1,1,0,0,1-.19.23c-2.15,2-2.7,4.79-3.11,7.77a13.13,13.13,0,0,0,1.89,9.13,11,11,0,0,0,7.76,4.79,10.35,10.35,0,0,0,5-.71,21,21,0,0,0,4.28-2.19A10.4,10.4,0,0,0,152.9,89a.78.78,0,0,1,.16-.2,10,10,0,0,0,2.9-6.23,12.34,12.34,0,0,0-1.26-7.41c-1.6-3.11-4.88-5-9.76-5.7A20.66,20.66,0,0,0,142,69.2Zm14.87,13.46Z" transform="translate(0)"/><path class="cls-29" d="M112.31,94.15a22.55,22.55,0,0,1-.62-5,10.84,10.84,0,0,1,4-9A13.35,13.35,0,0,1,123,76.8c3.77-.46,7.46,1.28,11,5.16,2.19,2.42,4.36,5.44,3.93,9.52-.35,3.32-2.56,5.56-5,7.76a14.12,14.12,0,0,1-9.2,3.8,11.84,11.84,0,0,1-9-4A11.31,11.31,0,0,1,112.31,94.15Zm11.06-14.26a10.22,10.22,0,0,0-5.61,2.57,7.74,7.74,0,0,0-3,6.66c0,3.4.88,6.32,2.23,7.81a8.64,8.64,0,0,0,6.66,3,10.92,10.92,0,0,0,7.14-3c2-1.85,3.75-3.55,4-5.78.29-2.69-1.05-4.78-3.14-7.1C128.87,81,126.08,79.56,123.37,79.89Z" transform="translate(0)"/><path class="cls-29" d="M117.57,78.62a9.22,9.22,0,0,0-3.46,7.83c0,2.77.62,6.62,2.62,8.84,4.37,4.83,11.17,4.47,16,.1,2.24-2,4.19-4,4.48-6.77.34-3.22-1.2-5.71-3.54-8.31-2.68-3-6-5.1-9.64-4.65A11.69,11.69,0,0,0,117.57,78.62Z" transform="translate(0)"/><path class="cls-30" d="M113.17,91.46a22.55,22.55,0,0,1-.62-5,10.84,10.84,0,0,1,4-9,13.35,13.35,0,0,1,7.32-3.35c3.78-.46,7.47,1.28,11,5.16,2.19,2.42,4.37,5.45,3.94,9.52-.35,3.32-2.56,5.56-5,7.76a14.12,14.12,0,0,1-9.2,3.8,11.82,11.82,0,0,1-9-4A11.31,11.31,0,0,1,113.17,91.46ZM124.23,77.2a10.19,10.19,0,0,0-5.61,2.57,7.74,7.74,0,0,0-3,6.66c0,3.4.88,6.32,2.23,7.81a8.66,8.66,0,0,0,6.65,3,11,11,0,0,0,7.15-3c2-1.84,3.75-3.55,4-5.78.29-2.69-1-4.78-3.15-7.1C129.73,78.27,126.94,76.87,124.23,77.2Z" transform="translate(0)"/><path class="cls-33" d="M114.56,86.56a8.91,8.91,0,0,1,3.32-7.51A11.15,11.15,0,0,1,124,76.23c3.13-.38,6.22,1.09,9.19,4.37,1.94,2.15,3.69,4.6,3.33,8-.29,2.73-2.16,4.62-4.22,6.48a11.82,11.82,0,0,1-7.74,3.21,9.91,9.91,0,0,1-7.52-3.36C114.88,92.45,114.58,88.25,114.56,86.56Zm9.66-8.78a9.56,9.56,0,0,0-5.29,2.42,7.44,7.44,0,0,0-2.81,6.34c0,1.18.22,5.2,2.12,7.31,3.41,3.77,8.91,3.79,13.06,0,1.89-1.72,3.48-3.31,3.71-5.5s-.61-4.17-2.93-6.74C129.47,78.76,126.83,77.46,124.22,77.78Z" transform="translate(0)"/><path class="cls-34" d="M124.58,94a5.17,5.17,0,0,0,4.48-1.73c1.08-1.11,2.38-2.88,2.46-4.55.19-3.65-2.65-6.2-6.3-6.39-1.7-.08-3.25-.08-4.47.91-1.41,1.14-1.79,2.74-1.89,4.7-.11,2.24.34,4.39,2,5.67A6.55,6.55,0,0,0,124.58,94Z" transform="translate(0)"/><ellipse class="cls-34" cx="125.92" cy="97.2" rx="2.12" ry="1.26" transform="matrix(1, 0, 0, 1, -0.22, 0.29)"/><path class="cls-34" d="M128,97.2s-2.08-2.47-.94-3.57-2.52.34-2.52.34a3.18,3.18,0,0,1-.78,3.24A15.5,15.5,0,0,0,128,97.2Z" transform="translate(0)"/><ellipse class="cls-34" cx="115.52" cy="86.19" rx="1.26" ry="2.12" transform="translate(-0.2 0.27) rotate(-0.13)"/><path class="cls-34" d="M115.52,88.31s2.48-2.08,3.57-.94.55-2.78.55-2.78-2.76.93-4.13-.52A15.5,15.5,0,0,0,115.52,88.31Z" transform="translate(0)"/><ellipse class="cls-34" cx="131.94" cy="80.62" rx="1.26" ry="2.12" transform="translate(-18.28 117.26) rotate(-45.13)"/><path class="cls-34" d="M130.44,79.13s-.28,3.21-1.86,3.18,1.58,2.36,1.58,2.36,1.29-2.61,3.29-2.55A15.27,15.27,0,0,0,130.44,79.13Z" transform="translate(0)"/><ellipse class="cls-35" cx="132.9" cy="86.15" rx="1.34" ry="0.93" transform="translate(-9.02 15.85) rotate(-6.6)"/><ellipse class="cls-35" cx="130.05" cy="93.16" rx="0.93" ry="1.34" transform="translate(-29.55 82.23) rotate(-31.7)"/><ellipse class="cls-35" cx="120.18" cy="80.9" rx="0.93" ry="1.34" transform="translate(-24.4 90.12) rotate(-37.6)"/><ellipse class="cls-35" cx="127.47" cy="80.29" rx="1.34" ry="0.93" transform="translate(-2.35 156.72) rotate(-62.69)"/><ellipse class="cls-35" cx="123.8" cy="79.81" rx="0.93" ry="1.34" transform="translate(-2.88 4.65) rotate(-2.13)"/><ellipse class="cls-35" cx="122.36" cy="94.81" rx="1.34" ry="0.93" transform="translate(-5.82 181.58) rotate(-71.87)"/><ellipse class="cls-35" cx="119.37" cy="92.94" rx="1.34" ry="0.93" transform="translate(-31.86 88.96) rotate(-36.4)"/><circle class="cls-36" cx="125.02" cy="87.41" r="4.73"/><ellipse class="cls-34" cx="125.78" cy="91.13" rx="0.81" ry="0.56" transform="translate(-16.33 28.43) rotate(-12.12)"/><ellipse class="cls-34" cx="121.26" cy="86.69" rx="0.77" ry="0.53" transform="translate(23.59 199.29) rotate(-84.62)"/><ellipse class="cls-34" cx="127.76" cy="84.93" rx="0.58" ry="0.83" transform="translate(-23.97 107.61) rotate(-42.12)"/><path class="cls-2" d="M123.59,103.93a12.72,12.72,0,0,1-9.53-4.31,12.12,12.12,0,0,1-2.61-5.25,23,23,0,0,1-.65-5.2,12.16,12.16,0,0,1,1.08-5.57,11.69,11.69,0,0,1,4.05-6.8h0a14.16,14.16,0,0,1,7.82-3.57c4.08-.5,8,1.33,11.75,5.44,2.32,2.57,4.63,5.79,4.16,10.21a9.22,9.22,0,0,1-.92,3.14c-.53,3.4-2.77,5.66-5.22,7.88a15,15,0,0,1-9.79,4Zm-6.46-25.81h0A10,10,0,0,0,113.61,84a1.09,1.09,0,0,1-.07.24,10.38,10.38,0,0,0-1,4.88,21.11,21.11,0,0,0,.6,4.78,10.38,10.38,0,0,0,2.2,4.49,11,11,0,0,0,8.21,3.73h.12a13.27,13.27,0,0,0,8.62-3.57c2.23-2,4.26-4.07,4.66-7a1.15,1.15,0,0,1,.09-.28,7.3,7.3,0,0,0,.8-2.66c.4-3.72-1.65-6.55-3.71-8.82-3.3-3.66-6.74-5.3-10.21-4.87A12.36,12.36,0,0,0,117.13,78.12Zm-4.39,5.76Z" transform="translate(0)"/><path class="cls-29" d="M99.19,108.33a11.87,11.87,0,0,1-8.38-5.18,14,14,0,0,1-2-9.75c.45-3.24,1.06-6.33,3.61-8.49,3.12-2.65,6.85-2.55,10.08-2.1,5.19.72,8.7,2.8,10.44,6.18a13.23,13.23,0,0,1,1.35,7.94,10.79,10.79,0,0,1-5.21,8.36,22,22,0,0,1-4.47,2.29A11.35,11.35,0,0,1,99.19,108.33ZM102,85.9c-3.09-.43-5.58-.36-7.64,1.39-1.71,1.45-2.16,3.82-2.54,6.54a11,11,0,0,0,1.54,7.6,8.69,8.69,0,0,0,6.22,3.82c2,.27,4.87-.68,7.71-2.56a7.72,7.72,0,0,0,3.85-6.18,10.17,10.17,0,0,0-1-6.09C108.89,88,106.17,86.47,102,85.9Z" transform="translate(0)"/><path class="cls-29" d="M114.46,94.5a9.25,9.25,0,0,1-4.53,7.27c-2.31,1.52-5.83,3.21-8.78,2.8-6.46-.9-10-6.72-9.09-13.18.42-3,.94-5.7,3.08-7.51,2.47-2.1,5.4-2.23,8.86-1.75,4,.55,7.57,2.05,9.27,5.35A11.78,11.78,0,0,1,114.46,94.5Z" transform="translate(0)"/><path class="cls-30" d="M100.93,106.11a11.87,11.87,0,0,1-8.38-5.18,14,14,0,0,1-2-9.75c.45-3.24,1.06-6.33,3.61-8.49,3.12-2.65,6.85-2.55,10.08-2.1,5.19.72,8.7,2.8,10.44,6.18A13.22,13.22,0,0,1,116,94.71a10.79,10.79,0,0,1-5.21,8.36,22,22,0,0,1-4.47,2.29A11.35,11.35,0,0,1,100.93,106.11Zm2.85-22.43c-3.09-.43-5.58-.36-7.64,1.38-1.71,1.46-2.16,3.83-2.54,6.55a10.93,10.93,0,0,0,1.55,7.59,8.62,8.62,0,0,0,6.21,3.82c2,.28,4.87-.68,7.72-2.55a7.73,7.73,0,0,0,3.84-6.19,10.16,10.16,0,0,0-1-6.08C110.63,85.77,107.91,84.25,103.78,83.68Z" transform="translate(0)"/><path class="cls-33" d="M101.28,104.05a9.85,9.85,0,0,1-7-4.32,11.82,11.82,0,0,1-1.71-8.21c.38-2.75.9-5.36,3-7.13,2.58-2.19,5.59-2.12,8.45-1.72,4.39.6,7.34,2.33,8.79,5.14a11.15,11.15,0,0,1,1.13,6.67,8.91,8.91,0,0,1-4.35,7C108.17,102.39,104.54,104.51,101.28,104.05Zm2.52-19.84c-3.43-.48-5.53-.08-7.23,1.36s-2.1,3.63-2.45,6.16c-.77,5.55,2.33,10.08,7.37,10.78,2.81.39,6.25-1.7,7.24-2.35a7.47,7.47,0,0,0,3.66-5.89,9.57,9.57,0,0,0-1-5.74C110.21,86.19,107.65,84.74,103.8,84.21Z" transform="translate(0)"/><path class="cls-34" d="M97.82,97.34a5.19,5.19,0,0,1-1.08-4.68c.31-1.52,1-3.58,2.37-4.59,2.92-2.21,6.63-1.3,8.83,1.62,1,1.35,1.89,2.63,1.76,4.2-.15,1.81-1.26,3-2.82,4.21-1.79,1.35-3.82,2.19-5.8,1.55A6.63,6.63,0,0,1,97.82,97.34Z" transform="translate(0)"/><ellipse class="cls-34" cx="94.4" cy="98.05" rx="1.26" ry="2.12" transform="translate(-38.73 69.76) rotate(-34.09)"/><path class="cls-34" d="M93.21,96.29s3.21.33,3.48-1.23,1.13,2.28,1.13,2.28a3.15,3.15,0,0,0-2.23,2.47A15.23,15.23,0,0,1,93.21,96.29Z" transform="translate(0)"/><ellipse class="cls-34" cx="109.36" cy="100.45" rx="2.12" ry="1.26" transform="translate(-37.51 78.55) rotate(-34.09)"/><path class="cls-34" d="M107.6,101.64s.32-3.21-1.23-3.48,2-2,2-2,.78,2.81,2.75,3.12A15,15,0,0,1,107.6,101.64Z" transform="translate(0)"/><ellipse class="cls-34" cx="104.72" cy="83.74" rx="1.26" ry="2.12" transform="translate(2.67 170.72) rotate(-79.09)"/><path class="cls-34" d="M106.8,84.14s-2.5,2-1.59,3.33-2.83,0-2.83,0,1.43-2.53.26-4.15A15.11,15.11,0,0,1,106.8,84.14Z" transform="translate(0)"/><ellipse class="cls-35" cx="99.61" cy="86.06" rx="0.93" ry="1.34" transform="translate(-28.54 55.98) rotate(-27.62)"/><ellipse class="cls-35" cx="95.41" cy="92.36" rx="1.34" ry="0.93" transform="translate(-3.97 4.29) rotate(-2.52)"/><ellipse class="cls-35" cx="111.1" cy="93.62" rx="0.93" ry="1.34" transform="translate(11.1 199.02) rotate(-86.63)"/><ellipse class="cls-35" cx="107.51" cy="87.25" rx="1.34" ry="0.93" transform="translate(-20.44 140.17) rotate(-61.53)"/><ellipse class="cls-35" cx="109.98" cy="90.02" rx="1.34" ry="0.93" transform="translate(-31.02 72.19) rotate(-32.09)"/><ellipse class="cls-35" cx="98.38" cy="99.64" rx="1.34" ry="0.93" transform="translate(-40.6 116.68) rotate(-52.35)"/><ellipse class="cls-35" cx="101.61" cy="101.07" rx="1.34" ry="0.93" transform="matrix(0.04, -1, 1, 0.04, -3.25, 198.77)"/><circle class="cls-36" cx="103" cy="93.28" r="4.73"/><ellipse class="cls-34" cx="99.5" cy="94.75" rx="0.56" ry="0.81" transform="translate(-28.34 44.41) rotate(-22.1)"/><ellipse class="cls-34" cx="105.71" cy="95.99" rx="0.77" ry="0.53" transform="translate(-36.93 89.4) rotate(-39.6)"/><ellipse class="cls-34" cx="103.51" cy="89.62" rx="0.58" ry="0.83" transform="translate(0.52 179.84) rotate(-82.1)"/><path class="cls-2" d="M100.34,109.3a10.56,10.56,0,0,1-1.27-.08,12.75,12.75,0,0,1-9-5.58,15,15,0,0,1-2.18-10.36c.46-3.27,1.07-6.4,3.58-8.75A9.25,9.25,0,0,1,93.55,82c3.39-2.88,7.36-2.78,10.79-2.3,5.49.76,9.22,3,11.1,6.65a14.2,14.2,0,0,1,1.45,8.47h0a11.7,11.7,0,0,1-3.35,7.18,12.25,12.25,0,0,1-4,4,22.79,22.79,0,0,1-4.66,2.39A13.48,13.48,0,0,1,100.34,109.3Zm.79-28a9,9,0,0,0-6.42,2.12A7.51,7.51,0,0,0,93,85.52a.68.68,0,0,1-.18.23c-2.16,2-2.71,4.79-3.12,7.77a13.22,13.22,0,0,0,1.89,9.13,11,11,0,0,0,7.77,4.8,10.45,10.45,0,0,0,5-.71,21.59,21.59,0,0,0,4.29-2.19,10.51,10.51,0,0,0,3.5-3.54,1,1,0,0,1,.15-.2,10,10,0,0,0,2.91-6.22l.88.12-.88-.12a12.41,12.41,0,0,0-1.26-7.41c-1.6-3.11-4.89-5-9.77-5.71A22.1,22.1,0,0,0,101.13,81.25Z" transform="translate(0)"/></g></g></g></svg>