<svg xmlns="http://www.w3.org/2000/svg" width="45.634" height="43.582" viewBox="0 0 45.634 43.582">
    <g data-name="Group 241">
        <g data-name="Group 240">
            <g data-name="Group 10">
                <g data-name="Group 9">
                    <path data-name="Path 5" d="M64.06 34.957a21.768 21.768 0 0 0-19.294-13.294v-.014h-3.78a19.958 19.958 0 0 0-8.126 1.717 20.744 20.744 0 0 0-6.626 4.677 21.79 21.79 0 0 0-4.461 6.925 22.777 22.777 0 0 0 0 16.943 21.79 21.79 0 0 0 4.461 6.925 20.744 20.744 0 0 0 6.626 4.677 19.943 19.943 0 0 0 8.126 1.718h3.78v-.014a21.8 21.8 0 0 0 19.294-30.26z" style="fill:#5b3a00" transform="translate(-20.139 -21.649)"/>
                </g>
            </g>
            <g data-name="Group 239">
                <g data-name="Group 13">
                    <g data-name="Group 12">
                        <g data-name="Group 11">
                            <path data-name="Path 6" d="M41.008 64.514h3.064V22.365h-3.064c-11.117 0-20.13 9.436-20.13 21.075s9.013 21.074 20.13 21.074" style="fill:#e8a600" transform="translate(-20.139 -21.649)"/>
                        </g>
                    </g>
                </g>
                <g data-name="Group 16">
                    <g data-name="Group 15">
                        <g data-name="Group 14" transform="translate(-20.139 -21.649)">
                            <circle data-name="Ellipse 4" cx="21.074" cy="21.074" r="21.074" transform="translate(22.93 22.365)" style="fill:#ffd550"/>
                        </g>
                    </g>
                </g>
                <g data-name="Group 238">
                    <g data-name="Group 89">
                        <g data-name="Group 19">
                            <g data-name="Group 18">
                                <g data-name="Group 17">
                                    <path data-name="Path 7" d="M37.516 59.791v1.069a.578.578 0 0 0 .394.547 23.989 23.989 0 0 0 4.7.915.578.578 0 0 0 .631-.575v-1.956a.578.578 0 0 0-.578-.578h-4.569a.578.578 0 0 0-.578.578z" style="fill:#ba8000" transform="translate(-20.139 -21.649)"/>
                                </g>
                            </g>
                        </g>
                        <g data-name="Group 22">
                            <g data-name="Group 21">
                                <g data-name="Group 20">
                                    <path data-name="Path 8" d="M27.574 44.092h-1.722a.542.542 0 0 0-.54.593 28.262 28.262 0 0 0 .99 5.176.513.513 0 0 0 .49.367h.782a.541.541 0 0 0 .541-.541v-5.054a.541.541 0 0 0-.541-.541z" style="fill:#ba8000" transform="translate(-20.139 -21.649)"/>
                                </g>
                            </g>
                        </g>
                        <g data-name="Group 25">
                            <g data-name="Group 24">
                                <g data-name="Group 23">
                                    <path data-name="Path 9" d="M43.237 27v-1.963a.543.543 0 0 0-.592-.54 23.943 23.943 0 0 0-4.759.881.542.542 0 0 0-.37.514V27a.542.542 0 0 0 .542.542h4.637a.542.542 0 0 0 .542-.542z" style="fill:#ba8000" transform="translate(-20.139 -21.649)"/>
                                </g>
                            </g>
                        </g>
                        <g data-name="Group 28">
                            <g data-name="Group 27">
                                <g data-name="Group 26">
                                    <path data-name="Path 10" d="M27.574 36.531h-.406a.541.541 0 0 0-.513.367 28.643 28.643 0 0 0-1.225 5.181.542.542 0 0 0 .539.594h1.6a.542.542 0 0 0 .541-.542v-5.058a.541.541 0 0 0-.536-.542z" style="fill:#ba8000" transform="translate(-20.139 -21.649)"/>
                                </g>
                            </g>
                        </g>
                        <g data-name="Group 31">
                            <g data-name="Group 30">
                                <g data-name="Group 29">
                                    <path data-name="Path 11" d="M45.077 59.791v1.894a.578.578 0 0 0 .636.575 24.238 24.238 0 0 0 4.7-1.114.619.619 0 0 0 .384-.581v-.774a.577.577 0 0 0-.577-.578h-4.565a.578.578 0 0 0-.578.578z" style="fill:#ba8000" transform="translate(-20.139 -21.649)"/>
                                </g>
                            </g>
                        </g>
                        <g data-name="Group 34">
                            <g data-name="Group 33">
                                <g data-name="Group 32">
                                    <path data-name="Path 12" d="M50.8 27v-1.057a.542.542 0 0 0-.364-.512 23.911 23.911 0 0 0-4.762-.918.541.541 0 0 0-.6.539V27a.542.542 0 0 0 .542.542h4.639A.541.541 0 0 0 50.8 27z" style="fill:#ba8000" transform="translate(-20.139 -21.649)"/>
                                </g>
                            </g>
                        </g>
                        <g data-name="Group 37">
                            <g data-name="Group 36">
                                <g data-name="Group 35">
                                    <path data-name="Path 13" d="M60.74 50.228h.422a.54.54 0 0 0 .513-.367 28.38 28.38 0 0 0 1.083-5.176.542.542 0 0 0-.54-.593H60.74a.541.541 0 0 0-.541.541v5.054a.541.541 0 0 0 .541.541z" style="fill:#ba8000" transform="translate(-20.139 -21.649)"/>
                                </g>
                            </g>
                        </g>
                        <g data-name="Group 40">
                            <g data-name="Group 39">
                                <g data-name="Group 38">
                                    <path data-name="Path 14" d="M35.676 34.565v-5.053a.542.542 0 0 0-.542-.542h-3.29a.546.546 0 0 0-.362.139 18.716 18.716 0 0 0-1.382 1.375.542.542 0 0 0-.141.365v3.716a.542.542 0 0 0 .541.542h4.637a.542.542 0 0 0 .539-.542z" style="fill:#ba8000" transform="translate(-20.139 -21.649)"/>
                                </g>
                            </g>
                        </g>
                        <g data-name="Group 43">
                            <g data-name="Group 42">
                                <g data-name="Group 41">
                                    <path data-name="Path 15" d="M60.74 42.691h1.8a.543.543 0 0 0 .54-.6 28.826 28.826 0 0 0-1.226-5.2.513.513 0 0 0-.489-.367h-.69a.489.489 0 0 0-.476.542v5.076a.542.542 0 0 0 .541.549z" style="fill:#ba8000" transform="translate(-20.139 -21.649)"/>
                                </g>
                            </g>
                        </g>
                        <g data-name="Group 46">
                            <g data-name="Group 45">
                                <g data-name="Group 44" transform="translate(-20.139 -21.649)">
                                    <rect data-name="Rectangle 4" width="5.72" height="6.137" rx=".577" transform="translate(45.077 51.652)" style="fill:#ba8000"/>
                                </g>
                            </g>
                        </g>
                        <g data-name="Group 49">
                            <g data-name="Group 48">
                                <g data-name="Group 47">
                                    <path data-name="Path 16" d="M52.638 52.23v5.005a.577.577 0 0 0 .577.577l3.109-.023a.578.578 0 0 0 .386-.148 18.784 18.784 0 0 0 1.5-1.536.581.581 0 0 0 .145-.383V52.23a.577.577 0 0 0-.577-.578h-4.563a.577.577 0 0 0-.577.578z" style="fill:#ba8000" transform="translate(-20.139 -21.649)"/>
                                </g>
                            </g>
                        </g>
                        <g data-name="Group 52">
                            <g data-name="Group 51">
                                <g data-name="Group 50" transform="translate(-20.139 -21.649)">
                                    <rect data-name="Rectangle 5" width="5.72" height="6.137" rx=".542" transform="translate(37.516 44.092)" style="fill:#ba8000"/>
                                </g>
                            </g>
                        </g>
                        <g data-name="Group 55">
                            <g data-name="Group 54">
                                <g data-name="Group 53">
                                    <path data-name="Path 17" d="M35.1 51.652h-4.567a.577.577 0 0 0-.577.578v3.684a.578.578 0 0 0 .15.389 18.879 18.879 0 0 0 1.346 1.338.58.58 0 0 0 .386.148H35.1a.577.577 0 0 0 .577-.578V52.23a.577.577 0 0 0-.577-.578z" style="fill:#ba8000" transform="translate(-20.139 -21.649)"/>
                                </g>
                            </g>
                        </g>
                        <g data-name="Group 58">
                            <g data-name="Group 57">
                                <g data-name="Group 56" transform="translate(-20.139 -21.649)">
                                    <rect data-name="Rectangle 6" width="5.72" height="6.16" rx=".577" transform="translate(37.516 51.652)" style="fill:#ba8000"/>
                                </g>
                            </g>
                        </g>
                        <g data-name="Group 61">
                            <g data-name="Group 60">
                                <g data-name="Group 59" transform="translate(-20.139 -21.649)">
                                    <rect data-name="Rectangle 7" width="5.72" height="6.137" rx=".542" transform="translate(29.956 44.092)" style="fill:#ba8000"/>
                                </g>
                            </g>
                        </g>
                        <g data-name="Group 64">
                            <g data-name="Group 63">
                                <g data-name="Group 62" transform="translate(-20.139 -21.649)">
                                    <rect data-name="Rectangle 8" width="5.72" height="6.137" rx=".542" transform="translate(29.956 36.531)" style="fill:#ba8000"/>
                                </g>
                            </g>
                        </g>
                        <g data-name="Group 67">
                            <g data-name="Group 66">
                                <g data-name="Group 65" transform="translate(-20.139 -21.649)">
                                    <rect data-name="Rectangle 9" width="5.72" height="6.137" rx=".542" transform="translate(37.516 36.531)" style="fill:#ba8000"/>
                                </g>
                            </g>
                        </g>
                        <g data-name="Group 70">
                            <g data-name="Group 69">
                                <g data-name="Group 68" transform="translate(-20.139 -21.649)">
                                    <rect data-name="Rectangle 10" width="5.72" height="6.137" rx=".542" transform="translate(45.077 28.97)" style="fill:#ba8000"/>
                                </g>
                            </g>
                        </g>
                        <g data-name="Group 73">
                            <g data-name="Group 72">
                                <g data-name="Group 71">
                                    <path data-name="Path 18" d="M56.318 28.97H53.18a.542.542 0 0 0-.542.542l.011 5.064a.542.542 0 0 0 .542.542h4.637a.542.542 0 0 0 .541-.542l-.011-3.557a.541.541 0 0 0-.136-.36 18.487 18.487 0 0 0-1.542-1.55.546.546 0 0 0-.362-.139z" style="fill:#ba8000" transform="translate(-20.139 -21.649)"/>
                                </g>
                            </g>
                        </g>
                        <g data-name="Group 76">
                            <g data-name="Group 75">
                                <g data-name="Group 74" transform="translate(-20.139 -21.649)">
                                    <rect data-name="Rectangle 11" width="5.72" height="6.137" rx=".542" transform="translate(52.638 44.092)" style="fill:#ba8000"/>
                                </g>
                            </g>
                        </g>
                        <g data-name="Group 79">
                            <g data-name="Group 78">
                                <g data-name="Group 77" transform="translate(-20.139 -21.649)">
                                    <rect data-name="Rectangle 12" width="5.72" height="6.137" rx=".542" transform="translate(37.516 28.97)" style="fill:#ba8000"/>
                                </g>
                            </g>
                        </g>
                        <g data-name="Group 82">
                            <g data-name="Group 81">
                                <g data-name="Group 80" transform="translate(-20.139 -21.649)">
                                    <rect data-name="Rectangle 13" width="5.72" height="6.137" rx=".542" transform="translate(45.077 36.531)" style="fill:#ba8000"/>
                                </g>
                            </g>
                        </g>
                        <g data-name="Group 85">
                            <g data-name="Group 84">
                                <g data-name="Group 83" transform="translate(-20.139 -21.649)">
                                    <rect data-name="Rectangle 14" width="5.72" height="6.137" rx=".542" transform="translate(45.077 44.092)" style="fill:#ba8000"/>
                                </g>
                            </g>
                        </g>
                        <g data-name="Group 88">
                            <g data-name="Group 87">
                                <g data-name="Group 86" transform="translate(-20.139 -21.649)">
                                    <rect data-name="Rectangle 15" width="5.72" height="6.137" rx=".542" transform="translate(52.638 36.531)" style="fill:#ba8000"/>
                                </g>
                            </g>
                        </g>
                    </g>
                    <g data-name="Group 162">
                        <g data-name="Group 92">
                            <g data-name="Group 91">
                                <g data-name="Group 90">
                                    <path data-name="Path 19" d="M37.515 60.237v.629a.578.578 0 0 0 .393.548 18.433 18.433 0 0 0 4.726.918v-1.517a.577.577 0 0 0-.577-.578z" style="fill:#e8a600" transform="translate(-20.139 -21.649)"/>
                                </g>
                            </g>
                        </g>
                        <g data-name="Group 95">
                            <g data-name="Group 94">
                                <g data-name="Group 93">
                                    <path data-name="Path 20" d="M26.971 45.116h-1.616a18.376 18.376 0 0 0 .946 4.752.542.542 0 0 0 .513.367h.7v-4.578a.542.542 0 0 0-.543-.541z" style="fill:#e8a600" transform="translate(-20.139 -21.649)"/>
                                </g>
                            </g>
                        </g>
                        <g data-name="Group 98">
                            <g data-name="Group 97">
                                <g data-name="Group 96">
                                    <path data-name="Path 21" d="M42.634 27.553v-1.492a.542.542 0 0 0-.592-.54 18.339 18.339 0 0 0-4.527 1.01v.48a.542.542 0 0 0 .542.542z" style="fill:#e8a600" transform="translate(-20.139 -21.649)"/>
                                </g>
                            </g>
                        </g>
                        <g data-name="Group 101">
                            <g data-name="Group 100">
                                <g data-name="Group 99">
                                    <path data-name="Path 22" d="M26.971 37.555h-.534a18.374 18.374 0 0 0-1.032 4.525.542.542 0 0 0 .539.594h1.569V38.1a.542.542 0 0 0-.542-.545z" style="fill:#e8a600" transform="translate(-20.139 -21.649)"/>
                                </g>
                            </g>
                        </g>
                        <g data-name="Group 104">
                            <g data-name="Group 103">
                                <g data-name="Group 102">
                                    <path data-name="Path 23" d="M45.076 60.237v1.455a.577.577 0 0 0 .635.575 18.365 18.365 0 0 0 4.484-1.046v-.406a.578.578 0 0 0-.578-.578z" style="fill:#e8a600" transform="translate(-20.139 -21.649)"/>
                                </g>
                            </g>
                        </g>
                        <g data-name="Group 107">
                            <g data-name="Group 106">
                                <g data-name="Group 105">
                                    <path data-name="Path 24" d="M50.195 27.553v-.586a.543.543 0 0 0-.365-.512 18.355 18.355 0 0 0-4.754-.969v1.525a.542.542 0 0 0 .541.542z" style="fill:#e8a600" transform="translate(-20.139 -21.649)"/>
                                </g>
                            </g>
                        </g>
                        <g data-name="Group 110">
                            <g data-name="Group 109">
                                <g data-name="Group 108">
                                    <path data-name="Path 25" d="M60.745 50.235h.383a18.341 18.341 0 0 0 1.027-4.526.541.541 0 0 0-.539-.593H60.2v4.571a.548.548 0 0 0 .545.548z" style="fill:#e8a600" transform="translate(-20.139 -21.649)"/>
                                </g>
                            </g>
                        </g>
                        <g data-name="Group 113">
                            <g data-name="Group 112">
                                <g data-name="Group 111">
                                    <path data-name="Path 26" d="M35.073 35.113v-4.577a.542.542 0 0 0-.541-.542h-2.689a.544.544 0 0 0-.362.139 18.719 18.719 0 0 0-1.527 1.533v2.906a.542.542 0 0 0 .542.541z" style="fill:#e8a600" transform="translate(-20.139 -21.649)"/>
                                </g>
                            </g>
                        </g>
                        <g data-name="Group 116">
                            <g data-name="Group 115">
                                <g data-name="Group 114">
                                    <path data-name="Path 27" d="M60.739 42.674H62.2a18.4 18.4 0 0 0-.95-4.752.541.541 0 0 0-.513-.367H60.2v4.577a.542.542 0 0 0 .539.542z" style="fill:#e8a600" transform="translate(-20.139 -21.649)"/>
                                </g>
                            </g>
                        </g>
                        <g data-name="Group 119">
                            <g data-name="Group 118">
                                <g data-name="Group 117">
                                    <path data-name="Path 28" d="M49.617 52.676h-4.541v4.542a.577.577 0 0 0 .577.577h4.542v-4.541a.578.578 0 0 0-.578-.578z" style="fill:#e8a600" transform="translate(-20.139 -21.649)"/>
                                </g>
                            </g>
                        </g>
                        <g data-name="Group 122">
                            <g data-name="Group 121">
                                <g data-name="Group 120">
                                    <path data-name="Path 29" d="M52.636 52.676v4.542a.577.577 0 0 0 .578.577h2.507a.576.576 0 0 0 .387-.148 18.656 18.656 0 0 0 1.648-1.679v-2.714a.578.578 0 0 0-.578-.578z" style="fill:#e8a600" transform="translate(-20.139 -21.649)"/>
                                </g>
                            </g>
                        </g>
                        <g data-name="Group 125">
                            <g data-name="Group 124">
                                <g data-name="Group 123">
                                    <path data-name="Path 30" d="M38.057 50.235h4.577v-4.578a.541.541 0 0 0-.542-.541h-4.577v4.577a.542.542 0 0 0 .542.542z" style="fill:#e8a600" transform="translate(-20.139 -21.649)"/>
                                </g>
                            </g>
                        </g>
                        <g data-name="Group 128">
                            <g data-name="Group 127">
                                <g data-name="Group 126">
                                    <path data-name="Path 31" d="M34.5 52.676h-4.546v3.244a.577.577 0 0 0 .151.389 18.455 18.455 0 0 0 1.345 1.338.577.577 0 0 0 .387.148h3.236v-4.541a.577.577 0 0 0-.573-.578z" style="fill:#e8a600" transform="translate(-20.139 -21.649)"/>
                                </g>
                            </g>
                        </g>
                        <g data-name="Group 131">
                            <g data-name="Group 130">
                                <g data-name="Group 129">
                                    <path data-name="Path 32" d="M42.057 52.676h-4.542v4.542a.577.577 0 0 0 .577.577h4.542v-4.541a.577.577 0 0 0-.577-.578z" style="fill:#e8a600" transform="translate(-20.139 -21.649)"/>
                                </g>
                            </g>
                        </g>
                        <g data-name="Group 134">
                            <g data-name="Group 133">
                                <g data-name="Group 132">
                                    <path data-name="Path 33" d="M30.5 50.235h4.577v-4.578a.541.541 0 0 0-.541-.541h-4.582v4.577a.542.542 0 0 0 .546.542z" style="fill:#e8a600" transform="translate(-20.139 -21.649)"/>
                                </g>
                            </g>
                        </g>
                        <g data-name="Group 137">
                            <g data-name="Group 136">
                                <g data-name="Group 135">
                                    <path data-name="Path 34" d="M34.532 37.555h-4.578v4.577a.542.542 0 0 0 .542.542h4.577V38.1a.541.541 0 0 0-.541-.545z" style="fill:#e8a600" transform="translate(-20.139 -21.649)"/>
                                </g>
                            </g>
                        </g>
                        <g data-name="Group 140">
                            <g data-name="Group 139">
                                <g data-name="Group 138">
                                    <path data-name="Path 35" d="M42.092 37.555h-4.577v4.577a.542.542 0 0 0 .542.542h4.577V38.1a.541.541 0 0 0-.542-.545z" style="fill:#e8a600" transform="translate(-20.139 -21.649)"/>
                                </g>
                            </g>
                        </g>
                        <g data-name="Group 143">
                            <g data-name="Group 142">
                                <g data-name="Group 141">
                                    <path data-name="Path 36" d="M45.617 35.113h4.578v-4.577a.542.542 0 0 0-.542-.542h-4.577v4.578a.541.541 0 0 0 .541.541z" style="fill:#e8a600" transform="translate(-20.139 -21.649)"/>
                                </g>
                            </g>
                        </g>
                        <g data-name="Group 146">
                            <g data-name="Group 145">
                                <g data-name="Group 144">
                                    <path data-name="Path 37" d="M55.715 29.994h-3.079v4.578a.542.542 0 0 0 .542.541h4.578v-3.07a.542.542 0 0 0-.137-.36 18.487 18.487 0 0 0-1.542-1.55.542.542 0 0 0-.362-.139z" style="fill:#e8a600" transform="translate(-20.139 -21.649)"/>
                                </g>
                            </g>
                        </g>
                        <g data-name="Group 149">
                            <g data-name="Group 148">
                                <g data-name="Group 147">
                                    <path data-name="Path 38" d="M53.178 50.235h4.578v-4.578a.542.542 0 0 0-.542-.541h-4.578v4.577a.542.542 0 0 0 .542.542z" style="fill:#e8a600" transform="translate(-20.139 -21.649)"/>
                                </g>
                            </g>
                        </g>
                        <g data-name="Group 152">
                            <g data-name="Group 151">
                                <g data-name="Group 150">
                                    <path data-name="Path 39" d="M38.057 35.113h4.577v-4.577a.542.542 0 0 0-.542-.542h-4.577v4.578a.541.541 0 0 0 .542.541z" style="fill:#e8a600" transform="translate(-20.139 -21.649)"/>
                                </g>
                            </g>
                        </g>
                        <g data-name="Group 155">
                            <g data-name="Group 154">
                                <g data-name="Group 153">
                                    <path data-name="Path 40" d="M49.653 37.555h-4.577v4.577a.542.542 0 0 0 .541.542h4.578V38.1a.542.542 0 0 0-.542-.545z" style="fill:#e8a600" transform="translate(-20.139 -21.649)"/>
                                </g>
                            </g>
                        </g>
                        <g data-name="Group 158">
                            <g data-name="Group 157">
                                <g data-name="Group 156">
                                    <path data-name="Path 41" d="M45.617 50.235h4.578v-4.578a.542.542 0 0 0-.542-.541h-4.577v4.577a.542.542 0 0 0 .541.542z" style="fill:#e8a600" transform="translate(-20.139 -21.649)"/>
                                </g>
                            </g>
                        </g>
                        <g data-name="Group 161">
                            <g data-name="Group 160">
                                <g data-name="Group 159">
                                    <path data-name="Path 42" d="M57.214 37.555h-4.578v4.577a.542.542 0 0 0 .542.542h4.578V38.1a.542.542 0 0 0-.542-.545z" style="fill:#e8a600" transform="translate(-20.139 -21.649)"/>
                                </g>
                            </g>
                        </g>
                    </g>
                    <g data-name="Group 169">
                        <g data-name="Group 165">
                            <g data-name="Group 164">
                                <g data-name="Group 163">
                                    <path data-name="Path 43" d="M34.559 43.2h-4.088a1.058 1.058 0 0 1-1.056-1.056v-4.2a.22.22 0 0 1 .44 0v4.2a.617.617 0 0 0 .616.617h4.088a.22.22 0 1 1 0 .439z" style="fill:#ffe5b8" transform="translate(-20.139 -21.649)"/>
                                </g>
                            </g>
                        </g>
                        <g data-name="Group 168">
                            <g data-name="Group 167">
                                <g data-name="Group 166">
                                    <path data-name="Path 44" d="M34.559 50.767h-4.088a1.057 1.057 0 0 1-1.056-1.056v-4.2a.22.22 0 1 1 .44 0v4.2a.617.617 0 0 0 .616.617h4.088a.22.22 0 1 1 0 .439z" style="fill:#ffe5b8" transform="translate(-20.139 -21.649)"/>
                                </g>
                            </g>
                        </g>
                    </g>
                    <g data-name="Group 172">
                        <g data-name="Group 171">
                            <g data-name="Group 170">
                                <path data-name="Path 45" d="M42.124 43.2h-4.088a1.058 1.058 0 0 1-1.056-1.056v-4.2a.22.22 0 0 1 .44 0v4.2a.617.617 0 0 0 .616.617h4.088a.22.22 0 0 1 0 .439z" style="fill:#ffe5b8" transform="translate(-20.139 -21.649)"/>
                            </g>
                        </g>
                    </g>
                    <g data-name="Group 175">
                        <g data-name="Group 174">
                            <g data-name="Group 173">
                                <path data-name="Path 46" d="M42.124 50.767h-4.088a1.057 1.057 0 0 1-1.056-1.056v-4.2a.22.22 0 1 1 .44 0v4.2a.617.617 0 0 0 .616.617h4.088a.22.22 0 0 1 0 .439z" style="fill:#ffe5b8" transform="translate(-20.139 -21.649)"/>
                            </g>
                        </g>
                    </g>
                    <g data-name="Group 178">
                        <g data-name="Group 177">
                            <g data-name="Group 176">
                                <path data-name="Path 47" d="M49.679 43.2h-4.087a1.058 1.058 0 0 1-1.056-1.056v-4.2a.22.22 0 0 1 .439 0v4.2a.618.618 0 0 0 .617.617h4.087a.22.22 0 1 1 0 .439z" style="fill:#ffe5b8" transform="translate(-20.139 -21.649)"/>
                            </g>
                        </g>
                    </g>
                    <g data-name="Group 181">
                        <g data-name="Group 180">
                            <g data-name="Group 179">
                                <path data-name="Path 48" d="M42.124 35.627h-4.088a1.058 1.058 0 0 1-1.056-1.056v-4.2a.22.22 0 0 1 .44 0v4.2a.617.617 0 0 0 .616.617h4.088a.22.22 0 0 1 0 .439z" style="fill:#ffe5b8" transform="translate(-20.139 -21.649)"/>
                            </g>
                        </g>
                    </g>
                    <g data-name="Group 184">
                        <g data-name="Group 183">
                            <g data-name="Group 182">
                                <path data-name="Path 49" d="M34.559 35.627h-4.088a1.058 1.058 0 0 1-1.056-1.056v-2.119a.22.22 0 0 1 .44 0v2.119a.617.617 0 0 0 .616.617h4.088a.22.22 0 1 1 0 .439z" style="fill:#ffe5b8" transform="translate(-20.139 -21.649)"/>
                            </g>
                        </g>
                    </g>
                    <g data-name="Group 187">
                        <g data-name="Group 186">
                            <g data-name="Group 185">
                                <path data-name="Path 50" d="M49.679 35.627h-4.087a1.058 1.058 0 0 1-1.056-1.056v-4.2a.22.22 0 0 1 .439 0v4.2a.618.618 0 0 0 .617.617h4.087a.22.22 0 1 1 0 .439z" style="fill:#ffe5b8" transform="translate(-20.139 -21.649)"/>
                            </g>
                        </g>
                    </g>
                    <g data-name="Group 190">
                        <g data-name="Group 189">
                            <g data-name="Group 188">
                                <path data-name="Path 51" d="M42.147 28.085h-4.088A1.058 1.058 0 0 1 37 27.029v-.038a.22.22 0 0 1 .44 0v.038a.616.616 0 0 0 .616.616h4.088a.22.22 0 1 1 0 .44z" style="fill:#ffe5b8" transform="translate(-20.139 -21.649)"/>
                            </g>
                        </g>
                    </g>
                    <g data-name="Group 193">
                        <g data-name="Group 192">
                            <g data-name="Group 191">
                                <path data-name="Path 52" d="M49.7 28.085h-4.085a1.058 1.058 0 0 1-1.056-1.056V25.9a.22.22 0 0 1 .439 0v1.125a.617.617 0 0 0 .617.616H49.7a.22.22 0 1 1 0 .44z" style="fill:#ffe5b8" transform="translate(-20.139 -21.649)"/>
                            </g>
                        </g>
                    </g>
                    <g data-name="Group 196">
                        <g data-name="Group 195">
                            <g data-name="Group 194">
                                <path data-name="Path 53" d="M57.244 35.627h-4.087a1.057 1.057 0 0 1-1.057-1.056v-4.2a.22.22 0 0 1 .439 0v4.2a.618.618 0 0 0 .617.617h4.087a.22.22 0 1 1 0 .439z" style="fill:#ffe5b8" transform="translate(-20.139 -21.649)"/>
                            </g>
                        </g>
                    </g>
                    <g data-name="Group 199">
                        <g data-name="Group 198">
                            <g data-name="Group 197">
                                <path data-name="Path 54" d="M49.679 50.767h-4.087a1.057 1.057 0 0 1-1.056-1.056v-4.2a.22.22 0 1 1 .439 0v4.2a.618.618 0 0 0 .617.617h4.087a.22.22 0 1 1 0 .439z" style="fill:#ffe5b8" transform="translate(-20.139 -21.649)"/>
                            </g>
                        </g>
                    </g>
                    <g data-name="Group 202">
                        <g data-name="Group 201">
                            <g data-name="Group 200">
                                <path data-name="Path 55" d="M42.124 58.361h-4.088a1.058 1.058 0 0 1-1.056-1.056V53.1a.22.22 0 0 1 .44 0v4.2a.617.617 0 0 0 .616.617h4.088a.22.22 0 0 1 0 .439z" style="fill:#ffe5b8" transform="translate(-20.139 -21.649)"/>
                            </g>
                        </g>
                    </g>
                    <g data-name="Group 205">
                        <g data-name="Group 204">
                            <g data-name="Group 203">
                                <path data-name="Path 56" d="M49.679 58.361h-4.087a1.058 1.058 0 0 1-1.056-1.056V53.1a.22.22 0 0 1 .439 0v4.2a.618.618 0 0 0 .617.617h4.087a.22.22 0 1 1 0 .439z" style="fill:#ffe5b8" transform="translate(-20.139 -21.649)"/>
                            </g>
                        </g>
                    </g>
                    <g data-name="Group 208">
                        <g data-name="Group 207">
                            <g data-name="Group 206">
                                <path data-name="Path 57" d="M55.325 58.361h-2.191a1.057 1.057 0 0 1-1.056-1.056V53.1a.22.22 0 0 1 .439 0v4.2a.618.618 0 0 0 .617.617h2.191a.22.22 0 1 1 0 .439z" style="fill:#ffe5b8" transform="translate(-20.139 -21.649)"/>
                            </g>
                        </g>
                    </g>
                    <g data-name="Group 215">
                        <g data-name="Group 211">
                            <g data-name="Group 210">
                                <g data-name="Group 209">
                                    <path data-name="Path 58" d="M57.221 43.2h-4.087a1.057 1.057 0 0 1-1.056-1.056v-4.2a.22.22 0 0 1 .439 0v4.2a.618.618 0 0 0 .617.617h4.087a.22.22 0 1 1 0 .439z" style="fill:#ffe5b8" transform="translate(-20.139 -21.649)"/>
                                </g>
                            </g>
                        </g>
                        <g data-name="Group 214">
                            <g data-name="Group 213">
                                <g data-name="Group 212">
                                    <path data-name="Path 59" d="M57.221 50.767h-4.087a1.056 1.056 0 0 1-1.056-1.056v-4.2a.22.22 0 1 1 .439 0v4.2a.618.618 0 0 0 .617.617h4.087a.22.22 0 1 1 0 .439z" style="fill:#ffe5b8" transform="translate(-20.139 -21.649)"/>
                                </g>
                            </g>
                        </g>
                    </g>
                    <g data-name="Group 222">
                        <g data-name="Group 218">
                            <g data-name="Group 217">
                                <g data-name="Group 216">
                                    <path data-name="Path 60" d="M61.762 43.2h-1.035a1.057 1.057 0 0 1-1.056-1.056v-4.2a.22.22 0 0 1 .439 0v4.2a.618.618 0 0 0 .617.617h1.035a.22.22 0 1 1 0 .439z" style="fill:#ffe5b8" transform="translate(-20.139 -21.649)"/>
                                </g>
                            </g>
                        </g>
                        <g data-name="Group 221">
                            <g data-name="Group 220">
                                <g data-name="Group 219">
                                    <path data-name="Path 61" d="M60.727 50.767h-.01a1.057 1.057 0 0 1-1.046-1.056v-4.2a.22.22 0 1 1 .439 0v4.2a.618.618 0 0 0 .617.617.22.22 0 0 1 0 .439z" style="fill:#ffe5b8" transform="translate(-20.139 -21.649)"/>
                                </g>
                            </g>
                        </g>
                    </g>
                    <g data-name="Group 225">
                        <g data-name="Group 224">
                            <g data-name="Group 223">
                                <path data-name="Path 62" d="M42.157 62.8h-.023a20.971 20.971 0 0 1-4.347-.835 1.145 1.145 0 0 1-.807-1.119v-.124a.22.22 0 0 1 .44 0v.124a.706.706 0 0 0 .491.7 20.6 20.6 0 0 0 4.268.82.22.22 0 0 1-.022.438z" style="fill:#ffe5b8" transform="translate(-20.139 -21.649)"/>
                            </g>
                        </g>
                    </g>
                    <g data-name="Group 228">
                        <g data-name="Group 227">
                            <g data-name="Group 226">
                                <path data-name="Path 63" d="M45.642 62.793a1.061 1.061 0 0 1-.688-.256 1.123 1.123 0 0 1-.4-.855v-.929a.22.22 0 1 1 .439 0v.929a.684.684 0 0 0 .241.521.614.614 0 0 0 .5.144 22.853 22.853 0 0 0 3.961-.9.22.22 0 1 1 .132.419 23.111 23.111 0 0 1-4.024.909 1 1 0 0 1-.161.018z" style="fill:#ffe5b8" transform="translate(-20.139 -21.649)"/>
                            </g>
                        </g>
                    </g>
                    <g data-name="Group 231">
                        <g data-name="Group 230">
                            <g data-name="Group 229">
                                <path data-name="Path 64" d="M27.348 50.75h-.507a1.116 1.116 0 0 1-1.064-.769 19.8 19.8 0 0 1-.937-4.868.22.22 0 0 1 .439-.029 19.307 19.307 0 0 0 .916 4.76.678.678 0 0 0 .646.467h.507a.22.22 0 1 1 0 .439z" style="fill:#ffe5b8" transform="translate(-20.139 -21.649)"/>
                            </g>
                        </g>
                    </g>
                    <g data-name="Group 234">
                        <g data-name="Group 233">
                            <g data-name="Group 232">
                                <path data-name="Path 65" d="M27.257 43.206H25.98a1.142 1.142 0 0 1-1.134-1.273 19.766 19.766 0 0 1 1.063-4.454.22.22 0 0 1 .413.151 19.335 19.335 0 0 0-1.04 4.355.7.7 0 0 0 .7.782h1.277a.22.22 0 1 1 0 .439z" style="fill:#ffe5b8" transform="translate(-20.139 -21.649)"/>
                            </g>
                        </g>
                    </g>
                    <g data-name="Group 237">
                        <g data-name="Group 236">
                            <g data-name="Group 235">
                                <path data-name="Path 66" d="M34.507 58.333h-2.655a1.058 1.058 0 0 1-.711-.273 20.84 20.84 0 0 1-1.43-1.421 1.063 1.063 0 0 1-.277-.716v-2.662a.22.22 0 1 1 .44 0v2.662a.62.62 0 0 0 .161.419c.443.484.914.952 1.4 1.392a.616.616 0 0 0 .416.16h2.655a.22.22 0 0 1 0 .439z" style="fill:#ffe5b8" transform="translate(-20.139 -21.649)"/>
                            </g>
                        </g>
                    </g>
                </g>
            </g>
        </g>
    </g>
</svg>
