<svg xmlns="http://www.w3.org/2000/svg" width="39.906" height="39.906" viewBox="0 0 39.906 39.906">
    <g data-name="Group 310" transform="translate(-1143.694 -24.136)">
        <circle data-name="Ellipse 2" cx="19.953" cy="19.953" r="19.953" transform="translate(1143.694 24.136)" style="fill:#5b3a00"/>
        <path data-name="Path 74" d="M1150.935 49.35v-2.084c.015-.1.032-.209.044-.314.09-.78.143-1.566.276-2.338a21.832 21.832 0 0 1 3.46-8.442.643.643 0 0 1 .254-.217 21 21 0 0 1 4.909-1.53.216.216 0 0 1 .276.132c.157.328.34.644.479.978.08.192.178.225.372.206a21.984 21.984 0 0 1 2.273-.174c1.015.009 2.029.107 3.042.178.171.012.263-.015.336-.187.144-.342.325-.668.484-1a.214.214 0 0 1 .277-.128 20.868 20.868 0 0 1 4.841 1.5.86.86 0 0 1 .346.292 21.176 21.176 0 0 1 3.655 14.151.406.406 0 0 1-.141.261 20.935 20.935 0 0 1-6.12 3.1.233.233 0 0 1-.32-.121c-.3-.483-.613-.961-.913-1.446-.116-.187-.211-.387-.314-.579l2.118-1.018c-.3-.43-.458-.48-.846-.312a14.861 14.861 0 0 1-8.757 1.038 15.642 15.642 0 0 1-3.5-1.076.462.462 0 0 0-.317-.054 3.151 3.151 0 0 0-.491.373l2.215 1.07c-.448.7-.883 1.384-1.314 2.067-.089.142-.193.081-.3.047a20.825 20.825 0 0 1-6.052-3.069.514.514 0 0 1-.172-.318c-.049-.33-.068-.659-.1-.986zm19.27-4.3a7.66 7.66 0 0 0-.207-.962 2.184 2.184 0 0 0-3.577-1A2.768 2.768 0 0 0 1166.4 47a2.1 2.1 0 0 0 3.005-.037 2.885 2.885 0 0 0 .795-1.916zm-8.428-.03a7.772 7.772 0 0 0-.324-1.156 2.157 2.157 0 0 0-3.617-.639 2.775 2.775 0 0 0 .113 3.775 2.1 2.1 0 0 0 3-.034 3.016 3.016 0 0 0 .828-1.949z" style="fill:#fff"/>
    </g>
</svg>
