<svg xmlns="http://www.w3.org/2000/svg" width="126.393" height="126.393" viewBox="0 0 126.393 126.393">
    <g data-name="Group 2512">
        <g data-name="Group 2511">
            <g data-name="Group 2355">
                <g data-name="Group 2202">
                    <g data-name="Group 2201">
                        <path data-name="Path 806" d="m273.585 4005.727 6.054-6.054-83.278-83.273-6.055 6.054c-21.965 21.966-21.13 58.415 1.867 81.412s59.446 23.832 81.412 1.866" style="fill:#5b3a00" transform="translate(-172.361 -3897.279)"/>
                        <path data-name="Path 807" d="m282.47 3999.673-7.47 7.47a55.723 55.723 0 0 1-19.448 12.661 57.962 57.962 0 0 1-22.332 3.852 60.913 60.913 0 0 1-22.5-4.87 63.644 63.644 0 0 1-33.476-33.476 60.923 60.923 0 0 1-4.871-22.5 57.989 57.989 0 0 1 3.853-22.333 55.724 55.724 0 0 1 12.661-19.448l7.47-7.47zm-90.748-75.808a51.734 51.734 0 0 0-11.757 18.059 54 54 0 0 0-3.585 20.8 56.926 56.926 0 0 0 4.554 21.023 59.638 59.638 0 0 0 31.355 31.355 56.9 56.9 0 0 0 21.022 4.553 54.007 54.007 0 0 0 20.8-3.584 51.759 51.759 0 0 0 18.059-11.758l4.639-4.638-80.447-80.447z" style="fill:#5b3a00" transform="translate(-172.361 -3897.279)"/>
                    </g>
                </g>
                <g data-name="Group 2204">
                    <g data-name="Group 2203" transform="translate(-172.361 -3897.279)">
                        <circle data-name="Ellipse 115" cx="58.887" cy="58.887" r="58.887" transform="translate(178.979 3899.281)" style="fill:#5b3a00"/>
                        <path data-name="Path 808" d="M280.92 4001.223a60.7 60.7 0 1 1 13.376-20.144 60.508 60.508 0 0 1-13.376 20.144zm-83.278-83.278a56.707 56.707 0 1 0 18.817-12.5 56.514 56.514 0 0 0-18.817 12.5z" style="fill:#5b3a00"/>
                    </g>
                </g>
                <g data-name="Group 2354">
                    <g data-name="Group 2253">
                        <g data-name="Group 2206">
                            <g data-name="Group 2205">
                                <path data-name="Path 809" d="m257.353 4003.293 2.112 2.112a1.613 1.613 0 0 0 1.859.3 67.227 67.227 0 0 0 11.087-7.471 1.613 1.613 0 0 0 .11-2.383l-3.866-3.865a1.614 1.614 0 0 0-2.282 0l-9.02 9.02a1.614 1.614 0 0 0 0 2.287z" style="fill:#5b3a00" transform="translate(-172.361 -3897.279)"/>
                                <path data-name="Path 810" d="M273.938 3999.554c-.08.08-.165.156-.253.229a69.243 69.243 0 0 1-11.468 7.719 3.612 3.612 0 0 1-4.168-.681l-2.112-2.112a3.621 3.621 0 0 1 0-5.113l9.021-9.021a3.619 3.619 0 0 1 5.113 0l3.865 3.866a3.615 3.615 0 0 1 0 5.113zm-13.256 4.237a66.7 66.7 0 0 0 10.12-6.822l-3.288-3.288-8.471 8.471z" style="fill:#5b3a00" transform="translate(-172.361 -3897.279)"/>
                            </g>
                        </g>
                        <g data-name="Group 2208">
                            <g data-name="Group 2207">
                                <path data-name="Path 811" d="m206.69 3991.92-3.4 3.4a1.514 1.514 0 0 0 .108 2.239 78.9 78.9 0 0 0 12.182 8.27 1.435 1.435 0 0 0 1.693-.242l1.545-1.545a1.514 1.514 0 0 0 0-2.141l-9.985-9.984a1.513 1.513 0 0 0-2.143.003z" style="fill:#5b3a00" transform="translate(-172.361 -3897.279)"/>
                                <path data-name="Path 812" d="m220.23 4005.461-1.544 1.539a3.428 3.428 0 0 1-3.992.624 79.858 79.858 0 0 1-12.571-8.522 3.515 3.515 0 0 1-.251-5.2l3.4-3.4a3.52 3.52 0 0 1 4.972 0l9.984 9.984a3.519 3.519 0 0 1 .002 4.975zm-4.081-1.582.9-.9-9.294-9.294-2.675 2.675a78.035 78.035 0 0 0 11.069 7.519z" style="fill:#5b3a00" transform="translate(-172.361 -3897.279)"/>
                            </g>
                        </g>
                        <g data-name="Group 2210">
                            <g data-name="Group 2209">
                                <path data-name="Path 813" d="m203.876 3927.212-3.887-3.888a1.515 1.515 0 0 0-2.236.1 66.775 66.775 0 0 0-7.663 11.143 1.513 1.513 0 0 0 .285 1.744l2.2 2.2a1.513 1.513 0 0 0 2.14 0l9.162-9.162a1.513 1.513 0 0 0-.001-2.137z" style="fill:#5b3a00" transform="translate(-172.361 -3897.279)"/>
                                <path data-name="Path 814" d="m205.292 3930.768-9.162 9.162a3.521 3.521 0 0 1-4.972 0l-2.2-2.2a3.514 3.514 0 0 1-.663-4.05 63.486 63.486 0 0 1 7.916-11.531 3.516 3.516 0 0 1 5.192-.241l3.888 3.887a3.521 3.521 0 0 1 .001 4.973zm-11.648 5.985 8.471-8.471-3.162-3.162a65.539 65.539 0 0 0-6.912 10.03z" style="fill:#5b3a00" transform="translate(-172.361 -3897.279)"/>
                            </g>
                        </g>
                        <g data-name="Group 2212">
                            <g data-name="Group 2211">
                                <path data-name="Path 815" d="m191.751 3976.982-.8.8a1.515 1.515 0 0 0-.288 1.737 79.982 79.982 0 0 0 7.816 12.658 1.514 1.514 0 0 0 2.24.109l3.17-3.171a1.513 1.513 0 0 0 0-2.14l-9.995-10a1.515 1.515 0 0 0-2.143.007z" style="fill:#5b3a00" transform="translate(-172.361 -3897.279)"/>
                                <path data-name="Path 816" d="m205.3 3990.533-3.17 3.17a3.515 3.515 0 0 1-5.2-.253 81.959 81.959 0 0 1-8.067-13.048 3.516 3.516 0 0 1 .671-4.034l.8-.8a3.52 3.52 0 0 1 4.972 0l9.995 10a3.52 3.52 0 0 1-.001 4.965zm-5.616-.046 2.44-2.44-9.3-9.3-.209.209a81.639 81.639 0 0 0 7.071 11.531z" style="fill:#5b3a00" transform="translate(-172.361 -3897.279)"/>
                            </g>
                        </g>
                        <g data-name="Group 2214">
                            <g data-name="Group 2213">
                                <path data-name="Path 817" d="m272.292 3988.355 3.743 3.744a1.614 1.614 0 0 0 2.392-.121 67.8 67.8 0 0 0 7.077-11.48 1.73 1.73 0 0 0-.388-1.907l-1.522-1.539a1.614 1.614 0 0 0-2.282 0l-9.02 9.021a1.612 1.612 0 0 0 0 2.282z" style="fill:#5b3a00" transform="translate(-172.361 -3897.279)"/>
                                <path data-name="Path 818" d="M279.732 3993.516a3.614 3.614 0 0 1-5.112 0l-3.744-3.744a3.619 3.619 0 0 1 0-5.113l9.02-9.02a3.62 3.62 0 0 1 5.114 0l.007.007 1.519 1.536a3.727 3.727 0 0 1 .768 4.194 69.308 69.308 0 0 1-7.323 11.866 3.456 3.456 0 0 1-.249.274zm-5.75-6.3 3.162 3.162a67.405 67.405 0 0 0 6.432-10.495l-1.125-1.137z" style="fill:#5b3a00" transform="translate(-172.361 -3897.279)"/>
                            </g>
                        </g>
                        <g data-name="Group 2216">
                            <g data-name="Group 2215">
                                <path data-name="Path 819" d="m218.815 3912.273-2.1-2.1a1.514 1.514 0 0 0-1.732-.292 66.8 66.8 0 0 0-11.223 7.593 1.515 1.515 0 0 0-.113 2.244l3.858 3.858a1.515 1.515 0 0 0 2.141 0l9.166-9.166a1.514 1.514 0 0 0 .003-2.137z" style="fill:#5b3a00" transform="translate(-172.361 -3897.279)"/>
                                <path data-name="Path 820" d="m220.23 3915.829-9.166 9.171a3.52 3.52 0 0 1-4.972 0l-3.857-3.857a3.515 3.515 0 0 1 .263-5.211 70.849 70.849 0 0 1 11.614-7.843 3.521 3.521 0 0 1 4.022.677l2.1 2.1a3.52 3.52 0 0 1-.004 4.963zm-11.652 5.99 8.476-8.476-1.5-1.5a65.749 65.749 0 0 0-10.1 6.849z" style="fill:#5b3a00" transform="translate(-172.361 -3897.279)"/>
                            </g>
                        </g>
                        <g data-name="Group 2218">
                            <g data-name="Group 2217">
                                <path data-name="Path 821" d="m284.346 3938.514.834-.834a1.515 1.515 0 0 0 .288-1.739 79.327 79.327 0 0 0-8.088-12.365 1.514 1.514 0 0 0-2.239-.107l-2.92 2.92a1.514 1.514 0 0 0 0 2.141l9.984 9.984a1.514 1.514 0 0 0 2.141 0z" style="fill:#5b3a00" transform="translate(-172.361 -3897.279)"/>
                                <path data-name="Path 822" d="m286.6 3939.095-.834.835a3.521 3.521 0 0 1-4.972 0l-9.984-9.984a3.521 3.521 0 0 1 0-4.973l2.92-2.92a3.516 3.516 0 0 1 5.2.251 80.837 80.837 0 0 1 8.339 12.754 3.515 3.515 0 0 1-.669 4.037zm-3.32-2.342.241-.24a79.319 79.319 0 0 0-7.342-11.245l-2.192 2.192z" style="fill:#5b3a00" transform="translate(-172.361 -3897.279)"/>
                            </g>
                        </g>
                        <g data-name="Group 2220">
                            <g data-name="Group 2219">
                                <path data-name="Path 823" d="m203.876 3957.089-9.984-9.984a1.512 1.512 0 0 0-2.141 0l-6.5 6.5a1.512 1.512 0 0 0-.441.989 51.721 51.721 0 0 0-.02 5.456 1.513 1.513 0 0 0 .442 1l7.342 7.342a1.513 1.513 0 0 0 2.14 0l9.162-9.162a1.513 1.513 0 0 0 0-2.141z" style="fill:#5b3a00" transform="translate(-172.361 -3897.279)"/>
                                <path data-name="Path 824" d="m205.292 3960.645-9.162 9.162a3.519 3.519 0 0 1-4.972 0l-7.342-7.342a3.515 3.515 0 0 1-1.026-2.317 54.089 54.089 0 0 1 .021-5.666 3.512 3.512 0 0 1 1.024-2.293l6.5-6.5a3.52 3.52 0 0 1 4.972 0l9.984 9.984a3.521 3.521 0 0 1 .001 4.972zm-11.648 5.985 8.471-8.471-9.293-9.293-6.023 6.023a49.607 49.607 0 0 0-.018 4.878z" style="fill:#5b3a00" transform="translate(-172.361 -3897.279)"/>
                            </g>
                        </g>
                        <g data-name="Group 2222">
                            <g data-name="Group 2221">
                                <path data-name="Path 825" d="m269.453 3923.621 3.556-3.556a1.514 1.514 0 0 0-.109-2.24 80.531 80.531 0 0 0-12.692-7.851 1.434 1.434 0 0 0-1.692.243l-1.363 1.363a1.368 1.368 0 0 0 .129 2.011l10.03 10.03a1.515 1.515 0 0 0 2.141 0z" style="fill:#5b3a00" transform="translate(-172.361 -3897.279)"/>
                                <path data-name="Path 826" d="m274.425 3921.48-3.557 3.557a3.521 3.521 0 0 1-4.972 0l-10.029-10.03a3.352 3.352 0 0 1-.129-4.843l1.362-1.363a3.43 3.43 0 0 1 3.989-.625 82.148 82.148 0 0 1 13.082 8.1 3.516 3.516 0 0 1 .254 5.2zm-6.043.38 2.826-2.826a81.634 81.634 0 0 0-11.57-7.108l-.6.595z" style="fill:#5b3a00" transform="translate(-172.361 -3897.279)"/>
                            </g>
                        </g>
                        <g data-name="Group 2224">
                            <g data-name="Group 2223" transform="translate(-172.361 -3897.279)">
                                <rect data-name="Rectangle 121" width="15.984" height="17.147" rx="1.614" transform="rotate(-45 4923.066 1676.862)" style="fill:#5b3a00"/>
                                <path data-name="Path 827" d="m279.914 3975.654-9.021 9.021a3.621 3.621 0 0 1-5.113 0l-9.843-9.843a3.622 3.622 0 0 1 0-5.114l9.021-9.02a3.619 3.619 0 0 1 5.113 0l9.843 9.843a3.62 3.62 0 0 1 0 5.113zm-11.577 5.915 8.471-8.471-9.294-9.294-8.471 8.471z" style="fill:#5b3a00"/>
                            </g>
                        </g>
                        <g data-name="Group 2226">
                            <g data-name="Group 2225">
                                <path data-name="Path 828" d="m272.292 3958.478 9.888 9.888a1.614 1.614 0 0 0 2.282 0l6.1-6.188a1.617 1.617 0 0 0 .47-1.056 52.74 52.74 0 0 0-.066-6 1.617 1.617 0 0 0-.47-1.045l-6.9-6.9a1.614 1.614 0 0 0-2.282 0l-9.02 9.021a1.612 1.612 0 0 0-.002 2.28z" style="fill:#5b3a00" transform="translate(-172.361 -3897.279)"/>
                                <path data-name="Path 829" d="m285.883 3969.776-.005.006a3.622 3.622 0 0 1-5.114 0l-9.888-9.889a3.619 3.619 0 0 1 0-5.113l9.02-9.02a3.62 3.62 0 0 1 5.114 0l6.9 6.9a3.616 3.616 0 0 1 1.053 2.338 54.626 54.626 0 0 1 .067 6.233 3.614 3.614 0 0 1-1.049 2.358zm-11.9-12.439 9.337 9.337 5.719-5.805a50.582 50.582 0 0 0-.064-5.483l-6.521-6.52z" style="fill:#5b3a00" transform="translate(-172.361 -3897.279)"/>
                            </g>
                        </g>
                        <g data-name="Group 2228">
                            <g data-name="Group 2227" transform="translate(-172.361 -3897.279)">
                                <rect data-name="Rectangle 122" width="15.984" height="17.147" rx="1.514" transform="rotate(-45 4908.128 1712.927)" style="fill:#5b3a00"/>
                                <path data-name="Path 830" d="m250.107 3975.584-9.161 9.161a3.52 3.52 0 0 1-4.972 0l-9.984-9.984a3.519 3.519 0 0 1 0-4.972l9.161-9.162a3.521 3.521 0 0 1 4.972 0l9.984 9.985a3.519 3.519 0 0 1 0 4.972zm-11.647 5.985 8.471-8.471-9.294-9.294-8.471 8.471z" style="fill:#5b3a00"/>
                            </g>
                        </g>
                        <g data-name="Group 2230">
                            <g data-name="Group 2229">
                                <path data-name="Path 831" d="m236.5 3991.991-9.02 9.02a1.614 1.614 0 0 0 0 2.282l7.279 7.279a1.615 1.615 0 0 0 1.065.471 51.85 51.85 0 0 0 5.3-.015 1.611 1.611 0 0 0 1.056-.471l6.442-6.441a1.614 1.614 0 0 0 0-2.282l-9.843-9.843a1.614 1.614 0 0 0-2.279 0z" style="fill:#5b3a00" transform="translate(-172.361 -3897.279)"/>
                                <path data-name="Path 832" d="m250.037 4005.531-6.442 6.442a3.611 3.611 0 0 1-2.364 1.054 54.1 54.1 0 0 1-5.507.016 3.609 3.609 0 0 1-2.385-1.055l-7.279-7.279a3.619 3.619 0 0 1 0-5.113l9.021-9.021a3.621 3.621 0 0 1 5.113 0l9.843 9.843a3.621 3.621 0 0 1 0 5.113zm-9.168 3.506 6.062-6.062-9.294-9.294-8.471 8.471 6.9 6.9c1.592.071 3.206.066 4.803-.015z" style="fill:#5b3a00" transform="translate(-172.361 -3897.279)"/>
                            </g>
                        </g>
                        <g data-name="Group 2232">
                            <g data-name="Group 2231" transform="translate(-172.361 -3897.279)">
                                <rect data-name="Rectangle 123" width="15.984" height="17.212" rx="1.614" transform="rotate(-45 4933.63 1702.365)" style="fill:#5b3a00"/>
                                <path data-name="Path 833" d="m265.021 3990.638-8.975 8.975a3.652 3.652 0 0 1-5.159.046L241 3989.77a3.652 3.652 0 0 1 .045-5.159l8.975-8.974a3.619 3.619 0 0 1 5.113 0l9.889 9.888a3.619 3.619 0 0 1-.001 5.113zm-11.577 5.915 8.471-8.471-9.339-9.339-8.471 8.471z" style="fill:#5b3a00"/>
                            </g>
                        </g>
                        <g data-name="Group 2234">
                            <g data-name="Group 2233" transform="translate(-172.361 -3897.279)">
                                <rect data-name="Rectangle 124" width="15.984" height="17.147" rx="1.514" transform="rotate(-45 4918.691 1738.43)" style="fill:#5b3a00"/>
                                <path data-name="Path 834" d="m235.169 3990.522-9.162 9.162a3.52 3.52 0 0 1-4.972 0l-9.984-9.984a3.519 3.519 0 0 1 0-4.972l9.162-9.162a3.52 3.52 0 0 1 4.972 0l9.984 9.984a3.519 3.519 0 0 1 0 4.972zm-11.648 5.985 8.471-8.471-9.293-9.293-8.471 8.471z" style="fill:#5b3a00"/>
                            </g>
                        </g>
                        <g data-name="Group 2236">
                            <g data-name="Group 2235" transform="translate(-172.361 -3897.279)">
                                <rect data-name="Rectangle 125" width="15.984" height="17.147" rx="1.514" transform="rotate(-45 4893.19 1748.992)" style="fill:#5b3a00"/>
                                <path data-name="Path 835" d="m220.23 3975.584-9.162 9.161a3.518 3.518 0 0 1-4.971 0l-9.985-9.984a3.521 3.521 0 0 1 0-4.972l9.162-9.162a3.521 3.521 0 0 1 4.972 0l9.984 9.985a3.519 3.519 0 0 1 0 4.972zm-11.647 5.985 8.47-8.471-9.293-9.294-8.471 8.471z" style="fill:#5b3a00"/>
                            </g>
                        </g>
                        <g data-name="Group 2238">
                            <g data-name="Group 2237" transform="translate(-172.361 -3897.279)">
                                <rect data-name="Rectangle 126" width="15.984" height="17.147" rx="1.514" transform="rotate(-45 4882.626 1723.491)" style="fill:#5b3a00"/>
                                <path data-name="Path 836" d="m235.169 3960.645-9.162 9.162a3.52 3.52 0 0 1-4.972 0l-9.984-9.984a3.519 3.519 0 0 1 0-4.972l9.162-9.162a3.52 3.52 0 0 1 4.972 0l9.984 9.984a3.519 3.519 0 0 1 0 4.972zm-11.648 5.985 8.471-8.471-9.293-9.293-8.471 8.471z" style="fill:#5b3a00"/>
                            </g>
                        </g>
                        <g data-name="Group 2240">
                            <g data-name="Group 2239" transform="translate(-172.361 -3897.279)">
                                <rect data-name="Rectangle 127" width="15.984" height="17.147" rx="1.514" transform="rotate(-45 4846.56 1708.552)" style="fill:#5b3a00"/>
                                <path data-name="Path 837" d="m235.169 3930.768-9.162 9.162a3.521 3.521 0 0 1-4.972 0l-9.984-9.984a3.521 3.521 0 0 1 0-4.973l9.162-9.161a3.519 3.519 0 0 1 4.972 0l9.984 9.984a3.52 3.52 0 0 1 0 4.972zm-11.648 5.985 8.471-8.471-9.293-9.293-8.471 8.471z" style="fill:#5b3a00"/>
                            </g>
                        </g>
                        <g data-name="Group 2242">
                            <g data-name="Group 2241">
                                <path data-name="Path 838" d="m233.606 3905.25-6.2 6.2a1.513 1.513 0 0 0 0 2.14l10.028 9.984a1.512 1.512 0 0 0 2.141 0l9.162-9.161a1.514 1.514 0 0 0 0-2.141l-7.052-7.007a1.514 1.514 0 0 0-.98-.441 51.9 51.9 0 0 0-6.11-.017 1.519 1.519 0 0 0-.989.443z" style="fill:#5b3a00" transform="translate(-172.361 -3897.279)"/>
                                <path data-name="Path 839" d="m250.151 3915.829-9.161 9.162a3.519 3.519 0 0 1-4.972 0l-10.025-9.981a3.52 3.52 0 0 1 0-4.975l6.2-6.2a3.519 3.519 0 0 1 2.292-1.025 54.378 54.378 0 0 1 6.346.017 3.517 3.517 0 0 1 2.272 1.024l7.047 7a3.521 3.521 0 0 1 .001 4.978zm-11.306 6.326zm-.342-.34 8.471-8.471-6.574-6.532a50.1 50.1 0 0 0-5.51-.015l-5.723 5.723zm1.77-15.129z" style="fill:#5b3a00" transform="translate(-172.361 -3897.279)"/>
                            </g>
                        </g>
                        <g data-name="Group 2244">
                            <g data-name="Group 2243" transform="translate(-172.361 -3897.279)">
                                <rect data-name="Rectangle 128" width="15.984" height="17.147" rx="1.514" transform="rotate(-45 4887.001 1661.924)" style="fill:#5b3a00"/>
                                <path data-name="Path 840" d="m279.984 3945.706-9.161 9.162a3.519 3.519 0 0 1-4.972 0l-9.984-9.984a3.519 3.519 0 0 1 0-4.972l9.161-9.162a3.521 3.521 0 0 1 4.972 0l9.984 9.984a3.52 3.52 0 0 1 0 4.972zm-11.647 5.985 8.471-8.471-9.294-9.293-8.471 8.471z" style="fill:#5b3a00"/>
                            </g>
                        </g>
                        <g data-name="Group 2246">
                            <g data-name="Group 2245" transform="translate(-172.361 -3897.279)">
                                <rect data-name="Rectangle 129" width="15.984" height="17.147" rx="1.514" transform="rotate(-45 4857.124 1734.053)" style="fill:#5b3a00"/>
                                <path data-name="Path 841" d="m220.23 3945.706-9.161 9.162a3.519 3.519 0 0 1-4.972 0l-9.985-9.984a3.521 3.521 0 0 1 0-4.972l9.162-9.162a3.521 3.521 0 0 1 4.972 0l9.984 9.984a3.52 3.52 0 0 1 0 4.972zm-11.647 5.985 8.471-8.471-9.294-9.293-8.471 8.471z" style="fill:#5b3a00"/>
                            </g>
                        </g>
                        <g data-name="Group 2248">
                            <g data-name="Group 2247" transform="translate(-172.361 -3897.279)">
                                <rect data-name="Rectangle 130" width="15.984" height="17.147" rx="1.514" transform="rotate(-45 4872.063 1697.988)" style="fill:#5b3a00"/>
                                <path data-name="Path 842" d="m250.107 3945.706-9.161 9.162a3.519 3.519 0 0 1-4.972 0l-9.984-9.984a3.519 3.519 0 0 1 0-4.972l9.161-9.162a3.521 3.521 0 0 1 4.972 0l9.984 9.984a3.52 3.52 0 0 1 0 4.972zm-11.647 5.985 8.471-8.471-9.294-9.293-8.471 8.471z" style="fill:#5b3a00"/>
                            </g>
                        </g>
                        <g data-name="Group 2250">
                            <g data-name="Group 2249" transform="translate(-172.361 -3897.279)">
                                <rect data-name="Rectangle 131" width="15.984" height="17.147" rx="1.514" transform="rotate(-45 4897.565 1687.426)" style="fill:#5b3a00"/>
                                <path data-name="Path 843" d="m265.046 3960.645-9.162 9.162a3.521 3.521 0 0 1-4.972 0l-9.984-9.984a3.519 3.519 0 0 1 0-4.972l9.162-9.162a3.52 3.52 0 0 1 4.972 0l9.984 9.984a3.519 3.519 0 0 1 0 4.972zm-11.646 5.985 8.471-8.471-9.293-9.293-8.471 8.471z" style="fill:#5b3a00"/>
                            </g>
                        </g>
                        <g data-name="Group 2252">
                            <g data-name="Group 2251" transform="translate(-172.361 -3897.279)">
                                <rect data-name="Rectangle 132" width="15.984" height="17.147" rx="1.514" transform="rotate(-45 4861.5 1672.487)" style="fill:#5b3a00"/>
                                <path data-name="Path 844" d="m265.046 3930.768-9.162 9.162a3.521 3.521 0 0 1-4.972 0l-9.984-9.985a3.518 3.518 0 0 1 0-4.971l9.162-9.162a3.519 3.519 0 0 1 4.972 0l9.984 9.984a3.52 3.52 0 0 1 0 4.972zm-11.648 5.985 8.471-8.471-9.293-9.293-8.471 8.47z" style="fill:#5b3a00"/>
                            </g>
                        </g>
                    </g>
                    <g data-name="Group 2302">
                        <g data-name="Group 2255">
                            <g data-name="Group 2254">
                                <path data-name="Path 845" d="m258.232 4004.178 1.243 1.243a1.615 1.615 0 0 0 1.859.305 51.41 51.41 0 0 0 11.151-7.523l-3-3a1.614 1.614 0 0 0-2.282 0z" style="fill:#5b3a00" transform="translate(-172.361 -3897.279)"/>
                                <path data-name="Path 846" d="m275.406 3998.292-1.594 1.41a53.493 53.493 0 0 1-11.585 7.816 3.614 3.614 0 0 1-4.168-.681l-2.658-2.659 10.389-10.389a3.62 3.62 0 0 1 5.113 0zm-13.142 4.686a49.481 49.481 0 0 0 7.268-4.9l-1.185-1.186z" style="fill:#5b3a00" transform="translate(-172.361 -3897.279)"/>
                            </g>
                        </g>
                        <g data-name="Group 2257">
                            <g data-name="Group 2256">
                                <path data-name="Path 847" d="m207.522 3995.134-3.192 3.192a51.375 51.375 0 0 0 11.257 7.522 1.515 1.515 0 0 0 1.739-.288l1.381-1.382-9.044-9.044a1.514 1.514 0 0 0-2.141 0z" style="fill:#5b3a00" transform="translate(-172.361 -3897.279)"/>
                                <path data-name="Path 848" d="m221.538 4004.178-2.8 2.8a3.514 3.514 0 0 1-4.037.67 53.485 53.485 0 0 1-11.695-7.814l-1.6-1.41 4.7-4.7a3.518 3.518 0 0 1 4.971 0zm-14.249-5.979a49.431 49.431 0 0 0 7.7 5.094l-6.4-6.4z" style="fill:#5b3a00" transform="translate(-172.361 -3897.279)"/>
                            </g>
                        </g>
                        <g data-name="Group 2259">
                            <g data-name="Group 2258">
                                <path data-name="Path 849" d="m203.768 3929.486-2.947-2.948a1.514 1.514 0 0 0-2.235.1 51.274 51.274 0 0 0-6.951 10.939l.949.949a1.513 1.513 0 0 0 2.14 0z" style="fill:#5b3a00" transform="translate(-172.361 -3897.279)"/>
                                <path data-name="Path 850" d="m206.6 3929.486-10.46 10.459a3.52 3.52 0 0 1-4.972 0l-1.943-1.945.6-1.273a53.406 53.406 0 0 1 7.222-11.365 3.516 3.516 0 0 1 5.192-.241zm-11.623 5.959 5.96-5.959-1.151-1.151a49.486 49.486 0 0 0-4.809 7.11z" style="fill:#5b3a00" transform="translate(-172.361 -3897.279)"/>
                            </g>
                        </g>
                        <g data-name="Group 2261">
                            <g data-name="Group 2260">
                                <path data-name="Path 851" d="m192.584 3980.2-1.056 1.056a51.317 51.317 0 0 0 6.9 10.978 1.515 1.515 0 0 0 2.24.108l3.1-3.1-9.044-9.044a1.513 1.513 0 0 0-2.14.002z" style="fill:#5b3a00" transform="translate(-172.361 -3897.279)"/>
                                <path data-name="Path 852" d="m206.6 3989.24-4.514 4.514a3.515 3.515 0 0 1-5.2-.254 53.352 53.352 0 0 1-7.171-11.406l-.589-1.269 2.045-2.045a3.519 3.519 0 0 1 4.972 0zm-6.963 1.3 1.3-1.3-6.362-6.363a49.458 49.458 0 0 0 5.062 7.663z" style="fill:#5b3a00" transform="translate(-172.361 -3897.279)"/>
                            </g>
                        </g>
                        <g data-name="Group 2263">
                            <g data-name="Group 2262">
                                <path data-name="Path 853" d="m273.171 3989.24 2.874 2.874a1.613 1.613 0 0 0 2.392-.12 51.282 51.282 0 0 0 6.793-10.924l-.8-.8a1.614 1.614 0 0 0-2.282 0z" style="fill:#5b3a00" transform="translate(-172.361 -3897.279)"/>
                                <path data-name="Path 854" d="M279.742 3993.532a3.614 3.614 0 0 1-5.112 0l-4.291-4.29 10.39-10.389a3.619 3.619 0 0 1 5.113 0l1.789 1.789-.581 1.266a53.4 53.4 0 0 1-7.059 11.35 3.423 3.423 0 0 1-.249.274zM276 3989.24l1.153 1.153a49.465 49.465 0 0 0 4.63-6.936z" style="fill:#5b3a00" transform="translate(-172.361 -3897.279)"/>
                            </g>
                        </g>
                        <g data-name="Group 2265">
                            <g data-name="Group 2264">
                                <path data-name="Path 855" d="m218.707 3914.547-1.156-1.156a1.516 1.516 0 0 0-1.733-.292 51.374 51.374 0 0 0-11.309 7.479l3.013 3.013a1.515 1.515 0 0 0 2.141 0z" style="fill:#5b3a00" transform="translate(-172.361 -3897.279)"/>
                                <path data-name="Path 856" d="m221.538 3914.547-10.46 10.46a3.518 3.518 0 0 1-4.971 0l-4.531-4.531 1.618-1.409a53.436 53.436 0 0 1 11.751-7.769 3.519 3.519 0 0 1 4.021.677zm-12.945 7.283 5.66-5.661a49.458 49.458 0 0 0-6.778 4.543z" style="fill:#5b3a00" transform="translate(-172.361 -3897.279)"/>
                            </g>
                        </g>
                        <g data-name="Group 2267">
                            <g data-name="Group 2266">
                                <path data-name="Path 857" d="m284.367 3938.518.758-.758a51.359 51.359 0 0 0-6.912-10.97 1.514 1.514 0 0 0-2.239-.107l-2.8 2.8 9.032 9.032a1.53 1.53 0 0 0 2.161.003z" style="fill:#5b3a00" transform="translate(-172.361 -3897.279)"/>
                                <path data-name="Path 858" d="m287.531 3938.186-1.748 1.748a3.538 3.538 0 0 1-5 0l-10.448-10.448 4.219-4.219a3.515 3.515 0 0 1 5.2.251 53.345 53.345 0 0 1 7.182 11.4zm-11.529-8.7 5.353 5.352a49.437 49.437 0 0 0-4.348-6.357z" style="fill:#5b3a00" transform="translate(-172.361 -3897.279)"/>
                            </g>
                        </g>
                        <g data-name="Group 2269">
                            <g data-name="Group 2268">
                                <path data-name="Path 859" d="m203.768 3959.363-9.044-9.044a1.511 1.511 0 0 0-2.14 0l-5.313 5.312a1.517 1.517 0 0 0-.441.989 52.112 52.112 0 0 0 .012 6.046l5.742 5.741a1.513 1.513 0 0 0 2.14 0z" style="fill:#5b3a00" transform="translate(-172.361 -3897.279)"/>
                                <path data-name="Path 860" d="m206.6 3959.363-10.46 10.459a3.519 3.519 0 0 1-4.972 0l-6.278-6.278-.046-.757a54.131 54.131 0 0 1-.013-6.279 3.515 3.515 0 0 1 1.025-2.293l5.312-5.312a3.519 3.519 0 0 1 4.972 0zm-12.946 7.283 7.283-7.283-7.283-7.283-4.835 4.835a50.23 50.23 0 0 0-.018 4.878z" style="fill:#5b3a00" transform="translate(-172.361 -3897.279)"/>
                            </g>
                        </g>
                        <g data-name="Group 2271">
                            <g data-name="Group 2270">
                                <path data-name="Path 861" d="m269.417 3923.591 2.891-2.89a51.354 51.354 0 0 0-11.268-7.513 1.513 1.513 0 0 0-1.737.289l-1.071 1.07 9.044 9.044a1.515 1.515 0 0 0 2.141 0z" style="fill:#5b3a00" transform="translate(-172.361 -3897.279)"/>
                                <path data-name="Path 862" d="m275.235 3920.6-4.4 4.4a3.52 3.52 0 0 1-4.972 0l-10.46-10.46 2.486-2.486a3.516 3.516 0 0 1 4.034-.671 53.425 53.425 0 0 1 11.706 7.805zm-6.888 1.226 1-1a49.45 49.45 0 0 0-6.319-4.318z" style="fill:#5b3a00" transform="translate(-172.361 -3897.279)"/>
                            </g>
                        </g>
                        <g data-name="Group 2273">
                            <g data-name="Group 2272">
                                <path data-name="Path 863" d="m267.206 3965.328-8.974 8.973 8.974 8.974a1.614 1.614 0 0 0 2.282 0l8.973-8.974-8.973-8.973a1.614 1.614 0 0 0-2.282 0z" style="fill:#5b3a00" transform="translate(-172.361 -3897.279)"/>
                                <path data-name="Path 864" d="m281.292 3974.3-10.392 10.39a3.619 3.619 0 0 1-5.113 0L255.4 3974.3l10.389-10.389a3.619 3.619 0 0 1 5.113 0zm-12.945 7.283 7.283-7.283-7.283-7.283-7.283 7.283z" style="fill:#5b3a00" transform="translate(-172.361 -3897.279)"/>
                            </g>
                        </g>
                        <g data-name="Group 2275">
                            <g data-name="Group 2274">
                                <path data-name="Path 865" d="m273.171 3959.363 8.973 8.973a1.614 1.614 0 0 0 2.282 0l4.955-4.954a1.618 1.618 0 0 0 .47-1.056 51.86 51.86 0 0 0-.061-6.573l-5.364-5.364a1.614 1.614 0 0 0-2.282 0z" style="fill:#5b3a00" transform="translate(-172.361 -3897.279)"/>
                                <path data-name="Path 866" d="m290.8 3964.8-4.954 4.955a3.619 3.619 0 0 1-5.113 0l-10.39-10.389 10.39-10.389a3.619 3.619 0 0 1 5.113 0l5.89 5.89.054.743a54.19 54.19 0 0 1 .065 6.827 3.613 3.613 0 0 1-1.055 2.363zm-7.511 1.849 4.575-4.575a50.014 50.014 0 0 0-.019-5.435l-4.556-4.556-7.289 7.28z" style="fill:#5b3a00" transform="translate(-172.361 -3897.279)"/>
                            </g>
                        </g>
                        <g data-name="Group 2277">
                            <g data-name="Group 2276">
                                <path data-name="Path 867" d="m239.54 3983.345 9.044-9.044-9.044-9.044a1.514 1.514 0 0 0-2.141 0l-9.044 9.044 9.044 9.044a1.514 1.514 0 0 0 2.141 0z" style="fill:#5b3a00" transform="translate(-172.361 -3897.279)"/>
                                <path data-name="Path 868" d="m251.415 3974.3-10.459 10.46a3.519 3.519 0 0 1-4.972 0l-10.46-10.46 10.46-10.46a3.521 3.521 0 0 1 4.972 0zm-12.945 7.283 7.283-7.283-7.283-7.283-7.283 7.283z" style="fill:#5b3a00" transform="translate(-172.361 -3897.279)"/>
                            </g>
                        </g>
                        <g data-name="Group 2279">
                            <g data-name="Group 2278">
                                <path data-name="Path 869" d="m237.329 3995.205-8.974 8.973 6.41 6.41a1.614 1.614 0 0 0 1.065.471 51.85 51.85 0 0 0 5.3-.015 1.619 1.619 0 0 0 1.056-.471l6.4-6.4-8.973-8.973a1.614 1.614 0 0 0-2.284.005z" style="fill:#5b3a00" transform="translate(-172.361 -3897.279)"/>
                                <path data-name="Path 870" d="m251.415 4004.178-7.81 7.811a3.615 3.615 0 0 1-2.364 1.054 54.1 54.1 0 0 1-5.507.016 3.611 3.611 0 0 1-2.385-1.056l-7.825-7.825 10.389-10.389a3.619 3.619 0 0 1 5.113 0zm-10.536 4.874 4.874-4.874-7.283-7.283-7.283 7.283 4.888 4.888c1.592.072 3.207.068 4.804-.014z" style="fill:#5b3a00" transform="translate(-172.361 -3897.279)"/>
                            </g>
                        </g>
                        <g data-name="Group 2281">
                            <g data-name="Group 2280">
                                <path data-name="Path 871" d="m252.267 3980.266-8.973 8.974 8.973 8.973a1.614 1.614 0 0 0 2.282 0l8.974-8.973-8.974-8.974a1.614 1.614 0 0 0-2.282 0z" style="fill:#5b3a00" transform="translate(-172.361 -3897.279)"/>
                                <path data-name="Path 872" d="m266.354 3989.24-10.389 10.389a3.62 3.62 0 0 1-5.114 0l-10.389-10.389 10.389-10.389a3.62 3.62 0 0 1 5.114 0zm-12.946 7.283 7.283-7.283-7.283-7.283-7.283 7.283z" style="fill:#5b3a00" transform="translate(-172.361 -3897.279)"/>
                            </g>
                        </g>
                        <g data-name="Group 2283">
                            <g data-name="Group 2282">
                                <path data-name="Path 873" d="m224.6 3998.284 9.044-9.044-9.044-9.04a1.513 1.513 0 0 0-2.14 0l-9.044 9.044 9.044 9.044a1.513 1.513 0 0 0 2.14-.004z" style="fill:#5b3a00" transform="translate(-172.361 -3897.279)"/>
                                <path data-name="Path 874" d="m236.477 3989.24-10.46 10.46a3.521 3.521 0 0 1-4.972 0l-10.46-10.46 10.46-10.46a3.519 3.519 0 0 1 4.972 0zm-12.946 7.283 7.283-7.283-7.283-7.283-7.283 7.283z" style="fill:#5b3a00" transform="translate(-172.361 -3897.279)"/>
                            </g>
                        </g>
                        <g data-name="Group 2285">
                            <g data-name="Group 2284">
                                <path data-name="Path 875" d="m207.522 3965.257-9.044 9.044 9.044 9.044a1.514 1.514 0 0 0 2.141 0l9.044-9.044-9.044-9.044a1.514 1.514 0 0 0-2.141 0z" style="fill:#5b3a00" transform="translate(-172.361 -3897.279)"/>
                                <path data-name="Path 876" d="m221.538 3974.3-10.46 10.46a3.519 3.519 0 0 1-4.972 0l-10.459-10.46 10.459-10.46a3.522 3.522 0 0 1 4.973 0zm-12.946 7.283 7.284-7.283-7.283-7.283-7.284 7.283z" style="fill:#5b3a00" transform="translate(-172.361 -3897.279)"/>
                            </g>
                        </g>
                        <g data-name="Group 2287">
                            <g data-name="Group 2286">
                                <path data-name="Path 877" d="m222.461 3950.319-9.044 9.044 9.044 9.044a1.513 1.513 0 0 0 2.14 0l9.044-9.044-9.044-9.044a1.511 1.511 0 0 0-2.14 0z" style="fill:#5b3a00" transform="translate(-172.361 -3897.279)"/>
                                <path data-name="Path 878" d="m236.477 3959.363-10.46 10.459a3.519 3.519 0 0 1-4.972 0l-10.46-10.459 10.46-10.46a3.519 3.519 0 0 1 4.972 0zm-12.946 7.283 7.283-7.283-7.283-7.283-7.283 7.283z" style="fill:#5b3a00" transform="translate(-172.361 -3897.279)"/>
                            </g>
                        </g>
                        <g data-name="Group 2289">
                            <g data-name="Group 2288">
                                <path data-name="Path 879" d="m224.6 3938.53 9.044-9.044-9.044-9.045a1.513 1.513 0 0 0-2.14 0l-9.044 9.045 9.044 9.044a1.513 1.513 0 0 0 2.14 0z" style="fill:#5b3a00" transform="translate(-172.361 -3897.279)"/>
                                <path data-name="Path 880" d="m236.477 3929.486-10.46 10.459a3.52 3.52 0 0 1-4.972 0l-10.46-10.459 10.46-10.46a3.52 3.52 0 0 1 4.972 0zm-12.946 7.283 7.283-7.283-7.283-7.283-7.283 7.283z" style="fill:#5b3a00" transform="translate(-172.361 -3897.279)"/>
                            </g>
                        </g>
                        <g data-name="Group 2291">
                            <g data-name="Group 2290">
                                <path data-name="Path 881" d="m234.439 3908.464-6.084 6.083 9.044 9.044a1.515 1.515 0 0 0 2.141 0l9.044-9.044-6.067-6.067a1.519 1.519 0 0 0-.98-.441 51.9 51.9 0 0 0-6.11-.017 1.513 1.513 0 0 0-.988.442z" style="fill:#5b3a00" transform="translate(-172.361 -3897.279)"/>
                                <path data-name="Path 882" d="m251.415 3914.547-10.459 10.46a3.52 3.52 0 0 1-4.972 0l-10.46-10.46 7.5-7.5a3.518 3.518 0 0 1 2.292-1.025 54.361 54.361 0 0 1 6.345.017 3.518 3.518 0 0 1 2.272 1.024zm-12.945 7.283 7.283-7.283-4.521-4.521a50.159 50.159 0 0 0-5.51-.015l-4.535 4.536z" style="fill:#5b3a00" transform="translate(-172.361 -3897.279)"/>
                            </g>
                        </g>
                        <g data-name="Group 2293">
                            <g data-name="Group 2292">
                                <path data-name="Path 883" d="m269.417 3953.468 9.044-9.044-9.044-9.044a1.515 1.515 0 0 0-2.141 0l-9.044 9.044 9.044 9.044a1.514 1.514 0 0 0 2.141 0z" style="fill:#5b3a00" transform="translate(-172.361 -3897.279)"/>
                                <path data-name="Path 884" d="m281.292 3944.424-10.459 10.46a3.52 3.52 0 0 1-4.972 0l-10.46-10.46 10.46-10.46a3.521 3.521 0 0 1 4.972 0zm-12.945 7.283 7.283-7.283-7.283-7.283-7.283 7.283z" style="fill:#5b3a00" transform="translate(-172.361 -3897.279)"/>
                            </g>
                        </g>
                        <g data-name="Group 2295">
                            <g data-name="Group 2294">
                                <path data-name="Path 885" d="m209.663 3953.468 9.044-9.044-9.044-9.044a1.515 1.515 0 0 0-2.141 0l-9.044 9.044 9.044 9.044a1.514 1.514 0 0 0 2.141 0z" style="fill:#5b3a00" transform="translate(-172.361 -3897.279)"/>
                                <path data-name="Path 886" d="m221.538 3944.424-10.459 10.46a3.521 3.521 0 0 1-4.973 0l-10.459-10.46 10.46-10.46a3.52 3.52 0 0 1 4.971 0zm-12.946 7.283 7.284-7.283-7.284-7.283-7.283 7.283z" style="fill:#5b3a00" transform="translate(-172.361 -3897.279)"/>
                            </g>
                        </g>
                        <g data-name="Group 2297">
                            <g data-name="Group 2296">
                                <path data-name="Path 887" d="m237.4 3935.38-9.044 9.044 9.044 9.044a1.514 1.514 0 0 0 2.141 0l9.044-9.044-9.044-9.044a1.515 1.515 0 0 0-2.141 0z" style="fill:#5b3a00" transform="translate(-172.361 -3897.279)"/>
                                <path data-name="Path 888" d="m251.415 3944.424-10.459 10.46a3.52 3.52 0 0 1-4.972 0l-10.46-10.46 10.46-10.46a3.521 3.521 0 0 1 4.972 0zm-12.945 7.283 7.283-7.283-7.283-7.283-7.283 7.283z" style="fill:#5b3a00" transform="translate(-172.361 -3897.279)"/>
                            </g>
                        </g>
                        <g data-name="Group 2299">
                            <g data-name="Group 2298">
                                <path data-name="Path 889" d="m254.478 3968.407 9.045-9.044-9.045-9.044a1.511 1.511 0 0 0-2.14 0l-9.044 9.044 9.044 9.044a1.513 1.513 0 0 0 2.14 0z" style="fill:#5b3a00" transform="translate(-172.361 -3897.279)"/>
                                <path data-name="Path 890" d="m266.354 3959.363-10.46 10.459a3.519 3.519 0 0 1-4.972 0l-10.46-10.459 10.46-10.46a3.519 3.519 0 0 1 4.972 0zm-12.946 7.283 7.283-7.283-7.283-7.283-7.283 7.283z" style="fill:#5b3a00" transform="translate(-172.361 -3897.279)"/>
                            </g>
                        </g>
                        <g data-name="Group 2301">
                            <g data-name="Group 2300">
                                <path data-name="Path 891" d="m252.338 3920.441-9.044 9.045 9.044 9.044a1.513 1.513 0 0 0 2.14 0l9.045-9.044-9.045-9.045a1.513 1.513 0 0 0-2.14 0z" style="fill:#5b3a00" transform="translate(-172.361 -3897.279)"/>
                                <path data-name="Path 892" d="m266.354 3929.486-10.46 10.459a3.52 3.52 0 0 1-4.972 0l-10.46-10.459 10.46-10.46a3.52 3.52 0 0 1 4.972 0zm-12.946 7.283 7.283-7.283-7.283-7.283-7.283 7.283z" style="fill:#5b3a00" transform="translate(-172.361 -3897.279)"/>
                            </g>
                        </g>
                    </g>
                    <g data-name="Group 2307">
                        <g data-name="Group 2304">
                            <g data-name="Group 2303">
                                <path data-name="Path 893" d="m218.724 3976.351-8.076 8.077a2.955 2.955 0 0 1-4.173 0l-8.3-8.3a.614.614 0 0 1 .868-.868l8.3 8.3a1.727 1.727 0 0 0 2.437 0l8.076-8.077a.614.614 0 0 1 .868.868z" style="fill:#5b3a00" transform="translate(-172.361 -3897.279)"/>
                                <path data-name="Path 894" d="m220.14 3977.767-8.077 8.076a4.958 4.958 0 0 1-7 0l-8.3-8.3a2.616 2.616 0 0 1 3.7-3.7l8.1 8.1 7.879-7.878a2.616 2.616 0 0 1 3.7 3.7z" style="fill:#5b3a00" transform="translate(-172.361 -3897.279)"/>
                            </g>
                        </g>
                        <g data-name="Group 2306">
                            <g data-name="Group 2305">
                                <path data-name="Path 895" d="m233.681 3991.309-8.076 8.076a2.955 2.955 0 0 1-4.173 0l-8.3-8.3a.614.614 0 1 1 .868-.868l8.3 8.3a1.725 1.725 0 0 0 2.437 0l8.076-8.076a.614.614 0 0 1 .868.868z" style="fill:#5b3a00" transform="translate(-172.361 -3897.279)"/>
                                <path data-name="Path 896" d="m235.1 3992.724-8.076 8.077a4.96 4.96 0 0 1-7 0l-8.3-8.3a2.616 2.616 0 1 1 3.7-3.7l8.1 8.1 7.879-7.879a2.616 2.616 0 1 1 3.7 3.7z" style="fill:#5b3a00" transform="translate(-172.361 -3897.279)"/>
                            </g>
                        </g>
                    </g>
                    <g data-name="Group 2309">
                        <g data-name="Group 2308">
                            <path data-name="Path 897" d="m233.671 3961.405-8.077 8.076a2.954 2.954 0 0 1-4.172 0l-8.3-8.3a.614.614 0 0 1 .868-.868l8.3 8.3a1.724 1.724 0 0 0 2.436 0l8.077-8.076a.614.614 0 0 1 .868.868z" style="fill:#5b3a00" transform="translate(-172.361 -3897.279)"/>
                            <path data-name="Path 898" d="m235.086 3962.82-8.076 8.077a4.957 4.957 0 0 1-7 0l-8.3-8.3a2.616 2.616 0 0 1 3.7-3.7l8.1 8.1 7.879-7.879a2.616 2.616 0 0 1 3.7 3.7z" style="fill:#5b3a00" transform="translate(-172.361 -3897.279)"/>
                        </g>
                    </g>
                    <g data-name="Group 2311">
                        <g data-name="Group 2310">
                            <path data-name="Path 899" d="m248.628 3976.362-8.076 8.076a2.955 2.955 0 0 1-4.173 0l-8.3-8.3a.614.614 0 1 1 .868-.868l8.3 8.3a1.725 1.725 0 0 0 2.437 0l8.076-8.076a.614.614 0 1 1 .868.868z" style="fill:#5b3a00" transform="translate(-172.361 -3897.279)"/>
                            <path data-name="Path 900" d="m250.044 3977.778-8.077 8.076a4.958 4.958 0 0 1-7 0l-8.3-8.3a2.616 2.616 0 1 1 3.7-3.7l8.1 8.1 7.879-7.879a2.616 2.616 0 0 1 3.7 3.7z" style="fill:#5b3a00" transform="translate(-172.361 -3897.279)"/>
                        </g>
                    </g>
                    <g data-name="Group 2313">
                        <g data-name="Group 2312">
                            <path data-name="Path 901" d="m248.6 3946.476-8.076 8.076a2.953 2.953 0 0 1-4.173 0l-8.3-8.3a.614.614 0 0 1 .868-.868l8.3 8.3a1.725 1.725 0 0 0 2.437 0l8.076-8.076a.614.614 0 0 1 .868.868z" style="fill:#5b3a00" transform="translate(-172.361 -3897.279)"/>
                            <path data-name="Path 902" d="m250.015 3947.892-8.076 8.076a4.96 4.96 0 0 1-7 0l-8.3-8.3a2.616 2.616 0 0 1 3.7-3.7l8.1 8.1 7.879-7.879a2.616 2.616 0 0 1 3.7 3.7z" style="fill:#5b3a00" transform="translate(-172.361 -3897.279)"/>
                        </g>
                    </g>
                    <g data-name="Group 2315">
                        <g data-name="Group 2314">
                            <path data-name="Path 903" d="m218.713 3946.447-8.076 8.077a2.955 2.955 0 0 1-4.173 0l-8.3-8.3a.614.614 0 0 1 .869-.868l8.3 8.3a1.726 1.726 0 0 0 2.436 0l8.076-8.077a.614.614 0 0 1 .868.868z" style="fill:#5b3a00" transform="translate(-172.361 -3897.279)"/>
                            <path data-name="Path 904" d="m220.129 3947.863-8.076 8.076a4.958 4.958 0 0 1-7 0l-8.3-8.3a2.616 2.616 0 0 1 3.7-3.7l8.1 8.1 7.879-7.878a2.616 2.616 0 1 1 3.7 3.7z" style="fill:#5b3a00" transform="translate(-172.361 -3897.279)"/>
                        </g>
                    </g>
                    <g data-name="Group 2317">
                        <g data-name="Group 2316">
                            <path data-name="Path 905" d="m203.767 3961.394-8.077 8.076a2.952 2.952 0 0 1-4.172 0l-4.186-4.186a.614.614 0 1 1 .868-.868l4.186 4.186a1.724 1.724 0 0 0 2.436 0l8.077-8.076a.614.614 0 1 1 .868.868z" style="fill:#5b3a00" transform="translate(-172.361 -3897.279)"/>
                            <path data-name="Path 906" d="m205.182 3962.81-8.076 8.076a4.958 4.958 0 0 1-7 0l-4.186-4.186a2.616 2.616 0 0 1 3.7-3.7l3.989 3.988 7.879-7.879a2.616 2.616 0 0 1 3.7 3.7z" style="fill:#5b3a00" transform="translate(-172.361 -3897.279)"/>
                        </g>
                    </g>
                    <g data-name="Group 2319">
                        <g data-name="Group 2318">
                            <path data-name="Path 907" d="m233.642 3931.519-8.076 8.076a2.953 2.953 0 0 1-4.173 0l-8.3-8.3a.614.614 0 0 1 .868-.868l8.3 8.3a1.725 1.725 0 0 0 2.437 0l8.076-8.076a.614.614 0 1 1 .868.868z" style="fill:#5b3a00" transform="translate(-172.361 -3897.279)"/>
                            <path data-name="Path 908" d="m235.058 3932.935-8.077 8.076a4.958 4.958 0 0 1-7 0l-8.3-8.3a2.616 2.616 0 1 1 3.7-3.7l8.1 8.1 7.879-7.879a2.616 2.616 0 0 1 3.7 3.7z" style="fill:#5b3a00" transform="translate(-172.361 -3897.279)"/>
                        </g>
                    </g>
                    <g data-name="Group 2321">
                        <g data-name="Group 2320">
                            <path data-name="Path 909" d="m203.857 3931.5-8.076 8.076a2.955 2.955 0 0 1-4.173 0l-.074-.074a.614.614 0 0 1 .868-.868l.074.074a1.727 1.727 0 0 0 2.437 0l8.076-8.077a.614.614 0 0 1 .868.869z" style="fill:#5b3a00" transform="translate(-172.361 -3897.279)"/>
                            <path data-name="Path 910" d="m205.273 3932.915-8.077 8.076a4.957 4.957 0 0 1-7 0l-.074-.073a2.616 2.616 0 0 1 3.572-3.819l7.883-7.883a2.616 2.616 0 0 1 3.7 3.7z" style="fill:#5b3a00" transform="translate(-172.361 -3897.279)"/>
                        </g>
                    </g>
                    <g data-name="Group 2323">
                        <g data-name="Group 2322">
                            <path data-name="Path 911" d="m218.785 3916.571-8.076 8.076a2.953 2.953 0 0 1-4.173 0l-2.221-2.221a.614.614 0 0 1 .868-.868l2.222 2.221a1.724 1.724 0 0 0 2.436 0l8.076-8.076a.614.614 0 0 1 .868.868z" style="fill:#5b3a00" transform="translate(-172.361 -3897.279)"/>
                            <path data-name="Path 912" d="m220.2 3917.987-8.076 8.076a4.958 4.958 0 0 1-7 0l-2.222-2.221a2.616 2.616 0 1 1 3.7-3.7l2.024 2.024 7.879-7.879a2.616 2.616 0 1 1 3.7 3.7z" style="fill:#5b3a00" transform="translate(-172.361 -3897.279)"/>
                        </g>
                    </g>
                    <g data-name="Group 2325">
                        <g data-name="Group 2324">
                            <path data-name="Path 913" d="m248.589 3916.572-8.077 8.076a2.952 2.952 0 0 1-4.172 0l-8.3-8.3a.614.614 0 0 1 .868-.868l8.3 8.3a1.724 1.724 0 0 0 2.436 0l8.077-8.076a.614.614 0 0 1 .868.868z" style="fill:#5b3a00" transform="translate(-172.361 -3897.279)"/>
                            <path data-name="Path 914" d="m250 3917.988-8.076 8.076a4.958 4.958 0 0 1-7 0l-8.3-8.3a2.616 2.616 0 0 1 3.7-3.7l8.1 8.1 7.879-7.879a2.616 2.616 0 1 1 3.7 3.7z" style="fill:#5b3a00" transform="translate(-172.361 -3897.279)"/>
                        </g>
                    </g>
                    <g data-name="Group 2327">
                        <g data-name="Group 2326">
                            <path data-name="Path 915" d="m263.556 3961.433-8.076 8.077a2.955 2.955 0 0 1-4.173 0l-8.3-8.3a.614.614 0 1 1 .868-.868l8.3 8.3a1.727 1.727 0 0 0 2.437 0l8.076-8.077a.614.614 0 0 1 .868.868z" style="fill:#5b3a00" transform="translate(-172.361 -3897.279)"/>
                            <path data-name="Path 916" d="m264.972 3962.849-8.076 8.076a4.958 4.958 0 0 1-7 0l-8.3-8.3a2.616 2.616 0 0 1 3.7-3.7l8.1 8.1 7.879-7.878a2.616 2.616 0 0 1 3.7 3.7z" style="fill:#5b3a00" transform="translate(-172.361 -3897.279)"/>
                        </g>
                    </g>
                    <g data-name="Group 2329">
                        <g data-name="Group 2328">
                            <path data-name="Path 917" d="m263.632 3991.366-8.076 8.076a2.953 2.953 0 0 1-4.173 0l-8.3-8.3a.614.614 0 0 1 .868-.868l8.3 8.3a1.725 1.725 0 0 0 2.437 0l8.076-8.076a.614.614 0 1 1 .868.868z" style="fill:#5b3a00" transform="translate(-172.361 -3897.279)"/>
                            <path data-name="Path 918" d="m265.048 3992.782-8.077 8.076a4.958 4.958 0 0 1-7 0l-8.3-8.3a2.616 2.616 0 1 1 3.7-3.7l8.1 8.1 7.879-7.879a2.616 2.616 0 1 1 3.7 3.7z" style="fill:#5b3a00" transform="translate(-172.361 -3897.279)"/>
                        </g>
                    </g>
                    <g data-name="Group 2331">
                        <g data-name="Group 2330">
                            <path data-name="Path 919" d="m278.56 3976.437-8.076 8.077a2.955 2.955 0 0 1-4.173 0l-8.3-8.3a.614.614 0 0 1 .869-.868l8.3 8.3a1.727 1.727 0 0 0 2.437 0l8.076-8.077a.614.614 0 0 1 .868.868z" style="fill:#5b3a00" transform="translate(-172.361 -3897.279)"/>
                            <path data-name="Path 920" d="m279.976 3977.853-8.076 8.076a4.958 4.958 0 0 1-7 0l-8.3-8.3a2.616 2.616 0 0 1 3.7-3.7l8.1 8.1 7.879-7.879a2.616 2.616 0 0 1 3.7 3.7z" style="fill:#5b3a00" transform="translate(-172.361 -3897.279)"/>
                        </g>
                    </g>
                    <g data-name="Group 2333">
                        <g data-name="Group 2332">
                            <path data-name="Path 921" d="m289.715 3965.283-4.33 4.33a2.955 2.955 0 0 1-4.173 0l-8.3-8.3a.614.614 0 0 1 .868-.868l8.3 8.3a1.726 1.726 0 0 0 2.436 0l4.33-4.33a.614.614 0 1 1 .868.868z" style="fill:#5b3a00" transform="translate(-172.361 -3897.279)"/>
                            <path data-name="Path 922" d="m291.131 3966.7-4.33 4.329a4.958 4.958 0 0 1-7 0l-8.3-8.3a2.616 2.616 0 0 1 3.7-3.7l8.1 8.1 4.132-4.132a2.616 2.616 0 1 1 3.7 3.7z" style="fill:#5b3a00" transform="translate(-172.361 -3897.279)"/>
                        </g>
                    </g>
                    <g data-name="Group 2338">
                        <g data-name="Group 2335">
                            <g data-name="Group 2334">
                                <path data-name="Path 923" d="m263.5 3931.575-8.076 8.076a2.953 2.953 0 0 1-4.173 0l-8.3-8.3a.614.614 0 0 1 .868-.868l8.3 8.3a1.725 1.725 0 0 0 2.437 0l8.076-8.076a.614.614 0 0 1 .868.868z" style="fill:#5b3a00" transform="translate(-172.361 -3897.279)"/>
                                <path data-name="Path 924" d="m264.916 3932.991-8.076 8.076a4.959 4.959 0 0 1-7 0l-8.3-8.3a2.616 2.616 0 1 1 3.7-3.7l8.1 8.1 7.878-7.879a2.616 2.616 0 0 1 3.7 3.7z" style="fill:#5b3a00" transform="translate(-172.361 -3897.279)"/>
                            </g>
                        </g>
                        <g data-name="Group 2337">
                            <g data-name="Group 2336">
                                <path data-name="Path 925" d="m278.457 3946.532-8.076 8.077a2.955 2.955 0 0 1-4.173 0l-8.3-8.3a.615.615 0 1 1 .869-.869l8.3 8.3a1.725 1.725 0 0 0 2.437 0l8.076-8.076a.614.614 0 0 1 .868.868z" style="fill:#5b3a00" transform="translate(-172.361 -3897.279)"/>
                                <path data-name="Path 926" d="m279.873 3947.948-8.076 8.076a4.958 4.958 0 0 1-7 0l-8.3-8.3a2.616 2.616 0 0 1 3.7-3.7l8.1 8.1 7.879-7.879a2.616 2.616 0 1 1 3.7 3.7z" style="fill:#5b3a00" transform="translate(-172.361 -3897.279)"/>
                            </g>
                        </g>
                    </g>
                    <g data-name="Group 2343">
                        <g data-name="Group 2340">
                            <g data-name="Group 2339">
                                <path data-name="Path 927" d="m272.472 3922.6-2.045 2.046a2.955 2.955 0 0 1-4.173 0l-8.3-8.3a.614.614 0 1 1 .868-.868l8.3 8.3a1.726 1.726 0 0 0 2.436 0l2.046-2.046a.614.614 0 1 1 .868.868z" style="fill:#5b3a00" transform="translate(-172.361 -3897.279)"/>
                                <path data-name="Path 928" d="m273.888 3924.019-2.046 2.045a4.958 4.958 0 0 1-7 0l-8.3-8.3a2.616 2.616 0 0 1 3.7-3.7l8.1 8.1 1.848-1.848a2.616 2.616 0 1 1 3.7 3.7z" style="fill:#5b3a00" transform="translate(-172.361 -3897.279)"/>
                            </g>
                        </g>
                        <g data-name="Group 2342">
                            <g data-name="Group 2341">
                                <path data-name="Path 929" d="m285.384 3939.606-.011.011-.009.009a2.954 2.954 0 0 1-4.153-.02l-8.3-8.3a.614.614 0 0 1 .868-.868l8.3 8.3a1.725 1.725 0 0 0 2.437 0 .614.614 0 0 1 .868.868z" style="fill:#5b3a00" transform="translate(-172.361 -3897.279)"/>
                                <path data-name="Path 930" d="m286.8 3941.022-.035.035a4.968 4.968 0 0 1-6.969-.035l-8.3-8.3a2.616 2.616 0 1 1 3.7-3.7l8.111 8.111a2.616 2.616 0 0 1 3.491 3.887z" style="fill:#5b3a00" transform="translate(-172.361 -3897.279)"/>
                            </g>
                        </g>
                    </g>
                    <g data-name="Group 2345">
                        <g data-name="Group 2344">
                            <path data-name="Path 931" d="M272.46 4000.064a.445.445 0 0 1-.047.042 58.548 58.548 0 0 1-10.239 6.938 3.2 3.2 0 0 1-3.805-.615l-.244-.245a.614.614 0 0 1 .868-.868l.244.244a1.98 1.98 0 0 0 2.35.406 57.488 57.488 0 0 0 10.051-6.812.614.614 0 0 1 .822.91z" style="fill:#5b3a00" transform="translate(-172.361 -3897.279)"/>
                            <path data-name="Path 932" d="M273.876 4001.48a2.44 2.44 0 0 1-.2.178 60.3 60.3 0 0 1-10.545 7.144 5.183 5.183 0 0 1-6.179-.958l-.245-.245a2.616 2.616 0 0 1 3.7-3.7l.245.245a.267.267 0 0 0 .036.03 55.657 55.657 0 0 0 9.684-6.573 2.616 2.616 0 0 1 3.5 3.878z" style="fill:#5b3a00" transform="translate(-172.361 -3897.279)"/>
                        </g>
                    </g>
                    <g data-name="Group 2347">
                        <g data-name="Group 2346">
                            <path data-name="Path 933" d="M279.342 3993.171a2.975 2.975 0 0 1-1.867.854 3.133 3.133 0 0 1-2.47-.91l-1.837-1.836a.614.614 0 0 1 .868-.868l1.837 1.836a1.907 1.907 0 0 0 1.505.554 1.7 1.7 0 0 0 1.267-.7 63.73 63.73 0 0 0 6.059-9.595.614.614 0 1 1 1.089.566 64.658 64.658 0 0 1-6.153 9.748 2.935 2.935 0 0 1-.298.351z" style="fill:#5b3a00" transform="translate(-172.361 -3897.279)"/>
                            <path data-name="Path 934" d="M280.757 3994.587a4.972 4.972 0 0 1-3.122 1.433 5.13 5.13 0 0 1-4.046-1.489l-1.836-1.836a2.616 2.616 0 0 1 3.7-3.7l1.723 1.722a61.083 61.083 0 0 0 5.753-9.136 2.616 2.616 0 0 1 4.641 2.416 66.21 66.21 0 0 1-6.307 10 4.9 4.9 0 0 1-.506.59z" style="fill:#5b3a00" transform="translate(-172.361 -3897.279)"/>
                        </g>
                    </g>
                    <g data-name="Group 2349">
                        <g data-name="Group 2348">
                            <path data-name="Path 935" d="m219.4 4005.521-1 1a3.117 3.117 0 0 1-3.62.582 55.3 55.3 0 0 1-11.471-7.767.614.614 0 1 1 .811-.923 53.97 53.97 0 0 0 11.215 7.595 1.893 1.893 0 0 0 2.2-.355l1-1a.614.614 0 0 1 .868.868z" style="fill:#5b3a00" transform="translate(-172.361 -3897.279)"/>
                            <path data-name="Path 936" d="m220.816 4006.936-1 1a5.113 5.113 0 0 1-5.941.952 57.249 57.249 0 0 1-11.887-8.048 2.616 2.616 0 0 1-.239-3.692 2.624 2.624 0 0 1 3.692-.239 51.962 51.962 0 0 0 10.727 7.276l.952-.951a2.616 2.616 0 0 1 3.7 3.7z" style="fill:#5b3a00" transform="translate(-172.361 -3897.279)"/>
                        </g>
                    </g>
                    <g data-name="Group 2351">
                        <g data-name="Group 2350">
                            <path data-name="Path 937" d="m204.316 3990.8-2.524 2.523a3.188 3.188 0 0 1-4.757-.275 55.13 55.13 0 0 1-6.7-10.9.614.614 0 0 1 1.114-.517 53.81 53.81 0 0 0 6.551 10.653 1.961 1.961 0 0 0 2.924.167l2.524-2.523a.614.614 0 0 1 .868.868z" style="fill:#5b3a00" transform="translate(-172.361 -3897.279)"/>
                            <path data-name="Path 938" d="m205.732 3992.211-2.524 2.524a5.189 5.189 0 0 1-7.745-.452 57.112 57.112 0 0 1-6.942-11.3 2.616 2.616 0 1 1 4.746-2.2A51.88 51.88 0 0 0 199.54 3991l2.492-2.492a2.616 2.616 0 1 1 3.7 3.7z" style="fill:#5b3a00" transform="translate(-172.361 -3897.279)"/>
                        </g>
                    </g>
                    <g data-name="Group 2353">
                        <g data-name="Group 2352">
                            <path data-name="Path 939" d="m248.527 4006.36-5.246 5.245a2.955 2.955 0 0 1-1.943.866 59.48 59.48 0 0 1-5.634.016 2.958 2.958 0 0 1-1.961-.866l-5.261-5.261a.614.614 0 1 1 .868-.868l5.261 5.261a1.736 1.736 0 0 0 1.147.508c1.829.082 3.685.076 5.518-.016a1.732 1.732 0 0 0 1.137-.508l5.245-5.245a.614.614 0 0 1 .869.868z" style="fill:#5b3a00" transform="translate(-172.361 -3897.279)"/>
                            <path data-name="Path 940" d="m249.942 4007.776-5.245 5.245a4.958 4.958 0 0 1-3.259 1.449c-1.934.1-3.894.1-5.824.017a4.954 4.954 0 0 1-3.286-1.45l-5.261-5.261a2.616 2.616 0 0 1 3.7-3.7l5.189 5.189c1.695.073 3.414.068 5.114-.015l5.174-5.174a2.616 2.616 0 1 1 3.7 3.7z" style="fill:#5b3a00" transform="translate(-172.361 -3897.279)"/>
                        </g>
                    </g>
                </g>
            </g>
            <g data-name="Group 2510">
                <g data-name="Group 2357">
                    <g data-name="Group 2356">
                        <path data-name="Path 941" d="m273.629 4005.683 6.054-6.055-83.283-83.278-6.054 6.055c-21.966 21.965-21.13 58.415 1.866 81.411s59.446 23.832 81.412 1.867" style="fill:#995b30" transform="translate(-172.361 -3897.279)"/>
                    </g>
                </g>
                <g data-name="Group 2359">
                    <g data-name="Group 2358" transform="translate(-172.361 -3897.279)">
                        <circle data-name="Ellipse 116" cx="58.887" cy="58.887" r="58.887" transform="translate(179.023 3899.237)" style="fill:#bc7840"/>
                    </g>
                </g>
                <g data-name="Group 2509">
                    <g data-name="Group 2408">
                        <g data-name="Group 2361">
                            <g data-name="Group 2360">
                                <path data-name="Path 942" d="m257.4 4003.249 2.112 2.112a1.614 1.614 0 0 0 1.86.3 67.152 67.152 0 0 0 11.086-7.47 1.612 1.612 0 0 0 .11-2.383l-3.865-3.865a1.612 1.612 0 0 0-2.282 0l-9.021 9.02a1.614 1.614 0 0 0 0 2.286z" style="fill:#6d3e1d" transform="translate(-172.361 -3897.279)"/>
                            </g>
                        </g>
                        <g data-name="Group 2363">
                            <g data-name="Group 2362">
                                <path data-name="Path 943" d="m206.734 3991.876-3.4 3.4a1.514 1.514 0 0 0 .107 2.239 79.022 79.022 0 0 0 12.182 8.271 1.436 1.436 0 0 0 1.693-.243l1.545-1.544a1.514 1.514 0 0 0 0-2.141l-9.984-9.984a1.514 1.514 0 0 0-2.143.002z" style="fill:#6d3e1d" transform="translate(-172.361 -3897.279)"/>
                            </g>
                        </g>
                        <g data-name="Group 2365">
                            <g data-name="Group 2364">
                                <path data-name="Path 944" d="m203.92 3927.167-3.887-3.887a1.513 1.513 0 0 0-2.235.1 66.788 66.788 0 0 0-7.664 11.144 1.514 1.514 0 0 0 .286 1.744l2.2 2.2a1.514 1.514 0 0 0 2.141 0l9.161-9.162a1.514 1.514 0 0 0-.002-2.139z" style="fill:#6d3e1d" transform="translate(-172.361 -3897.279)"/>
                            </g>
                        </g>
                        <g data-name="Group 2367">
                            <g data-name="Group 2366">
                                <path data-name="Path 945" d="m191.8 3976.937-.8.8a1.515 1.515 0 0 0-.289 1.738 80.055 80.055 0 0 0 7.816 12.658 1.515 1.515 0 0 0 2.24.108l3.17-3.17a1.514 1.514 0 0 0 0-2.141l-9.995-9.995a1.513 1.513 0 0 0-2.142.002z" style="fill:#6d3e1d" transform="translate(-172.361 -3897.279)"/>
                            </g>
                        </g>
                        <g data-name="Group 2369">
                            <g data-name="Group 2368">
                                <path data-name="Path 946" d="m272.336 3988.31 3.744 3.744a1.612 1.612 0 0 0 2.391-.12 67.739 67.739 0 0 0 7.077-11.48 1.731 1.731 0 0 0-.387-1.907l-1.523-1.539a1.614 1.614 0 0 0-2.282 0l-9.02 9.02a1.614 1.614 0 0 0 0 2.282z" style="fill:#6d3e1d" transform="translate(-172.361 -3897.279)"/>
                            </g>
                        </g>
                        <g data-name="Group 2371">
                            <g data-name="Group 2370">
                                <path data-name="Path 947" d="m218.859 3912.229-2.1-2.1a1.516 1.516 0 0 0-1.733-.291 66.756 66.756 0 0 0-11.222 7.593 1.513 1.513 0 0 0-.113 2.243l3.857 3.858a1.514 1.514 0 0 0 2.141 0l9.166-9.166a1.513 1.513 0 0 0 .004-2.137z" style="fill:#6d3e1d" transform="translate(-172.361 -3897.279)"/>
                            </g>
                        </g>
                        <g data-name="Group 2373">
                            <g data-name="Group 2372">
                                <path data-name="Path 948" d="m284.39 3938.47.834-.835a1.515 1.515 0 0 0 .288-1.739 79.312 79.312 0 0 0-8.087-12.364 1.514 1.514 0 0 0-2.239-.107l-2.921 2.92a1.513 1.513 0 0 0 0 2.14l9.984 9.985a1.514 1.514 0 0 0 2.141 0z" style="fill:#6d3e1d" transform="translate(-172.361 -3897.279)"/>
                            </g>
                        </g>
                        <g data-name="Group 2375">
                            <g data-name="Group 2374">
                                <path data-name="Path 949" d="m203.92 3957.044-9.984-9.984a1.513 1.513 0 0 0-2.14 0l-6.5 6.5a1.519 1.519 0 0 0-.441.989 51.982 51.982 0 0 0-.02 5.456 1.524 1.524 0 0 0 .442 1l7.342 7.342a1.514 1.514 0 0 0 2.141 0l9.161-9.162a1.514 1.514 0 0 0-.001-2.141z" style="fill:#6d3e1d" transform="translate(-172.361 -3897.279)"/>
                            </g>
                        </g>
                        <g data-name="Group 2377">
                            <g data-name="Group 2376">
                                <path data-name="Path 950" d="m269.5 3923.577 3.556-3.557a1.513 1.513 0 0 0-.108-2.24 80.641 80.641 0 0 0-12.693-7.851 1.437 1.437 0 0 0-1.692.244l-1.362 1.362a1.369 1.369 0 0 0 .129 2.012l10.029 10.03a1.514 1.514 0 0 0 2.141 0z" style="fill:#6d3e1d" transform="translate(-172.361 -3897.279)"/>
                            </g>
                        </g>
                        <g data-name="Group 2379">
                            <g data-name="Group 2378" transform="translate(-172.361 -3897.279)">
                                <rect data-name="Rectangle 133" width="15.984" height="17.147" rx="1.614" transform="rotate(-45 4923.035 1676.787)" style="fill:#6d3e1d"/>
                            </g>
                        </g>
                        <g data-name="Group 2381">
                            <g data-name="Group 2380">
                                <path data-name="Path 951" d="m272.336 3958.433 9.888 9.889a1.614 1.614 0 0 0 2.282 0l6.1-6.188a1.619 1.619 0 0 0 .471-1.056 52.734 52.734 0 0 0-.066-6 1.618 1.618 0 0 0-.471-1.045l-6.9-6.9a1.614 1.614 0 0 0-2.282 0l-9.02 9.02a1.614 1.614 0 0 0-.002 2.28z" style="fill:#6d3e1d" transform="translate(-172.361 -3897.279)"/>
                            </g>
                        </g>
                        <g data-name="Group 2383">
                            <g data-name="Group 2382" transform="translate(-172.361 -3897.279)">
                                <rect data-name="Rectangle 134" width="15.984" height="17.147" rx="1.514" transform="rotate(-45 4908.096 1712.852)" style="fill:#6d3e1d"/>
                            </g>
                        </g>
                        <g data-name="Group 2385">
                            <g data-name="Group 2384">
                                <path data-name="Path 952" d="m236.541 3991.947-9.021 9.02a1.614 1.614 0 0 0 0 2.282l7.279 7.279a1.616 1.616 0 0 0 1.066.471 52.041 52.041 0 0 0 5.3-.015 1.619 1.619 0 0 0 1.057-.471l6.441-6.442a1.614 1.614 0 0 0 0-2.282l-9.842-9.842a1.612 1.612 0 0 0-2.28 0z" style="fill:#6d3e1d" transform="translate(-172.361 -3897.279)"/>
                            </g>
                        </g>
                        <g data-name="Group 2387">
                            <g data-name="Group 2386">
                                <path data-name="Path 953" d="m251.479 3977.008-8.974 8.975a1.669 1.669 0 0 0-.046 2.327l9.888 9.889a1.671 1.671 0 0 0 2.328-.046l8.975-8.975a1.614 1.614 0 0 0 0-2.282l-9.889-9.888a1.614 1.614 0 0 0-2.282 0z" style="fill:#6d3e1d" transform="translate(-172.361 -3897.279)"/>
                            </g>
                        </g>
                        <g data-name="Group 2389">
                            <g data-name="Group 2388" transform="translate(-172.361 -3897.279)">
                                <rect data-name="Rectangle 135" width="15.984" height="17.147" rx="1.514" transform="rotate(-45 4918.66 1738.353)" style="fill:#6d3e1d"/>
                            </g>
                        </g>
                        <g data-name="Group 2391">
                            <g data-name="Group 2390" transform="translate(-172.361 -3897.279)">
                                <rect data-name="Rectangle 136" width="15.984" height="17.147" rx="1.514" transform="rotate(-45 4893.158 1748.917)" style="fill:#6d3e1d"/>
                            </g>
                        </g>
                        <g data-name="Group 2393">
                            <g data-name="Group 2392" transform="translate(-172.361 -3897.279)">
                                <rect data-name="Rectangle 137" width="15.984" height="17.147" rx="1.514" transform="rotate(-45 4882.595 1723.414)" style="fill:#6d3e1d"/>
                            </g>
                        </g>
                        <g data-name="Group 2395">
                            <g data-name="Group 2394" transform="translate(-172.361 -3897.279)">
                                <rect data-name="Rectangle 138" width="15.984" height="17.147" rx="1.514" transform="rotate(-45 4846.53 1708.476)" style="fill:#6d3e1d"/>
                            </g>
                        </g>
                        <g data-name="Group 2397">
                            <g data-name="Group 2396">
                                <path data-name="Path 954" d="m233.651 3905.205-6.2 6.2a1.513 1.513 0 0 0 0 2.141l10.028 9.984a1.513 1.513 0 0 0 2.14 0l9.162-9.162a1.513 1.513 0 0 0 0-2.14l-7.051-7.008a1.524 1.524 0 0 0-.98-.441 51.9 51.9 0 0 0-6.11-.016 1.517 1.517 0 0 0-.989.442z" style="fill:#6d3e1d" transform="translate(-172.361 -3897.279)"/>
                            </g>
                        </g>
                        <g data-name="Group 2399">
                            <g data-name="Group 2398" transform="translate(-172.361 -3897.279)">
                                <rect data-name="Rectangle 139" width="15.984" height="17.147" rx="1.514" transform="rotate(-45 4886.97 1661.849)" style="fill:#6d3e1d"/>
                            </g>
                        </g>
                        <g data-name="Group 2401">
                            <g data-name="Group 2400" transform="translate(-172.361 -3897.279)">
                                <rect data-name="Rectangle 140" width="15.984" height="17.147" rx="1.514" transform="rotate(-45 4857.093 1733.978)" style="fill:#6d3e1d"/>
                            </g>
                        </g>
                        <g data-name="Group 2403">
                            <g data-name="Group 2402" transform="translate(-172.361 -3897.279)">
                                <rect data-name="Rectangle 141" width="15.984" height="17.147" rx="1.514" transform="rotate(-45 4872.032 1697.913)" style="fill:#6d3e1d"/>
                            </g>
                        </g>
                        <g data-name="Group 2405">
                            <g data-name="Group 2404" transform="translate(-172.361 -3897.279)">
                                <rect data-name="Rectangle 142" width="15.984" height="17.147" rx="1.514" transform="rotate(-45 4897.533 1687.35)" style="fill:#6d3e1d"/>
                            </g>
                        </g>
                        <g data-name="Group 2407">
                            <g data-name="Group 2406" transform="translate(-172.361 -3897.279)">
                                <rect data-name="Rectangle 143" width="15.984" height="17.147" rx="1.514" transform="rotate(-45 4861.468 1672.41)" style="fill:#6d3e1d"/>
                            </g>
                        </g>
                    </g>
                    <g data-name="Group 2457">
                        <g data-name="Group 2410">
                            <g data-name="Group 2409">
                                <path data-name="Path 955" d="m258.277 4004.134 1.242 1.243a1.614 1.614 0 0 0 1.86.3 51.4 51.4 0 0 0 11.151-7.523l-3-3a1.612 1.612 0 0 0-2.282 0z" style="fill:#995b30" transform="translate(-172.361 -3897.279)"/>
                            </g>
                        </g>
                        <g data-name="Group 2412">
                            <g data-name="Group 2411">
                                <path data-name="Path 956" d="m207.567 3995.09-3.193 3.192a51.36 51.36 0 0 0 11.257 7.521 1.512 1.512 0 0 0 1.739-.288l1.381-1.381-9.044-9.044a1.513 1.513 0 0 0-2.14 0z" style="fill:#995b30" transform="translate(-172.361 -3897.279)"/>
                            </g>
                        </g>
                        <g data-name="Group 2414">
                            <g data-name="Group 2413">
                                <path data-name="Path 957" d="m203.813 3929.441-2.947-2.947a1.515 1.515 0 0 0-2.236.1 51.327 51.327 0 0 0-6.951 10.94l.949.948a1.515 1.515 0 0 0 2.141 0z" style="fill:#995b30" transform="translate(-172.361 -3897.279)"/>
                            </g>
                        </g>
                        <g data-name="Group 2416">
                            <g data-name="Group 2415">
                                <path data-name="Path 958" d="m192.628 3980.151-1.056 1.056a51.3 51.3 0 0 0 6.9 10.978 1.514 1.514 0 0 0 2.24.109l3.1-3.1-9.044-9.044a1.515 1.515 0 0 0-2.14.001z" style="fill:#995b30" transform="translate(-172.361 -3897.279)"/>
                            </g>
                        </g>
                        <g data-name="Group 2418">
                            <g data-name="Group 2417">
                                <path data-name="Path 959" d="m273.215 3989.2 2.875 2.875a1.612 1.612 0 0 0 2.391-.12 51.311 51.311 0 0 0 6.794-10.924l-.8-.8a1.614 1.614 0 0 0-2.282 0z" style="fill:#995b30" transform="translate(-172.361 -3897.279)"/>
                            </g>
                        </g>
                        <g data-name="Group 2420">
                            <g data-name="Group 2419">
                                <path data-name="Path 960" d="m218.751 3914.5-1.156-1.157a1.514 1.514 0 0 0-1.732-.291 51.386 51.386 0 0 0-11.31 7.478l3.014 3.014a1.513 1.513 0 0 0 2.14 0z" style="fill:#995b30" transform="translate(-172.361 -3897.279)"/>
                            </g>
                        </g>
                        <g data-name="Group 2422">
                            <g data-name="Group 2421">
                                <path data-name="Path 961" d="m284.412 3938.474.757-.758a51.3 51.3 0 0 0-6.912-10.97 1.514 1.514 0 0 0-2.239-.108l-2.8 2.8 9.033 9.033a1.531 1.531 0 0 0 2.161.003z" style="fill:#995b30" transform="translate(-172.361 -3897.279)"/>
                            </g>
                        </g>
                        <g data-name="Group 2424">
                            <g data-name="Group 2423">
                                <path data-name="Path 962" d="m203.813 3959.318-9.044-9.044a1.515 1.515 0 0 0-2.141 0l-5.312 5.312a1.521 1.521 0 0 0-.442.99 51.883 51.883 0 0 0 .013 6.045l5.741 5.741a1.512 1.512 0 0 0 2.141 0z" style="fill:#995b30" transform="translate(-172.361 -3897.279)"/>
                            </g>
                        </g>
                        <g data-name="Group 2426">
                            <g data-name="Group 2425">
                                <path data-name="Path 963" d="m269.461 3923.547 2.891-2.891a51.405 51.405 0 0 0-11.267-7.513 1.517 1.517 0 0 0-1.738.289l-1.07 1.071 9.044 9.044a1.513 1.513 0 0 0 2.14 0z" style="fill:#995b30" transform="translate(-172.361 -3897.279)"/>
                            </g>
                        </g>
                        <g data-name="Group 2428">
                            <g data-name="Group 2427">
                                <path data-name="Path 964" d="m267.25 3965.283-8.973 8.974 8.973 8.973a1.614 1.614 0 0 0 2.282 0l8.974-8.973-8.974-8.974a1.614 1.614 0 0 0-2.282 0z" style="fill:#995b30" transform="translate(-172.361 -3897.279)"/>
                            </g>
                        </g>
                        <g data-name="Group 2430">
                            <g data-name="Group 2429">
                                <path data-name="Path 965" d="m273.215 3959.318 8.974 8.974a1.614 1.614 0 0 0 2.282 0l4.954-4.955a1.614 1.614 0 0 0 .471-1.055 51.878 51.878 0 0 0-.062-6.574l-5.363-5.363a1.614 1.614 0 0 0-2.282 0z" style="fill:#995b30" transform="translate(-172.361 -3897.279)"/>
                            </g>
                        </g>
                        <g data-name="Group 2432">
                            <g data-name="Group 2431">
                                <path data-name="Path 966" d="m239.584 3983.3 9.044-9.044-9.044-9.044a1.513 1.513 0 0 0-2.14 0l-9.044 9.044 9.044 9.044a1.513 1.513 0 0 0 2.14 0z" style="fill:#995b30" transform="translate(-172.361 -3897.279)"/>
                            </g>
                        </g>
                        <g data-name="Group 2434">
                            <g data-name="Group 2433">
                                <path data-name="Path 967" d="m237.373 3995.161-8.973 8.973 6.409 6.409a1.615 1.615 0 0 0 1.065.472 51.78 51.78 0 0 0 5.3-.016 1.618 1.618 0 0 0 1.057-.47l6.394-6.4-8.973-8.973a1.612 1.612 0 0 0-2.279.005z" style="fill:#995b30" transform="translate(-172.361 -3897.279)"/>
                            </g>
                        </g>
                        <g data-name="Group 2436">
                            <g data-name="Group 2435">
                                <path data-name="Path 968" d="m252.312 3980.222-8.974 8.973 8.974 8.974a1.614 1.614 0 0 0 2.282 0l8.973-8.974-8.973-8.973a1.614 1.614 0 0 0-2.282 0z" style="fill:#995b30" transform="translate(-172.361 -3897.279)"/>
                            </g>
                        </g>
                        <g data-name="Group 2438">
                            <g data-name="Group 2437">
                                <path data-name="Path 969" d="m224.646 3998.239 9.044-9.044-9.044-9.044a1.515 1.515 0 0 0-2.141 0l-9.044 9.044 9.044 9.044a1.512 1.512 0 0 0 2.141 0z" style="fill:#995b30" transform="translate(-172.361 -3897.279)"/>
                            </g>
                        </g>
                        <g data-name="Group 2440">
                            <g data-name="Group 2439">
                                <path data-name="Path 970" d="m207.567 3965.213-9.045 9.044 9.045 9.044a1.513 1.513 0 0 0 2.14 0l9.044-9.044-9.044-9.044a1.513 1.513 0 0 0-2.14 0z" style="fill:#995b30" transform="translate(-172.361 -3897.279)"/>
                            </g>
                        </g>
                        <g data-name="Group 2442">
                            <g data-name="Group 2441">
                                <path data-name="Path 971" d="m222.505 3950.274-9.044 9.044 9.044 9.044a1.512 1.512 0 0 0 2.141 0l9.044-9.044-9.044-9.044a1.515 1.515 0 0 0-2.141 0z" style="fill:#995b30" transform="translate(-172.361 -3897.279)"/>
                            </g>
                        </g>
                        <g data-name="Group 2444">
                            <g data-name="Group 2443">
                                <path data-name="Path 972" d="m224.646 3938.485 9.044-9.044-9.044-9.044a1.514 1.514 0 0 0-2.141 0l-9.044 9.044 9.044 9.044a1.515 1.515 0 0 0 2.141 0z" style="fill:#995b30" transform="translate(-172.361 -3897.279)"/>
                            </g>
                        </g>
                        <g data-name="Group 2446">
                            <g data-name="Group 2445">
                                <path data-name="Path 973" d="m234.483 3908.419-6.083 6.081 9.044 9.044a1.513 1.513 0 0 0 2.14 0l9.044-9.044-6.067-6.068a1.523 1.523 0 0 0-.98-.441 51.9 51.9 0 0 0-6.11-.016 1.522 1.522 0 0 0-.988.444z" style="fill:#995b30" transform="translate(-172.361 -3897.279)"/>
                            </g>
                        </g>
                        <g data-name="Group 2448">
                            <g data-name="Group 2447">
                                <path data-name="Path 974" d="m269.461 3953.424 9.044-9.044-9.044-9.044a1.513 1.513 0 0 0-2.14 0l-9.044 9.044 9.044 9.044a1.513 1.513 0 0 0 2.14 0z" style="fill:#995b30" transform="translate(-172.361 -3897.279)"/>
                            </g>
                        </g>
                        <g data-name="Group 2450">
                            <g data-name="Group 2449">
                                <path data-name="Path 975" d="m209.707 3953.424 9.044-9.044-9.044-9.044a1.513 1.513 0 0 0-2.14 0l-9.045 9.044 9.045 9.044a1.513 1.513 0 0 0 2.14 0z" style="fill:#995b30" transform="translate(-172.361 -3897.279)"/>
                            </g>
                        </g>
                        <g data-name="Group 2452">
                            <g data-name="Group 2451">
                                <path data-name="Path 976" d="m237.444 3935.336-9.044 9.044 9.044 9.044a1.513 1.513 0 0 0 2.14 0l9.044-9.044-9.044-9.044a1.513 1.513 0 0 0-2.14 0z" style="fill:#995b30" transform="translate(-172.361 -3897.279)"/>
                            </g>
                        </g>
                        <g data-name="Group 2454">
                            <g data-name="Group 2453">
                                <path data-name="Path 977" d="m254.523 3968.362 9.044-9.044-9.044-9.044a1.515 1.515 0 0 0-2.141 0l-9.044 9.044 9.044 9.044a1.512 1.512 0 0 0 2.141 0z" style="fill:#995b30" transform="translate(-172.361 -3897.279)"/>
                            </g>
                        </g>
                        <g data-name="Group 2456">
                            <g data-name="Group 2455">
                                <path data-name="Path 978" d="m252.382 3920.4-9.044 9.044 9.044 9.044a1.515 1.515 0 0 0 2.141 0l9.044-9.044-9.044-9.044a1.514 1.514 0 0 0-2.141 0z" style="fill:#995b30" transform="translate(-172.361 -3897.279)"/>
                            </g>
                        </g>
                    </g>
                    <g data-name="Group 2462">
                        <g data-name="Group 2459">
                            <g data-name="Group 2458">
                                <path data-name="Path 979" d="m218.768 3976.307-8.076 8.076a2.953 2.953 0 0 1-4.173 0l-8.3-8.3a.614.614 0 1 1 .868-.868l8.3 8.3a1.725 1.725 0 0 0 2.437 0l8.076-8.076a.614.614 0 1 1 .868.868z" style="fill:#f2a266" transform="translate(-172.361 -3897.279)"/>
                            </g>
                        </g>
                        <g data-name="Group 2461">
                            <g data-name="Group 2460">
                                <path data-name="Path 980" d="m233.725 3991.264-8.076 8.076a2.953 2.953 0 0 1-4.173 0l-8.3-8.3a.614.614 0 0 1 .868-.869l8.3 8.3a1.724 1.724 0 0 0 2.436 0l8.076-8.076a.614.614 0 0 1 .868.868z" style="fill:#f2a266" transform="translate(-172.361 -3897.279)"/>
                            </g>
                        </g>
                    </g>
                    <g data-name="Group 2464">
                        <g data-name="Group 2463">
                            <path data-name="Path 981" d="m233.715 3961.36-8.076 8.076a2.953 2.953 0 0 1-4.173 0l-8.3-8.3a.614.614 0 0 1 .868-.869l8.3 8.3a1.725 1.725 0 0 0 2.437 0l8.076-8.076a.614.614 0 1 1 .868.868z" style="fill:#f2a266" transform="translate(-172.361 -3897.279)"/>
                        </g>
                    </g>
                    <g data-name="Group 2466">
                        <g data-name="Group 2465">
                            <path data-name="Path 982" d="m248.672 3976.317-8.076 8.077a2.955 2.955 0 0 1-4.173 0l-8.3-8.3a.614.614 0 0 1 .868-.868l8.3 8.3a1.727 1.727 0 0 0 2.437 0l8.076-8.077a.614.614 0 0 1 .868.868z" style="fill:#f2a266" transform="translate(-172.361 -3897.279)"/>
                        </g>
                    </g>
                    <g data-name="Group 2468">
                        <g data-name="Group 2467">
                            <path data-name="Path 983" d="m248.643 3946.432-8.076 8.076a2.955 2.955 0 0 1-4.173 0l-8.3-8.3a.614.614 0 0 1 .868-.868l8.3 8.3a1.724 1.724 0 0 0 2.436 0l8.076-8.076a.614.614 0 1 1 .868.868z" style="fill:#f2a266" transform="translate(-172.361 -3897.279)"/>
                        </g>
                    </g>
                    <g data-name="Group 2470">
                        <g data-name="Group 2469">
                            <path data-name="Path 984" d="m218.758 3946.4-8.076 8.076a2.953 2.953 0 0 1-4.173 0l-8.3-8.3a.614.614 0 0 1 .868-.868l8.3 8.3a1.724 1.724 0 0 0 2.436 0l8.077-8.076a.614.614 0 0 1 .868.868z" style="fill:#f2a266" transform="translate(-172.361 -3897.279)"/>
                        </g>
                    </g>
                    <g data-name="Group 2472">
                        <g data-name="Group 2471">
                            <path data-name="Path 985" d="m203.811 3961.35-8.076 8.076a2.955 2.955 0 0 1-4.173 0l-4.186-4.186a.614.614 0 0 1 .868-.868l4.186 4.186a1.725 1.725 0 0 0 2.437 0l8.076-8.076a.614.614 0 0 1 .868.868z" style="fill:#f2a266" transform="translate(-172.361 -3897.279)"/>
                        </g>
                    </g>
                    <g data-name="Group 2474">
                        <g data-name="Group 2473">
                            <path data-name="Path 986" d="m233.686 3931.475-8.076 8.076a2.955 2.955 0 0 1-4.173 0l-8.3-8.3a.614.614 0 1 1 .868-.868l8.3 8.3a1.727 1.727 0 0 0 2.437 0l8.076-8.077a.614.614 0 0 1 .868.869z" style="fill:#f2a266" transform="translate(-172.361 -3897.279)"/>
                        </g>
                    </g>
                    <g data-name="Group 2476">
                        <g data-name="Group 2475">
                            <path data-name="Path 987" d="m203.9 3931.455-8.076 8.076a2.953 2.953 0 0 1-4.173 0l-.074-.074a.614.614 0 0 1 .868-.868l.074.074a1.725 1.725 0 0 0 2.437 0l8.076-8.076a.614.614 0 0 1 .868.868z" style="fill:#f2a266" transform="translate(-172.361 -3897.279)"/>
                        </g>
                    </g>
                    <g data-name="Group 2478">
                        <g data-name="Group 2477">
                            <path data-name="Path 988" d="m218.83 3916.527-8.076 8.076a2.955 2.955 0 0 1-4.173 0l-2.222-2.221a.614.614 0 0 1 .869-.868l2.221 2.221a1.724 1.724 0 0 0 2.436 0l8.077-8.076a.614.614 0 0 1 .868.868z" style="fill:#f2a266" transform="translate(-172.361 -3897.279)"/>
                        </g>
                    </g>
                    <g data-name="Group 2480">
                        <g data-name="Group 2479">
                            <path data-name="Path 989" d="m248.633 3916.528-8.076 8.076a2.955 2.955 0 0 1-4.173 0l-8.3-8.3a.614.614 0 0 1 .868-.868l8.3 8.3a1.725 1.725 0 0 0 2.437 0l8.076-8.076a.614.614 0 0 1 .868.868z" style="fill:#f2a266" transform="translate(-172.361 -3897.279)"/>
                        </g>
                    </g>
                    <g data-name="Group 2482">
                        <g data-name="Group 2481">
                            <path data-name="Path 990" d="m263.6 3961.389-8.077 8.076a2.952 2.952 0 0 1-4.172 0l-8.3-8.3a.614.614 0 0 1 .868-.868l8.3 8.3a1.724 1.724 0 0 0 2.436 0l8.077-8.076a.614.614 0 0 1 .868.868z" style="fill:#f2a266" transform="translate(-172.361 -3897.279)"/>
                        </g>
                    </g>
                    <g data-name="Group 2484">
                        <g data-name="Group 2483">
                            <path data-name="Path 991" d="m263.676 3991.322-8.076 8.078a2.955 2.955 0 0 1-4.173 0l-8.3-8.3a.614.614 0 1 1 .868-.868l8.3 8.3a1.727 1.727 0 0 0 2.437 0l8.076-8.077a.614.614 0 0 1 .868.869z" style="fill:#f2a266" transform="translate(-172.361 -3897.279)"/>
                        </g>
                    </g>
                    <g data-name="Group 2486">
                        <g data-name="Group 2485">
                            <path data-name="Path 992" d="m278.605 3976.393-8.076 8.076a2.953 2.953 0 0 1-4.173 0l-8.3-8.3a.614.614 0 0 1 .868-.868l8.3 8.3a1.724 1.724 0 0 0 2.436 0l8.077-8.076a.614.614 0 0 1 .868.868z" style="fill:#f2a266" transform="translate(-172.361 -3897.279)"/>
                        </g>
                    </g>
                    <g data-name="Group 2488">
                        <g data-name="Group 2487">
                            <path data-name="Path 993" d="m289.759 3965.238-4.329 4.33a2.953 2.953 0 0 1-4.173 0l-8.3-8.3a.614.614 0 0 1 .868-.868l8.3 8.3a1.725 1.725 0 0 0 2.437 0l4.329-4.33a.614.614 0 0 1 .868.868z" style="fill:#f2a266" transform="translate(-172.361 -3897.279)"/>
                        </g>
                    </g>
                    <g data-name="Group 2493">
                        <g data-name="Group 2490">
                            <g data-name="Group 2489">
                                <path data-name="Path 994" d="m263.545 3931.531-8.077 8.076a2.954 2.954 0 0 1-4.172 0l-8.3-8.3a.614.614 0 0 1 .868-.868l8.3 8.3a1.724 1.724 0 0 0 2.436 0l8.076-8.076a.614.614 0 0 1 .869.868z" style="fill:#f2a266" transform="translate(-172.361 -3897.279)"/>
                            </g>
                        </g>
                        <g data-name="Group 2492">
                            <g data-name="Group 2491">
                                <path data-name="Path 995" d="m278.5 3946.488-8.076 8.076a2.953 2.953 0 0 1-4.173 0l-8.3-8.3a.614.614 0 0 1 .868-.868l8.3 8.3a1.724 1.724 0 0 0 2.436 0l8.077-8.076a.614.614 0 1 1 .868.868z" style="fill:#f2a266" transform="translate(-172.361 -3897.279)"/>
                            </g>
                        </g>
                    </g>
                    <g data-name="Group 2498">
                        <g data-name="Group 2495">
                            <g data-name="Group 2494">
                                <path data-name="Path 996" d="m272.516 3922.559-2.045 2.045a2.953 2.953 0 0 1-4.173 0l-8.3-8.3a.614.614 0 0 1 .868-.868l8.3 8.3a1.725 1.725 0 0 0 2.437 0l2.045-2.045a.614.614 0 1 1 .868.868z" style="fill:#f2a266" transform="translate(-172.361 -3897.279)"/>
                            </g>
                        </g>
                        <g data-name="Group 2497">
                            <g data-name="Group 2496">
                                <path data-name="Path 997" d="m285.428 3939.562-.011.01-.009.009a2.955 2.955 0 0 1-4.153-.019l-8.3-8.3a.614.614 0 0 1 .869-.869l8.3 8.3a1.725 1.725 0 0 0 2.437 0 .614.614 0 0 1 .868.869z" style="fill:#f2a266" transform="translate(-172.361 -3897.279)"/>
                            </g>
                        </g>
                    </g>
                    <g data-name="Group 2500">
                        <g data-name="Group 2499">
                            <path data-name="Path 998" d="m272.505 4000.02-.047.042a58.637 58.637 0 0 1-10.239 6.938 3.2 3.2 0 0 1-3.8-.616l-.245-.245a.614.614 0 0 1 .868-.868l.245.245a1.979 1.979 0 0 0 2.349.406 57.481 57.481 0 0 0 10.051-6.812.614.614 0 0 1 .823.91z" style="fill:#f2a266" transform="translate(-172.361 -3897.279)"/>
                        </g>
                    </g>
                    <g data-name="Group 2502">
                        <g data-name="Group 2501">
                            <path data-name="Path 999" d="M279.386 3993.127a2.967 2.967 0 0 1-1.866.853 3.135 3.135 0 0 1-2.471-.909l-1.836-1.836a.614.614 0 1 1 .868-.868l1.836 1.836a1.909 1.909 0 0 0 1.505.553 1.7 1.7 0 0 0 1.267-.7 63.521 63.521 0 0 0 6.059-9.595.614.614 0 1 1 1.089.567 64.591 64.591 0 0 1-6.153 9.748 2.845 2.845 0 0 1-.298.351z" style="fill:#f2a266" transform="translate(-172.361 -3897.279)"/>
                        </g>
                    </g>
                    <g data-name="Group 2504">
                        <g data-name="Group 2503">
                            <path data-name="Path 1000" d="m219.445 4005.476-1 1a3.116 3.116 0 0 1-3.621.582 55.187 55.187 0 0 1-11.47-7.767.614.614 0 1 1 .81-.922 54.04 54.04 0 0 0 11.215 7.594 1.893 1.893 0 0 0 2.2-.355l1-1a.614.614 0 1 1 .868.868z" style="fill:#f2a266" transform="translate(-172.361 -3897.279)"/>
                        </g>
                    </g>
                    <g data-name="Group 2506">
                        <g data-name="Group 2505">
                            <path data-name="Path 1001" d="m204.36 3990.751-2.523 2.524a3.187 3.187 0 0 1-4.757-.276 55.147 55.147 0 0 1-6.7-10.9.614.614 0 1 1 1.114-.517 53.892 53.892 0 0 0 6.549 10.657 1.962 1.962 0 0 0 2.925.167l2.523-2.524a.614.614 0 1 1 .868.868z" style="fill:#f2a266" transform="translate(-172.361 -3897.279)"/>
                        </g>
                    </g>
                    <g data-name="Group 2508">
                        <g data-name="Group 2507">
                            <path data-name="Path 1002" d="m248.571 4006.315-5.245 5.246a2.96 2.96 0 0 1-1.944.865 59.48 59.48 0 0 1-5.634.017 2.95 2.95 0 0 1-1.96-.867l-5.261-5.261a.614.614 0 0 1 .868-.868l5.261 5.261a1.722 1.722 0 0 0 1.147.508c1.829.082 3.685.077 5.517-.016a1.727 1.727 0 0 0 1.137-.507l5.246-5.246a.614.614 0 0 1 .868.868z" style="fill:#f2a266" transform="translate(-172.361 -3897.279)"/>
                        </g>
                    </g>
                </g>
            </g>
        </g>
    </g>
</svg>
