<svg xmlns="http://www.w3.org/2000/svg" width="126.393" height="126.393" viewBox="0 0 126.393 126.393">
    <g data-name="Group 2199">
        <g data-name="Group 2198">
            <g data-name="Group 2042">
                <g data-name="Group 1889">
                    <g data-name="Group 1888">
                        <path data-name="Path 608" d="m273.584 3754.4 6.054-6.054-83.278-83.279-6.054 6.055c-21.966 21.965-21.13 58.415 1.867 81.411s59.445 23.833 81.411 1.867" style="fill:#5b3a00" transform="translate(-172.361 -3645.954)"/>
                        <path data-name="Path 609" d="m282.47 3748.348-7.47 7.47a55.751 55.751 0 0 1-19.448 12.661 58.009 58.009 0 0 1-22.333 3.852 60.9 60.9 0 0 1-22.495-4.871 63.641 63.641 0 0 1-33.477-33.476 60.915 60.915 0 0 1-4.87-22.495 57.97 57.97 0 0 1 3.852-22.333 55.721 55.721 0 0 1 12.661-19.448l7.47-7.47zm-90.748-75.809a51.754 51.754 0 0 0-11.758 18.059 53.993 53.993 0 0 0-3.584 20.8 56.913 56.913 0 0 0 4.553 21.023 59.636 59.636 0 0 0 31.355 31.355 56.944 56.944 0 0 0 21.023 4.553 54 54 0 0 0 20.8-3.585 51.734 51.734 0 0 0 18.059-11.757l4.639-4.638-80.449-80.449z" style="fill:#5b3a00" transform="translate(-172.361 -3645.954)"/>
                    </g>
                </g>
                <g data-name="Group 1891">
                    <g data-name="Group 1890" transform="translate(-172.361 -3645.954)">
                        <circle data-name="Ellipse 113" cx="58.887" cy="58.887" r="58.887" transform="translate(178.979 3647.956)" style="fill:#5b3a00"/>
                        <path data-name="Path 610" d="M280.92 3749.9a60.707 60.707 0 1 1 13.375-20.143 60.521 60.521 0 0 1-13.375 20.143zm-83.278-83.278a56.7 56.7 0 1 0 18.816-12.5 56.531 56.531 0 0 0-18.816 12.497z" style="fill:#5b3a00"/>
                    </g>
                </g>
                <g data-name="Group 2041">
                    <g data-name="Group 1940">
                        <g data-name="Group 1893">
                            <g data-name="Group 1892">
                                <path data-name="Path 611" d="m257.353 3751.968 2.112 2.112a1.613 1.613 0 0 0 1.859.3 67.219 67.219 0 0 0 11.086-7.471 1.612 1.612 0 0 0 .11-2.383l-3.865-3.865a1.614 1.614 0 0 0-2.282 0l-9.02 9.02a1.612 1.612 0 0 0 0 2.287z" style="fill:#5b3a00" transform="translate(-172.361 -3645.954)"/>
                                <path data-name="Path 612" d="M273.937 3748.228c-.08.081-.164.157-.252.23a69.209 69.209 0 0 1-11.469 7.719 3.612 3.612 0 0 1-4.167-.681l-2.112-2.112a3.62 3.62 0 0 1 0-5.114l9.02-9.02a3.62 3.62 0 0 1 5.114 0l3.865 3.865a3.616 3.616 0 0 1 0 5.113zm-13.255 4.238a66.68 66.68 0 0 0 10.119-6.822l-3.287-3.288-8.471 8.471z" style="fill:#5b3a00" transform="translate(-172.361 -3645.954)"/>
                            </g>
                        </g>
                        <g data-name="Group 1895">
                            <g data-name="Group 1894">
                                <path data-name="Path 613" d="m206.689 3740.595-3.4 3.4a1.514 1.514 0 0 0 .108 2.239 78.965 78.965 0 0 0 12.181 8.271 1.433 1.433 0 0 0 1.693-.243l1.545-1.544a1.514 1.514 0 0 0 0-2.141l-9.984-9.984a1.514 1.514 0 0 0-2.143.002z" style="fill:#5b3a00" transform="translate(-172.361 -3645.954)"/>
                                <path data-name="Path 614" d="m220.23 3754.135-1.545 1.545a3.429 3.429 0 0 1-3.992.624 79.971 79.971 0 0 1-12.571-8.522 3.515 3.515 0 0 1-.251-5.2l3.4-3.4a3.521 3.521 0 0 1 4.972 0l9.984 9.984a3.521 3.521 0 0 1 .003 4.969zm-4.082-1.581.9-.905-9.293-9.293-2.675 2.675a78.029 78.029 0 0 0 11.068 7.523z" style="fill:#5b3a00" transform="translate(-172.361 -3645.954)"/>
                            </g>
                        </g>
                        <g data-name="Group 1897">
                            <g data-name="Group 1896">
                                <path data-name="Path 615" d="m203.875 3675.886-3.887-3.886a1.513 1.513 0 0 0-2.235.1 66.788 66.788 0 0 0-7.664 11.144 1.514 1.514 0 0 0 .286 1.744l2.2 2.2a1.514 1.514 0 0 0 2.141 0l9.161-9.162a1.513 1.513 0 0 0-.002-2.14z" style="fill:#5b3a00" transform="translate(-172.361 -3645.954)"/>
                                <path data-name="Path 616" d="m205.291 3679.443-9.162 9.161a3.519 3.519 0 0 1-4.972 0l-2.2-2.2a3.513 3.513 0 0 1-.663-4.05 63.4 63.4 0 0 1 7.916-11.532 3.516 3.516 0 0 1 5.192-.241l3.887 3.888a3.52 3.52 0 0 1 .002 4.974zm-11.648 5.985 8.471-8.471-3.161-3.162a65.518 65.518 0 0 0-6.913 10.029z" style="fill:#5b3a00" transform="translate(-172.361 -3645.954)"/>
                            </g>
                        </g>
                        <g data-name="Group 1899">
                            <g data-name="Group 1898">
                                <path data-name="Path 617" d="m191.751 3725.656-.8.8a1.515 1.515 0 0 0-.289 1.738 80.055 80.055 0 0 0 7.816 12.658 1.513 1.513 0 0 0 2.24.108l3.17-3.17a1.514 1.514 0 0 0 0-2.141l-9.995-9.995a1.513 1.513 0 0 0-2.142.002z" style="fill:#5b3a00" transform="translate(-172.361 -3645.954)"/>
                                <path data-name="Path 618" d="m205.3 3739.208-3.17 3.17a3.516 3.516 0 0 1-5.2-.253 81.979 81.979 0 0 1-8.067-13.048 3.517 3.517 0 0 1 .671-4.034l.8-.8a3.52 3.52 0 0 1 4.972 0l9.995 10a3.519 3.519 0 0 1-.001 4.965zm-5.616-.047 2.439-2.439-9.3-9.3-.209.209a81.468 81.468 0 0 0 7.072 11.53z" style="fill:#5b3a00" transform="translate(-172.361 -3645.954)"/>
                            </g>
                        </g>
                        <g data-name="Group 1901">
                            <g data-name="Group 1900">
                                <path data-name="Path 619" d="m272.291 3737.029 3.744 3.744a1.612 1.612 0 0 0 2.391-.12 67.737 67.737 0 0 0 7.077-11.48 1.731 1.731 0 0 0-.387-1.907l-1.523-1.539a1.614 1.614 0 0 0-2.282 0l-9.02 9.02a1.614 1.614 0 0 0 0 2.282z" style="fill:#5b3a00" transform="translate(-172.361 -3645.954)"/>
                                <path data-name="Path 620" d="M279.732 3742.191a3.616 3.616 0 0 1-5.113 0l-3.744-3.744a3.621 3.621 0 0 1 0-5.113l9.021-9.021a3.62 3.62 0 0 1 5.113 0l.008.007 1.519 1.536a3.728 3.728 0 0 1 .767 4.194 69.329 69.329 0 0 1-7.322 11.866q-.118.143-.249.275zm-5.751-6.3 3.163 3.163a67.5 67.5 0 0 0 6.432-10.5l-1.125-1.137z" style="fill:#5b3a00" transform="translate(-172.361 -3645.954)"/>
                            </g>
                        </g>
                        <g data-name="Group 1903">
                            <g data-name="Group 1902">
                                <path data-name="Path 621" d="m218.814 3660.948-2.1-2.1a1.514 1.514 0 0 0-1.733-.292 66.756 66.756 0 0 0-11.222 7.593 1.514 1.514 0 0 0-.113 2.244l3.858 3.857a1.513 1.513 0 0 0 2.14 0l9.166-9.166a1.513 1.513 0 0 0 .004-2.136z" style="fill:#5b3a00" transform="translate(-172.361 -3645.954)"/>
                                <path data-name="Path 622" d="m220.23 3664.5-9.166 9.166a3.519 3.519 0 0 1-4.972 0l-3.858-3.858a3.517 3.517 0 0 1 .264-5.211 70.92 70.92 0 0 1 11.614-7.842 3.516 3.516 0 0 1 4.021.677l2.1 2.1a3.521 3.521 0 0 1-.003 4.968zm-11.652 5.989 8.475-8.475-1.5-1.5a65.719 65.719 0 0 0-10.1 6.849z" style="fill:#5b3a00" transform="translate(-172.361 -3645.954)"/>
                            </g>
                        </g>
                        <g data-name="Group 1905">
                            <g data-name="Group 1904">
                                <path data-name="Path 623" d="m284.345 3687.189.834-.834a1.513 1.513 0 0 0 .288-1.739 79.275 79.275 0 0 0-8.087-12.365 1.514 1.514 0 0 0-2.239-.107l-2.921 2.92a1.514 1.514 0 0 0 0 2.141l9.984 9.984a1.514 1.514 0 0 0 2.141 0z" style="fill:#5b3a00" transform="translate(-172.361 -3645.954)"/>
                                <path data-name="Path 624" d="m286.6 3687.77-.834.834a3.519 3.519 0 0 1-4.972 0l-9.984-9.984a3.52 3.52 0 0 1 0-4.972l2.92-2.92a3.515 3.515 0 0 1 5.2.251 80.773 80.773 0 0 1 8.339 12.754 3.515 3.515 0 0 1-.669 4.037zm-3.32-2.342.24-.241a79.273 79.273 0 0 0-7.342-11.245l-2.192 2.192z" style="fill:#5b3a00" transform="translate(-172.361 -3645.954)"/>
                            </g>
                        </g>
                        <g data-name="Group 1907">
                            <g data-name="Group 1906">
                                <path data-name="Path 625" d="m203.875 3705.763-9.984-9.984a1.513 1.513 0 0 0-2.14 0l-6.5 6.5a1.518 1.518 0 0 0-.442.989 51.967 51.967 0 0 0-.02 5.455 1.525 1.525 0 0 0 .442 1l7.342 7.342a1.514 1.514 0 0 0 2.141 0l9.161-9.162a1.513 1.513 0 0 0 0-2.14z" style="fill:#5b3a00" transform="translate(-172.361 -3645.954)"/>
                                <path data-name="Path 626" d="m205.291 3709.32-9.162 9.162a3.52 3.52 0 0 1-4.971 0l-7.342-7.342a3.513 3.513 0 0 1-1.026-2.317 53.837 53.837 0 0 1 .02-5.667 3.518 3.518 0 0 1 1.025-2.292l6.5-6.5a3.519 3.519 0 0 1 4.972 0l9.984 9.984a3.52 3.52 0 0 1 0 4.972zm-11.648 5.985 8.471-8.471-9.293-9.294-6.023 6.023a50.234 50.234 0 0 0-.018 4.878z" style="fill:#5b3a00" transform="translate(-172.361 -3645.954)"/>
                            </g>
                        </g>
                        <g data-name="Group 1909">
                            <g data-name="Group 1908">
                                <path data-name="Path 627" d="m269.452 3672.3 3.557-3.557a1.513 1.513 0 0 0-.109-2.239 80.514 80.514 0 0 0-12.693-7.851 1.435 1.435 0 0 0-1.692.243l-1.362 1.362a1.369 1.369 0 0 0 .129 2.012l10.03 10.03a1.513 1.513 0 0 0 2.14 0z" style="fill:#5b3a00" transform="translate(-172.361 -3645.954)"/>
                                <path data-name="Path 628" d="m274.424 3670.155-3.556 3.556a3.519 3.519 0 0 1-4.972 0l-10.03-10.029a3.353 3.353 0 0 1-.129-4.843l1.363-1.363a3.427 3.427 0 0 1 3.988-.625 82.06 82.06 0 0 1 13.083 8.1 3.515 3.515 0 0 1 .253 5.2zm-6.042.38 2.826-2.826a81.634 81.634 0 0 0-11.57-7.108l-.6.595z" style="fill:#5b3a00" transform="translate(-172.361 -3645.954)"/>
                            </g>
                        </g>
                        <g data-name="Group 1911">
                            <g data-name="Group 1910" transform="translate(-172.361 -3645.954)">
                                <rect data-name="Rectangle 99" width="15.984" height="17.147" rx="1.614" transform="rotate(-45 4619.69 1551.201)" style="fill:#5b3a00"/>
                                <path data-name="Path 629" d="m279.913 3724.329-9.02 9.02a3.619 3.619 0 0 1-5.113 0l-9.843-9.842a3.62 3.62 0 0 1 0-5.114l9.02-9.02a3.619 3.619 0 0 1 5.113 0l9.843 9.843a3.619 3.619 0 0 1 0 5.113zm-11.577 5.914 8.471-8.471-9.293-9.293-8.471 8.471z" style="fill:#5b3a00"/>
                            </g>
                        </g>
                        <g data-name="Group 1913">
                            <g data-name="Group 1912">
                                <path data-name="Path 630" d="m272.291 3707.152 9.888 9.889a1.614 1.614 0 0 0 2.282 0l6.1-6.188a1.619 1.619 0 0 0 .471-1.056 52.74 52.74 0 0 0-.066-6 1.613 1.613 0 0 0-.471-1.045l-6.9-6.9a1.614 1.614 0 0 0-2.282 0l-9.02 9.02a1.614 1.614 0 0 0-.002 2.28z" style="fill:#5b3a00" transform="translate(-172.361 -3645.954)"/>
                                <path data-name="Path 631" d="M285.882 3718.451v.005a3.619 3.619 0 0 1-5.113 0l-9.889-9.888a3.621 3.621 0 0 1 0-5.113l9.021-9.021a3.62 3.62 0 0 1 5.113 0l6.9 6.9a3.615 3.615 0 0 1 1.053 2.338 54.4 54.4 0 0 1 .067 6.233 3.612 3.612 0 0 1-1.047 2.356zm-11.9-12.44 9.337 9.337 5.719-5.8a50.574 50.574 0 0 0-.064-5.483l-6.521-6.521z" style="fill:#5b3a00" transform="translate(-172.361 -3645.954)"/>
                            </g>
                        </g>
                        <g data-name="Group 1915">
                            <g data-name="Group 1914" transform="translate(-172.361 -3645.954)">
                                <rect data-name="Rectangle 100" width="15.984" height="17.147" rx="1.514" transform="rotate(-45 4604.751 1587.266)" style="fill:#5b3a00"/>
                                <path data-name="Path 632" d="m250.107 3724.258-9.162 9.162a3.519 3.519 0 0 1-4.972 0l-9.984-9.984a3.519 3.519 0 0 1 0-4.972l9.162-9.162a3.519 3.519 0 0 1 4.972 0l9.984 9.984a3.52 3.52 0 0 1 0 4.972zm-11.648 5.985 8.471-8.471-9.293-9.293-8.471 8.471z" style="fill:#5b3a00"/>
                            </g>
                        </g>
                        <g data-name="Group 1917">
                            <g data-name="Group 1916">
                                <path data-name="Path 633" d="m236.5 3740.666-9.021 9.02a1.614 1.614 0 0 0 0 2.282l7.279 7.279a1.616 1.616 0 0 0 1.066.471 51.781 51.781 0 0 0 5.3-.015 1.619 1.619 0 0 0 1.056-.471l6.441-6.442a1.612 1.612 0 0 0 0-2.282l-9.842-9.842a1.614 1.614 0 0 0-2.279 0z" style="fill:#5b3a00" transform="translate(-172.361 -3645.954)"/>
                                <path data-name="Path 634" d="m250.036 3754.206-6.441 6.442a3.617 3.617 0 0 1-2.365 1.054 54.094 54.094 0 0 1-5.507.016 3.612 3.612 0 0 1-2.384-1.055l-7.279-7.279a3.62 3.62 0 0 1 0-5.114l9.02-9.02a3.619 3.619 0 0 1 5.113 0l9.843 9.843a3.619 3.619 0 0 1 0 5.113zm-9.168 3.5 6.062-6.062-9.293-9.293-8.471 8.471 6.9 6.9c1.591.078 3.205.071 4.802-.011z" style="fill:#5b3a00" transform="translate(-172.361 -3645.954)"/>
                            </g>
                        </g>
                        <g data-name="Group 1919">
                            <g data-name="Group 1918">
                                <path data-name="Path 635" d="m251.434 3725.727-8.974 8.975a1.67 1.67 0 0 0-.046 2.328l9.888 9.888a1.671 1.671 0 0 0 2.328-.046l8.975-8.974a1.614 1.614 0 0 0 0-2.282l-9.889-9.889a1.614 1.614 0 0 0-2.282 0z" style="fill:#5b3a00" transform="translate(-172.361 -3645.954)"/>
                                <path data-name="Path 636" d="m265.02 3739.313-8.974 8.975a3.653 3.653 0 0 1-5.159.046l-9.887-9.889a3.653 3.653 0 0 1 .046-5.159l8.975-8.975a3.621 3.621 0 0 1 5.113 0l9.888 9.889a3.619 3.619 0 0 1-.002 5.113zm-11.577 5.915 8.471-8.471-9.339-9.339-8.471 8.471z" style="fill:#5b3a00" transform="translate(-172.361 -3645.954)"/>
                            </g>
                        </g>
                        <g data-name="Group 1921">
                            <g data-name="Group 1920" transform="translate(-172.361 -3645.954)">
                                <rect data-name="Rectangle 101" width="15.984" height="17.147" rx="1.514" transform="rotate(-45 4615.315 1612.767)" style="fill:#5b3a00"/>
                                <path data-name="Path 637" d="m235.168 3739.2-9.161 9.162a3.521 3.521 0 0 1-4.972 0l-9.984-9.985a3.52 3.52 0 0 1 0-4.972l9.162-9.161a3.52 3.52 0 0 1 4.972 0l9.984 9.984a3.519 3.519 0 0 1-.001 4.972zm-11.647 5.985 8.471-8.471-9.294-9.293-8.471 8.47z" style="fill:#5b3a00"/>
                            </g>
                        </g>
                        <g data-name="Group 1923">
                            <g data-name="Group 1922" transform="translate(-172.361 -3645.954)">
                                <rect data-name="Rectangle 102" width="15.984" height="17.147" rx="1.514" transform="rotate(-45 4589.812 1623.33)" style="fill:#5b3a00"/>
                                <path data-name="Path 638" d="m220.23 3724.258-9.162 9.162a3.519 3.519 0 0 1-4.972 0l-9.984-9.984a3.519 3.519 0 0 1 0-4.972l9.162-9.162a3.52 3.52 0 0 1 4.972 0l9.984 9.984a3.521 3.521 0 0 1 0 4.972zm-11.648 5.985 8.471-8.471-9.293-9.293-8.471 8.471z" style="fill:#5b3a00"/>
                            </g>
                        </g>
                        <g data-name="Group 1925">
                            <g data-name="Group 1924" transform="translate(-172.361 -3645.954)">
                                <rect data-name="Rectangle 103" width="15.984" height="17.147" rx="1.514" transform="rotate(-45 4579.249 1597.828)" style="fill:#5b3a00"/>
                                <path data-name="Path 639" d="m235.168 3709.32-9.161 9.161a3.52 3.52 0 0 1-4.972 0l-9.984-9.985a3.52 3.52 0 0 1 0-4.972l9.161-9.161a3.519 3.519 0 0 1 4.972 0l9.984 9.984a3.52 3.52 0 0 1 0 4.973zm-11.647 5.985 8.471-8.471-9.294-9.294-8.471 8.471z" style="fill:#5b3a00"/>
                            </g>
                        </g>
                        <g data-name="Group 1927">
                            <g data-name="Group 1926" transform="translate(-172.361 -3645.954)">
                                <rect data-name="Rectangle 104" width="15.984" height="17.147" rx="1.514" transform="rotate(-45 4543.184 1582.89)" style="fill:#5b3a00"/>
                                <path data-name="Path 640" d="m235.168 3679.443-9.161 9.161a3.519 3.519 0 0 1-4.972 0l-9.984-9.984a3.52 3.52 0 0 1 0-4.972l9.162-9.161a3.519 3.519 0 0 1 4.972 0l9.984 9.984a3.52 3.52 0 0 1-.001 4.972zm-11.647 5.985 8.471-8.471-9.294-9.294-8.471 8.471z" style="fill:#5b3a00"/>
                            </g>
                        </g>
                        <g data-name="Group 1929">
                            <g data-name="Group 1928">
                                <path data-name="Path 641" d="m233.606 3653.925-6.2 6.2a1.514 1.514 0 0 0 0 2.141l10.028 9.984a1.514 1.514 0 0 0 2.141 0l9.161-9.162a1.513 1.513 0 0 0 0-2.14l-7.051-7.007a1.514 1.514 0 0 0-.98-.441 51.9 51.9 0 0 0-6.11-.017 1.513 1.513 0 0 0-.989.442z" style="fill:#5b3a00" transform="translate(-172.361 -3645.954)"/>
                                <path data-name="Path 642" d="m250.151 3664.5-9.162 9.162a3.519 3.519 0 0 1-4.972 0l-10.025-9.981a3.52 3.52 0 0 1 0-4.975l6.2-6.2a3.518 3.518 0 0 1 2.292-1.025 54.2 54.2 0 0 1 6.345.017 3.523 3.523 0 0 1 2.273 1.024l7.046 7a3.519 3.519 0 0 1 .003 4.978zm-11.307 6.326zm-.342-.34 8.471-8.471-6.573-6.532a50.177 50.177 0 0 0-5.511-.015l-5.723 5.723zm1.771-15.129z" style="fill:#5b3a00" transform="translate(-172.361 -3645.954)"/>
                            </g>
                        </g>
                        <g data-name="Group 1931">
                            <g data-name="Group 1930" transform="translate(-172.361 -3645.954)">
                                <rect data-name="Rectangle 105" width="15.984" height="17.147" rx="1.514" transform="rotate(-45 4583.625 1536.261)" style="fill:#5b3a00"/>
                                <path data-name="Path 643" d="m279.984 3694.381-9.162 9.162a3.519 3.519 0 0 1-4.972 0l-9.984-9.984a3.52 3.52 0 0 1 0-4.972l9.162-9.162a3.519 3.519 0 0 1 4.972 0l9.984 9.984a3.52 3.52 0 0 1 0 4.972zm-11.648 5.985 8.471-8.471-9.293-9.293-8.471 8.471z" style="fill:#5b3a00"/>
                            </g>
                        </g>
                        <g data-name="Group 1933">
                            <g data-name="Group 1932" transform="translate(-172.361 -3645.954)">
                                <rect data-name="Rectangle 106" width="15.984" height="17.147" rx="1.514" transform="rotate(-45 4553.748 1608.392)" style="fill:#5b3a00"/>
                                <path data-name="Path 644" d="m220.23 3694.381-9.162 9.162a3.519 3.519 0 0 1-4.972 0l-9.984-9.984a3.52 3.52 0 0 1 0-4.972l9.162-9.162a3.519 3.519 0 0 1 4.972 0l9.984 9.984a3.52 3.52 0 0 1 0 4.972zm-11.648 5.985 8.471-8.471-9.293-9.293-8.471 8.471z" style="fill:#5b3a00"/>
                            </g>
                        </g>
                        <g data-name="Group 1935">
                            <g data-name="Group 1934" transform="translate(-172.361 -3645.954)">
                                <rect data-name="Rectangle 107" width="15.984" height="17.147" rx="1.514" transform="rotate(-45 4568.686 1572.327)" style="fill:#5b3a00"/>
                                <path data-name="Path 645" d="m250.107 3694.381-9.162 9.162a3.519 3.519 0 0 1-4.972 0l-9.984-9.984a3.52 3.52 0 0 1 0-4.972l9.162-9.162a3.519 3.519 0 0 1 4.972 0l9.984 9.984a3.52 3.52 0 0 1 0 4.972zm-11.648 5.985 8.471-8.471-9.293-9.293-8.471 8.471z" style="fill:#5b3a00"/>
                            </g>
                        </g>
                        <g data-name="Group 1937">
                            <g data-name="Group 1936" transform="translate(-172.361 -3645.954)">
                                <rect data-name="Rectangle 108" width="15.984" height="17.147" rx="1.514" transform="rotate(-45 4594.188 1561.763)" style="fill:#5b3a00"/>
                                <path data-name="Path 646" d="m265.045 3709.32-9.161 9.162a3.52 3.52 0 0 1-4.972 0l-9.984-9.984a3.52 3.52 0 0 1 0-4.972l9.161-9.161a3.519 3.519 0 0 1 4.972 0l9.984 9.984a3.52 3.52 0 0 1 0 4.971zm-11.645 5.98 8.471-8.471-9.294-9.294-8.471 8.471z" style="fill:#5b3a00"/>
                            </g>
                        </g>
                        <g data-name="Group 1939">
                            <g data-name="Group 1938" transform="translate(-172.361 -3645.954)">
                                <rect data-name="Rectangle 109" width="15.984" height="17.147" rx="1.514" transform="rotate(-45 4558.123 1546.825)" style="fill:#5b3a00"/>
                                <path data-name="Path 647" d="m265.045 3679.443-9.161 9.161a3.519 3.519 0 0 1-4.972 0l-9.984-9.984a3.52 3.52 0 0 1 0-4.972l9.161-9.161a3.519 3.519 0 0 1 4.972 0l9.984 9.984a3.52 3.52 0 0 1 0 4.972zm-11.647 5.985 8.471-8.471-9.294-9.294-8.471 8.471z" style="fill:#5b3a00"/>
                            </g>
                        </g>
                    </g>
                    <g data-name="Group 1989">
                        <g data-name="Group 1942">
                            <g data-name="Group 1941">
                                <path data-name="Path 648" d="m258.232 3752.853 1.243 1.243a1.613 1.613 0 0 0 1.859.3 51.363 51.363 0 0 0 11.151-7.523l-3-3a1.614 1.614 0 0 0-2.282 0z" style="fill:#5b3a00" transform="translate(-172.361 -3645.954)"/>
                                <path data-name="Path 649" d="m275.4 3746.967-1.594 1.41a53.454 53.454 0 0 1-11.585 7.816 3.612 3.612 0 0 1-4.167-.681l-2.659-2.659 10.39-10.389a3.619 3.619 0 0 1 5.113 0zm-13.141 4.685a49.4 49.4 0 0 0 7.268-4.9l-1.186-1.186z" style="fill:#5b3a00" transform="translate(-172.361 -3645.954)"/>
                            </g>
                        </g>
                        <g data-name="Group 1944">
                            <g data-name="Group 1943">
                                <path data-name="Path 650" d="m207.522 3743.809-3.193 3.191a51.4 51.4 0 0 0 11.257 7.522 1.514 1.514 0 0 0 1.739-.289l1.381-1.381-9.044-9.044a1.513 1.513 0 0 0-2.14.001z" style="fill:#5b3a00" transform="translate(-172.361 -3645.954)"/>
                                <path data-name="Path 651" d="m221.538 3752.853-2.8 2.8a3.516 3.516 0 0 1-4.038.669 53.446 53.446 0 0 1-11.7-7.813l-1.6-1.41 4.7-4.7a3.521 3.521 0 0 1 4.972 0zm-14.25-5.979a49.357 49.357 0 0 0 7.7 5.093l-6.4-6.4z" style="fill:#5b3a00" transform="translate(-172.361 -3645.954)"/>
                            </g>
                        </g>
                        <g data-name="Group 1946">
                            <g data-name="Group 1945">
                                <path data-name="Path 652" d="m203.768 3678.16-2.947-2.947a1.515 1.515 0 0 0-2.236.1 51.351 51.351 0 0 0-6.951 10.94l.949.948a1.513 1.513 0 0 0 2.141 0z" style="fill:#5b3a00" transform="translate(-172.361 -3645.954)"/>
                                <path data-name="Path 653" d="m206.6 3678.16-10.46 10.46a3.52 3.52 0 0 1-4.972 0l-1.943-1.943.6-1.273a53.388 53.388 0 0 1 7.222-11.366 3.516 3.516 0 0 1 5.192-.241zm-11.622 5.96 5.959-5.96-1.15-1.15a49.486 49.486 0 0 0-4.81 7.11z" style="fill:#5b3a00" transform="translate(-172.361 -3645.954)"/>
                            </g>
                        </g>
                        <g data-name="Group 1948">
                            <g data-name="Group 1947">
                                <path data-name="Path 654" d="m192.583 3728.87-1.056 1.056a51.242 51.242 0 0 0 6.9 10.978 1.513 1.513 0 0 0 2.239.109l3.1-3.1-9.044-9.045a1.514 1.514 0 0 0-2.139.002z" style="fill:#5b3a00" transform="translate(-172.361 -3645.954)"/>
                                <path data-name="Path 655" d="m206.6 3737.915-4.514 4.514a3.516 3.516 0 0 1-5.2-.254 53.363 53.363 0 0 1-7.172-11.406l-.589-1.269 2.045-2.045a3.519 3.519 0 0 1 4.972 0zm-6.963 1.3 1.3-1.3-6.362-6.363a49.458 49.458 0 0 0 5.061 7.663z" style="fill:#5b3a00" transform="translate(-172.361 -3645.954)"/>
                            </g>
                        </g>
                        <g data-name="Group 1950">
                            <g data-name="Group 1949">
                                <path data-name="Path 656" d="m273.17 3737.915 2.875 2.874a1.612 1.612 0 0 0 2.391-.12 51.316 51.316 0 0 0 6.794-10.924l-.8-.8a1.614 1.614 0 0 0-2.282 0z" style="fill:#5b3a00" transform="translate(-172.361 -3645.954)"/>
                                <path data-name="Path 657" d="M279.742 3742.207a3.616 3.616 0 0 1-5.113 0l-4.29-4.29 10.389-10.39a3.621 3.621 0 0 1 5.113 0l1.789 1.789-.581 1.266a53.366 53.366 0 0 1-7.058 11.35 4.318 4.318 0 0 1-.249.275zm-3.74-4.292 1.153 1.153a49.472 49.472 0 0 0 4.629-6.936z" style="fill:#5b3a00" transform="translate(-172.361 -3645.954)"/>
                            </g>
                        </g>
                        <g data-name="Group 1952">
                            <g data-name="Group 1951">
                                <path data-name="Path 658" d="m218.706 3663.222-1.156-1.156a1.513 1.513 0 0 0-1.732-.292 51.421 51.421 0 0 0-11.31 7.478l3.014 3.014a1.513 1.513 0 0 0 2.14 0z" style="fill:#5b3a00" transform="translate(-172.361 -3645.954)"/>
                                <path data-name="Path 659" d="m221.538 3663.222-10.46 10.46a3.521 3.521 0 0 1-4.972 0l-4.531-4.531 1.619-1.409a53.422 53.422 0 0 1 11.75-7.769 3.518 3.518 0 0 1 4.022.677zm-12.946 7.283 5.661-5.661a49.469 49.469 0 0 0-6.779 4.543z" style="fill:#5b3a00" transform="translate(-172.361 -3645.954)"/>
                            </g>
                        </g>
                        <g data-name="Group 1954">
                            <g data-name="Group 1953">
                                <path data-name="Path 660" d="m284.367 3687.193.757-.758a51.289 51.289 0 0 0-6.912-10.97 1.514 1.514 0 0 0-2.239-.107l-2.8 2.8 9.033 9.033a1.531 1.531 0 0 0 2.161.002z" style="fill:#5b3a00" transform="translate(-172.361 -3645.954)"/>
                                <path data-name="Path 661" d="m287.53 3686.861-1.747 1.747a3.535 3.535 0 0 1-5 0l-10.448-10.448 4.218-4.218a3.516 3.516 0 0 1 5.2.251 53.385 53.385 0 0 1 7.182 11.4zM276 3678.16l5.353 5.353a49.428 49.428 0 0 0-4.349-6.357z" style="fill:#5b3a00" transform="translate(-172.361 -3645.954)"/>
                            </g>
                        </g>
                        <g data-name="Group 1956">
                            <g data-name="Group 1955">
                                <path data-name="Path 662" d="m203.768 3708.037-9.044-9.044a1.515 1.515 0 0 0-2.141 0l-5.312 5.313a1.52 1.52 0 0 0-.442.989 51.883 51.883 0 0 0 .013 6.045l5.741 5.742a1.514 1.514 0 0 0 2.141 0z" style="fill:#5b3a00" transform="translate(-172.361 -3645.954)"/>
                                <path data-name="Path 663" d="m206.6 3708.037-10.46 10.46a3.52 3.52 0 0 1-4.972 0l-6.278-6.278-.046-.758a54.348 54.348 0 0 1-.013-6.279 3.518 3.518 0 0 1 1.025-2.292l5.312-5.312a3.52 3.52 0 0 1 4.972 0zm-12.946 7.284 7.284-7.284-7.284-7.283-4.835 4.836a49.914 49.914 0 0 0-.017 4.878z" style="fill:#5b3a00" transform="translate(-172.361 -3645.954)"/>
                            </g>
                        </g>
                        <g data-name="Group 1958">
                            <g data-name="Group 1957">
                                <path data-name="Path 664" d="m269.417 3672.266 2.89-2.891a51.4 51.4 0 0 0-11.267-7.512 1.516 1.516 0 0 0-1.738.288l-1.07 1.071 9.044 9.044a1.515 1.515 0 0 0 2.141 0z" style="fill:#5b3a00" transform="translate(-172.361 -3645.954)"/>
                                <path data-name="Path 665" d="m275.235 3669.279-4.4 4.4a3.521 3.521 0 0 1-4.972 0l-10.46-10.46 2.486-2.486a3.517 3.517 0 0 1 4.035-.671 53.449 53.449 0 0 1 11.706 7.805zm-6.889 1.226 1-1a49.517 49.517 0 0 0-6.319-4.318z" style="fill:#5b3a00" transform="translate(-172.361 -3645.954)"/>
                            </g>
                        </g>
                        <g data-name="Group 1960">
                            <g data-name="Group 1959">
                                <path data-name="Path 666" d="m267.2 3714-8.973 8.973 8.973 8.973a1.612 1.612 0 0 0 2.282 0l8.974-8.973-8.969-8.973a1.612 1.612 0 0 0-2.287 0z" style="fill:#5b3a00" transform="translate(-172.361 -3645.954)"/>
                                <path data-name="Path 667" d="m281.292 3722.976-10.392 10.389a3.619 3.619 0 0 1-5.113 0l-10.39-10.389 10.39-10.389a3.619 3.619 0 0 1 5.113 0zm-12.946 7.283 7.283-7.283-7.283-7.283-7.283 7.283z" style="fill:#5b3a00" transform="translate(-172.361 -3645.954)"/>
                            </g>
                        </g>
                        <g data-name="Group 1962">
                            <g data-name="Group 1961">
                                <path data-name="Path 668" d="m273.17 3708.037 8.974 8.974a1.614 1.614 0 0 0 2.282 0l4.954-4.954a1.619 1.619 0 0 0 .471-1.056 51.86 51.86 0 0 0-.062-6.573l-5.363-5.364a1.614 1.614 0 0 0-2.282 0z" style="fill:#5b3a00" transform="translate(-172.361 -3645.954)"/>
                                <path data-name="Path 669" d="m290.8 3713.472-4.955 4.955a3.621 3.621 0 0 1-5.113 0l-10.389-10.39 10.389-10.389a3.621 3.621 0 0 1 5.113 0l5.891 5.891.054.743a54 54 0 0 1 .064 6.827 3.615 3.615 0 0 1-1.054 2.363zm-7.511 1.849 4.574-4.575a50.039 50.039 0 0 0-.018-5.436l-4.556-4.556-7.289 7.283z" style="fill:#5b3a00" transform="translate(-172.361 -3645.954)"/>
                            </g>
                        </g>
                        <g data-name="Group 1964">
                            <g data-name="Group 1963">
                                <path data-name="Path 670" d="m239.539 3732.02 9.045-9.044-9.045-9.044a1.513 1.513 0 0 0-2.14 0l-9.044 9.044 9.044 9.044a1.513 1.513 0 0 0 2.14 0z" style="fill:#5b3a00" transform="translate(-172.361 -3645.954)"/>
                                <path data-name="Path 671" d="m251.415 3722.976-10.46 10.46a3.52 3.52 0 0 1-4.972 0l-10.46-10.46 10.46-10.46a3.519 3.519 0 0 1 4.972 0zm-12.946 7.283 7.283-7.283-7.283-7.283-7.283 7.283z" style="fill:#5b3a00" transform="translate(-172.361 -3645.954)"/>
                            </g>
                        </g>
                        <g data-name="Group 1966">
                            <g data-name="Group 1965">
                                <path data-name="Path 672" d="m237.328 3743.88-8.973 8.973 6.409 6.41a1.613 1.613 0 0 0 1.066.471 52.041 52.041 0 0 0 5.3-.015 1.619 1.619 0 0 0 1.057-.471l6.4-6.4-8.974-8.973a1.614 1.614 0 0 0-2.285.005z" style="fill:#5b3a00" transform="translate(-172.361 -3645.954)"/>
                                <path data-name="Path 673" d="m251.415 3752.853-7.81 7.81a3.616 3.616 0 0 1-2.365 1.055 54.378 54.378 0 0 1-5.507.016 3.613 3.613 0 0 1-2.384-1.056l-7.826-7.825 10.389-10.389a3.62 3.62 0 0 1 5.114 0zm-10.537 4.874 4.874-4.874-7.283-7.283-7.283 7.283 4.888 4.888c1.593.072 3.208.068 4.804-.014z" style="fill:#5b3a00" transform="translate(-172.361 -3645.954)"/>
                            </g>
                        </g>
                        <g data-name="Group 1968">
                            <g data-name="Group 1967">
                                <path data-name="Path 674" d="m252.267 3728.941-8.974 8.974 8.974 8.973a1.614 1.614 0 0 0 2.282 0l8.973-8.973-8.973-8.974a1.614 1.614 0 0 0-2.282 0z" style="fill:#5b3a00" transform="translate(-172.361 -3645.954)"/>
                                <path data-name="Path 675" d="m266.353 3737.915-10.389 10.385a3.621 3.621 0 0 1-5.113 0l-10.389-10.389 10.389-10.39a3.621 3.621 0 0 1 5.113 0zm-12.945 7.283 7.283-7.283-7.283-7.284-7.283 7.284z" style="fill:#5b3a00" transform="translate(-172.361 -3645.954)"/>
                            </g>
                        </g>
                        <g data-name="Group 1970">
                            <g data-name="Group 1969">
                                <path data-name="Path 676" d="m224.6 3746.959 9.044-9.044-9.044-9.045a1.514 1.514 0 0 0-2.141 0l-9.044 9.045 9.044 9.044a1.514 1.514 0 0 0 2.141 0z" style="fill:#5b3a00" transform="translate(-172.361 -3645.954)"/>
                                <path data-name="Path 677" d="m236.476 3737.915-10.459 10.459a3.519 3.519 0 0 1-4.972 0l-10.46-10.459 10.46-10.46a3.519 3.519 0 0 1 4.972 0zm-12.945 7.283 7.283-7.283-7.283-7.284-7.283 7.284z" style="fill:#5b3a00" transform="translate(-172.361 -3645.954)"/>
                            </g>
                        </g>
                        <g data-name="Group 1972">
                            <g data-name="Group 1971">
                                <path data-name="Path 678" d="m207.522 3713.932-9.044 9.044 9.044 9.044a1.513 1.513 0 0 0 2.14 0l9.044-9.044-9.044-9.044a1.513 1.513 0 0 0-2.14 0z" style="fill:#5b3a00" transform="translate(-172.361 -3645.954)"/>
                                <path data-name="Path 679" d="m221.538 3722.976-10.46 10.46a3.52 3.52 0 0 1-4.972 0l-10.46-10.46 10.46-10.46a3.519 3.519 0 0 1 4.972 0zm-12.946 7.283 7.283-7.283-7.283-7.283-7.283 7.283z" style="fill:#5b3a00" transform="translate(-172.361 -3645.954)"/>
                            </g>
                        </g>
                        <g data-name="Group 1974">
                            <g data-name="Group 1973">
                                <path data-name="Path 680" d="m222.46 3698.993-9.044 9.044 9.044 9.045a1.514 1.514 0 0 0 2.141 0l9.044-9.045-9.044-9.044a1.515 1.515 0 0 0-2.141 0z" style="fill:#5b3a00" transform="translate(-172.361 -3645.954)"/>
                                <path data-name="Path 681" d="m236.476 3708.037-10.459 10.46a3.52 3.52 0 0 1-4.972 0l-10.46-10.46 10.46-10.459a3.52 3.52 0 0 1 4.972 0zm-12.945 7.284 7.283-7.284-7.283-7.283-7.284 7.283z" style="fill:#5b3a00" transform="translate(-172.361 -3645.954)"/>
                            </g>
                        </g>
                        <g data-name="Group 1976">
                            <g data-name="Group 1975">
                                <path data-name="Path 682" d="m224.6 3687.2 9.044-9.044-9.044-9.044a1.514 1.514 0 0 0-2.141 0l-9.044 9.044 9.044 9.044a1.513 1.513 0 0 0 2.141 0z" style="fill:#5b3a00" transform="translate(-172.361 -3645.954)"/>
                                <path data-name="Path 683" d="m236.476 3678.16-10.459 10.46a3.52 3.52 0 0 1-4.972 0l-10.46-10.46 10.46-10.459a3.52 3.52 0 0 1 4.972 0zm-12.945 7.283 7.283-7.283-7.283-7.283-7.283 7.283z" style="fill:#5b3a00" transform="translate(-172.361 -3645.954)"/>
                            </g>
                        </g>
                        <g data-name="Group 1978">
                            <g data-name="Group 1977">
                                <path data-name="Path 684" d="m234.438 3657.138-6.083 6.084 9.044 9.044a1.513 1.513 0 0 0 2.14 0l9.045-9.044-6.068-6.067a1.512 1.512 0 0 0-.98-.441 51.845 51.845 0 0 0-6.11-.017 1.522 1.522 0 0 0-.988.441z" style="fill:#5b3a00" transform="translate(-172.361 -3645.954)"/>
                                <path data-name="Path 685" d="m251.415 3663.222-10.46 10.46a3.521 3.521 0 0 1-4.972 0l-10.46-10.46 7.5-7.5a3.519 3.519 0 0 1 2.292-1.025 54.164 54.164 0 0 1 6.346.017 3.518 3.518 0 0 1 2.272 1.024zm-12.946 7.283 7.283-7.283-4.521-4.521a50.141 50.141 0 0 0-5.509-.015l-4.536 4.536z" style="fill:#5b3a00" transform="translate(-172.361 -3645.954)"/>
                            </g>
                        </g>
                        <g data-name="Group 1980">
                            <g data-name="Group 1979">
                                <path data-name="Path 686" d="m269.417 3702.143 9.044-9.044-9.044-9.044a1.515 1.515 0 0 0-2.141 0l-9.044 9.044 9.044 9.044a1.515 1.515 0 0 0 2.141 0z" style="fill:#5b3a00" transform="translate(-172.361 -3645.954)"/>
                                <path data-name="Path 687" d="m281.292 3693.1-10.46 10.46a3.521 3.521 0 0 1-4.972 0l-10.46-10.46 10.46-10.46a3.52 3.52 0 0 1 4.972 0zm-12.946 7.283 7.283-7.283-7.283-7.283-7.283 7.283z" style="fill:#5b3a00" transform="translate(-172.361 -3645.954)"/>
                            </g>
                        </g>
                        <g data-name="Group 1982">
                            <g data-name="Group 1981">
                                <path data-name="Path 688" d="m209.662 3702.143 9.044-9.044-9.044-9.044a1.513 1.513 0 0 0-2.14 0l-9.044 9.044 9.044 9.044a1.513 1.513 0 0 0 2.14 0z" style="fill:#5b3a00" transform="translate(-172.361 -3645.954)"/>
                                <path data-name="Path 689" d="m221.538 3693.1-10.46 10.46a3.521 3.521 0 0 1-4.972 0l-10.46-10.46 10.46-10.46a3.52 3.52 0 0 1 4.972 0zm-12.946 7.283 7.283-7.283-7.283-7.283-7.283 7.283z" style="fill:#5b3a00" transform="translate(-172.361 -3645.954)"/>
                            </g>
                        </g>
                        <g data-name="Group 1984">
                            <g data-name="Group 1983">
                                <path data-name="Path 690" d="m237.4 3684.055-9.044 9.044 9.044 9.044a1.513 1.513 0 0 0 2.14 0l9.045-9.044-9.045-9.044a1.513 1.513 0 0 0-2.14 0z" style="fill:#5b3a00" transform="translate(-172.361 -3645.954)"/>
                                <path data-name="Path 691" d="m251.415 3693.1-10.46 10.46a3.521 3.521 0 0 1-4.972 0l-10.46-10.46 10.46-10.46a3.52 3.52 0 0 1 4.972 0zm-12.946 7.283 7.283-7.283-7.283-7.283-7.283 7.283z" style="fill:#5b3a00" transform="translate(-172.361 -3645.954)"/>
                            </g>
                        </g>
                        <g data-name="Group 1986">
                            <g data-name="Group 1985">
                                <path data-name="Path 692" d="m254.478 3717.082 9.044-9.045-9.044-9.044a1.515 1.515 0 0 0-2.141 0l-9.044 9.044 9.044 9.045a1.514 1.514 0 0 0 2.141 0z" style="fill:#5b3a00" transform="translate(-172.361 -3645.954)"/>
                                <path data-name="Path 693" d="m266.353 3708.037-10.459 10.46a3.52 3.52 0 0 1-4.972 0l-10.46-10.46 10.46-10.459a3.52 3.52 0 0 1 4.972 0zm-12.945 7.284 7.283-7.284-7.283-7.283-7.283 7.283z" style="fill:#5b3a00" transform="translate(-172.361 -3645.954)"/>
                            </g>
                        </g>
                        <g data-name="Group 1988">
                            <g data-name="Group 1987">
                                <path data-name="Path 694" d="m252.337 3669.116-9.044 9.044 9.044 9.044a1.513 1.513 0 0 0 2.141 0l9.044-9.044-9.044-9.044a1.514 1.514 0 0 0-2.141 0z" style="fill:#5b3a00" transform="translate(-172.361 -3645.954)"/>
                                <path data-name="Path 695" d="m266.353 3678.16-10.459 10.46a3.52 3.52 0 0 1-4.972 0l-10.46-10.46 10.46-10.459a3.52 3.52 0 0 1 4.972 0zm-12.945 7.283 7.283-7.283-7.283-7.283-7.283 7.283z" style="fill:#5b3a00" transform="translate(-172.361 -3645.954)"/>
                            </g>
                        </g>
                    </g>
                    <g data-name="Group 1994">
                        <g data-name="Group 1991">
                            <g data-name="Group 1990">
                                <path data-name="Path 696" d="m218.723 3725.026-8.076 8.076a2.953 2.953 0 0 1-4.173 0l-8.3-8.3a.614.614 0 1 1 .869-.868l8.3 8.3a1.725 1.725 0 0 0 2.437 0l8.076-8.076a.614.614 0 0 1 .868.868z" style="fill:#5b3a00" transform="translate(-172.361 -3645.954)"/>
                                <path data-name="Path 697" d="m220.139 3726.442-8.076 8.076a4.958 4.958 0 0 1-7 0l-8.3-8.3a2.616 2.616 0 1 1 3.7-3.7l8.1 8.1 7.879-7.879a2.616 2.616 0 1 1 3.7 3.7z" style="fill:#5b3a00" transform="translate(-172.361 -3645.954)"/>
                            </g>
                        </g>
                        <g data-name="Group 1993">
                            <g data-name="Group 1992">
                                <path data-name="Path 698" d="m233.681 3739.983-8.077 8.077a2.954 2.954 0 0 1-4.172 0l-8.3-8.3a.614.614 0 1 1 .868-.868l8.3 8.3a1.725 1.725 0 0 0 2.436 0l8.077-8.077a.614.614 0 0 1 .868.868z" style="fill:#5b3a00" transform="translate(-172.361 -3645.954)"/>
                                <path data-name="Path 699" d="m235.1 3741.4-8.076 8.076a4.958 4.958 0 0 1-7 0l-8.3-8.3a2.616 2.616 0 0 1 3.7-3.7l8.1 8.1 7.879-7.878a2.616 2.616 0 1 1 3.7 3.7z" style="fill:#5b3a00" transform="translate(-172.361 -3645.954)"/>
                            </g>
                        </g>
                    </g>
                    <g data-name="Group 1996">
                        <g data-name="Group 1995">
                            <path data-name="Path 700" d="m233.67 3710.079-8.076 8.077a2.955 2.955 0 0 1-4.173 0l-8.3-8.3a.614.614 0 0 1 .868-.868l8.3 8.3a1.727 1.727 0 0 0 2.437 0l8.076-8.077a.614.614 0 0 1 .868.868z" style="fill:#5b3a00" transform="translate(-172.361 -3645.954)"/>
                            <path data-name="Path 701" d="m235.086 3711.5-8.076 8.076a4.958 4.958 0 0 1-7 0l-8.3-8.3a2.616 2.616 0 0 1 3.7-3.7l8.1 8.1 7.878-7.878a2.616 2.616 0 1 1 3.7 3.7z" style="fill:#5b3a00" transform="translate(-172.361 -3645.954)"/>
                        </g>
                    </g>
                    <g data-name="Group 1998">
                        <g data-name="Group 1997">
                            <path data-name="Path 702" d="m248.627 3725.037-8.076 8.076a2.955 2.955 0 0 1-4.173 0l-8.3-8.3a.614.614 0 0 1 .869-.868l8.3 8.3a1.725 1.725 0 0 0 2.437 0l8.076-8.076a.614.614 0 0 1 .868.868z" style="fill:#5b3a00" transform="translate(-172.361 -3645.954)"/>
                            <path data-name="Path 703" d="m250.043 3726.452-8.076 8.077a4.957 4.957 0 0 1-7 0l-8.3-8.3a2.616 2.616 0 0 1 3.7-3.7l8.1 8.1 7.879-7.879a2.616 2.616 0 1 1 3.7 3.7z" style="fill:#5b3a00" transform="translate(-172.361 -3645.954)"/>
                        </g>
                    </g>
                    <g data-name="Group 2000">
                        <g data-name="Group 1999">
                            <path data-name="Path 704" d="m248.6 3695.151-8.077 8.076a2.952 2.952 0 0 1-4.172 0l-8.3-8.3a.614.614 0 0 1 .868-.868l8.3 8.3a1.724 1.724 0 0 0 2.436 0l8.077-8.076a.614.614 0 0 1 .868.868z" style="fill:#5b3a00" transform="translate(-172.361 -3645.954)"/>
                            <path data-name="Path 705" d="m250.014 3696.567-8.076 8.076a4.958 4.958 0 0 1-7 0l-8.3-8.3a2.616 2.616 0 1 1 3.7-3.7l8.1 8.1 7.879-7.879a2.616 2.616 0 1 1 3.7 3.7z" style="fill:#5b3a00" transform="translate(-172.361 -3645.954)"/>
                        </g>
                    </g>
                    <g data-name="Group 2002">
                        <g data-name="Group 2001">
                            <path data-name="Path 706" d="m218.713 3695.122-8.076 8.076a2.953 2.953 0 0 1-4.173 0l-8.3-8.3a.614.614 0 1 1 .868-.868l8.3 8.3a1.725 1.725 0 0 0 2.437 0l8.076-8.076a.614.614 0 0 1 .868.868z" style="fill:#5b3a00" transform="translate(-172.361 -3645.954)"/>
                            <path data-name="Path 707" d="m220.129 3696.538-8.077 8.076a4.958 4.958 0 0 1-7 0l-8.3-8.3a2.616 2.616 0 0 1 3.7-3.7l8.1 8.1 7.879-7.879a2.616 2.616 0 0 1 3.7 3.7z" style="fill:#5b3a00" transform="translate(-172.361 -3645.954)"/>
                        </g>
                    </g>
                    <g data-name="Group 2004">
                        <g data-name="Group 2003">
                            <path data-name="Path 708" d="m203.766 3710.069-8.076 8.076a2.953 2.953 0 0 1-4.173 0l-4.186-4.186a.614.614 0 1 1 .868-.868l4.186 4.186a1.725 1.725 0 0 0 2.437 0l8.076-8.076a.614.614 0 0 1 .868.868z" style="fill:#5b3a00" transform="translate(-172.361 -3645.954)"/>
                            <path data-name="Path 709" d="m205.182 3711.485-8.076 8.076a4.96 4.96 0 0 1-7.005 0l-4.186-4.186a2.616 2.616 0 1 1 3.7-3.7l3.989 3.989 7.878-7.879a2.616 2.616 0 0 1 3.7 3.7z" style="fill:#5b3a00" transform="translate(-172.361 -3645.954)"/>
                        </g>
                    </g>
                    <g data-name="Group 2006">
                        <g data-name="Group 2005">
                            <path data-name="Path 710" d="m233.641 3680.194-8.076 8.076a2.955 2.955 0 0 1-4.173 0l-8.3-8.3a.614.614 0 0 1 .869-.868l8.3 8.3a1.725 1.725 0 0 0 2.437 0l8.076-8.076a.614.614 0 0 1 .868.868z" style="fill:#5b3a00" transform="translate(-172.361 -3645.954)"/>
                            <path data-name="Path 711" d="m235.057 3681.609-8.076 8.077a4.958 4.958 0 0 1-7 0l-8.3-8.3a2.616 2.616 0 0 1 3.7-3.7l8.1 8.1 7.879-7.879a2.616 2.616 0 0 1 3.7 3.7z" style="fill:#5b3a00" transform="translate(-172.361 -3645.954)"/>
                        </g>
                    </g>
                    <g data-name="Group 2008">
                        <g data-name="Group 2007">
                            <path data-name="Path 712" d="m203.856 3680.174-8.076 8.077a2.955 2.955 0 0 1-4.173 0l-.073-.074a.614.614 0 0 1 .868-.868l.074.073a1.724 1.724 0 0 0 2.436 0l8.076-8.076a.614.614 0 0 1 .868.868z" style="fill:#5b3a00" transform="translate(-172.361 -3645.954)"/>
                            <path data-name="Path 713" d="m205.272 3681.59-8.076 8.076a4.958 4.958 0 0 1-7 0l-.074-.074a2.616 2.616 0 0 1 3.572-3.819l7.883-7.882a2.616 2.616 0 1 1 3.7 3.7z" style="fill:#5b3a00" transform="translate(-172.361 -3645.954)"/>
                        </g>
                    </g>
                    <g data-name="Group 2010">
                        <g data-name="Group 2009">
                            <path data-name="Path 714" d="m218.785 3665.246-8.076 8.076a2.953 2.953 0 0 1-4.173 0l-2.221-2.221a.614.614 0 0 1 .868-.868l2.221 2.221a1.725 1.725 0 0 0 2.437 0l8.076-8.076a.614.614 0 0 1 .868.868z" style="fill:#5b3a00" transform="translate(-172.361 -3645.954)"/>
                            <path data-name="Path 715" d="m220.2 3666.662-8.077 8.076a4.958 4.958 0 0 1-7 0l-2.221-2.222a2.616 2.616 0 0 1 3.7-3.7l2.024 2.024 7.879-7.879a2.616 2.616 0 1 1 3.7 3.7z" style="fill:#5b3a00" transform="translate(-172.361 -3645.954)"/>
                        </g>
                    </g>
                    <g data-name="Group 2012">
                        <g data-name="Group 2011">
                            <path data-name="Path 716" d="m248.588 3665.247-8.076 8.076a2.953 2.953 0 0 1-4.173 0l-8.3-8.3a.614.614 0 1 1 .868-.868l8.3 8.3a1.725 1.725 0 0 0 2.437 0l8.076-8.076a.614.614 0 0 1 .868.868z" style="fill:#5b3a00" transform="translate(-172.361 -3645.954)"/>
                            <path data-name="Path 717" d="m250 3666.663-8.076 8.076a4.96 4.96 0 0 1-7 0l-8.3-8.3a2.616 2.616 0 0 1 3.7-3.7l8.1 8.1 7.878-7.879a2.616 2.616 0 0 1 3.7 3.7z" style="fill:#5b3a00" transform="translate(-172.361 -3645.954)"/>
                        </g>
                    </g>
                    <g data-name="Group 2014">
                        <g data-name="Group 2013">
                            <path data-name="Path 718" d="m263.556 3710.108-8.076 8.076a2.953 2.953 0 0 1-4.173 0l-8.3-8.3a.614.614 0 1 1 .868-.868l8.3 8.3a1.724 1.724 0 0 0 2.436 0l8.077-8.076a.614.614 0 0 1 .868.868z" style="fill:#5b3a00" transform="translate(-172.361 -3645.954)"/>
                            <path data-name="Path 719" d="m264.972 3711.524-8.077 8.076a4.958 4.958 0 0 1-7 0l-8.3-8.3a2.616 2.616 0 0 1 3.7-3.7l8.1 8.1 7.879-7.879a2.616 2.616 0 1 1 3.7 3.7z" style="fill:#5b3a00" transform="translate(-172.361 -3645.954)"/>
                        </g>
                    </g>
                    <g data-name="Group 2016">
                        <g data-name="Group 2015">
                            <path data-name="Path 720" d="m263.631 3740.041-8.076 8.076a2.955 2.955 0 0 1-4.173 0l-8.3-8.3a.614.614 0 0 1 .868-.868l8.3 8.3a1.724 1.724 0 0 0 2.436 0l8.076-8.076a.614.614 0 1 1 .868.868z" style="fill:#5b3a00" transform="translate(-172.361 -3645.954)"/>
                            <path data-name="Path 721" d="m265.047 3741.456-8.076 8.077a4.958 4.958 0 0 1-7 0l-8.3-8.3a2.616 2.616 0 0 1 3.7-3.7l8.1 8.1 7.879-7.879a2.616 2.616 0 0 1 3.7 3.7z" style="fill:#5b3a00" transform="translate(-172.361 -3645.954)"/>
                        </g>
                    </g>
                    <g data-name="Group 2018">
                        <g data-name="Group 2017">
                            <path data-name="Path 722" d="m278.56 3725.112-8.076 8.076a2.953 2.953 0 0 1-4.173 0l-8.3-8.3a.614.614 0 0 1 .868-.869l8.3 8.3a1.725 1.725 0 0 0 2.437 0l8.076-8.076a.614.614 0 0 1 .868.868z" style="fill:#5b3a00" transform="translate(-172.361 -3645.954)"/>
                            <path data-name="Path 723" d="m279.976 3726.528-8.076 8.072a4.958 4.958 0 0 1-7 0l-8.3-8.3a2.616 2.616 0 0 1 3.7-3.7l8.1 8.1 7.879-7.879a2.616 2.616 0 0 1 3.7 3.7z" style="fill:#5b3a00" transform="translate(-172.361 -3645.954)"/>
                        </g>
                    </g>
                    <g data-name="Group 2020">
                        <g data-name="Group 2019">
                            <path data-name="Path 724" d="m289.715 3713.958-4.33 4.329a2.953 2.953 0 0 1-4.173 0l-8.3-8.3a.614.614 0 1 1 .868-.868l8.3 8.3a1.725 1.725 0 0 0 2.437 0l4.329-4.329a.614.614 0 1 1 .869.868z" style="fill:#5b3a00" transform="translate(-172.361 -3645.954)"/>
                            <path data-name="Path 725" d="m291.13 3715.373-4.33 4.33a4.958 4.958 0 0 1-7 0l-8.3-8.3a2.616 2.616 0 1 1 3.7-3.7l8.1 8.1 4.133-4.132a2.616 2.616 0 0 1 3.7 3.7z" style="fill:#5b3a00" transform="translate(-172.361 -3645.954)"/>
                        </g>
                    </g>
                    <g data-name="Group 2025">
                        <g data-name="Group 2022">
                            <g data-name="Group 2021">
                                <path data-name="Path 726" d="m263.5 3680.25-8.077 8.076a2.954 2.954 0 0 1-4.172 0l-8.3-8.3a.614.614 0 0 1 .868-.868l8.3 8.3a1.724 1.724 0 0 0 2.436 0l8.077-8.076a.614.614 0 0 1 .868.868z" style="fill:#5b3a00" transform="translate(-172.361 -3645.954)"/>
                                <path data-name="Path 727" d="m264.915 3681.665-8.076 8.077a4.958 4.958 0 0 1-7 0l-8.3-8.3a2.616 2.616 0 0 1 3.7-3.7l8.1 8.1 7.879-7.879a2.616 2.616 0 0 1 3.7 3.7z" style="fill:#5b3a00" transform="translate(-172.361 -3645.954)"/>
                            </g>
                        </g>
                        <g data-name="Group 2024">
                            <g data-name="Group 2023">
                                <path data-name="Path 728" d="m278.457 3695.207-8.076 8.076a2.953 2.953 0 0 1-4.173 0l-8.3-8.3a.614.614 0 1 1 .868-.868l8.3 8.3a1.725 1.725 0 0 0 2.437 0l8.076-8.076a.614.614 0 0 1 .868.868z" style="fill:#5b3a00" transform="translate(-172.361 -3645.954)"/>
                                <path data-name="Path 729" d="m279.873 3696.623-8.073 8.077a4.958 4.958 0 0 1-7 0l-8.3-8.3a2.616 2.616 0 0 1 3.7-3.7l8.1 8.1 7.879-7.879a2.616 2.616 0 0 1 3.7 3.7z" style="fill:#5b3a00" transform="translate(-172.361 -3645.954)"/>
                            </g>
                        </g>
                    </g>
                    <g data-name="Group 2030">
                        <g data-name="Group 2027">
                            <g data-name="Group 2026">
                                <path data-name="Path 730" d="m272.471 3671.278-2.045 2.045a2.953 2.953 0 0 1-4.173 0l-8.3-8.3a.614.614 0 0 1 .868-.869l8.3 8.3a1.725 1.725 0 0 0 2.437 0l2.045-2.045a.614.614 0 1 1 .868.868z" style="fill:#5b3a00" transform="translate(-172.361 -3645.954)"/>
                                <path data-name="Path 731" d="m273.887 3672.694-2.045 2.045a4.958 4.958 0 0 1-7 0l-8.3-8.3a2.616 2.616 0 0 1 3.7-3.7l8.1 8.1 1.848-1.848a2.616 2.616 0 0 1 3.7 3.7z" style="fill:#5b3a00" transform="translate(-172.361 -3645.954)"/>
                            </g>
                        </g>
                        <g data-name="Group 2029">
                            <g data-name="Group 2028">
                                <path data-name="Path 732" d="m285.383 3688.281-.01.01-.01.009a2.953 2.953 0 0 1-4.152-.019l-8.3-8.3a.614.614 0 0 1 .868-.868l8.3 8.3a1.726 1.726 0 0 0 2.436 0 .614.614 0 0 1 .868.868z" style="fill:#5b3a00" transform="translate(-172.361 -3645.954)"/>
                                <path data-name="Path 733" d="m286.8 3689.7-.011.011-.029.029a4.968 4.968 0 0 1-6.964-.04l-8.3-8.3a2.616 2.616 0 1 1 3.7-3.7l8.111 8.111a2.616 2.616 0 0 1 3.492 3.886z" style="fill:#5b3a00" transform="translate(-172.361 -3645.954)"/>
                            </g>
                        </g>
                    </g>
                    <g data-name="Group 2032">
                        <g data-name="Group 2031">
                            <path data-name="Path 734" d="M272.46 3748.739a.623.623 0 0 1-.047.042 58.635 58.635 0 0 1-10.239 6.938 3.2 3.2 0 0 1-3.805-.616l-.245-.245a.614.614 0 0 1 .868-.868l.245.245a1.979 1.979 0 0 0 2.349.406 57.426 57.426 0 0 0 10.051-6.812.614.614 0 0 1 .823.91z" style="fill:#5b3a00" transform="translate(-172.361 -3645.954)"/>
                            <path data-name="Path 735" d="M273.875 3750.154a2.551 2.551 0 0 1-.2.179 60.216 60.216 0 0 1-10.546 7.143 5.181 5.181 0 0 1-6.179-.957l-.245-.245a2.616 2.616 0 0 1 3.7-3.7l.245.245a.37.37 0 0 0 .036.03 55.725 55.725 0 0 0 9.684-6.573 2.616 2.616 0 0 1 3.5 3.877z" style="fill:#5b3a00" transform="translate(-172.361 -3645.954)"/>
                        </g>
                    </g>
                    <g data-name="Group 2034">
                        <g data-name="Group 2033">
                            <path data-name="Path 736" d="M279.341 3741.846a2.965 2.965 0 0 1-1.866.853 3.135 3.135 0 0 1-2.471-.909l-1.836-1.836a.614.614 0 0 1 .868-.868l1.836 1.836a1.912 1.912 0 0 0 1.505.554 1.7 1.7 0 0 0 1.267-.7 63.475 63.475 0 0 0 6.059-9.595.614.614 0 1 1 1.089.567 64.511 64.511 0 0 1-6.153 9.748 2.845 2.845 0 0 1-.298.35z" style="fill:#5b3a00" transform="translate(-172.361 -3645.954)"/>
                            <path data-name="Path 737" d="M280.757 3743.261a4.978 4.978 0 0 1-3.123 1.434 5.14 5.14 0 0 1-4.046-1.489l-1.836-1.836a2.616 2.616 0 0 1 3.7-3.7l1.722 1.723a61.016 61.016 0 0 0 5.753-9.136 2.616 2.616 0 1 1 4.641 2.416 66.263 66.263 0 0 1-6.306 10 4.923 4.923 0 0 1-.505.588z" style="fill:#5b3a00" transform="translate(-172.361 -3645.954)"/>
                        </g>
                    </g>
                    <g data-name="Group 2036">
                        <g data-name="Group 2035">
                            <path data-name="Path 738" d="m219.4 3754.2-1 1a3.116 3.116 0 0 1-3.621.582 55.187 55.187 0 0 1-11.47-7.767.614.614 0 1 1 .81-.922 53.955 53.955 0 0 0 11.215 7.594 1.893 1.893 0 0 0 2.2-.355l1-1a.614.614 0 0 1 .868.868z" style="fill:#5b3a00" transform="translate(-172.361 -3645.954)"/>
                            <path data-name="Path 739" d="m220.816 3755.611-1 1a5.116 5.116 0 0 1-5.942.952 57.231 57.231 0 0 1-11.886-8.048 2.616 2.616 0 1 1 3.452-3.931 51.987 51.987 0 0 0 10.728 7.276l.951-.951a2.616 2.616 0 1 1 3.7 3.7z" style="fill:#5b3a00" transform="translate(-172.361 -3645.954)"/>
                        </g>
                    </g>
                    <g data-name="Group 2038">
                        <g data-name="Group 2037">
                            <path data-name="Path 740" d="m204.315 3739.47-2.523 2.524a3.187 3.187 0 0 1-4.757-.276 55.147 55.147 0 0 1-6.7-10.9.614.614 0 0 1 1.114-.517 53.893 53.893 0 0 0 6.551 10.658 1.962 1.962 0 0 0 2.925.167l2.523-2.524a.614.614 0 0 1 .868.868z" style="fill:#5b3a00" transform="translate(-172.361 -3645.954)"/>
                            <path data-name="Path 741" d="m205.731 3740.886-2.523 2.524a5.191 5.191 0 0 1-7.746-.453 57.1 57.1 0 0 1-6.942-11.3 2.616 2.616 0 0 1 4.746-2.2 51.859 51.859 0 0 0 6.274 10.22l2.492-2.492a2.616 2.616 0 0 1 3.7 3.7z" style="fill:#5b3a00" transform="translate(-172.361 -3645.954)"/>
                        </g>
                    </g>
                    <g data-name="Group 2040">
                        <g data-name="Group 2039">
                            <path data-name="Path 742" d="m248.526 3755.035-5.245 5.245a2.958 2.958 0 0 1-1.944.865 59.48 59.48 0 0 1-5.634.017 2.954 2.954 0 0 1-1.96-.866l-5.261-5.261a.614.614 0 1 1 .868-.868l5.261 5.261a1.726 1.726 0 0 0 1.147.507c1.829.082 3.685.077 5.517-.016a1.727 1.727 0 0 0 1.138-.507l5.245-5.245a.614.614 0 0 1 .868.868z" style="fill:#5b3a00" transform="translate(-172.361 -3645.954)"/>
                            <path data-name="Path 743" d="m249.942 3756.45-5.242 5.25a4.953 4.953 0 0 1-3.258 1.449c-1.933.1-3.893.1-5.824.017a4.95 4.95 0 0 1-3.287-1.451l-5.261-5.261a2.616 2.616 0 1 1 3.7-3.7l5.189 5.189c1.695.073 3.414.068 5.113-.015l5.174-5.174a2.616 2.616 0 0 1 3.7 3.7z" style="fill:#5b3a00" transform="translate(-172.361 -3645.954)"/>
                        </g>
                    </g>
                </g>
            </g>
            <g data-name="Group 2197">
                <g data-name="Group 2044">
                    <g data-name="Group 2043">
                        <path data-name="Path 744" d="m273.628 3754.358 6.055-6.055-83.283-83.278-6.055 6.054c-21.965 21.966-21.13 58.415 1.867 81.412s59.446 23.832 81.411 1.867" style="fill:#e8a600" transform="translate(-172.361 -3645.954)"/>
                    </g>
                </g>
                <g data-name="Group 2046">
                    <g data-name="Group 2045" transform="translate(-172.361 -3645.954)">
                        <circle data-name="Ellipse 114" cx="58.887" cy="58.887" r="58.887" transform="translate(179.023 3647.912)" style="fill:#ffd550"/>
                    </g>
                </g>
                <g data-name="Group 2196">
                    <g data-name="Group 2095">
                        <g data-name="Group 2048">
                            <g data-name="Group 2047">
                                <path data-name="Path 745" d="m257.4 3751.924 2.112 2.112a1.613 1.613 0 0 0 1.859.3 67.113 67.113 0 0 0 11.086-7.47 1.613 1.613 0 0 0 .111-2.383l-3.866-3.866a1.614 1.614 0 0 0-2.282 0l-9.02 9.021a1.614 1.614 0 0 0 0 2.286z" style="fill:#ba8000" transform="translate(-172.361 -3645.954)"/>
                            </g>
                        </g>
                        <g data-name="Group 2050">
                            <g data-name="Group 2049">
                                <path data-name="Path 746" d="m206.734 3740.551-3.4 3.4a1.514 1.514 0 0 0 .108 2.239 78.891 78.891 0 0 0 12.182 8.271 1.436 1.436 0 0 0 1.693-.243l1.544-1.545a1.511 1.511 0 0 0 0-2.14l-9.984-9.984a1.513 1.513 0 0 0-2.143.002z" style="fill:#ba8000" transform="translate(-172.361 -3645.954)"/>
                            </g>
                        </g>
                        <g data-name="Group 2052">
                            <g data-name="Group 2051">
                                <path data-name="Path 747" d="m203.92 3675.842-3.887-3.887a1.515 1.515 0 0 0-2.236.1 66.836 66.836 0 0 0-7.664 11.144 1.514 1.514 0 0 0 .286 1.744l2.2 2.2a1.513 1.513 0 0 0 2.14 0l9.162-9.161a1.514 1.514 0 0 0-.001-2.14z" style="fill:#ba8000" transform="translate(-172.361 -3645.954)"/>
                            </g>
                        </g>
                        <g data-name="Group 2054">
                            <g data-name="Group 2053">
                                <path data-name="Path 748" d="m191.795 3725.612-.8.8a1.517 1.517 0 0 0-.289 1.738 80.053 80.053 0 0 0 7.817 12.657 1.513 1.513 0 0 0 2.239.109l3.171-3.17a1.514 1.514 0 0 0 0-2.141l-9.995-9.995a1.514 1.514 0 0 0-2.143.002z" style="fill:#ba8000" transform="translate(-172.361 -3645.954)"/>
                            </g>
                        </g>
                        <g data-name="Group 2056">
                            <g data-name="Group 2055">
                                <path data-name="Path 749" d="m272.335 3736.985 3.744 3.744a1.613 1.613 0 0 0 2.392-.12 67.8 67.8 0 0 0 7.077-11.48 1.734 1.734 0 0 0-.388-1.908l-1.522-1.538a1.614 1.614 0 0 0-2.282 0l-9.021 9.02a1.614 1.614 0 0 0 0 2.282z" style="fill:#ba8000" transform="translate(-172.361 -3645.954)"/>
                            </g>
                        </g>
                        <g data-name="Group 2058">
                            <g data-name="Group 2057">
                                <path data-name="Path 750" d="m218.858 3660.9-2.1-2.1a1.514 1.514 0 0 0-1.732-.291 66.777 66.777 0 0 0-11.223 7.593 1.513 1.513 0 0 0-.113 2.243l3.858 3.858a1.514 1.514 0 0 0 2.141 0l9.165-9.166a1.512 1.512 0 0 0 .004-2.137z" style="fill:#ba8000" transform="translate(-172.361 -3645.954)"/>
                            </g>
                        </g>
                        <g data-name="Group 2060">
                            <g data-name="Group 2059">
                                <path data-name="Path 751" d="m284.389 3687.144.835-.834a1.515 1.515 0 0 0 .288-1.739 79.275 79.275 0 0 0-8.088-12.364 1.514 1.514 0 0 0-2.239-.108l-2.92 2.921a1.513 1.513 0 0 0 0 2.14l9.984 9.984a1.513 1.513 0 0 0 2.14 0z" style="fill:#ba8000" transform="translate(-172.361 -3645.954)"/>
                            </g>
                        </g>
                        <g data-name="Group 2062">
                            <g data-name="Group 2061">
                                <path data-name="Path 752" d="m203.92 3705.719-9.984-9.984a1.514 1.514 0 0 0-2.141 0l-6.5 6.5a1.518 1.518 0 0 0-.442.989 51.985 51.985 0 0 0-.019 5.456 1.515 1.515 0 0 0 .442 1l7.342 7.341a1.511 1.511 0 0 0 2.14 0l9.162-9.161a1.514 1.514 0 0 0 0-2.141z" style="fill:#ba8000" transform="translate(-172.361 -3645.954)"/>
                            </g>
                        </g>
                        <g data-name="Group 2064">
                            <g data-name="Group 2063">
                                <path data-name="Path 753" d="m269.5 3672.251 3.556-3.556a1.514 1.514 0 0 0-.109-2.24 80.587 80.587 0 0 0-12.692-7.851 1.436 1.436 0 0 0-1.692.243l-1.363 1.363a1.369 1.369 0 0 0 .129 2.012l10.03 10.029a1.512 1.512 0 0 0 2.141 0z" style="fill:#ba8000" transform="translate(-172.361 -3645.954)"/>
                            </g>
                        </g>
                        <g data-name="Group 2066">
                            <g data-name="Group 2065" transform="translate(-172.361 -3645.954)">
                                <rect data-name="Rectangle 110" width="15.984" height="17.147" rx="1.614" transform="rotate(-45 4619.659 1551.125)" style="fill:#ba8000"/>
                            </g>
                        </g>
                        <g data-name="Group 2068">
                            <g data-name="Group 2067">
                                <path data-name="Path 754" d="m272.335 3707.108 9.889 9.888a1.612 1.612 0 0 0 2.282 0l6.1-6.188a1.61 1.61 0 0 0 .471-1.055 52.751 52.751 0 0 0-.066-6 1.614 1.614 0 0 0-.47-1.044l-6.9-6.9a1.614 1.614 0 0 0-2.282 0l-9.021 9.02a1.614 1.614 0 0 0-.003 2.279z" style="fill:#ba8000" transform="translate(-172.361 -3645.954)"/>
                            </g>
                        </g>
                        <g data-name="Group 2070">
                            <g data-name="Group 2069" transform="translate(-172.361 -3645.954)">
                                <rect data-name="Rectangle 111" width="15.984" height="17.147" rx="1.514" transform="rotate(-45 4604.72 1587.19)" style="fill:#ba8000"/>
                            </g>
                        </g>
                        <g data-name="Group 2072">
                            <g data-name="Group 2071">
                                <path data-name="Path 755" d="m236.54 3740.621-9.02 9.021a1.614 1.614 0 0 0 0 2.282l7.279 7.278a1.615 1.615 0 0 0 1.065.472 51.85 51.85 0 0 0 5.3-.016 1.618 1.618 0 0 0 1.056-.47l6.442-6.442a1.614 1.614 0 0 0 0-2.282l-9.843-9.843a1.614 1.614 0 0 0-2.279 0z" style="fill:#ba8000" transform="translate(-172.361 -3645.954)"/>
                            </g>
                        </g>
                        <g data-name="Group 2074">
                            <g data-name="Group 2073">
                                <path data-name="Path 756" d="m251.479 3725.683-8.975 8.974a1.671 1.671 0 0 0-.046 2.328l9.889 9.889a1.669 1.669 0 0 0 2.327-.046l8.975-8.975a1.614 1.614 0 0 0 0-2.282l-9.888-9.888a1.614 1.614 0 0 0-2.282 0z" style="fill:#ba8000" transform="translate(-172.361 -3645.954)"/>
                            </g>
                        </g>
                        <g data-name="Group 2076">
                            <g data-name="Group 2075" transform="translate(-172.361 -3645.954)">
                                <rect data-name="Rectangle 112" width="15.984" height="17.147" rx="1.514" transform="rotate(-45 4615.283 1612.691)" style="fill:#ba8000"/>
                            </g>
                        </g>
                        <g data-name="Group 2078">
                            <g data-name="Group 2077" transform="translate(-172.361 -3645.954)">
                                <rect data-name="Rectangle 113" width="15.984" height="17.147" rx="1.514" transform="rotate(-45 4589.782 1623.254)" style="fill:#ba8000"/>
                            </g>
                        </g>
                        <g data-name="Group 2080">
                            <g data-name="Group 2079" transform="translate(-172.361 -3645.954)">
                                <rect data-name="Rectangle 114" width="15.984" height="17.147" rx="1.514" transform="rotate(-45 4579.218 1597.753)" style="fill:#ba8000"/>
                            </g>
                        </g>
                        <g data-name="Group 2082">
                            <g data-name="Group 2081" transform="translate(-172.361 -3645.954)">
                                <rect data-name="Rectangle 115" width="15.984" height="17.147" rx="1.514" transform="rotate(-45 4543.153 1582.814)" style="fill:#ba8000"/>
                            </g>
                        </g>
                        <g data-name="Group 2084">
                            <g data-name="Group 2083">
                                <path data-name="Path 757" d="m233.65 3653.88-6.2 6.2a1.514 1.514 0 0 0 0 2.141l10.028 9.984a1.514 1.514 0 0 0 2.141 0l9.162-9.162a1.514 1.514 0 0 0 0-2.141l-7.052-7.007a1.517 1.517 0 0 0-.98-.441 51.9 51.9 0 0 0-6.11-.016 1.518 1.518 0 0 0-.989.442z" style="fill:#ba8000" transform="translate(-172.361 -3645.954)"/>
                            </g>
                        </g>
                        <g data-name="Group 2086">
                            <g data-name="Group 2085" transform="translate(-172.361 -3645.954)">
                                <rect data-name="Rectangle 116" width="15.984" height="17.147" rx="1.514" transform="rotate(-45 4583.594 1536.186)" style="fill:#ba8000"/>
                            </g>
                        </g>
                        <g data-name="Group 2088">
                            <g data-name="Group 2087" transform="translate(-172.361 -3645.954)">
                                <rect data-name="Rectangle 117" width="15.984" height="17.147" rx="1.514" transform="rotate(-45 4553.717 1608.316)" style="fill:#ba8000"/>
                            </g>
                        </g>
                        <g data-name="Group 2090">
                            <g data-name="Group 2089" transform="translate(-172.361 -3645.954)">
                                <rect data-name="Rectangle 118" width="15.984" height="17.147" rx="1.514" transform="rotate(-45 4568.656 1572.25)" style="fill:#ba8000"/>
                            </g>
                        </g>
                        <g data-name="Group 2092">
                            <g data-name="Group 2091" transform="translate(-172.361 -3645.954)">
                                <rect data-name="Rectangle 119" width="15.984" height="17.147" rx="1.514" transform="rotate(-45 4594.156 1561.688)" style="fill:#ba8000"/>
                            </g>
                        </g>
                        <g data-name="Group 2094">
                            <g data-name="Group 2093" transform="translate(-172.361 -3645.954)">
                                <rect data-name="Rectangle 120" width="15.984" height="17.147" rx="1.514" transform="rotate(-45 4558.092 1546.75)" style="fill:#ba8000"/>
                            </g>
                        </g>
                    </g>
                    <g data-name="Group 2144">
                        <g data-name="Group 2097">
                            <g data-name="Group 2096">
                                <path data-name="Path 758" d="m258.276 3752.809 1.243 1.242a1.611 1.611 0 0 0 1.859.3 51.382 51.382 0 0 0 11.151-7.523l-3-3a1.614 1.614 0 0 0-2.282 0z" style="fill:#e8a600" transform="translate(-172.361 -3645.954)"/>
                            </g>
                        </g>
                        <g data-name="Group 2099">
                            <g data-name="Group 2098">
                                <path data-name="Path 759" d="m207.566 3743.765-3.192 3.192a51.354 51.354 0 0 0 11.256 7.521 1.515 1.515 0 0 0 1.739-.288l1.382-1.381-9.044-9.044a1.515 1.515 0 0 0-2.141 0z" style="fill:#e8a600" transform="translate(-172.361 -3645.954)"/>
                            </g>
                        </g>
                        <g data-name="Group 2101">
                            <g data-name="Group 2100">
                                <path data-name="Path 760" d="m203.812 3678.116-2.947-2.947a1.514 1.514 0 0 0-2.235.1 51.271 51.271 0 0 0-6.951 10.939l.949.949a1.513 1.513 0 0 0 2.14 0z" style="fill:#e8a600" transform="translate(-172.361 -3645.954)"/>
                            </g>
                        </g>
                        <g data-name="Group 2103">
                            <g data-name="Group 2102">
                                <path data-name="Path 761" d="m192.628 3728.826-1.056 1.056a51.3 51.3 0 0 0 6.9 10.978 1.514 1.514 0 0 0 2.24.109l3.1-3.1-9.044-9.044a1.513 1.513 0 0 0-2.14.001z" style="fill:#e8a600" transform="translate(-172.361 -3645.954)"/>
                            </g>
                        </g>
                        <g data-name="Group 2105">
                            <g data-name="Group 2104">
                                <path data-name="Path 762" d="m273.215 3737.87 2.874 2.875a1.614 1.614 0 0 0 2.392-.121 51.275 51.275 0 0 0 6.793-10.923l-.8-.8a1.614 1.614 0 0 0-2.282 0z" style="fill:#e8a600" transform="translate(-172.361 -3645.954)"/>
                            </g>
                        </g>
                        <g data-name="Group 2107">
                            <g data-name="Group 2106">
                                <path data-name="Path 763" d="m218.751 3663.177-1.156-1.156a1.516 1.516 0 0 0-1.733-.291 51.322 51.322 0 0 0-11.309 7.478l3.013 3.014a1.514 1.514 0 0 0 2.141 0z" style="fill:#e8a600" transform="translate(-172.361 -3645.954)"/>
                            </g>
                        </g>
                        <g data-name="Group 2109">
                            <g data-name="Group 2108">
                                <path data-name="Path 764" d="m284.411 3687.148.758-.757a51.271 51.271 0 0 0-6.913-10.97 1.514 1.514 0 0 0-2.239-.108l-2.8 2.8 9.032 9.032a1.529 1.529 0 0 0 2.162.003z" style="fill:#e8a600" transform="translate(-172.361 -3645.954)"/>
                            </g>
                        </g>
                        <g data-name="Group 2111">
                            <g data-name="Group 2110">
                                <path data-name="Path 765" d="m203.812 3707.993-9.044-9.044a1.513 1.513 0 0 0-2.14 0l-5.313 5.312a1.519 1.519 0 0 0-.441.989 51.9 51.9 0 0 0 .012 6.046l5.742 5.741a1.513 1.513 0 0 0 2.14 0z" style="fill:#e8a600" transform="translate(-172.361 -3645.954)"/>
                            </g>
                        </g>
                        <g data-name="Group 2113">
                            <g data-name="Group 2112">
                                <path data-name="Path 766" d="m269.461 3672.222 2.89-2.891a51.35 51.35 0 0 0-11.267-7.513 1.515 1.515 0 0 0-1.738.289l-1.07 1.07 9.044 9.045a1.514 1.514 0 0 0 2.141 0z" style="fill:#e8a600" transform="translate(-172.361 -3645.954)"/>
                            </g>
                        </g>
                        <g data-name="Group 2115">
                            <g data-name="Group 2114">
                                <path data-name="Path 767" d="m267.25 3713.958-8.974 8.974 8.974 8.973a1.614 1.614 0 0 0 2.282 0l8.973-8.973-8.973-8.974a1.614 1.614 0 0 0-2.282 0z" style="fill:#e8a600" transform="translate(-172.361 -3645.954)"/>
                            </g>
                        </g>
                        <g data-name="Group 2117">
                            <g data-name="Group 2116">
                                <path data-name="Path 768" d="m273.215 3707.993 8.973 8.973a1.612 1.612 0 0 0 2.282 0l4.954-4.954a1.613 1.613 0 0 0 .471-1.055 51.872 51.872 0 0 0-.061-6.574l-5.364-5.363a1.614 1.614 0 0 0-2.282 0z" style="fill:#e8a600" transform="translate(-172.361 -3645.954)"/>
                            </g>
                        </g>
                        <g data-name="Group 2119">
                            <g data-name="Group 2118">
                                <path data-name="Path 769" d="m239.584 3731.976 9.044-9.044-9.044-9.044a1.512 1.512 0 0 0-2.141 0l-9.044 9.044 9.044 9.044a1.515 1.515 0 0 0 2.141 0z" style="fill:#e8a600" transform="translate(-172.361 -3645.954)"/>
                            </g>
                        </g>
                        <g data-name="Group 2121">
                            <g data-name="Group 2120">
                                <path data-name="Path 770" d="m237.372 3743.835-8.973 8.974 6.41 6.409a1.621 1.621 0 0 0 1.065.472 51.85 51.85 0 0 0 5.3-.016 1.613 1.613 0 0 0 1.056-.471l6.4-6.394-8.974-8.974a1.614 1.614 0 0 0-2.284 0z" style="fill:#e8a600" transform="translate(-172.361 -3645.954)"/>
                            </g>
                        </g>
                        <g data-name="Group 2123">
                            <g data-name="Group 2122">
                                <path data-name="Path 771" d="m252.311 3728.9-8.973 8.973 8.973 8.974a1.614 1.614 0 0 0 2.282 0l8.973-8.974-8.973-8.973a1.614 1.614 0 0 0-2.282 0z" style="fill:#e8a600" transform="translate(-172.361 -3645.954)"/>
                            </g>
                        </g>
                        <g data-name="Group 2125">
                            <g data-name="Group 2124">
                                <path data-name="Path 772" d="m224.645 3746.914 9.044-9.044-9.044-9.044a1.513 1.513 0 0 0-2.14 0l-9.044 9.044 9.044 9.044a1.513 1.513 0 0 0 2.14 0z" style="fill:#e8a600" transform="translate(-172.361 -3645.954)"/>
                            </g>
                        </g>
                        <g data-name="Group 2127">
                            <g data-name="Group 2126">
                                <path data-name="Path 773" d="m207.566 3713.888-9.044 9.044 9.044 9.044a1.515 1.515 0 0 0 2.141 0l9.044-9.044-9.044-9.044a1.512 1.512 0 0 0-2.141 0z" style="fill:#e8a600" transform="translate(-172.361 -3645.954)"/>
                            </g>
                        </g>
                        <g data-name="Group 2129">
                            <g data-name="Group 2128">
                                <path data-name="Path 774" d="m222.505 3698.949-9.044 9.044 9.044 9.044a1.513 1.513 0 0 0 2.14 0l9.044-9.044-9.044-9.044a1.513 1.513 0 0 0-2.14 0z" style="fill:#e8a600" transform="translate(-172.361 -3645.954)"/>
                            </g>
                        </g>
                        <g data-name="Group 2131">
                            <g data-name="Group 2130">
                                <path data-name="Path 775" d="m224.645 3687.16 9.044-9.044-9.044-9.044a1.513 1.513 0 0 0-2.14 0l-9.044 9.044 9.044 9.044a1.513 1.513 0 0 0 2.14 0z" style="fill:#e8a600" transform="translate(-172.361 -3645.954)"/>
                            </g>
                        </g>
                        <g data-name="Group 2133">
                            <g data-name="Group 2132">
                                <path data-name="Path 776" d="m234.482 3657.094-6.083 6.083 9.044 9.045a1.514 1.514 0 0 0 2.141 0l9.044-9.045-6.067-6.067a1.518 1.518 0 0 0-.98-.441 51.9 51.9 0 0 0-6.11-.016 1.518 1.518 0 0 0-.989.441z" style="fill:#e8a600" transform="translate(-172.361 -3645.954)"/>
                            </g>
                        </g>
                        <g data-name="Group 2135">
                            <g data-name="Group 2134">
                                <path data-name="Path 777" d="m269.461 3702.1 9.044-9.044-9.044-9.045a1.514 1.514 0 0 0-2.141 0l-9.044 9.045 9.044 9.044a1.515 1.515 0 0 0 2.141 0z" style="fill:#e8a600" transform="translate(-172.361 -3645.954)"/>
                            </g>
                        </g>
                        <g data-name="Group 2137">
                            <g data-name="Group 2136">
                                <path data-name="Path 778" d="m209.707 3702.1 9.044-9.044-9.044-9.045a1.514 1.514 0 0 0-2.141 0l-9.044 9.045 9.044 9.044a1.515 1.515 0 0 0 2.141 0z" style="fill:#e8a600" transform="translate(-172.361 -3645.954)"/>
                            </g>
                        </g>
                        <g data-name="Group 2139">
                            <g data-name="Group 2138">
                                <path data-name="Path 779" d="m237.443 3684.01-9.044 9.045 9.044 9.044a1.515 1.515 0 0 0 2.141 0l9.044-9.044-9.044-9.045a1.514 1.514 0 0 0-2.141 0z" style="fill:#e8a600" transform="translate(-172.361 -3645.954)"/>
                            </g>
                        </g>
                        <g data-name="Group 2141">
                            <g data-name="Group 2140">
                                <path data-name="Path 780" d="m254.522 3717.037 9.044-9.044-9.044-9.044a1.513 1.513 0 0 0-2.14 0l-9.044 9.044 9.044 9.044a1.513 1.513 0 0 0 2.14 0z" style="fill:#e8a600" transform="translate(-172.361 -3645.954)"/>
                            </g>
                        </g>
                        <g data-name="Group 2143">
                            <g data-name="Group 2142">
                                <path data-name="Path 781" d="m252.382 3669.072-9.044 9.044 9.044 9.044a1.513 1.513 0 0 0 2.14 0l9.044-9.044-9.044-9.044a1.513 1.513 0 0 0-2.14 0z" style="fill:#e8a600" transform="translate(-172.361 -3645.954)"/>
                            </g>
                        </g>
                    </g>
                    <g data-name="Group 2149">
                        <g data-name="Group 2146">
                            <g data-name="Group 2145">
                                <path data-name="Path 782" d="m218.768 3724.982-8.076 8.076a2.955 2.955 0 0 1-4.173 0l-8.3-8.3a.614.614 0 1 1 .868-.868l8.3 8.3a1.724 1.724 0 0 0 2.436 0l8.077-8.076a.614.614 0 1 1 .868.868z" style="fill:#ffe5b8" transform="translate(-172.361 -3645.954)"/>
                            </g>
                        </g>
                        <g data-name="Group 2148">
                            <g data-name="Group 2147">
                                <path data-name="Path 783" d="m233.725 3739.939-8.076 8.076a2.953 2.953 0 0 1-4.173 0l-8.3-8.3a.614.614 0 0 1 .868-.868l8.3 8.3a1.725 1.725 0 0 0 2.437 0l8.076-8.076a.614.614 0 0 1 .868.868z" style="fill:#ffe5b8" transform="translate(-172.361 -3645.954)"/>
                            </g>
                        </g>
                    </g>
                    <g data-name="Group 2151">
                        <g data-name="Group 2150">
                            <path data-name="Path 784" d="m233.715 3710.035-8.077 8.076a2.952 2.952 0 0 1-4.172 0l-8.3-8.3a.614.614 0 0 1 .868-.868l8.3 8.3a1.724 1.724 0 0 0 2.436 0l8.076-8.076a.614.614 0 1 1 .869.868z" style="fill:#ffe5b8" transform="translate(-172.361 -3645.954)"/>
                        </g>
                    </g>
                    <g data-name="Group 2153">
                        <g data-name="Group 2152">
                            <path data-name="Path 785" d="m248.672 3724.992-8.076 8.076a2.953 2.953 0 0 1-4.173 0l-8.3-8.3a.614.614 0 0 1 .868-.868l8.3 8.3a1.724 1.724 0 0 0 2.436 0l8.077-8.076a.614.614 0 0 1 .868.868z" style="fill:#ffe5b8" transform="translate(-172.361 -3645.954)"/>
                        </g>
                    </g>
                    <g data-name="Group 2155">
                        <g data-name="Group 2154">
                            <path data-name="Path 786" d="m248.643 3695.107-8.076 8.076a2.955 2.955 0 0 1-4.173 0l-8.3-8.3a.614.614 0 1 1 .868-.868l8.3 8.3a1.727 1.727 0 0 0 2.437 0l8.076-8.077a.614.614 0 1 1 .868.869z" style="fill:#ffe5b8" transform="translate(-172.361 -3645.954)"/>
                        </g>
                    </g>
                    <g data-name="Group 2157">
                        <g data-name="Group 2156">
                            <path data-name="Path 787" d="m218.757 3695.078-8.076 8.076a2.955 2.955 0 0 1-4.173 0l-8.3-8.3a.614.614 0 0 1 .868-.868l8.3 8.3a1.725 1.725 0 0 0 2.437 0l8.076-8.076a.614.614 0 0 1 .868.868z" style="fill:#ffe5b8" transform="translate(-172.361 -3645.954)"/>
                        </g>
                    </g>
                    <g data-name="Group 2159">
                        <g data-name="Group 2158">
                            <path data-name="Path 788" d="m203.811 3710.025-8.077 8.076a2.954 2.954 0 0 1-4.172 0l-4.186-4.186a.614.614 0 0 1 .868-.868l4.186 4.186a1.725 1.725 0 0 0 2.436 0l8.076-8.077a.614.614 0 0 1 .869.869z" style="fill:#ffe5b8" transform="translate(-172.361 -3645.954)"/>
                        </g>
                    </g>
                    <g data-name="Group 2161">
                        <g data-name="Group 2160">
                            <path data-name="Path 789" d="m233.686 3680.149-8.076 8.077a2.955 2.955 0 0 1-4.173 0l-8.3-8.3a.614.614 0 1 1 .868-.868l8.3 8.3a1.724 1.724 0 0 0 2.436 0l8.077-8.076a.614.614 0 0 1 .868.868z" style="fill:#ffe5b8" transform="translate(-172.361 -3645.954)"/>
                        </g>
                    </g>
                    <g data-name="Group 2163">
                        <g data-name="Group 2162">
                            <path data-name="Path 790" d="m203.9 3680.13-8.076 8.076a2.953 2.953 0 0 1-4.173 0l-.074-.074a.614.614 0 0 1 .868-.868l.074.074a1.725 1.725 0 0 0 2.437 0l8.076-8.076a.614.614 0 0 1 .868.868z" style="fill:#ffe5b8" transform="translate(-172.361 -3645.954)"/>
                        </g>
                    </g>
                    <g data-name="Group 2165">
                        <g data-name="Group 2164">
                            <path data-name="Path 791" d="m218.829 3665.2-8.076 8.077a2.955 2.955 0 0 1-4.173 0l-2.221-2.222a.614.614 0 0 1 .868-.868l2.221 2.222a1.727 1.727 0 0 0 2.437 0l8.076-8.077a.614.614 0 1 1 .868.868z" style="fill:#ffe5b8" transform="translate(-172.361 -3645.954)"/>
                        </g>
                    </g>
                    <g data-name="Group 2167">
                        <g data-name="Group 2166">
                            <path data-name="Path 792" d="m248.633 3665.2-8.077 8.076a2.954 2.954 0 0 1-4.172 0l-8.3-8.3a.614.614 0 0 1 .868-.868l8.3 8.3a1.725 1.725 0 0 0 2.436 0l8.076-8.077a.614.614 0 1 1 .869.869z" style="fill:#ffe5b8" transform="translate(-172.361 -3645.954)"/>
                        </g>
                    </g>
                    <g data-name="Group 2169">
                        <g data-name="Group 2168">
                            <path data-name="Path 793" d="m263.6 3710.064-8.076 8.076a2.955 2.955 0 0 1-4.173 0l-8.3-8.3a.614.614 0 0 1 .868-.868l8.3 8.3a1.725 1.725 0 0 0 2.437 0l8.076-8.076a.614.614 0 1 1 .868.868z" style="fill:#ffe5b8" transform="translate(-172.361 -3645.954)"/>
                        </g>
                    </g>
                    <g data-name="Group 2171">
                        <g data-name="Group 2170">
                            <path data-name="Path 794" d="m263.676 3740-8.076 8.077a2.955 2.955 0 0 1-4.173 0l-8.3-8.3a.614.614 0 1 1 .868-.869l8.3 8.3a1.725 1.725 0 0 0 2.437 0l8.076-8.076a.614.614 0 0 1 .868.868z" style="fill:#ffe5b8" transform="translate(-172.361 -3645.954)"/>
                        </g>
                    </g>
                    <g data-name="Group 2173">
                        <g data-name="Group 2172">
                            <path data-name="Path 795" d="m278.6 3725.068-8.076 8.076a2.953 2.953 0 0 1-4.173 0l-8.3-8.3a.614.614 0 1 1 .868-.868l8.3 8.3a1.725 1.725 0 0 0 2.437 0l8.076-8.076a.614.614 0 0 1 .868.868z" style="fill:#ffe5b8" transform="translate(-172.361 -3645.954)"/>
                        </g>
                    </g>
                    <g data-name="Group 2175">
                        <g data-name="Group 2174">
                            <path data-name="Path 796" d="m289.759 3713.913-4.33 4.33a2.955 2.955 0 0 1-4.173 0l-8.3-8.3a.614.614 0 0 1 .868-.868l8.3 8.3a1.725 1.725 0 0 0 2.437 0l4.33-4.33a.614.614 0 0 1 .868.868z" style="fill:#ffe5b8" transform="translate(-172.361 -3645.954)"/>
                        </g>
                    </g>
                    <g data-name="Group 2180">
                        <g data-name="Group 2177">
                            <g data-name="Group 2176">
                                <path data-name="Path 797" d="m263.544 3680.205-8.076 8.077a2.955 2.955 0 0 1-4.173 0l-8.3-8.3a.614.614 0 1 1 .868-.868l8.3 8.3a1.727 1.727 0 0 0 2.437 0l8.076-8.077a.614.614 0 1 1 .868.868z" style="fill:#ffe5b8" transform="translate(-172.361 -3645.954)"/>
                            </g>
                        </g>
                        <g data-name="Group 2179">
                            <g data-name="Group 2178">
                                <path data-name="Path 798" d="m278.5 3695.163-8.076 8.076a2.955 2.955 0 0 1-4.173 0l-8.3-8.3a.614.614 0 0 1 .868-.868l8.3 8.3a1.725 1.725 0 0 0 2.437 0l8.076-8.076a.614.614 0 0 1 .868.868z" style="fill:#ffe5b8" transform="translate(-172.361 -3645.954)"/>
                            </g>
                        </g>
                    </g>
                    <g data-name="Group 2185">
                        <g data-name="Group 2182">
                            <g data-name="Group 2181">
                                <path data-name="Path 799" d="m272.516 3671.234-2.046 2.045a2.952 2.952 0 0 1-4.172 0l-8.3-8.3a.614.614 0 0 1 .868-.868l8.3 8.3a1.724 1.724 0 0 0 2.436 0l2.046-2.045a.614.614 0 1 1 .868.868z" style="fill:#ffe5b8" transform="translate(-172.361 -3645.954)"/>
                            </g>
                        </g>
                        <g data-name="Group 2184">
                            <g data-name="Group 2183">
                                <path data-name="Path 800" d="m285.428 3688.236-.011.011-.009.009a2.954 2.954 0 0 1-4.153-.02l-8.3-8.3a.614.614 0 0 1 .868-.868l8.3 8.3a1.725 1.725 0 0 0 2.437 0 .614.614 0 0 1 .868.868z" style="fill:#ffe5b8" transform="translate(-172.361 -3645.954)"/>
                            </g>
                        </g>
                    </g>
                    <g data-name="Group 2187">
                        <g data-name="Group 2186">
                            <path data-name="Path 801" d="M272.5 3748.694a.648.648 0 0 1-.047.043 58.5 58.5 0 0 1-10.239 6.937 3.2 3.2 0 0 1-3.8-.615l-.245-.245a.614.614 0 0 1 .869-.868l.244.245a1.978 1.978 0 0 0 2.349.406 57.5 57.5 0 0 0 10.052-6.812.614.614 0 0 1 .822.909z" style="fill:#ffe5b8" transform="translate(-172.361 -3645.954)"/>
                        </g>
                    </g>
                    <g data-name="Group 2189">
                        <g data-name="Group 2188">
                            <path data-name="Path 802" d="M279.386 3741.8a2.967 2.967 0 0 1-1.867.854 3.14 3.14 0 0 1-2.471-.909l-1.836-1.836a.614.614 0 0 1 .868-.868l1.836 1.836a1.912 1.912 0 0 0 1.506.553 1.7 1.7 0 0 0 1.267-.7 63.679 63.679 0 0 0 6.059-9.595.614.614 0 1 1 1.089.567 64.646 64.646 0 0 1-6.153 9.747 2.951 2.951 0 0 1-.298.351z" style="fill:#ffe5b8" transform="translate(-172.361 -3645.954)"/>
                        </g>
                    </g>
                    <g data-name="Group 2191">
                        <g data-name="Group 2190">
                            <path data-name="Path 803" d="m219.444 3754.151-1 1a3.118 3.118 0 0 1-3.62.582 55.229 55.229 0 0 1-11.471-7.767.614.614 0 1 1 .81-.922 54.046 54.046 0 0 0 11.216 7.594 1.891 1.891 0 0 0 2.2-.355l1-1a.614.614 0 1 1 .868.868z" style="fill:#ffe5b8" transform="translate(-172.361 -3645.954)"/>
                        </g>
                    </g>
                    <g data-name="Group 2193">
                        <g data-name="Group 2192">
                            <path data-name="Path 804" d="m204.36 3739.426-2.524 2.523a3.188 3.188 0 0 1-4.757-.275 55.068 55.068 0 0 1-6.7-10.9.613.613 0 1 1 1.113-.516 53.861 53.861 0 0 0 6.55 10.656 1.959 1.959 0 0 0 2.924.167l2.524-2.523a.614.614 0 1 1 .868.868z" style="fill:#ffe5b8" transform="translate(-172.361 -3645.954)"/>
                        </g>
                    </g>
                    <g data-name="Group 2195">
                        <g data-name="Group 2194">
                            <path data-name="Path 805" d="m248.57 3754.99-5.245 5.246a2.956 2.956 0 0 1-1.944.865c-1.87.095-3.766.1-5.634.017a2.958 2.958 0 0 1-1.96-.867l-5.261-5.261a.614.614 0 0 1 .868-.868l5.261 5.261a1.73 1.73 0 0 0 1.147.508c1.829.082 3.685.077 5.518-.016a1.735 1.735 0 0 0 1.137-.507l5.245-5.246a.614.614 0 1 1 .868.868z" style="fill:#ffe5b8" transform="translate(-172.361 -3645.954)"/>
                        </g>
                    </g>
                </g>
            </g>
        </g>
    </g>
</svg>
