<svg xmlns="http://www.w3.org/2000/svg" width="597.829" height="83.088" viewBox="0 0 597.829 83.088">
    <defs>
        <clipPath id="3qvp4tozza">
            <path data-name="Path 133" d="M496.554 5031.459s18.736-32.5 48.365-5.295c-32.455 26.195-48.365 5.295-48.365 5.295z" style="fill:none"/>
        </clipPath>
        <clipPath id="i5x8r26vxb">
            <path data-name="Path 137" d="M522.54 4989.153s9.734 36.23-30.454 37.943c4.426-41.471 30.454-37.943 30.454-37.943z" style="fill:none"/>
        </clipPath>
        <clipPath id="f7l90s70cc">
            <circle data-name="Ellipse 9" cx="28.775" cy="28.775" r="28.775" transform="translate(466.148 5011.751)" style="fill:none"/>
        </clipPath>
        <clipPath id="ek0bgt08hd">
            <path data-name="Path 143" d="m639.705 5011.855 4.94-13.3 3.477 9.716 12.25-5.162-5.023 9.733 17.212-.978-9.264 9.461 12 7.534-16.619 2a62.229 62.229 0 0 0-18.973-19.004z" style="fill:none"/>
        </clipPath>
        <clipPath id="s2hsfe2yze">
            <path data-name="Path 146" d="M627.7 5007.39c14.076.089 43.6 29.376 32.374 41.795s-54.731 18.824-65.373 7.489 12.099-49.416 32.999-49.284z" style="fill:none"/>
        </clipPath>
        <clipPath id="xe0i2tnsxf">
            <path data-name="Path 163" d="M802.644 5038.158c-1.009-6.061-6.215-10.834-13.82-13.657a9.114 9.114 0 0 0-.061-.431c-.791-4.748-5.217-8.381-11.556-10.264a5.677 5.677 0 0 0-.057-.456c-1.776-10.668-14.366-22.475-14.366-22.475 2.592 15.571-23.033 16.881-21.118 28.383.026.152.058.3.094.45-5.386 3.836-8.4 8.707-7.606 13.455.024.143.052.285.082.427-6.28 5.135-9.658 11.338-8.649 17.4 2.023 12.151 20.913 19.129 42.192 15.586s36.888-16.267 34.865-28.418z" style="fill:none"/>
        </clipPath>
    </defs>
    <g data-name="Group 402">
        <g data-name="Group 313">
            <g data-name="Group 310">
                <g data-name="Group 309">
                    <g data-name="Group 307">
                        <g data-name="Group 305">
                            <path data-name="Path 127" d="m359.858 5056.632-15.552-13.707c-4.532-3.994-3.838-18.342 2.661-23.042l23.221-8.894c6.5-4.7 15.524-5.278 20.056-1.284l17.776 6.6c4.531 3.994.7 18.217-5.8 22.916l-22.3 16.13c-6.505 4.697-15.53 5.274-20.062 1.281z" style="fill:#ccc200" transform="translate(-341.085 -4987.644)"/>
                        </g>
                        <g data-name="Group 306">
                            <path data-name="Path 128" d="m361.207 5047.12-15.552-13.706c-4.532-3.994-2.922-11.107 3.577-15.807l22.3-16.129c6.5-4.7 15.524-5.278 20.056-1.284l15.552 13.707c4.532 3.994 2.922 11.107-3.577 15.806l-22.3 16.13c-6.499 4.7-15.524 5.277-20.056 1.283z" style="fill:#fffb71" transform="translate(-341.085 -4987.644)"/>
                        </g>
                    </g>
                    <g data-name="Group 308">
                        <path data-name="Path 129" d="M369.093 5061.494a13.55 13.55 0 0 1-9.067-3.013l-15.553-13.707c-1.955-1.724-3.147-4.913-3.356-8.982-.292-5.71 1.459-11.511 4.467-14.805a18.879 18.879 0 0 1 3.923-3.765l22.305-16.129a22.364 22.364 0 0 1 11.513-4.171c4.182-.267 7.849.789 10.327 2.973L409.2 5013.6a8.761 8.761 0 0 1 3.055 6.475c.65 3.066.157 7.164-1.36 11.276-1.577 4.277-4.03 7.849-6.729 9.8l-22.3 16.13a22.358 22.358 0 0 1-11.513 4.17q-.638.044-1.26.043zm15.505-61.737a19.484 19.484 0 0 0-11.109 3.656l-22.305 16.129a16 16 0 0 0-3.365 3.234l-.087.1c-2.538 2.747-4.013 7.758-3.756 12.767.164 3.2 1.057 5.806 2.39 6.98l15.552 13.707c4 3.526 12.368 2.9 18.271-1.37l22.3-16.129c2.25-1.627 4.335-4.715 5.721-8.471 1.335-3.619 1.791-7.283 1.221-9.8l-.034-.147v-.152a5.974 5.974 0 0 0-2.087-4.513l-15.553-13.707a10.782 10.782 0 0 0-7.157-2.284z" style="fill:#5b3a00" transform="translate(-341.085 -4987.644)"/>
                    </g>
                </g>
            </g>
            <g data-name="Group 311">
                <path data-name="Path 130" d="M361.571 5018.4a1.431 1.431 0 0 1-.875-2.565c.531-.409 13.055-10.053 17.263-12.5 4.688-2.722 10.219-.87 10.453-.789a1.431 1.431 0 0 1-.928 2.708c-.057-.019-4.552-1.5-8.087.556-4.048 2.351-16.825 12.19-16.953 12.289a1.424 1.424 0 0 1-.873.301z" style="fill:#fff" transform="translate(-341.085 -4987.644)"/>
            </g>
            <g data-name="Group 312" transform="translate(-341.085 -4987.644)">
                <circle data-name="Ellipse 5" cx="1.482" cy="1.482" r="1.482" transform="translate(356.716 5017.797)" style="fill:#fff"/>
            </g>
        </g>
        <g data-name="Group 335">
            <g data-name="Group 333">
                <g data-name="Group 319">
                    <g data-name="Group 317">
                        <g data-name="Group 316" style="clip-path:url(#3qvp4tozza)" transform="translate(-341.085 -4987.644)">
                            <g data-name="Group 314">
                                <path data-name="Path 131" d="M496.554 5031.459s18.736-32.5 48.365-5.295c-32.455 26.195-48.365 5.295-48.365 5.295z" style="fill:#086d00"/>
                            </g>
                            <g data-name="Group 315">
                                <path data-name="Path 132" d="M490.668 5027.289s18.736-32.5 48.365-5.295c-32.455 26.195-48.365 5.295-48.365 5.295z" style="fill:#09a800"/>
                            </g>
                        </g>
                    </g>
                    <g data-name="Group 318">
                        <path data-name="Path 134" d="M514.79 5040.792a28.816 28.816 0 0 1-3.467-.207 24.323 24.323 0 0 1-15.907-8.259l-.577-.757.475-.825a39.962 39.962 0 0 1 5.912-7.446c5.057-5.068 10.855-8.227 16.767-9.136 9.078-1.4 18.463 2.288 27.894 10.948l1.224 1.124-1.293 1.043c-11.127 8.981-21.546 13.515-31.028 13.515zm-16.45-9.477a22.41 22.41 0 0 0 13.4 6.437 30.676 30.676 0 0 0 13.642-1.752 61.861 61.861 0 0 0 17.316-9.9c-8.318-7.234-16.471-10.3-24.251-9.109-10.927 1.668-18.136 11.36-20.107 14.324z" style="fill:#5b3a00" transform="translate(-341.085 -4987.644)"/>
                    </g>
                </g>
                <g data-name="Group 325">
                    <g data-name="Group 323">
                        <g data-name="Group 322" style="clip-path:url(#i5x8r26vxb)" transform="translate(-341.085 -4987.644)">
                            <g data-name="Group 320">
                                <path data-name="Path 135" d="M522.54 4989.153s9.734 36.23-30.454 37.943c4.426-41.471 30.454-37.943 30.454-37.943z" style="fill:#086d00"/>
                            </g>
                            <g data-name="Group 321">
                                <path data-name="Path 136" d="M520.655 4983.442s9.734 36.23-30.455 37.943c4.427-41.472 30.455-37.943 30.455-37.943z" style="fill:#09a800"/>
                            </g>
                        </g>
                    </g>
                    <g data-name="Group 324">
                        <path data-name="Path 138" d="m490.486 5028.6.177-1.653c1.7-15.972 6.745-27.344 14.981-33.8a24.327 24.327 0 0 1 17.088-5.408l.943.128.247.919a39.889 39.889 0 0 1 1.086 9.445c.007 7.16-1.859 13.493-5.4 18.316-5.432 7.406-14.672 11.438-27.464 11.983zm30.606-38.082a22.481 22.481 0 0 0-13.739 4.926 30.675 30.675 0 0 0-8.408 10.885 61.816 61.816 0 0 0-5.242 19.246c11-.766 18.928-4.364 23.589-10.706 6.546-8.907 4.789-20.859 4.087-24.349z" style="fill:#5b3a00" transform="translate(-341.085 -4987.644)"/>
                    </g>
                </g>
                <g data-name="Group 331">
                    <g data-name="Group 330" style="clip-path:url(#f7l90s70cc)" transform="translate(-341.085 -4987.644)">
                        <g data-name="Group 326">
                            <circle data-name="Ellipse 6" cx="28.775" cy="28.775" r="28.775" transform="translate(466.148 5013.247)" style="fill:#3924b5"/>
                        </g>
                        <g data-name="Group 327">
                            <circle data-name="Ellipse 7" cx="28.775" cy="28.775" r="28.775" transform="translate(467.702 5003.905)" style="fill:#6034e8"/>
                        </g>
                        <g data-name="Group 328">
                            <path data-name="Path 139" d="m490.306 5039.714.96 1.946a3.115 3.115 0 0 0 2.343 1.7l2.148.312a3.111 3.111 0 0 1 1.725 5.307l-1.554 1.515a3.111 3.111 0 0 0-.9 2.755l.367 2.139a3.111 3.111 0 0 1-4.515 3.28l-1.921-1.01a3.115 3.115 0 0 0-2.9 0l-1.922 1.01a3.111 3.111 0 0 1-4.515-3.28l.367-2.139a3.111 3.111 0 0 0-.895-2.755l-1.554-1.515a3.111 3.111 0 0 1 1.725-5.307l2.148-.312a3.115 3.115 0 0 0 2.343-1.7l.96-1.946a3.112 3.112 0 0 1 5.59 0z" style="fill:#3924b5"/>
                        </g>
                        <g data-name="Group 329">
                            <circle data-name="Ellipse 8" cx="5.417" cy="5.417" r="5.417" transform="translate(482.098 5043.965)" style="fill:#6034e8"/>
                        </g>
                    </g>
                </g>
                <g data-name="Group 332">
                    <path data-name="Path 140" d="M494.923 5070.732a30.206 30.206 0 1 1 30.206-30.206 30.24 30.24 0 0 1-30.206 30.206zm0-57.549a27.344 27.344 0 1 0 27.343 27.343 27.374 27.374 0 0 0-27.343-27.343z" style="fill:#5b3a00" transform="translate(-341.085 -4987.644)"/>
                </g>
            </g>
            <g data-name="Group 334" transform="translate(-341.085 -4987.644)">
                <ellipse data-name="Ellipse 10" cx="8.265" cy="6.558" rx="8.265" ry="6.558" transform="translate(494.923 5016.857)" style="fill:#9c85ff"/>
            </g>
        </g>
        <g data-name="Group 376">
            <g data-name="Group 339">
                <g data-name="Group 338" style="clip-path:url(#ek0bgt08hd)" transform="translate(-341.085 -4987.644)">
                    <g data-name="Group 336">
                        <path data-name="Path 141" d="m639.705 5011.852 4.943-13.3 3.475 9.717 12.25-5.16-5.024 9.732 17.212-.976-9.265 9.46 12 7.536-16.62 1.994a62.224 62.224 0 0 0-18.971-19.003z" style="fill:#086d00"/>
                    </g>
                    <g data-name="Group 337">
                        <path data-name="Path 142" d="m636.381 5007.81 4.94-13.3 4.861 16.532 10.866-11.978-5.828 15.641 18.549-5.5-11.221 11.45 13.422 4.154-16.62 2a62.218 62.218 0 0 0-18.969-18.999z" style="fill:#09a800"/>
                    </g>
                </g>
            </g>
            <g data-name="Group 343">
                <g data-name="Group 342" style="clip-path:url(#s2hsfe2yze)" transform="translate(-341.085 -4987.644)">
                    <g data-name="Group 340">
                        <path data-name="Path 144" d="M627.7 5007.39c14.076.089 43.6 29.376 32.374 41.795s-54.731 18.824-65.373 7.489 12.099-49.416 32.999-49.284z" style="fill:#992e2e"/>
                    </g>
                    <g data-name="Group 341">
                        <path data-name="Path 145" d="M631.236 5001.194c14.076.09 43.6 29.376 32.374 41.8s-54.731 18.824-65.373 7.489 12.107-49.421 32.999-49.289z" style="fill:#ff2727"/>
                    </g>
                </g>
            </g>
            <g data-name="Group 345">
                <g data-name="Group 344">
                    <path data-name="Path 147" d="M633.842 5007.708a.239.239 0 0 0 0-.478.239.239 0 0 0 0 .478z" style="fill:#5b3a00" transform="translate(-341.085 -4987.644)"/>
                </g>
            </g>
            <g data-name="Group 346">
                <path data-name="Path 148" d="M616.214 5064c-6.511 0-17.432-.882-22.56-6.343-4.2-4.477-4.133-12.729.193-22.64 6.159-14.108 20.064-29.056 33.741-29.056h.118c5.039.032 11.96 3.389 18.99 9.21 6.957 5.761 12.548 12.7 15.337 19.032 2.895 6.575 2.584 12.088-.9 15.944s-10.14 7.4-18.743 9.965a94.741 94.741 0 0 1-25.485 3.884c-.224.004-.455.004-.691.004zm11.376-55.176c-12.011 0-25.243 13.877-31.119 27.339-3.79 8.682-4.063 15.984-.73 19.535s11.046 5.534 21.137 5.437a93.118 93.118 0 0 0 24.692-3.765c8.108-2.422 14.3-5.669 17.439-9.141 1.863-2.062 3.445-5.968.4-12.871-2.577-5.853-8.014-12.575-14.543-17.981-6.434-5.328-12.857-8.525-17.182-8.553z" style="fill:#5b3a00" transform="translate(-341.085 -4987.644)"/>
            </g>
            <g data-name="Group 347">
                <path data-name="Path 149" d="m657.9 5032.393-.471-.822a61.42 61.42 0 0 0-18.5-18.515l-.97-.622 6.712-18.055 4.287 11.988 14.495-6.106-5.685 11.013 18.4-1.043-10.608 10.831 13.917 8.743zm-16.457-21.113a64.382 64.382 0 0 1 17.968 18.048l11.693-1.4-10.074-6.328 7.923-8.089-16.025.908 4.362-8.451-10.006 4.215-2.662-7.446z" style="fill:#5b3a00" transform="translate(-341.085 -4987.644)"/>
            </g>
            <g data-name="Group 348" transform="translate(-341.085 -4987.644)">
                <ellipse data-name="Ellipse 11" cx="2.551" cy="1.583" rx="2.551" ry="1.583" transform="rotate(-17.698 16468.004 544.665)" style="fill:#ffea55"/>
            </g>
            <g data-name="Group 349" transform="translate(-341.085 -4987.644)">
                <ellipse data-name="Ellipse 12" cx="2.551" cy="1.583" rx="2.551" ry="1.583" transform="rotate(-17.698 16443.987 457.321)" style="fill:#ffea55"/>
            </g>
            <g data-name="Group 350" transform="translate(-341.085 -4987.644)">
                <ellipse data-name="Ellipse 13" cx="2.551" cy="1.583" rx="2.551" ry="1.583" transform="rotate(-17.698 16449.324 528.606)" style="fill:#ffea55"/>
            </g>
            <g data-name="Group 351" transform="translate(-341.085 -4987.644)">
                <ellipse data-name="Ellipse 14" cx="2.551" cy="1.583" rx="2.551" ry="1.583" transform="rotate(-17.698 16445.421 495.946)" style="fill:#ffea55"/>
            </g>
            <g data-name="Group 352" transform="translate(-341.085 -4987.644)">
                <ellipse data-name="Ellipse 15" cx="2.551" cy="1.583" rx="2.551" ry="1.583" transform="rotate(-17.698 16471.873 440.03)" style="fill:#ffea55"/>
            </g>
            <g data-name="Group 353" transform="translate(-341.085 -4987.644)">
                <ellipse data-name="Ellipse 16" cx="2.551" cy="1.583" rx="2.551" ry="1.583" transform="rotate(-17.698 16473.344 469.76)" style="fill:#ffea55"/>
            </g>
            <g data-name="Group 354" transform="translate(-341.085 -4987.644)">
                <ellipse data-name="Ellipse 17" cx="2.551" cy="1.583" rx="2.551" ry="1.583" transform="rotate(-17.698 16426.404 538.189)" style="fill:#ffea55"/>
            </g>
            <g data-name="Group 355" transform="translate(-341.085 -4987.644)">
                <ellipse data-name="Ellipse 18" cx="2.551" cy="1.583" rx="2.551" ry="1.583" transform="rotate(-17.698 16488.667 560.902)" style="fill:#ffea55"/>
            </g>
            <g data-name="Group 356" transform="translate(-341.085 -4987.644)">
                <ellipse data-name="Ellipse 19" cx="2.551" cy="1.583" rx="2.551" ry="1.583" transform="rotate(-17.698 16497.965 523.474)" style="fill:#ffea55"/>
            </g>
            <g data-name="Group 357" transform="translate(-341.085 -4987.644)">
                <ellipse data-name="Ellipse 20" cx="2.551" cy="1.583" rx="2.551" ry="1.583" transform="rotate(-17.698 16517.196 544.172)" style="fill:#ffea55"/>
            </g>
            <g data-name="Group 358" transform="translate(-341.085 -4987.644)">
                <ellipse data-name="Ellipse 21" cx="2.551" cy="1.583" rx="2.551" ry="1.583" transform="rotate(-17.698 16525.9 511.146)" style="fill:#ffea55"/>
            </g>
            <g data-name="Group 359" transform="translate(-341.085 -4987.644)">
                <ellipse data-name="Ellipse 22" cx="2.551" cy="1.583" rx="2.551" ry="1.583" transform="rotate(-17.698 16539.107 579.521)" style="fill:#ffea55"/>
            </g>
            <g data-name="Group 360" transform="translate(-341.085 -4987.644)">
                <ellipse data-name="Ellipse 23" cx="2.551" cy="1.583" rx="2.551" ry="1.583" transform="rotate(-17.698 16547.815 546.495)" style="fill:#ffea55"/>
            </g>
            <g data-name="Group 361" transform="translate(-341.085 -4987.644)">
                <ellipse data-name="Ellipse 24" cx="2.551" cy="1.583" rx="2.551" ry="1.583" transform="rotate(-17.698 16506.782 444.548)" style="fill:#ffea55"/>
            </g>
            <g data-name="Group 362" transform="translate(-341.085 -4987.644)">
                <ellipse data-name="Ellipse 25" cx="2.551" cy="1.583" rx="2.551" ry="1.583" transform="rotate(-17.698 16547.42 500.585)" style="fill:#ffea55"/>
            </g>
            <g data-name="Group 363" transform="translate(-341.085 -4987.644)">
                <ellipse data-name="Ellipse 26" cx="2.551" cy="1.583" rx="2.551" ry="1.583" transform="rotate(-17.698 16490.953 491.794)" style="fill:#ffea55"/>
            </g>
            <g data-name="Group 364" transform="translate(-341.085 -4987.644)">
                <ellipse data-name="Ellipse 27" cx="2.551" cy="1.583" rx="2.551" ry="1.583" transform="rotate(-17.698 16468.383 502.191)" style="fill:#ffea55"/>
            </g>
            <g data-name="Group 365" transform="translate(-341.085 -4987.644)">
                <ellipse data-name="Ellipse 28" cx="2.551" cy="1.583" rx="2.551" ry="1.583" transform="rotate(-17.698 16516.084 481.545)" style="fill:#ffea55"/>
            </g>
            <g data-name="Group 366" transform="translate(-341.085 -4987.644)">
                <ellipse data-name="Ellipse 29" cx="2.551" cy="1.583" rx="2.551" ry="1.583" transform="rotate(-17.698 16534.469 461.963)" style="fill:#ffea55"/>
            </g>
            <g data-name="Group 367" transform="translate(-341.085 -4987.644)">
                <ellipse data-name="Ellipse 30" cx="2.551" cy="1.583" rx="2.551" ry="1.583" transform="rotate(-17.698 16524.653 432.363)" style="fill:#ffea55"/>
            </g>
            <g data-name="Group 368" transform="translate(-341.085 -4987.644)">
                <ellipse data-name="Ellipse 31" cx="2.551" cy="1.583" rx="2.551" ry="1.583" transform="rotate(-17.698 16463.403 582.041)" style="fill:#ffea55"/>
            </g>
            <g data-name="Group 369" transform="translate(-341.085 -4987.644)">
                <ellipse data-name="Ellipse 32" cx="2.551" cy="1.583" rx="2.551" ry="1.583" transform="rotate(-17.698 16443.815 563.988)" style="fill:#ffea55"/>
            </g>
            <g data-name="Group 370" transform="translate(-341.085 -4987.644)">
                <ellipse data-name="Ellipse 33" cx="2.551" cy="1.583" rx="2.551" ry="1.583" transform="rotate(-17.698 16487.23 592.422)" style="fill:#ffea55"/>
            </g>
            <g data-name="Group 371" transform="translate(-341.085 -4987.644)">
                <ellipse data-name="Ellipse 34" cx="2.551" cy="1.583" rx="2.551" ry="1.583" transform="rotate(-17.698 16514.802 575.04)" style="fill:#ffea55"/>
            </g>
            <g data-name="Group 372" transform="translate(-341.085 -4987.644)">
                <ellipse data-name="Ellipse 35" cx="2.551" cy="1.583" rx="2.551" ry="1.583" transform="rotate(-17.698 16514.31 608.664)" style="fill:#ffea55"/>
            </g>
            <g data-name="Group 373" transform="translate(-341.085 -4987.644)">
                <ellipse data-name="Ellipse 36" cx="4.833" cy="8.414" rx="4.833" ry="8.414" transform="rotate(-73.879 3646.913 2096.963)" style="fill:#f99"/>
            </g>
            <g data-name="Group 374" transform="translate(-341.085 -4987.644)">
                <ellipse data-name="Ellipse 37" cx="2.551" cy="1.583" rx="2.551" ry="1.583" transform="rotate(-17.698 16413.457 510.318)" style="fill:#ffea55"/>
            </g>
            <g data-name="Group 375" transform="translate(-341.085 -4987.644)">
                <ellipse data-name="Ellipse 38" cx="2.551" cy="1.583" rx="2.551" ry="1.583" transform="rotate(-17.698 16422.559 480.04)" style="fill:#ffea55"/>
            </g>
        </g>
        <g data-name="Group 391">
            <g data-name="Group 389">
                <g data-name="Group 380">
                    <g data-name="Group 377">
                        <path data-name="Path 150" d="m932.191 5042.757-67.6 19.858a5.623 5.623 0 0 1-6.52-3.623l-9.22-32.229a3.17 3.17 0 0 1 .073-2.086 2.992 2.992 0 0 1 2-1.71l67.6-19.857a5.621 5.621 0 0 1 6.52 3.622l9.219 32.229a2.931 2.931 0 0 1-2.072 3.796z" style="fill:#7c4a1d" transform="translate(-341.085 -4987.644)"/>
                    </g>
                    <g data-name="Group 378">
                        <path data-name="Path 151" d="m851.781 5016.931-2.861 7.746 6.5 2.515-.676-10.338z" style="fill:#7c4a1d" transform="translate(-341.085 -4987.644)"/>
                    </g>
                    <g data-name="Group 379">
                        <path data-name="Path 152" d="m934.126 5041.19 2.942-7.941-5.967-.488.028 5.677z" style="fill:#7c4a1d" transform="translate(-341.085 -4987.644)"/>
                    </g>
                </g>
                <g data-name="Group 381">
                    <path data-name="Path 153" d="m935.028 5035.066-67.6 19.858a5.624 5.624 0 0 1-6.521-3.623l-9.219-32.229a2.932 2.932 0 0 1 2.071-3.8l67.6-19.857a5.621 5.621 0 0 1 6.52 3.622l9.219 32.229a2.931 2.931 0 0 1-2.07 3.8z" style="fill:#9e6425" transform="translate(-341.085 -4987.644)"/>
                </g>
                <g data-name="Group 384">
                    <g data-name="Group 382">
                        <path data-name="Path 154" d="m894.595 5040.832-26.448 7.769a.923.923 0 0 1-1.155-.613l-7.358-25.721a.94.94 0 0 1 .652-1.144l26.449-7.769a.923.923 0 0 1 1.155.613l7.357 25.721a.938.938 0 0 1-.652 1.144z" style="fill:#7c4a1d" transform="translate(-341.085 -4987.644)"/>
                    </g>
                    <g data-name="Group 383">
                        <path data-name="Path 155" d="m928.934 5030.746-26.449 7.768a.923.923 0 0 1-1.155-.613l-7.357-25.72a.938.938 0 0 1 .652-1.144l26.448-7.769a.923.923 0 0 1 1.155.613l7.358 25.721a.94.94 0 0 1-.652 1.144z" style="fill:#7c4a1d" transform="translate(-341.085 -4987.644)"/>
                    </g>
                </g>
                <g data-name="Group 385">
                    <path data-name="Path 156" d="M865.633 5053.729a2.307 2.307 0 0 1-2.209-1.647l-5.97-20.022a2.306 2.306 0 1 1 4.42-1.318l5.321 17.848 20.237-5.675a2.306 2.306 0 0 1 1.246 4.44l-22.422 6.288a2.312 2.312 0 0 1-.623.086z" style="fill:#d69554" transform="translate(-341.085 -4987.644)"/>
                </g>
                <g data-name="Group 386">
                    <path data-name="Path 157" d="M900.084 5043.6a2.306 2.306 0 0 1-2.208-1.647l-5.97-20.022a2.306 2.306 0 1 1 4.42-1.318l5.321 17.848 20.237-5.675a2.306 2.306 0 0 1 1.245 4.441l-22.421 6.287a2.319 2.319 0 0 1-.624.086z" style="fill:#d69554" transform="translate(-341.085 -4987.644)"/>
                </g>
                <g data-name="Group 387">
                    <path data-name="Path 158" d="m860.459 5025.238 25.144-7.292 7.15 23.347 1.659-.34a1.041 1.041 0 0 0 .843-1.239l-7.373-25.87a.874.874 0 0 0-1.089-.493l-26.246 7.616a1.222 1.222 0 0 0-.913 1.574z" style="fill:#5b3414" transform="translate(-341.085 -4987.644)"/>
                </g>
                <g data-name="Group 388">
                    <path data-name="Path 159" d="m894.815 5015.124 25.148-7.255 6.614 23.235 2.181-.267a1.041 1.041 0 0 0 .842-1.239l-7.373-25.87a.875.875 0 0 0-1.089-.493l-26.246 7.616a1.221 1.221 0 0 0-.912 1.574z" style="fill:#5b3414" transform="translate(-341.085 -4987.644)"/>
                </g>
            </g>
            <g data-name="Group 390">
                <path data-name="Path 160" d="M863.613 5064.386a7.081 7.081 0 0 1-3.389-.9 6.727 6.727 0 0 1-3.289-3.926l-9.22-32.228a4.586 4.586 0 0 1 .115-3l2.728-7.386c.04-.128.088-.256.145-.391l.025-.055a4.408 4.408 0 0 1 2.868-2.425l67.6-19.858a6.634 6.634 0 0 1 5.01.677 6.722 6.722 0 0 1 3.289 3.925l9.22 32.229a4.636 4.636 0 0 1-.026 2.744 1.135 1.135 0 0 1-.04.125l-2.757 7.444a4.077 4.077 0 0 1-.189.508 1.364 1.364 0 0 1-.106.221 4.448 4.448 0 0 1-2.763 2.212l-67.6 19.857a5.763 5.763 0 0 1-1.621.227zm-10.286-46.686a1.14 1.14 0 0 0-.044.119 1.281 1.281 0 0 1-.027.081l-2.749 7.443-.018.046a1.754 1.754 0 0 0-.021 1.15l9.219 32.229a3.913 3.913 0 0 0 1.918 2.205 3.838 3.838 0 0 0 2.823.438l67.6-19.858a1.6 1.6 0 0 0 1.044-.813l.01-.021a1.331 1.331 0 0 0 .073-.2 1.094 1.094 0 0 1 .036-.11l2.74-7.4c.008-.029.018-.057.028-.086a1.786 1.786 0 0 0 .005-1.1l-9.22-32.229a3.916 3.916 0 0 0-1.917-2.205 3.836 3.836 0 0 0-2.824-.438l-67.6 19.858a1.583 1.583 0 0 0-1.064.853z" style="fill:#5b3a00" transform="translate(-341.085 -4987.644)"/>
            </g>
        </g>
        <g data-name="Group 401">
            <g data-name="Group 400">
                <g data-name="Group 395">
                    <g data-name="Group 394" style="clip-path:url(#xe0i2tnsxf)" transform="translate(-341.085 -4987.644)">
                        <g data-name="Group 392">
                            <path data-name="Path 161" d="M802.644 5038.158c-1.009-6.061-6.215-10.834-13.82-13.657a9.114 9.114 0 0 0-.061-.431c-.791-4.748-5.217-8.381-11.556-10.264a5.677 5.677 0 0 0-.057-.456c-1.776-10.668-14.366-22.475-14.366-22.475 2.592 15.571-23.033 16.881-21.118 28.383.026.152.058.3.094.45-5.386 3.836-8.4 8.707-7.606 13.455.024.143.052.285.082.427-6.28 5.135-9.658 11.338-8.649 17.4 2.023 12.151 20.913 19.129 42.192 15.586s36.888-16.267 34.865-28.418z" style="fill:#d6cebf"/>
                        </g>
                        <g data-name="Group 393">
                            <path data-name="Path 162" d="M807.713 5039.977c-1.009-6.061-3.267-9.067-10.872-11.89a9.114 9.114 0 0 0-.061-.431c-.791-4.748-5.217-8.381-11.556-10.264a5.677 5.677 0 0 0-.057-.456c-1.776-10.668-21.051-24.077-21.051-24.077 2.592 15.57-18.856 18.3-12.832 30.016a1.375 1.375 0 0 1 .094.377c-6.109 1.021-11.368 10.827-2.175 17.234.119.083-.007 0 .024.144-7.707.776-12.165 6.142-11.156 12.2 2.024 12.151 17.828 13.75 39.106 10.207s32.559-10.909 30.536-23.06z" style="fill:#fff"/>
                        </g>
                    </g>
                </g>
                <g data-name="Group 396">
                    <path data-name="Path 164" d="M756.8 5068.932a51.871 51.871 0 0 1-17.831-2.922c-8.471-3.13-13.724-8.381-14.791-14.786-1.03-6.189 1.988-12.628 8.511-18.2-.621-4.8 2.09-9.826 7.509-13.938-.731-6 4.824-9.492 10.2-12.868 3.052-1.917 6.209-3.9 8.371-6.344a9.932 9.932 0 0 0 2.606-8.759 1.431 1.431 0 0 1 2.391-1.28c.522.49 12.66 11.977 14.727 22.877 6.458 2.134 10.648 6.007 11.615 10.751 7.978 3.161 12.92 8.275 13.951 14.464 1.066 6.405-2.2 13.075-9.2 18.781-6.775 5.522-16.307 9.529-26.84 11.283a68.469 68.469 0 0 1-11.219.941zm7.524-74.435a13.045 13.045 0 0 1-3.41 7.269c-2.436 2.754-5.77 4.848-8.994 6.872-5.953 3.739-9.518 6.3-8.839 10.385.018.107.041.219.072.342a1.431 1.431 0 0 1-.559 1.509c-5.132 3.654-7.692 8.047-7.025 12.054.02.121.044.241.069.36a1.43 1.43 0 0 1-.493 1.41c-6.139 5.02-9.031 10.722-8.143 16.056s5.493 9.812 12.959 12.57c7.739 2.859 17.536 3.512 27.586 1.839s19.106-5.465 25.5-10.678c6.17-5.028 9.077-10.744 8.187-16.092-.888-5.333-5.471-9.791-12.906-12.551a1.43 1.43 0 0 1-.924-1.172q-.021-.183-.051-.366c-.667-4.005-4.513-7.332-10.551-9.126a1.435 1.435 0 0 1-1.019-1.247 4.905 4.905 0 0 0-.042-.346c-1.2-7.185-7.741-15.111-11.42-19.085z" style="fill:#5b3a00" transform="translate(-341.085 -4987.644)"/>
                </g>
                <g data-name="Group 397">
                    <path data-name="Path 165" d="M755.349 5024.957c-9.278 0-14.23-3.925-14.493-4.14a1.431 1.431 0 0 1 1.8-2.222 16.858 16.858 0 0 0 5.365 2.491 30.171 30.171 0 0 0 15.747-.074 1.431 1.431 0 1 1 .687 2.779 37.883 37.883 0 0 1-9.106 1.166z" style="fill:#5b3a00" transform="translate(-341.085 -4987.644)"/>
                </g>
                <g data-name="Group 398">
                    <path data-name="Path 166" d="M779.664 5035.749a1.431 1.431 0 0 1-.272-2.836c3.133-.61 7.2-4.324 8.025-8.679a1.432 1.432 0 0 1 2.813.533c-1.089 5.742-6.19 10.157-10.291 10.955a1.442 1.442 0 0 1-.275.027z" style="fill:#5b3a00" transform="translate(-341.085 -4987.644)"/>
                </g>
                <g data-name="Group 399">
                    <path data-name="Path 167" d="M749.2 5041.918a1.438 1.438 0 0 1-.144-.008c-10.335-1.038-15.686-7.128-15.909-7.386a1.432 1.432 0 0 1 2.168-1.871 22.6 22.6 0 0 0 14.027 6.409 1.432 1.432 0 0 1-.142 2.856z" style="fill:#5b3a00" transform="translate(-341.085 -4987.644)"/>
                </g>
            </g>
        </g>
    </g>
</svg>
