<svg xmlns="http://www.w3.org/2000/svg" xmlns:xlink="http://www.w3.org/1999/xlink" viewBox="0 0 319.49 318.69"><defs><style>.cls-1{fill:none;}.cls-2{isolation:isolate;}.cls-3{fill:#5b3a00;}.cls-4{clip-path:url(#clip-path);}.cls-5{fill:#fcc;}.cls-6{opacity:0.25;}.cls-7{clip-path:url(#clip-path-2);}.cls-8{fill:#0067c4;}.cls-9{fill:#a33131;}.cls-10{fill:#cecece;}.cls-11{fill:#3e9aff;}.cls-12{fill:#fff;}.cls-13{clip-path:url(#clip-path-3);}.cls-14{fill:#e0b673;}.cls-15{fill:#ffe8ae;}.cls-16{clip-path:url(#clip-path-4);}.cls-17{fill:#b78d4f;}.cls-18{mix-blend-mode:multiply;}.cls-19{clip-path:url(#clip-path-5);}.cls-20{fill:#fd7bb3;}.cls-21{fill:#9fddd2;}.cls-22{fill:#fca05c;}.cls-23{fill:#fd7f71;}.cls-24{fill:#fce71f;}.cls-25{fill:#20caa6;}.cls-26{fill:#f9d2de;}.cls-27{fill:#231f20;}.cls-28{clip-path:url(#clip-path-6);}.cls-29{clip-path:url(#clip-path-7);}.cls-30{clip-path:url(#clip-path-8);}.cls-31{fill:#d6cebf;}.cls-32{clip-path:url(#clip-path-9);}.cls-33{fill:#086d00;}.cls-34{fill:#09a800;}.cls-35{clip-path:url(#clip-path-10);}.cls-36{fill:#992e2e;}.cls-37{fill:#ff2727;}.cls-38{fill:#ffea55;}.cls-39{fill:#f99;}.cls-40{clip-path:url(#clip-path-11);}.cls-41{fill:#ffbdbd;}.cls-42{fill:#ce8e8e;}</style><clipPath id="clip-path"><rect class="cls-1" width="297.28" height="297.28" rx="54.22" transform="translate(297.28 297.28) rotate(180)"/></clipPath><clipPath id="clip-path-2"><path class="cls-1" d="M136.37,242.6v-7.8a1,1,0,0,0-1-1H110.14a1,1,0,0,0-1,1v7.8a1,1,0,0,0,1,1H109v1.1a1.1,1.1,0,0,0-1.1-1.1h-6.26a12.33,12.33,0,0,0-12.29,12.29h0A1.09,1.09,0,0,0,90.41,257h0a1.15,1.15,0,0,0-1.14,1.15v5.31a1.15,1.15,0,0,0,1.14,1.15h44.76a1.15,1.15,0,0,0,1.15-1.15v-5.31a1.15,1.15,0,0,0-1.15-1.15h1.15V243.59h-1A1,1,0,0,0,136.37,242.6Z"/></clipPath><clipPath id="clip-path-3"><path class="cls-1" d="M161.9,243.59h-1V257h1.14a1.15,1.15,0,0,0-1.14,1.15v5.31a1.15,1.15,0,0,0,1.14,1.15h44.77a1.15,1.15,0,0,0,1.14-1.15v-5.31a1.15,1.15,0,0,0-1.14-1.15h0a1.09,1.09,0,0,0,1.1-1.09h0a12.33,12.33,0,0,0-12.29-12.29h-6.26a1.1,1.1,0,0,0-1.1,1.1v-1.1h-1.17a1,1,0,0,0,1-1v-7.8a1,1,0,0,0-1-1H161.9a1,1,0,0,0-1,1v7.8A1,1,0,0,0,161.9,243.59Z"/></clipPath><clipPath id="clip-path-4"><path class="cls-1" d="M153.39,96.69c2-2.46,3.87-4.92,5.86-7.3C169.6,77,188.11,67.87,200.54,76.45,212.31,84.6,215,103,214.61,117.67c-.29,11.13-5.06,20.56-10.78,29.49-8.37,13-19.15,23.53-30.8,33-5.45,4.44-11.19,8.46-16.83,12.63a4.09,4.09,0,0,1-5.06.14c-16.43-11.09-31.65-23.7-43.89-40.07-5.82-7.78-11-16-13.49-25.77-4.32-16.75-.54-40.74,12.06-49.7,11.17-7.94,30.46-1.94,41.86,11.68C149.66,91.47,151.42,94.06,153.39,96.69Z"/></clipPath><clipPath id="clip-path-5"><path class="cls-1" d="M203.86,70.46A29.59,29.59,0,0,0,181.2,65h-3.69c-9.59.21-19.18,5.1-26.29,14.07q-1.2,1.51-2.37,3.06c-.93-1.32-1.86-2.6-2.84-3.84C137,67,124.78,63.25,113.87,65.2v-.4a32.94,32.94,0,0,0-21.4,6.63c-14.39,10.79-21,32.92-16,53.09,2.89,11.78,8.75,21.65,15.4,31,14,19.7,31.36,34.69,50.12,48a4.81,4.81,0,0,0,2.68,1h.8l8-.3h.13a5.22,5.22,0,0,0,2.19-1.06c6.44-5,13-9.87,19.22-15.22,13.31-11.42,25.62-24.06,35.17-39.76,6.54-10.75,12-22.1,12.32-35.5C222.89,95,217.31,80.27,203.86,70.46Z"/></clipPath><clipPath id="clip-path-6"><path class="cls-1" d="M232.43,179.19h4.25a1,1,0,0,1-1-1V170.4a1,1,0,0,1,1-1h25.24a1,1,0,0,1,1,1v7.81a1,1,0,0,1-1,1h-.7a5.68,5.68,0,0,1,5.67,5.67v19.86a5.68,5.68,0,0,1-5.67,5.67H232.43a5.68,5.68,0,0,1-5.67-5.67V184.86A5.68,5.68,0,0,1,232.43,179.19Z"/></clipPath><clipPath id="clip-path-7"><path class="cls-1" d="M31.12,82.81V93.72a5.77,5.77,0,0,0,4.64,5.66,1.09,1.09,0,0,0-.66,1v7.8a1.09,1.09,0,0,0,1.09,1.09H61.43a1.09,1.09,0,0,0,1.09-1.09v-7.8a1.09,1.09,0,0,0-.47-.89h3.63a5.78,5.78,0,0,0,5.77-5.77V80.46a2.16,2.16,0,0,0-2.16-2.16H65.74l.65-6.56,3.43-19.69a2.48,2.48,0,0,0-.42-1.89,2.55,2.55,0,0,0-1.63-1l-3.62-.63a2.53,2.53,0,0,0-2.92,2.06l-3.8,19.16V52.13a2.53,2.53,0,0,0-2.52-2.53H51.24a2.53,2.53,0,0,0-2.53,2.53V69.36a2.14,2.14,0,0,0-2-1.26H42.34a2.16,2.16,0,0,0-2.08,1.57,2.15,2.15,0,0,0-2.07-1.57H33.78a2.16,2.16,0,0,0-2.16,2.16v12a2.19,2.19,0,0,0,.3,1.1Z"/></clipPath><clipPath id="clip-path-8"><path class="cls-1" d="M225.7,107.66c-.44-16.72-7.15-31.85-20.9-41.47a31.23,31.23,0,0,0-23.16-5.36h-3.77c-9.81.21-19.61,5-26.88,13.81-.82,1-1.62,2-2.42,3-.95-1.29-1.9-2.55-2.9-3.76C136.46,62.76,124,59.11,112.81,61v-.39a34.63,34.63,0,0,0-21.88,6.51C76.22,77.73,71.7,98.92,71.7,119.23c0,0-11,37.33,7.6,37.33s11.24-17.08,12-35.09,19.82-16.66,18-.87,5.42,28.14,17.08,17.41-3.21-15.19,3-25.45,28.55-10.77,22.79,14.27S155.81,154,162.21,154s12.5-10.38,11.09-27.18,21.45-30.35,21.45-12.72-10.95,20,1.35,32.34,20.15-5.69,19.76-13.21-.19-11.77,4.84-13.13,5.23,1.55,6.25-3.29C227.65,113.51,225.78,110.73,225.7,107.66Z"/></clipPath><clipPath id="clip-path-9"><path class="cls-1" d="M116.62,50.05l3.08-8.28,2.17,6,7.63-3.22-3.13,6.07,10.72-.61L131.32,56l7.48,4.7-10.36,1.24A38.76,38.76,0,0,0,116.62,50.05Z"/></clipPath><clipPath id="clip-path-10"><path class="cls-1" d="M109.14,47.27c8.77,0,27.16,18.3,20.17,26S95.21,85,88.58,78,96.12,47.19,109.14,47.27Z"/></clipPath><clipPath id="clip-path-11"><path class="cls-1" d="M128.37,162.3h55a0,0,0,0,1,0,0v.07a25.52,25.52,0,0,1-25.52,25.52h-4a25.52,25.52,0,0,1-25.52-25.52v-.07A0,0,0,0,1,128.37,162.3Z"/></clipPath></defs><g class="cls-2"><g id="Layer_2" data-name="Layer 2"><g id="Layer_1-2" data-name="Layer 1"><rect class="cls-3" x="22.21" y="21.41" width="297.28" height="297.28" rx="54.22" transform="translate(341.69 340.09) rotate(180)"/><g class="cls-4"><rect class="cls-5" width="297.28" height="297.28" transform="translate(297.28 297.28) rotate(180)"/><g class="cls-6"><ellipse class="cls-3" cx="148.64" cy="268.93" rx="86.21" ry="11.93"/></g><path class="cls-3" d="M174.58,240.1a4,4,0,0,1-4-4V181.53a4,4,0,0,1,7.93,0v54.61A4,4,0,0,1,174.58,240.1Z"/><path class="cls-3" d="M122.76,241.16a4,4,0,0,1-4-4V181.53a4,4,0,0,1,7.93,0V237.2A4,4,0,0,1,122.76,241.16Z"/><g class="cls-7"><rect class="cls-8" x="109.15" y="234.52" width="27.22" height="9.78"/><path class="cls-9" d="M108.92,244.3h26.36a1.1,1.1,0,0,1,1.1,1.1V264a1.1,1.1,0,0,1-1.1,1.1H90.41a1.1,1.1,0,0,1-1.1-1.1v-.06a19.6,19.6,0,0,1,19.6-19.6Z"/><rect class="cls-10" x="89.32" y="257.69" width="47.05" height="7.6"/><path class="cls-10" d="M101.57,244.3h6.3a1.1,1.1,0,0,1,1.1,1.1v11.2a1.1,1.1,0,0,1-1.1,1.1H90.41a1.1,1.1,0,0,1-1.1-1.1v0a12.26,12.26,0,0,1,12.26-12.26Z"/><rect class="cls-11" x="115.24" y="234.28" width="27.22" height="9.78"/><path class="cls-11" d="M141.36,264.81H96.5a1.1,1.1,0,0,1-1.1-1.1h0c0-10.8-.27-19.65,19.65-19.65h26.31a1.11,1.11,0,0,1,1.1,1.1v18.55A1.1,1.1,0,0,1,141.36,264.81Z"/><rect class="cls-12" x="95.4" y="257.45" width="47.05" height="7.6"/><path class="cls-12" d="M107.66,244.06h.26a1.1,1.1,0,0,1,1.1,1.1v11.2a1.1,1.1,0,0,1-1.1,1.1H96.5a1.1,1.1,0,0,1-1.1-1.1v0a12.26,12.26,0,0,1,12.26-12.26Z"/></g><path class="cls-3" d="M135.38,244.48H110.14a1.88,1.88,0,0,1-1.88-1.88v-7.8a1.88,1.88,0,0,1,1.88-1.88h25.24a1.88,1.88,0,0,1,1.88,1.88v7.8A1.88,1.88,0,0,1,135.38,244.48Zm-25.24-9.78a.1.1,0,0,0-.1.1v7.8a.11.11,0,0,0,.1.1h25.24a.11.11,0,0,0,.1-.1v-7.8a.1.1,0,0,0-.1-.1Z"/><path class="cls-3" d="M135.22,265.47H90.46a2,2,0,0,1-2-2v-5.31a2,2,0,0,1,2-2h44.76a2,2,0,0,1,2,2v5.31A2,2,0,0,1,135.22,265.47Zm-44.76-7.6a.25.25,0,0,0-.25.25v5.31a.25.25,0,0,0,.25.25h44.76a.26.26,0,0,0,.26-.25v-5.31a.26.26,0,0,0-.26-.25Z"/><path class="cls-3" d="M107.87,257.87H90.41a2,2,0,0,1-2-2,13.2,13.2,0,0,1,13.19-13.18h6.26a2,2,0,0,1,2,2v11.19A2,2,0,0,1,107.87,257.87Zm-6.26-13.39a11.41,11.41,0,0,0-11.4,11.4.2.2,0,0,0,.2.2h17.46a.21.21,0,0,0,.21-.2V244.69a.21.21,0,0,0-.21-.21Z"/><path class="cls-3" d="M137.26,257.87H108.08V242.7h29.18Zm-27.4-1.79h25.62v-11.6H109.86Z"/><g class="cls-13"><rect class="cls-8" x="160.91" y="234.52" width="27.22" height="9.78" transform="translate(349.03 478.83) rotate(180)"/><path class="cls-8" d="M162,244.3h44.86a1.1,1.1,0,0,1,1.1,1.1V264a1.1,1.1,0,0,1-1.1,1.1H180.51a19.6,19.6,0,0,1-19.6-19.6v-.06a1.1,1.1,0,0,1,1.1-1.1Z" transform="translate(368.87 509.36) rotate(-180)"/><rect class="cls-10" x="160.91" y="257.69" width="47.05" height="7.6" transform="translate(368.87 522.98) rotate(-180)"/><path class="cls-10" d="M189.4,244.3h17.46a1.1,1.1,0,0,1,1.1,1.1v11.2a1.1,1.1,0,0,1-1.1,1.1h-6.3a12.26,12.26,0,0,1-12.26-12.26v0A1.1,1.1,0,0,1,189.4,244.3Z" transform="translate(396.27 501.99) rotate(-180)"/><rect class="cls-11" x="167.45" y="234.28" width="27.22" height="9.78" transform="translate(362.12 478.34) rotate(180)"/><path class="cls-11" d="M168.55,264.81h44.86a1.1,1.1,0,0,0,1.1-1.1h0c0-10.8.26-19.65-19.66-19.65h-26.3a1.11,1.11,0,0,0-1.1,1.1v18.55A1.1,1.1,0,0,0,168.55,264.81Z"/><rect class="cls-12" x="167.45" y="257.45" width="47.05" height="7.6" transform="translate(381.96 522.5) rotate(-180)"/><path class="cls-12" d="M189.18,244.06H207a1.1,1.1,0,0,1,1.1,1.1v11.2a1.1,1.1,0,0,1-1.1,1.1h-6.67a12.26,12.26,0,0,1-12.26-12.26v0a1.1,1.1,0,0,1,1.1-1.1Z" transform="translate(396.18 501.51) rotate(180)"/></g><path class="cls-3" d="M187.14,244.48H161.9A1.88,1.88,0,0,1,160,242.6v-7.8a1.88,1.88,0,0,1,1.88-1.88h25.24A1.88,1.88,0,0,1,189,234.8v7.8A1.88,1.88,0,0,1,187.14,244.48ZM161.9,234.7a.09.09,0,0,0-.1.1v7.8a.1.1,0,0,0,.1.1h25.24a.1.1,0,0,0,.09-.1v-7.8a.09.09,0,0,0-.09-.1Z"/><path class="cls-3" d="M206.82,265.47H162.05a2,2,0,0,1-2-2v-5.31a2,2,0,0,1,2-2h44.77a2,2,0,0,1,2,2v5.31A2,2,0,0,1,206.82,265.47Zm-44.77-7.6a.25.25,0,0,0-.25.25v5.31a.25.25,0,0,0,.25.25h44.77a.25.25,0,0,0,.25-.25v-5.31a.25.25,0,0,0-.25-.25Z"/><path class="cls-3" d="M206.86,257.87H189.41a2,2,0,0,1-2-2V244.69a2,2,0,0,1,2-2h6.26a13.19,13.19,0,0,1,13.18,13.18A2,2,0,0,1,206.86,257.87Zm-17.45-13.39a.21.21,0,0,0-.21.21v11.19a.21.21,0,0,0,.21.2h17.45a.2.2,0,0,0,.21-.2,11.41,11.41,0,0,0-11.4-11.4Z"/><path class="cls-3" d="M189.2,257.87H160V242.7H189.2Zm-27.4-1.79h25.62v-11.6H161.8Z"/><rect class="cls-12" x="116.81" y="216.83" width="12.2" height="16.97"/><path class="cls-3" d="M127.83,234.7H118a2.08,2.08,0,0,1-2.08-2.08V218a2.08,2.08,0,0,1,2.08-2.08h9.83a2.09,2.09,0,0,1,2.08,2.08v14.6A2.08,2.08,0,0,1,127.83,234.7Zm-9.83-17a.3.3,0,0,0-.3.29v14.6a.31.31,0,0,0,.3.3h9.83a.3.3,0,0,0,.29-.3V218a.29.29,0,0,0-.29-.29Z"/><rect class="cls-12" x="168.51" y="216.83" width="12.2" height="16.97"/><path class="cls-3" d="M179.52,234.7H169.7a2.08,2.08,0,0,1-2.08-2.08V218a2.08,2.08,0,0,1,2.08-2.08h9.82A2.08,2.08,0,0,1,181.6,218v14.6A2.08,2.08,0,0,1,179.52,234.7Zm-9.82-17a.29.29,0,0,0-.3.29v14.6a.3.3,0,0,0,.3.3h9.82a.31.31,0,0,0,.3-.3V218a.3.3,0,0,0-.3-.29Z"/><line class="cls-12" x1="120.79" y1="216.87" x2="120.79" y2="223.83"/><path class="cls-3" d="M120.79,224.72a.89.89,0,0,1-.89-.89v-7a.89.89,0,1,1,1.78,0v7A.89.89,0,0,1,120.79,224.72Z"/><line class="cls-12" x1="124.92" y1="216.87" x2="124.92" y2="223.83"/><path class="cls-3" d="M124.92,224.72a.89.89,0,0,1-.89-.89v-7a.89.89,0,1,1,1.78,0v7A.89.89,0,0,1,124.92,224.72Z"/><line class="cls-12" x1="172.45" y1="216.87" x2="172.45" y2="223.83"/><path class="cls-3" d="M172.45,224.72a.89.89,0,0,1-.89-.89v-7a.89.89,0,0,1,1.78,0v7A.89.89,0,0,1,172.45,224.72Z"/><line class="cls-12" x1="176.58" y1="216.87" x2="176.58" y2="223.83"/><path class="cls-3" d="M176.58,224.72a.89.89,0,0,1-.89-.89v-7a.89.89,0,0,1,1.78,0v7A.89.89,0,0,1,176.58,224.72Z"/><path class="cls-3" d="M203.73,70.68a29.58,29.58,0,0,0-22.65-5.45h-3.69c-9.6.22-19.19,5.11-26.3,14.07q-1.2,1.51-2.37,3.06c-.92-1.32-1.85-2.6-2.84-3.84-9-11.34-21.23-15.06-32.13-13.11V65a32.83,32.83,0,0,0-21.41,6.63c-14.39,10.78-21,32.91-16,53.08,2.89,11.79,8.75,21.66,15.4,31,14,19.7,31.37,34.69,50.12,48a4.91,4.91,0,0,0,2.69,1h.79l8-.3h.12a5.17,5.17,0,0,0,2.19-1.06c6.44-5,13-9.87,19.23-15.21,13.31-11.43,25.61-24.07,35.17-39.77,6.54-10.75,12-22.1,12.32-35.5C222.76,95.24,217.18,80.49,203.73,70.68Z"/><path class="cls-3" d="M145.34,207.12h-.89a7.05,7.05,0,0,1-4-1.4,261.88,261.88,0,0,1-27.09-21.83,174.58,174.58,0,0,1-23.57-26.76c-6-8.48-12.6-18.9-15.77-31.83A60,60,0,0,1,74.84,94a52.35,52.35,0,0,1,6.28-13.62,42,42,0,0,1,9.82-10.6,35.11,35.11,0,0,1,23-7.09l1.63.11a34,34,0,0,1,15.82,2,38.11,38.11,0,0,1,16.36,12.26l1.07,1.4.49-.61a40.91,40.91,0,0,1,12.95-10.93,33.71,33.71,0,0,1,14.38-4l.05,0h4.23a31.52,31.52,0,0,1,12.36.41A32.6,32.6,0,0,1,205.1,68.8a45.38,45.38,0,0,1,15.28,19.14c3.07,7.24,4.51,15.67,4.28,25.06-.36,14.56-6.61,26.7-12.66,36.65a143.28,143.28,0,0,1-16.45,21.84A210.69,210.69,0,0,1,176.36,190c-4.63,4-9.49,7.72-14.19,11.33-1.69,1.3-3.42,2.63-5.12,4a7.59,7.59,0,0,1-3.17,1.51l-.16,0-.34,0Zm-.8-4.66h.72l7.84-.29a3.28,3.28,0,0,0,1.08-.58c1.71-1.34,3.46-2.68,5.15-4,4.65-3.58,9.46-7.28,14-11.17a205.62,205.62,0,0,0,18.78-18.08A138.11,138.11,0,0,0,208,147.23a99.78,99.78,0,0,0,8.3-16.37,53.83,53.83,0,0,0,3.68-18c.44-17.89-5.49-31.46-17.64-40.31a28.21,28.21,0,0,0-10.18-4.73,27.22,27.22,0,0,0-10.72-.32l-.19,0h-3.83a29.12,29.12,0,0,0-13,3.48,36.38,36.38,0,0,0-11.48,9.71c-.71.88-1.45,1.84-2.35,3l-1.92,2.53-1.83-2.6c-1.08-1.53-1.93-2.68-2.76-3.73A33.45,33.45,0,0,0,129.7,69.17a29.32,29.32,0,0,0-15.54-1.45l-2.74.48v-.9a28.86,28.86,0,0,0-8.29,1.39,31.92,31.92,0,0,0-9.39,4.83A37.09,37.09,0,0,0,85,82.94,47.9,47.9,0,0,0,79.3,95.35a55.72,55.72,0,0,0-.74,28.83c3,12.18,9.28,22.12,15,30.24a170.09,170.09,0,0,0,23,26.05,257.37,257.37,0,0,0,26.61,21.45A2.69,2.69,0,0,0,144.54,202.46Z"/><path class="cls-14" d="M195.72,70.51a30.9,30.9,0,0,0-8-4.23l.41-1.65H177.39c-9.6.22-19.19,5.11-26.3,14.08-2.27,2.86-4.44,5.83-6.69,8.78-2.25-3.17-4.26-6.28-6.52-9.14A35.86,35.86,0,0,0,122.2,66.7V64.83h-8.8a31.7,31.7,0,0,0-21.06,6.23C78,81.85,71.36,104,76.3,124.14c2.89,11.79,8.75,21.66,15.4,31,14,19.7,31.37,34.89,50.12,48.24a4.82,4.82,0,0,0,2.69,1h0l8.79.2,1.7-7.05c4-3.08,8-6.2,11.83-9.5C180.14,176.61,192.44,164,202,148.27c6.54-10.75,12-22.1,12.32-35.5C214.76,95.07,209.17,80.32,195.72,70.51Z"/><path class="cls-15" d="M152.41,87.67c2.24-3,4.42-5.92,6.69-8.78,11.81-14.89,30.44-18.55,44.63-8.2,13.45,9.8,19,24.55,18.6,42.25-.33,13.4-5.78,24.75-12.32,35.5-9.56,15.7-21.86,28.34-35.17,39.77-6.23,5.34-12.79,10.19-19.23,15.21a4.47,4.47,0,0,1-5.78.17c-18.75-13.35-36.14-28.54-50.12-48.24-6.65-9.37-12.51-19.25-15.4-31-4.94-20.17,1.65-42.3,16-53.08,12.76-9.57,32.51-9.1,45.53,7.29C148.15,81.39,150.16,84.51,152.41,87.67Z"/><g class="cls-16"><rect class="cls-17" x="96.03" y="74.7" width="18.59" height="19.94" rx="1.76"/><rect class="cls-17" x="120.6" y="74.7" width="18.59" height="19.94" rx="1.76"/><rect class="cls-17" x="145.17" y="74.7" width="18.59" height="19.94" rx="1.76"/><rect class="cls-17" x="169.75" y="74.7" width="18.59" height="19.94" rx="1.76"/><path class="cls-14" d="M110.9,78H96V92.91a1.76,1.76,0,0,0,1.76,1.76h14.88V79.79A1.76,1.76,0,0,0,110.9,78Z"/><path class="cls-14" d="M128.93,78H120.6V92.91a1.76,1.76,0,0,0,1.76,1.76h14.87V83.26C137.23,82.29,129.9,78,128.93,78Z"/><path class="cls-14" d="M160.05,78H145.17V92.91a1.76,1.76,0,0,0,1.76,1.76h14.88V79.79A1.76,1.76,0,0,0,160.05,78Z"/><path class="cls-14" d="M184.62,78H169.74V92.91a1.76,1.76,0,0,0,1.76,1.76h14.88V79.79A1.76,1.76,0,0,0,184.62,78Z"/><path class="cls-12" d="M111,96.37H97.7a3.44,3.44,0,0,1-3.43-3.43V79.29a.72.72,0,1,1,1.43,0V92.94a2,2,0,0,0,2,2H111a.72.72,0,0,1,0,1.43Z"/><path class="cls-12" d="M135.57,96.37H122.29a3.44,3.44,0,0,1-3.43-3.43V79.29a.72.72,0,1,1,1.43,0V92.94a2,2,0,0,0,2,2h13.28a.72.72,0,1,1,0,1.43Z"/><path class="cls-12" d="M184.64,96.37H171.36a3.44,3.44,0,0,1-3.44-3.43V83.25a.72.72,0,0,1,1.43,0v9.69a2,2,0,0,0,2,2h13.28a.72.72,0,1,1,0,1.43Z"/><rect class="cls-17" x="194.15" y="74.7" width="18.59" height="19.94" rx="1.76"/><path class="cls-14" d="M198.12,78c-1.3-.71-4,0-4,0V92.91a1.76,1.76,0,0,0,1.76,1.76H209.2C208.17,89.05,202.46,80.4,198.12,78Z"/><path class="cls-12" d="M209.05,96.37H195.76a3.44,3.44,0,0,1-3.43-3.43V79.29a.72.72,0,1,1,1.43,0V92.94a2,2,0,0,0,2,2h13.29a.72.72,0,0,1,0,1.43Z"/><rect class="cls-17" x="120.6" y="123.69" width="18.59" height="19.94" rx="1.76"/><rect class="cls-17" x="96.03" y="123.69" width="18.59" height="19.94" rx="1.76"/><rect class="cls-17" x="96.03" y="99.12" width="18.59" height="19.94" rx="1.76"/><rect class="cls-17" x="120.6" y="99.12" width="18.59" height="19.94" rx="1.76"/><rect class="cls-17" x="169.75" y="123.69" width="18.59" height="19.94" rx="1.76"/><rect class="cls-17" x="145.17" y="99.12" width="18.59" height="19.94" rx="1.76"/><rect class="cls-17" x="145.17" y="123.69" width="18.59" height="19.94" rx="1.76"/><rect class="cls-17" x="169.75" y="99.12" width="18.59" height="19.94" rx="1.76"/><path class="cls-14" d="M122.36,143.66h14.87V128.78a1.76,1.76,0,0,0-1.76-1.76H120.6V141.9A1.76,1.76,0,0,0,122.36,143.66Z"/><path class="cls-14" d="M97.78,143.66h14.88V128.78A1.76,1.76,0,0,0,110.9,127H96V141.9A1.76,1.76,0,0,0,97.78,143.66Z"/><path class="cls-14" d="M110.9,102.45H96v14.87a1.76,1.76,0,0,0,1.76,1.76h14.88V104.21A1.76,1.76,0,0,0,110.9,102.45Z"/><path class="cls-14" d="M135.47,102.45H120.6v14.87a1.75,1.75,0,0,0,1.76,1.76h14.87V104.21A1.76,1.76,0,0,0,135.47,102.45Z"/><path class="cls-14" d="M171.5,143.66h14.88V128.78a1.76,1.76,0,0,0-1.76-1.76H169.74V141.9A1.76,1.76,0,0,0,171.5,143.66Z"/><path class="cls-14" d="M160.05,102.45H145.17v14.87a1.76,1.76,0,0,0,1.76,1.76h14.88V104.21A1.76,1.76,0,0,0,160.05,102.45Z"/><path class="cls-14" d="M146.93,143.66h14.88V128.78a1.76,1.76,0,0,0-1.76-1.76H145.17V141.9A1.76,1.76,0,0,0,146.93,143.66Z"/><path class="cls-14" d="M184.62,102.45H169.74v14.87a1.76,1.76,0,0,0,1.76,1.76h14.88V104.21A1.76,1.76,0,0,0,184.62,102.45Z"/><path class="cls-12" d="M111,120.78H97.7a3.43,3.43,0,0,1-3.43-3.43V103.7a.72.72,0,0,1,1.43,0v13.65a2,2,0,0,0,2,2H111a.71.71,0,0,1,0,1.42Z"/><path class="cls-12" d="M135.57,120.78H122.29a3.43,3.43,0,0,1-3.43-3.43V103.7a.72.72,0,0,1,1.43,0v13.65a2,2,0,0,0,2,2h13.28a.71.71,0,1,1,0,1.42Z"/><path class="cls-12" d="M135.57,145.39H122.29a3.44,3.44,0,0,1-3.43-3.43V128.31a.72.72,0,1,1,1.43,0V142a2,2,0,0,0,2,2h13.28a.72.72,0,1,1,0,1.43Z"/><path class="cls-12" d="M160.13,120.78H146.85a3.43,3.43,0,0,1-3.44-3.43V103.7a.72.72,0,0,1,1.43,0v13.65a2,2,0,0,0,2,2h13.28a.71.71,0,1,1,0,1.42Z"/><path class="cls-12" d="M160.13,145.39H146.85a3.44,3.44,0,0,1-3.44-3.43V128.31a.72.72,0,1,1,1.43,0V142a2,2,0,0,0,2,2h13.28a.72.72,0,0,1,0,1.43Z"/><path class="cls-12" d="M184.64,120.78H171.36a3.43,3.43,0,0,1-3.44-3.43V103.7a.72.72,0,0,1,1.43,0v13.65a2,2,0,0,0,2,2h13.28a.71.71,0,1,1,0,1.42Z"/><path class="cls-12" d="M184.64,145.39H171.36a3.44,3.44,0,0,1-3.44-3.43V128.31a.72.72,0,1,1,1.43,0V142a2,2,0,0,0,2,2h13.28a.72.72,0,1,1,0,1.43Z"/><rect class="cls-17" x="194.15" y="123.69" width="18.59" height="19.94" rx="1.76"/><rect class="cls-17" x="194.15" y="99.12" width="18.59" height="19.94" rx="1.76"/><path class="cls-14" d="M195.91,143.66h8.73c2.89-3.88,6.14-11.74,6.14-11.74v-3.14A1.76,1.76,0,0,0,209,127H194.15V141.9A1.76,1.76,0,0,0,195.91,143.66Z"/><path class="cls-14" d="M209,102.45H194.15v14.87a1.76,1.76,0,0,0,1.76,1.76h14.87V104.21A1.76,1.76,0,0,0,209,102.45Z"/><path class="cls-12" d="M209.05,120.78H195.76a3.43,3.43,0,0,1-3.43-3.43V103.7a.72.72,0,0,1,1.43,0v13.65a2,2,0,0,0,2,2h13.29a.71.71,0,0,1,0,1.42Z"/><path class="cls-12" d="M203.1,145.39h-7.34a3.44,3.44,0,0,1-3.43-3.43V128.31a.72.72,0,1,1,1.43,0V142a2,2,0,0,0,2,2h7.34a.72.72,0,1,1,0,1.43Z"/><rect class="cls-17" x="120.6" y="172.97" width="18.59" height="19.94" rx="1.76"/><rect class="cls-17" x="96.03" y="172.97" width="18.59" height="19.94" rx="1.76"/><rect class="cls-17" x="96.03" y="148.4" width="18.59" height="19.94" rx="1.76"/><rect class="cls-17" x="120.6" y="148.4" width="18.59" height="19.94" rx="1.76"/><rect class="cls-17" x="169.75" y="172.97" width="18.59" height="19.94" rx="1.76"/><rect class="cls-17" x="145.17" y="148.4" width="18.59" height="19.94" rx="1.76"/><rect class="cls-17" x="145.17" y="172.97" width="18.59" height="19.94" rx="1.76"/><rect class="cls-17" x="169.75" y="148.4" width="18.59" height="19.94" rx="1.76"/><path class="cls-14" d="M122.36,192.94h14.87V178.06a1.76,1.76,0,0,0-1.76-1.76H120.6v14.88A1.76,1.76,0,0,0,122.36,192.94Z"/><path class="cls-14" d="M97.78,192.94h14.88V178.06a1.76,1.76,0,0,0-1.76-1.76H96v14.88A1.76,1.76,0,0,0,97.78,192.94Z"/><path class="cls-14" d="M110.9,151.73H96v14.88a1.76,1.76,0,0,0,1.76,1.76h14.88V153.49A1.76,1.76,0,0,0,110.9,151.73Z"/><path class="cls-14" d="M135.47,151.73H120.6v14.88a1.76,1.76,0,0,0,1.76,1.76h14.87V153.49A1.76,1.76,0,0,0,135.47,151.73Z"/><path class="cls-14" d="M171.5,192.94h14.88V178.06a1.76,1.76,0,0,0-1.76-1.76H169.74v14.88A1.76,1.76,0,0,0,171.5,192.94Z"/><path class="cls-14" d="M160.05,151.73H145.17v14.88a1.76,1.76,0,0,0,1.76,1.76h14.88V153.49A1.76,1.76,0,0,0,160.05,151.73Z"/><path class="cls-14" d="M146.93,192.94h14.88V178.06a1.76,1.76,0,0,0-1.76-1.76H145.17v14.88A1.76,1.76,0,0,0,146.93,192.94Z"/><path class="cls-14" d="M184.62,151.73H169.74v14.88a1.76,1.76,0,0,0,1.76,1.76h14.88V153.49A1.76,1.76,0,0,0,184.62,151.73Z"/><path class="cls-12" d="M111,170.07H97.7a3.44,3.44,0,0,1-3.43-3.44V153a.72.72,0,0,1,1.43,0v13.65a2,2,0,0,0,2,2H111a.72.72,0,0,1,0,1.43Z"/><path class="cls-12" d="M111,194.67H97.7a3.44,3.44,0,0,1-3.43-3.43V177.59a.72.72,0,1,1,1.43,0v13.65a2,2,0,0,0,2,2H111a.72.72,0,0,1,0,1.43Z"/><path class="cls-12" d="M135.57,170.07H122.29a3.44,3.44,0,0,1-3.43-3.44V153a.72.72,0,0,1,1.43,0v13.65a2,2,0,0,0,2,2h13.28a.72.72,0,1,1,0,1.43Z"/><path class="cls-12" d="M135.57,194.67H122.29a3.44,3.44,0,0,1-3.43-3.43V177.59a.72.72,0,1,1,1.43,0v13.65a2,2,0,0,0,2,2h13.28a.72.72,0,1,1,0,1.43Z"/><path class="cls-12" d="M160.13,170.07H146.85a3.44,3.44,0,0,1-3.44-3.44V153a.72.72,0,0,1,1.43,0v13.65a2,2,0,0,0,2,2h13.28a.72.72,0,0,1,0,1.43Z"/><path class="cls-12" d="M182.66,170.07h-11.3a3.44,3.44,0,0,1-3.44-3.44V153a.72.72,0,0,1,1.43,0v13.65a2,2,0,0,0,2,2h11.3a.72.72,0,0,1,0,1.43Z"/><rect class="cls-17" x="194.15" y="172.97" width="18.59" height="19.94" rx="1.76"/><rect class="cls-17" x="194.15" y="148.4" width="18.59" height="19.94" rx="1.76"/><path class="cls-14" d="M195.91,192.94h14.87V178.06A1.76,1.76,0,0,0,209,176.3H194.15v14.88A1.76,1.76,0,0,0,195.91,192.94Z"/><path class="cls-14" d="M209,151.73H194.15v14.88a1.76,1.76,0,0,0,1.76,1.76h14.87V153.49A1.76,1.76,0,0,0,209,151.73Z"/><path class="cls-12" d="M209.05,194.67H195.76a3.44,3.44,0,0,1-3.43-3.43V177.59a.72.72,0,1,1,1.43,0v13.65a2,2,0,0,0,2,2h13.29a.72.72,0,0,1,0,1.43Z"/></g><path class="cls-12" d="M111.32,145.35h-10.8a.75.75,0,0,1-.62-.32,70.8,70.8,0,0,1-5.57-10.74.67.67,0,0,1-.06-.28v-4.54a.75.75,0,0,1,1.49,0v4.39a71.19,71.19,0,0,0,5.15,10h10.41a.74.74,0,0,1,.74.74A.75.75,0,0,1,111.32,145.35Z"/><path class="cls-12" d="M111.78,161a.75.75,0,0,1-.59-.29l-5.43-6.91a.73.73,0,0,1,.12-1,.75.75,0,0,1,1.05.12l5.43,6.91a.75.75,0,0,1-.12,1A.8.8,0,0,1,111.78,161Z"/><path class="cls-12" d="M136.12,184a.75.75,0,0,1-.47-.17l-7-5.77a.73.73,0,0,1-.1-1,.75.75,0,0,1,1.05-.11l7,5.77a.75.75,0,0,1,.1,1.05A.72.72,0,0,1,136.12,184Z"/><path class="cls-12" d="M156.24,194.62h-5.55a.71.71,0,0,1-.43-.14L143.88,190a.72.72,0,0,1-.31-.6V177.91a.74.74,0,1,1,1.48,0V189l5.87,4.16H156l4.93-3.64a.74.74,0,0,1,.88,1.2l-5.12,3.78A.71.71,0,0,1,156.24,194.62Z"/><path class="cls-12" d="M168.86,185.47a.87.87,0,0,1-.31-.07.76.76,0,0,1-.43-.67v-7.24a.74.74,0,0,1,.74-.74.75.75,0,0,1,.75.74v5.67l7.26-5.93a.75.75,0,0,1,1,.11.73.73,0,0,1-.11,1l-8.48,6.92A.73.73,0,0,1,168.86,185.47Z"/><path class="cls-12" d="M193.23,162.74a.73.73,0,0,1-.41-.12.77.77,0,0,1-.34-.63v-8.61a.75.75,0,0,1,.75-.74.74.74,0,0,1,.74.74v7a64.19,64.19,0,0,0,6.19-7.48.74.74,0,0,1,1-.15.75.75,0,0,1,.16,1c-5.69,7.65-7.52,8.71-7.84,8.84A.59.59,0,0,1,193.23,162.74Z"/><path class="cls-12" d="M149,96.31h-2a3.42,3.42,0,0,1-3.42-3.42V89.54a.74.74,0,0,1,1.48,0v3.35A1.94,1.94,0,0,0,147,94.83h2a.74.74,0,1,1,0,1.48Z"/><path class="cls-12" d="M161.06,96.28h-5.68a.75.75,0,0,1-.74-.75.74.74,0,0,1,.74-.74h5.68a.74.74,0,0,1,.75.74A.75.75,0,0,1,161.06,96.28Z"/><path class="cls-17" d="M145.17,86.34s2.39,2.14,6.72,8.31h-1.5s-3.75-5-5.22-6.79Z"/><g class="cls-18"><g class="cls-19"><path class="cls-20" d="M174.77,132.17a1.67,1.67,0,0,0-3.29.54l1.51,9.22a1.66,1.66,0,0,0,1.64,1.4l.28,0a1.66,1.66,0,0,0,1.37-1.91Z"/><path class="cls-21" d="M176.94,151a1.71,1.71,0,0,0-2.17-.93l-8.67,3.47a1.69,1.69,0,0,0-.92.9,1.67,1.67,0,0,0,2.16,2.2l8.67-3.47a1.66,1.66,0,0,0,.91-.89A1.63,1.63,0,0,0,176.94,151Z"/><path class="cls-22" d="M155.92,120.32a1.73,1.73,0,0,0-.82-1L146.84,115a1.7,1.7,0,0,0-2.25.7,1.67,1.67,0,0,0,.69,2.25l8.26,4.37a1.65,1.65,0,0,0,.78.2,1.68,1.68,0,0,0,1.6-2.17Z"/><path class="cls-23" d="M139.52,151.7l-2.32-9a1.67,1.67,0,0,0-3-.43,1.64,1.64,0,0,0-.18,1.26l2.32,9.05a1.67,1.67,0,0,0,1.61,1.26,1.52,1.52,0,0,0,.42-.06A1.67,1.67,0,0,0,139.52,151.7Z"/><path class="cls-24" d="M131.91,113.71a1.61,1.61,0,0,0-1.13-.6h-.16a1.66,1.66,0,0,0-1.66,1.51l-.89,9.3a1.64,1.64,0,0,0,.37,1.22,1.61,1.61,0,0,0,1.13.6h.16a1.67,1.67,0,0,0,1.66-1.52l.9-9.29A1.69,1.69,0,0,0,131.91,113.71Zm-2.18,11.34h0v0Z"/><path class="cls-25" d="M160.73,135.66a1.63,1.63,0,0,0-.86-.94,1.72,1.72,0,0,0-2.22.82L153.73,144a1.67,1.67,0,0,0,.82,2.21,1.69,1.69,0,0,0,.7.15,1.66,1.66,0,0,0,1.51-1l3.92-8.47A1.63,1.63,0,0,0,160.73,135.66Z"/><path class="cls-25" d="M123.17,193.54a1.61,1.61,0,0,0,.42-1.2,1.7,1.7,0,0,0-1.77-1.56l-9.33.56a1.68,1.68,0,0,0-1.56,1.77,1.71,1.71,0,0,0,.2.69,1.67,1.67,0,0,0,1.57.87l9.32-.56A1.64,1.64,0,0,0,123.17,193.54Z"/><path class="cls-26" d="M145.61,131.13a1.7,1.7,0,0,0-2-1.28l-9.13,2a1.73,1.73,0,0,0-1.06.73,1.62,1.62,0,0,0-.22,1.25,1.66,1.66,0,0,0,1.63,1.32,1.39,1.39,0,0,0,.35,0l9.13-2A1.67,1.67,0,0,0,145.61,131.13Z"/><path class="cls-23" d="M184.18,90.36a1.65,1.65,0,0,0-.82-1L175.11,85a1.72,1.72,0,0,0-2.26.7,1.66,1.66,0,0,0,.7,2.25l8.26,4.37a1.61,1.61,0,0,0,.77.2,1.67,1.67,0,0,0,1.6-2.16Z"/><path class="cls-23" d="M167.78,121.74l-2.31-9a1.67,1.67,0,0,0-3.06-.44,1.68,1.68,0,0,0-.18,1.26l2.32,9a1.67,1.67,0,0,0,1.62,1.26,1.84,1.84,0,0,0,.41,0A1.67,1.67,0,0,0,167.78,121.74Z"/><path class="cls-24" d="M160.18,83.74a1.65,1.65,0,0,0-1.13-.6h-.16a1.66,1.66,0,0,0-1.66,1.51l-.9,9.3a1.64,1.64,0,0,0,.38,1.22,1.61,1.61,0,0,0,1.12.6H158a1.66,1.66,0,0,0,1.66-1.51l.9-9.3A1.68,1.68,0,0,0,160.18,83.74ZM158,95.09Z"/><path class="cls-22" d="M188,101.6a1.66,1.66,0,0,0-.87-.93,1.69,1.69,0,0,0-2.21.81L181,110a1.68,1.68,0,0,0,.81,2.22,1.73,1.73,0,0,0,.7.15,1.68,1.68,0,0,0,1.52-1l3.92-8.48A1.72,1.72,0,0,0,188,101.6Z"/><path class="cls-21" d="M173.87,101.16a1.69,1.69,0,0,0-2-1.27l-9.13,2a1.71,1.71,0,0,0-1,.73,1.66,1.66,0,0,0,1.4,2.57,1.34,1.34,0,0,0,.35,0l9.13-2A1.66,1.66,0,0,0,173.87,101.16Z"/><path class="cls-25" d="M146.51,81.09a1.67,1.67,0,0,0-1.92-1.38,1.62,1.62,0,0,0-1.08.68,1.65,1.65,0,0,0-.29,1.24l1.5,9.22a1.67,1.67,0,0,0,1.65,1.4,1.24,1.24,0,0,0,.27,0A1.66,1.66,0,0,0,148,90.31Z"/><path class="cls-20" d="M151.06,101a1.71,1.71,0,0,0-2.17-.93l-8.68,3.47a1.71,1.71,0,0,0-.91.9,1.67,1.67,0,0,0,2.16,2.2l8.67-3.47a1.68,1.68,0,0,0,.93-2.17Z"/><path class="cls-21" d="M116.36,101.64l-2.32-9a1.69,1.69,0,0,0-2-1.21,1.65,1.65,0,0,0-1,.77,1.68,1.68,0,0,0-.18,1.26l2.32,9a1.67,1.67,0,0,0,1.62,1.26,2,2,0,0,0,.41,0A1.68,1.68,0,0,0,116.36,101.64Z"/><path class="cls-26" d="M137.58,85.6a1.68,1.68,0,0,0-.87-.94,1.7,1.7,0,0,0-2.21.82L130.58,94a1.67,1.67,0,0,0,.81,2.21,1.69,1.69,0,0,0,2.22-.81l3.92-8.48A1.72,1.72,0,0,0,137.58,85.6Z"/><path class="cls-22" d="M122.45,81.07a1.69,1.69,0,0,0-2-1.28l-9.13,2a1.69,1.69,0,0,0-1,.73,1.63,1.63,0,0,0-.23,1.25,1.67,1.67,0,0,0,1.63,1.32,1.34,1.34,0,0,0,.35,0l9.13-2A1.66,1.66,0,0,0,122.45,81.07Z"/><path class="cls-20" d="M178.26,69.24a1.68,1.68,0,0,0-2.35-.19l-7.11,6.06a1.67,1.67,0,0,0-.19,2.35,1.66,1.66,0,0,0,1.81.5,1.62,1.62,0,0,0,.54-.31l7.12-6.06a1.66,1.66,0,0,0,.57-1.14A1.61,1.61,0,0,0,178.26,69.24Z"/><path class="cls-24" d="M175.05,119a1.64,1.64,0,0,0-.93.88l-.06.14a1.66,1.66,0,0,0,.89,2.06l8.52,3.85a1.69,1.69,0,0,0,1.27,0,1.64,1.64,0,0,0,.93-.88l.06-.15a1.67,1.67,0,0,0-.89-2.06L176.32,119A1.65,1.65,0,0,0,175.05,119Zm10,5.72Z"/><path class="cls-23" d="M198.38,150.58l-9.27-1.13a1.69,1.69,0,0,0-1.86,1.45,1.61,1.61,0,0,0,.34,1.23,1.68,1.68,0,0,0,1.11.63l9.28,1.13a1.66,1.66,0,0,0,1.75-1,1.38,1.38,0,0,0,.1-.4A1.66,1.66,0,0,0,198.38,150.58Z"/><path class="cls-23" d="M174.44,193.39a1.63,1.63,0,0,0,.25,1.25l.09.13a1.66,1.66,0,0,0,2.22.33l7.77-5.18a1.68,1.68,0,0,0,.46-2.32l-.09-.13a1.66,1.66,0,0,0-2.22-.33l-7.77,5.19A1.64,1.64,0,0,0,174.44,193.39Zm10.17-5.49Z"/><path class="cls-23" d="M211.11,136.47a1.71,1.71,0,0,0-1.9,1.4l-1.39,9.24a1.68,1.68,0,0,0,1.4,1.9A1.68,1.68,0,0,0,211,148a1.89,1.89,0,0,0,.09-.34l1.39-9.24A1.67,1.67,0,0,0,211.11,136.47Z"/><path class="cls-22" d="M164.23,163.1a1.69,1.69,0,0,0-2.13,1L159,172.92a1.67,1.67,0,0,0,2.83,1.66,1.77,1.77,0,0,0,.32-.55l3.11-8.8a1.65,1.65,0,0,0-1-2.13Z"/><path class="cls-26" d="M129.09,156.57a1.67,1.67,0,0,0-1.28,0l-8.73,3.31a1.71,1.71,0,0,0-1,2.16,1.66,1.66,0,0,0,2.15,1l8.73-3.32a1.66,1.66,0,0,0,.66-.45,1.68,1.68,0,0,0,.31-1.7A1.7,1.7,0,0,0,129.09,156.57Z"/><path class="cls-26" d="M141.83,189.61l-8.32-4.24a1.67,1.67,0,0,0-2.35,2,1.69,1.69,0,0,0,.83,1l8.33,4.23a1.66,1.66,0,0,0,2-.38,1.8,1.8,0,0,0,.24-.35A1.68,1.68,0,0,0,141.83,189.61Z"/><path class="cls-21" d="M108.27,170.23a1.65,1.65,0,0,0-1.19.46l-.11.11a1.66,1.66,0,0,0,0,2.24l6.4,6.82a1.67,1.67,0,0,0,2.35.07l.11-.12a1.66,1.66,0,0,0,0-2.24l-6.39-6.81A1.68,1.68,0,0,0,108.27,170.23Zm7.08,9.13Z"/><path class="cls-20" d="M143.79,163.08a1.67,1.67,0,0,0-1.28,0,1.69,1.69,0,0,0-.84,2.2l3.78,8.55a1.67,1.67,0,0,0,2.2.85,1.62,1.62,0,0,0,.57-.43,1.67,1.67,0,0,0,.28-1.77L144.72,164A1.67,1.67,0,0,0,143.79,163.08Z"/><path class="cls-23" d="M130.4,171.45a1.7,1.7,0,0,0-2.27.64l-4.55,8.16a1.7,1.7,0,0,0-.14,1.27,1.62,1.62,0,0,0,.79,1,1.68,1.68,0,0,0,2.06-.35,1.94,1.94,0,0,0,.21-.29l4.55-8.16A1.67,1.67,0,0,0,130.4,171.45Z"/><path class="cls-20" d="M97.26,178.74a1.67,1.67,0,0,0-2.3.53,1.65,1.65,0,0,0-.21,1.26,1.62,1.62,0,0,0,.74,1l7.92,5a1.67,1.67,0,0,0,2.13-.31,1.84,1.84,0,0,0,.17-.22,1.67,1.67,0,0,0-.53-2.3Z"/><path class="cls-26" d="M195.44,167.48l-5.36-7.66a1.7,1.7,0,0,0-2.32-.41,1.65,1.65,0,0,0-.68,1.08,1.68,1.68,0,0,0,.27,1.25l5.36,7.65a1.66,1.66,0,0,0,1.95.61,1.9,1.9,0,0,0,.37-.2A1.67,1.67,0,0,0,195.44,167.48Z"/><path class="cls-20" d="M118.29,142.4a1.67,1.67,0,0,0-2.51,1.79,1.72,1.72,0,0,0,.75,1l7.91,5a1.65,1.65,0,0,0,2.14-.31,1.25,1.25,0,0,0,.16-.22,1.66,1.66,0,0,0-.53-2.29Z"/><path class="cls-24" d="M109.32,147.07a1.7,1.7,0,0,0-1.69,1.64l-.14,9.35a1.62,1.62,0,0,0,.47,1.19,1.69,1.69,0,0,0,1.17.5,1.64,1.64,0,0,0,1.56-1,1.42,1.42,0,0,0,.13-.61l.15-9.34a1.67,1.67,0,0,0-1.65-1.7Z"/><path class="cls-25" d="M101.23,151.13a1.6,1.6,0,0,0-1.27,0l-8.74,3.32a1.7,1.7,0,0,0-1,2.15,1.66,1.66,0,0,0,2.15,1l8.73-3.31a1.71,1.71,0,0,0,.66-.46,1.66,1.66,0,0,0-.57-2.62Z"/><path class="cls-24" d="M146.4,184.4a1.63,1.63,0,0,0,0,1.28l.07.14a1.66,1.66,0,0,0,2.14.69l8.51-3.86a1.69,1.69,0,0,0,.87-.93,1.63,1.63,0,0,0-.05-1.28l-.07-.14a1.67,1.67,0,0,0-2.14-.69l-8.5,3.86A1.59,1.59,0,0,0,146.4,184.4Zm10.92-3.76Z"/><path class="cls-25" d="M171,178.33a1.65,1.65,0,0,0-1.06-.71,1.7,1.7,0,0,0-2,1.3l-1.85,9.16a1.68,1.68,0,0,0,1.31,2,1.55,1.55,0,0,0,.71,0,1.67,1.67,0,0,0,1.25-1.29l1.85-9.16A1.67,1.67,0,0,0,171,178.33Z"/><path class="cls-22" d="M100.48,160.1a1.69,1.69,0,0,0-2.27.65l-4.55,8.15a1.68,1.68,0,0,0-.15,1.28,1.63,1.63,0,0,0,.79,1,1.67,1.67,0,0,0,2.07-.35,1.87,1.87,0,0,0,.2-.29l4.55-8.16A1.67,1.67,0,0,0,100.48,160.1Z"/><path class="cls-22" d="M199,198.08a1.67,1.67,0,0,0,3-1.37l-3.83-8.52a1.67,1.67,0,0,0-1.95-.93,2.67,2.67,0,0,0-.26.09,1.65,1.65,0,0,0-.87.93,1.63,1.63,0,0,0,0,1.28Z"/><path class="cls-26" d="M192.84,89.47a1.69,1.69,0,0,0,2.33.34l7.48-5.6a1.62,1.62,0,0,0,.65-1.1,1.59,1.59,0,0,0-.31-1.23,1.68,1.68,0,0,0-1.77-.62,1.73,1.73,0,0,0-.56.28l-7.49,5.59a1.67,1.67,0,0,0-.33,2.34Z"/><path class="cls-22" d="M211.06,85.88a1.7,1.7,0,0,0,1.7-1.63l.21-9.34a1.64,1.64,0,0,0-.47-1.19,1.61,1.61,0,0,0-1.17-.52,1.68,1.68,0,0,0-1.57,1,1.8,1.8,0,0,0-.13.61l-.21,9.34a1.68,1.68,0,0,0,.46,1.19A1.65,1.65,0,0,0,211.06,85.88Z"/><path class="cls-23" d="M84.3,93.49a1.66,1.66,0,0,0,1.24.29l.16,0a1.67,1.67,0,0,0,1.21-1.89l-1.53-9.21a1.64,1.64,0,0,0-.68-1.09,1.66,1.66,0,0,0-1.24-.29l-.16,0a1.66,1.66,0,0,0-1.21,1.88l1.53,9.22A1.62,1.62,0,0,0,84.3,93.49ZM83.48,82h0v0Z"/><path class="cls-25" d="M199.14,130.82a1.69,1.69,0,0,0,2.33.34l7.48-5.6a1.61,1.61,0,0,0,.66-1.1,1.67,1.67,0,0,0-2.09-1.84,1.53,1.53,0,0,0-.56.27l-7.49,5.6a1.66,1.66,0,0,0-.33,2.33Z"/><path class="cls-23" d="M182.86,173.52a1.62,1.62,0,0,0,.92-.88l.06-.14a1.68,1.68,0,0,0-.91-2.06l-8.55-3.77a1.63,1.63,0,0,0-1.28,0,1.65,1.65,0,0,0-.92.88l-.06.15a1.66,1.66,0,0,0,.92,2l8.54,3.77A1.63,1.63,0,0,0,182.86,173.52Zm-10.09-5.63Z"/><path class="cls-24" d="M204.48,173.9a1.67,1.67,0,0,0,2.41-1.93l-2.6-9a1.68,1.68,0,0,0-2.07-1.14,1.76,1.76,0,0,0-.63.34,1.68,1.68,0,0,0-.51,1.73l2.6,9A1.7,1.7,0,0,0,204.48,173.9Z"/><path class="cls-23" d="M94.68,135.68a1.66,1.66,0,0,0,1,.74l9.1,2.09a1.71,1.71,0,0,0,2-1.25,1.67,1.67,0,0,0-1.26-2l-9.1-2.09a1.8,1.8,0,0,0-.8,0,1.69,1.69,0,0,0-1.2,1.25A1.66,1.66,0,0,0,94.68,135.68Z"/><path class="cls-26" d="M99.71,102.84l4.57,8.14a1.68,1.68,0,0,0,2.27.64,1.67,1.67,0,0,0,.64-2.27l-4.57-8.15a1.68,1.68,0,0,0-1.89-.79,1.61,1.61,0,0,0-.39.16A1.67,1.67,0,0,0,99.71,102.84Z"/><path class="cls-22" d="M119.58,135.88a1.65,1.65,0,0,0,1.25.29l.15,0a1.66,1.66,0,0,0,1.22-1.89L120.67,125A1.72,1.72,0,0,0,120,124a1.63,1.63,0,0,0-1.25-.28l-.15,0a1.67,1.67,0,0,0-1.22,1.89l1.54,9.21A1.64,1.64,0,0,0,119.58,135.88Zm-.81-11.52h0v0Z"/><path class="cls-23" d="M86.07,122.11a1.62,1.62,0,0,0,1.08.68,1.7,1.7,0,0,0,1.93-1.35l1.6-9.21a1.67,1.67,0,0,0-1.36-1.93,1.67,1.67,0,0,0-1.93,1.36l-1.6,9.2A1.72,1.72,0,0,0,86.07,122.11Z"/><path class="cls-25" d="M101.85,122.58a1.71,1.71,0,0,0,2.25.73l8.31-4.26a1.65,1.65,0,0,0,.83-1,1.62,1.62,0,0,0-.1-1.26,1.68,1.68,0,0,0-1.92-.86,2.26,2.26,0,0,0-.33.13l-8.31,4.26A1.66,1.66,0,0,0,101.85,122.58Z"/><path class="cls-22" d="M195.64,142.75a1.67,1.67,0,0,0,3-1.37l-3.83-8.52a1.67,1.67,0,0,0-1.95-.93,1.34,1.34,0,0,0-.26.09,1.65,1.65,0,0,0-.87.93,1.63,1.63,0,0,0,0,1.28Z"/><path class="cls-23" d="M204.85,105.63a1.7,1.7,0,0,0,.76-2.24L201.46,95a1.62,1.62,0,0,0-1-.83,1.66,1.66,0,0,0-2.19,1.71,1.47,1.47,0,0,0,.17.61l4.14,8.37a1.66,1.66,0,0,0,1,.84A1.69,1.69,0,0,0,204.85,105.63Z"/><path class="cls-22" d="M84.22,139.08l4.57,8.15a1.7,1.7,0,0,0,2.27.64,1.67,1.67,0,0,0,.79-1,1.63,1.63,0,0,0-.15-1.26l-4.58-8.15a1.65,1.65,0,0,0-1.88-.8,1.88,1.88,0,0,0-.39.16A1.67,1.67,0,0,0,84.22,139.08Z"/><path class="cls-27" d="M111.78,190.56Z"/><path class="cls-20" d="M91,97.82A1.66,1.66,0,0,0,91.47,99a1.71,1.71,0,0,0,2.36,0l6.63-6.59a1.67,1.67,0,0,0,0-2.36,1.6,1.6,0,0,0-.6-.39,1.67,1.67,0,0,0-1.75.38l-6.63,6.59A1.64,1.64,0,0,0,91,97.82Z"/><path class="cls-23" d="M87,194.59a1.71,1.71,0,0,0,2.25.73l8.31-4.26a1.68,1.68,0,0,0,.83-1,1.67,1.67,0,0,0-2-2.12,1.51,1.51,0,0,0-.33.13l-8.31,4.26A1.66,1.66,0,0,0,87,194.59Z"/></g></g><path class="cls-3" d="M81.13,149.53a33.48,33.48,0,0,1-21.83-7.95A37.64,37.64,0,0,1,49,126.37c-2.77-7.19-4.17-16-4.17-26.2a4,4,0,1,1,7.92,0c0,9.21,1.23,17.07,3.65,23.34a29.77,29.77,0,0,0,8.11,12.07,24.7,24.7,0,0,0,12.7,5.72,23.18,23.18,0,0,0,6.06.19,4,4,0,0,1,1.16,7.85A24.94,24.94,0,0,1,81.13,149.53Z"/><path class="cls-3" d="M249,191.64a4,4,0,0,1-4-4c0-9.22-1.22-17.07-3.64-23.35a30,30,0,0,0-8.12-12.07,24.62,24.62,0,0,0-12.69-5.71,22.74,22.74,0,0,0-6.07-.19,4,4,0,1,1-1.15-7.85,33.61,33.61,0,0,1,25.09,7.75,37.64,37.64,0,0,1,10.33,15.22c2.78,7.19,4.18,16,4.18,26.2A4,4,0,0,1,249,191.64Z"/><g class="cls-28"><path class="cls-10" d="M231,179.06h4.26a1,1,0,0,1-1-1v-7.8a1,1,0,0,1,1-1h25.24a1,1,0,0,1,1,1v7.8a1,1,0,0,1-1,1h-.7a5.68,5.68,0,0,1,5.67,5.67v19.85a5.68,5.68,0,0,1-5.67,5.67H231a5.68,5.68,0,0,1-5.66-5.67V184.73A5.68,5.68,0,0,1,231,179.06Z"/><path class="cls-12" d="M240.39,179.1h4.25a1,1,0,0,1-1-1v-7.8a1,1,0,0,1,1-1h25.24a1,1,0,0,1,1,1v7.8a1,1,0,0,1-1,1h-.7a5.68,5.68,0,0,1,5.67,5.67v19.86a5.68,5.68,0,0,1-5.67,5.67H240.39a5.68,5.68,0,0,1-5.67-5.67V184.77A5.68,5.68,0,0,1,240.39,179.1Z"/></g><path class="cls-3" d="M261.92,180.09H236.68a1.88,1.88,0,0,1-1.88-1.88V170.4a1.88,1.88,0,0,1,1.88-1.88h25.24a1.88,1.88,0,0,1,1.88,1.88v7.81A1.88,1.88,0,0,1,261.92,180.09Zm-25.24-9.78a.1.1,0,0,0-.1.09v7.81a.1.1,0,0,0,.1.09h25.24a.1.1,0,0,0,.1-.09V170.4a.1.1,0,0,0-.1-.09Z"/><path class="cls-3" d="M261.22,211.28H232.43a6.56,6.56,0,0,1-6.56-6.56V184.86a6.56,6.56,0,0,1,6.56-6.56h28.79a6.56,6.56,0,0,1,6.56,6.56v19.86A6.56,6.56,0,0,1,261.22,211.28Zm-28.79-31.19a4.78,4.78,0,0,0-4.78,4.77v19.86a4.78,4.78,0,0,0,4.78,4.77h28.79a4.78,4.78,0,0,0,4.78-4.77V184.86a4.78,4.78,0,0,0-4.78-4.77Z"/><path class="cls-3" d="M233.74,200.87a.89.89,0,0,1-.89-.89v-3.17h-5.66a.89.89,0,0,1,0-1.78h6.55a.89.89,0,0,1,.89.89V200A.89.89,0,0,1,233.74,200.87Z"/><path class="cls-3" d="M233.74,196.81a.89.89,0,0,1-.89-.89V189.6a.89.89,0,1,1,1.78,0v6.32A.89.89,0,0,1,233.74,196.81Z"/><path class="cls-3" d="M243.14,211.28a.89.89,0,0,1-.89-.89v-2.84a.89.89,0,0,1,1.78,0v2.84A.89.89,0,0,1,243.14,211.28Z"/><path class="cls-3" d="M251.67,211.28a.89.89,0,0,1-.9-.89v-2.84a.9.9,0,0,1,1.79,0v2.84A.89.89,0,0,1,251.67,211.28Z"/><path class="cls-3" d="M260.19,211.28a.89.89,0,0,1-.89-.89v-2.84a.89.89,0,0,1,1.78,0v2.84A.89.89,0,0,1,260.19,211.28Z"/><g class="cls-29"><path class="cls-10" d="M31.12,82.81V93.72a5.77,5.77,0,0,0,4.64,5.66,1.09,1.09,0,0,0-.66,1v7.8a1.09,1.09,0,0,0,1.09,1.09H61.43a1.09,1.09,0,0,0,1.09-1.09v-7.8a1.09,1.09,0,0,0-.47-.89h3.63a5.78,5.78,0,0,0,5.77-5.77V80.46a2.16,2.16,0,0,0-2.16-2.16H65.74l.65-6.56,3.43-19.69a2.48,2.48,0,0,0-.42-1.89,2.55,2.55,0,0,0-1.63-1l-3.62-.63a2.53,2.53,0,0,0-2.92,2.06l-3.8,19.16V52.13a2.53,2.53,0,0,0-2.52-2.53H51.24a2.53,2.53,0,0,0-2.53,2.53V69.36a2.14,2.14,0,0,0-2-1.26H42.34a2.16,2.16,0,0,0-2.08,1.57,2.15,2.15,0,0,0-2.07-1.57H33.78a2.16,2.16,0,0,0-2.16,2.16v12a2.19,2.19,0,0,0,.3,1.1Z"/><path class="cls-12" d="M35.36,84.23h-.52l0,9.21a5.77,5.77,0,0,0,4.64,5.65,1.1,1.1,0,0,0-.66,1v7.81A1.08,1.08,0,0,0,40,109H65.2a1.08,1.08,0,0,0,1.09-1.08v-7.81a1.08,1.08,0,0,0-.47-.88h3.63a5.78,5.78,0,0,0,5.77-5.77V80.18A2.16,2.16,0,0,0,73.06,78H69.51l.65-6.57,1.29-16.23c.11-.67,1.34-3.2,1-3.75S71.65,49.91,71,49.8l-5-1c-1.37-.24-4.82,22-5.06,23.34l-3.57-.73L61.2,51.85a2.52,2.52,0,0,0-2.52-2.53H55a2.53,2.53,0,0,0-2.53,2.53V78l-3.67,2V68.43l-2.7-.62c-1,0-1.82-.52-2.08.39-.25-.91-1.09-.39-2.07-.39H37.55A2.16,2.16,0,0,0,35.39,70V82Z"/><rect class="cls-10" x="39.23" y="76.29" width="3.83" height="18.23" transform="translate(126.55 44.25) rotate(90)"/><rect class="cls-10" x="54.76" y="79.02" width="3.83" height="12.82" transform="translate(142.11 28.76) rotate(90)"/></g><path class="cls-3" d="M61.43,110H36.19a1.88,1.88,0,0,1-1.88-1.88v-7.8a1.88,1.88,0,0,1,1.88-1.88H61.43a1.88,1.88,0,0,1,1.88,1.88v7.8A1.88,1.88,0,0,1,61.43,110Zm-25.24-9.78a.11.11,0,0,0-.1.1v7.8a.1.1,0,0,0,.1.1H61.43a.1.1,0,0,0,.1-.1v-7.8a.11.11,0,0,0-.1-.1Z"/><path class="cls-3" d="M65.68,100.18H36.88a6.56,6.56,0,0,1-6.55-6.55V82.57a.89.89,0,0,1,1.78,0V93.63a4.78,4.78,0,0,0,4.77,4.77h28.8a4.78,4.78,0,0,0,4.78-4.77V80.14a.89.89,0,1,1,1.78,0V93.63A6.56,6.56,0,0,1,65.68,100.18Z"/><path class="cls-3" d="M38.19,85.12H33.78a3,3,0,0,1-3-3v-12a3,3,0,0,1,3-3h4.41a3,3,0,0,1,3,3v12A3,3,0,0,1,38.19,85.12ZM33.78,69a1.17,1.17,0,0,0-1.17,1.17v12a1.18,1.18,0,0,0,1.17,1.17h4.41a1.18,1.18,0,0,0,1.17-1.17v-12A1.17,1.17,0,0,0,38.19,69Z"/><path class="cls-3" d="M46.75,85.12H42.34a3,3,0,0,1-3-3v-12a3,3,0,0,1,3-3h4.41a3,3,0,0,1,3,3v12A3,3,0,0,1,46.75,85.12ZM42.34,69a1.17,1.17,0,0,0-1.17,1.17v12a1.18,1.18,0,0,0,1.17,1.17h4.41a1.18,1.18,0,0,0,1.17-1.17v-12A1.17,1.17,0,0,0,46.75,69Z"/><path class="cls-3" d="M48.81,72.92a.89.89,0,0,1-.89-.89V52a3.32,3.32,0,0,1,3.32-3.32h3.67A3.32,3.32,0,0,1,58.23,52v18a.9.9,0,0,1-1.79,0V52a1.54,1.54,0,0,0-1.53-1.54H51.24A1.54,1.54,0,0,0,49.7,52V72A.89.89,0,0,1,48.81,72.92Z"/><path class="cls-3" d="M65.64,79.2h-.09a.89.89,0,0,1-.8-1l.65-6.68a.13.13,0,0,1,0-.06l3.44-19.7a1.52,1.52,0,0,0-.26-1.15,1.5,1.5,0,0,0-1-.63L64,49.37a1.52,1.52,0,0,0-1.77,1.25v0l-4,20.16a.89.89,0,0,1-1.75-.35l4-20.15a3.31,3.31,0,0,1,3.84-2.69l3.62.63a3.33,3.33,0,0,1,2.7,3.84L67.17,71.75l-.65,6.64A.89.89,0,0,1,65.64,79.2Z"/><path class="cls-3" d="M62.42,87.72H52.32a3,3,0,0,1-3-3V80.36a3,3,0,0,1,3-3h17a3,3,0,0,1,2.95,3v4.41a.89.89,0,1,1-1.78,0V80.36a1.17,1.17,0,0,0-1.17-1.16h-17a1.16,1.16,0,0,0-1.16,1.16v4.41a1.16,1.16,0,0,0,1.16,1.17h10.1a.89.89,0,0,1,0,1.78Z"/><g class="cls-30"><rect class="cls-12" x="52.44" y="38.5" width="202.61" height="144.5"/><path class="cls-31" d="M66.31,46V164.79H243.82V46Zm159.08,65.24c-1,4.66-1.17,1.87-6,3.17s-5,5.4-4.65,12.62-7.16,24.53-19,12.7-1.3-14.15-1.3-31.09-22-3.91-20.6,12.23S169.33,147,163.19,147s-15.26-2-9.72-26.13-16-23.59-21.89-13.72,8.35,14.15-2.85,24.47-18.2-1.57-16.41-16.74-16.49-16.49-17.24.83,6.33,33.74-11.53,33.74-7.3-35.89-7.3-35.89c0-19.52,4.34-39.9,18.47-50.08a33.25,33.25,0,0,1,21-6.25v.37c10.71-1.84,22.72,1.67,31.56,12.37,1,1.17,1.88,2.38,2.79,3.62.77-1,1.54-1.93,2.32-2.88,7-8.46,16.4-13.08,25.82-13.28h3.63a30,30,0,0,1,22.24,5.15c13.21,9.25,19.66,23.79,20.08,39.86C224.26,105.37,226.06,108,225.39,111.22Z"/></g><path class="cls-3" d="M79.3,157.45a10,10,0,0,1-8.46-4c-3-4.08-4-11.15-2.73-21a96.84,96.84,0,0,1,2.7-13.34c0-11.36,1.4-21.4,4.14-29.85,3.29-10.14,8.49-17.83,15.46-22.84a35.27,35.27,0,0,1,22.43-6.68,52.18,52.18,0,0,1,21,4,30.19,30.19,0,0,1,12.58,9.63c.47.65,1,1.27,1.48,1.93q.36.44.72.9c.62-.78,1.18-1.47,1.71-2.12a40.36,40.36,0,0,1,12.77-10.35A34.13,34.13,0,0,1,177.58,60l0,0h4a32.27,32.27,0,0,1,12.16.36,32.6,32.6,0,0,1,11.58,5.15A47.83,47.83,0,0,1,221,83.87a57.29,57.29,0,0,1,5.55,23.76,14.48,14.48,0,0,0,.67,3.46,12.08,12.08,0,0,1,.57,5.91,6.78,6.78,0,0,1-1.12,3.07,2.44,2.44,0,0,1-2.18.57,9.75,9.75,0,0,0-3.6.33c-4.29,1.16-4.57,4.62-4.18,12.23a22.53,22.53,0,0,1-2.19,9.68c-1.77,3.89-4.26,6.71-7,7.93a8.17,8.17,0,0,1-5.68.39,15.13,15.13,0,0,1-6.41-4.12c-3.74-3.74-5.6-6.78-6-9.87-.39-2.87.53-5.51,1.6-8.56a40.86,40.86,0,0,0,2.8-14.54c0-3.52-1-5.89-2.76-6.87s-4.79-.48-7.75,1.46c-4.87,3.19-9.82,10.2-9.16,18.06.9,10.79-1.23,20.14-5.71,25a8.58,8.58,0,0,1-6.27,3.13c-2.9,0-7.08-.4-9.86-3.91-1.64-2.05-2.6-5-2.86-8.62a55.09,55.09,0,0,1,1.73-15.74c1.23-5.35,1.23-9.79,0-13.18a9.63,9.63,0,0,0-5.46-5.85c-5.33-2.15-12.66.38-15.69,5.42-2.52,4.19-1.23,7.27.14,10.53.89,2.12,1.8,4.32,1.62,6.8-.21,2.76-1.8,5.48-4.88,8.32-5.57,5.13-9.65,4.71-12.1,3.47-5.09-2.61-7.69-11.3-6.47-21.65.53-4.48-.69-8.13-3.36-10a6.73,6.73,0,0,0-6.94-.49c-1.65.81-5.53,3.55-5.87,11.53a112,112,0,0,0,.41,12.92c.58,8.25,1.08,15.38-2.76,19.5C87.64,156.3,84.19,157.45,79.3,157.45Zm31.58-96a32.08,32.08,0,0,0-9.38,1.45,34.88,34.88,0,0,0-10,5c-6.65,4.79-11.63,12.18-14.8,22C74,98.12,72.59,108,72.59,119.23v.13l0,.12c-.07.24-7,24-.28,32.92a8.17,8.17,0,0,0,7,3.27c4.37,0,7.39-1,9.24-3,3.31-3.55,2.84-10.32,2.29-18.16a112.8,112.8,0,0,1-.41-13.12c.38-8.93,4.93-12.1,6.86-13.05A8.49,8.49,0,0,1,106,109c3.22,2.28,4.71,6.54,4.1,11.68-1.12,9.46,1.15,17.62,5.51,19.85,2.79,1.42,6.27.31,10.08-3.2,6-5.52,4.53-9,2.82-13.11-1.4-3.36-3-7.18,0-12.14a15,15,0,0,1,7.92-6.18,14.18,14.18,0,0,1,9.95,0,11.31,11.31,0,0,1,6.47,6.89c1.36,3.72,1.39,8.5.08,14.19-2.59,11.26-2.33,18.94.78,22.85,2.28,2.87,5.72,3.24,8.47,3.24a6.87,6.87,0,0,0,4.95-2.55,20.65,20.65,0,0,0,4.34-9,45.59,45.59,0,0,0,.91-14.67,20.54,20.54,0,0,1,2.65-11.67,23,23,0,0,1,7.31-8c3.57-2.34,7.07-2.9,9.58-1.54,1.68.91,3.69,3.11,3.69,8.44a42.27,42.27,0,0,1-2.9,15.13c-1,2.95-1.84,5.28-1.51,7.74.36,2.67,2.05,5.39,5.5,8.84,3.61,3.61,7,4.74,10.1,3.36,2.34-1,4.51-3.54,6.11-7a21,21,0,0,0,2-8.85c-.21-4.15-.21-7,.42-9.17a6.62,6.62,0,0,1,5.08-4.87,11.56,11.56,0,0,1,4.19-.39,2.93,2.93,0,0,0,.74,0c.11-.09.33-.55.68-2.23a10.48,10.48,0,0,0-.54-5.07,16.45,16.45,0,0,1-.73-3.88,55.47,55.47,0,0,0-5.37-23,46,46,0,0,0-15.15-17.73,30.63,30.63,0,0,0-11-4.88,30.29,30.29,0,0,0-11.55-.33h-3.89a32.37,32.37,0,0,0-14,3.59,38.48,38.48,0,0,0-12.2,9.9c-.73.88-1.49,1.83-2.41,3l-.73.91-.69-.94c-.44-.6-.92-1.2-1.37-1.77s-1-1.32-1.54-2a28.37,28.37,0,0,0-11.85-9,50.35,50.35,0,0,0-20.28-3.86h0C112.13,61.48,111.5,61.46,110.88,61.46Z"/><rect class="cls-1" width="297.28" height="297.28"/><g class="cls-32"><path class="cls-33" d="M116.62,50.05l3.08-8.29,2.17,6.06,7.63-3.22-3.13,6.07,10.72-.61L131.32,56l7.48,4.7-10.36,1.24A38.76,38.76,0,0,0,116.62,50.05Z"/><path class="cls-34" d="M114.55,47.53l3.08-8.28,3,10.3,6.77-7.47-3.63,9.75,11.55-3.42-7,7.13,8.37,2.59-10.36,1.24A38.76,38.76,0,0,0,114.55,47.53Z"/></g><g class="cls-35"><path class="cls-36" d="M109.14,47.27c8.77,0,27.16,18.3,20.17,26S95.21,85,88.58,78,96.12,47.19,109.14,47.27Z"/><path class="cls-37" d="M111.34,43.41c8.78.05,27.17,18.3,20.18,26S97.41,81.18,90.78,74.12,98.33,43.33,111.34,43.41Z"/></g><path class="cls-3" d="M113,47.47a.15.15,0,0,0,0-.3.15.15,0,0,0,0,.3Z"/><path class="cls-3" d="M102,82.54c-4,0-10.86-.55-14-4-2.62-2.79-2.58-7.93.12-14.11,3.84-8.79,12.5-18.1,21-18.1h.08c3.13,0,7.45,2.11,11.83,5.74S128.8,60,130.53,64c1.81,4.1,1.61,7.54-.56,9.94s-6.32,4.61-11.68,6.21a59,59,0,0,1-15.88,2.42Zm7.09-34.38c-7.48,0-15.73,8.65-19.39,17-2.36,5.41-2.53,10-.45,12.18s6.88,3.45,13.17,3.39a58.28,58.28,0,0,0,15.38-2.35c5.06-1.51,8.91-3.53,10.87-5.7,1.16-1.28,2.15-3.72.25-8-1.6-3.64-5-7.83-9.06-11.2s-8-5.31-10.71-5.33Z"/><path class="cls-3" d="M128,62.85l-.29-.51A38.16,38.16,0,0,0,116.14,50.8l-.6-.39,4.18-11.25,2.67,7.47,9-3.8-3.54,6.86L139.34,49l-6.61,6.75,8.67,5.45ZM117.71,49.69A40.09,40.09,0,0,1,128.9,60.94l7.29-.88-6.28-3.94,4.94-5-10,.57,2.72-5.27L121.34,49l-1.65-4.64Z"/><ellipse class="cls-38" cx="102.31" cy="63.09" rx="1.59" ry="0.99" transform="translate(-14.34 34.09) rotate(-17.7)"/><ellipse class="cls-38" cx="118.14" cy="55.96" rx="1.59" ry="0.99" transform="translate(-11.42 38.56) rotate(-17.7)"/><ellipse class="cls-38" cx="104.8" cy="59.08" rx="1.59" ry="0.99" transform="translate(-13 34.65) rotate(-17.7)"/><ellipse class="cls-38" cx="110.87" cy="57.38" rx="1.59" ry="0.99" transform="matrix(0.95, -0.3, 0.3, 0.95, -12.19, 36.42)"/><ellipse class="cls-38" cx="122.24" cy="60.74" rx="1.59" ry="0.99" transform="translate(-12.68 40.03) rotate(-17.7)"/><ellipse class="cls-38" cx="116.65" cy="61.89" rx="1.59" ry="0.99" transform="translate(-13.29 38.39) rotate(-17.7)"/><ellipse class="cls-38" cx="102.31" cy="55.02" rx="1.59" ry="0.99" transform="translate(-11.88 33.7) rotate(-17.7)"/><ellipse class="cls-38" cx="99.84" cy="67.48" rx="1.59" ry="0.99" transform="translate(-15.79 33.54) rotate(-17.7)"/><ellipse class="cls-38" cx="107.2" cy="68.14" rx="1.59" ry="0.99" transform="matrix(0.95, -0.3, 0.3, 0.95, -15.64, 35.81)"/><ellipse class="cls-38" cx="103.85" cy="72.39" rx="1.59" ry="0.99" transform="translate(-17.09 35) rotate(-17.7)"/><ellipse class="cls-38" cx="110.36" cy="73.07" rx="1.59" ry="0.99" transform="translate(-16.99 37.01) rotate(-17.7)"/><ellipse class="cls-38" cx="97.8" cy="77.59" rx="1.59" ry="0.99" transform="translate(-18.96 33.4) rotate(-17.7)"/><ellipse class="cls-38" cx="104.31" cy="78.26" rx="1.59" ry="0.99" transform="translate(-18.85 35.41) rotate(-17.7)"/><ellipse class="cls-38" cx="122.41" cy="67.48" rx="1.59" ry="0.99" transform="translate(-14.72 40.41) rotate(-17.7)"/><ellipse class="cls-38" cx="113" cy="76.83" rx="1.59" ry="0.99" transform="translate(-18.01 37.99) rotate(-17.7)"/><ellipse class="cls-38" cx="113" cy="65.88" rx="1.59" ry="0.99" transform="translate(-14.68 37.47) rotate(-17.7)"/><ellipse class="cls-38" cx="110.36" cy="61.91" rx="1.59" ry="0.99" transform="translate(-13.6 36.48) rotate(-17.7)"/><ellipse class="cls-38" cx="115.68" cy="70.34" rx="1.59" ry="0.99" transform="translate(-15.91 38.49) rotate(-17.7)"/><ellipse class="cls-38" cx="119.93" cy="73.24" rx="1.59" ry="0.99" transform="translate(-16.59 39.92) rotate(-17.7)"/><ellipse class="cls-38" cx="125.25" cy="70.51" rx="1.59" ry="0.99" transform="translate(-15.51 41.41) rotate(-17.7)"/><ellipse class="cls-38" cx="95.09" cy="63.32" rx="1.59" ry="0.99" transform="translate(-14.75 31.9) rotate(-17.7)"/><ellipse class="cls-38" cx="97.93" cy="59.08" rx="1.59" ry="0.99" transform="translate(-13.32 32.57) rotate(-17.7)"/><ellipse class="cls-38" cx="93.83" cy="68.14" rx="1.59" ry="0.99" transform="translate(-16.27 31.75) rotate(-17.7)"/><ellipse class="cls-38" cx="97.93" cy="72.85" rx="1.59" ry="0.99" transform="translate(-17.51 33.22) rotate(-17.7)"/><ellipse class="cls-38" cx="91.55" cy="73.75" rx="1.59" ry="0.99" transform="translate(-18.09 31.32) rotate(-17.7)"/><ellipse class="cls-39" cx="110.08" cy="52.58" rx="3.01" ry="5.24" transform="translate(29.01 143.73) rotate(-73.88)"/><ellipse class="cls-38" cx="107.2" cy="51.74" rx="1.59" ry="0.99" transform="translate(-10.66 35.04) rotate(-17.7)"/><ellipse class="cls-38" cx="113.21" cy="52.58" rx="1.59" ry="0.99" transform="translate(-10.63 36.9) rotate(-17.7)"/><g class="cls-40"><path class="cls-41" d="M128.37,162.3h55a0,0,0,0,1,0,0v.07a25.52,25.52,0,0,1-25.52,25.52h-4a25.52,25.52,0,0,1-25.52-25.52v-.07A0,0,0,0,1,128.37,162.3Z"/><path class="cls-42" d="M129.24,168.63s49.51-4,50.07,10C179.92,194,185.9,161,185.9,161h-57Z"/></g><path class="cls-3" d="M157.87,188.5H154A26.48,26.48,0,0,1,127.56,162v-.89h56.79V162a26.48,26.48,0,0,1-26.48,26.48Zm-28.51-25.59A24.69,24.69,0,0,0,154,186.72h3.83a24.69,24.69,0,0,0,24.68-23.81Z"/><circle class="cls-12" cx="125.57" cy="136.08" r="16.46"/><path class="cls-3" d="M125.57,153.43a17.35,17.35,0,1,1,17.35-17.35A17.37,17.37,0,0,1,125.57,153.43Zm0-32.92a15.57,15.57,0,1,0,15.56,15.57A15.59,15.59,0,0,0,125.57,120.51Z"/><circle class="cls-12" cx="184.7" cy="136.08" r="16.46"/><path class="cls-3" d="M184.7,153.43a17.35,17.35,0,1,1,17.35-17.35A17.37,17.37,0,0,1,184.7,153.43Zm0-32.92a15.57,15.57,0,1,0,15.57,15.57A15.59,15.59,0,0,0,184.7,120.51Z"/><circle class="cls-3" cx="125.81" cy="136.15" r="2.13"/><circle class="cls-3" cx="184.33" cy="136.15" r="2.13"/></g></g></g></g></svg>