<svg xmlns="http://www.w3.org/2000/svg" width="39.906" height="39.906" viewBox="0 0 39.906 39.906">
    <g data-name="Group 3649">
        <path data-name="Path 2896" d="M179.065 0a19.953 19.953 0 1 0 19.953 19.953A19.953 19.953 0 0 0 179.065 0" transform="translate(-159.112)" style="fill:#5b3a00"/>
        <path data-name="Path 2897" d="M183.983 30.456h-.461c-.065-.083-.157-.049-.238-.049h-8.487c-.081 0-.173-.034-.238.049h-.512c-.025-.082-.1-.051-.15-.059a5.91 5.91 0 0 1-2.189-.738 5.976 5.976 0 0 1-3.126-5.341c-.036-2.9-.009-5.8-.007-8.705 0-.187.015-.375.032-.562a6.087 6.087 0 0 1 5.987-5.577q4.479-.051 8.961 0a6.092 6.092 0 0 1 5.871 4.859 2.447 2.447 0 0 0 .14.656v.461c-.09.073-.049.175-.049.263v8.566c0 .08-.037.172.05.236v.461c-.09.034-.052.116-.062.176a6.147 6.147 0 0 1-4.89 5.182 2.659 2.659 0 0 0-.631.122m-4.935-5.256a5.241 5.241 0 1 0-5.223-5.252 5.239 5.239 0 0 0 5.223 5.252m5.558-9.361a1.436 1.436 0 1 0-1.42-1.466 1.45 1.45 0 0 0 1.42 1.466" transform="translate(-159.112)" style="fill:#fff"/>
        <path data-name="Path 2898" d="M189.566 24.515c-.087-.064-.05-.157-.05-.237v-8.565c0-.088-.041-.19.048-.263z" transform="translate(-159.112)" style="fill:#fff"/>
        <path data-name="Path 2899" d="M174.56 30.457c.065-.084.157-.05.238-.05h8.487c.081 0 .173-.033.238.05z" transform="translate(-159.112)" style="fill:#fff"/>
        <path data-name="Path 2900" d="M182.558 19.967a3.491 3.491 0 1 1-3.481-3.5 3.481 3.481 0 0 1 3.481 3.5" transform="translate(-159.112)" style="fill:#fff"/>
    </g>
</svg>
