<svg xmlns="http://www.w3.org/2000/svg" width="39.906" height="39.906" viewBox="0 0 39.906 39.906">
    <g data-name="Group 313" transform="translate(-1196.194 -24.136)">
        <circle data-name="Ellipse 4" cx="19.953" cy="19.953" r="19.953" transform="translate(1196.194 24.136)" style="fill:#5b3a00"/>
        <g data-name="Group 312">
            <path data-name="Path 76" d="M1217.526 48.3v1.878a3.944 3.944 0 0 0 3.837-1.051 3.261 3.261 0 0 1 1.376-.808c1.635-.528 3.294-.983 5.006-1.484.226.86.246 1.4-.642 1.89a6.308 6.308 0 0 0-2.175 1.989c-2.473 3.8-2.516 3.869-7.072 3.869-2.447 0-4.895.029-7.341-.009a6.157 6.157 0 0 1-6.042-6.8c1.734 0 3.487-.015 5.239.025.172 0 .442.325.488.537a2.043 2.043 0 0 0 2.181 1.911c.779.028 1.561.005 2.414.005V48.2h-2.79c.709-1.18 1.375-2.173 1.925-3.227a5.42 5.42 0 0 0-.045-5.8 39.554 39.554 0 0 1-1.924-3.975l3.019.672c.037-.529-.058-.982.118-1.27.261-.426.778-1.068 1.069-1.012.436.083 1.127.735 1.087 1.072-.167 1.438.594 2.168 1.557 3.047a18.72 18.72 0 0 1 2.969 3.679 3.084 3.084 0 0 1-.064 3.5 9.521 9.521 0 0 0-.479.958c-.937 1.918-1.192 2.091-3.711 2.456z" style="fill:#fff"/>
            <path data-name="Path 77" d="m1205.7 45.764 5.319-8.246c1.714 1.988 1.912 6.117.408 7.959a1.094 1.094 0 0 1-.756.275c-1.597.024-3.191.012-4.971.012z" style="fill:#fff"/>
        </g>
    </g>
</svg>
