<svg xmlns="http://www.w3.org/2000/svg" width="39.906" height="39.906" viewBox="0 0 39.906 39.906">
    <g data-name="Group 311" transform="translate(-1091.194 -24.136)">
        <circle data-name="Ellipse 3" cx="19.953" cy="19.953" r="19.953" transform="translate(1091.194 24.136)" style="fill:#5b3a00"/>
        <path data-name="Path 75" d="M1106.7 49.183a4.734 4.734 0 0 1-4.163-3.148h1.808a4.855 4.855 0 0 1-3.388-4.5l1.79.5.085-.088a4.75 4.75 0 0 1-1.258-5.982 13.016 13.016 0 0 0 9.248 4.725c0-.411-.01-.766 0-1.119a4.491 4.491 0 0 1 7.323-3.375 1.063 1.063 0 0 0 1.19.215c.675-.268 1.355-.525 2.09-.809a6.432 6.432 0 0 1-1.635 2.377l2.119-.571.1.091c-.561.582-1.087 1.2-1.7 1.73a1.207 1.207 0 0 0-.47.988 13.03 13.03 0 0 1-2.766 7.966 12.1 12.1 0 0 1-9.737 4.825 12.822 12.822 0 0 1-6.469-1.524 3.375 3.375 0 0 1-.6-.4 9.526 9.526 0 0 0 6.433-1.901z" style="fill:#fff"/>
    </g>
</svg>
